G04 #@! TF.GenerationSoftware,KiCad,Pcbnew,(5.1.4)-1*
G04 #@! TF.CreationDate,2019-12-14T01:31:00+08:00*
G04 #@! TF.ProjectId,esp-break,6573702d-6272-4656-916b-2e6b69636164,rev?*
G04 #@! TF.SameCoordinates,Original*
G04 #@! TF.FileFunction,Soldermask,Top*
G04 #@! TF.FilePolarity,Negative*
%FSLAX46Y46*%
G04 Gerber Fmt 4.6, Leading zero omitted, Abs format (unit mm)*
G04 Created by KiCad (PCBNEW (5.1.4)-1) date 2019-12-14 01:31:00*
%MOMM*%
%LPD*%
G04 APERTURE LIST*
%ADD10C,0.100000*%
G04 APERTURE END LIST*
D10*
G36*
X128420185Y-110645202D02*
G01*
X128570010Y-110675004D01*
X128852274Y-110791921D01*
X129106305Y-110961659D01*
X129322341Y-111177695D01*
X129492079Y-111431726D01*
X129608996Y-111713990D01*
X129668600Y-112013640D01*
X129668600Y-112319160D01*
X129608996Y-112618810D01*
X129492079Y-112901074D01*
X129322341Y-113155105D01*
X129106305Y-113371141D01*
X128852274Y-113540879D01*
X128570010Y-113657796D01*
X128420185Y-113687598D01*
X128270361Y-113717400D01*
X127964839Y-113717400D01*
X127815015Y-113687598D01*
X127665190Y-113657796D01*
X127382926Y-113540879D01*
X127128895Y-113371141D01*
X126912859Y-113155105D01*
X126743121Y-112901074D01*
X126626204Y-112618810D01*
X126566600Y-112319160D01*
X126566600Y-112013640D01*
X126626204Y-111713990D01*
X126743121Y-111431726D01*
X126912859Y-111177695D01*
X127128895Y-110961659D01*
X127382926Y-110791921D01*
X127665190Y-110675004D01*
X127815015Y-110645202D01*
X127964839Y-110615400D01*
X128270361Y-110615400D01*
X128420185Y-110645202D01*
X128420185Y-110645202D01*
G37*
G36*
X105458585Y-110645202D02*
G01*
X105608410Y-110675004D01*
X105890674Y-110791921D01*
X106144705Y-110961659D01*
X106360741Y-111177695D01*
X106530479Y-111431726D01*
X106647396Y-111713990D01*
X106707000Y-112013640D01*
X106707000Y-112319160D01*
X106647396Y-112618810D01*
X106530479Y-112901074D01*
X106360741Y-113155105D01*
X106144705Y-113371141D01*
X105890674Y-113540879D01*
X105608410Y-113657796D01*
X105458585Y-113687598D01*
X105308761Y-113717400D01*
X105003239Y-113717400D01*
X104853415Y-113687598D01*
X104703590Y-113657796D01*
X104421326Y-113540879D01*
X104167295Y-113371141D01*
X103951259Y-113155105D01*
X103781521Y-112901074D01*
X103664604Y-112618810D01*
X103605000Y-112319160D01*
X103605000Y-112013640D01*
X103664604Y-111713990D01*
X103781521Y-111431726D01*
X103951259Y-111177695D01*
X104167295Y-110961659D01*
X104421326Y-110791921D01*
X104703590Y-110675004D01*
X104853415Y-110645202D01*
X105003239Y-110615400D01*
X105308761Y-110615400D01*
X105458585Y-110645202D01*
X105458585Y-110645202D01*
G37*
G36*
X118129411Y-108591405D02*
G01*
X118163389Y-108601713D01*
X118194710Y-108618454D01*
X118222159Y-108640981D01*
X118244686Y-108668430D01*
X118261427Y-108699751D01*
X118271735Y-108733729D01*
X118275820Y-108775210D01*
X118275820Y-109451430D01*
X118271735Y-109492911D01*
X118261427Y-109526889D01*
X118244686Y-109558210D01*
X118222159Y-109585659D01*
X118194710Y-109608186D01*
X118163389Y-109624927D01*
X118129411Y-109635235D01*
X118087930Y-109639320D01*
X117486710Y-109639320D01*
X117445229Y-109635235D01*
X117411251Y-109624927D01*
X117379930Y-109608186D01*
X117352481Y-109585659D01*
X117329954Y-109558210D01*
X117313213Y-109526889D01*
X117302905Y-109492911D01*
X117298820Y-109451430D01*
X117298820Y-108775210D01*
X117302905Y-108733729D01*
X117313213Y-108699751D01*
X117329954Y-108668430D01*
X117352481Y-108640981D01*
X117379930Y-108618454D01*
X117411251Y-108601713D01*
X117445229Y-108591405D01*
X117486710Y-108587320D01*
X118087930Y-108587320D01*
X118129411Y-108591405D01*
X118129411Y-108591405D01*
G37*
G36*
X119704411Y-108591405D02*
G01*
X119738389Y-108601713D01*
X119769710Y-108618454D01*
X119797159Y-108640981D01*
X119819686Y-108668430D01*
X119836427Y-108699751D01*
X119846735Y-108733729D01*
X119850820Y-108775210D01*
X119850820Y-109451430D01*
X119846735Y-109492911D01*
X119836427Y-109526889D01*
X119819686Y-109558210D01*
X119797159Y-109585659D01*
X119769710Y-109608186D01*
X119738389Y-109624927D01*
X119704411Y-109635235D01*
X119662930Y-109639320D01*
X119061710Y-109639320D01*
X119020229Y-109635235D01*
X118986251Y-109624927D01*
X118954930Y-109608186D01*
X118927481Y-109585659D01*
X118904954Y-109558210D01*
X118888213Y-109526889D01*
X118877905Y-109492911D01*
X118873820Y-109451430D01*
X118873820Y-108775210D01*
X118877905Y-108733729D01*
X118888213Y-108699751D01*
X118904954Y-108668430D01*
X118927481Y-108640981D01*
X118954930Y-108618454D01*
X118986251Y-108601713D01*
X119020229Y-108591405D01*
X119061710Y-108587320D01*
X119662930Y-108587320D01*
X119704411Y-108591405D01*
X119704411Y-108591405D01*
G37*
G36*
X113067391Y-108578705D02*
G01*
X113101369Y-108589013D01*
X113132690Y-108605754D01*
X113160139Y-108628281D01*
X113182666Y-108655730D01*
X113199407Y-108687051D01*
X113209715Y-108721029D01*
X113213800Y-108762510D01*
X113213800Y-109438730D01*
X113209715Y-109480211D01*
X113199407Y-109514189D01*
X113182666Y-109545510D01*
X113160139Y-109572959D01*
X113132690Y-109595486D01*
X113101369Y-109612227D01*
X113067391Y-109622535D01*
X113025910Y-109626620D01*
X112424690Y-109626620D01*
X112383209Y-109622535D01*
X112349231Y-109612227D01*
X112317910Y-109595486D01*
X112290461Y-109572959D01*
X112267934Y-109545510D01*
X112251193Y-109514189D01*
X112240885Y-109480211D01*
X112236800Y-109438730D01*
X112236800Y-108762510D01*
X112240885Y-108721029D01*
X112251193Y-108687051D01*
X112267934Y-108655730D01*
X112290461Y-108628281D01*
X112317910Y-108605754D01*
X112349231Y-108589013D01*
X112383209Y-108578705D01*
X112424690Y-108574620D01*
X113025910Y-108574620D01*
X113067391Y-108578705D01*
X113067391Y-108578705D01*
G37*
G36*
X111492391Y-108578705D02*
G01*
X111526369Y-108589013D01*
X111557690Y-108605754D01*
X111585139Y-108628281D01*
X111607666Y-108655730D01*
X111624407Y-108687051D01*
X111634715Y-108721029D01*
X111638800Y-108762510D01*
X111638800Y-109438730D01*
X111634715Y-109480211D01*
X111624407Y-109514189D01*
X111607666Y-109545510D01*
X111585139Y-109572959D01*
X111557690Y-109595486D01*
X111526369Y-109612227D01*
X111492391Y-109622535D01*
X111450910Y-109626620D01*
X110849690Y-109626620D01*
X110808209Y-109622535D01*
X110774231Y-109612227D01*
X110742910Y-109595486D01*
X110715461Y-109572959D01*
X110692934Y-109545510D01*
X110676193Y-109514189D01*
X110665885Y-109480211D01*
X110661800Y-109438730D01*
X110661800Y-108762510D01*
X110665885Y-108721029D01*
X110676193Y-108687051D01*
X110692934Y-108655730D01*
X110715461Y-108628281D01*
X110742910Y-108605754D01*
X110774231Y-108589013D01*
X110808209Y-108578705D01*
X110849690Y-108574620D01*
X111450910Y-108574620D01*
X111492391Y-108578705D01*
X111492391Y-108578705D01*
G37*
G36*
X128413581Y-106723579D02*
G01*
X128497427Y-106731837D01*
X128667266Y-106783357D01*
X128823791Y-106867022D01*
X128859454Y-106896290D01*
X128960986Y-106979614D01*
X129044248Y-107081071D01*
X129073578Y-107116809D01*
X129157243Y-107273334D01*
X129208763Y-107443173D01*
X129226159Y-107619800D01*
X129208763Y-107796427D01*
X129157243Y-107966266D01*
X129073578Y-108122791D01*
X129044248Y-108158529D01*
X128960986Y-108259986D01*
X128871227Y-108333648D01*
X128823791Y-108372578D01*
X128667266Y-108456243D01*
X128497427Y-108507763D01*
X128431242Y-108514282D01*
X128365060Y-108520800D01*
X128276540Y-108520800D01*
X128210358Y-108514282D01*
X128144173Y-108507763D01*
X127974334Y-108456243D01*
X127817809Y-108372578D01*
X127770373Y-108333648D01*
X127680614Y-108259986D01*
X127597352Y-108158529D01*
X127568022Y-108122791D01*
X127484357Y-107966266D01*
X127432837Y-107796427D01*
X127415441Y-107619800D01*
X127432837Y-107443173D01*
X127484357Y-107273334D01*
X127568022Y-107116809D01*
X127597352Y-107081071D01*
X127680614Y-106979614D01*
X127782146Y-106896290D01*
X127817809Y-106867022D01*
X127974334Y-106783357D01*
X128144173Y-106731837D01*
X128228019Y-106723579D01*
X128276540Y-106718800D01*
X128365060Y-106718800D01*
X128413581Y-106723579D01*
X128413581Y-106723579D01*
G37*
G36*
X124717671Y-107379325D02*
G01*
X124751649Y-107389633D01*
X124782970Y-107406374D01*
X124810419Y-107428901D01*
X124832946Y-107456350D01*
X124849687Y-107487671D01*
X124859995Y-107521649D01*
X124864080Y-107563130D01*
X124864080Y-108164350D01*
X124859995Y-108205831D01*
X124849687Y-108239809D01*
X124832946Y-108271130D01*
X124810419Y-108298579D01*
X124782970Y-108321106D01*
X124751649Y-108337847D01*
X124717671Y-108348155D01*
X124676190Y-108352240D01*
X123999970Y-108352240D01*
X123958489Y-108348155D01*
X123924511Y-108337847D01*
X123893190Y-108321106D01*
X123865741Y-108298579D01*
X123843214Y-108271130D01*
X123826473Y-108239809D01*
X123816165Y-108205831D01*
X123812080Y-108164350D01*
X123812080Y-107563130D01*
X123816165Y-107521649D01*
X123826473Y-107487671D01*
X123843214Y-107456350D01*
X123865741Y-107428901D01*
X123893190Y-107406374D01*
X123924511Y-107389633D01*
X123958489Y-107379325D01*
X123999970Y-107375240D01*
X124676190Y-107375240D01*
X124717671Y-107379325D01*
X124717671Y-107379325D01*
G37*
G36*
X111492391Y-105929485D02*
G01*
X111526369Y-105939793D01*
X111557690Y-105956534D01*
X111585139Y-105979061D01*
X111607666Y-106006510D01*
X111624407Y-106037831D01*
X111634715Y-106071809D01*
X111638800Y-106113290D01*
X111638800Y-106789510D01*
X111634715Y-106830991D01*
X111624407Y-106864969D01*
X111607666Y-106896290D01*
X111585139Y-106923739D01*
X111557690Y-106946266D01*
X111526369Y-106963007D01*
X111492391Y-106973315D01*
X111450910Y-106977400D01*
X110849690Y-106977400D01*
X110808209Y-106973315D01*
X110774231Y-106963007D01*
X110742910Y-106946266D01*
X110715461Y-106923739D01*
X110692934Y-106896290D01*
X110676193Y-106864969D01*
X110665885Y-106830991D01*
X110661800Y-106789510D01*
X110661800Y-106113290D01*
X110665885Y-106071809D01*
X110676193Y-106037831D01*
X110692934Y-106006510D01*
X110715461Y-105979061D01*
X110742910Y-105956534D01*
X110774231Y-105939793D01*
X110808209Y-105929485D01*
X110849690Y-105925400D01*
X111450910Y-105925400D01*
X111492391Y-105929485D01*
X111492391Y-105929485D01*
G37*
G36*
X113067391Y-105929485D02*
G01*
X113101369Y-105939793D01*
X113132690Y-105956534D01*
X113160139Y-105979061D01*
X113182666Y-106006510D01*
X113199407Y-106037831D01*
X113209715Y-106071809D01*
X113213800Y-106113290D01*
X113213800Y-106789510D01*
X113209715Y-106830991D01*
X113199407Y-106864969D01*
X113182666Y-106896290D01*
X113160139Y-106923739D01*
X113132690Y-106946266D01*
X113101369Y-106963007D01*
X113067391Y-106973315D01*
X113025910Y-106977400D01*
X112424690Y-106977400D01*
X112383209Y-106973315D01*
X112349231Y-106963007D01*
X112317910Y-106946266D01*
X112290461Y-106923739D01*
X112267934Y-106896290D01*
X112251193Y-106864969D01*
X112240885Y-106830991D01*
X112236800Y-106789510D01*
X112236800Y-106113290D01*
X112240885Y-106071809D01*
X112251193Y-106037831D01*
X112267934Y-106006510D01*
X112290461Y-105979061D01*
X112317910Y-105956534D01*
X112349231Y-105939793D01*
X112383209Y-105929485D01*
X112424690Y-105925400D01*
X113025910Y-105925400D01*
X113067391Y-105929485D01*
X113067391Y-105929485D01*
G37*
G36*
X119696791Y-105827885D02*
G01*
X119730769Y-105838193D01*
X119762090Y-105854934D01*
X119789539Y-105877461D01*
X119812066Y-105904910D01*
X119828807Y-105936231D01*
X119839115Y-105970209D01*
X119843200Y-106011690D01*
X119843200Y-106687910D01*
X119839115Y-106729391D01*
X119828807Y-106763369D01*
X119812066Y-106794690D01*
X119789539Y-106822139D01*
X119762090Y-106844666D01*
X119730769Y-106861407D01*
X119696791Y-106871715D01*
X119655310Y-106875800D01*
X119054090Y-106875800D01*
X119012609Y-106871715D01*
X118978631Y-106861407D01*
X118947310Y-106844666D01*
X118919861Y-106822139D01*
X118897334Y-106794690D01*
X118880593Y-106763369D01*
X118870285Y-106729391D01*
X118866200Y-106687910D01*
X118866200Y-106011690D01*
X118870285Y-105970209D01*
X118880593Y-105936231D01*
X118897334Y-105904910D01*
X118919861Y-105877461D01*
X118947310Y-105854934D01*
X118978631Y-105838193D01*
X119012609Y-105827885D01*
X119054090Y-105823800D01*
X119655310Y-105823800D01*
X119696791Y-105827885D01*
X119696791Y-105827885D01*
G37*
G36*
X118121791Y-105827885D02*
G01*
X118155769Y-105838193D01*
X118187090Y-105854934D01*
X118214539Y-105877461D01*
X118237066Y-105904910D01*
X118253807Y-105936231D01*
X118264115Y-105970209D01*
X118268200Y-106011690D01*
X118268200Y-106687910D01*
X118264115Y-106729391D01*
X118253807Y-106763369D01*
X118237066Y-106794690D01*
X118214539Y-106822139D01*
X118187090Y-106844666D01*
X118155769Y-106861407D01*
X118121791Y-106871715D01*
X118080310Y-106875800D01*
X117479090Y-106875800D01*
X117437609Y-106871715D01*
X117403631Y-106861407D01*
X117372310Y-106844666D01*
X117344861Y-106822139D01*
X117322334Y-106794690D01*
X117305593Y-106763369D01*
X117295285Y-106729391D01*
X117291200Y-106687910D01*
X117291200Y-106011690D01*
X117295285Y-105970209D01*
X117305593Y-105936231D01*
X117322334Y-105904910D01*
X117344861Y-105877461D01*
X117372310Y-105854934D01*
X117403631Y-105838193D01*
X117437609Y-105827885D01*
X117479090Y-105823800D01*
X118080310Y-105823800D01*
X118121791Y-105827885D01*
X118121791Y-105827885D01*
G37*
G36*
X124717671Y-105804325D02*
G01*
X124751649Y-105814633D01*
X124782970Y-105831374D01*
X124810419Y-105853901D01*
X124832946Y-105881350D01*
X124849687Y-105912671D01*
X124859995Y-105946649D01*
X124864080Y-105988130D01*
X124864080Y-106589350D01*
X124859995Y-106630831D01*
X124849687Y-106664809D01*
X124832946Y-106696130D01*
X124810419Y-106723579D01*
X124782970Y-106746106D01*
X124751649Y-106762847D01*
X124717671Y-106773155D01*
X124676190Y-106777240D01*
X123999970Y-106777240D01*
X123958489Y-106773155D01*
X123924511Y-106762847D01*
X123893190Y-106746106D01*
X123865741Y-106723579D01*
X123843214Y-106696130D01*
X123826473Y-106664809D01*
X123816165Y-106630831D01*
X123812080Y-106589350D01*
X123812080Y-105988130D01*
X123816165Y-105946649D01*
X123826473Y-105912671D01*
X123843214Y-105881350D01*
X123865741Y-105853901D01*
X123893190Y-105831374D01*
X123924511Y-105814633D01*
X123958489Y-105804325D01*
X123999970Y-105800240D01*
X124676190Y-105800240D01*
X124717671Y-105804325D01*
X124717671Y-105804325D01*
G37*
G36*
X128431243Y-104185319D02*
G01*
X128497427Y-104191837D01*
X128667266Y-104243357D01*
X128823791Y-104327022D01*
X128859529Y-104356352D01*
X128960986Y-104439614D01*
X129044248Y-104541071D01*
X129073578Y-104576809D01*
X129157243Y-104733334D01*
X129208763Y-104903173D01*
X129226159Y-105079800D01*
X129208763Y-105256427D01*
X129157243Y-105426266D01*
X129073578Y-105582791D01*
X129044248Y-105618529D01*
X128960986Y-105719986D01*
X128863195Y-105800240D01*
X128823791Y-105832578D01*
X128667266Y-105916243D01*
X128497427Y-105967763D01*
X128431242Y-105974282D01*
X128365060Y-105980800D01*
X128276540Y-105980800D01*
X128210358Y-105974282D01*
X128144173Y-105967763D01*
X127974334Y-105916243D01*
X127817809Y-105832578D01*
X127778405Y-105800240D01*
X127680614Y-105719986D01*
X127597352Y-105618529D01*
X127568022Y-105582791D01*
X127484357Y-105426266D01*
X127432837Y-105256427D01*
X127415441Y-105079800D01*
X127432837Y-104903173D01*
X127484357Y-104733334D01*
X127568022Y-104576809D01*
X127597352Y-104541071D01*
X127680614Y-104439614D01*
X127782071Y-104356352D01*
X127817809Y-104327022D01*
X127974334Y-104243357D01*
X128144173Y-104191837D01*
X128210357Y-104185319D01*
X128276540Y-104178800D01*
X128365060Y-104178800D01*
X128431243Y-104185319D01*
X128431243Y-104185319D01*
G37*
G36*
X105469800Y-105403000D02*
G01*
X104567800Y-105403000D01*
X104567800Y-104401000D01*
X105469800Y-104401000D01*
X105469800Y-105403000D01*
X105469800Y-105403000D01*
G37*
G36*
X107369800Y-105403000D02*
G01*
X106467800Y-105403000D01*
X106467800Y-104401000D01*
X107369800Y-104401000D01*
X107369800Y-105403000D01*
X107369800Y-105403000D01*
G37*
G36*
X111463991Y-103237085D02*
G01*
X111497969Y-103247393D01*
X111529290Y-103264134D01*
X111556739Y-103286661D01*
X111579266Y-103314110D01*
X111596007Y-103345431D01*
X111606315Y-103379409D01*
X111610400Y-103420890D01*
X111610400Y-104097110D01*
X111606315Y-104138591D01*
X111596007Y-104172569D01*
X111579266Y-104203890D01*
X111556739Y-104231339D01*
X111529290Y-104253866D01*
X111497969Y-104270607D01*
X111463991Y-104280915D01*
X111422510Y-104285000D01*
X110821290Y-104285000D01*
X110779809Y-104280915D01*
X110745831Y-104270607D01*
X110714510Y-104253866D01*
X110687061Y-104231339D01*
X110664534Y-104203890D01*
X110647793Y-104172569D01*
X110637485Y-104138591D01*
X110633400Y-104097110D01*
X110633400Y-103420890D01*
X110637485Y-103379409D01*
X110647793Y-103345431D01*
X110664534Y-103314110D01*
X110687061Y-103286661D01*
X110714510Y-103264134D01*
X110745831Y-103247393D01*
X110779809Y-103237085D01*
X110821290Y-103233000D01*
X111422510Y-103233000D01*
X111463991Y-103237085D01*
X111463991Y-103237085D01*
G37*
G36*
X113038991Y-103237085D02*
G01*
X113072969Y-103247393D01*
X113104290Y-103264134D01*
X113131739Y-103286661D01*
X113154266Y-103314110D01*
X113171007Y-103345431D01*
X113181315Y-103379409D01*
X113185400Y-103420890D01*
X113185400Y-104097110D01*
X113181315Y-104138591D01*
X113171007Y-104172569D01*
X113154266Y-104203890D01*
X113131739Y-104231339D01*
X113104290Y-104253866D01*
X113072969Y-104270607D01*
X113038991Y-104280915D01*
X112997510Y-104285000D01*
X112396290Y-104285000D01*
X112354809Y-104280915D01*
X112320831Y-104270607D01*
X112289510Y-104253866D01*
X112262061Y-104231339D01*
X112239534Y-104203890D01*
X112222793Y-104172569D01*
X112212485Y-104138591D01*
X112208400Y-104097110D01*
X112208400Y-103420890D01*
X112212485Y-103379409D01*
X112222793Y-103345431D01*
X112239534Y-103314110D01*
X112262061Y-103286661D01*
X112289510Y-103264134D01*
X112320831Y-103247393D01*
X112354809Y-103237085D01*
X112396290Y-103233000D01*
X112997510Y-103233000D01*
X113038991Y-103237085D01*
X113038991Y-103237085D01*
G37*
G36*
X119696791Y-103186285D02*
G01*
X119730769Y-103196593D01*
X119762090Y-103213334D01*
X119789539Y-103235861D01*
X119812066Y-103263310D01*
X119828807Y-103294631D01*
X119839115Y-103328609D01*
X119843200Y-103370090D01*
X119843200Y-104046310D01*
X119839115Y-104087791D01*
X119828807Y-104121769D01*
X119812066Y-104153090D01*
X119789539Y-104180539D01*
X119762090Y-104203066D01*
X119730769Y-104219807D01*
X119696791Y-104230115D01*
X119655310Y-104234200D01*
X119054090Y-104234200D01*
X119012609Y-104230115D01*
X118978631Y-104219807D01*
X118947310Y-104203066D01*
X118919861Y-104180539D01*
X118897334Y-104153090D01*
X118880593Y-104121769D01*
X118870285Y-104087791D01*
X118866200Y-104046310D01*
X118866200Y-103370090D01*
X118870285Y-103328609D01*
X118880593Y-103294631D01*
X118897334Y-103263310D01*
X118919861Y-103235861D01*
X118947310Y-103213334D01*
X118978631Y-103196593D01*
X119012609Y-103186285D01*
X119054090Y-103182200D01*
X119655310Y-103182200D01*
X119696791Y-103186285D01*
X119696791Y-103186285D01*
G37*
G36*
X118121791Y-103186285D02*
G01*
X118155769Y-103196593D01*
X118187090Y-103213334D01*
X118214539Y-103235861D01*
X118237066Y-103263310D01*
X118253807Y-103294631D01*
X118264115Y-103328609D01*
X118268200Y-103370090D01*
X118268200Y-104046310D01*
X118264115Y-104087791D01*
X118253807Y-104121769D01*
X118237066Y-104153090D01*
X118214539Y-104180539D01*
X118187090Y-104203066D01*
X118155769Y-104219807D01*
X118121791Y-104230115D01*
X118080310Y-104234200D01*
X117479090Y-104234200D01*
X117437609Y-104230115D01*
X117403631Y-104219807D01*
X117372310Y-104203066D01*
X117344861Y-104180539D01*
X117322334Y-104153090D01*
X117305593Y-104121769D01*
X117295285Y-104087791D01*
X117291200Y-104046310D01*
X117291200Y-103370090D01*
X117295285Y-103328609D01*
X117305593Y-103294631D01*
X117322334Y-103263310D01*
X117344861Y-103235861D01*
X117372310Y-103213334D01*
X117403631Y-103196593D01*
X117437609Y-103186285D01*
X117479090Y-103182200D01*
X118080310Y-103182200D01*
X118121791Y-103186285D01*
X118121791Y-103186285D01*
G37*
G36*
X124712591Y-103046085D02*
G01*
X124746569Y-103056393D01*
X124777890Y-103073134D01*
X124805339Y-103095661D01*
X124827866Y-103123110D01*
X124844607Y-103154431D01*
X124854915Y-103188409D01*
X124859000Y-103229890D01*
X124859000Y-103831110D01*
X124854915Y-103872591D01*
X124844607Y-103906569D01*
X124827866Y-103937890D01*
X124805339Y-103965339D01*
X124777890Y-103987866D01*
X124746569Y-104004607D01*
X124712591Y-104014915D01*
X124671110Y-104019000D01*
X123994890Y-104019000D01*
X123953409Y-104014915D01*
X123919431Y-104004607D01*
X123888110Y-103987866D01*
X123860661Y-103965339D01*
X123838134Y-103937890D01*
X123821393Y-103906569D01*
X123811085Y-103872591D01*
X123807000Y-103831110D01*
X123807000Y-103229890D01*
X123811085Y-103188409D01*
X123821393Y-103154431D01*
X123838134Y-103123110D01*
X123860661Y-103095661D01*
X123888110Y-103073134D01*
X123919431Y-103056393D01*
X123953409Y-103046085D01*
X123994890Y-103042000D01*
X124671110Y-103042000D01*
X124712591Y-103046085D01*
X124712591Y-103046085D01*
G37*
G36*
X128431243Y-101645319D02*
G01*
X128497427Y-101651837D01*
X128667266Y-101703357D01*
X128823791Y-101787022D01*
X128859529Y-101816352D01*
X128960986Y-101899614D01*
X129044248Y-102001071D01*
X129073578Y-102036809D01*
X129157243Y-102193334D01*
X129208763Y-102363173D01*
X129226159Y-102539800D01*
X129208763Y-102716427D01*
X129157243Y-102886266D01*
X129073578Y-103042791D01*
X129062415Y-103056393D01*
X128960986Y-103179986D01*
X128871116Y-103253739D01*
X128823791Y-103292578D01*
X128667266Y-103376243D01*
X128497427Y-103427763D01*
X128431242Y-103434282D01*
X128365060Y-103440800D01*
X128276540Y-103440800D01*
X128210357Y-103434281D01*
X128144173Y-103427763D01*
X127974334Y-103376243D01*
X127817809Y-103292578D01*
X127770484Y-103253739D01*
X127680614Y-103179986D01*
X127579185Y-103056393D01*
X127568022Y-103042791D01*
X127484357Y-102886266D01*
X127432837Y-102716427D01*
X127415441Y-102539800D01*
X127432837Y-102363173D01*
X127484357Y-102193334D01*
X127568022Y-102036809D01*
X127597352Y-102001071D01*
X127680614Y-101899614D01*
X127782071Y-101816352D01*
X127817809Y-101787022D01*
X127974334Y-101703357D01*
X128144173Y-101651837D01*
X128210357Y-101645319D01*
X128276540Y-101638800D01*
X128365060Y-101638800D01*
X128431243Y-101645319D01*
X128431243Y-101645319D01*
G37*
G36*
X106419800Y-103403000D02*
G01*
X105517800Y-103403000D01*
X105517800Y-102401000D01*
X106419800Y-102401000D01*
X106419800Y-103403000D01*
X106419800Y-103403000D01*
G37*
G36*
X124712591Y-101471085D02*
G01*
X124746569Y-101481393D01*
X124777890Y-101498134D01*
X124805339Y-101520661D01*
X124827866Y-101548110D01*
X124844607Y-101579431D01*
X124854915Y-101613409D01*
X124859000Y-101654890D01*
X124859000Y-102256110D01*
X124854915Y-102297591D01*
X124844607Y-102331569D01*
X124827866Y-102362890D01*
X124805339Y-102390339D01*
X124777890Y-102412866D01*
X124746569Y-102429607D01*
X124712591Y-102439915D01*
X124671110Y-102444000D01*
X123994890Y-102444000D01*
X123953409Y-102439915D01*
X123919431Y-102429607D01*
X123888110Y-102412866D01*
X123860661Y-102390339D01*
X123838134Y-102362890D01*
X123821393Y-102331569D01*
X123811085Y-102297591D01*
X123807000Y-102256110D01*
X123807000Y-101654890D01*
X123811085Y-101613409D01*
X123821393Y-101579431D01*
X123838134Y-101548110D01*
X123860661Y-101520661D01*
X123888110Y-101498134D01*
X123919431Y-101481393D01*
X123953409Y-101471085D01*
X123994890Y-101467000D01*
X124671110Y-101467000D01*
X124712591Y-101471085D01*
X124712591Y-101471085D01*
G37*
G36*
X113064391Y-100697085D02*
G01*
X113098369Y-100707393D01*
X113129690Y-100724134D01*
X113157139Y-100746661D01*
X113179666Y-100774110D01*
X113196407Y-100805431D01*
X113206715Y-100839409D01*
X113210800Y-100880890D01*
X113210800Y-101557110D01*
X113206715Y-101598591D01*
X113196407Y-101632569D01*
X113179666Y-101663890D01*
X113157139Y-101691339D01*
X113129690Y-101713866D01*
X113098369Y-101730607D01*
X113064391Y-101740915D01*
X113022910Y-101745000D01*
X112421690Y-101745000D01*
X112380209Y-101740915D01*
X112346231Y-101730607D01*
X112314910Y-101713866D01*
X112287461Y-101691339D01*
X112264934Y-101663890D01*
X112248193Y-101632569D01*
X112237885Y-101598591D01*
X112233800Y-101557110D01*
X112233800Y-100880890D01*
X112237885Y-100839409D01*
X112248193Y-100805431D01*
X112264934Y-100774110D01*
X112287461Y-100746661D01*
X112314910Y-100724134D01*
X112346231Y-100707393D01*
X112380209Y-100697085D01*
X112421690Y-100693000D01*
X113022910Y-100693000D01*
X113064391Y-100697085D01*
X113064391Y-100697085D01*
G37*
G36*
X111489391Y-100697085D02*
G01*
X111523369Y-100707393D01*
X111554690Y-100724134D01*
X111582139Y-100746661D01*
X111604666Y-100774110D01*
X111621407Y-100805431D01*
X111631715Y-100839409D01*
X111635800Y-100880890D01*
X111635800Y-101557110D01*
X111631715Y-101598591D01*
X111621407Y-101632569D01*
X111604666Y-101663890D01*
X111582139Y-101691339D01*
X111554690Y-101713866D01*
X111523369Y-101730607D01*
X111489391Y-101740915D01*
X111447910Y-101745000D01*
X110846690Y-101745000D01*
X110805209Y-101740915D01*
X110771231Y-101730607D01*
X110739910Y-101713866D01*
X110712461Y-101691339D01*
X110689934Y-101663890D01*
X110673193Y-101632569D01*
X110662885Y-101598591D01*
X110658800Y-101557110D01*
X110658800Y-100880890D01*
X110662885Y-100839409D01*
X110673193Y-100805431D01*
X110689934Y-100774110D01*
X110712461Y-100746661D01*
X110739910Y-100724134D01*
X110771231Y-100707393D01*
X110805209Y-100697085D01*
X110846690Y-100693000D01*
X111447910Y-100693000D01*
X111489391Y-100697085D01*
X111489391Y-100697085D01*
G37*
G36*
X118121791Y-100595485D02*
G01*
X118155769Y-100605793D01*
X118187090Y-100622534D01*
X118214539Y-100645061D01*
X118237066Y-100672510D01*
X118253807Y-100703831D01*
X118264115Y-100737809D01*
X118268200Y-100779290D01*
X118268200Y-101455510D01*
X118264115Y-101496991D01*
X118253807Y-101530969D01*
X118237066Y-101562290D01*
X118214539Y-101589739D01*
X118187090Y-101612266D01*
X118155769Y-101629007D01*
X118121791Y-101639315D01*
X118080310Y-101643400D01*
X117479090Y-101643400D01*
X117437609Y-101639315D01*
X117403631Y-101629007D01*
X117372310Y-101612266D01*
X117344861Y-101589739D01*
X117322334Y-101562290D01*
X117305593Y-101530969D01*
X117295285Y-101496991D01*
X117291200Y-101455510D01*
X117291200Y-100779290D01*
X117295285Y-100737809D01*
X117305593Y-100703831D01*
X117322334Y-100672510D01*
X117344861Y-100645061D01*
X117372310Y-100622534D01*
X117403631Y-100605793D01*
X117437609Y-100595485D01*
X117479090Y-100591400D01*
X118080310Y-100591400D01*
X118121791Y-100595485D01*
X118121791Y-100595485D01*
G37*
G36*
X119696791Y-100595485D02*
G01*
X119730769Y-100605793D01*
X119762090Y-100622534D01*
X119789539Y-100645061D01*
X119812066Y-100672510D01*
X119828807Y-100703831D01*
X119839115Y-100737809D01*
X119843200Y-100779290D01*
X119843200Y-101455510D01*
X119839115Y-101496991D01*
X119828807Y-101530969D01*
X119812066Y-101562290D01*
X119789539Y-101589739D01*
X119762090Y-101612266D01*
X119730769Y-101629007D01*
X119696791Y-101639315D01*
X119655310Y-101643400D01*
X119054090Y-101643400D01*
X119012609Y-101639315D01*
X118978631Y-101629007D01*
X118947310Y-101612266D01*
X118919861Y-101589739D01*
X118897334Y-101562290D01*
X118880593Y-101530969D01*
X118870285Y-101496991D01*
X118866200Y-101455510D01*
X118866200Y-100779290D01*
X118870285Y-100737809D01*
X118880593Y-100703831D01*
X118897334Y-100672510D01*
X118919861Y-100645061D01*
X118947310Y-100622534D01*
X118978631Y-100605793D01*
X119012609Y-100595485D01*
X119054090Y-100591400D01*
X119655310Y-100591400D01*
X119696791Y-100595485D01*
X119696791Y-100595485D01*
G37*
G36*
X128431243Y-99105319D02*
G01*
X128497427Y-99111837D01*
X128667266Y-99163357D01*
X128823791Y-99247022D01*
X128859529Y-99276352D01*
X128960986Y-99359614D01*
X129044248Y-99461071D01*
X129073578Y-99496809D01*
X129157243Y-99653334D01*
X129208763Y-99823173D01*
X129226159Y-99999800D01*
X129208763Y-100176427D01*
X129157243Y-100346266D01*
X129073578Y-100502791D01*
X129044248Y-100538529D01*
X128960986Y-100639986D01*
X128859529Y-100723248D01*
X128823791Y-100752578D01*
X128823789Y-100752579D01*
X128668376Y-100835650D01*
X128667266Y-100836243D01*
X128497427Y-100887763D01*
X128431242Y-100894282D01*
X128365060Y-100900800D01*
X128276540Y-100900800D01*
X128210358Y-100894282D01*
X128144173Y-100887763D01*
X127974334Y-100836243D01*
X127973225Y-100835650D01*
X127817811Y-100752579D01*
X127817809Y-100752578D01*
X127782071Y-100723248D01*
X127680614Y-100639986D01*
X127597352Y-100538529D01*
X127568022Y-100502791D01*
X127484357Y-100346266D01*
X127432837Y-100176427D01*
X127415441Y-99999800D01*
X127432837Y-99823173D01*
X127484357Y-99653334D01*
X127568022Y-99496809D01*
X127597352Y-99461071D01*
X127680614Y-99359614D01*
X127782071Y-99276352D01*
X127817809Y-99247022D01*
X127974334Y-99163357D01*
X128144173Y-99111837D01*
X128210357Y-99105319D01*
X128276540Y-99098800D01*
X128365060Y-99098800D01*
X128431243Y-99105319D01*
X128431243Y-99105319D01*
G37*
G36*
X122959991Y-98270885D02*
G01*
X122993969Y-98281193D01*
X123025290Y-98297934D01*
X123052739Y-98320461D01*
X123075266Y-98347910D01*
X123092007Y-98379231D01*
X123102315Y-98413209D01*
X123106400Y-98454690D01*
X123106400Y-99055910D01*
X123102315Y-99097391D01*
X123092007Y-99131369D01*
X123075266Y-99162690D01*
X123052739Y-99190139D01*
X123025290Y-99212666D01*
X122993969Y-99229407D01*
X122959991Y-99239715D01*
X122918510Y-99243800D01*
X122242290Y-99243800D01*
X122200809Y-99239715D01*
X122166831Y-99229407D01*
X122135510Y-99212666D01*
X122108061Y-99190139D01*
X122085534Y-99162690D01*
X122068793Y-99131369D01*
X122058485Y-99097391D01*
X122054400Y-99055910D01*
X122054400Y-98454690D01*
X122058485Y-98413209D01*
X122068793Y-98379231D01*
X122085534Y-98347910D01*
X122108061Y-98320461D01*
X122135510Y-98297934D01*
X122166831Y-98281193D01*
X122200809Y-98270885D01*
X122242290Y-98266800D01*
X122918510Y-98266800D01*
X122959991Y-98270885D01*
X122959991Y-98270885D01*
G37*
G36*
X124717671Y-98263265D02*
G01*
X124751649Y-98273573D01*
X124782970Y-98290314D01*
X124810419Y-98312841D01*
X124832946Y-98340290D01*
X124849687Y-98371611D01*
X124859995Y-98405589D01*
X124864080Y-98447070D01*
X124864080Y-99048290D01*
X124859995Y-99089771D01*
X124849687Y-99123749D01*
X124832946Y-99155070D01*
X124810419Y-99182519D01*
X124782970Y-99205046D01*
X124751649Y-99221787D01*
X124717671Y-99232095D01*
X124676190Y-99236180D01*
X123999970Y-99236180D01*
X123958489Y-99232095D01*
X123924511Y-99221787D01*
X123893190Y-99205046D01*
X123865741Y-99182519D01*
X123843214Y-99155070D01*
X123826473Y-99123749D01*
X123816165Y-99089771D01*
X123812080Y-99048290D01*
X123812080Y-98447070D01*
X123816165Y-98405589D01*
X123826473Y-98371611D01*
X123843214Y-98340290D01*
X123865741Y-98312841D01*
X123893190Y-98290314D01*
X123924511Y-98273573D01*
X123958489Y-98263265D01*
X123999970Y-98259180D01*
X124676190Y-98259180D01*
X124717671Y-98263265D01*
X124717671Y-98263265D01*
G37*
G36*
X111489391Y-98106285D02*
G01*
X111523369Y-98116593D01*
X111554690Y-98133334D01*
X111582139Y-98155861D01*
X111604666Y-98183310D01*
X111621407Y-98214631D01*
X111631715Y-98248609D01*
X111635800Y-98290090D01*
X111635800Y-98966310D01*
X111631715Y-99007791D01*
X111621407Y-99041769D01*
X111604666Y-99073090D01*
X111582139Y-99100539D01*
X111554690Y-99123066D01*
X111523369Y-99139807D01*
X111489391Y-99150115D01*
X111447910Y-99154200D01*
X110846690Y-99154200D01*
X110805209Y-99150115D01*
X110771231Y-99139807D01*
X110739910Y-99123066D01*
X110712461Y-99100539D01*
X110689934Y-99073090D01*
X110673193Y-99041769D01*
X110662885Y-99007791D01*
X110658800Y-98966310D01*
X110658800Y-98290090D01*
X110662885Y-98248609D01*
X110673193Y-98214631D01*
X110689934Y-98183310D01*
X110712461Y-98155861D01*
X110739910Y-98133334D01*
X110771231Y-98116593D01*
X110805209Y-98106285D01*
X110846690Y-98102200D01*
X111447910Y-98102200D01*
X111489391Y-98106285D01*
X111489391Y-98106285D01*
G37*
G36*
X113064391Y-98106285D02*
G01*
X113098369Y-98116593D01*
X113129690Y-98133334D01*
X113157139Y-98155861D01*
X113179666Y-98183310D01*
X113196407Y-98214631D01*
X113206715Y-98248609D01*
X113210800Y-98290090D01*
X113210800Y-98966310D01*
X113206715Y-99007791D01*
X113196407Y-99041769D01*
X113179666Y-99073090D01*
X113157139Y-99100539D01*
X113129690Y-99123066D01*
X113098369Y-99139807D01*
X113064391Y-99150115D01*
X113022910Y-99154200D01*
X112421690Y-99154200D01*
X112380209Y-99150115D01*
X112346231Y-99139807D01*
X112314910Y-99123066D01*
X112287461Y-99100539D01*
X112264934Y-99073090D01*
X112248193Y-99041769D01*
X112237885Y-99007791D01*
X112233800Y-98966310D01*
X112233800Y-98290090D01*
X112237885Y-98248609D01*
X112248193Y-98214631D01*
X112264934Y-98183310D01*
X112287461Y-98155861D01*
X112314910Y-98133334D01*
X112346231Y-98116593D01*
X112380209Y-98106285D01*
X112421690Y-98102200D01*
X113022910Y-98102200D01*
X113064391Y-98106285D01*
X113064391Y-98106285D01*
G37*
G36*
X119693791Y-98004685D02*
G01*
X119727769Y-98014993D01*
X119759090Y-98031734D01*
X119786539Y-98054261D01*
X119809066Y-98081710D01*
X119825807Y-98113031D01*
X119836115Y-98147009D01*
X119840200Y-98188490D01*
X119840200Y-98864710D01*
X119836115Y-98906191D01*
X119825807Y-98940169D01*
X119809066Y-98971490D01*
X119786539Y-98998939D01*
X119759090Y-99021466D01*
X119727769Y-99038207D01*
X119693791Y-99048515D01*
X119652310Y-99052600D01*
X119051090Y-99052600D01*
X119009609Y-99048515D01*
X118975631Y-99038207D01*
X118944310Y-99021466D01*
X118916861Y-98998939D01*
X118894334Y-98971490D01*
X118877593Y-98940169D01*
X118867285Y-98906191D01*
X118863200Y-98864710D01*
X118863200Y-98188490D01*
X118867285Y-98147009D01*
X118877593Y-98113031D01*
X118894334Y-98081710D01*
X118916861Y-98054261D01*
X118944310Y-98031734D01*
X118975631Y-98014993D01*
X119009609Y-98004685D01*
X119051090Y-98000600D01*
X119652310Y-98000600D01*
X119693791Y-98004685D01*
X119693791Y-98004685D01*
G37*
G36*
X118118791Y-98004685D02*
G01*
X118152769Y-98014993D01*
X118184090Y-98031734D01*
X118211539Y-98054261D01*
X118234066Y-98081710D01*
X118250807Y-98113031D01*
X118261115Y-98147009D01*
X118265200Y-98188490D01*
X118265200Y-98864710D01*
X118261115Y-98906191D01*
X118250807Y-98940169D01*
X118234066Y-98971490D01*
X118211539Y-98998939D01*
X118184090Y-99021466D01*
X118152769Y-99038207D01*
X118118791Y-99048515D01*
X118077310Y-99052600D01*
X117476090Y-99052600D01*
X117434609Y-99048515D01*
X117400631Y-99038207D01*
X117369310Y-99021466D01*
X117341861Y-98998939D01*
X117319334Y-98971490D01*
X117302593Y-98940169D01*
X117292285Y-98906191D01*
X117288200Y-98864710D01*
X117288200Y-98188490D01*
X117292285Y-98147009D01*
X117302593Y-98113031D01*
X117319334Y-98081710D01*
X117341861Y-98054261D01*
X117369310Y-98031734D01*
X117400631Y-98014993D01*
X117434609Y-98004685D01*
X117476090Y-98000600D01*
X118077310Y-98000600D01*
X118118791Y-98004685D01*
X118118791Y-98004685D01*
G37*
G36*
X128431243Y-96565319D02*
G01*
X128497427Y-96571837D01*
X128667266Y-96623357D01*
X128823791Y-96707022D01*
X128846116Y-96725344D01*
X128960986Y-96819614D01*
X129044248Y-96921071D01*
X129073578Y-96956809D01*
X129157243Y-97113334D01*
X129208763Y-97283173D01*
X129226159Y-97459800D01*
X129208763Y-97636427D01*
X129157243Y-97806266D01*
X129073578Y-97962791D01*
X129044248Y-97998529D01*
X128960986Y-98099986D01*
X128871116Y-98173739D01*
X128823791Y-98212578D01*
X128667266Y-98296243D01*
X128497427Y-98347763D01*
X128431242Y-98354282D01*
X128365060Y-98360800D01*
X128276540Y-98360800D01*
X128210358Y-98354282D01*
X128144173Y-98347763D01*
X127974334Y-98296243D01*
X127817809Y-98212578D01*
X127770484Y-98173739D01*
X127680614Y-98099986D01*
X127597352Y-97998529D01*
X127568022Y-97962791D01*
X127484357Y-97806266D01*
X127432837Y-97636427D01*
X127415441Y-97459800D01*
X127432837Y-97283173D01*
X127484357Y-97113334D01*
X127568022Y-96956809D01*
X127597352Y-96921071D01*
X127680614Y-96819614D01*
X127795484Y-96725344D01*
X127817809Y-96707022D01*
X127974334Y-96623357D01*
X128144173Y-96571837D01*
X128210357Y-96565319D01*
X128276540Y-96558800D01*
X128365060Y-96558800D01*
X128431243Y-96565319D01*
X128431243Y-96565319D01*
G37*
G36*
X122959991Y-96695885D02*
G01*
X122993969Y-96706193D01*
X123025290Y-96722934D01*
X123052739Y-96745461D01*
X123075266Y-96772910D01*
X123092007Y-96804231D01*
X123102315Y-96838209D01*
X123106400Y-96879690D01*
X123106400Y-97480910D01*
X123102315Y-97522391D01*
X123092007Y-97556369D01*
X123075266Y-97587690D01*
X123052739Y-97615139D01*
X123025290Y-97637666D01*
X122993969Y-97654407D01*
X122959991Y-97664715D01*
X122918510Y-97668800D01*
X122242290Y-97668800D01*
X122200809Y-97664715D01*
X122166831Y-97654407D01*
X122135510Y-97637666D01*
X122108061Y-97615139D01*
X122085534Y-97587690D01*
X122068793Y-97556369D01*
X122058485Y-97522391D01*
X122054400Y-97480910D01*
X122054400Y-96879690D01*
X122058485Y-96838209D01*
X122068793Y-96804231D01*
X122085534Y-96772910D01*
X122108061Y-96745461D01*
X122135510Y-96722934D01*
X122166831Y-96706193D01*
X122200809Y-96695885D01*
X122242290Y-96691800D01*
X122918510Y-96691800D01*
X122959991Y-96695885D01*
X122959991Y-96695885D01*
G37*
G36*
X124717671Y-96688265D02*
G01*
X124751649Y-96698573D01*
X124782970Y-96715314D01*
X124810419Y-96737841D01*
X124832946Y-96765290D01*
X124849687Y-96796611D01*
X124859995Y-96830589D01*
X124864080Y-96872070D01*
X124864080Y-97473290D01*
X124859995Y-97514771D01*
X124849687Y-97548749D01*
X124832946Y-97580070D01*
X124810419Y-97607519D01*
X124782970Y-97630046D01*
X124751649Y-97646787D01*
X124717671Y-97657095D01*
X124676190Y-97661180D01*
X123999970Y-97661180D01*
X123958489Y-97657095D01*
X123924511Y-97646787D01*
X123893190Y-97630046D01*
X123865741Y-97607519D01*
X123843214Y-97580070D01*
X123826473Y-97548749D01*
X123816165Y-97514771D01*
X123812080Y-97473290D01*
X123812080Y-96872070D01*
X123816165Y-96830589D01*
X123826473Y-96796611D01*
X123843214Y-96765290D01*
X123865741Y-96737841D01*
X123893190Y-96715314D01*
X123924511Y-96698573D01*
X123958489Y-96688265D01*
X123999970Y-96684180D01*
X124676190Y-96684180D01*
X124717671Y-96688265D01*
X124717671Y-96688265D01*
G37*
G36*
X113364200Y-96938200D02*
G01*
X112462200Y-96938200D01*
X112462200Y-95936200D01*
X113364200Y-95936200D01*
X113364200Y-96938200D01*
X113364200Y-96938200D01*
G37*
G36*
X111464200Y-96938200D02*
G01*
X110562200Y-96938200D01*
X110562200Y-95936200D01*
X111464200Y-95936200D01*
X111464200Y-96938200D01*
X111464200Y-96938200D01*
G37*
G36*
X118195200Y-96878000D02*
G01*
X117293200Y-96878000D01*
X117293200Y-95876000D01*
X118195200Y-95876000D01*
X118195200Y-96878000D01*
X118195200Y-96878000D01*
G37*
G36*
X120095200Y-96878000D02*
G01*
X119193200Y-96878000D01*
X119193200Y-95876000D01*
X120095200Y-95876000D01*
X120095200Y-96878000D01*
X120095200Y-96878000D01*
G37*
G36*
X103793400Y-96326000D02*
G01*
X102391400Y-96326000D01*
X102391400Y-94574000D01*
X103793400Y-94574000D01*
X103793400Y-96326000D01*
X103793400Y-96326000D01*
G37*
G36*
X129221800Y-95820800D02*
G01*
X127419800Y-95820800D01*
X127419800Y-94018800D01*
X129221800Y-94018800D01*
X129221800Y-95820800D01*
X129221800Y-95820800D01*
G37*
G36*
X106493400Y-95326000D02*
G01*
X104841400Y-95326000D01*
X104841400Y-93799000D01*
X104886401Y-93799000D01*
X104910787Y-93796598D01*
X104934236Y-93789485D01*
X104955847Y-93777934D01*
X104974789Y-93762389D01*
X104990334Y-93743447D01*
X105001885Y-93721836D01*
X105008998Y-93698387D01*
X105011400Y-93674001D01*
X105011400Y-90475999D01*
X105008998Y-90451613D01*
X105001885Y-90428164D01*
X104990334Y-90406553D01*
X104974789Y-90387611D01*
X104955847Y-90372066D01*
X104934236Y-90360515D01*
X104910787Y-90353402D01*
X104886401Y-90351000D01*
X104841400Y-90351000D01*
X104841400Y-88824000D01*
X106493400Y-88824000D01*
X106493400Y-95326000D01*
X106493400Y-95326000D01*
G37*
G36*
X112414200Y-94938200D02*
G01*
X111512200Y-94938200D01*
X111512200Y-93936200D01*
X112414200Y-93936200D01*
X112414200Y-94938200D01*
X112414200Y-94938200D01*
G37*
G36*
X119145200Y-94878000D02*
G01*
X118243200Y-94878000D01*
X118243200Y-93876000D01*
X119145200Y-93876000D01*
X119145200Y-94878000D01*
X119145200Y-94878000D01*
G37*
G36*
X104093400Y-94176000D02*
G01*
X102091400Y-94176000D01*
X102091400Y-93074000D01*
X104093400Y-93074000D01*
X104093400Y-94176000D01*
X104093400Y-94176000D01*
G37*
G36*
X124712591Y-93013085D02*
G01*
X124746569Y-93023393D01*
X124777890Y-93040134D01*
X124805339Y-93062661D01*
X124827866Y-93090110D01*
X124844607Y-93121431D01*
X124854915Y-93155409D01*
X124859000Y-93196890D01*
X124859000Y-93798110D01*
X124854915Y-93839591D01*
X124844607Y-93873569D01*
X124827866Y-93904890D01*
X124805339Y-93932339D01*
X124777890Y-93954866D01*
X124746569Y-93971607D01*
X124712591Y-93981915D01*
X124671110Y-93986000D01*
X123994890Y-93986000D01*
X123953409Y-93981915D01*
X123919431Y-93971607D01*
X123888110Y-93954866D01*
X123860661Y-93932339D01*
X123838134Y-93904890D01*
X123821393Y-93873569D01*
X123811085Y-93839591D01*
X123807000Y-93798110D01*
X123807000Y-93196890D01*
X123811085Y-93155409D01*
X123821393Y-93121431D01*
X123838134Y-93090110D01*
X123860661Y-93062661D01*
X123888110Y-93040134D01*
X123919431Y-93023393D01*
X123953409Y-93013085D01*
X123994890Y-93009000D01*
X124671110Y-93009000D01*
X124712591Y-93013085D01*
X124712591Y-93013085D01*
G37*
G36*
X118296591Y-91451485D02*
G01*
X118330569Y-91461793D01*
X118361890Y-91478534D01*
X118389339Y-91501061D01*
X118411866Y-91528510D01*
X118428607Y-91559831D01*
X118438915Y-91593809D01*
X118443000Y-91635290D01*
X118443000Y-92311510D01*
X118438915Y-92352991D01*
X118428607Y-92386969D01*
X118411866Y-92418290D01*
X118389339Y-92445739D01*
X118361890Y-92468266D01*
X118330569Y-92485007D01*
X118296591Y-92495315D01*
X118255110Y-92499400D01*
X117653890Y-92499400D01*
X117612409Y-92495315D01*
X117578431Y-92485007D01*
X117547110Y-92468266D01*
X117519661Y-92445739D01*
X117497134Y-92418290D01*
X117480393Y-92386969D01*
X117470085Y-92352991D01*
X117466000Y-92311510D01*
X117466000Y-91635290D01*
X117470085Y-91593809D01*
X117480393Y-91559831D01*
X117497134Y-91528510D01*
X117519661Y-91501061D01*
X117547110Y-91478534D01*
X117578431Y-91461793D01*
X117612409Y-91451485D01*
X117653890Y-91447400D01*
X118255110Y-91447400D01*
X118296591Y-91451485D01*
X118296591Y-91451485D01*
G37*
G36*
X119871591Y-91451485D02*
G01*
X119905569Y-91461793D01*
X119936890Y-91478534D01*
X119964339Y-91501061D01*
X119986866Y-91528510D01*
X120003607Y-91559831D01*
X120013915Y-91593809D01*
X120018000Y-91635290D01*
X120018000Y-92311510D01*
X120013915Y-92352991D01*
X120003607Y-92386969D01*
X119986866Y-92418290D01*
X119964339Y-92445739D01*
X119936890Y-92468266D01*
X119905569Y-92485007D01*
X119871591Y-92495315D01*
X119830110Y-92499400D01*
X119228890Y-92499400D01*
X119187409Y-92495315D01*
X119153431Y-92485007D01*
X119122110Y-92468266D01*
X119094661Y-92445739D01*
X119072134Y-92418290D01*
X119055393Y-92386969D01*
X119045085Y-92352991D01*
X119041000Y-92311510D01*
X119041000Y-91635290D01*
X119045085Y-91593809D01*
X119055393Y-91559831D01*
X119072134Y-91528510D01*
X119094661Y-91501061D01*
X119122110Y-91478534D01*
X119153431Y-91461793D01*
X119187409Y-91451485D01*
X119228890Y-91447400D01*
X119830110Y-91447400D01*
X119871591Y-91451485D01*
X119871591Y-91451485D01*
G37*
G36*
X124712591Y-91438085D02*
G01*
X124746569Y-91448393D01*
X124777890Y-91465134D01*
X124805339Y-91487661D01*
X124827866Y-91515110D01*
X124844607Y-91546431D01*
X124854915Y-91580409D01*
X124859000Y-91621890D01*
X124859000Y-92223110D01*
X124854915Y-92264591D01*
X124844607Y-92298569D01*
X124827866Y-92329890D01*
X124805339Y-92357339D01*
X124777890Y-92379866D01*
X124746569Y-92396607D01*
X124712591Y-92406915D01*
X124671110Y-92411000D01*
X123994890Y-92411000D01*
X123953409Y-92406915D01*
X123919431Y-92396607D01*
X123888110Y-92379866D01*
X123860661Y-92357339D01*
X123838134Y-92329890D01*
X123821393Y-92298569D01*
X123811085Y-92264591D01*
X123807000Y-92223110D01*
X123807000Y-91621890D01*
X123811085Y-91580409D01*
X123821393Y-91546431D01*
X123838134Y-91515110D01*
X123860661Y-91487661D01*
X123888110Y-91465134D01*
X123919431Y-91448393D01*
X123953409Y-91438085D01*
X123994890Y-91434000D01*
X124671110Y-91434000D01*
X124712591Y-91438085D01*
X124712591Y-91438085D01*
G37*
G36*
X104093400Y-91876000D02*
G01*
X102091400Y-91876000D01*
X102091400Y-89974000D01*
X104093400Y-89974000D01*
X104093400Y-91876000D01*
X104093400Y-91876000D01*
G37*
G36*
X128431242Y-89224718D02*
G01*
X128497427Y-89231237D01*
X128667266Y-89282757D01*
X128823791Y-89366422D01*
X128859529Y-89395752D01*
X128960986Y-89479014D01*
X129013423Y-89542910D01*
X129073578Y-89616209D01*
X129157243Y-89772734D01*
X129208763Y-89942573D01*
X129226159Y-90119200D01*
X129208763Y-90295827D01*
X129168619Y-90428164D01*
X129157242Y-90465668D01*
X129115410Y-90543929D01*
X129073578Y-90622191D01*
X129044248Y-90657929D01*
X128960986Y-90759386D01*
X128859529Y-90842648D01*
X128823791Y-90871978D01*
X128667266Y-90955643D01*
X128497427Y-91007163D01*
X128431242Y-91013682D01*
X128365060Y-91020200D01*
X128276540Y-91020200D01*
X128210358Y-91013682D01*
X128144173Y-91007163D01*
X127974334Y-90955643D01*
X127817809Y-90871978D01*
X127782071Y-90842648D01*
X127680614Y-90759386D01*
X127597352Y-90657929D01*
X127568022Y-90622191D01*
X127526189Y-90543928D01*
X127484358Y-90465668D01*
X127472981Y-90428164D01*
X127432837Y-90295827D01*
X127415441Y-90119200D01*
X127432837Y-89942573D01*
X127484357Y-89772734D01*
X127568022Y-89616209D01*
X127628177Y-89542910D01*
X127680614Y-89479014D01*
X127782071Y-89395752D01*
X127817809Y-89366422D01*
X127974334Y-89282757D01*
X128144173Y-89231237D01*
X128210358Y-89224718D01*
X128276540Y-89218200D01*
X128365060Y-89218200D01*
X128431242Y-89224718D01*
X128431242Y-89224718D01*
G37*
G36*
X121703391Y-88708285D02*
G01*
X121737369Y-88718593D01*
X121768690Y-88735334D01*
X121796139Y-88757861D01*
X121818666Y-88785310D01*
X121835407Y-88816631D01*
X121845715Y-88850609D01*
X121849800Y-88892090D01*
X121849800Y-89568310D01*
X121845715Y-89609791D01*
X121835407Y-89643769D01*
X121818666Y-89675090D01*
X121796139Y-89702539D01*
X121768690Y-89725066D01*
X121737369Y-89741807D01*
X121703391Y-89752115D01*
X121661910Y-89756200D01*
X121060690Y-89756200D01*
X121019209Y-89752115D01*
X120985231Y-89741807D01*
X120953910Y-89725066D01*
X120926461Y-89702539D01*
X120903934Y-89675090D01*
X120887193Y-89643769D01*
X120876885Y-89609791D01*
X120872800Y-89568310D01*
X120872800Y-88892090D01*
X120876885Y-88850609D01*
X120887193Y-88816631D01*
X120903934Y-88785310D01*
X120926461Y-88757861D01*
X120953910Y-88735334D01*
X120985231Y-88718593D01*
X121019209Y-88708285D01*
X121060690Y-88704200D01*
X121661910Y-88704200D01*
X121703391Y-88708285D01*
X121703391Y-88708285D01*
G37*
G36*
X120128391Y-88708285D02*
G01*
X120162369Y-88718593D01*
X120193690Y-88735334D01*
X120221139Y-88757861D01*
X120243666Y-88785310D01*
X120260407Y-88816631D01*
X120270715Y-88850609D01*
X120274800Y-88892090D01*
X120274800Y-89568310D01*
X120270715Y-89609791D01*
X120260407Y-89643769D01*
X120243666Y-89675090D01*
X120221139Y-89702539D01*
X120193690Y-89725066D01*
X120162369Y-89741807D01*
X120128391Y-89752115D01*
X120086910Y-89756200D01*
X119485690Y-89756200D01*
X119444209Y-89752115D01*
X119410231Y-89741807D01*
X119378910Y-89725066D01*
X119351461Y-89702539D01*
X119328934Y-89675090D01*
X119312193Y-89643769D01*
X119301885Y-89609791D01*
X119297800Y-89568310D01*
X119297800Y-88892090D01*
X119301885Y-88850609D01*
X119312193Y-88816631D01*
X119328934Y-88785310D01*
X119351461Y-88757861D01*
X119378910Y-88735334D01*
X119410231Y-88718593D01*
X119444209Y-88708285D01*
X119485690Y-88704200D01*
X120086910Y-88704200D01*
X120128391Y-88708285D01*
X120128391Y-88708285D01*
G37*
G36*
X116826591Y-88708285D02*
G01*
X116860569Y-88718593D01*
X116891890Y-88735334D01*
X116919339Y-88757861D01*
X116941866Y-88785310D01*
X116958607Y-88816631D01*
X116968915Y-88850609D01*
X116973000Y-88892090D01*
X116973000Y-89568310D01*
X116968915Y-89609791D01*
X116958607Y-89643769D01*
X116941866Y-89675090D01*
X116919339Y-89702539D01*
X116891890Y-89725066D01*
X116860569Y-89741807D01*
X116826591Y-89752115D01*
X116785110Y-89756200D01*
X116183890Y-89756200D01*
X116142409Y-89752115D01*
X116108431Y-89741807D01*
X116077110Y-89725066D01*
X116049661Y-89702539D01*
X116027134Y-89675090D01*
X116010393Y-89643769D01*
X116000085Y-89609791D01*
X115996000Y-89568310D01*
X115996000Y-88892090D01*
X116000085Y-88850609D01*
X116010393Y-88816631D01*
X116027134Y-88785310D01*
X116049661Y-88757861D01*
X116077110Y-88735334D01*
X116108431Y-88718593D01*
X116142409Y-88708285D01*
X116183890Y-88704200D01*
X116785110Y-88704200D01*
X116826591Y-88708285D01*
X116826591Y-88708285D01*
G37*
G36*
X115251591Y-88708285D02*
G01*
X115285569Y-88718593D01*
X115316890Y-88735334D01*
X115344339Y-88757861D01*
X115366866Y-88785310D01*
X115383607Y-88816631D01*
X115393915Y-88850609D01*
X115398000Y-88892090D01*
X115398000Y-89568310D01*
X115393915Y-89609791D01*
X115383607Y-89643769D01*
X115366866Y-89675090D01*
X115344339Y-89702539D01*
X115316890Y-89725066D01*
X115285569Y-89741807D01*
X115251591Y-89752115D01*
X115210110Y-89756200D01*
X114608890Y-89756200D01*
X114567409Y-89752115D01*
X114533431Y-89741807D01*
X114502110Y-89725066D01*
X114474661Y-89702539D01*
X114452134Y-89675090D01*
X114435393Y-89643769D01*
X114425085Y-89609791D01*
X114421000Y-89568310D01*
X114421000Y-88892090D01*
X114425085Y-88850609D01*
X114435393Y-88816631D01*
X114452134Y-88785310D01*
X114474661Y-88757861D01*
X114502110Y-88735334D01*
X114533431Y-88718593D01*
X114567409Y-88708285D01*
X114608890Y-88704200D01*
X115210110Y-88704200D01*
X115251591Y-88708285D01*
X115251591Y-88708285D01*
G37*
G36*
X111416391Y-88682885D02*
G01*
X111450369Y-88693193D01*
X111481690Y-88709934D01*
X111509139Y-88732461D01*
X111531666Y-88759910D01*
X111548407Y-88791231D01*
X111558715Y-88825209D01*
X111562800Y-88866690D01*
X111562800Y-89542910D01*
X111558715Y-89584391D01*
X111548407Y-89618369D01*
X111531666Y-89649690D01*
X111509139Y-89677139D01*
X111481690Y-89699666D01*
X111450369Y-89716407D01*
X111416391Y-89726715D01*
X111374910Y-89730800D01*
X110773690Y-89730800D01*
X110732209Y-89726715D01*
X110698231Y-89716407D01*
X110666910Y-89699666D01*
X110639461Y-89677139D01*
X110616934Y-89649690D01*
X110600193Y-89618369D01*
X110589885Y-89584391D01*
X110585800Y-89542910D01*
X110585800Y-88866690D01*
X110589885Y-88825209D01*
X110600193Y-88791231D01*
X110616934Y-88759910D01*
X110639461Y-88732461D01*
X110666910Y-88709934D01*
X110698231Y-88693193D01*
X110732209Y-88682885D01*
X110773690Y-88678800D01*
X111374910Y-88678800D01*
X111416391Y-88682885D01*
X111416391Y-88682885D01*
G37*
G36*
X109841391Y-88682885D02*
G01*
X109875369Y-88693193D01*
X109906690Y-88709934D01*
X109934139Y-88732461D01*
X109956666Y-88759910D01*
X109973407Y-88791231D01*
X109983715Y-88825209D01*
X109987800Y-88866690D01*
X109987800Y-89542910D01*
X109983715Y-89584391D01*
X109973407Y-89618369D01*
X109956666Y-89649690D01*
X109934139Y-89677139D01*
X109906690Y-89699666D01*
X109875369Y-89716407D01*
X109841391Y-89726715D01*
X109799910Y-89730800D01*
X109198690Y-89730800D01*
X109157209Y-89726715D01*
X109123231Y-89716407D01*
X109091910Y-89699666D01*
X109064461Y-89677139D01*
X109041934Y-89649690D01*
X109025193Y-89618369D01*
X109014885Y-89584391D01*
X109010800Y-89542910D01*
X109010800Y-88866690D01*
X109014885Y-88825209D01*
X109025193Y-88791231D01*
X109041934Y-88759910D01*
X109064461Y-88732461D01*
X109091910Y-88709934D01*
X109123231Y-88693193D01*
X109157209Y-88682885D01*
X109198690Y-88678800D01*
X109799910Y-88678800D01*
X109841391Y-88682885D01*
X109841391Y-88682885D01*
G37*
G36*
X103793400Y-89576000D02*
G01*
X102391400Y-89576000D01*
X102391400Y-87824000D01*
X103793400Y-87824000D01*
X103793400Y-89576000D01*
X103793400Y-89576000D01*
G37*
G36*
X124712591Y-88034685D02*
G01*
X124746569Y-88044993D01*
X124777890Y-88061734D01*
X124805339Y-88084261D01*
X124827866Y-88111710D01*
X124844607Y-88143031D01*
X124854915Y-88177009D01*
X124859000Y-88218490D01*
X124859000Y-88819710D01*
X124854915Y-88861191D01*
X124844607Y-88895169D01*
X124827866Y-88926490D01*
X124805339Y-88953939D01*
X124777890Y-88976466D01*
X124746569Y-88993207D01*
X124712591Y-89003515D01*
X124671110Y-89007600D01*
X123994890Y-89007600D01*
X123953409Y-89003515D01*
X123919431Y-88993207D01*
X123888110Y-88976466D01*
X123860661Y-88953939D01*
X123838134Y-88926490D01*
X123821393Y-88895169D01*
X123811085Y-88861191D01*
X123807000Y-88819710D01*
X123807000Y-88218490D01*
X123811085Y-88177009D01*
X123821393Y-88143031D01*
X123838134Y-88111710D01*
X123860661Y-88084261D01*
X123888110Y-88061734D01*
X123919431Y-88044993D01*
X123953409Y-88034685D01*
X123994890Y-88030600D01*
X124671110Y-88030600D01*
X124712591Y-88034685D01*
X124712591Y-88034685D01*
G37*
G36*
X128431243Y-86684719D02*
G01*
X128497427Y-86691237D01*
X128667266Y-86742757D01*
X128823791Y-86826422D01*
X128859529Y-86855752D01*
X128960986Y-86939014D01*
X129044248Y-87040471D01*
X129073578Y-87076209D01*
X129157243Y-87232734D01*
X129208763Y-87402573D01*
X129226159Y-87579200D01*
X129208763Y-87755827D01*
X129157243Y-87925666D01*
X129073578Y-88082191D01*
X129071879Y-88084261D01*
X128960986Y-88219386D01*
X128859529Y-88302648D01*
X128823791Y-88331978D01*
X128667266Y-88415643D01*
X128497427Y-88467163D01*
X128431242Y-88473682D01*
X128365060Y-88480200D01*
X128276540Y-88480200D01*
X128210358Y-88473682D01*
X128144173Y-88467163D01*
X127974334Y-88415643D01*
X127817809Y-88331978D01*
X127782071Y-88302648D01*
X127680614Y-88219386D01*
X127569721Y-88084261D01*
X127568022Y-88082191D01*
X127484357Y-87925666D01*
X127432837Y-87755827D01*
X127415441Y-87579200D01*
X127432837Y-87402573D01*
X127484357Y-87232734D01*
X127568022Y-87076209D01*
X127597352Y-87040471D01*
X127680614Y-86939014D01*
X127782071Y-86855752D01*
X127817809Y-86826422D01*
X127974334Y-86742757D01*
X128144173Y-86691237D01*
X128210357Y-86684719D01*
X128276540Y-86678200D01*
X128365060Y-86678200D01*
X128431243Y-86684719D01*
X128431243Y-86684719D01*
G37*
G36*
X124712591Y-86459685D02*
G01*
X124746569Y-86469993D01*
X124777890Y-86486734D01*
X124805339Y-86509261D01*
X124827866Y-86536710D01*
X124844607Y-86568031D01*
X124854915Y-86602009D01*
X124859000Y-86643490D01*
X124859000Y-87244710D01*
X124854915Y-87286191D01*
X124844607Y-87320169D01*
X124827866Y-87351490D01*
X124805339Y-87378939D01*
X124777890Y-87401466D01*
X124746569Y-87418207D01*
X124712591Y-87428515D01*
X124671110Y-87432600D01*
X123994890Y-87432600D01*
X123953409Y-87428515D01*
X123919431Y-87418207D01*
X123888110Y-87401466D01*
X123860661Y-87378939D01*
X123838134Y-87351490D01*
X123821393Y-87320169D01*
X123811085Y-87286191D01*
X123807000Y-87244710D01*
X123807000Y-86643490D01*
X123811085Y-86602009D01*
X123821393Y-86568031D01*
X123838134Y-86536710D01*
X123860661Y-86509261D01*
X123888110Y-86486734D01*
X123919431Y-86469993D01*
X123953409Y-86459685D01*
X123994890Y-86455600D01*
X124671110Y-86455600D01*
X124712591Y-86459685D01*
X124712591Y-86459685D01*
G37*
G36*
X111416391Y-85685685D02*
G01*
X111450369Y-85695993D01*
X111481690Y-85712734D01*
X111509139Y-85735261D01*
X111531666Y-85762710D01*
X111548407Y-85794031D01*
X111558715Y-85828009D01*
X111562800Y-85869490D01*
X111562800Y-86545710D01*
X111558715Y-86587191D01*
X111548407Y-86621169D01*
X111531666Y-86652490D01*
X111509139Y-86679939D01*
X111481690Y-86702466D01*
X111450369Y-86719207D01*
X111416391Y-86729515D01*
X111374910Y-86733600D01*
X110773690Y-86733600D01*
X110732209Y-86729515D01*
X110698231Y-86719207D01*
X110666910Y-86702466D01*
X110639461Y-86679939D01*
X110616934Y-86652490D01*
X110600193Y-86621169D01*
X110589885Y-86587191D01*
X110585800Y-86545710D01*
X110585800Y-85869490D01*
X110589885Y-85828009D01*
X110600193Y-85794031D01*
X110616934Y-85762710D01*
X110639461Y-85735261D01*
X110666910Y-85712734D01*
X110698231Y-85695993D01*
X110732209Y-85685685D01*
X110773690Y-85681600D01*
X111374910Y-85681600D01*
X111416391Y-85685685D01*
X111416391Y-85685685D01*
G37*
G36*
X109841391Y-85685685D02*
G01*
X109875369Y-85695993D01*
X109906690Y-85712734D01*
X109934139Y-85735261D01*
X109956666Y-85762710D01*
X109973407Y-85794031D01*
X109983715Y-85828009D01*
X109987800Y-85869490D01*
X109987800Y-86545710D01*
X109983715Y-86587191D01*
X109973407Y-86621169D01*
X109956666Y-86652490D01*
X109934139Y-86679939D01*
X109906690Y-86702466D01*
X109875369Y-86719207D01*
X109841391Y-86729515D01*
X109799910Y-86733600D01*
X109198690Y-86733600D01*
X109157209Y-86729515D01*
X109123231Y-86719207D01*
X109091910Y-86702466D01*
X109064461Y-86679939D01*
X109041934Y-86652490D01*
X109025193Y-86621169D01*
X109014885Y-86587191D01*
X109010800Y-86545710D01*
X109010800Y-85869490D01*
X109014885Y-85828009D01*
X109025193Y-85794031D01*
X109041934Y-85762710D01*
X109064461Y-85735261D01*
X109091910Y-85712734D01*
X109123231Y-85695993D01*
X109157209Y-85685685D01*
X109198690Y-85681600D01*
X109799910Y-85681600D01*
X109841391Y-85685685D01*
X109841391Y-85685685D01*
G37*
G36*
X119342209Y-84256346D02*
G01*
X119461842Y-84280143D01*
X119687226Y-84373500D01*
X119890066Y-84509033D01*
X120062567Y-84681534D01*
X120198100Y-84884374D01*
X120291457Y-85109758D01*
X120339050Y-85349023D01*
X120339050Y-85592977D01*
X120291457Y-85832242D01*
X120198100Y-86057626D01*
X120062567Y-86260466D01*
X119890066Y-86432967D01*
X119687226Y-86568500D01*
X119687225Y-86568501D01*
X119687224Y-86568501D01*
X119642102Y-86587191D01*
X119461842Y-86661857D01*
X119370938Y-86679939D01*
X119222578Y-86709450D01*
X118978622Y-86709450D01*
X118830262Y-86679939D01*
X118739358Y-86661857D01*
X118559098Y-86587191D01*
X118513976Y-86568501D01*
X118513975Y-86568501D01*
X118513974Y-86568500D01*
X118311134Y-86432967D01*
X118138633Y-86260466D01*
X118003100Y-86057626D01*
X117909743Y-85832242D01*
X117862150Y-85592977D01*
X117862150Y-85349023D01*
X117909743Y-85109758D01*
X118003100Y-84884374D01*
X118138633Y-84681534D01*
X118311134Y-84509033D01*
X118513974Y-84373500D01*
X118739358Y-84280143D01*
X118858991Y-84256346D01*
X118978622Y-84232550D01*
X119222578Y-84232550D01*
X119342209Y-84256346D01*
X119342209Y-84256346D01*
G37*
G36*
X116167209Y-84256346D02*
G01*
X116286842Y-84280143D01*
X116512226Y-84373500D01*
X116715066Y-84509033D01*
X116887567Y-84681534D01*
X117023100Y-84884374D01*
X117116457Y-85109758D01*
X117164050Y-85349023D01*
X117164050Y-85592977D01*
X117116457Y-85832242D01*
X117023100Y-86057626D01*
X116887567Y-86260466D01*
X116715066Y-86432967D01*
X116512226Y-86568500D01*
X116512225Y-86568501D01*
X116512224Y-86568501D01*
X116467102Y-86587191D01*
X116286842Y-86661857D01*
X116195938Y-86679939D01*
X116047578Y-86709450D01*
X115803622Y-86709450D01*
X115655262Y-86679939D01*
X115564358Y-86661857D01*
X115384098Y-86587191D01*
X115338976Y-86568501D01*
X115338975Y-86568501D01*
X115338974Y-86568500D01*
X115136134Y-86432967D01*
X114963633Y-86260466D01*
X114828100Y-86057626D01*
X114734743Y-85832242D01*
X114687150Y-85592977D01*
X114687150Y-85349023D01*
X114734743Y-85109758D01*
X114828100Y-84884374D01*
X114963633Y-84681534D01*
X115136134Y-84509033D01*
X115338974Y-84373500D01*
X115564358Y-84280143D01*
X115683991Y-84256346D01*
X115803622Y-84232550D01*
X116047578Y-84232550D01*
X116167209Y-84256346D01*
X116167209Y-84256346D01*
G37*
G36*
X128431242Y-84144718D02*
G01*
X128497427Y-84151237D01*
X128667266Y-84202757D01*
X128823791Y-84286422D01*
X128859529Y-84315752D01*
X128960986Y-84399014D01*
X129021134Y-84472306D01*
X129073578Y-84536209D01*
X129157243Y-84692734D01*
X129208763Y-84862573D01*
X129226159Y-85039200D01*
X129208763Y-85215827D01*
X129157243Y-85385666D01*
X129073578Y-85542191D01*
X129044248Y-85577929D01*
X128960986Y-85679386D01*
X128871116Y-85753139D01*
X128823791Y-85791978D01*
X128667266Y-85875643D01*
X128497427Y-85927163D01*
X128431243Y-85933681D01*
X128365060Y-85940200D01*
X128276540Y-85940200D01*
X128210357Y-85933681D01*
X128144173Y-85927163D01*
X127974334Y-85875643D01*
X127817809Y-85791978D01*
X127770484Y-85753139D01*
X127680614Y-85679386D01*
X127597352Y-85577929D01*
X127568022Y-85542191D01*
X127484357Y-85385666D01*
X127432837Y-85215827D01*
X127415441Y-85039200D01*
X127432837Y-84862573D01*
X127484357Y-84692734D01*
X127568022Y-84536209D01*
X127620466Y-84472306D01*
X127680614Y-84399014D01*
X127782071Y-84315752D01*
X127817809Y-84286422D01*
X127974334Y-84202757D01*
X128144173Y-84151237D01*
X128210358Y-84144718D01*
X128276540Y-84138200D01*
X128365060Y-84138200D01*
X128431242Y-84144718D01*
X128431242Y-84144718D01*
G37*
G36*
X121112178Y-83411197D02*
G01*
X121164950Y-83421694D01*
X121264370Y-83462875D01*
X121353846Y-83522661D01*
X121429939Y-83598754D01*
X121489725Y-83688230D01*
X121530906Y-83787650D01*
X121530906Y-83787651D01*
X121551685Y-83892110D01*
X121551900Y-83893194D01*
X121551900Y-84000806D01*
X121530906Y-84106350D01*
X121489725Y-84205770D01*
X121429939Y-84295246D01*
X121353846Y-84371339D01*
X121264370Y-84431125D01*
X121164950Y-84472306D01*
X121112178Y-84482803D01*
X121059407Y-84493300D01*
X120951793Y-84493300D01*
X120899022Y-84482803D01*
X120846250Y-84472306D01*
X120746830Y-84431125D01*
X120657354Y-84371339D01*
X120581261Y-84295246D01*
X120521475Y-84205770D01*
X120480294Y-84106350D01*
X120459300Y-84000806D01*
X120459300Y-83893194D01*
X120459516Y-83892110D01*
X120480294Y-83787651D01*
X120480294Y-83787650D01*
X120521475Y-83688230D01*
X120581261Y-83598754D01*
X120657354Y-83522661D01*
X120746830Y-83462875D01*
X120846250Y-83421694D01*
X120899022Y-83411197D01*
X120951793Y-83400700D01*
X121059407Y-83400700D01*
X121112178Y-83411197D01*
X121112178Y-83411197D01*
G37*
G36*
X124712591Y-83107085D02*
G01*
X124746569Y-83117393D01*
X124777890Y-83134134D01*
X124805339Y-83156661D01*
X124827866Y-83184110D01*
X124844607Y-83215431D01*
X124854915Y-83249409D01*
X124859000Y-83290890D01*
X124859000Y-83892110D01*
X124854915Y-83933591D01*
X124844607Y-83967569D01*
X124827866Y-83998890D01*
X124805339Y-84026339D01*
X124777890Y-84048866D01*
X124746569Y-84065607D01*
X124712591Y-84075915D01*
X124671110Y-84080000D01*
X123994890Y-84080000D01*
X123953409Y-84075915D01*
X123919431Y-84065607D01*
X123888110Y-84048866D01*
X123860661Y-84026339D01*
X123838134Y-83998890D01*
X123821393Y-83967569D01*
X123811085Y-83933591D01*
X123807000Y-83892110D01*
X123807000Y-83290890D01*
X123811085Y-83249409D01*
X123821393Y-83215431D01*
X123838134Y-83184110D01*
X123860661Y-83156661D01*
X123888110Y-83134134D01*
X123919431Y-83117393D01*
X123953409Y-83107085D01*
X123994890Y-83103000D01*
X124671110Y-83103000D01*
X124712591Y-83107085D01*
X124712591Y-83107085D01*
G37*
G36*
X119843922Y-83134134D02*
G01*
X119865314Y-83138389D01*
X119946245Y-83171912D01*
X120019080Y-83220579D01*
X120081021Y-83282520D01*
X120129688Y-83355355D01*
X120129689Y-83355357D01*
X120148264Y-83400200D01*
X120163211Y-83436286D01*
X120180300Y-83522201D01*
X120180300Y-83609799D01*
X120163211Y-83695714D01*
X120129688Y-83776645D01*
X120081021Y-83849480D01*
X120019080Y-83911421D01*
X119946245Y-83960088D01*
X119946244Y-83960089D01*
X119946243Y-83960089D01*
X119865314Y-83993611D01*
X119779401Y-84010700D01*
X119691799Y-84010700D01*
X119605886Y-83993611D01*
X119524957Y-83960089D01*
X119524956Y-83960089D01*
X119524955Y-83960088D01*
X119452120Y-83911421D01*
X119390179Y-83849480D01*
X119341512Y-83776645D01*
X119307989Y-83695714D01*
X119290900Y-83609799D01*
X119290900Y-83522201D01*
X119307989Y-83436286D01*
X119322936Y-83400200D01*
X119341511Y-83355357D01*
X119341512Y-83355355D01*
X119390179Y-83282520D01*
X119452120Y-83220579D01*
X119524955Y-83171912D01*
X119605886Y-83138389D01*
X119627278Y-83134134D01*
X119691799Y-83121300D01*
X119779401Y-83121300D01*
X119843922Y-83134134D01*
X119843922Y-83134134D01*
G37*
G36*
X117303922Y-83134134D02*
G01*
X117325314Y-83138389D01*
X117406245Y-83171912D01*
X117479080Y-83220579D01*
X117541021Y-83282520D01*
X117589688Y-83355355D01*
X117589689Y-83355357D01*
X117608264Y-83400200D01*
X117623211Y-83436286D01*
X117640300Y-83522201D01*
X117640300Y-83609799D01*
X117623211Y-83695714D01*
X117589688Y-83776645D01*
X117541021Y-83849480D01*
X117479080Y-83911421D01*
X117406245Y-83960088D01*
X117406244Y-83960089D01*
X117406243Y-83960089D01*
X117325314Y-83993611D01*
X117239401Y-84010700D01*
X117151799Y-84010700D01*
X117065886Y-83993611D01*
X116984957Y-83960089D01*
X116984956Y-83960089D01*
X116984955Y-83960088D01*
X116912120Y-83911421D01*
X116850179Y-83849480D01*
X116801512Y-83776645D01*
X116767989Y-83695714D01*
X116750900Y-83609799D01*
X116750900Y-83522201D01*
X116767989Y-83436286D01*
X116782936Y-83400200D01*
X116801511Y-83355357D01*
X116801512Y-83355355D01*
X116850179Y-83282520D01*
X116912120Y-83220579D01*
X116984955Y-83171912D01*
X117065886Y-83138389D01*
X117087278Y-83134134D01*
X117151799Y-83121300D01*
X117239401Y-83121300D01*
X117303922Y-83134134D01*
X117303922Y-83134134D01*
G37*
G36*
X118573922Y-83134134D02*
G01*
X118595314Y-83138389D01*
X118676245Y-83171912D01*
X118749080Y-83220579D01*
X118811021Y-83282520D01*
X118859688Y-83355355D01*
X118859689Y-83355357D01*
X118878264Y-83400200D01*
X118893211Y-83436286D01*
X118910300Y-83522201D01*
X118910300Y-83609799D01*
X118893211Y-83695714D01*
X118859688Y-83776645D01*
X118811021Y-83849480D01*
X118749080Y-83911421D01*
X118676245Y-83960088D01*
X118676244Y-83960089D01*
X118676243Y-83960089D01*
X118595314Y-83993611D01*
X118509401Y-84010700D01*
X118421799Y-84010700D01*
X118335886Y-83993611D01*
X118254957Y-83960089D01*
X118254956Y-83960089D01*
X118254955Y-83960088D01*
X118182120Y-83911421D01*
X118120179Y-83849480D01*
X118071512Y-83776645D01*
X118037989Y-83695714D01*
X118020900Y-83609799D01*
X118020900Y-83522201D01*
X118037989Y-83436286D01*
X118052936Y-83400200D01*
X118071511Y-83355357D01*
X118071512Y-83355355D01*
X118120179Y-83282520D01*
X118182120Y-83220579D01*
X118254955Y-83171912D01*
X118335886Y-83138389D01*
X118357278Y-83134134D01*
X118421799Y-83121300D01*
X118509401Y-83121300D01*
X118573922Y-83134134D01*
X118573922Y-83134134D01*
G37*
G36*
X105063200Y-83898400D02*
G01*
X102961200Y-83898400D01*
X102961200Y-82296400D01*
X105063200Y-82296400D01*
X105063200Y-83898400D01*
X105063200Y-83898400D01*
G37*
G36*
X116018966Y-82392569D02*
G01*
X116084950Y-82405694D01*
X116184370Y-82446875D01*
X116273846Y-82506661D01*
X116349939Y-82582754D01*
X116409725Y-82672230D01*
X116450906Y-82771650D01*
X116471900Y-82877194D01*
X116471900Y-82984806D01*
X116450906Y-83090350D01*
X116409725Y-83189770D01*
X116349939Y-83279246D01*
X116273846Y-83355339D01*
X116184370Y-83415125D01*
X116084950Y-83456306D01*
X116051925Y-83462875D01*
X115979407Y-83477300D01*
X115871793Y-83477300D01*
X115799275Y-83462875D01*
X115766250Y-83456306D01*
X115666830Y-83415125D01*
X115577354Y-83355339D01*
X115501261Y-83279246D01*
X115441475Y-83189770D01*
X115400294Y-83090350D01*
X115379300Y-82984806D01*
X115379300Y-82877194D01*
X115400294Y-82771650D01*
X115441475Y-82672230D01*
X115501261Y-82582754D01*
X115577354Y-82506661D01*
X115666830Y-82446875D01*
X115766250Y-82405694D01*
X115832234Y-82392569D01*
X115871793Y-82384700D01*
X115979407Y-82384700D01*
X116018966Y-82392569D01*
X116018966Y-82392569D01*
G37*
G36*
X128431243Y-81604719D02*
G01*
X128497427Y-81611237D01*
X128667266Y-81662757D01*
X128823791Y-81746422D01*
X128835035Y-81755650D01*
X128960986Y-81859014D01*
X129036130Y-81950579D01*
X129073578Y-81996209D01*
X129157243Y-82152734D01*
X129208763Y-82322573D01*
X129226159Y-82499200D01*
X129208763Y-82675827D01*
X129157243Y-82845666D01*
X129073578Y-83002191D01*
X129044248Y-83037929D01*
X128960986Y-83139386D01*
X128862052Y-83220578D01*
X128823791Y-83251978D01*
X128667266Y-83335643D01*
X128497427Y-83387163D01*
X128431243Y-83393681D01*
X128365060Y-83400200D01*
X128276540Y-83400200D01*
X128210357Y-83393681D01*
X128144173Y-83387163D01*
X127974334Y-83335643D01*
X127817809Y-83251978D01*
X127779548Y-83220578D01*
X127680614Y-83139386D01*
X127597352Y-83037929D01*
X127568022Y-83002191D01*
X127484357Y-82845666D01*
X127432837Y-82675827D01*
X127415441Y-82499200D01*
X127432837Y-82322573D01*
X127484357Y-82152734D01*
X127568022Y-81996209D01*
X127605470Y-81950579D01*
X127680614Y-81859014D01*
X127806565Y-81755650D01*
X127817809Y-81746422D01*
X127974334Y-81662757D01*
X128144173Y-81611237D01*
X128210357Y-81604719D01*
X128276540Y-81598200D01*
X128365060Y-81598200D01*
X128431243Y-81604719D01*
X128431243Y-81604719D01*
G37*
G36*
X112848251Y-81824385D02*
G01*
X112882229Y-81834693D01*
X112913550Y-81851434D01*
X112940999Y-81873961D01*
X112963526Y-81901410D01*
X112980267Y-81932731D01*
X112990575Y-81966709D01*
X112994660Y-82008190D01*
X112994660Y-82609410D01*
X112990575Y-82650891D01*
X112980267Y-82684869D01*
X112963526Y-82716190D01*
X112940999Y-82743639D01*
X112913550Y-82766166D01*
X112882229Y-82782907D01*
X112848251Y-82793215D01*
X112806770Y-82797300D01*
X112130550Y-82797300D01*
X112089069Y-82793215D01*
X112055091Y-82782907D01*
X112023770Y-82766166D01*
X111996321Y-82743639D01*
X111973794Y-82716190D01*
X111957053Y-82684869D01*
X111946745Y-82650891D01*
X111942660Y-82609410D01*
X111942660Y-82008190D01*
X111946745Y-81966709D01*
X111957053Y-81932731D01*
X111973794Y-81901410D01*
X111996321Y-81873961D01*
X112023770Y-81851434D01*
X112055091Y-81834693D01*
X112089069Y-81824385D01*
X112130550Y-81820300D01*
X112806770Y-81820300D01*
X112848251Y-81824385D01*
X112848251Y-81824385D01*
G37*
G36*
X111363200Y-82748400D02*
G01*
X109261200Y-82748400D01*
X109261200Y-78846400D01*
X111363200Y-78846400D01*
X111363200Y-82748400D01*
X111363200Y-82748400D01*
G37*
G36*
X117290499Y-81861464D02*
G01*
X117325314Y-81868389D01*
X117406245Y-81901912D01*
X117479080Y-81950579D01*
X117541021Y-82012520D01*
X117589688Y-82085355D01*
X117589689Y-82085357D01*
X117623211Y-82166286D01*
X117640300Y-82252199D01*
X117640300Y-82339801D01*
X117623211Y-82425714D01*
X117590370Y-82505000D01*
X117589688Y-82506645D01*
X117541021Y-82579480D01*
X117479080Y-82641421D01*
X117406245Y-82690088D01*
X117406244Y-82690089D01*
X117406243Y-82690089D01*
X117325314Y-82723611D01*
X117239401Y-82740700D01*
X117151799Y-82740700D01*
X117065886Y-82723611D01*
X116984957Y-82690089D01*
X116984956Y-82690089D01*
X116984955Y-82690088D01*
X116912120Y-82641421D01*
X116850179Y-82579480D01*
X116801512Y-82506645D01*
X116800831Y-82505000D01*
X116767989Y-82425714D01*
X116750900Y-82339801D01*
X116750900Y-82252199D01*
X116767989Y-82166286D01*
X116801511Y-82085357D01*
X116801512Y-82085355D01*
X116850179Y-82012520D01*
X116912120Y-81950579D01*
X116984955Y-81901912D01*
X117065886Y-81868389D01*
X117100701Y-81861464D01*
X117151799Y-81851300D01*
X117239401Y-81851300D01*
X117290499Y-81861464D01*
X117290499Y-81861464D01*
G37*
G36*
X119830499Y-81861464D02*
G01*
X119865314Y-81868389D01*
X119946245Y-81901912D01*
X120019080Y-81950579D01*
X120081021Y-82012520D01*
X120129688Y-82085355D01*
X120129689Y-82085357D01*
X120163211Y-82166286D01*
X120180300Y-82252199D01*
X120180300Y-82339801D01*
X120163211Y-82425714D01*
X120130370Y-82505000D01*
X120129688Y-82506645D01*
X120081021Y-82579480D01*
X120019080Y-82641421D01*
X119946245Y-82690088D01*
X119946244Y-82690089D01*
X119946243Y-82690089D01*
X119865314Y-82723611D01*
X119779401Y-82740700D01*
X119691799Y-82740700D01*
X119605886Y-82723611D01*
X119524957Y-82690089D01*
X119524956Y-82690089D01*
X119524955Y-82690088D01*
X119452120Y-82641421D01*
X119390179Y-82579480D01*
X119341512Y-82506645D01*
X119340831Y-82505000D01*
X119307989Y-82425714D01*
X119290900Y-82339801D01*
X119290900Y-82252199D01*
X119307989Y-82166286D01*
X119341511Y-82085357D01*
X119341512Y-82085355D01*
X119390179Y-82012520D01*
X119452120Y-81950579D01*
X119524955Y-81901912D01*
X119605886Y-81868389D01*
X119640701Y-81861464D01*
X119691799Y-81851300D01*
X119779401Y-81851300D01*
X119830499Y-81861464D01*
X119830499Y-81861464D01*
G37*
G36*
X118560499Y-81861464D02*
G01*
X118595314Y-81868389D01*
X118676245Y-81901912D01*
X118749080Y-81950579D01*
X118811021Y-82012520D01*
X118859688Y-82085355D01*
X118859689Y-82085357D01*
X118893211Y-82166286D01*
X118910300Y-82252199D01*
X118910300Y-82339801D01*
X118893211Y-82425714D01*
X118860370Y-82505000D01*
X118859688Y-82506645D01*
X118811021Y-82579480D01*
X118749080Y-82641421D01*
X118676245Y-82690088D01*
X118676244Y-82690089D01*
X118676243Y-82690089D01*
X118595314Y-82723611D01*
X118509401Y-82740700D01*
X118421799Y-82740700D01*
X118335886Y-82723611D01*
X118254957Y-82690089D01*
X118254956Y-82690089D01*
X118254955Y-82690088D01*
X118182120Y-82641421D01*
X118120179Y-82579480D01*
X118071512Y-82506645D01*
X118070831Y-82505000D01*
X118037989Y-82425714D01*
X118020900Y-82339801D01*
X118020900Y-82252199D01*
X118037989Y-82166286D01*
X118071511Y-82085357D01*
X118071512Y-82085355D01*
X118120179Y-82012520D01*
X118182120Y-81950579D01*
X118254955Y-81901912D01*
X118335886Y-81868389D01*
X118370701Y-81861464D01*
X118421799Y-81851300D01*
X118509401Y-81851300D01*
X118560499Y-81861464D01*
X118560499Y-81861464D01*
G37*
G36*
X124712591Y-81532085D02*
G01*
X124746569Y-81542393D01*
X124777890Y-81559134D01*
X124805339Y-81581661D01*
X124827866Y-81609110D01*
X124844607Y-81640431D01*
X124854915Y-81674409D01*
X124859000Y-81715890D01*
X124859000Y-82317110D01*
X124854915Y-82358591D01*
X124844607Y-82392569D01*
X124827866Y-82423890D01*
X124805339Y-82451339D01*
X124777890Y-82473866D01*
X124746569Y-82490607D01*
X124712591Y-82500915D01*
X124671110Y-82505000D01*
X123994890Y-82505000D01*
X123953409Y-82500915D01*
X123919431Y-82490607D01*
X123888110Y-82473866D01*
X123860661Y-82451339D01*
X123838134Y-82423890D01*
X123821393Y-82392569D01*
X123811085Y-82358591D01*
X123807000Y-82317110D01*
X123807000Y-81715890D01*
X123811085Y-81674409D01*
X123821393Y-81640431D01*
X123838134Y-81609110D01*
X123860661Y-81581661D01*
X123888110Y-81559134D01*
X123919431Y-81542393D01*
X123953409Y-81532085D01*
X123994890Y-81528000D01*
X124671110Y-81528000D01*
X124712591Y-81532085D01*
X124712591Y-81532085D01*
G37*
G36*
X121112178Y-81379197D02*
G01*
X121164950Y-81389694D01*
X121264370Y-81430875D01*
X121353846Y-81490661D01*
X121429939Y-81566754D01*
X121489725Y-81656230D01*
X121530906Y-81755650D01*
X121530906Y-81755651D01*
X121551467Y-81859014D01*
X121551900Y-81861194D01*
X121551900Y-81968806D01*
X121530906Y-82074350D01*
X121489725Y-82173770D01*
X121429939Y-82263246D01*
X121353846Y-82339339D01*
X121264370Y-82399125D01*
X121164950Y-82440306D01*
X121131925Y-82446875D01*
X121059407Y-82461300D01*
X120951793Y-82461300D01*
X120879275Y-82446875D01*
X120846250Y-82440306D01*
X120746830Y-82399125D01*
X120657354Y-82339339D01*
X120581261Y-82263246D01*
X120521475Y-82173770D01*
X120480294Y-82074350D01*
X120459300Y-81968806D01*
X120459300Y-81861194D01*
X120459734Y-81859014D01*
X120480294Y-81755651D01*
X120480294Y-81755650D01*
X120521475Y-81656230D01*
X120581261Y-81566754D01*
X120657354Y-81490661D01*
X120746830Y-81430875D01*
X120846250Y-81389694D01*
X120899022Y-81379197D01*
X120951793Y-81368700D01*
X121059407Y-81368700D01*
X121112178Y-81379197D01*
X121112178Y-81379197D01*
G37*
G36*
X119342210Y-79176347D02*
G01*
X119461842Y-79200143D01*
X119687226Y-79293500D01*
X119890066Y-79429033D01*
X120062567Y-79601534D01*
X120198100Y-79804374D01*
X120277640Y-79996400D01*
X120291457Y-80029759D01*
X120338030Y-80263892D01*
X120339050Y-80269023D01*
X120339050Y-80512977D01*
X120291457Y-80752242D01*
X120198100Y-80977626D01*
X120062567Y-81180466D01*
X119890066Y-81352967D01*
X119687226Y-81488500D01*
X119461842Y-81581857D01*
X119378675Y-81598400D01*
X119222578Y-81629450D01*
X118978622Y-81629450D01*
X118822525Y-81598400D01*
X118739358Y-81581857D01*
X118513974Y-81488500D01*
X118311134Y-81352967D01*
X118138633Y-81180466D01*
X118003100Y-80977626D01*
X117909743Y-80752242D01*
X117862150Y-80512977D01*
X117862150Y-80269023D01*
X117863171Y-80263892D01*
X117909743Y-80029759D01*
X117923561Y-79996400D01*
X118003100Y-79804374D01*
X118138633Y-79601534D01*
X118311134Y-79429033D01*
X118513974Y-79293500D01*
X118739358Y-79200143D01*
X118858990Y-79176347D01*
X118978622Y-79152550D01*
X119222578Y-79152550D01*
X119342210Y-79176347D01*
X119342210Y-79176347D01*
G37*
G36*
X116167210Y-79176347D02*
G01*
X116286842Y-79200143D01*
X116512226Y-79293500D01*
X116715066Y-79429033D01*
X116887567Y-79601534D01*
X117023100Y-79804374D01*
X117102640Y-79996400D01*
X117116457Y-80029759D01*
X117163030Y-80263892D01*
X117164050Y-80269023D01*
X117164050Y-80512977D01*
X117116457Y-80752242D01*
X117023100Y-80977626D01*
X116887567Y-81180466D01*
X116715066Y-81352967D01*
X116512226Y-81488500D01*
X116286842Y-81581857D01*
X116203675Y-81598400D01*
X116047578Y-81629450D01*
X115803622Y-81629450D01*
X115647525Y-81598400D01*
X115564358Y-81581857D01*
X115338974Y-81488500D01*
X115136134Y-81352967D01*
X114963633Y-81180466D01*
X114828100Y-80977626D01*
X114734743Y-80752242D01*
X114687150Y-80512977D01*
X114687150Y-80269023D01*
X114688171Y-80263892D01*
X114734743Y-80029759D01*
X114748561Y-79996400D01*
X114828100Y-79804374D01*
X114963633Y-79601534D01*
X115136134Y-79429033D01*
X115338974Y-79293500D01*
X115564358Y-79200143D01*
X115683990Y-79176347D01*
X115803622Y-79152550D01*
X116047578Y-79152550D01*
X116167210Y-79176347D01*
X116167210Y-79176347D01*
G37*
G36*
X105063200Y-81598400D02*
G01*
X102961200Y-81598400D01*
X102961200Y-79996400D01*
X105063200Y-79996400D01*
X105063200Y-81598400D01*
X105063200Y-81598400D01*
G37*
G36*
X112848251Y-80249385D02*
G01*
X112882229Y-80259693D01*
X112913550Y-80276434D01*
X112940999Y-80298961D01*
X112963526Y-80326410D01*
X112980267Y-80357731D01*
X112990575Y-80391709D01*
X112994660Y-80433190D01*
X112994660Y-81034410D01*
X112990575Y-81075891D01*
X112980267Y-81109869D01*
X112963526Y-81141190D01*
X112940999Y-81168639D01*
X112913550Y-81191166D01*
X112882229Y-81207907D01*
X112848251Y-81218215D01*
X112806770Y-81222300D01*
X112130550Y-81222300D01*
X112089069Y-81218215D01*
X112055091Y-81207907D01*
X112023770Y-81191166D01*
X111996321Y-81168639D01*
X111973794Y-81141190D01*
X111957053Y-81109869D01*
X111946745Y-81075891D01*
X111942660Y-81034410D01*
X111942660Y-80433190D01*
X111946745Y-80391709D01*
X111957053Y-80357731D01*
X111973794Y-80326410D01*
X111996321Y-80298961D01*
X112023770Y-80276434D01*
X112055091Y-80259693D01*
X112089069Y-80249385D01*
X112130550Y-80245300D01*
X112806770Y-80245300D01*
X112848251Y-80249385D01*
X112848251Y-80249385D01*
G37*
G36*
X128431242Y-79064718D02*
G01*
X128497427Y-79071237D01*
X128667266Y-79122757D01*
X128823791Y-79206422D01*
X128859529Y-79235752D01*
X128960986Y-79319014D01*
X129033660Y-79407569D01*
X129073578Y-79456209D01*
X129157243Y-79612734D01*
X129208763Y-79782573D01*
X129226159Y-79959200D01*
X129208763Y-80135827D01*
X129157243Y-80305666D01*
X129073578Y-80462191D01*
X129051125Y-80489550D01*
X128960986Y-80599386D01*
X128859529Y-80682648D01*
X128823791Y-80711978D01*
X128667266Y-80795643D01*
X128497427Y-80847163D01*
X128431242Y-80853682D01*
X128365060Y-80860200D01*
X128276540Y-80860200D01*
X128210358Y-80853682D01*
X128144173Y-80847163D01*
X127974334Y-80795643D01*
X127817809Y-80711978D01*
X127782071Y-80682648D01*
X127680614Y-80599386D01*
X127590475Y-80489550D01*
X127568022Y-80462191D01*
X127484357Y-80305666D01*
X127432837Y-80135827D01*
X127415441Y-79959200D01*
X127432837Y-79782573D01*
X127484357Y-79612734D01*
X127568022Y-79456209D01*
X127607940Y-79407569D01*
X127680614Y-79319014D01*
X127782071Y-79235752D01*
X127817809Y-79206422D01*
X127974334Y-79122757D01*
X128144173Y-79071237D01*
X128210358Y-79064718D01*
X128276540Y-79058200D01*
X128365060Y-79058200D01*
X128431242Y-79064718D01*
X128431242Y-79064718D01*
G37*
G36*
X123557391Y-78472085D02*
G01*
X123591369Y-78482393D01*
X123622690Y-78499134D01*
X123650139Y-78521661D01*
X123672666Y-78549110D01*
X123689407Y-78580431D01*
X123699715Y-78614409D01*
X123703800Y-78655890D01*
X123703800Y-79332110D01*
X123699715Y-79373591D01*
X123689407Y-79407569D01*
X123672666Y-79438890D01*
X123650139Y-79466339D01*
X123622690Y-79488866D01*
X123591369Y-79505607D01*
X123557391Y-79515915D01*
X123515910Y-79520000D01*
X122914690Y-79520000D01*
X122873209Y-79515915D01*
X122839231Y-79505607D01*
X122807910Y-79488866D01*
X122780461Y-79466339D01*
X122757934Y-79438890D01*
X122741193Y-79407569D01*
X122730885Y-79373591D01*
X122726800Y-79332110D01*
X122726800Y-78655890D01*
X122730885Y-78614409D01*
X122741193Y-78580431D01*
X122757934Y-78549110D01*
X122780461Y-78521661D01*
X122807910Y-78499134D01*
X122839231Y-78482393D01*
X122873209Y-78472085D01*
X122914690Y-78468000D01*
X123515910Y-78468000D01*
X123557391Y-78472085D01*
X123557391Y-78472085D01*
G37*
G36*
X125132391Y-78472085D02*
G01*
X125166369Y-78482393D01*
X125197690Y-78499134D01*
X125225139Y-78521661D01*
X125247666Y-78549110D01*
X125264407Y-78580431D01*
X125274715Y-78614409D01*
X125278800Y-78655890D01*
X125278800Y-79332110D01*
X125274715Y-79373591D01*
X125264407Y-79407569D01*
X125247666Y-79438890D01*
X125225139Y-79466339D01*
X125197690Y-79488866D01*
X125166369Y-79505607D01*
X125132391Y-79515915D01*
X125090910Y-79520000D01*
X124489690Y-79520000D01*
X124448209Y-79515915D01*
X124414231Y-79505607D01*
X124382910Y-79488866D01*
X124355461Y-79466339D01*
X124332934Y-79438890D01*
X124316193Y-79407569D01*
X124305885Y-79373591D01*
X124301800Y-79332110D01*
X124301800Y-78655890D01*
X124305885Y-78614409D01*
X124316193Y-78580431D01*
X124332934Y-78549110D01*
X124355461Y-78521661D01*
X124382910Y-78499134D01*
X124414231Y-78482393D01*
X124448209Y-78472085D01*
X124489690Y-78468000D01*
X125090910Y-78468000D01*
X125132391Y-78472085D01*
X125132391Y-78472085D01*
G37*
G36*
X105063200Y-79298400D02*
G01*
X102961200Y-79298400D01*
X102961200Y-77696400D01*
X105063200Y-77696400D01*
X105063200Y-79298400D01*
X105063200Y-79298400D01*
G37*
G36*
X129221800Y-78320200D02*
G01*
X127419800Y-78320200D01*
X127419800Y-76518200D01*
X129221800Y-76518200D01*
X129221800Y-78320200D01*
X129221800Y-78320200D01*
G37*
G36*
X125106991Y-76236885D02*
G01*
X125140969Y-76247193D01*
X125172290Y-76263934D01*
X125199739Y-76286461D01*
X125222266Y-76313910D01*
X125239007Y-76345231D01*
X125249315Y-76379209D01*
X125253400Y-76420690D01*
X125253400Y-77096910D01*
X125249315Y-77138391D01*
X125239007Y-77172369D01*
X125222266Y-77203690D01*
X125199739Y-77231139D01*
X125172290Y-77253666D01*
X125140969Y-77270407D01*
X125106991Y-77280715D01*
X125065510Y-77284800D01*
X124464290Y-77284800D01*
X124422809Y-77280715D01*
X124388831Y-77270407D01*
X124357510Y-77253666D01*
X124330061Y-77231139D01*
X124307534Y-77203690D01*
X124290793Y-77172369D01*
X124280485Y-77138391D01*
X124276400Y-77096910D01*
X124276400Y-76420690D01*
X124280485Y-76379209D01*
X124290793Y-76345231D01*
X124307534Y-76313910D01*
X124330061Y-76286461D01*
X124357510Y-76263934D01*
X124388831Y-76247193D01*
X124422809Y-76236885D01*
X124464290Y-76232800D01*
X125065510Y-76232800D01*
X125106991Y-76236885D01*
X125106991Y-76236885D01*
G37*
G36*
X123531991Y-76236885D02*
G01*
X123565969Y-76247193D01*
X123597290Y-76263934D01*
X123624739Y-76286461D01*
X123647266Y-76313910D01*
X123664007Y-76345231D01*
X123674315Y-76379209D01*
X123678400Y-76420690D01*
X123678400Y-77096910D01*
X123674315Y-77138391D01*
X123664007Y-77172369D01*
X123647266Y-77203690D01*
X123624739Y-77231139D01*
X123597290Y-77253666D01*
X123565969Y-77270407D01*
X123531991Y-77280715D01*
X123490510Y-77284800D01*
X122889290Y-77284800D01*
X122847809Y-77280715D01*
X122813831Y-77270407D01*
X122782510Y-77253666D01*
X122755061Y-77231139D01*
X122732534Y-77203690D01*
X122715793Y-77172369D01*
X122705485Y-77138391D01*
X122701400Y-77096910D01*
X122701400Y-76420690D01*
X122705485Y-76379209D01*
X122715793Y-76345231D01*
X122732534Y-76313910D01*
X122755061Y-76286461D01*
X122782510Y-76263934D01*
X122813831Y-76247193D01*
X122847809Y-76236885D01*
X122889290Y-76232800D01*
X123490510Y-76232800D01*
X123531991Y-76236885D01*
X123531991Y-76236885D01*
G37*
G36*
X116452000Y-74822000D02*
G01*
X115450000Y-74822000D01*
X115450000Y-72720000D01*
X116452000Y-72720000D01*
X116452000Y-74822000D01*
X116452000Y-74822000D01*
G37*
G36*
X111372000Y-74822000D02*
G01*
X110370000Y-74822000D01*
X110370000Y-72720000D01*
X111372000Y-72720000D01*
X111372000Y-74822000D01*
X111372000Y-74822000D01*
G37*
G36*
X112642000Y-74822000D02*
G01*
X111640000Y-74822000D01*
X111640000Y-72720000D01*
X112642000Y-72720000D01*
X112642000Y-74822000D01*
X112642000Y-74822000D01*
G37*
G36*
X113912000Y-74822000D02*
G01*
X112910000Y-74822000D01*
X112910000Y-72720000D01*
X113912000Y-72720000D01*
X113912000Y-74822000D01*
X113912000Y-74822000D01*
G37*
G36*
X115182000Y-74822000D02*
G01*
X114180000Y-74822000D01*
X114180000Y-72720000D01*
X115182000Y-72720000D01*
X115182000Y-74822000D01*
X115182000Y-74822000D01*
G37*
G36*
X117722000Y-74822000D02*
G01*
X116720000Y-74822000D01*
X116720000Y-72720000D01*
X117722000Y-72720000D01*
X117722000Y-74822000D01*
X117722000Y-74822000D01*
G37*
G36*
X118992000Y-74822000D02*
G01*
X117990000Y-74822000D01*
X117990000Y-72720000D01*
X118992000Y-72720000D01*
X118992000Y-74822000D01*
X118992000Y-74822000D01*
G37*
G36*
X120262000Y-74822000D02*
G01*
X119260000Y-74822000D01*
X119260000Y-72720000D01*
X120262000Y-72720000D01*
X120262000Y-74822000D01*
X120262000Y-74822000D01*
G37*
G36*
X121532000Y-74822000D02*
G01*
X120530000Y-74822000D01*
X120530000Y-72720000D01*
X121532000Y-72720000D01*
X121532000Y-74822000D01*
X121532000Y-74822000D01*
G37*
G36*
X122802000Y-74822000D02*
G01*
X121800000Y-74822000D01*
X121800000Y-72720000D01*
X122802000Y-72720000D01*
X122802000Y-74822000D01*
X122802000Y-74822000D01*
G37*
G36*
X109137000Y-73272000D02*
G01*
X107035000Y-73272000D01*
X107035000Y-72270000D01*
X109137000Y-72270000D01*
X109137000Y-73272000D01*
X109137000Y-73272000D01*
G37*
G36*
X126137000Y-73272000D02*
G01*
X124035000Y-73272000D01*
X124035000Y-72270000D01*
X126137000Y-72270000D01*
X126137000Y-73272000D01*
X126137000Y-73272000D01*
G37*
G36*
X128868123Y-71406619D02*
G01*
X128934307Y-71413137D01*
X129104146Y-71464657D01*
X129260671Y-71548322D01*
X129296409Y-71577652D01*
X129397866Y-71660914D01*
X129481128Y-71762371D01*
X129510458Y-71798109D01*
X129594123Y-71954634D01*
X129645643Y-72124473D01*
X129663039Y-72301100D01*
X129645643Y-72477727D01*
X129594123Y-72647566D01*
X129510458Y-72804091D01*
X129481128Y-72839829D01*
X129397866Y-72941286D01*
X129296409Y-73024548D01*
X129260671Y-73053878D01*
X129104146Y-73137543D01*
X128934307Y-73189063D01*
X128868123Y-73195581D01*
X128801940Y-73202100D01*
X128713420Y-73202100D01*
X128647237Y-73195581D01*
X128581053Y-73189063D01*
X128411214Y-73137543D01*
X128254689Y-73053878D01*
X128218951Y-73024548D01*
X128117494Y-72941286D01*
X128034232Y-72839829D01*
X128004902Y-72804091D01*
X127921237Y-72647566D01*
X127869717Y-72477727D01*
X127852321Y-72301100D01*
X127869717Y-72124473D01*
X127921237Y-71954634D01*
X128004902Y-71798109D01*
X128034232Y-71762371D01*
X128117494Y-71660914D01*
X128218951Y-71577652D01*
X128254689Y-71548322D01*
X128411214Y-71464657D01*
X128581053Y-71413137D01*
X128647237Y-71406619D01*
X128713420Y-71400100D01*
X128801940Y-71400100D01*
X128868123Y-71406619D01*
X128868123Y-71406619D01*
G37*
G36*
X126137000Y-72002000D02*
G01*
X124035000Y-72002000D01*
X124035000Y-71000000D01*
X126137000Y-71000000D01*
X126137000Y-72002000D01*
X126137000Y-72002000D01*
G37*
G36*
X109137000Y-72002000D02*
G01*
X107035000Y-72002000D01*
X107035000Y-71000000D01*
X109137000Y-71000000D01*
X109137000Y-72002000D01*
X109137000Y-72002000D01*
G37*
G36*
X109137000Y-70732000D02*
G01*
X107035000Y-70732000D01*
X107035000Y-69730000D01*
X109137000Y-69730000D01*
X109137000Y-70732000D01*
X109137000Y-70732000D01*
G37*
G36*
X126137000Y-70732000D02*
G01*
X124035000Y-70732000D01*
X124035000Y-69730000D01*
X126137000Y-69730000D01*
X126137000Y-70732000D01*
X126137000Y-70732000D01*
G37*
G36*
X129658680Y-70662100D02*
G01*
X127856680Y-70662100D01*
X127856680Y-68860100D01*
X129658680Y-68860100D01*
X129658680Y-70662100D01*
X129658680Y-70662100D01*
G37*
G36*
X103697591Y-69429685D02*
G01*
X103731569Y-69439993D01*
X103762890Y-69456734D01*
X103790339Y-69479261D01*
X103812866Y-69506710D01*
X103829607Y-69538031D01*
X103839915Y-69572009D01*
X103844000Y-69613490D01*
X103844000Y-70289710D01*
X103839915Y-70331191D01*
X103829607Y-70365169D01*
X103812866Y-70396490D01*
X103790339Y-70423939D01*
X103762890Y-70446466D01*
X103731569Y-70463207D01*
X103697591Y-70473515D01*
X103656110Y-70477600D01*
X103054890Y-70477600D01*
X103013409Y-70473515D01*
X102979431Y-70463207D01*
X102948110Y-70446466D01*
X102920661Y-70423939D01*
X102898134Y-70396490D01*
X102881393Y-70365169D01*
X102871085Y-70331191D01*
X102867000Y-70289710D01*
X102867000Y-69613490D01*
X102871085Y-69572009D01*
X102881393Y-69538031D01*
X102898134Y-69506710D01*
X102920661Y-69479261D01*
X102948110Y-69456734D01*
X102979431Y-69439993D01*
X103013409Y-69429685D01*
X103054890Y-69425600D01*
X103656110Y-69425600D01*
X103697591Y-69429685D01*
X103697591Y-69429685D01*
G37*
G36*
X105272591Y-69429685D02*
G01*
X105306569Y-69439993D01*
X105337890Y-69456734D01*
X105365339Y-69479261D01*
X105387866Y-69506710D01*
X105404607Y-69538031D01*
X105414915Y-69572009D01*
X105419000Y-69613490D01*
X105419000Y-70289710D01*
X105414915Y-70331191D01*
X105404607Y-70365169D01*
X105387866Y-70396490D01*
X105365339Y-70423939D01*
X105337890Y-70446466D01*
X105306569Y-70463207D01*
X105272591Y-70473515D01*
X105231110Y-70477600D01*
X104629890Y-70477600D01*
X104588409Y-70473515D01*
X104554431Y-70463207D01*
X104523110Y-70446466D01*
X104495661Y-70423939D01*
X104473134Y-70396490D01*
X104456393Y-70365169D01*
X104446085Y-70331191D01*
X104442000Y-70289710D01*
X104442000Y-69613490D01*
X104446085Y-69572009D01*
X104456393Y-69538031D01*
X104473134Y-69506710D01*
X104495661Y-69479261D01*
X104523110Y-69456734D01*
X104554431Y-69439993D01*
X104588409Y-69429685D01*
X104629890Y-69425600D01*
X105231110Y-69425600D01*
X105272591Y-69429685D01*
X105272591Y-69429685D01*
G37*
G36*
X126137000Y-69462000D02*
G01*
X124035000Y-69462000D01*
X124035000Y-68460000D01*
X126137000Y-68460000D01*
X126137000Y-69462000D01*
X126137000Y-69462000D01*
G37*
G36*
X109137000Y-69462000D02*
G01*
X107035000Y-69462000D01*
X107035000Y-68460000D01*
X109137000Y-68460000D01*
X109137000Y-69462000D01*
X109137000Y-69462000D01*
G37*
G36*
X109137000Y-68192000D02*
G01*
X107035000Y-68192000D01*
X107035000Y-67190000D01*
X109137000Y-67190000D01*
X109137000Y-68192000D01*
X109137000Y-68192000D01*
G37*
G36*
X126137000Y-68192000D02*
G01*
X124035000Y-68192000D01*
X124035000Y-67190000D01*
X126137000Y-67190000D01*
X126137000Y-68192000D01*
X126137000Y-68192000D01*
G37*
G36*
X103691591Y-66559485D02*
G01*
X103725569Y-66569793D01*
X103756890Y-66586534D01*
X103784339Y-66609061D01*
X103806866Y-66636510D01*
X103823607Y-66667831D01*
X103833915Y-66701809D01*
X103838000Y-66743290D01*
X103838000Y-67419510D01*
X103833915Y-67460991D01*
X103823607Y-67494969D01*
X103806866Y-67526290D01*
X103784339Y-67553739D01*
X103756890Y-67576266D01*
X103725569Y-67593007D01*
X103691591Y-67603315D01*
X103650110Y-67607400D01*
X103048890Y-67607400D01*
X103007409Y-67603315D01*
X102973431Y-67593007D01*
X102942110Y-67576266D01*
X102914661Y-67553739D01*
X102892134Y-67526290D01*
X102875393Y-67494969D01*
X102865085Y-67460991D01*
X102861000Y-67419510D01*
X102861000Y-66743290D01*
X102865085Y-66701809D01*
X102875393Y-66667831D01*
X102892134Y-66636510D01*
X102914661Y-66609061D01*
X102942110Y-66586534D01*
X102973431Y-66569793D01*
X103007409Y-66559485D01*
X103048890Y-66555400D01*
X103650110Y-66555400D01*
X103691591Y-66559485D01*
X103691591Y-66559485D01*
G37*
G36*
X105266591Y-66559485D02*
G01*
X105300569Y-66569793D01*
X105331890Y-66586534D01*
X105359339Y-66609061D01*
X105381866Y-66636510D01*
X105398607Y-66667831D01*
X105408915Y-66701809D01*
X105413000Y-66743290D01*
X105413000Y-67419510D01*
X105408915Y-67460991D01*
X105398607Y-67494969D01*
X105381866Y-67526290D01*
X105359339Y-67553739D01*
X105331890Y-67576266D01*
X105300569Y-67593007D01*
X105266591Y-67603315D01*
X105225110Y-67607400D01*
X104623890Y-67607400D01*
X104582409Y-67603315D01*
X104548431Y-67593007D01*
X104517110Y-67576266D01*
X104489661Y-67553739D01*
X104467134Y-67526290D01*
X104450393Y-67494969D01*
X104440085Y-67460991D01*
X104436000Y-67419510D01*
X104436000Y-66743290D01*
X104440085Y-66701809D01*
X104450393Y-66667831D01*
X104467134Y-66636510D01*
X104489661Y-66609061D01*
X104517110Y-66586534D01*
X104548431Y-66569793D01*
X104582409Y-66559485D01*
X104623890Y-66555400D01*
X105225110Y-66555400D01*
X105266591Y-66559485D01*
X105266591Y-66559485D01*
G37*
G36*
X126137000Y-66922000D02*
G01*
X124035000Y-66922000D01*
X124035000Y-65920000D01*
X126137000Y-65920000D01*
X126137000Y-66922000D01*
X126137000Y-66922000D01*
G37*
G36*
X109137000Y-66922000D02*
G01*
X107035000Y-66922000D01*
X107035000Y-65920000D01*
X109137000Y-65920000D01*
X109137000Y-66922000D01*
X109137000Y-66922000D01*
G37*
G36*
X118137000Y-66312000D02*
G01*
X113035000Y-66312000D01*
X113035000Y-61210000D01*
X118137000Y-61210000D01*
X118137000Y-66312000D01*
X118137000Y-66312000D01*
G37*
G36*
X126137000Y-65652000D02*
G01*
X124035000Y-65652000D01*
X124035000Y-64650000D01*
X126137000Y-64650000D01*
X126137000Y-65652000D01*
X126137000Y-65652000D01*
G37*
G36*
X109137000Y-65652000D02*
G01*
X107035000Y-65652000D01*
X107035000Y-64650000D01*
X109137000Y-64650000D01*
X109137000Y-65652000D01*
X109137000Y-65652000D01*
G37*
G36*
X105266591Y-63765485D02*
G01*
X105300569Y-63775793D01*
X105331890Y-63792534D01*
X105359339Y-63815061D01*
X105381866Y-63842510D01*
X105398607Y-63873831D01*
X105408915Y-63907809D01*
X105413000Y-63949290D01*
X105413000Y-64625510D01*
X105408915Y-64666991D01*
X105398607Y-64700969D01*
X105381866Y-64732290D01*
X105359339Y-64759739D01*
X105331890Y-64782266D01*
X105300569Y-64799007D01*
X105266591Y-64809315D01*
X105225110Y-64813400D01*
X104623890Y-64813400D01*
X104582409Y-64809315D01*
X104548431Y-64799007D01*
X104517110Y-64782266D01*
X104489661Y-64759739D01*
X104467134Y-64732290D01*
X104450393Y-64700969D01*
X104440085Y-64666991D01*
X104436000Y-64625510D01*
X104436000Y-63949290D01*
X104440085Y-63907809D01*
X104450393Y-63873831D01*
X104467134Y-63842510D01*
X104489661Y-63815061D01*
X104517110Y-63792534D01*
X104548431Y-63775793D01*
X104582409Y-63765485D01*
X104623890Y-63761400D01*
X105225110Y-63761400D01*
X105266591Y-63765485D01*
X105266591Y-63765485D01*
G37*
G36*
X103691591Y-63765485D02*
G01*
X103725569Y-63775793D01*
X103756890Y-63792534D01*
X103784339Y-63815061D01*
X103806866Y-63842510D01*
X103823607Y-63873831D01*
X103833915Y-63907809D01*
X103838000Y-63949290D01*
X103838000Y-64625510D01*
X103833915Y-64666991D01*
X103823607Y-64700969D01*
X103806866Y-64732290D01*
X103784339Y-64759739D01*
X103756890Y-64782266D01*
X103725569Y-64799007D01*
X103691591Y-64809315D01*
X103650110Y-64813400D01*
X103048890Y-64813400D01*
X103007409Y-64809315D01*
X102973431Y-64799007D01*
X102942110Y-64782266D01*
X102914661Y-64759739D01*
X102892134Y-64732290D01*
X102875393Y-64700969D01*
X102865085Y-64666991D01*
X102861000Y-64625510D01*
X102861000Y-63949290D01*
X102865085Y-63907809D01*
X102875393Y-63873831D01*
X102892134Y-63842510D01*
X102914661Y-63815061D01*
X102942110Y-63792534D01*
X102973431Y-63775793D01*
X103007409Y-63765485D01*
X103048890Y-63761400D01*
X103650110Y-63761400D01*
X103691591Y-63765485D01*
X103691591Y-63765485D01*
G37*
G36*
X109137000Y-64382000D02*
G01*
X107035000Y-64382000D01*
X107035000Y-63380000D01*
X109137000Y-63380000D01*
X109137000Y-64382000D01*
X109137000Y-64382000D01*
G37*
G36*
X126137000Y-64382000D02*
G01*
X124035000Y-64382000D01*
X124035000Y-63380000D01*
X126137000Y-63380000D01*
X126137000Y-64382000D01*
X126137000Y-64382000D01*
G37*
G36*
X126137000Y-63112000D02*
G01*
X124035000Y-63112000D01*
X124035000Y-62110000D01*
X126137000Y-62110000D01*
X126137000Y-63112000D01*
X126137000Y-63112000D01*
G37*
G36*
X109137000Y-63112000D02*
G01*
X107035000Y-63112000D01*
X107035000Y-62110000D01*
X109137000Y-62110000D01*
X109137000Y-63112000D01*
X109137000Y-63112000D01*
G37*
G36*
X103068000Y-62165800D02*
G01*
X102066000Y-62165800D01*
X102066000Y-60363800D01*
X103068000Y-60363800D01*
X103068000Y-62165800D01*
X103068000Y-62165800D01*
G37*
G36*
X106468000Y-62165800D02*
G01*
X105466000Y-62165800D01*
X105466000Y-60363800D01*
X106468000Y-60363800D01*
X106468000Y-62165800D01*
X106468000Y-62165800D01*
G37*
G36*
X126137000Y-61842000D02*
G01*
X124035000Y-61842000D01*
X124035000Y-60840000D01*
X126137000Y-60840000D01*
X126137000Y-61842000D01*
X126137000Y-61842000D01*
G37*
G36*
X109137000Y-61842000D02*
G01*
X107035000Y-61842000D01*
X107035000Y-60840000D01*
X109137000Y-60840000D01*
X109137000Y-61842000D01*
X109137000Y-61842000D01*
G37*
G36*
X128459591Y-60613345D02*
G01*
X128493569Y-60623653D01*
X128524890Y-60640394D01*
X128552339Y-60662921D01*
X128574866Y-60690370D01*
X128591607Y-60721691D01*
X128601915Y-60755669D01*
X128606000Y-60797150D01*
X128606000Y-61473370D01*
X128601915Y-61514851D01*
X128591607Y-61548829D01*
X128574866Y-61580150D01*
X128552339Y-61607599D01*
X128524890Y-61630126D01*
X128493569Y-61646867D01*
X128459591Y-61657175D01*
X128418110Y-61661260D01*
X127816890Y-61661260D01*
X127775409Y-61657175D01*
X127741431Y-61646867D01*
X127710110Y-61630126D01*
X127682661Y-61607599D01*
X127660134Y-61580150D01*
X127643393Y-61548829D01*
X127633085Y-61514851D01*
X127629000Y-61473370D01*
X127629000Y-60797150D01*
X127633085Y-60755669D01*
X127643393Y-60721691D01*
X127660134Y-60690370D01*
X127682661Y-60662921D01*
X127710110Y-60640394D01*
X127741431Y-60623653D01*
X127775409Y-60613345D01*
X127816890Y-60609260D01*
X128418110Y-60609260D01*
X128459591Y-60613345D01*
X128459591Y-60613345D01*
G37*
G36*
X130034591Y-60613345D02*
G01*
X130068569Y-60623653D01*
X130099890Y-60640394D01*
X130127339Y-60662921D01*
X130149866Y-60690370D01*
X130166607Y-60721691D01*
X130176915Y-60755669D01*
X130181000Y-60797150D01*
X130181000Y-61473370D01*
X130176915Y-61514851D01*
X130166607Y-61548829D01*
X130149866Y-61580150D01*
X130127339Y-61607599D01*
X130099890Y-61630126D01*
X130068569Y-61646867D01*
X130034591Y-61657175D01*
X129993110Y-61661260D01*
X129391890Y-61661260D01*
X129350409Y-61657175D01*
X129316431Y-61646867D01*
X129285110Y-61630126D01*
X129257661Y-61607599D01*
X129235134Y-61580150D01*
X129218393Y-61548829D01*
X129208085Y-61514851D01*
X129204000Y-61473370D01*
X129204000Y-60797150D01*
X129208085Y-60755669D01*
X129218393Y-60721691D01*
X129235134Y-60690370D01*
X129257661Y-60662921D01*
X129285110Y-60640394D01*
X129316431Y-60623653D01*
X129350409Y-60613345D01*
X129391890Y-60609260D01*
X129993110Y-60609260D01*
X130034591Y-60613345D01*
X130034591Y-60613345D01*
G37*
G36*
X126137000Y-60572000D02*
G01*
X124035000Y-60572000D01*
X124035000Y-59570000D01*
X126137000Y-59570000D01*
X126137000Y-60572000D01*
X126137000Y-60572000D01*
G37*
G36*
X109137000Y-60572000D02*
G01*
X107035000Y-60572000D01*
X107035000Y-59570000D01*
X109137000Y-59570000D01*
X109137000Y-60572000D01*
X109137000Y-60572000D01*
G37*
G36*
X126137000Y-59302000D02*
G01*
X124035000Y-59302000D01*
X124035000Y-58300000D01*
X126137000Y-58300000D01*
X126137000Y-59302000D01*
X126137000Y-59302000D01*
G37*
G36*
X109137000Y-59302000D02*
G01*
X107035000Y-59302000D01*
X107035000Y-58300000D01*
X109137000Y-58300000D01*
X109137000Y-59302000D01*
X109137000Y-59302000D01*
G37*
G36*
X130039671Y-58101285D02*
G01*
X130073649Y-58111593D01*
X130104970Y-58128334D01*
X130132419Y-58150861D01*
X130154946Y-58178310D01*
X130171687Y-58209631D01*
X130181995Y-58243609D01*
X130186080Y-58285090D01*
X130186080Y-58961310D01*
X130181995Y-59002791D01*
X130171687Y-59036769D01*
X130154946Y-59068090D01*
X130132419Y-59095539D01*
X130104970Y-59118066D01*
X130073649Y-59134807D01*
X130039671Y-59145115D01*
X129998190Y-59149200D01*
X129396970Y-59149200D01*
X129355489Y-59145115D01*
X129321511Y-59134807D01*
X129290190Y-59118066D01*
X129262741Y-59095539D01*
X129240214Y-59068090D01*
X129223473Y-59036769D01*
X129213165Y-59002791D01*
X129209080Y-58961310D01*
X129209080Y-58285090D01*
X129213165Y-58243609D01*
X129223473Y-58209631D01*
X129240214Y-58178310D01*
X129262741Y-58150861D01*
X129290190Y-58128334D01*
X129321511Y-58111593D01*
X129355489Y-58101285D01*
X129396970Y-58097200D01*
X129998190Y-58097200D01*
X130039671Y-58101285D01*
X130039671Y-58101285D01*
G37*
G36*
X128464671Y-58101285D02*
G01*
X128498649Y-58111593D01*
X128529970Y-58128334D01*
X128557419Y-58150861D01*
X128579946Y-58178310D01*
X128596687Y-58209631D01*
X128606995Y-58243609D01*
X128611080Y-58285090D01*
X128611080Y-58961310D01*
X128606995Y-59002791D01*
X128596687Y-59036769D01*
X128579946Y-59068090D01*
X128557419Y-59095539D01*
X128529970Y-59118066D01*
X128498649Y-59134807D01*
X128464671Y-59145115D01*
X128423190Y-59149200D01*
X127821970Y-59149200D01*
X127780489Y-59145115D01*
X127746511Y-59134807D01*
X127715190Y-59118066D01*
X127687741Y-59095539D01*
X127665214Y-59068090D01*
X127648473Y-59036769D01*
X127638165Y-59002791D01*
X127634080Y-58961310D01*
X127634080Y-58285090D01*
X127638165Y-58243609D01*
X127648473Y-58209631D01*
X127665214Y-58178310D01*
X127687741Y-58150861D01*
X127715190Y-58128334D01*
X127746511Y-58111593D01*
X127780489Y-58101285D01*
X127821970Y-58097200D01*
X128423190Y-58097200D01*
X128464671Y-58101285D01*
X128464671Y-58101285D01*
G37*
G36*
X105292451Y-57618685D02*
G01*
X105326429Y-57628993D01*
X105357750Y-57645734D01*
X105385199Y-57668261D01*
X105407726Y-57695710D01*
X105424467Y-57727031D01*
X105434775Y-57761009D01*
X105438860Y-57802490D01*
X105438860Y-58478710D01*
X105434775Y-58520191D01*
X105424467Y-58554169D01*
X105407726Y-58585490D01*
X105385199Y-58612939D01*
X105357750Y-58635466D01*
X105326429Y-58652207D01*
X105292451Y-58662515D01*
X105250970Y-58666600D01*
X104649750Y-58666600D01*
X104608269Y-58662515D01*
X104574291Y-58652207D01*
X104542970Y-58635466D01*
X104515521Y-58612939D01*
X104492994Y-58585490D01*
X104476253Y-58554169D01*
X104465945Y-58520191D01*
X104461860Y-58478710D01*
X104461860Y-57802490D01*
X104465945Y-57761009D01*
X104476253Y-57727031D01*
X104492994Y-57695710D01*
X104515521Y-57668261D01*
X104542970Y-57645734D01*
X104574291Y-57628993D01*
X104608269Y-57618685D01*
X104649750Y-57614600D01*
X105250970Y-57614600D01*
X105292451Y-57618685D01*
X105292451Y-57618685D01*
G37*
G36*
X103717451Y-57618685D02*
G01*
X103751429Y-57628993D01*
X103782750Y-57645734D01*
X103810199Y-57668261D01*
X103832726Y-57695710D01*
X103849467Y-57727031D01*
X103859775Y-57761009D01*
X103863860Y-57802490D01*
X103863860Y-58478710D01*
X103859775Y-58520191D01*
X103849467Y-58554169D01*
X103832726Y-58585490D01*
X103810199Y-58612939D01*
X103782750Y-58635466D01*
X103751429Y-58652207D01*
X103717451Y-58662515D01*
X103675970Y-58666600D01*
X103074750Y-58666600D01*
X103033269Y-58662515D01*
X102999291Y-58652207D01*
X102967970Y-58635466D01*
X102940521Y-58612939D01*
X102917994Y-58585490D01*
X102901253Y-58554169D01*
X102890945Y-58520191D01*
X102886860Y-58478710D01*
X102886860Y-57802490D01*
X102890945Y-57761009D01*
X102901253Y-57727031D01*
X102917994Y-57695710D01*
X102940521Y-57668261D01*
X102967970Y-57645734D01*
X102999291Y-57628993D01*
X103033269Y-57618685D01*
X103074750Y-57614600D01*
X103675970Y-57614600D01*
X103717451Y-57618685D01*
X103717451Y-57618685D01*
G37*
G36*
X126137000Y-58032000D02*
G01*
X124035000Y-58032000D01*
X124035000Y-57030000D01*
X126137000Y-57030000D01*
X126137000Y-58032000D01*
X126137000Y-58032000D01*
G37*
G36*
X109137000Y-58032000D02*
G01*
X107035000Y-58032000D01*
X107035000Y-57030000D01*
X109137000Y-57030000D01*
X109137000Y-58032000D01*
X109137000Y-58032000D01*
G37*
G36*
X109137000Y-56762000D02*
G01*
X107035000Y-56762000D01*
X107035000Y-55760000D01*
X109137000Y-55760000D01*
X109137000Y-56762000D01*
X109137000Y-56762000D01*
G37*
G36*
X126137000Y-56762000D02*
G01*
X124035000Y-56762000D01*
X124035000Y-55760000D01*
X126137000Y-55760000D01*
X126137000Y-56762000D01*
X126137000Y-56762000D01*
G37*
G36*
X128420185Y-52707802D02*
G01*
X128570010Y-52737604D01*
X128852274Y-52854521D01*
X129106305Y-53024259D01*
X129322341Y-53240295D01*
X129492079Y-53494326D01*
X129598475Y-53751190D01*
X129608996Y-53776591D01*
X129663548Y-54050839D01*
X129668600Y-54076240D01*
X129668600Y-54381760D01*
X129608996Y-54681410D01*
X129492079Y-54963674D01*
X129322341Y-55217705D01*
X129106305Y-55433741D01*
X128852274Y-55603479D01*
X128570010Y-55720396D01*
X128420185Y-55750198D01*
X128270361Y-55780000D01*
X127964839Y-55780000D01*
X127815015Y-55750198D01*
X127665190Y-55720396D01*
X127382926Y-55603479D01*
X127128895Y-55433741D01*
X126912859Y-55217705D01*
X126743121Y-54963674D01*
X126626204Y-54681410D01*
X126566600Y-54381760D01*
X126566600Y-54076240D01*
X126571653Y-54050839D01*
X126626204Y-53776591D01*
X126636725Y-53751190D01*
X126743121Y-53494326D01*
X126912859Y-53240295D01*
X127128895Y-53024259D01*
X127382926Y-52854521D01*
X127665190Y-52737604D01*
X127815015Y-52707802D01*
X127964839Y-52678000D01*
X128270361Y-52678000D01*
X128420185Y-52707802D01*
X128420185Y-52707802D01*
G37*
G36*
X105436455Y-52678000D02*
G01*
X105608410Y-52712204D01*
X105890674Y-52829121D01*
X106144705Y-52998859D01*
X106360741Y-53214895D01*
X106530479Y-53468926D01*
X106647396Y-53751190D01*
X106677198Y-53901015D01*
X106707000Y-54050839D01*
X106707000Y-54356361D01*
X106677198Y-54506185D01*
X106647396Y-54656010D01*
X106530479Y-54938274D01*
X106360741Y-55192305D01*
X106144705Y-55408341D01*
X105890674Y-55578079D01*
X105608410Y-55694996D01*
X105480715Y-55720396D01*
X105308761Y-55754600D01*
X105003239Y-55754600D01*
X104831285Y-55720396D01*
X104703590Y-55694996D01*
X104421326Y-55578079D01*
X104167295Y-55408341D01*
X103951259Y-55192305D01*
X103781521Y-54938274D01*
X103664604Y-54656010D01*
X103634802Y-54506185D01*
X103605000Y-54356361D01*
X103605000Y-54050839D01*
X103634802Y-53901015D01*
X103664604Y-53751190D01*
X103781521Y-53468926D01*
X103951259Y-53214895D01*
X104167295Y-52998859D01*
X104421326Y-52829121D01*
X104703590Y-52712204D01*
X104875545Y-52678000D01*
X105003239Y-52652600D01*
X105308761Y-52652600D01*
X105436455Y-52678000D01*
X105436455Y-52678000D01*
G37*
M02*
