M48
; DRILL file {KiCad (5.1.4)-1} date 13-Dec-19 3:16:49 PM
; FORMAT={2:4/ absolute / inch / suppress leading zeros}
; #@! TF.CreationDate,2019-12-13T15:16:49+08:00
; #@! TF.GenerationSoftware,Kicad,Pcbnew,(5.1.4)-1
; #@! TF.FileFunction,Plated,1,2,PTH
FMAT,2
INCH,TZ
T1C0.0157
T2C0.0394
T3C0.1083
%
G90
G05
T1
X40330Y-38710
X40660Y-42720
X40700Y-26790
X40950Y-32716
X40980Y-33450
X40980Y-34390
X41580Y-30940
X42120Y-30500
X42169Y-32280
X42630Y-31080
X42790Y-32380
X42900Y-36670
X43046Y-41870
X43050Y-40830
X43195Y-39358
X43380Y-36390
X43650Y-29536
X44240Y-30070
X44500Y-35140
X45257Y-40762
X45280Y-37220
X45680Y-38150
X45886Y-39388
X46015Y-36800
X46140Y-32900
X46270Y-32000
X46640Y-32900
X47104Y-35621
X47190Y-30400
X47469Y-30821
X47528Y-41865
X48103Y-31773
X48330Y-27410
X48360Y-30660
X48430Y-39112
X48740Y-27630
X49246Y-28150
X49620Y-29510
X49655Y-31980
X49885Y-25650
X50155Y-36970
X50300Y-29810
X51350Y-43330
T2
X50520Y-30480
X50520Y-31480
X50520Y-32480
X50520Y-33480
X50520Y-34480
X50520Y-35480
X50692Y-27465
X50692Y-28465
X50520Y-37370
X50520Y-38370
X50520Y-39370
X50520Y-40370
X50520Y-41370
X50520Y-42370
T3
X50440Y-44160
X50440Y-21350
X41400Y-21340
X41400Y-44160
T0
M30
