G04 #@! TF.GenerationSoftware,KiCad,Pcbnew,(5.1.4)-1*
G04 #@! TF.CreationDate,2019-12-14T01:31:00+08:00*
G04 #@! TF.ProjectId,esp-break,6573702d-6272-4656-916b-2e6b69636164,rev?*
G04 #@! TF.SameCoordinates,Original*
G04 #@! TF.FileFunction,Other,User*
%FSLAX46Y46*%
G04 Gerber Fmt 4.6, Leading zero omitted, Abs format (unit mm)*
G04 Created by KiCad (PCBNEW (5.1.4)-1) date 2019-12-14 01:31:00*
%MOMM*%
%LPD*%
G04 APERTURE LIST*
%ADD10C,0.050000*%
G04 APERTURE END LIST*
D10*
X117087200Y-105619800D02*
X120047200Y-105619800D01*
X117087200Y-107079800D02*
X117087200Y-105619800D01*
X120047200Y-107079800D02*
X117087200Y-107079800D01*
X120047200Y-105619800D02*
X120047200Y-107079800D01*
X120047200Y-104438200D02*
X117087200Y-104438200D01*
X120047200Y-102978200D02*
X120047200Y-104438200D01*
X117087200Y-102978200D02*
X120047200Y-102978200D01*
X117087200Y-104438200D02*
X117087200Y-102978200D01*
X120047200Y-101847400D02*
X117087200Y-101847400D01*
X120047200Y-100387400D02*
X120047200Y-101847400D01*
X117087200Y-100387400D02*
X120047200Y-100387400D01*
X117087200Y-101847400D02*
X117087200Y-100387400D01*
X120044200Y-99256600D02*
X117084200Y-99256600D01*
X120044200Y-97796600D02*
X120044200Y-99256600D01*
X117084200Y-97796600D02*
X120044200Y-97796600D01*
X117084200Y-99256600D02*
X117084200Y-97796600D01*
X120054820Y-109843320D02*
X117094820Y-109843320D01*
X120054820Y-108383320D02*
X120054820Y-109843320D01*
X117094820Y-108383320D02*
X120054820Y-108383320D01*
X117094820Y-109843320D02*
X117094820Y-108383320D01*
X113417800Y-107181400D02*
X110457800Y-107181400D01*
X113417800Y-105721400D02*
X113417800Y-107181400D01*
X110457800Y-105721400D02*
X113417800Y-105721400D01*
X110457800Y-107181400D02*
X110457800Y-105721400D01*
X113389400Y-104489000D02*
X110429400Y-104489000D01*
X113389400Y-103029000D02*
X113389400Y-104489000D01*
X110429400Y-103029000D02*
X113389400Y-103029000D01*
X110429400Y-104489000D02*
X110429400Y-103029000D01*
X113414800Y-101949000D02*
X110454800Y-101949000D01*
X113414800Y-100489000D02*
X113414800Y-101949000D01*
X110454800Y-100489000D02*
X113414800Y-100489000D01*
X110454800Y-101949000D02*
X110454800Y-100489000D01*
X113414800Y-99358200D02*
X110454800Y-99358200D01*
X113414800Y-97898200D02*
X113414800Y-99358200D01*
X110454800Y-97898200D02*
X113414800Y-97898200D01*
X110454800Y-99358200D02*
X110454800Y-97898200D01*
X110457800Y-108370620D02*
X113417800Y-108370620D01*
X110457800Y-109830620D02*
X110457800Y-108370620D01*
X113417800Y-109830620D02*
X110457800Y-109830620D01*
X113417800Y-108370620D02*
X113417800Y-109830620D01*
X120222000Y-92703400D02*
X117262000Y-92703400D01*
X120222000Y-91243400D02*
X120222000Y-92703400D01*
X117262000Y-91243400D02*
X120222000Y-91243400D01*
X117262000Y-92703400D02*
X117262000Y-91243400D01*
X125063000Y-101263000D02*
X125063000Y-104223000D01*
X123603000Y-101263000D02*
X125063000Y-101263000D01*
X123603000Y-104223000D02*
X123603000Y-101263000D01*
X125063000Y-104223000D02*
X123603000Y-104223000D01*
X114217000Y-88500200D02*
X117177000Y-88500200D01*
X114217000Y-89960200D02*
X114217000Y-88500200D01*
X117177000Y-89960200D02*
X114217000Y-89960200D01*
X117177000Y-88500200D02*
X117177000Y-89960200D01*
X119093800Y-88500200D02*
X122053800Y-88500200D01*
X119093800Y-89960200D02*
X119093800Y-88500200D01*
X122053800Y-89960200D02*
X119093800Y-89960200D01*
X122053800Y-88500200D02*
X122053800Y-89960200D01*
X123603000Y-94190000D02*
X123603000Y-91230000D01*
X125063000Y-94190000D02*
X123603000Y-94190000D01*
X125063000Y-91230000D02*
X125063000Y-94190000D01*
X123603000Y-91230000D02*
X125063000Y-91230000D01*
X123603000Y-89211600D02*
X123603000Y-86251600D01*
X125063000Y-89211600D02*
X123603000Y-89211600D01*
X125063000Y-86251600D02*
X125063000Y-89211600D01*
X123603000Y-86251600D02*
X125063000Y-86251600D01*
X123603000Y-84284000D02*
X123603000Y-81324000D01*
X125063000Y-84284000D02*
X123603000Y-84284000D01*
X125063000Y-81324000D02*
X125063000Y-84284000D01*
X123603000Y-81324000D02*
X125063000Y-81324000D01*
X111766800Y-89934800D02*
X108806800Y-89934800D01*
X111766800Y-88474800D02*
X111766800Y-89934800D01*
X108806800Y-88474800D02*
X111766800Y-88474800D01*
X108806800Y-89934800D02*
X108806800Y-88474800D01*
X111766800Y-86937600D02*
X108806800Y-86937600D01*
X111766800Y-85477600D02*
X111766800Y-86937600D01*
X108806800Y-85477600D02*
X111766800Y-85477600D01*
X108806800Y-86937600D02*
X108806800Y-85477600D01*
X111738660Y-83001300D02*
X111738660Y-80041300D01*
X113198660Y-83001300D02*
X111738660Y-83001300D01*
X113198660Y-80041300D02*
X113198660Y-83001300D01*
X111738660Y-80041300D02*
X113198660Y-80041300D01*
X102663000Y-69221600D02*
X105623000Y-69221600D01*
X102663000Y-70681600D02*
X102663000Y-69221600D01*
X105623000Y-70681600D02*
X102663000Y-70681600D01*
X105623000Y-69221600D02*
X105623000Y-70681600D01*
X127425000Y-60405260D02*
X130385000Y-60405260D01*
X127425000Y-61865260D02*
X127425000Y-60405260D01*
X130385000Y-61865260D02*
X127425000Y-61865260D01*
X130385000Y-60405260D02*
X130385000Y-61865260D01*
X125068080Y-105596240D02*
X125068080Y-108556240D01*
X123608080Y-105596240D02*
X125068080Y-105596240D01*
X123608080Y-108556240D02*
X123608080Y-105596240D01*
X125068080Y-108556240D02*
X123608080Y-108556240D01*
X123310400Y-96487800D02*
X123310400Y-99447800D01*
X121850400Y-96487800D02*
X123310400Y-96487800D01*
X121850400Y-99447800D02*
X121850400Y-96487800D01*
X123310400Y-99447800D02*
X121850400Y-99447800D01*
X123608080Y-99440180D02*
X123608080Y-96480180D01*
X125068080Y-99440180D02*
X123608080Y-99440180D01*
X125068080Y-96480180D02*
X125068080Y-99440180D01*
X123608080Y-96480180D02*
X125068080Y-96480180D01*
X122497400Y-76028800D02*
X125457400Y-76028800D01*
X122497400Y-77488800D02*
X122497400Y-76028800D01*
X125457400Y-77488800D02*
X122497400Y-77488800D01*
X125457400Y-76028800D02*
X125457400Y-77488800D01*
X122522800Y-78264000D02*
X125482800Y-78264000D01*
X122522800Y-79724000D02*
X122522800Y-78264000D01*
X125482800Y-79724000D02*
X122522800Y-79724000D01*
X125482800Y-78264000D02*
X125482800Y-79724000D01*
X105617000Y-67811400D02*
X102657000Y-67811400D01*
X105617000Y-66351400D02*
X105617000Y-67811400D01*
X102657000Y-66351400D02*
X105617000Y-66351400D01*
X102657000Y-67811400D02*
X102657000Y-66351400D01*
X105617000Y-65017400D02*
X102657000Y-65017400D01*
X105617000Y-63557400D02*
X105617000Y-65017400D01*
X102657000Y-63557400D02*
X105617000Y-63557400D01*
X102657000Y-65017400D02*
X102657000Y-63557400D01*
X102682860Y-57410600D02*
X105642860Y-57410600D01*
X102682860Y-58870600D02*
X102682860Y-57410600D01*
X105642860Y-58870600D02*
X102682860Y-58870600D01*
X105642860Y-57410600D02*
X105642860Y-58870600D01*
X130390080Y-59353200D02*
X127430080Y-59353200D01*
X130390080Y-57893200D02*
X130390080Y-59353200D01*
X127430080Y-57893200D02*
X130390080Y-57893200D01*
X127430080Y-59353200D02*
X127430080Y-57893200D01*
X106667000Y-59614800D02*
X101867000Y-59614800D01*
X101867000Y-59614800D02*
X101867000Y-62914800D01*
X101867000Y-62914800D02*
X106667000Y-62914800D01*
X106667000Y-62914800D02*
X106667000Y-59614800D01*
X122336000Y-72821800D02*
G75*
G03X122336000Y-72821800I-5750000J0D01*
G01*
X106836000Y-75016000D02*
X106836000Y-54796000D01*
X106836000Y-75016000D02*
X126336000Y-75016000D01*
X126336000Y-54796000D02*
X126336000Y-75016000D01*
X102336000Y-43516000D02*
X130836000Y-43516000D01*
X102336000Y-43516000D02*
X102336000Y-54796000D01*
X130836000Y-43516000D02*
X130836000Y-54796000D01*
X102336000Y-54796000D02*
X106836000Y-54796000D01*
X126336000Y-54796000D02*
X130836000Y-54796000D01*
X114215600Y-87181000D02*
X114215600Y-78681000D01*
X122215600Y-87181000D02*
X114215600Y-87181000D01*
X122215600Y-78681000D02*
X122215600Y-87181000D01*
X114215600Y-78681000D02*
X122215600Y-78681000D01*
X126520800Y-75619200D02*
X126520800Y-91919200D01*
X126520800Y-91919200D02*
X130120800Y-91919200D01*
X130120800Y-91919200D02*
X130120800Y-75619200D01*
X130120800Y-75619200D02*
X126520800Y-75619200D01*
X130120800Y-93119800D02*
X126520800Y-93119800D01*
X130120800Y-109419800D02*
X130120800Y-93119800D01*
X126520800Y-109419800D02*
X130120800Y-109419800D01*
X126520800Y-93119800D02*
X126520800Y-109419800D01*
X126957680Y-67961100D02*
X126957680Y-74111100D01*
X126957680Y-74111100D02*
X130557680Y-74111100D01*
X130557680Y-74111100D02*
X130557680Y-67961100D01*
X130557680Y-67961100D02*
X126957680Y-67961100D01*
X113713200Y-97137200D02*
X110213200Y-97137200D01*
X113713200Y-93737200D02*
X113713200Y-97137200D01*
X110213200Y-93737200D02*
X113713200Y-93737200D01*
X110213200Y-97137200D02*
X110213200Y-93737200D01*
X116944200Y-97077000D02*
X116944200Y-93677000D01*
X116944200Y-93677000D02*
X120444200Y-93677000D01*
X120444200Y-93677000D02*
X120444200Y-97077000D01*
X120444200Y-97077000D02*
X116944200Y-97077000D01*
X111562200Y-77197400D02*
X102762200Y-77197400D01*
X111562200Y-84397400D02*
X111562200Y-77197400D01*
X102762200Y-84397400D02*
X111562200Y-84397400D01*
X102762200Y-77197400D02*
X102762200Y-84397400D01*
X104218800Y-105602000D02*
X104218800Y-102202000D01*
X104218800Y-102202000D02*
X107718800Y-102202000D01*
X107718800Y-102202000D02*
X107718800Y-105602000D01*
X107718800Y-105602000D02*
X104218800Y-105602000D01*
X100442400Y-96775000D02*
X100442400Y-87375000D01*
X106942400Y-96775000D02*
X100442400Y-96775000D01*
X106942400Y-87375000D02*
X106942400Y-96775000D01*
X100442400Y-87375000D02*
X106942400Y-87375000D01*
M02*
