M48
; DRILL file {KiCad (5.1.9)-1} date 01/22/21 20:27:10
; FORMAT={-:-/ absolute / inch / decimal}
; #@! TF.CreationDate,2021-01-22T20:27:10+08:00
; #@! TF.GenerationSoftware,Kicad,Pcbnew,(5.1.9)-1
; #@! TF.FileFunction,Plated,1,2,PTH
FMAT,2
INCH
T1C0.0157
T2C0.0236
T3C0.0335
T4C0.0394
%
G90
G05
T1
X4.0748Y-2.3228
X4.1299Y-3.7933
X4.155Y-2.4232
X4.1555Y-2.8878
X4.1719Y-2.7559
X4.1882Y-3.1035
X4.2402Y-3.5305
X4.2559Y-2.2992
X4.3563Y-3.9606
X4.36Y-2.28
X4.36Y-2.75
X4.3646Y-2.9874
X4.3784Y-3.4055
X4.4Y-2.28
X4.4Y-2.75
X4.44Y-2.28
X4.44Y-2.75
X4.4665Y-3.065
X4.4705Y-2.5138
X4.4705Y-2.5531
X4.4705Y-2.5925
X4.4705Y-2.6319
X4.4705Y-2.6732
X4.48Y-2.28
X4.48Y-2.75
X4.5098Y-2.5138
X4.5098Y-2.5531
X4.5098Y-2.5925
X4.5098Y-2.6319
X4.5098Y-2.6732
X4.52Y-2.28
X4.52Y-2.75
X4.5374Y-3.4055
X4.5416Y-4.1371
X4.5512Y-2.5138
X4.5512Y-2.5531
X4.5512Y-2.5925
X4.5512Y-2.6319
X4.5512Y-2.6732
X4.56Y-2.28
X4.56Y-2.75
X4.5906Y-2.5138
X4.5906Y-2.5531
X4.5906Y-2.5925
X4.5906Y-2.6319
X4.5906Y-2.6732
X4.5916Y-4.1371
X4.6Y-2.28
X4.6Y-2.75
X4.6184Y-3.0857
X4.6299Y-2.5138
X4.6299Y-2.5531
X4.6299Y-2.5925
X4.6299Y-2.6319
X4.6299Y-2.6732
X4.64Y-2.28
X4.64Y-2.75
X4.6535Y-3.1181
X4.68Y-2.28
X4.68Y-2.75
X4.71Y-4.24
X4.72Y-2.28
X4.72Y-2.75
X4.76Y-2.28
X4.76Y-2.75
X4.8Y-2.28
X4.8Y-2.75
X4.84Y-3.35
X4.84Y-3.39
X4.84Y-3.43
X4.84Y-3.47
X4.84Y-3.51
X4.84Y-3.84
X4.84Y-3.88
X4.84Y-3.92
X4.84Y-3.96
X4.84Y-4.0
X4.84Y-4.16
X4.84Y-4.2
X4.84Y-4.24
X4.8693Y-3.5742
X4.88Y-4.16
X4.88Y-4.2
X4.88Y-4.24
X4.8858Y-3.2362
X4.92Y-4.16
X4.92Y-4.2
X4.92Y-4.24
X4.9227Y-3.1761
X4.9242Y-2.798
X4.9242Y-2.848
X4.9242Y-2.948
X4.9331Y-3.1122
X4.96Y-3.41
X4.9614Y-3.4508
X4.9722Y-3.2278
X5.0886Y-2.7087
T3
X4.1636Y-3.5266
X4.1636Y-3.7234
T4
X5.052Y-3.048
X5.052Y-3.148
X5.052Y-3.248
X5.052Y-3.348
X5.052Y-3.448
X5.052Y-3.548
X5.052Y-3.737
X5.052Y-3.837
X5.052Y-3.937
X5.052Y-4.037
X5.052Y-4.137
X5.052Y-4.237
T2
G00X4.0435Y-3.4872
M15
G01X4.0711Y-3.4872
M16
G05
G00X4.0711Y-3.7628
M15
G01X4.0435Y-3.7628
M16
G05
T0
M30
