G04 #@! TF.GenerationSoftware,KiCad,Pcbnew,(5.1.9)-1*
G04 #@! TF.CreationDate,2021-01-22T20:27:00+08:00*
G04 #@! TF.ProjectId,esp-break,6573702d-6272-4656-916b-2e6b69636164,rev?*
G04 #@! TF.SameCoordinates,Original*
G04 #@! TF.FileFunction,Copper,L1,Top*
G04 #@! TF.FilePolarity,Positive*
%FSLAX46Y46*%
G04 Gerber Fmt 4.6, Leading zero omitted, Abs format (unit mm)*
G04 Created by KiCad (PCBNEW (5.1.9)-1) date 2021-01-22 20:27:00*
%MOMM*%
%LPD*%
G01*
G04 APERTURE LIST*
G04 #@! TA.AperFunction,WasherPad*
%ADD10C,3.000000*%
G04 #@! TD*
G04 #@! TA.AperFunction,SMDPad,CuDef*
%ADD11R,0.900000X1.700000*%
G04 #@! TD*
G04 #@! TA.AperFunction,SMDPad,CuDef*
%ADD12R,5.000000X5.000000*%
G04 #@! TD*
G04 #@! TA.AperFunction,SMDPad,CuDef*
%ADD13R,2.000000X0.900000*%
G04 #@! TD*
G04 #@! TA.AperFunction,SMDPad,CuDef*
%ADD14R,0.900000X2.000000*%
G04 #@! TD*
G04 #@! TA.AperFunction,ConnectorPad*
%ADD15C,0.787400*%
G04 #@! TD*
G04 #@! TA.AperFunction,ComponentPad*
%ADD16R,1.700000X1.700000*%
G04 #@! TD*
G04 #@! TA.AperFunction,ComponentPad*
%ADD17O,1.700000X1.700000*%
G04 #@! TD*
G04 #@! TA.AperFunction,SMDPad,CuDef*
%ADD18R,0.800000X0.900000*%
G04 #@! TD*
G04 #@! TA.AperFunction,SMDPad,CuDef*
%ADD19R,1.900000X1.500000*%
G04 #@! TD*
G04 #@! TA.AperFunction,ComponentPad*
%ADD20C,1.450000*%
G04 #@! TD*
G04 #@! TA.AperFunction,SMDPad,CuDef*
%ADD21R,1.350000X0.400000*%
G04 #@! TD*
G04 #@! TA.AperFunction,ComponentPad*
%ADD22O,1.900000X1.200000*%
G04 #@! TD*
G04 #@! TA.AperFunction,SMDPad,CuDef*
%ADD23R,1.900000X1.200000*%
G04 #@! TD*
G04 #@! TA.AperFunction,SMDPad,CuDef*
%ADD24R,2.000000X3.800000*%
G04 #@! TD*
G04 #@! TA.AperFunction,SMDPad,CuDef*
%ADD25R,2.000000X1.500000*%
G04 #@! TD*
G04 #@! TA.AperFunction,ViaPad*
%ADD26C,0.800000*%
G04 #@! TD*
G04 #@! TA.AperFunction,Conductor*
%ADD27C,0.500000*%
G04 #@! TD*
G04 #@! TA.AperFunction,Conductor*
%ADD28C,0.250000*%
G04 #@! TD*
G04 #@! TA.AperFunction,Conductor*
%ADD29C,1.000000*%
G04 #@! TD*
G04 #@! TA.AperFunction,Conductor*
%ADD30C,2.000000*%
G04 #@! TD*
G04 #@! TA.AperFunction,Conductor*
%ADD31C,0.254000*%
G04 #@! TD*
G04 #@! TA.AperFunction,Conductor*
%ADD32C,0.100000*%
G04 #@! TD*
G04 APERTURE END LIST*
D10*
X128117600Y-112166400D03*
X105156000Y-112166400D03*
X128117600Y-54229000D03*
X105156000Y-54203600D03*
D11*
X105967000Y-70000000D03*
X102567000Y-70000000D03*
D12*
X115575000Y-65870000D03*
D13*
X108075000Y-58370000D03*
X108075000Y-59640000D03*
X108075000Y-60910000D03*
X108075000Y-62180000D03*
X108075000Y-63450000D03*
X108075000Y-64720000D03*
X108075000Y-65990000D03*
X108075000Y-67260000D03*
X108075000Y-68530000D03*
X108075000Y-69800000D03*
X108075000Y-71070000D03*
X108075000Y-72340000D03*
X108075000Y-73610000D03*
X108075000Y-74880000D03*
D14*
X110860000Y-75880000D03*
X112130000Y-75880000D03*
X113400000Y-75880000D03*
X114670000Y-75880000D03*
X115940000Y-75880000D03*
X117210000Y-75880000D03*
X118480000Y-75880000D03*
X119750000Y-75880000D03*
X121020000Y-75880000D03*
X122290000Y-75880000D03*
D13*
X125075000Y-74880000D03*
X125075000Y-73610000D03*
X125075000Y-72340000D03*
X125075000Y-71070000D03*
X125075000Y-69800000D03*
X125075000Y-68530000D03*
X125075000Y-67260000D03*
X125075000Y-65990000D03*
X125075000Y-64720000D03*
X125075000Y-63450000D03*
X125075000Y-62180000D03*
X125075000Y-60910000D03*
X125075000Y-59640000D03*
X125075000Y-58370000D03*
D15*
X115356640Y-105082340D03*
X115356640Y-103812340D03*
X116626640Y-105082340D03*
X116626640Y-103812340D03*
X117896640Y-105082340D03*
X117896640Y-103812340D03*
D16*
X128320800Y-77419200D03*
D17*
X128320800Y-79959200D03*
X128320800Y-82499200D03*
X128320800Y-85039200D03*
X128320800Y-87579200D03*
X128320800Y-90119200D03*
X128320800Y-107619800D03*
X128320800Y-105079800D03*
X128320800Y-102539800D03*
X128320800Y-99999800D03*
X128320800Y-97459800D03*
D16*
X128320800Y-94919800D03*
D18*
X115138660Y-79495980D03*
X116088660Y-81495980D03*
X114188660Y-81495980D03*
X118276300Y-81472740D03*
X120176300Y-81472740D03*
X119226300Y-79472740D03*
D19*
X103054900Y-93075000D03*
D20*
X105754900Y-89575000D03*
D21*
X105754900Y-91425000D03*
X105754900Y-90775000D03*
X105754900Y-93375000D03*
X105754900Y-92725000D03*
X105754900Y-92075000D03*
D20*
X105754900Y-94575000D03*
D19*
X103054900Y-91075000D03*
D22*
X103054900Y-88575000D03*
X103054900Y-95575000D03*
D23*
X103054900Y-94975000D03*
X103054900Y-89175000D03*
D24*
X110360000Y-81100000D03*
D25*
X104060000Y-81100000D03*
X104060000Y-83400000D03*
X104060000Y-78800000D03*
G04 #@! TA.AperFunction,SMDPad,CuDef*
G36*
G01*
X110675000Y-89925000D02*
X110675000Y-88975000D01*
G75*
G02*
X110925000Y-88725000I250000J0D01*
G01*
X111600000Y-88725000D01*
G75*
G02*
X111850000Y-88975000I0J-250000D01*
G01*
X111850000Y-89925000D01*
G75*
G02*
X111600000Y-90175000I-250000J0D01*
G01*
X110925000Y-90175000D01*
G75*
G02*
X110675000Y-89925000I0J250000D01*
G01*
G37*
G04 #@! TD.AperFunction*
G04 #@! TA.AperFunction,SMDPad,CuDef*
G36*
G01*
X112750000Y-89925000D02*
X112750000Y-88975000D01*
G75*
G02*
X113000000Y-88725000I250000J0D01*
G01*
X113675000Y-88725000D01*
G75*
G02*
X113925000Y-88975000I0J-250000D01*
G01*
X113925000Y-89925000D01*
G75*
G02*
X113675000Y-90175000I-250000J0D01*
G01*
X113000000Y-90175000D01*
G75*
G02*
X112750000Y-89925000I0J250000D01*
G01*
G37*
G04 #@! TD.AperFunction*
G04 #@! TA.AperFunction,SMDPad,CuDef*
G36*
G01*
X112700000Y-86975000D02*
X112700000Y-86025000D01*
G75*
G02*
X112950000Y-85775000I250000J0D01*
G01*
X113625000Y-85775000D01*
G75*
G02*
X113875000Y-86025000I0J-250000D01*
G01*
X113875000Y-86975000D01*
G75*
G02*
X113625000Y-87225000I-250000J0D01*
G01*
X112950000Y-87225000D01*
G75*
G02*
X112700000Y-86975000I0J250000D01*
G01*
G37*
G04 #@! TD.AperFunction*
G04 #@! TA.AperFunction,SMDPad,CuDef*
G36*
G01*
X110625000Y-86975000D02*
X110625000Y-86025000D01*
G75*
G02*
X110875000Y-85775000I250000J0D01*
G01*
X111550000Y-85775000D01*
G75*
G02*
X111800000Y-86025000I0J-250000D01*
G01*
X111800000Y-86975000D01*
G75*
G02*
X111550000Y-87225000I-250000J0D01*
G01*
X110875000Y-87225000D01*
G75*
G02*
X110625000Y-86975000I0J250000D01*
G01*
G37*
G04 #@! TD.AperFunction*
G04 #@! TA.AperFunction,SMDPad,CuDef*
G36*
G01*
X106125000Y-63625000D02*
X106125000Y-64575000D01*
G75*
G02*
X105875000Y-64825000I-250000J0D01*
G01*
X105200000Y-64825000D01*
G75*
G02*
X104950000Y-64575000I0J250000D01*
G01*
X104950000Y-63625000D01*
G75*
G02*
X105200000Y-63375000I250000J0D01*
G01*
X105875000Y-63375000D01*
G75*
G02*
X106125000Y-63625000I0J-250000D01*
G01*
G37*
G04 #@! TD.AperFunction*
G04 #@! TA.AperFunction,SMDPad,CuDef*
G36*
G01*
X104050000Y-63625000D02*
X104050000Y-64575000D01*
G75*
G02*
X103800000Y-64825000I-250000J0D01*
G01*
X103125000Y-64825000D01*
G75*
G02*
X102875000Y-64575000I0J250000D01*
G01*
X102875000Y-63625000D01*
G75*
G02*
X103125000Y-63375000I250000J0D01*
G01*
X103800000Y-63375000D01*
G75*
G02*
X104050000Y-63625000I0J-250000D01*
G01*
G37*
G04 #@! TD.AperFunction*
G04 #@! TA.AperFunction,SMDPad,CuDef*
G36*
G01*
X104050000Y-66225000D02*
X104050000Y-67175000D01*
G75*
G02*
X103800000Y-67425000I-250000J0D01*
G01*
X103125000Y-67425000D01*
G75*
G02*
X102875000Y-67175000I0J250000D01*
G01*
X102875000Y-66225000D01*
G75*
G02*
X103125000Y-65975000I250000J0D01*
G01*
X103800000Y-65975000D01*
G75*
G02*
X104050000Y-66225000I0J-250000D01*
G01*
G37*
G04 #@! TD.AperFunction*
G04 #@! TA.AperFunction,SMDPad,CuDef*
G36*
G01*
X106125000Y-66225000D02*
X106125000Y-67175000D01*
G75*
G02*
X105875000Y-67425000I-250000J0D01*
G01*
X105200000Y-67425000D01*
G75*
G02*
X104950000Y-67175000I0J250000D01*
G01*
X104950000Y-66225000D01*
G75*
G02*
X105200000Y-65975000I250000J0D01*
G01*
X105875000Y-65975000D01*
G75*
G02*
X106125000Y-66225000I0J-250000D01*
G01*
G37*
G04 #@! TD.AperFunction*
G04 #@! TA.AperFunction,SMDPad,CuDef*
G36*
G01*
X104950000Y-62025000D02*
X104950000Y-61075000D01*
G75*
G02*
X105200000Y-60825000I250000J0D01*
G01*
X105875000Y-60825000D01*
G75*
G02*
X106125000Y-61075000I0J-250000D01*
G01*
X106125000Y-62025000D01*
G75*
G02*
X105875000Y-62275000I-250000J0D01*
G01*
X105200000Y-62275000D01*
G75*
G02*
X104950000Y-62025000I0J250000D01*
G01*
G37*
G04 #@! TD.AperFunction*
G04 #@! TA.AperFunction,SMDPad,CuDef*
G36*
G01*
X102875000Y-62025000D02*
X102875000Y-61075000D01*
G75*
G02*
X103125000Y-60825000I250000J0D01*
G01*
X103800000Y-60825000D01*
G75*
G02*
X104050000Y-61075000I0J-250000D01*
G01*
X104050000Y-62025000D01*
G75*
G02*
X103800000Y-62275000I-250000J0D01*
G01*
X103125000Y-62275000D01*
G75*
G02*
X102875000Y-62025000I0J250000D01*
G01*
G37*
G04 #@! TD.AperFunction*
G04 #@! TA.AperFunction,SMDPad,CuDef*
G36*
G01*
X102875000Y-73775000D02*
X102875000Y-72825000D01*
G75*
G02*
X103125000Y-72575000I250000J0D01*
G01*
X103800000Y-72575000D01*
G75*
G02*
X104050000Y-72825000I0J-250000D01*
G01*
X104050000Y-73775000D01*
G75*
G02*
X103800000Y-74025000I-250000J0D01*
G01*
X103125000Y-74025000D01*
G75*
G02*
X102875000Y-73775000I0J250000D01*
G01*
G37*
G04 #@! TD.AperFunction*
G04 #@! TA.AperFunction,SMDPad,CuDef*
G36*
G01*
X104950000Y-73775000D02*
X104950000Y-72825000D01*
G75*
G02*
X105200000Y-72575000I250000J0D01*
G01*
X105875000Y-72575000D01*
G75*
G02*
X106125000Y-72825000I0J-250000D01*
G01*
X106125000Y-73775000D01*
G75*
G02*
X105875000Y-74025000I-250000J0D01*
G01*
X105200000Y-74025000D01*
G75*
G02*
X104950000Y-73775000I0J250000D01*
G01*
G37*
G04 #@! TD.AperFunction*
G04 #@! TA.AperFunction,SMDPad,CuDef*
G36*
G01*
X102900000Y-59450001D02*
X102900000Y-58549999D01*
G75*
G02*
X103149999Y-58300000I249999J0D01*
G01*
X103850001Y-58300000D01*
G75*
G02*
X104100000Y-58549999I0J-249999D01*
G01*
X104100000Y-59450001D01*
G75*
G02*
X103850001Y-59700000I-249999J0D01*
G01*
X103149999Y-59700000D01*
G75*
G02*
X102900000Y-59450001I0J249999D01*
G01*
G37*
G04 #@! TD.AperFunction*
G04 #@! TA.AperFunction,SMDPad,CuDef*
G36*
G01*
X104900000Y-59450001D02*
X104900000Y-58549999D01*
G75*
G02*
X105149999Y-58300000I249999J0D01*
G01*
X105850001Y-58300000D01*
G75*
G02*
X106100000Y-58549999I0J-249999D01*
G01*
X106100000Y-59450001D01*
G75*
G02*
X105850001Y-59700000I-249999J0D01*
G01*
X105149999Y-59700000D01*
G75*
G02*
X104900000Y-59450001I0J249999D01*
G01*
G37*
G04 #@! TD.AperFunction*
G04 #@! TA.AperFunction,SMDPad,CuDef*
G36*
G01*
X130400000Y-61299999D02*
X130400000Y-62200001D01*
G75*
G02*
X130150001Y-62450000I-249999J0D01*
G01*
X129449999Y-62450000D01*
G75*
G02*
X129200000Y-62200001I0J249999D01*
G01*
X129200000Y-61299999D01*
G75*
G02*
X129449999Y-61050000I249999J0D01*
G01*
X130150001Y-61050000D01*
G75*
G02*
X130400000Y-61299999I0J-249999D01*
G01*
G37*
G04 #@! TD.AperFunction*
G04 #@! TA.AperFunction,SMDPad,CuDef*
G36*
G01*
X128400000Y-61299999D02*
X128400000Y-62200001D01*
G75*
G02*
X128150001Y-62450000I-249999J0D01*
G01*
X127449999Y-62450000D01*
G75*
G02*
X127200000Y-62200001I0J249999D01*
G01*
X127200000Y-61299999D01*
G75*
G02*
X127449999Y-61050000I249999J0D01*
G01*
X128150001Y-61050000D01*
G75*
G02*
X128400000Y-61299999I0J-249999D01*
G01*
G37*
G04 #@! TD.AperFunction*
G04 #@! TA.AperFunction,SMDPad,CuDef*
G36*
G01*
X116650000Y-86950001D02*
X116650000Y-86049999D01*
G75*
G02*
X116899999Y-85800000I249999J0D01*
G01*
X117600001Y-85800000D01*
G75*
G02*
X117850000Y-86049999I0J-249999D01*
G01*
X117850000Y-86950001D01*
G75*
G02*
X117600001Y-87200000I-249999J0D01*
G01*
X116899999Y-87200000D01*
G75*
G02*
X116650000Y-86950001I0J249999D01*
G01*
G37*
G04 #@! TD.AperFunction*
G04 #@! TA.AperFunction,SMDPad,CuDef*
G36*
G01*
X114650000Y-86950001D02*
X114650000Y-86049999D01*
G75*
G02*
X114899999Y-85800000I249999J0D01*
G01*
X115600001Y-85800000D01*
G75*
G02*
X115850000Y-86049999I0J-249999D01*
G01*
X115850000Y-86950001D01*
G75*
G02*
X115600001Y-87200000I-249999J0D01*
G01*
X114899999Y-87200000D01*
G75*
G02*
X114650000Y-86950001I0J249999D01*
G01*
G37*
G04 #@! TD.AperFunction*
G04 #@! TA.AperFunction,SMDPad,CuDef*
G36*
G01*
X115900000Y-88999999D02*
X115900000Y-89900001D01*
G75*
G02*
X115650001Y-90150000I-249999J0D01*
G01*
X114949999Y-90150000D01*
G75*
G02*
X114700000Y-89900001I0J249999D01*
G01*
X114700000Y-88999999D01*
G75*
G02*
X114949999Y-88750000I249999J0D01*
G01*
X115650001Y-88750000D01*
G75*
G02*
X115900000Y-88999999I0J-249999D01*
G01*
G37*
G04 #@! TD.AperFunction*
G04 #@! TA.AperFunction,SMDPad,CuDef*
G36*
G01*
X117900000Y-88999999D02*
X117900000Y-89900001D01*
G75*
G02*
X117650001Y-90150000I-249999J0D01*
G01*
X116949999Y-90150000D01*
G75*
G02*
X116700000Y-89900001I0J249999D01*
G01*
X116700000Y-88999999D01*
G75*
G02*
X116949999Y-88750000I249999J0D01*
G01*
X117650001Y-88750000D01*
G75*
G02*
X117900000Y-88999999I0J-249999D01*
G01*
G37*
G04 #@! TD.AperFunction*
G04 #@! TA.AperFunction,SMDPad,CuDef*
G36*
G01*
X120650000Y-86950001D02*
X120650000Y-86049999D01*
G75*
G02*
X120899999Y-85800000I249999J0D01*
G01*
X121600001Y-85800000D01*
G75*
G02*
X121850000Y-86049999I0J-249999D01*
G01*
X121850000Y-86950001D01*
G75*
G02*
X121600001Y-87200000I-249999J0D01*
G01*
X120899999Y-87200000D01*
G75*
G02*
X120650000Y-86950001I0J249999D01*
G01*
G37*
G04 #@! TD.AperFunction*
G04 #@! TA.AperFunction,SMDPad,CuDef*
G36*
G01*
X118650000Y-86950001D02*
X118650000Y-86049999D01*
G75*
G02*
X118899999Y-85800000I249999J0D01*
G01*
X119600001Y-85800000D01*
G75*
G02*
X119850000Y-86049999I0J-249999D01*
G01*
X119850000Y-86950001D01*
G75*
G02*
X119600001Y-87200000I-249999J0D01*
G01*
X118899999Y-87200000D01*
G75*
G02*
X118650000Y-86950001I0J249999D01*
G01*
G37*
G04 #@! TD.AperFunction*
G04 #@! TA.AperFunction,SMDPad,CuDef*
G36*
G01*
X118700000Y-89900001D02*
X118700000Y-88999999D01*
G75*
G02*
X118949999Y-88750000I249999J0D01*
G01*
X119650001Y-88750000D01*
G75*
G02*
X119900000Y-88999999I0J-249999D01*
G01*
X119900000Y-89900001D01*
G75*
G02*
X119650001Y-90150000I-249999J0D01*
G01*
X118949999Y-90150000D01*
G75*
G02*
X118700000Y-89900001I0J249999D01*
G01*
G37*
G04 #@! TD.AperFunction*
G04 #@! TA.AperFunction,SMDPad,CuDef*
G36*
G01*
X120700000Y-89900001D02*
X120700000Y-88999999D01*
G75*
G02*
X120949999Y-88750000I249999J0D01*
G01*
X121650001Y-88750000D01*
G75*
G02*
X121900000Y-88999999I0J-249999D01*
G01*
X121900000Y-89900001D01*
G75*
G02*
X121650001Y-90150000I-249999J0D01*
G01*
X120949999Y-90150000D01*
G75*
G02*
X120700000Y-89900001I0J249999D01*
G01*
G37*
G04 #@! TD.AperFunction*
G04 #@! TA.AperFunction,SMDPad,CuDef*
G36*
G01*
X129250000Y-59600001D02*
X129250000Y-58699999D01*
G75*
G02*
X129499999Y-58450000I249999J0D01*
G01*
X130150001Y-58450000D01*
G75*
G02*
X130400000Y-58699999I0J-249999D01*
G01*
X130400000Y-59600001D01*
G75*
G02*
X130150001Y-59850000I-249999J0D01*
G01*
X129499999Y-59850000D01*
G75*
G02*
X129250000Y-59600001I0J249999D01*
G01*
G37*
G04 #@! TD.AperFunction*
G04 #@! TA.AperFunction,SMDPad,CuDef*
G36*
G01*
X127200000Y-59600001D02*
X127200000Y-58699999D01*
G75*
G02*
X127449999Y-58450000I249999J0D01*
G01*
X128100001Y-58450000D01*
G75*
G02*
X128350000Y-58699999I0J-249999D01*
G01*
X128350000Y-59600001D01*
G75*
G02*
X128100001Y-59850000I-249999J0D01*
G01*
X127449999Y-59850000D01*
G75*
G02*
X127200000Y-59600001I0J249999D01*
G01*
G37*
G04 #@! TD.AperFunction*
D26*
X104900000Y-96350000D03*
X105537474Y-61550000D03*
X103500000Y-59000000D03*
X105550000Y-73350000D03*
X105967000Y-70000000D03*
X117307658Y-78377648D03*
X107700000Y-89675000D03*
X111212500Y-86500000D03*
X125075000Y-74880000D03*
X119634000Y-107696000D03*
X114550000Y-67900000D03*
X117600000Y-67900000D03*
X116600000Y-67900000D03*
X115600000Y-67900000D03*
X113550000Y-67900000D03*
X114550000Y-66850000D03*
X117600000Y-66850000D03*
X116600000Y-66850000D03*
X115600000Y-66850000D03*
X113550000Y-66850000D03*
X114550000Y-65850000D03*
X117600000Y-65850000D03*
X116600000Y-65850000D03*
X115600000Y-65850000D03*
X113550000Y-65850000D03*
X114550000Y-64850000D03*
X117600000Y-64850000D03*
X116600000Y-64850000D03*
X115600000Y-64850000D03*
X113550000Y-64850000D03*
X117600000Y-63850000D03*
X116600000Y-63850000D03*
X115600000Y-63850000D03*
X114550000Y-63850000D03*
X113550000Y-63850000D03*
X106380000Y-78830000D03*
X110860000Y-75880000D03*
X110744000Y-69850000D03*
X111760000Y-69850000D03*
X112776000Y-69850000D03*
X113792000Y-69850000D03*
X114808000Y-69850000D03*
X115824000Y-69850000D03*
X116840000Y-69850000D03*
X117856000Y-69850000D03*
X118872000Y-69850000D03*
X119888000Y-69850000D03*
X120904000Y-69850000D03*
X121920000Y-69850000D03*
X110744000Y-57912000D03*
X111760000Y-57912000D03*
X112776000Y-57912000D03*
X113792000Y-57912000D03*
X114808000Y-57912000D03*
X115824000Y-57912000D03*
X116840000Y-57912000D03*
X117856000Y-57912000D03*
X118872000Y-57912000D03*
X119888000Y-57912000D03*
X120904000Y-57912000D03*
X121920000Y-57912000D03*
X126294913Y-81985087D03*
X125984000Y-86614000D03*
X122936000Y-105664000D03*
X123952000Y-105664000D03*
X124968000Y-105664000D03*
X122936000Y-106680000D03*
X123952000Y-106680000D03*
X124968000Y-106680000D03*
X122936000Y-107696000D03*
X123952000Y-107696000D03*
X124968000Y-107696000D03*
X122936000Y-85090000D03*
X122936000Y-86106000D03*
X122936000Y-87122000D03*
X122936000Y-88138000D03*
X122936000Y-89154000D03*
X122936000Y-101600000D03*
X108100000Y-58400000D03*
X129250000Y-68800000D03*
X122936000Y-97536000D03*
X122936000Y-100584000D03*
X122936000Y-99568000D03*
X122936000Y-98552000D03*
X110650000Y-100600000D03*
X115250000Y-86500000D03*
X116626640Y-105082340D03*
X125037669Y-80671922D03*
X125300000Y-79050000D03*
X115356640Y-105082340D03*
X113450000Y-77850000D03*
X125075000Y-71070000D03*
X118200000Y-79200000D03*
X125075000Y-72340000D03*
X123679464Y-90785004D03*
X124100000Y-82200000D03*
X126020792Y-87650000D03*
D27*
X108075000Y-60910000D02*
X106177474Y-60910000D01*
X106177474Y-60910000D02*
X105537474Y-61550000D01*
X105537500Y-73337500D02*
X105550000Y-73350000D01*
X105537500Y-73300000D02*
X105537500Y-73337500D01*
D28*
X115749189Y-102934889D02*
X116626640Y-103812340D01*
X115749189Y-101181363D02*
X115749189Y-102934889D01*
X110917826Y-96350000D02*
X115749189Y-101181363D01*
X104900000Y-96350000D02*
X110917826Y-96350000D01*
D27*
X105754900Y-90775000D02*
X107275000Y-90775000D01*
D28*
X107408902Y-89675000D02*
X107700000Y-89675000D01*
D27*
X107275000Y-90100000D02*
X107700000Y-89675000D01*
X107275000Y-90775000D02*
X107275000Y-90100000D01*
X111037500Y-89675000D02*
X111262500Y-89450000D01*
X107700000Y-89675000D02*
X111037500Y-89675000D01*
X111262500Y-86550000D02*
X111212500Y-86500000D01*
X111262500Y-89450000D02*
X111262500Y-86550000D01*
X116124990Y-88274990D02*
X117300000Y-89450000D01*
X112437510Y-88274990D02*
X116124990Y-88274990D01*
X111262500Y-89450000D02*
X112437510Y-88274990D01*
X117300000Y-89450000D02*
X119300000Y-89450000D01*
D28*
X104060000Y-86035000D02*
X107700000Y-89675000D01*
X104060000Y-83400000D02*
X104060000Y-86035000D01*
X119986941Y-107343059D02*
X119634000Y-107696000D01*
X119560385Y-104643039D02*
X119986941Y-105069595D01*
X119986941Y-105069595D02*
X119986941Y-107343059D01*
X118335941Y-104643039D02*
X119560385Y-104643039D01*
X117896640Y-105082340D02*
X118335941Y-104643039D01*
D29*
X108275000Y-93375000D02*
X107125000Y-93375000D01*
D27*
X105754900Y-93375000D02*
X107125000Y-93375000D01*
D28*
X123825000Y-58370000D02*
X125075000Y-58370000D01*
X123049989Y-59145011D02*
X123825000Y-58370000D01*
X123049989Y-63980013D02*
X123049989Y-59145011D01*
X118335001Y-68695001D02*
X123049989Y-63980013D01*
X116794999Y-68695001D02*
X118335001Y-68695001D01*
X110860000Y-74630000D02*
X116794999Y-68695001D01*
X110860000Y-75880000D02*
X110860000Y-74630000D01*
X104060000Y-78800000D02*
X106350000Y-78800000D01*
X106350000Y-78800000D02*
X106380000Y-78830000D01*
X103810000Y-78800000D02*
X104060000Y-78800000D01*
X128320800Y-79959200D02*
X126294913Y-81985087D01*
X126995000Y-58370000D02*
X125075000Y-58370000D01*
X127775000Y-59150000D02*
X126995000Y-58370000D01*
D27*
X103462500Y-61550000D02*
X103462500Y-64100000D01*
X103462500Y-66700000D02*
X103462500Y-64100000D01*
X108075000Y-58375000D02*
X108100000Y-58400000D01*
X108075000Y-58370000D02*
X108075000Y-58375000D01*
D28*
X119783934Y-101600000D02*
X122936000Y-101600000D01*
X117896640Y-103487294D02*
X119783934Y-101600000D01*
X117896640Y-103812340D02*
X117896640Y-103487294D01*
D27*
X109065002Y-59640000D02*
X108075000Y-59640000D01*
X109525001Y-60099999D02*
X109065002Y-59640000D01*
X109525001Y-57559999D02*
X109165002Y-57200000D01*
X109065002Y-59640000D02*
X109525001Y-59180001D01*
X109525001Y-59180001D02*
X109525001Y-57559999D01*
X110360000Y-78700000D02*
X110360000Y-81100000D01*
X109525001Y-77865001D02*
X110360000Y-78700000D01*
X109525001Y-60099999D02*
X109525001Y-77865001D01*
X110755980Y-81495980D02*
X110360000Y-81100000D01*
X114188660Y-81495980D02*
X110755980Y-81495980D01*
D29*
X104060000Y-81100000D02*
X110360000Y-81100000D01*
D27*
X105500000Y-58300000D02*
X105500000Y-59000000D01*
X106600000Y-57200000D02*
X105500000Y-58300000D01*
X109165002Y-57200000D02*
X106600000Y-57200000D01*
X104500000Y-63062500D02*
X105537500Y-64100000D01*
X104500000Y-60000000D02*
X104500000Y-63062500D01*
X105500000Y-59000000D02*
X104500000Y-60000000D01*
X105537500Y-64100000D02*
X105537500Y-66700000D01*
X118276300Y-85526300D02*
X119250000Y-86500000D01*
X118276300Y-81472740D02*
X118276300Y-85526300D01*
X114188660Y-85438660D02*
X115250000Y-86500000D01*
X114188660Y-81495980D02*
X114188660Y-85438660D01*
X118099990Y-87650010D02*
X119250000Y-86500000D01*
X116610044Y-87650010D02*
X118099990Y-87650010D01*
X114188660Y-85228626D02*
X116610044Y-87650010D01*
X114188660Y-81495980D02*
X114188660Y-85228626D01*
D28*
X110650000Y-100709128D02*
X110650000Y-100600000D01*
X115171339Y-103627039D02*
X115356640Y-103812340D01*
X113111354Y-103627039D02*
X115171339Y-103627039D01*
X110650000Y-101165685D02*
X113111354Y-103627039D01*
X110650000Y-100600000D02*
X110650000Y-101165685D01*
D27*
X125075000Y-62180000D02*
X124084998Y-62180000D01*
X124084998Y-62180000D02*
X123624999Y-62639999D01*
X123624999Y-62639999D02*
X123624999Y-79259252D01*
X123624999Y-79259252D02*
X124637670Y-80271923D01*
X124637670Y-80271923D02*
X125037669Y-80671922D01*
X125699999Y-78650001D02*
X125300000Y-79050000D01*
X126575000Y-63450000D02*
X126699999Y-63574999D01*
X126699999Y-77650001D02*
X125699999Y-78650001D01*
X125075000Y-63450000D02*
X126575000Y-63450000D01*
X126699999Y-63574999D02*
X126699999Y-77650001D01*
D28*
X129800000Y-59175000D02*
X129825000Y-59150000D01*
X129800000Y-61750000D02*
X129800000Y-59175000D01*
D27*
X116088660Y-81445980D02*
X116088660Y-81495980D01*
X115188660Y-80545980D02*
X116088660Y-81445980D01*
X114528658Y-80545980D02*
X115188660Y-80545980D01*
X113450000Y-79467322D02*
X114528658Y-80545980D01*
X113450000Y-77850000D02*
X113450000Y-79467322D01*
D28*
X116088660Y-85338660D02*
X117250000Y-86500000D01*
X116088660Y-81495980D02*
X116088660Y-85338660D01*
D27*
X118200000Y-79765685D02*
X118200000Y-79200000D01*
X118200000Y-80106442D02*
X118200000Y-79765685D01*
X118466299Y-80372741D02*
X118200000Y-80106442D01*
X119126301Y-80372741D02*
X118466299Y-80372741D01*
X120176300Y-81422740D02*
X119126301Y-80372741D01*
X120176300Y-81472740D02*
X120176300Y-81422740D01*
D28*
X121250000Y-82546440D02*
X120176300Y-81472740D01*
X121250000Y-86500000D02*
X121250000Y-82546440D01*
D27*
X115138660Y-79495980D02*
X115138660Y-79445980D01*
X128091024Y-85039200D02*
X128320800Y-85039200D01*
X120579471Y-77527647D02*
X128091024Y-85039200D01*
X116156993Y-77527647D02*
X120579471Y-77527647D01*
X115138660Y-78545980D02*
X116156993Y-77527647D01*
X115138660Y-79495980D02*
X115138660Y-78545980D01*
X123598471Y-90704011D02*
X123679464Y-90785004D01*
X116554011Y-90704011D02*
X123598471Y-90704011D01*
X115300000Y-89450000D02*
X116554011Y-90704011D01*
X126939200Y-85039200D02*
X128320800Y-85039200D01*
X124100000Y-82200000D02*
X126939200Y-85039200D01*
X127470801Y-101689801D02*
X128320800Y-102539800D01*
X126870792Y-101089792D02*
X127470801Y-101689801D01*
X126870792Y-86217232D02*
X126870792Y-101089792D01*
X119226300Y-79472740D02*
X120126300Y-79472740D01*
X125133999Y-84616001D02*
X125201780Y-84548220D01*
X123344001Y-90004001D02*
X125133999Y-88214003D01*
X121300000Y-89450000D02*
X121854001Y-90004001D01*
X121854001Y-90004001D02*
X123344001Y-90004001D01*
X125201780Y-84548220D02*
X126870792Y-86217232D01*
X125133999Y-88214003D02*
X125133999Y-84616001D01*
X120126300Y-79472740D02*
X125201780Y-84548220D01*
D28*
X126960000Y-60910000D02*
X127800000Y-61750000D01*
X125075000Y-60910000D02*
X126960000Y-60910000D01*
D27*
X126170782Y-102929782D02*
X126170782Y-101379745D01*
X128320800Y-105079800D02*
X126170782Y-102929782D01*
X126170782Y-101379745D02*
X126170782Y-87799990D01*
X126170782Y-87799990D02*
X126020792Y-87650000D01*
D28*
X103054900Y-89175000D02*
X103054900Y-95575000D01*
X105354900Y-94975000D02*
X105754900Y-94575000D01*
X103054900Y-94975000D02*
X105354900Y-94975000D01*
X103054900Y-89425000D02*
X103054900Y-88575000D01*
X103204900Y-89575000D02*
X103054900Y-89425000D01*
X105754900Y-89575000D02*
X103204900Y-89575000D01*
D30*
X130370801Y-92869799D02*
X128320800Y-94919800D01*
X130370801Y-78975199D02*
X130370801Y-92869799D01*
X129304801Y-77909199D02*
X130370801Y-78975199D01*
X128609199Y-77909199D02*
X129304801Y-77909199D01*
X128320800Y-77620800D02*
X128609199Y-77909199D01*
X128320800Y-77419200D02*
X128320800Y-77620800D01*
D31*
X113464500Y-89323000D02*
X113484500Y-89323000D01*
X113484500Y-89577000D01*
X113464500Y-89577000D01*
X113464500Y-90651250D01*
X113623250Y-90810000D01*
X113925000Y-90813072D01*
X114049482Y-90800812D01*
X114169180Y-90764502D01*
X114279494Y-90705537D01*
X114376185Y-90626185D01*
X114402561Y-90594046D01*
X114456613Y-90638405D01*
X114610149Y-90720472D01*
X114776745Y-90771008D01*
X114949999Y-90788072D01*
X115386493Y-90788072D01*
X115897481Y-91299060D01*
X115925194Y-91332828D01*
X115958962Y-91360541D01*
X115958964Y-91360543D01*
X116023883Y-91413821D01*
X116059952Y-91443422D01*
X116213698Y-91525600D01*
X116380521Y-91576206D01*
X116510534Y-91589011D01*
X116510544Y-91589011D01*
X116554010Y-91593292D01*
X116597476Y-91589011D01*
X123019795Y-91589011D01*
X123189208Y-91702209D01*
X123377566Y-91780230D01*
X123577525Y-91820004D01*
X123781403Y-91820004D01*
X123981362Y-91780230D01*
X124169720Y-91702209D01*
X124339238Y-91588941D01*
X124483401Y-91444778D01*
X124596669Y-91275260D01*
X124674690Y-91086902D01*
X124714464Y-90886943D01*
X124714464Y-90683065D01*
X124674690Y-90483106D01*
X124596669Y-90294748D01*
X124483401Y-90125230D01*
X124478876Y-90120705D01*
X125285783Y-89313798D01*
X125285782Y-101423221D01*
X125285783Y-101423231D01*
X125285782Y-102886312D01*
X125281501Y-102929782D01*
X125285782Y-102973251D01*
X125285782Y-102973258D01*
X125291751Y-103033858D01*
X125298587Y-103103272D01*
X125302459Y-103116036D01*
X125349193Y-103270094D01*
X125431371Y-103423840D01*
X125541965Y-103558599D01*
X125575738Y-103586316D01*
X126850261Y-104860840D01*
X126835800Y-104933540D01*
X126835800Y-105226060D01*
X126892868Y-105512958D01*
X127004810Y-105783211D01*
X127167325Y-106026432D01*
X127374168Y-106233275D01*
X127548560Y-106349800D01*
X127374168Y-106466325D01*
X127167325Y-106673168D01*
X127004810Y-106916389D01*
X126892868Y-107186642D01*
X126835800Y-107473540D01*
X126835800Y-107766060D01*
X126892868Y-108052958D01*
X127004810Y-108323211D01*
X127167325Y-108566432D01*
X127374168Y-108773275D01*
X127617389Y-108935790D01*
X127887642Y-109047732D01*
X128174540Y-109104800D01*
X128467060Y-109104800D01*
X128753958Y-109047732D01*
X129024211Y-108935790D01*
X129267432Y-108773275D01*
X129474275Y-108566432D01*
X129636790Y-108323211D01*
X129748732Y-108052958D01*
X129805800Y-107766060D01*
X129805800Y-107473540D01*
X129748732Y-107186642D01*
X129636790Y-106916389D01*
X129474275Y-106673168D01*
X129267432Y-106466325D01*
X129093040Y-106349800D01*
X129267432Y-106233275D01*
X129474275Y-106026432D01*
X129636790Y-105783211D01*
X129748732Y-105512958D01*
X129805800Y-105226060D01*
X129805800Y-104933540D01*
X129748732Y-104646642D01*
X129636790Y-104376389D01*
X129474275Y-104133168D01*
X129267432Y-103926325D01*
X129093040Y-103809800D01*
X129267432Y-103693275D01*
X129474275Y-103486432D01*
X129636790Y-103243211D01*
X129748732Y-102972958D01*
X129805800Y-102686060D01*
X129805800Y-102393540D01*
X129748732Y-102106642D01*
X129636790Y-101836389D01*
X129474275Y-101593168D01*
X129267432Y-101386325D01*
X129093040Y-101269800D01*
X129267432Y-101153275D01*
X129474275Y-100946432D01*
X129636790Y-100703211D01*
X129748732Y-100432958D01*
X129805800Y-100146060D01*
X129805800Y-99853540D01*
X129748732Y-99566642D01*
X129636790Y-99296389D01*
X129474275Y-99053168D01*
X129267432Y-98846325D01*
X129085266Y-98724605D01*
X129202155Y-98654978D01*
X129418388Y-98460069D01*
X129592441Y-98226720D01*
X129717625Y-97963899D01*
X129762276Y-97816690D01*
X129640955Y-97586800D01*
X128447800Y-97586800D01*
X128447800Y-97606800D01*
X128193800Y-97606800D01*
X128193800Y-97586800D01*
X128173800Y-97586800D01*
X128173800Y-97332800D01*
X128193800Y-97332800D01*
X128193800Y-97312800D01*
X128447800Y-97312800D01*
X128447800Y-97332800D01*
X129640955Y-97332800D01*
X129762276Y-97102910D01*
X129717625Y-96955701D01*
X129592441Y-96692880D01*
X129418388Y-96459531D01*
X129334334Y-96383766D01*
X129414980Y-96359302D01*
X129525294Y-96300337D01*
X129621985Y-96220985D01*
X129701337Y-96124294D01*
X129760302Y-96013980D01*
X129796612Y-95894282D01*
X129808872Y-95769800D01*
X129808872Y-95743966D01*
X130962801Y-94590038D01*
X130962801Y-112667512D01*
X130915668Y-113148214D01*
X130785439Y-113579553D01*
X130573910Y-113977381D01*
X130289142Y-114326540D01*
X129941970Y-114613746D01*
X129545634Y-114828045D01*
X129115212Y-114961283D01*
X128636477Y-115011600D01*
X104654878Y-115011600D01*
X104174186Y-114964468D01*
X103742847Y-114834239D01*
X103345019Y-114622710D01*
X102995860Y-114337942D01*
X102708654Y-113990770D01*
X102494355Y-113594434D01*
X102361117Y-113164012D01*
X102310800Y-112685277D01*
X102310800Y-111956121D01*
X103021000Y-111956121D01*
X103021000Y-112376679D01*
X103103047Y-112789156D01*
X103263988Y-113177702D01*
X103497637Y-113527383D01*
X103795017Y-113824763D01*
X104144698Y-114058412D01*
X104533244Y-114219353D01*
X104945721Y-114301400D01*
X105366279Y-114301400D01*
X105778756Y-114219353D01*
X106167302Y-114058412D01*
X106516983Y-113824763D01*
X106814363Y-113527383D01*
X107048012Y-113177702D01*
X107208953Y-112789156D01*
X107291000Y-112376679D01*
X107291000Y-111956121D01*
X125982600Y-111956121D01*
X125982600Y-112376679D01*
X126064647Y-112789156D01*
X126225588Y-113177702D01*
X126459237Y-113527383D01*
X126756617Y-113824763D01*
X127106298Y-114058412D01*
X127494844Y-114219353D01*
X127907321Y-114301400D01*
X128327879Y-114301400D01*
X128740356Y-114219353D01*
X129128902Y-114058412D01*
X129478583Y-113824763D01*
X129775963Y-113527383D01*
X130009612Y-113177702D01*
X130170553Y-112789156D01*
X130252600Y-112376679D01*
X130252600Y-111956121D01*
X130170553Y-111543644D01*
X130009612Y-111155098D01*
X129775963Y-110805417D01*
X129478583Y-110508037D01*
X129128902Y-110274388D01*
X128740356Y-110113447D01*
X128327879Y-110031400D01*
X127907321Y-110031400D01*
X127494844Y-110113447D01*
X127106298Y-110274388D01*
X126756617Y-110508037D01*
X126459237Y-110805417D01*
X126225588Y-111155098D01*
X126064647Y-111543644D01*
X125982600Y-111956121D01*
X107291000Y-111956121D01*
X107208953Y-111543644D01*
X107048012Y-111155098D01*
X106814363Y-110805417D01*
X106516983Y-110508037D01*
X106167302Y-110274388D01*
X105778756Y-110113447D01*
X105366279Y-110031400D01*
X104945721Y-110031400D01*
X104533244Y-110113447D01*
X104144698Y-110274388D01*
X103795017Y-110508037D01*
X103497637Y-110805417D01*
X103263988Y-111155098D01*
X103103047Y-111543644D01*
X103021000Y-111956121D01*
X102310800Y-111956121D01*
X102310800Y-96746022D01*
X102462798Y-96792130D01*
X102644235Y-96810000D01*
X103465565Y-96810000D01*
X103647002Y-96792130D01*
X103879801Y-96721511D01*
X103923855Y-96697964D01*
X103982795Y-96840256D01*
X104096063Y-97009774D01*
X104240226Y-97153937D01*
X104409744Y-97267205D01*
X104598102Y-97345226D01*
X104798061Y-97385000D01*
X105001939Y-97385000D01*
X105201898Y-97345226D01*
X105390256Y-97267205D01*
X105559774Y-97153937D01*
X105603711Y-97110000D01*
X110603025Y-97110000D01*
X113632537Y-100139513D01*
X113555051Y-100154926D01*
X113223386Y-100292306D01*
X112924896Y-100491751D01*
X112671051Y-100745596D01*
X112471606Y-101044086D01*
X112334226Y-101375751D01*
X112267968Y-101708851D01*
X111591271Y-101032155D01*
X111645226Y-100901898D01*
X111685000Y-100701939D01*
X111685000Y-100498061D01*
X111645226Y-100298102D01*
X111567205Y-100109744D01*
X111453937Y-99940226D01*
X111309774Y-99796063D01*
X111140256Y-99682795D01*
X110951898Y-99604774D01*
X110751939Y-99565000D01*
X110548061Y-99565000D01*
X110348102Y-99604774D01*
X110159744Y-99682795D01*
X109990226Y-99796063D01*
X109846063Y-99940226D01*
X109732795Y-100109744D01*
X109654774Y-100298102D01*
X109615000Y-100498061D01*
X109615000Y-100701939D01*
X109654774Y-100901898D01*
X109732795Y-101090256D01*
X109846063Y-101259774D01*
X109901013Y-101314724D01*
X109944454Y-101457932D01*
X109952404Y-101472805D01*
X110015026Y-101589961D01*
X110086201Y-101676687D01*
X110110000Y-101705686D01*
X110138998Y-101729484D01*
X112547554Y-104138041D01*
X112571353Y-104167040D01*
X112687078Y-104262013D01*
X112819107Y-104332585D01*
X112956340Y-104374213D01*
X112956340Y-104558665D01*
X112999777Y-104777036D01*
X113084981Y-104982738D01*
X113208679Y-105167864D01*
X113357549Y-105316734D01*
X113223386Y-105372306D01*
X112924896Y-105571751D01*
X112671051Y-105825596D01*
X112471606Y-106124086D01*
X112334226Y-106455751D01*
X112264190Y-106807844D01*
X112264190Y-107166836D01*
X112334226Y-107518929D01*
X112471606Y-107850594D01*
X112671051Y-108149084D01*
X112924896Y-108402929D01*
X113223386Y-108602374D01*
X113555051Y-108739754D01*
X113907144Y-108809790D01*
X114266136Y-108809790D01*
X114618229Y-108739754D01*
X114949894Y-108602374D01*
X115248384Y-108402929D01*
X115502229Y-108149084D01*
X115674140Y-107891801D01*
X115846051Y-108149084D01*
X116099896Y-108402929D01*
X116398386Y-108602374D01*
X116730051Y-108739754D01*
X117082144Y-108809790D01*
X117441136Y-108809790D01*
X117793229Y-108739754D01*
X118124894Y-108602374D01*
X118423384Y-108402929D01*
X118677229Y-108149084D01*
X118692149Y-108126755D01*
X118716795Y-108186256D01*
X118830063Y-108355774D01*
X118974226Y-108499937D01*
X119143744Y-108613205D01*
X119332102Y-108691226D01*
X119532061Y-108731000D01*
X119735939Y-108731000D01*
X119935898Y-108691226D01*
X120124256Y-108613205D01*
X120293774Y-108499937D01*
X120437937Y-108355774D01*
X120551205Y-108186256D01*
X120629226Y-107997898D01*
X120669000Y-107797939D01*
X120669000Y-107679246D01*
X120692487Y-107635306D01*
X120735944Y-107492045D01*
X120746941Y-107380392D01*
X120746941Y-107380382D01*
X120750617Y-107343059D01*
X120746941Y-107305736D01*
X120746941Y-105106917D01*
X120750617Y-105069594D01*
X120746941Y-105032271D01*
X120746941Y-105032262D01*
X120735944Y-104920609D01*
X120692487Y-104777348D01*
X120621915Y-104645319D01*
X120526942Y-104529594D01*
X120497939Y-104505792D01*
X120124189Y-104132042D01*
X120100386Y-104103038D01*
X120085428Y-104090762D01*
X120168299Y-103966738D01*
X120253503Y-103761036D01*
X120296940Y-103542665D01*
X120296940Y-103320015D01*
X120253503Y-103101644D01*
X120168299Y-102895942D01*
X120044601Y-102710816D01*
X119887164Y-102553379D01*
X119702038Y-102429681D01*
X119496336Y-102344477D01*
X119277965Y-102301040D01*
X119055315Y-102301040D01*
X119040912Y-102303905D01*
X119084090Y-102086836D01*
X119084090Y-101727844D01*
X119014054Y-101375751D01*
X118876674Y-101044086D01*
X118677229Y-100745596D01*
X118423384Y-100491751D01*
X118124894Y-100292306D01*
X117793229Y-100154926D01*
X117441136Y-100084890D01*
X117082144Y-100084890D01*
X116730051Y-100154926D01*
X116398386Y-100292306D01*
X116120567Y-100477939D01*
X111481630Y-95839003D01*
X111457827Y-95809999D01*
X111342102Y-95715026D01*
X111210073Y-95644454D01*
X111066812Y-95600997D01*
X110955159Y-95590000D01*
X110955148Y-95590000D01*
X110917826Y-95586324D01*
X110880504Y-95590000D01*
X106663230Y-95590000D01*
X106811281Y-95441949D01*
X106960116Y-95219201D01*
X107062636Y-94971697D01*
X107114900Y-94708948D01*
X107114900Y-94441052D01*
X107062636Y-94178303D01*
X106960116Y-93930799D01*
X106959321Y-93929610D01*
X107015421Y-93828576D01*
X107053641Y-93709474D01*
X107064900Y-93606750D01*
X106906150Y-93448000D01*
X106793578Y-93448000D01*
X106881085Y-93376185D01*
X106960437Y-93279494D01*
X106996932Y-93211218D01*
X107064900Y-93143250D01*
X107054912Y-93052120D01*
X107055712Y-93049482D01*
X107067972Y-92925000D01*
X107067972Y-92525000D01*
X107055712Y-92400518D01*
X107055555Y-92400000D01*
X107055712Y-92399482D01*
X107067972Y-92275000D01*
X107067972Y-91875000D01*
X107055712Y-91750518D01*
X107055555Y-91750000D01*
X107055712Y-91749482D01*
X107064525Y-91660000D01*
X107231523Y-91660000D01*
X107275000Y-91664282D01*
X107318476Y-91660000D01*
X107318477Y-91660000D01*
X107448490Y-91647195D01*
X107615313Y-91596589D01*
X107769059Y-91514411D01*
X107903817Y-91403817D01*
X108014411Y-91269059D01*
X108096589Y-91115313D01*
X108147195Y-90948490D01*
X108159299Y-90825590D01*
X108160000Y-90818477D01*
X108160000Y-90818476D01*
X108164282Y-90775000D01*
X108160000Y-90731523D01*
X108160000Y-90604738D01*
X108190256Y-90592205D01*
X108238454Y-90560000D01*
X110305614Y-90560000D01*
X110431614Y-90663405D01*
X110585150Y-90745472D01*
X110751746Y-90796008D01*
X110925000Y-90813072D01*
X111600000Y-90813072D01*
X111773254Y-90796008D01*
X111939850Y-90745472D01*
X112093386Y-90663405D01*
X112227962Y-90552962D01*
X112233342Y-90546406D01*
X112298815Y-90626185D01*
X112395506Y-90705537D01*
X112505820Y-90764502D01*
X112625518Y-90800812D01*
X112750000Y-90813072D01*
X113051750Y-90810000D01*
X113210500Y-90651250D01*
X113210500Y-89577000D01*
X113190500Y-89577000D01*
X113190500Y-89323000D01*
X113210500Y-89323000D01*
X113210500Y-89303000D01*
X113464500Y-89303000D01*
X113464500Y-89323000D01*
G04 #@! TA.AperFunction,Conductor*
D32*
G36*
X113464500Y-89323000D02*
G01*
X113484500Y-89323000D01*
X113484500Y-89577000D01*
X113464500Y-89577000D01*
X113464500Y-90651250D01*
X113623250Y-90810000D01*
X113925000Y-90813072D01*
X114049482Y-90800812D01*
X114169180Y-90764502D01*
X114279494Y-90705537D01*
X114376185Y-90626185D01*
X114402561Y-90594046D01*
X114456613Y-90638405D01*
X114610149Y-90720472D01*
X114776745Y-90771008D01*
X114949999Y-90788072D01*
X115386493Y-90788072D01*
X115897481Y-91299060D01*
X115925194Y-91332828D01*
X115958962Y-91360541D01*
X115958964Y-91360543D01*
X116023883Y-91413821D01*
X116059952Y-91443422D01*
X116213698Y-91525600D01*
X116380521Y-91576206D01*
X116510534Y-91589011D01*
X116510544Y-91589011D01*
X116554010Y-91593292D01*
X116597476Y-91589011D01*
X123019795Y-91589011D01*
X123189208Y-91702209D01*
X123377566Y-91780230D01*
X123577525Y-91820004D01*
X123781403Y-91820004D01*
X123981362Y-91780230D01*
X124169720Y-91702209D01*
X124339238Y-91588941D01*
X124483401Y-91444778D01*
X124596669Y-91275260D01*
X124674690Y-91086902D01*
X124714464Y-90886943D01*
X124714464Y-90683065D01*
X124674690Y-90483106D01*
X124596669Y-90294748D01*
X124483401Y-90125230D01*
X124478876Y-90120705D01*
X125285783Y-89313798D01*
X125285782Y-101423221D01*
X125285783Y-101423231D01*
X125285782Y-102886312D01*
X125281501Y-102929782D01*
X125285782Y-102973251D01*
X125285782Y-102973258D01*
X125291751Y-103033858D01*
X125298587Y-103103272D01*
X125302459Y-103116036D01*
X125349193Y-103270094D01*
X125431371Y-103423840D01*
X125541965Y-103558599D01*
X125575738Y-103586316D01*
X126850261Y-104860840D01*
X126835800Y-104933540D01*
X126835800Y-105226060D01*
X126892868Y-105512958D01*
X127004810Y-105783211D01*
X127167325Y-106026432D01*
X127374168Y-106233275D01*
X127548560Y-106349800D01*
X127374168Y-106466325D01*
X127167325Y-106673168D01*
X127004810Y-106916389D01*
X126892868Y-107186642D01*
X126835800Y-107473540D01*
X126835800Y-107766060D01*
X126892868Y-108052958D01*
X127004810Y-108323211D01*
X127167325Y-108566432D01*
X127374168Y-108773275D01*
X127617389Y-108935790D01*
X127887642Y-109047732D01*
X128174540Y-109104800D01*
X128467060Y-109104800D01*
X128753958Y-109047732D01*
X129024211Y-108935790D01*
X129267432Y-108773275D01*
X129474275Y-108566432D01*
X129636790Y-108323211D01*
X129748732Y-108052958D01*
X129805800Y-107766060D01*
X129805800Y-107473540D01*
X129748732Y-107186642D01*
X129636790Y-106916389D01*
X129474275Y-106673168D01*
X129267432Y-106466325D01*
X129093040Y-106349800D01*
X129267432Y-106233275D01*
X129474275Y-106026432D01*
X129636790Y-105783211D01*
X129748732Y-105512958D01*
X129805800Y-105226060D01*
X129805800Y-104933540D01*
X129748732Y-104646642D01*
X129636790Y-104376389D01*
X129474275Y-104133168D01*
X129267432Y-103926325D01*
X129093040Y-103809800D01*
X129267432Y-103693275D01*
X129474275Y-103486432D01*
X129636790Y-103243211D01*
X129748732Y-102972958D01*
X129805800Y-102686060D01*
X129805800Y-102393540D01*
X129748732Y-102106642D01*
X129636790Y-101836389D01*
X129474275Y-101593168D01*
X129267432Y-101386325D01*
X129093040Y-101269800D01*
X129267432Y-101153275D01*
X129474275Y-100946432D01*
X129636790Y-100703211D01*
X129748732Y-100432958D01*
X129805800Y-100146060D01*
X129805800Y-99853540D01*
X129748732Y-99566642D01*
X129636790Y-99296389D01*
X129474275Y-99053168D01*
X129267432Y-98846325D01*
X129085266Y-98724605D01*
X129202155Y-98654978D01*
X129418388Y-98460069D01*
X129592441Y-98226720D01*
X129717625Y-97963899D01*
X129762276Y-97816690D01*
X129640955Y-97586800D01*
X128447800Y-97586800D01*
X128447800Y-97606800D01*
X128193800Y-97606800D01*
X128193800Y-97586800D01*
X128173800Y-97586800D01*
X128173800Y-97332800D01*
X128193800Y-97332800D01*
X128193800Y-97312800D01*
X128447800Y-97312800D01*
X128447800Y-97332800D01*
X129640955Y-97332800D01*
X129762276Y-97102910D01*
X129717625Y-96955701D01*
X129592441Y-96692880D01*
X129418388Y-96459531D01*
X129334334Y-96383766D01*
X129414980Y-96359302D01*
X129525294Y-96300337D01*
X129621985Y-96220985D01*
X129701337Y-96124294D01*
X129760302Y-96013980D01*
X129796612Y-95894282D01*
X129808872Y-95769800D01*
X129808872Y-95743966D01*
X130962801Y-94590038D01*
X130962801Y-112667512D01*
X130915668Y-113148214D01*
X130785439Y-113579553D01*
X130573910Y-113977381D01*
X130289142Y-114326540D01*
X129941970Y-114613746D01*
X129545634Y-114828045D01*
X129115212Y-114961283D01*
X128636477Y-115011600D01*
X104654878Y-115011600D01*
X104174186Y-114964468D01*
X103742847Y-114834239D01*
X103345019Y-114622710D01*
X102995860Y-114337942D01*
X102708654Y-113990770D01*
X102494355Y-113594434D01*
X102361117Y-113164012D01*
X102310800Y-112685277D01*
X102310800Y-111956121D01*
X103021000Y-111956121D01*
X103021000Y-112376679D01*
X103103047Y-112789156D01*
X103263988Y-113177702D01*
X103497637Y-113527383D01*
X103795017Y-113824763D01*
X104144698Y-114058412D01*
X104533244Y-114219353D01*
X104945721Y-114301400D01*
X105366279Y-114301400D01*
X105778756Y-114219353D01*
X106167302Y-114058412D01*
X106516983Y-113824763D01*
X106814363Y-113527383D01*
X107048012Y-113177702D01*
X107208953Y-112789156D01*
X107291000Y-112376679D01*
X107291000Y-111956121D01*
X125982600Y-111956121D01*
X125982600Y-112376679D01*
X126064647Y-112789156D01*
X126225588Y-113177702D01*
X126459237Y-113527383D01*
X126756617Y-113824763D01*
X127106298Y-114058412D01*
X127494844Y-114219353D01*
X127907321Y-114301400D01*
X128327879Y-114301400D01*
X128740356Y-114219353D01*
X129128902Y-114058412D01*
X129478583Y-113824763D01*
X129775963Y-113527383D01*
X130009612Y-113177702D01*
X130170553Y-112789156D01*
X130252600Y-112376679D01*
X130252600Y-111956121D01*
X130170553Y-111543644D01*
X130009612Y-111155098D01*
X129775963Y-110805417D01*
X129478583Y-110508037D01*
X129128902Y-110274388D01*
X128740356Y-110113447D01*
X128327879Y-110031400D01*
X127907321Y-110031400D01*
X127494844Y-110113447D01*
X127106298Y-110274388D01*
X126756617Y-110508037D01*
X126459237Y-110805417D01*
X126225588Y-111155098D01*
X126064647Y-111543644D01*
X125982600Y-111956121D01*
X107291000Y-111956121D01*
X107208953Y-111543644D01*
X107048012Y-111155098D01*
X106814363Y-110805417D01*
X106516983Y-110508037D01*
X106167302Y-110274388D01*
X105778756Y-110113447D01*
X105366279Y-110031400D01*
X104945721Y-110031400D01*
X104533244Y-110113447D01*
X104144698Y-110274388D01*
X103795017Y-110508037D01*
X103497637Y-110805417D01*
X103263988Y-111155098D01*
X103103047Y-111543644D01*
X103021000Y-111956121D01*
X102310800Y-111956121D01*
X102310800Y-96746022D01*
X102462798Y-96792130D01*
X102644235Y-96810000D01*
X103465565Y-96810000D01*
X103647002Y-96792130D01*
X103879801Y-96721511D01*
X103923855Y-96697964D01*
X103982795Y-96840256D01*
X104096063Y-97009774D01*
X104240226Y-97153937D01*
X104409744Y-97267205D01*
X104598102Y-97345226D01*
X104798061Y-97385000D01*
X105001939Y-97385000D01*
X105201898Y-97345226D01*
X105390256Y-97267205D01*
X105559774Y-97153937D01*
X105603711Y-97110000D01*
X110603025Y-97110000D01*
X113632537Y-100139513D01*
X113555051Y-100154926D01*
X113223386Y-100292306D01*
X112924896Y-100491751D01*
X112671051Y-100745596D01*
X112471606Y-101044086D01*
X112334226Y-101375751D01*
X112267968Y-101708851D01*
X111591271Y-101032155D01*
X111645226Y-100901898D01*
X111685000Y-100701939D01*
X111685000Y-100498061D01*
X111645226Y-100298102D01*
X111567205Y-100109744D01*
X111453937Y-99940226D01*
X111309774Y-99796063D01*
X111140256Y-99682795D01*
X110951898Y-99604774D01*
X110751939Y-99565000D01*
X110548061Y-99565000D01*
X110348102Y-99604774D01*
X110159744Y-99682795D01*
X109990226Y-99796063D01*
X109846063Y-99940226D01*
X109732795Y-100109744D01*
X109654774Y-100298102D01*
X109615000Y-100498061D01*
X109615000Y-100701939D01*
X109654774Y-100901898D01*
X109732795Y-101090256D01*
X109846063Y-101259774D01*
X109901013Y-101314724D01*
X109944454Y-101457932D01*
X109952404Y-101472805D01*
X110015026Y-101589961D01*
X110086201Y-101676687D01*
X110110000Y-101705686D01*
X110138998Y-101729484D01*
X112547554Y-104138041D01*
X112571353Y-104167040D01*
X112687078Y-104262013D01*
X112819107Y-104332585D01*
X112956340Y-104374213D01*
X112956340Y-104558665D01*
X112999777Y-104777036D01*
X113084981Y-104982738D01*
X113208679Y-105167864D01*
X113357549Y-105316734D01*
X113223386Y-105372306D01*
X112924896Y-105571751D01*
X112671051Y-105825596D01*
X112471606Y-106124086D01*
X112334226Y-106455751D01*
X112264190Y-106807844D01*
X112264190Y-107166836D01*
X112334226Y-107518929D01*
X112471606Y-107850594D01*
X112671051Y-108149084D01*
X112924896Y-108402929D01*
X113223386Y-108602374D01*
X113555051Y-108739754D01*
X113907144Y-108809790D01*
X114266136Y-108809790D01*
X114618229Y-108739754D01*
X114949894Y-108602374D01*
X115248384Y-108402929D01*
X115502229Y-108149084D01*
X115674140Y-107891801D01*
X115846051Y-108149084D01*
X116099896Y-108402929D01*
X116398386Y-108602374D01*
X116730051Y-108739754D01*
X117082144Y-108809790D01*
X117441136Y-108809790D01*
X117793229Y-108739754D01*
X118124894Y-108602374D01*
X118423384Y-108402929D01*
X118677229Y-108149084D01*
X118692149Y-108126755D01*
X118716795Y-108186256D01*
X118830063Y-108355774D01*
X118974226Y-108499937D01*
X119143744Y-108613205D01*
X119332102Y-108691226D01*
X119532061Y-108731000D01*
X119735939Y-108731000D01*
X119935898Y-108691226D01*
X120124256Y-108613205D01*
X120293774Y-108499937D01*
X120437937Y-108355774D01*
X120551205Y-108186256D01*
X120629226Y-107997898D01*
X120669000Y-107797939D01*
X120669000Y-107679246D01*
X120692487Y-107635306D01*
X120735944Y-107492045D01*
X120746941Y-107380392D01*
X120746941Y-107380382D01*
X120750617Y-107343059D01*
X120746941Y-107305736D01*
X120746941Y-105106917D01*
X120750617Y-105069594D01*
X120746941Y-105032271D01*
X120746941Y-105032262D01*
X120735944Y-104920609D01*
X120692487Y-104777348D01*
X120621915Y-104645319D01*
X120526942Y-104529594D01*
X120497939Y-104505792D01*
X120124189Y-104132042D01*
X120100386Y-104103038D01*
X120085428Y-104090762D01*
X120168299Y-103966738D01*
X120253503Y-103761036D01*
X120296940Y-103542665D01*
X120296940Y-103320015D01*
X120253503Y-103101644D01*
X120168299Y-102895942D01*
X120044601Y-102710816D01*
X119887164Y-102553379D01*
X119702038Y-102429681D01*
X119496336Y-102344477D01*
X119277965Y-102301040D01*
X119055315Y-102301040D01*
X119040912Y-102303905D01*
X119084090Y-102086836D01*
X119084090Y-101727844D01*
X119014054Y-101375751D01*
X118876674Y-101044086D01*
X118677229Y-100745596D01*
X118423384Y-100491751D01*
X118124894Y-100292306D01*
X117793229Y-100154926D01*
X117441136Y-100084890D01*
X117082144Y-100084890D01*
X116730051Y-100154926D01*
X116398386Y-100292306D01*
X116120567Y-100477939D01*
X111481630Y-95839003D01*
X111457827Y-95809999D01*
X111342102Y-95715026D01*
X111210073Y-95644454D01*
X111066812Y-95600997D01*
X110955159Y-95590000D01*
X110955148Y-95590000D01*
X110917826Y-95586324D01*
X110880504Y-95590000D01*
X106663230Y-95590000D01*
X106811281Y-95441949D01*
X106960116Y-95219201D01*
X107062636Y-94971697D01*
X107114900Y-94708948D01*
X107114900Y-94441052D01*
X107062636Y-94178303D01*
X106960116Y-93930799D01*
X106959321Y-93929610D01*
X107015421Y-93828576D01*
X107053641Y-93709474D01*
X107064900Y-93606750D01*
X106906150Y-93448000D01*
X106793578Y-93448000D01*
X106881085Y-93376185D01*
X106960437Y-93279494D01*
X106996932Y-93211218D01*
X107064900Y-93143250D01*
X107054912Y-93052120D01*
X107055712Y-93049482D01*
X107067972Y-92925000D01*
X107067972Y-92525000D01*
X107055712Y-92400518D01*
X107055555Y-92400000D01*
X107055712Y-92399482D01*
X107067972Y-92275000D01*
X107067972Y-91875000D01*
X107055712Y-91750518D01*
X107055555Y-91750000D01*
X107055712Y-91749482D01*
X107064525Y-91660000D01*
X107231523Y-91660000D01*
X107275000Y-91664282D01*
X107318476Y-91660000D01*
X107318477Y-91660000D01*
X107448490Y-91647195D01*
X107615313Y-91596589D01*
X107769059Y-91514411D01*
X107903817Y-91403817D01*
X108014411Y-91269059D01*
X108096589Y-91115313D01*
X108147195Y-90948490D01*
X108159299Y-90825590D01*
X108160000Y-90818477D01*
X108160000Y-90818476D01*
X108164282Y-90775000D01*
X108160000Y-90731523D01*
X108160000Y-90604738D01*
X108190256Y-90592205D01*
X108238454Y-90560000D01*
X110305614Y-90560000D01*
X110431614Y-90663405D01*
X110585150Y-90745472D01*
X110751746Y-90796008D01*
X110925000Y-90813072D01*
X111600000Y-90813072D01*
X111773254Y-90796008D01*
X111939850Y-90745472D01*
X112093386Y-90663405D01*
X112227962Y-90552962D01*
X112233342Y-90546406D01*
X112298815Y-90626185D01*
X112395506Y-90705537D01*
X112505820Y-90764502D01*
X112625518Y-90800812D01*
X112750000Y-90813072D01*
X113051750Y-90810000D01*
X113210500Y-90651250D01*
X113210500Y-89577000D01*
X113190500Y-89577000D01*
X113190500Y-89323000D01*
X113210500Y-89323000D01*
X113210500Y-89303000D01*
X113464500Y-89303000D01*
X113464500Y-89323000D01*
G37*
G04 #@! TD.AperFunction*
D31*
X118090388Y-103798198D02*
X118076245Y-103812340D01*
X118090388Y-103826483D01*
X117910783Y-104006088D01*
X117896640Y-103991945D01*
X117882498Y-104006088D01*
X117702893Y-103826483D01*
X117717035Y-103812340D01*
X117702893Y-103798198D01*
X117875353Y-103625737D01*
X117885457Y-103621552D01*
X117896640Y-103632735D01*
X117910783Y-103618593D01*
X118090388Y-103798198D01*
G04 #@! TA.AperFunction,Conductor*
D32*
G36*
X118090388Y-103798198D02*
G01*
X118076245Y-103812340D01*
X118090388Y-103826483D01*
X117910783Y-104006088D01*
X117896640Y-103991945D01*
X117882498Y-104006088D01*
X117702893Y-103826483D01*
X117717035Y-103812340D01*
X117702893Y-103798198D01*
X117875353Y-103625737D01*
X117885457Y-103621552D01*
X117896640Y-103632735D01*
X117910783Y-103618593D01*
X118090388Y-103798198D01*
G37*
G04 #@! TD.AperFunction*
D31*
X124249000Y-84847019D02*
X124248999Y-87847424D01*
X122977423Y-89119001D01*
X122538072Y-89119001D01*
X122538072Y-88999999D01*
X122521008Y-88826745D01*
X122470472Y-88660149D01*
X122388405Y-88506613D01*
X122277962Y-88372038D01*
X122143387Y-88261595D01*
X121989851Y-88179528D01*
X121823255Y-88128992D01*
X121650001Y-88111928D01*
X120949999Y-88111928D01*
X120776745Y-88128992D01*
X120610149Y-88179528D01*
X120456613Y-88261595D01*
X120322038Y-88372038D01*
X120300000Y-88398891D01*
X120277962Y-88372038D01*
X120143387Y-88261595D01*
X119989851Y-88179528D01*
X119823255Y-88128992D01*
X119650001Y-88111928D01*
X118949999Y-88111928D01*
X118883057Y-88118521D01*
X119163506Y-87838072D01*
X119600001Y-87838072D01*
X119773255Y-87821008D01*
X119939851Y-87770472D01*
X120093387Y-87688405D01*
X120227962Y-87577962D01*
X120250000Y-87551109D01*
X120272038Y-87577962D01*
X120406613Y-87688405D01*
X120560149Y-87770472D01*
X120726745Y-87821008D01*
X120899999Y-87838072D01*
X121600001Y-87838072D01*
X121773255Y-87821008D01*
X121939851Y-87770472D01*
X122093387Y-87688405D01*
X122227962Y-87577962D01*
X122338405Y-87443387D01*
X122420472Y-87289851D01*
X122471008Y-87123255D01*
X122488072Y-86950001D01*
X122488072Y-86049999D01*
X122471008Y-85876745D01*
X122420472Y-85710149D01*
X122338405Y-85556613D01*
X122227962Y-85422038D01*
X122093387Y-85311595D01*
X122010000Y-85267024D01*
X122010000Y-82608018D01*
X124249000Y-84847019D01*
G04 #@! TA.AperFunction,Conductor*
D32*
G36*
X124249000Y-84847019D02*
G01*
X124248999Y-87847424D01*
X122977423Y-89119001D01*
X122538072Y-89119001D01*
X122538072Y-88999999D01*
X122521008Y-88826745D01*
X122470472Y-88660149D01*
X122388405Y-88506613D01*
X122277962Y-88372038D01*
X122143387Y-88261595D01*
X121989851Y-88179528D01*
X121823255Y-88128992D01*
X121650001Y-88111928D01*
X120949999Y-88111928D01*
X120776745Y-88128992D01*
X120610149Y-88179528D01*
X120456613Y-88261595D01*
X120322038Y-88372038D01*
X120300000Y-88398891D01*
X120277962Y-88372038D01*
X120143387Y-88261595D01*
X119989851Y-88179528D01*
X119823255Y-88128992D01*
X119650001Y-88111928D01*
X118949999Y-88111928D01*
X118883057Y-88118521D01*
X119163506Y-87838072D01*
X119600001Y-87838072D01*
X119773255Y-87821008D01*
X119939851Y-87770472D01*
X120093387Y-87688405D01*
X120227962Y-87577962D01*
X120250000Y-87551109D01*
X120272038Y-87577962D01*
X120406613Y-87688405D01*
X120560149Y-87770472D01*
X120726745Y-87821008D01*
X120899999Y-87838072D01*
X121600001Y-87838072D01*
X121773255Y-87821008D01*
X121939851Y-87770472D01*
X122093387Y-87688405D01*
X122227962Y-87577962D01*
X122338405Y-87443387D01*
X122420472Y-87289851D01*
X122471008Y-87123255D01*
X122488072Y-86950001D01*
X122488072Y-86049999D01*
X122471008Y-85876745D01*
X122420472Y-85710149D01*
X122338405Y-85556613D01*
X122227962Y-85422038D01*
X122093387Y-85311595D01*
X122010000Y-85267024D01*
X122010000Y-82608018D01*
X124249000Y-84847019D01*
G37*
G04 #@! TD.AperFunction*
D31*
X103589500Y-61423000D02*
X103609500Y-61423000D01*
X103609500Y-61677000D01*
X103589500Y-61677000D01*
X103589500Y-62751250D01*
X103615001Y-62776751D01*
X103615001Y-62873249D01*
X103589500Y-62898750D01*
X103589500Y-63973000D01*
X103609500Y-63973000D01*
X103609500Y-64227000D01*
X103589500Y-64227000D01*
X103589500Y-65301250D01*
X103688250Y-65400000D01*
X103589500Y-65498750D01*
X103589500Y-66573000D01*
X103609500Y-66573000D01*
X103609500Y-66827000D01*
X103589500Y-66827000D01*
X103589500Y-67901250D01*
X103748250Y-68060000D01*
X104050000Y-68063072D01*
X104174482Y-68050812D01*
X104294180Y-68014502D01*
X104404494Y-67955537D01*
X104501185Y-67876185D01*
X104566658Y-67796406D01*
X104572038Y-67802962D01*
X104706614Y-67913405D01*
X104860150Y-67995472D01*
X105026746Y-68046008D01*
X105200000Y-68063072D01*
X105875000Y-68063072D01*
X106048254Y-68046008D01*
X106214850Y-67995472D01*
X106368386Y-67913405D01*
X106452251Y-67844579D01*
X106467546Y-67895000D01*
X106449188Y-67955518D01*
X106436928Y-68080000D01*
X106436928Y-68513891D01*
X106417000Y-68511928D01*
X105517000Y-68511928D01*
X105392518Y-68524188D01*
X105272820Y-68560498D01*
X105162506Y-68619463D01*
X105065815Y-68698815D01*
X104986463Y-68795506D01*
X104927498Y-68905820D01*
X104891188Y-69025518D01*
X104878928Y-69150000D01*
X104878928Y-69164093D01*
X104757256Y-69082795D01*
X104568898Y-69004774D01*
X104368939Y-68965000D01*
X104165061Y-68965000D01*
X103965102Y-69004774D01*
X103776744Y-69082795D01*
X103654995Y-69164145D01*
X103655072Y-69150000D01*
X103642812Y-69025518D01*
X103606502Y-68905820D01*
X103547537Y-68795506D01*
X103468185Y-68698815D01*
X103371494Y-68619463D01*
X103261180Y-68560498D01*
X103141482Y-68524188D01*
X103017000Y-68511928D01*
X102852750Y-68515000D01*
X102694000Y-68673750D01*
X102694000Y-69873000D01*
X102714000Y-69873000D01*
X102714000Y-70127000D01*
X102694000Y-70127000D01*
X102694000Y-71326250D01*
X102852750Y-71485000D01*
X103017000Y-71488072D01*
X103141482Y-71475812D01*
X103261180Y-71439502D01*
X103371494Y-71380537D01*
X103468185Y-71301185D01*
X103547537Y-71204494D01*
X103606502Y-71094180D01*
X103642812Y-70974482D01*
X103655072Y-70850000D01*
X103654995Y-70835855D01*
X103776744Y-70917205D01*
X103965102Y-70995226D01*
X104165061Y-71035000D01*
X104368939Y-71035000D01*
X104568898Y-70995226D01*
X104757256Y-70917205D01*
X104878928Y-70835907D01*
X104878928Y-70850000D01*
X104891188Y-70974482D01*
X104927498Y-71094180D01*
X104986463Y-71204494D01*
X105065815Y-71301185D01*
X105162506Y-71380537D01*
X105272820Y-71439502D01*
X105392518Y-71475812D01*
X105517000Y-71488072D01*
X106417000Y-71488072D01*
X106436928Y-71486109D01*
X106436928Y-71520000D01*
X106449188Y-71644482D01*
X106467546Y-71705000D01*
X106449188Y-71765518D01*
X106436928Y-71890000D01*
X106436928Y-72142846D01*
X106368386Y-72086595D01*
X106214850Y-72004528D01*
X106048254Y-71953992D01*
X105875000Y-71936928D01*
X105200000Y-71936928D01*
X105026746Y-71953992D01*
X104860150Y-72004528D01*
X104706614Y-72086595D01*
X104572038Y-72197038D01*
X104566658Y-72203594D01*
X104501185Y-72123815D01*
X104404494Y-72044463D01*
X104294180Y-71985498D01*
X104174482Y-71949188D01*
X104050000Y-71936928D01*
X103748250Y-71940000D01*
X103589500Y-72098750D01*
X103589500Y-73173000D01*
X103609500Y-73173000D01*
X103609500Y-73427000D01*
X103589500Y-73427000D01*
X103589500Y-74501250D01*
X103748250Y-74660000D01*
X104050000Y-74663072D01*
X104174482Y-74650812D01*
X104294180Y-74614502D01*
X104404494Y-74555537D01*
X104501185Y-74476185D01*
X104566658Y-74396406D01*
X104572038Y-74402962D01*
X104706614Y-74513405D01*
X104860150Y-74595472D01*
X105026746Y-74646008D01*
X105200000Y-74663072D01*
X105875000Y-74663072D01*
X106048254Y-74646008D01*
X106214850Y-74595472D01*
X106368386Y-74513405D01*
X106436928Y-74457154D01*
X106436928Y-75330000D01*
X106449188Y-75454482D01*
X106485498Y-75574180D01*
X106544463Y-75684494D01*
X106623815Y-75781185D01*
X106720506Y-75860537D01*
X106830820Y-75919502D01*
X106950518Y-75955812D01*
X107075000Y-75968072D01*
X108640002Y-75968072D01*
X108640002Y-77821522D01*
X108635720Y-77865001D01*
X108652806Y-78038491D01*
X108703413Y-78205314D01*
X108785591Y-78359060D01*
X108868469Y-78460047D01*
X108868472Y-78460050D01*
X108896185Y-78493818D01*
X108929952Y-78521530D01*
X109052673Y-78644251D01*
X109005506Y-78669463D01*
X108908815Y-78748815D01*
X108829463Y-78845506D01*
X108770498Y-78955820D01*
X108734188Y-79075518D01*
X108721928Y-79200000D01*
X108721928Y-79965000D01*
X105565501Y-79965000D01*
X105553191Y-79950000D01*
X105590537Y-79904494D01*
X105649502Y-79794180D01*
X105685812Y-79674482D01*
X105698072Y-79550000D01*
X105695000Y-79085750D01*
X105536250Y-78927000D01*
X104187000Y-78927000D01*
X104187000Y-78947000D01*
X103933000Y-78947000D01*
X103933000Y-78927000D01*
X102583750Y-78927000D01*
X102425000Y-79085750D01*
X102421928Y-79550000D01*
X102434188Y-79674482D01*
X102470498Y-79794180D01*
X102529463Y-79904494D01*
X102566809Y-79950000D01*
X102529463Y-79995506D01*
X102470498Y-80105820D01*
X102434188Y-80225518D01*
X102421928Y-80350000D01*
X102421928Y-81850000D01*
X102434188Y-81974482D01*
X102470498Y-82094180D01*
X102529463Y-82204494D01*
X102566809Y-82250000D01*
X102529463Y-82295506D01*
X102470498Y-82405820D01*
X102434188Y-82525518D01*
X102421928Y-82650000D01*
X102421928Y-84150000D01*
X102434188Y-84274482D01*
X102470498Y-84394180D01*
X102529463Y-84504494D01*
X102608815Y-84601185D01*
X102705506Y-84680537D01*
X102815820Y-84739502D01*
X102935518Y-84775812D01*
X103060000Y-84788072D01*
X103300001Y-84788072D01*
X103300001Y-85997668D01*
X103296324Y-86035000D01*
X103300001Y-86072333D01*
X103310416Y-86178071D01*
X103310998Y-86183985D01*
X103354454Y-86327246D01*
X103425026Y-86459276D01*
X103496201Y-86546002D01*
X103520000Y-86575001D01*
X103548998Y-86598799D01*
X105258685Y-88308486D01*
X105110699Y-88369784D01*
X104887951Y-88518619D01*
X104698519Y-88708051D01*
X104642972Y-88791183D01*
X104642972Y-88604475D01*
X104645875Y-88575000D01*
X104622030Y-88332898D01*
X104551411Y-88100099D01*
X104436733Y-87885551D01*
X104282402Y-87697498D01*
X104094349Y-87543167D01*
X103879801Y-87428489D01*
X103647002Y-87357870D01*
X103465565Y-87340000D01*
X102644235Y-87340000D01*
X102462798Y-87357870D01*
X102310800Y-87403978D01*
X102310800Y-78050000D01*
X102421928Y-78050000D01*
X102425000Y-78514250D01*
X102583750Y-78673000D01*
X103933000Y-78673000D01*
X103933000Y-77573750D01*
X104187000Y-77573750D01*
X104187000Y-78673000D01*
X105536250Y-78673000D01*
X105695000Y-78514250D01*
X105698072Y-78050000D01*
X105685812Y-77925518D01*
X105649502Y-77805820D01*
X105590537Y-77695506D01*
X105511185Y-77598815D01*
X105414494Y-77519463D01*
X105304180Y-77460498D01*
X105184482Y-77424188D01*
X105060000Y-77411928D01*
X104345750Y-77415000D01*
X104187000Y-77573750D01*
X103933000Y-77573750D01*
X103774250Y-77415000D01*
X103060000Y-77411928D01*
X102935518Y-77424188D01*
X102815820Y-77460498D01*
X102705506Y-77519463D01*
X102608815Y-77598815D01*
X102529463Y-77695506D01*
X102470498Y-77805820D01*
X102434188Y-77925518D01*
X102421928Y-78050000D01*
X102310800Y-78050000D01*
X102310800Y-74316516D01*
X102344463Y-74379494D01*
X102423815Y-74476185D01*
X102520506Y-74555537D01*
X102630820Y-74614502D01*
X102750518Y-74650812D01*
X102875000Y-74663072D01*
X103176750Y-74660000D01*
X103335500Y-74501250D01*
X103335500Y-73427000D01*
X103315500Y-73427000D01*
X103315500Y-73173000D01*
X103335500Y-73173000D01*
X103335500Y-72098750D01*
X103176750Y-71940000D01*
X102875000Y-71936928D01*
X102750518Y-71949188D01*
X102630820Y-71985498D01*
X102520506Y-72044463D01*
X102423815Y-72123815D01*
X102344463Y-72220506D01*
X102310800Y-72283484D01*
X102310800Y-71455450D01*
X102440000Y-71326250D01*
X102440000Y-70127000D01*
X102420000Y-70127000D01*
X102420000Y-69873000D01*
X102440000Y-69873000D01*
X102440000Y-68673750D01*
X102310800Y-68544550D01*
X102310800Y-67716516D01*
X102344463Y-67779494D01*
X102423815Y-67876185D01*
X102520506Y-67955537D01*
X102630820Y-68014502D01*
X102750518Y-68050812D01*
X102875000Y-68063072D01*
X103176750Y-68060000D01*
X103335500Y-67901250D01*
X103335500Y-66827000D01*
X103315500Y-66827000D01*
X103315500Y-66573000D01*
X103335500Y-66573000D01*
X103335500Y-65498750D01*
X103236750Y-65400000D01*
X103335500Y-65301250D01*
X103335500Y-64227000D01*
X103315500Y-64227000D01*
X103315500Y-63973000D01*
X103335500Y-63973000D01*
X103335500Y-62898750D01*
X103261750Y-62825000D01*
X103335500Y-62751250D01*
X103335500Y-61677000D01*
X103315500Y-61677000D01*
X103315500Y-61423000D01*
X103335500Y-61423000D01*
X103335500Y-61403000D01*
X103589500Y-61403000D01*
X103589500Y-61423000D01*
G04 #@! TA.AperFunction,Conductor*
D32*
G36*
X103589500Y-61423000D02*
G01*
X103609500Y-61423000D01*
X103609500Y-61677000D01*
X103589500Y-61677000D01*
X103589500Y-62751250D01*
X103615001Y-62776751D01*
X103615001Y-62873249D01*
X103589500Y-62898750D01*
X103589500Y-63973000D01*
X103609500Y-63973000D01*
X103609500Y-64227000D01*
X103589500Y-64227000D01*
X103589500Y-65301250D01*
X103688250Y-65400000D01*
X103589500Y-65498750D01*
X103589500Y-66573000D01*
X103609500Y-66573000D01*
X103609500Y-66827000D01*
X103589500Y-66827000D01*
X103589500Y-67901250D01*
X103748250Y-68060000D01*
X104050000Y-68063072D01*
X104174482Y-68050812D01*
X104294180Y-68014502D01*
X104404494Y-67955537D01*
X104501185Y-67876185D01*
X104566658Y-67796406D01*
X104572038Y-67802962D01*
X104706614Y-67913405D01*
X104860150Y-67995472D01*
X105026746Y-68046008D01*
X105200000Y-68063072D01*
X105875000Y-68063072D01*
X106048254Y-68046008D01*
X106214850Y-67995472D01*
X106368386Y-67913405D01*
X106452251Y-67844579D01*
X106467546Y-67895000D01*
X106449188Y-67955518D01*
X106436928Y-68080000D01*
X106436928Y-68513891D01*
X106417000Y-68511928D01*
X105517000Y-68511928D01*
X105392518Y-68524188D01*
X105272820Y-68560498D01*
X105162506Y-68619463D01*
X105065815Y-68698815D01*
X104986463Y-68795506D01*
X104927498Y-68905820D01*
X104891188Y-69025518D01*
X104878928Y-69150000D01*
X104878928Y-69164093D01*
X104757256Y-69082795D01*
X104568898Y-69004774D01*
X104368939Y-68965000D01*
X104165061Y-68965000D01*
X103965102Y-69004774D01*
X103776744Y-69082795D01*
X103654995Y-69164145D01*
X103655072Y-69150000D01*
X103642812Y-69025518D01*
X103606502Y-68905820D01*
X103547537Y-68795506D01*
X103468185Y-68698815D01*
X103371494Y-68619463D01*
X103261180Y-68560498D01*
X103141482Y-68524188D01*
X103017000Y-68511928D01*
X102852750Y-68515000D01*
X102694000Y-68673750D01*
X102694000Y-69873000D01*
X102714000Y-69873000D01*
X102714000Y-70127000D01*
X102694000Y-70127000D01*
X102694000Y-71326250D01*
X102852750Y-71485000D01*
X103017000Y-71488072D01*
X103141482Y-71475812D01*
X103261180Y-71439502D01*
X103371494Y-71380537D01*
X103468185Y-71301185D01*
X103547537Y-71204494D01*
X103606502Y-71094180D01*
X103642812Y-70974482D01*
X103655072Y-70850000D01*
X103654995Y-70835855D01*
X103776744Y-70917205D01*
X103965102Y-70995226D01*
X104165061Y-71035000D01*
X104368939Y-71035000D01*
X104568898Y-70995226D01*
X104757256Y-70917205D01*
X104878928Y-70835907D01*
X104878928Y-70850000D01*
X104891188Y-70974482D01*
X104927498Y-71094180D01*
X104986463Y-71204494D01*
X105065815Y-71301185D01*
X105162506Y-71380537D01*
X105272820Y-71439502D01*
X105392518Y-71475812D01*
X105517000Y-71488072D01*
X106417000Y-71488072D01*
X106436928Y-71486109D01*
X106436928Y-71520000D01*
X106449188Y-71644482D01*
X106467546Y-71705000D01*
X106449188Y-71765518D01*
X106436928Y-71890000D01*
X106436928Y-72142846D01*
X106368386Y-72086595D01*
X106214850Y-72004528D01*
X106048254Y-71953992D01*
X105875000Y-71936928D01*
X105200000Y-71936928D01*
X105026746Y-71953992D01*
X104860150Y-72004528D01*
X104706614Y-72086595D01*
X104572038Y-72197038D01*
X104566658Y-72203594D01*
X104501185Y-72123815D01*
X104404494Y-72044463D01*
X104294180Y-71985498D01*
X104174482Y-71949188D01*
X104050000Y-71936928D01*
X103748250Y-71940000D01*
X103589500Y-72098750D01*
X103589500Y-73173000D01*
X103609500Y-73173000D01*
X103609500Y-73427000D01*
X103589500Y-73427000D01*
X103589500Y-74501250D01*
X103748250Y-74660000D01*
X104050000Y-74663072D01*
X104174482Y-74650812D01*
X104294180Y-74614502D01*
X104404494Y-74555537D01*
X104501185Y-74476185D01*
X104566658Y-74396406D01*
X104572038Y-74402962D01*
X104706614Y-74513405D01*
X104860150Y-74595472D01*
X105026746Y-74646008D01*
X105200000Y-74663072D01*
X105875000Y-74663072D01*
X106048254Y-74646008D01*
X106214850Y-74595472D01*
X106368386Y-74513405D01*
X106436928Y-74457154D01*
X106436928Y-75330000D01*
X106449188Y-75454482D01*
X106485498Y-75574180D01*
X106544463Y-75684494D01*
X106623815Y-75781185D01*
X106720506Y-75860537D01*
X106830820Y-75919502D01*
X106950518Y-75955812D01*
X107075000Y-75968072D01*
X108640002Y-75968072D01*
X108640002Y-77821522D01*
X108635720Y-77865001D01*
X108652806Y-78038491D01*
X108703413Y-78205314D01*
X108785591Y-78359060D01*
X108868469Y-78460047D01*
X108868472Y-78460050D01*
X108896185Y-78493818D01*
X108929952Y-78521530D01*
X109052673Y-78644251D01*
X109005506Y-78669463D01*
X108908815Y-78748815D01*
X108829463Y-78845506D01*
X108770498Y-78955820D01*
X108734188Y-79075518D01*
X108721928Y-79200000D01*
X108721928Y-79965000D01*
X105565501Y-79965000D01*
X105553191Y-79950000D01*
X105590537Y-79904494D01*
X105649502Y-79794180D01*
X105685812Y-79674482D01*
X105698072Y-79550000D01*
X105695000Y-79085750D01*
X105536250Y-78927000D01*
X104187000Y-78927000D01*
X104187000Y-78947000D01*
X103933000Y-78947000D01*
X103933000Y-78927000D01*
X102583750Y-78927000D01*
X102425000Y-79085750D01*
X102421928Y-79550000D01*
X102434188Y-79674482D01*
X102470498Y-79794180D01*
X102529463Y-79904494D01*
X102566809Y-79950000D01*
X102529463Y-79995506D01*
X102470498Y-80105820D01*
X102434188Y-80225518D01*
X102421928Y-80350000D01*
X102421928Y-81850000D01*
X102434188Y-81974482D01*
X102470498Y-82094180D01*
X102529463Y-82204494D01*
X102566809Y-82250000D01*
X102529463Y-82295506D01*
X102470498Y-82405820D01*
X102434188Y-82525518D01*
X102421928Y-82650000D01*
X102421928Y-84150000D01*
X102434188Y-84274482D01*
X102470498Y-84394180D01*
X102529463Y-84504494D01*
X102608815Y-84601185D01*
X102705506Y-84680537D01*
X102815820Y-84739502D01*
X102935518Y-84775812D01*
X103060000Y-84788072D01*
X103300001Y-84788072D01*
X103300001Y-85997668D01*
X103296324Y-86035000D01*
X103300001Y-86072333D01*
X103310416Y-86178071D01*
X103310998Y-86183985D01*
X103354454Y-86327246D01*
X103425026Y-86459276D01*
X103496201Y-86546002D01*
X103520000Y-86575001D01*
X103548998Y-86598799D01*
X105258685Y-88308486D01*
X105110699Y-88369784D01*
X104887951Y-88518619D01*
X104698519Y-88708051D01*
X104642972Y-88791183D01*
X104642972Y-88604475D01*
X104645875Y-88575000D01*
X104622030Y-88332898D01*
X104551411Y-88100099D01*
X104436733Y-87885551D01*
X104282402Y-87697498D01*
X104094349Y-87543167D01*
X103879801Y-87428489D01*
X103647002Y-87357870D01*
X103465565Y-87340000D01*
X102644235Y-87340000D01*
X102462798Y-87357870D01*
X102310800Y-87403978D01*
X102310800Y-78050000D01*
X102421928Y-78050000D01*
X102425000Y-78514250D01*
X102583750Y-78673000D01*
X103933000Y-78673000D01*
X103933000Y-77573750D01*
X104187000Y-77573750D01*
X104187000Y-78673000D01*
X105536250Y-78673000D01*
X105695000Y-78514250D01*
X105698072Y-78050000D01*
X105685812Y-77925518D01*
X105649502Y-77805820D01*
X105590537Y-77695506D01*
X105511185Y-77598815D01*
X105414494Y-77519463D01*
X105304180Y-77460498D01*
X105184482Y-77424188D01*
X105060000Y-77411928D01*
X104345750Y-77415000D01*
X104187000Y-77573750D01*
X103933000Y-77573750D01*
X103774250Y-77415000D01*
X103060000Y-77411928D01*
X102935518Y-77424188D01*
X102815820Y-77460498D01*
X102705506Y-77519463D01*
X102608815Y-77598815D01*
X102529463Y-77695506D01*
X102470498Y-77805820D01*
X102434188Y-77925518D01*
X102421928Y-78050000D01*
X102310800Y-78050000D01*
X102310800Y-74316516D01*
X102344463Y-74379494D01*
X102423815Y-74476185D01*
X102520506Y-74555537D01*
X102630820Y-74614502D01*
X102750518Y-74650812D01*
X102875000Y-74663072D01*
X103176750Y-74660000D01*
X103335500Y-74501250D01*
X103335500Y-73427000D01*
X103315500Y-73427000D01*
X103315500Y-73173000D01*
X103335500Y-73173000D01*
X103335500Y-72098750D01*
X103176750Y-71940000D01*
X102875000Y-71936928D01*
X102750518Y-71949188D01*
X102630820Y-71985498D01*
X102520506Y-72044463D01*
X102423815Y-72123815D01*
X102344463Y-72220506D01*
X102310800Y-72283484D01*
X102310800Y-71455450D01*
X102440000Y-71326250D01*
X102440000Y-70127000D01*
X102420000Y-70127000D01*
X102420000Y-69873000D01*
X102440000Y-69873000D01*
X102440000Y-68673750D01*
X102310800Y-68544550D01*
X102310800Y-67716516D01*
X102344463Y-67779494D01*
X102423815Y-67876185D01*
X102520506Y-67955537D01*
X102630820Y-68014502D01*
X102750518Y-68050812D01*
X102875000Y-68063072D01*
X103176750Y-68060000D01*
X103335500Y-67901250D01*
X103335500Y-66827000D01*
X103315500Y-66827000D01*
X103315500Y-66573000D01*
X103335500Y-66573000D01*
X103335500Y-65498750D01*
X103236750Y-65400000D01*
X103335500Y-65301250D01*
X103335500Y-64227000D01*
X103315500Y-64227000D01*
X103315500Y-63973000D01*
X103335500Y-63973000D01*
X103335500Y-62898750D01*
X103261750Y-62825000D01*
X103335500Y-62751250D01*
X103335500Y-61677000D01*
X103315500Y-61677000D01*
X103315500Y-61423000D01*
X103335500Y-61423000D01*
X103335500Y-61403000D01*
X103589500Y-61403000D01*
X103589500Y-61423000D01*
G37*
G04 #@! TD.AperFunction*
D31*
X108721928Y-83000000D02*
X108734188Y-83124482D01*
X108770498Y-83244180D01*
X108829463Y-83354494D01*
X108908815Y-83451185D01*
X109005506Y-83530537D01*
X109115820Y-83589502D01*
X109235518Y-83625812D01*
X109360000Y-83638072D01*
X111360000Y-83638072D01*
X111484482Y-83625812D01*
X111604180Y-83589502D01*
X111714494Y-83530537D01*
X111811185Y-83451185D01*
X111890537Y-83354494D01*
X111949502Y-83244180D01*
X111985812Y-83124482D01*
X111998072Y-83000000D01*
X111998072Y-82380980D01*
X113303660Y-82380980D01*
X113303661Y-85185148D01*
X113299379Y-85228626D01*
X113303661Y-85272103D01*
X113303661Y-85395181D01*
X113299379Y-85438660D01*
X113316465Y-85612150D01*
X113367072Y-85778973D01*
X113414500Y-85867706D01*
X113414500Y-86373000D01*
X113434500Y-86373000D01*
X113434500Y-86627000D01*
X113414500Y-86627000D01*
X113414500Y-86647000D01*
X113160500Y-86647000D01*
X113160500Y-86627000D01*
X113140500Y-86627000D01*
X113140500Y-86373000D01*
X113160500Y-86373000D01*
X113160500Y-85298750D01*
X113001750Y-85140000D01*
X112700000Y-85136928D01*
X112575518Y-85149188D01*
X112455820Y-85185498D01*
X112345506Y-85244463D01*
X112248815Y-85323815D01*
X112183342Y-85403594D01*
X112177962Y-85397038D01*
X112043386Y-85286595D01*
X111889850Y-85204528D01*
X111723254Y-85153992D01*
X111550000Y-85136928D01*
X110875000Y-85136928D01*
X110701746Y-85153992D01*
X110535150Y-85204528D01*
X110381614Y-85286595D01*
X110247038Y-85397038D01*
X110136595Y-85531614D01*
X110054528Y-85685150D01*
X110003992Y-85851746D01*
X109986928Y-86025000D01*
X109986928Y-86975000D01*
X110003992Y-87148254D01*
X110054528Y-87314850D01*
X110136595Y-87468386D01*
X110247038Y-87602962D01*
X110377501Y-87710029D01*
X110377500Y-88281005D01*
X110297038Y-88347038D01*
X110186595Y-88481614D01*
X110104528Y-88635150D01*
X110057555Y-88790000D01*
X108238454Y-88790000D01*
X108190256Y-88757795D01*
X108001898Y-88679774D01*
X107801939Y-88640000D01*
X107739802Y-88640000D01*
X104820000Y-85720199D01*
X104820000Y-84788072D01*
X105060000Y-84788072D01*
X105184482Y-84775812D01*
X105304180Y-84739502D01*
X105414494Y-84680537D01*
X105511185Y-84601185D01*
X105590537Y-84504494D01*
X105649502Y-84394180D01*
X105685812Y-84274482D01*
X105698072Y-84150000D01*
X105698072Y-82650000D01*
X105685812Y-82525518D01*
X105649502Y-82405820D01*
X105590537Y-82295506D01*
X105553191Y-82250000D01*
X105565501Y-82235000D01*
X108721928Y-82235000D01*
X108721928Y-83000000D01*
G04 #@! TA.AperFunction,Conductor*
D32*
G36*
X108721928Y-83000000D02*
G01*
X108734188Y-83124482D01*
X108770498Y-83244180D01*
X108829463Y-83354494D01*
X108908815Y-83451185D01*
X109005506Y-83530537D01*
X109115820Y-83589502D01*
X109235518Y-83625812D01*
X109360000Y-83638072D01*
X111360000Y-83638072D01*
X111484482Y-83625812D01*
X111604180Y-83589502D01*
X111714494Y-83530537D01*
X111811185Y-83451185D01*
X111890537Y-83354494D01*
X111949502Y-83244180D01*
X111985812Y-83124482D01*
X111998072Y-83000000D01*
X111998072Y-82380980D01*
X113303660Y-82380980D01*
X113303661Y-85185148D01*
X113299379Y-85228626D01*
X113303661Y-85272103D01*
X113303661Y-85395181D01*
X113299379Y-85438660D01*
X113316465Y-85612150D01*
X113367072Y-85778973D01*
X113414500Y-85867706D01*
X113414500Y-86373000D01*
X113434500Y-86373000D01*
X113434500Y-86627000D01*
X113414500Y-86627000D01*
X113414500Y-86647000D01*
X113160500Y-86647000D01*
X113160500Y-86627000D01*
X113140500Y-86627000D01*
X113140500Y-86373000D01*
X113160500Y-86373000D01*
X113160500Y-85298750D01*
X113001750Y-85140000D01*
X112700000Y-85136928D01*
X112575518Y-85149188D01*
X112455820Y-85185498D01*
X112345506Y-85244463D01*
X112248815Y-85323815D01*
X112183342Y-85403594D01*
X112177962Y-85397038D01*
X112043386Y-85286595D01*
X111889850Y-85204528D01*
X111723254Y-85153992D01*
X111550000Y-85136928D01*
X110875000Y-85136928D01*
X110701746Y-85153992D01*
X110535150Y-85204528D01*
X110381614Y-85286595D01*
X110247038Y-85397038D01*
X110136595Y-85531614D01*
X110054528Y-85685150D01*
X110003992Y-85851746D01*
X109986928Y-86025000D01*
X109986928Y-86975000D01*
X110003992Y-87148254D01*
X110054528Y-87314850D01*
X110136595Y-87468386D01*
X110247038Y-87602962D01*
X110377501Y-87710029D01*
X110377500Y-88281005D01*
X110297038Y-88347038D01*
X110186595Y-88481614D01*
X110104528Y-88635150D01*
X110057555Y-88790000D01*
X108238454Y-88790000D01*
X108190256Y-88757795D01*
X108001898Y-88679774D01*
X107801939Y-88640000D01*
X107739802Y-88640000D01*
X104820000Y-85720199D01*
X104820000Y-84788072D01*
X105060000Y-84788072D01*
X105184482Y-84775812D01*
X105304180Y-84739502D01*
X105414494Y-84680537D01*
X105511185Y-84601185D01*
X105590537Y-84504494D01*
X105649502Y-84394180D01*
X105685812Y-84274482D01*
X105698072Y-84150000D01*
X105698072Y-82650000D01*
X105685812Y-82525518D01*
X105649502Y-82405820D01*
X105590537Y-82295506D01*
X105553191Y-82250000D01*
X105565501Y-82235000D01*
X108721928Y-82235000D01*
X108721928Y-83000000D01*
G37*
G04 #@! TD.AperFunction*
D31*
X127019615Y-78720385D02*
X127116306Y-78799737D01*
X127226620Y-78858702D01*
X127255105Y-78867343D01*
X127288155Y-78900393D01*
X127223212Y-78958931D01*
X127049159Y-79192280D01*
X126923975Y-79455101D01*
X126879324Y-79602310D01*
X127000645Y-79832200D01*
X128193800Y-79832200D01*
X128193800Y-79812200D01*
X128447800Y-79812200D01*
X128447800Y-79832200D01*
X128467800Y-79832200D01*
X128467800Y-80086200D01*
X128447800Y-80086200D01*
X128447800Y-80106200D01*
X128193800Y-80106200D01*
X128193800Y-80086200D01*
X127000645Y-80086200D01*
X126879324Y-80316090D01*
X126923975Y-80463299D01*
X127049159Y-80726120D01*
X127223212Y-80959469D01*
X127439445Y-81154378D01*
X127556334Y-81224005D01*
X127374168Y-81345725D01*
X127167325Y-81552568D01*
X127004810Y-81795789D01*
X126892868Y-82066042D01*
X126835800Y-82352940D01*
X126835800Y-82532397D01*
X125738352Y-81434950D01*
X125841606Y-81331696D01*
X125954874Y-81162178D01*
X126032895Y-80973820D01*
X126072669Y-80773861D01*
X126072669Y-80569983D01*
X126032895Y-80370024D01*
X125954874Y-80181666D01*
X125841606Y-80012148D01*
X125794097Y-79964639D01*
X125959774Y-79853937D01*
X126103937Y-79709774D01*
X126217205Y-79540256D01*
X126295226Y-79351898D01*
X126306535Y-79295043D01*
X126356531Y-79245047D01*
X126957221Y-78644358D01*
X127019615Y-78720385D01*
G04 #@! TA.AperFunction,Conductor*
D32*
G36*
X127019615Y-78720385D02*
G01*
X127116306Y-78799737D01*
X127226620Y-78858702D01*
X127255105Y-78867343D01*
X127288155Y-78900393D01*
X127223212Y-78958931D01*
X127049159Y-79192280D01*
X126923975Y-79455101D01*
X126879324Y-79602310D01*
X127000645Y-79832200D01*
X128193800Y-79832200D01*
X128193800Y-79812200D01*
X128447800Y-79812200D01*
X128447800Y-79832200D01*
X128467800Y-79832200D01*
X128467800Y-80086200D01*
X128447800Y-80086200D01*
X128447800Y-80106200D01*
X128193800Y-80106200D01*
X128193800Y-80086200D01*
X127000645Y-80086200D01*
X126879324Y-80316090D01*
X126923975Y-80463299D01*
X127049159Y-80726120D01*
X127223212Y-80959469D01*
X127439445Y-81154378D01*
X127556334Y-81224005D01*
X127374168Y-81345725D01*
X127167325Y-81552568D01*
X127004810Y-81795789D01*
X126892868Y-82066042D01*
X126835800Y-82352940D01*
X126835800Y-82532397D01*
X125738352Y-81434950D01*
X125841606Y-81331696D01*
X125954874Y-81162178D01*
X126032895Y-80973820D01*
X126072669Y-80773861D01*
X126072669Y-80569983D01*
X126032895Y-80370024D01*
X125954874Y-80181666D01*
X125841606Y-80012148D01*
X125794097Y-79964639D01*
X125959774Y-79853937D01*
X126103937Y-79709774D01*
X126217205Y-79540256D01*
X126295226Y-79351898D01*
X126306535Y-79295043D01*
X126356531Y-79245047D01*
X126957221Y-78644358D01*
X127019615Y-78720385D01*
G37*
G04 #@! TD.AperFunction*
D31*
X123720506Y-57389463D02*
X123623815Y-57468815D01*
X123544463Y-57565506D01*
X123485498Y-57675820D01*
X123449188Y-57795518D01*
X123436928Y-57920000D01*
X123440000Y-58084250D01*
X123598750Y-58243000D01*
X124948000Y-58243000D01*
X124948000Y-58223000D01*
X125202000Y-58223000D01*
X125202000Y-58243000D01*
X125222000Y-58243000D01*
X125222000Y-58497000D01*
X125202000Y-58497000D01*
X125202000Y-58517000D01*
X124948000Y-58517000D01*
X124948000Y-58497000D01*
X123598750Y-58497000D01*
X123440000Y-58655750D01*
X123436928Y-58820000D01*
X123449188Y-58944482D01*
X123467546Y-59005000D01*
X123449188Y-59065518D01*
X123436928Y-59190000D01*
X123436928Y-60090000D01*
X123449188Y-60214482D01*
X123467546Y-60275000D01*
X123449188Y-60335518D01*
X123436928Y-60460000D01*
X123436928Y-61360000D01*
X123449188Y-61484482D01*
X123466782Y-61542483D01*
X123456181Y-61551183D01*
X123428464Y-61584956D01*
X123029955Y-61983465D01*
X122996182Y-62011182D01*
X122885588Y-62145941D01*
X122803410Y-62299687D01*
X122777538Y-62384974D01*
X122752804Y-62466509D01*
X122752513Y-62469463D01*
X122739999Y-62596523D01*
X122739999Y-62596530D01*
X122735718Y-62639999D01*
X122739999Y-62683468D01*
X122740000Y-74241928D01*
X121840000Y-74241928D01*
X121715518Y-74254188D01*
X121655000Y-74272546D01*
X121594482Y-74254188D01*
X121470000Y-74241928D01*
X120570000Y-74241928D01*
X120445518Y-74254188D01*
X120385000Y-74272546D01*
X120324482Y-74254188D01*
X120200000Y-74241928D01*
X119300000Y-74241928D01*
X119175518Y-74254188D01*
X119115000Y-74272546D01*
X119054482Y-74254188D01*
X118930000Y-74241928D01*
X118030000Y-74241928D01*
X117905518Y-74254188D01*
X117845000Y-74272546D01*
X117784482Y-74254188D01*
X117660000Y-74241928D01*
X116760000Y-74241928D01*
X116635518Y-74254188D01*
X116575000Y-74272546D01*
X116514482Y-74254188D01*
X116390000Y-74241928D01*
X115490000Y-74241928D01*
X115365518Y-74254188D01*
X115305000Y-74272546D01*
X115244482Y-74254188D01*
X115120000Y-74241928D01*
X114220000Y-74241928D01*
X114095518Y-74254188D01*
X114035000Y-74272546D01*
X113974482Y-74254188D01*
X113850000Y-74241928D01*
X112950000Y-74241928D01*
X112825518Y-74254188D01*
X112765000Y-74272546D01*
X112704482Y-74254188D01*
X112580000Y-74241928D01*
X111680000Y-74241928D01*
X111555518Y-74254188D01*
X111495000Y-74272546D01*
X111434482Y-74254188D01*
X111310000Y-74241928D01*
X111145750Y-74245000D01*
X110987000Y-74403750D01*
X110987000Y-75753000D01*
X111007000Y-75753000D01*
X111007000Y-76007000D01*
X110987000Y-76007000D01*
X110987000Y-77356250D01*
X111145750Y-77515000D01*
X111310000Y-77518072D01*
X111434482Y-77505812D01*
X111495000Y-77487454D01*
X111555518Y-77505812D01*
X111680000Y-77518072D01*
X112467213Y-77518072D01*
X112454774Y-77548102D01*
X112415000Y-77748061D01*
X112415000Y-77951939D01*
X112454774Y-78151898D01*
X112532795Y-78340256D01*
X112565000Y-78388455D01*
X112565001Y-79423843D01*
X112560719Y-79467322D01*
X112577805Y-79640812D01*
X112628412Y-79807635D01*
X112710590Y-79961381D01*
X112793468Y-80062368D01*
X112793471Y-80062371D01*
X112821184Y-80096139D01*
X112854951Y-80123851D01*
X113332255Y-80601156D01*
X113324192Y-80610980D01*
X111998072Y-80610980D01*
X111998072Y-79200000D01*
X111985812Y-79075518D01*
X111949502Y-78955820D01*
X111890537Y-78845506D01*
X111811185Y-78748815D01*
X111714494Y-78669463D01*
X111604180Y-78610498D01*
X111484482Y-78574188D01*
X111360000Y-78561928D01*
X111235683Y-78561928D01*
X111232195Y-78526510D01*
X111181589Y-78359687D01*
X111099411Y-78205941D01*
X111039381Y-78132795D01*
X111016532Y-78104953D01*
X111016530Y-78104951D01*
X110988817Y-78071183D01*
X110955050Y-78043471D01*
X110429290Y-77517711D01*
X110574250Y-77515000D01*
X110733000Y-77356250D01*
X110733000Y-76007000D01*
X110713000Y-76007000D01*
X110713000Y-75753000D01*
X110733000Y-75753000D01*
X110733000Y-74403750D01*
X110574250Y-74245000D01*
X110410001Y-74241928D01*
X110410001Y-68370000D01*
X112436928Y-68370000D01*
X112449188Y-68494482D01*
X112485498Y-68614180D01*
X112544463Y-68724494D01*
X112623815Y-68821185D01*
X112720506Y-68900537D01*
X112830820Y-68959502D01*
X112950518Y-68995812D01*
X113075000Y-69008072D01*
X115289250Y-69005000D01*
X115448000Y-68846250D01*
X115448000Y-65997000D01*
X115702000Y-65997000D01*
X115702000Y-68846250D01*
X115860750Y-69005000D01*
X118075000Y-69008072D01*
X118199482Y-68995812D01*
X118319180Y-68959502D01*
X118429494Y-68900537D01*
X118526185Y-68821185D01*
X118605537Y-68724494D01*
X118664502Y-68614180D01*
X118700812Y-68494482D01*
X118713072Y-68370000D01*
X118710000Y-66155750D01*
X118551250Y-65997000D01*
X115702000Y-65997000D01*
X115448000Y-65997000D01*
X112598750Y-65997000D01*
X112440000Y-66155750D01*
X112436928Y-68370000D01*
X110410001Y-68370000D01*
X110410001Y-63370000D01*
X112436928Y-63370000D01*
X112440000Y-65584250D01*
X112598750Y-65743000D01*
X115448000Y-65743000D01*
X115448000Y-62893750D01*
X115702000Y-62893750D01*
X115702000Y-65743000D01*
X118551250Y-65743000D01*
X118710000Y-65584250D01*
X118713072Y-63370000D01*
X118700812Y-63245518D01*
X118664502Y-63125820D01*
X118605537Y-63015506D01*
X118526185Y-62918815D01*
X118429494Y-62839463D01*
X118319180Y-62780498D01*
X118199482Y-62744188D01*
X118075000Y-62731928D01*
X115860750Y-62735000D01*
X115702000Y-62893750D01*
X115448000Y-62893750D01*
X115289250Y-62735000D01*
X113075000Y-62731928D01*
X112950518Y-62744188D01*
X112830820Y-62780498D01*
X112720506Y-62839463D01*
X112623815Y-62918815D01*
X112544463Y-63015506D01*
X112485498Y-63125820D01*
X112449188Y-63245518D01*
X112436928Y-63370000D01*
X110410001Y-63370000D01*
X110410001Y-60143468D01*
X110414282Y-60099999D01*
X110410001Y-60056530D01*
X110410001Y-60056522D01*
X110397196Y-59926509D01*
X110346590Y-59759686D01*
X110282617Y-59640000D01*
X110346590Y-59520314D01*
X110397196Y-59353491D01*
X110410001Y-59223478D01*
X110410001Y-59223470D01*
X110414282Y-59180001D01*
X110410001Y-59136532D01*
X110410001Y-57603464D01*
X110414282Y-57559998D01*
X110410001Y-57516532D01*
X110410001Y-57516522D01*
X110397196Y-57386509D01*
X110383118Y-57340100D01*
X123812856Y-57340100D01*
X123720506Y-57389463D01*
G04 #@! TA.AperFunction,Conductor*
D32*
G36*
X123720506Y-57389463D02*
G01*
X123623815Y-57468815D01*
X123544463Y-57565506D01*
X123485498Y-57675820D01*
X123449188Y-57795518D01*
X123436928Y-57920000D01*
X123440000Y-58084250D01*
X123598750Y-58243000D01*
X124948000Y-58243000D01*
X124948000Y-58223000D01*
X125202000Y-58223000D01*
X125202000Y-58243000D01*
X125222000Y-58243000D01*
X125222000Y-58497000D01*
X125202000Y-58497000D01*
X125202000Y-58517000D01*
X124948000Y-58517000D01*
X124948000Y-58497000D01*
X123598750Y-58497000D01*
X123440000Y-58655750D01*
X123436928Y-58820000D01*
X123449188Y-58944482D01*
X123467546Y-59005000D01*
X123449188Y-59065518D01*
X123436928Y-59190000D01*
X123436928Y-60090000D01*
X123449188Y-60214482D01*
X123467546Y-60275000D01*
X123449188Y-60335518D01*
X123436928Y-60460000D01*
X123436928Y-61360000D01*
X123449188Y-61484482D01*
X123466782Y-61542483D01*
X123456181Y-61551183D01*
X123428464Y-61584956D01*
X123029955Y-61983465D01*
X122996182Y-62011182D01*
X122885588Y-62145941D01*
X122803410Y-62299687D01*
X122777538Y-62384974D01*
X122752804Y-62466509D01*
X122752513Y-62469463D01*
X122739999Y-62596523D01*
X122739999Y-62596530D01*
X122735718Y-62639999D01*
X122739999Y-62683468D01*
X122740000Y-74241928D01*
X121840000Y-74241928D01*
X121715518Y-74254188D01*
X121655000Y-74272546D01*
X121594482Y-74254188D01*
X121470000Y-74241928D01*
X120570000Y-74241928D01*
X120445518Y-74254188D01*
X120385000Y-74272546D01*
X120324482Y-74254188D01*
X120200000Y-74241928D01*
X119300000Y-74241928D01*
X119175518Y-74254188D01*
X119115000Y-74272546D01*
X119054482Y-74254188D01*
X118930000Y-74241928D01*
X118030000Y-74241928D01*
X117905518Y-74254188D01*
X117845000Y-74272546D01*
X117784482Y-74254188D01*
X117660000Y-74241928D01*
X116760000Y-74241928D01*
X116635518Y-74254188D01*
X116575000Y-74272546D01*
X116514482Y-74254188D01*
X116390000Y-74241928D01*
X115490000Y-74241928D01*
X115365518Y-74254188D01*
X115305000Y-74272546D01*
X115244482Y-74254188D01*
X115120000Y-74241928D01*
X114220000Y-74241928D01*
X114095518Y-74254188D01*
X114035000Y-74272546D01*
X113974482Y-74254188D01*
X113850000Y-74241928D01*
X112950000Y-74241928D01*
X112825518Y-74254188D01*
X112765000Y-74272546D01*
X112704482Y-74254188D01*
X112580000Y-74241928D01*
X111680000Y-74241928D01*
X111555518Y-74254188D01*
X111495000Y-74272546D01*
X111434482Y-74254188D01*
X111310000Y-74241928D01*
X111145750Y-74245000D01*
X110987000Y-74403750D01*
X110987000Y-75753000D01*
X111007000Y-75753000D01*
X111007000Y-76007000D01*
X110987000Y-76007000D01*
X110987000Y-77356250D01*
X111145750Y-77515000D01*
X111310000Y-77518072D01*
X111434482Y-77505812D01*
X111495000Y-77487454D01*
X111555518Y-77505812D01*
X111680000Y-77518072D01*
X112467213Y-77518072D01*
X112454774Y-77548102D01*
X112415000Y-77748061D01*
X112415000Y-77951939D01*
X112454774Y-78151898D01*
X112532795Y-78340256D01*
X112565000Y-78388455D01*
X112565001Y-79423843D01*
X112560719Y-79467322D01*
X112577805Y-79640812D01*
X112628412Y-79807635D01*
X112710590Y-79961381D01*
X112793468Y-80062368D01*
X112793471Y-80062371D01*
X112821184Y-80096139D01*
X112854951Y-80123851D01*
X113332255Y-80601156D01*
X113324192Y-80610980D01*
X111998072Y-80610980D01*
X111998072Y-79200000D01*
X111985812Y-79075518D01*
X111949502Y-78955820D01*
X111890537Y-78845506D01*
X111811185Y-78748815D01*
X111714494Y-78669463D01*
X111604180Y-78610498D01*
X111484482Y-78574188D01*
X111360000Y-78561928D01*
X111235683Y-78561928D01*
X111232195Y-78526510D01*
X111181589Y-78359687D01*
X111099411Y-78205941D01*
X111039381Y-78132795D01*
X111016532Y-78104953D01*
X111016530Y-78104951D01*
X110988817Y-78071183D01*
X110955050Y-78043471D01*
X110429290Y-77517711D01*
X110574250Y-77515000D01*
X110733000Y-77356250D01*
X110733000Y-76007000D01*
X110713000Y-76007000D01*
X110713000Y-75753000D01*
X110733000Y-75753000D01*
X110733000Y-74403750D01*
X110574250Y-74245000D01*
X110410001Y-74241928D01*
X110410001Y-68370000D01*
X112436928Y-68370000D01*
X112449188Y-68494482D01*
X112485498Y-68614180D01*
X112544463Y-68724494D01*
X112623815Y-68821185D01*
X112720506Y-68900537D01*
X112830820Y-68959502D01*
X112950518Y-68995812D01*
X113075000Y-69008072D01*
X115289250Y-69005000D01*
X115448000Y-68846250D01*
X115448000Y-65997000D01*
X115702000Y-65997000D01*
X115702000Y-68846250D01*
X115860750Y-69005000D01*
X118075000Y-69008072D01*
X118199482Y-68995812D01*
X118319180Y-68959502D01*
X118429494Y-68900537D01*
X118526185Y-68821185D01*
X118605537Y-68724494D01*
X118664502Y-68614180D01*
X118700812Y-68494482D01*
X118713072Y-68370000D01*
X118710000Y-66155750D01*
X118551250Y-65997000D01*
X115702000Y-65997000D01*
X115448000Y-65997000D01*
X112598750Y-65997000D01*
X112440000Y-66155750D01*
X112436928Y-68370000D01*
X110410001Y-68370000D01*
X110410001Y-63370000D01*
X112436928Y-63370000D01*
X112440000Y-65584250D01*
X112598750Y-65743000D01*
X115448000Y-65743000D01*
X115448000Y-62893750D01*
X115702000Y-62893750D01*
X115702000Y-65743000D01*
X118551250Y-65743000D01*
X118710000Y-65584250D01*
X118713072Y-63370000D01*
X118700812Y-63245518D01*
X118664502Y-63125820D01*
X118605537Y-63015506D01*
X118526185Y-62918815D01*
X118429494Y-62839463D01*
X118319180Y-62780498D01*
X118199482Y-62744188D01*
X118075000Y-62731928D01*
X115860750Y-62735000D01*
X115702000Y-62893750D01*
X115448000Y-62893750D01*
X115289250Y-62735000D01*
X113075000Y-62731928D01*
X112950518Y-62744188D01*
X112830820Y-62780498D01*
X112720506Y-62839463D01*
X112623815Y-62918815D01*
X112544463Y-63015506D01*
X112485498Y-63125820D01*
X112449188Y-63245518D01*
X112436928Y-63370000D01*
X110410001Y-63370000D01*
X110410001Y-60143468D01*
X110414282Y-60099999D01*
X110410001Y-60056530D01*
X110410001Y-60056522D01*
X110397196Y-59926509D01*
X110346590Y-59759686D01*
X110282617Y-59640000D01*
X110346590Y-59520314D01*
X110397196Y-59353491D01*
X110410001Y-59223478D01*
X110410001Y-59223470D01*
X110414282Y-59180001D01*
X110410001Y-59136532D01*
X110410001Y-57603464D01*
X110414282Y-57559998D01*
X110410001Y-57516532D01*
X110410001Y-57516522D01*
X110397196Y-57386509D01*
X110383118Y-57340100D01*
X123812856Y-57340100D01*
X123720506Y-57389463D01*
G37*
G04 #@! TD.AperFunction*
D31*
X130962800Y-77254960D02*
X130517725Y-76809885D01*
X130466515Y-76747485D01*
X130217553Y-76543168D01*
X129933516Y-76391347D01*
X129764907Y-76340200D01*
X129760302Y-76325020D01*
X129701337Y-76214706D01*
X129621985Y-76118015D01*
X129525294Y-76038663D01*
X129414980Y-75979698D01*
X129295282Y-75943388D01*
X129170800Y-75931128D01*
X129005228Y-75931128D01*
X128949514Y-75901348D01*
X128641315Y-75807857D01*
X128320800Y-75776289D01*
X128000284Y-75807857D01*
X127692085Y-75901348D01*
X127636371Y-75931128D01*
X127584999Y-75931128D01*
X127584999Y-63618464D01*
X127589280Y-63574998D01*
X127584999Y-63531532D01*
X127584999Y-63531522D01*
X127572194Y-63401509D01*
X127521588Y-63234686D01*
X127442846Y-63087367D01*
X127449999Y-63088072D01*
X128150001Y-63088072D01*
X128323255Y-63071008D01*
X128489851Y-63020472D01*
X128643387Y-62938405D01*
X128777962Y-62827962D01*
X128800000Y-62801109D01*
X128822038Y-62827962D01*
X128956613Y-62938405D01*
X129110149Y-63020472D01*
X129276745Y-63071008D01*
X129449999Y-63088072D01*
X130150001Y-63088072D01*
X130323255Y-63071008D01*
X130489851Y-63020472D01*
X130643387Y-62938405D01*
X130777962Y-62827962D01*
X130888405Y-62693387D01*
X130962800Y-62554204D01*
X130962800Y-77254960D01*
G04 #@! TA.AperFunction,Conductor*
D32*
G36*
X130962800Y-77254960D02*
G01*
X130517725Y-76809885D01*
X130466515Y-76747485D01*
X130217553Y-76543168D01*
X129933516Y-76391347D01*
X129764907Y-76340200D01*
X129760302Y-76325020D01*
X129701337Y-76214706D01*
X129621985Y-76118015D01*
X129525294Y-76038663D01*
X129414980Y-75979698D01*
X129295282Y-75943388D01*
X129170800Y-75931128D01*
X129005228Y-75931128D01*
X128949514Y-75901348D01*
X128641315Y-75807857D01*
X128320800Y-75776289D01*
X128000284Y-75807857D01*
X127692085Y-75901348D01*
X127636371Y-75931128D01*
X127584999Y-75931128D01*
X127584999Y-63618464D01*
X127589280Y-63574998D01*
X127584999Y-63531532D01*
X127584999Y-63531522D01*
X127572194Y-63401509D01*
X127521588Y-63234686D01*
X127442846Y-63087367D01*
X127449999Y-63088072D01*
X128150001Y-63088072D01*
X128323255Y-63071008D01*
X128489851Y-63020472D01*
X128643387Y-62938405D01*
X128777962Y-62827962D01*
X128800000Y-62801109D01*
X128822038Y-62827962D01*
X128956613Y-62938405D01*
X129110149Y-63020472D01*
X129276745Y-63071008D01*
X129449999Y-63088072D01*
X130150001Y-63088072D01*
X130323255Y-63071008D01*
X130489851Y-63020472D01*
X130643387Y-62938405D01*
X130777962Y-62827962D01*
X130888405Y-62693387D01*
X130962800Y-62554204D01*
X130962800Y-77254960D01*
G37*
G04 #@! TD.AperFunction*
D31*
X129029129Y-56829960D02*
X129633446Y-56832499D01*
X129633536Y-56832499D01*
X130359976Y-56835039D01*
X130360943Y-56835039D01*
X130962800Y-56832562D01*
X130962800Y-58345796D01*
X130888405Y-58206613D01*
X130777962Y-58072038D01*
X130643387Y-57961595D01*
X130489851Y-57879528D01*
X130323255Y-57828992D01*
X130150001Y-57811928D01*
X129499999Y-57811928D01*
X129326745Y-57828992D01*
X129160149Y-57879528D01*
X129006613Y-57961595D01*
X128872038Y-58072038D01*
X128866658Y-58078594D01*
X128801185Y-57998815D01*
X128704494Y-57919463D01*
X128594180Y-57860498D01*
X128474482Y-57824188D01*
X128350000Y-57811928D01*
X128060750Y-57815000D01*
X127902000Y-57973750D01*
X127902000Y-59023000D01*
X127922000Y-59023000D01*
X127922000Y-59277000D01*
X127902000Y-59277000D01*
X127902000Y-59297000D01*
X127648000Y-59297000D01*
X127648000Y-59277000D01*
X127628000Y-59277000D01*
X127628000Y-59023000D01*
X127648000Y-59023000D01*
X127648000Y-57973750D01*
X127489250Y-57815000D01*
X127200000Y-57811928D01*
X127075518Y-57824188D01*
X126955820Y-57860498D01*
X126845506Y-57919463D01*
X126748815Y-57998815D01*
X126710730Y-58045222D01*
X126713072Y-57920000D01*
X126700812Y-57795518D01*
X126664502Y-57675820D01*
X126605537Y-57565506D01*
X126526185Y-57468815D01*
X126429494Y-57389463D01*
X126319180Y-57330498D01*
X126199482Y-57294188D01*
X126079519Y-57282373D01*
X126174650Y-57231525D01*
X126275148Y-57149048D01*
X126357625Y-57048550D01*
X126418910Y-56933893D01*
X126449600Y-56832725D01*
X127777323Y-56827421D01*
X129029129Y-56829960D01*
G04 #@! TA.AperFunction,Conductor*
D32*
G36*
X129029129Y-56829960D02*
G01*
X129633446Y-56832499D01*
X129633536Y-56832499D01*
X130359976Y-56835039D01*
X130360943Y-56835039D01*
X130962800Y-56832562D01*
X130962800Y-58345796D01*
X130888405Y-58206613D01*
X130777962Y-58072038D01*
X130643387Y-57961595D01*
X130489851Y-57879528D01*
X130323255Y-57828992D01*
X130150001Y-57811928D01*
X129499999Y-57811928D01*
X129326745Y-57828992D01*
X129160149Y-57879528D01*
X129006613Y-57961595D01*
X128872038Y-58072038D01*
X128866658Y-58078594D01*
X128801185Y-57998815D01*
X128704494Y-57919463D01*
X128594180Y-57860498D01*
X128474482Y-57824188D01*
X128350000Y-57811928D01*
X128060750Y-57815000D01*
X127902000Y-57973750D01*
X127902000Y-59023000D01*
X127922000Y-59023000D01*
X127922000Y-59277000D01*
X127902000Y-59277000D01*
X127902000Y-59297000D01*
X127648000Y-59297000D01*
X127648000Y-59277000D01*
X127628000Y-59277000D01*
X127628000Y-59023000D01*
X127648000Y-59023000D01*
X127648000Y-57973750D01*
X127489250Y-57815000D01*
X127200000Y-57811928D01*
X127075518Y-57824188D01*
X126955820Y-57860498D01*
X126845506Y-57919463D01*
X126748815Y-57998815D01*
X126710730Y-58045222D01*
X126713072Y-57920000D01*
X126700812Y-57795518D01*
X126664502Y-57675820D01*
X126605537Y-57565506D01*
X126526185Y-57468815D01*
X126429494Y-57389463D01*
X126319180Y-57330498D01*
X126199482Y-57294188D01*
X126079519Y-57282373D01*
X126174650Y-57231525D01*
X126275148Y-57149048D01*
X126357625Y-57048550D01*
X126418910Y-56933893D01*
X126449600Y-56832725D01*
X127777323Y-56827421D01*
X129029129Y-56829960D01*
G37*
G04 #@! TD.AperFunction*
D31*
X108202000Y-58243000D02*
X108222000Y-58243000D01*
X108222000Y-58497000D01*
X108202000Y-58497000D01*
X108202000Y-58517000D01*
X107948000Y-58517000D01*
X107948000Y-58497000D01*
X107928000Y-58497000D01*
X107928000Y-58243000D01*
X107948000Y-58243000D01*
X107948000Y-58223000D01*
X108202000Y-58223000D01*
X108202000Y-58243000D01*
G04 #@! TA.AperFunction,Conductor*
D32*
G36*
X108202000Y-58243000D02*
G01*
X108222000Y-58243000D01*
X108222000Y-58497000D01*
X108202000Y-58497000D01*
X108202000Y-58517000D01*
X107948000Y-58517000D01*
X107948000Y-58497000D01*
X107928000Y-58497000D01*
X107928000Y-58243000D01*
X107948000Y-58243000D01*
X107948000Y-58223000D01*
X108202000Y-58223000D01*
X108202000Y-58243000D01*
G37*
G04 #@! TD.AperFunction*
M02*
