G04 #@! TF.GenerationSoftware,KiCad,Pcbnew,(5.1.9)-1*
G04 #@! TF.CreationDate,2021-01-22T20:27:00+08:00*
G04 #@! TF.ProjectId,esp-break,6573702d-6272-4656-916b-2e6b69636164,rev?*
G04 #@! TF.SameCoordinates,Original*
G04 #@! TF.FileFunction,Paste,Top*
G04 #@! TF.FilePolarity,Positive*
%FSLAX46Y46*%
G04 Gerber Fmt 4.6, Leading zero omitted, Abs format (unit mm)*
G04 Created by KiCad (PCBNEW (5.1.9)-1) date 2021-01-22 20:27:00*
%MOMM*%
%LPD*%
G01*
G04 APERTURE LIST*
%ADD10R,0.900000X1.700000*%
%ADD11C,0.800000*%
%ADD12R,5.000000X5.000000*%
%ADD13R,2.000000X0.900000*%
%ADD14R,0.900000X2.000000*%
%ADD15R,0.800000X0.900000*%
%ADD16R,1.900000X1.500000*%
%ADD17R,1.350000X0.400000*%
%ADD18R,2.000000X3.800000*%
%ADD19R,2.000000X1.500000*%
G04 APERTURE END LIST*
D10*
X105967000Y-70000000D03*
X102567000Y-70000000D03*
D11*
X104267000Y-70000000D03*
D12*
X115575000Y-65870000D03*
D13*
X108075000Y-58370000D03*
X108075000Y-59640000D03*
X108075000Y-60910000D03*
X108075000Y-62180000D03*
X108075000Y-63450000D03*
X108075000Y-64720000D03*
X108075000Y-65990000D03*
X108075000Y-67260000D03*
X108075000Y-68530000D03*
X108075000Y-69800000D03*
X108075000Y-71070000D03*
X108075000Y-72340000D03*
X108075000Y-73610000D03*
X108075000Y-74880000D03*
D14*
X110860000Y-75880000D03*
X112130000Y-75880000D03*
X113400000Y-75880000D03*
X114670000Y-75880000D03*
X115940000Y-75880000D03*
X117210000Y-75880000D03*
X118480000Y-75880000D03*
X119750000Y-75880000D03*
X121020000Y-75880000D03*
X122290000Y-75880000D03*
D13*
X125075000Y-74880000D03*
X125075000Y-73610000D03*
X125075000Y-72340000D03*
X125075000Y-71070000D03*
X125075000Y-69800000D03*
X125075000Y-68530000D03*
X125075000Y-67260000D03*
X125075000Y-65990000D03*
X125075000Y-64720000D03*
X125075000Y-63450000D03*
X125075000Y-62180000D03*
X125075000Y-60910000D03*
X125075000Y-59640000D03*
X125075000Y-58370000D03*
D15*
X115138660Y-79495980D03*
X116088660Y-81495980D03*
X114188660Y-81495980D03*
X118276300Y-81472740D03*
X120176300Y-81472740D03*
X119226300Y-79472740D03*
D16*
X103054900Y-93075000D03*
D17*
X105754900Y-91425000D03*
X105754900Y-90775000D03*
X105754900Y-93375000D03*
X105754900Y-92725000D03*
X105754900Y-92075000D03*
D16*
X103054900Y-91075000D03*
D18*
X110360000Y-81100000D03*
D19*
X104060000Y-81100000D03*
X104060000Y-83400000D03*
X104060000Y-78800000D03*
G36*
G01*
X110675000Y-89925000D02*
X110675000Y-88975000D01*
G75*
G02*
X110925000Y-88725000I250000J0D01*
G01*
X111600000Y-88725000D01*
G75*
G02*
X111850000Y-88975000I0J-250000D01*
G01*
X111850000Y-89925000D01*
G75*
G02*
X111600000Y-90175000I-250000J0D01*
G01*
X110925000Y-90175000D01*
G75*
G02*
X110675000Y-89925000I0J250000D01*
G01*
G37*
G36*
G01*
X112750000Y-89925000D02*
X112750000Y-88975000D01*
G75*
G02*
X113000000Y-88725000I250000J0D01*
G01*
X113675000Y-88725000D01*
G75*
G02*
X113925000Y-88975000I0J-250000D01*
G01*
X113925000Y-89925000D01*
G75*
G02*
X113675000Y-90175000I-250000J0D01*
G01*
X113000000Y-90175000D01*
G75*
G02*
X112750000Y-89925000I0J250000D01*
G01*
G37*
G36*
G01*
X112700000Y-86975000D02*
X112700000Y-86025000D01*
G75*
G02*
X112950000Y-85775000I250000J0D01*
G01*
X113625000Y-85775000D01*
G75*
G02*
X113875000Y-86025000I0J-250000D01*
G01*
X113875000Y-86975000D01*
G75*
G02*
X113625000Y-87225000I-250000J0D01*
G01*
X112950000Y-87225000D01*
G75*
G02*
X112700000Y-86975000I0J250000D01*
G01*
G37*
G36*
G01*
X110625000Y-86975000D02*
X110625000Y-86025000D01*
G75*
G02*
X110875000Y-85775000I250000J0D01*
G01*
X111550000Y-85775000D01*
G75*
G02*
X111800000Y-86025000I0J-250000D01*
G01*
X111800000Y-86975000D01*
G75*
G02*
X111550000Y-87225000I-250000J0D01*
G01*
X110875000Y-87225000D01*
G75*
G02*
X110625000Y-86975000I0J250000D01*
G01*
G37*
G36*
G01*
X106125000Y-63625000D02*
X106125000Y-64575000D01*
G75*
G02*
X105875000Y-64825000I-250000J0D01*
G01*
X105200000Y-64825000D01*
G75*
G02*
X104950000Y-64575000I0J250000D01*
G01*
X104950000Y-63625000D01*
G75*
G02*
X105200000Y-63375000I250000J0D01*
G01*
X105875000Y-63375000D01*
G75*
G02*
X106125000Y-63625000I0J-250000D01*
G01*
G37*
G36*
G01*
X104050000Y-63625000D02*
X104050000Y-64575000D01*
G75*
G02*
X103800000Y-64825000I-250000J0D01*
G01*
X103125000Y-64825000D01*
G75*
G02*
X102875000Y-64575000I0J250000D01*
G01*
X102875000Y-63625000D01*
G75*
G02*
X103125000Y-63375000I250000J0D01*
G01*
X103800000Y-63375000D01*
G75*
G02*
X104050000Y-63625000I0J-250000D01*
G01*
G37*
G36*
G01*
X104050000Y-66225000D02*
X104050000Y-67175000D01*
G75*
G02*
X103800000Y-67425000I-250000J0D01*
G01*
X103125000Y-67425000D01*
G75*
G02*
X102875000Y-67175000I0J250000D01*
G01*
X102875000Y-66225000D01*
G75*
G02*
X103125000Y-65975000I250000J0D01*
G01*
X103800000Y-65975000D01*
G75*
G02*
X104050000Y-66225000I0J-250000D01*
G01*
G37*
G36*
G01*
X106125000Y-66225000D02*
X106125000Y-67175000D01*
G75*
G02*
X105875000Y-67425000I-250000J0D01*
G01*
X105200000Y-67425000D01*
G75*
G02*
X104950000Y-67175000I0J250000D01*
G01*
X104950000Y-66225000D01*
G75*
G02*
X105200000Y-65975000I250000J0D01*
G01*
X105875000Y-65975000D01*
G75*
G02*
X106125000Y-66225000I0J-250000D01*
G01*
G37*
G36*
G01*
X104950000Y-62025000D02*
X104950000Y-61075000D01*
G75*
G02*
X105200000Y-60825000I250000J0D01*
G01*
X105875000Y-60825000D01*
G75*
G02*
X106125000Y-61075000I0J-250000D01*
G01*
X106125000Y-62025000D01*
G75*
G02*
X105875000Y-62275000I-250000J0D01*
G01*
X105200000Y-62275000D01*
G75*
G02*
X104950000Y-62025000I0J250000D01*
G01*
G37*
G36*
G01*
X102875000Y-62025000D02*
X102875000Y-61075000D01*
G75*
G02*
X103125000Y-60825000I250000J0D01*
G01*
X103800000Y-60825000D01*
G75*
G02*
X104050000Y-61075000I0J-250000D01*
G01*
X104050000Y-62025000D01*
G75*
G02*
X103800000Y-62275000I-250000J0D01*
G01*
X103125000Y-62275000D01*
G75*
G02*
X102875000Y-62025000I0J250000D01*
G01*
G37*
G36*
G01*
X102875000Y-73775000D02*
X102875000Y-72825000D01*
G75*
G02*
X103125000Y-72575000I250000J0D01*
G01*
X103800000Y-72575000D01*
G75*
G02*
X104050000Y-72825000I0J-250000D01*
G01*
X104050000Y-73775000D01*
G75*
G02*
X103800000Y-74025000I-250000J0D01*
G01*
X103125000Y-74025000D01*
G75*
G02*
X102875000Y-73775000I0J250000D01*
G01*
G37*
G36*
G01*
X104950000Y-73775000D02*
X104950000Y-72825000D01*
G75*
G02*
X105200000Y-72575000I250000J0D01*
G01*
X105875000Y-72575000D01*
G75*
G02*
X106125000Y-72825000I0J-250000D01*
G01*
X106125000Y-73775000D01*
G75*
G02*
X105875000Y-74025000I-250000J0D01*
G01*
X105200000Y-74025000D01*
G75*
G02*
X104950000Y-73775000I0J250000D01*
G01*
G37*
G36*
G01*
X102900000Y-59450001D02*
X102900000Y-58549999D01*
G75*
G02*
X103149999Y-58300000I249999J0D01*
G01*
X103850001Y-58300000D01*
G75*
G02*
X104100000Y-58549999I0J-249999D01*
G01*
X104100000Y-59450001D01*
G75*
G02*
X103850001Y-59700000I-249999J0D01*
G01*
X103149999Y-59700000D01*
G75*
G02*
X102900000Y-59450001I0J249999D01*
G01*
G37*
G36*
G01*
X104900000Y-59450001D02*
X104900000Y-58549999D01*
G75*
G02*
X105149999Y-58300000I249999J0D01*
G01*
X105850001Y-58300000D01*
G75*
G02*
X106100000Y-58549999I0J-249999D01*
G01*
X106100000Y-59450001D01*
G75*
G02*
X105850001Y-59700000I-249999J0D01*
G01*
X105149999Y-59700000D01*
G75*
G02*
X104900000Y-59450001I0J249999D01*
G01*
G37*
G36*
G01*
X130400000Y-61299999D02*
X130400000Y-62200001D01*
G75*
G02*
X130150001Y-62450000I-249999J0D01*
G01*
X129449999Y-62450000D01*
G75*
G02*
X129200000Y-62200001I0J249999D01*
G01*
X129200000Y-61299999D01*
G75*
G02*
X129449999Y-61050000I249999J0D01*
G01*
X130150001Y-61050000D01*
G75*
G02*
X130400000Y-61299999I0J-249999D01*
G01*
G37*
G36*
G01*
X128400000Y-61299999D02*
X128400000Y-62200001D01*
G75*
G02*
X128150001Y-62450000I-249999J0D01*
G01*
X127449999Y-62450000D01*
G75*
G02*
X127200000Y-62200001I0J249999D01*
G01*
X127200000Y-61299999D01*
G75*
G02*
X127449999Y-61050000I249999J0D01*
G01*
X128150001Y-61050000D01*
G75*
G02*
X128400000Y-61299999I0J-249999D01*
G01*
G37*
G36*
G01*
X116650000Y-86950001D02*
X116650000Y-86049999D01*
G75*
G02*
X116899999Y-85800000I249999J0D01*
G01*
X117600001Y-85800000D01*
G75*
G02*
X117850000Y-86049999I0J-249999D01*
G01*
X117850000Y-86950001D01*
G75*
G02*
X117600001Y-87200000I-249999J0D01*
G01*
X116899999Y-87200000D01*
G75*
G02*
X116650000Y-86950001I0J249999D01*
G01*
G37*
G36*
G01*
X114650000Y-86950001D02*
X114650000Y-86049999D01*
G75*
G02*
X114899999Y-85800000I249999J0D01*
G01*
X115600001Y-85800000D01*
G75*
G02*
X115850000Y-86049999I0J-249999D01*
G01*
X115850000Y-86950001D01*
G75*
G02*
X115600001Y-87200000I-249999J0D01*
G01*
X114899999Y-87200000D01*
G75*
G02*
X114650000Y-86950001I0J249999D01*
G01*
G37*
G36*
G01*
X115900000Y-88999999D02*
X115900000Y-89900001D01*
G75*
G02*
X115650001Y-90150000I-249999J0D01*
G01*
X114949999Y-90150000D01*
G75*
G02*
X114700000Y-89900001I0J249999D01*
G01*
X114700000Y-88999999D01*
G75*
G02*
X114949999Y-88750000I249999J0D01*
G01*
X115650001Y-88750000D01*
G75*
G02*
X115900000Y-88999999I0J-249999D01*
G01*
G37*
G36*
G01*
X117900000Y-88999999D02*
X117900000Y-89900001D01*
G75*
G02*
X117650001Y-90150000I-249999J0D01*
G01*
X116949999Y-90150000D01*
G75*
G02*
X116700000Y-89900001I0J249999D01*
G01*
X116700000Y-88999999D01*
G75*
G02*
X116949999Y-88750000I249999J0D01*
G01*
X117650001Y-88750000D01*
G75*
G02*
X117900000Y-88999999I0J-249999D01*
G01*
G37*
G36*
G01*
X120650000Y-86950001D02*
X120650000Y-86049999D01*
G75*
G02*
X120899999Y-85800000I249999J0D01*
G01*
X121600001Y-85800000D01*
G75*
G02*
X121850000Y-86049999I0J-249999D01*
G01*
X121850000Y-86950001D01*
G75*
G02*
X121600001Y-87200000I-249999J0D01*
G01*
X120899999Y-87200000D01*
G75*
G02*
X120650000Y-86950001I0J249999D01*
G01*
G37*
G36*
G01*
X118650000Y-86950001D02*
X118650000Y-86049999D01*
G75*
G02*
X118899999Y-85800000I249999J0D01*
G01*
X119600001Y-85800000D01*
G75*
G02*
X119850000Y-86049999I0J-249999D01*
G01*
X119850000Y-86950001D01*
G75*
G02*
X119600001Y-87200000I-249999J0D01*
G01*
X118899999Y-87200000D01*
G75*
G02*
X118650000Y-86950001I0J249999D01*
G01*
G37*
G36*
G01*
X118700000Y-89900001D02*
X118700000Y-88999999D01*
G75*
G02*
X118949999Y-88750000I249999J0D01*
G01*
X119650001Y-88750000D01*
G75*
G02*
X119900000Y-88999999I0J-249999D01*
G01*
X119900000Y-89900001D01*
G75*
G02*
X119650001Y-90150000I-249999J0D01*
G01*
X118949999Y-90150000D01*
G75*
G02*
X118700000Y-89900001I0J249999D01*
G01*
G37*
G36*
G01*
X120700000Y-89900001D02*
X120700000Y-88999999D01*
G75*
G02*
X120949999Y-88750000I249999J0D01*
G01*
X121650001Y-88750000D01*
G75*
G02*
X121900000Y-88999999I0J-249999D01*
G01*
X121900000Y-89900001D01*
G75*
G02*
X121650001Y-90150000I-249999J0D01*
G01*
X120949999Y-90150000D01*
G75*
G02*
X120700000Y-89900001I0J249999D01*
G01*
G37*
G36*
G01*
X129250000Y-59600001D02*
X129250000Y-58699999D01*
G75*
G02*
X129499999Y-58450000I249999J0D01*
G01*
X130150001Y-58450000D01*
G75*
G02*
X130400000Y-58699999I0J-249999D01*
G01*
X130400000Y-59600001D01*
G75*
G02*
X130150001Y-59850000I-249999J0D01*
G01*
X129499999Y-59850000D01*
G75*
G02*
X129250000Y-59600001I0J249999D01*
G01*
G37*
G36*
G01*
X127200000Y-59600001D02*
X127200000Y-58699999D01*
G75*
G02*
X127449999Y-58450000I249999J0D01*
G01*
X128100001Y-58450000D01*
G75*
G02*
X128350000Y-58699999I0J-249999D01*
G01*
X128350000Y-59600001D01*
G75*
G02*
X128100001Y-59850000I-249999J0D01*
G01*
X127449999Y-59850000D01*
G75*
G02*
X127200000Y-59600001I0J249999D01*
G01*
G37*
M02*
