G04 #@! TF.GenerationSoftware,KiCad,Pcbnew,(5.1.9)-1*
G04 #@! TF.CreationDate,2021-01-22T20:27:00+08:00*
G04 #@! TF.ProjectId,esp-break,6573702d-6272-4656-916b-2e6b69636164,rev?*
G04 #@! TF.SameCoordinates,Original*
G04 #@! TF.FileFunction,Other,Fab,Top*
%FSLAX46Y46*%
G04 Gerber Fmt 4.6, Leading zero omitted, Abs format (unit mm)*
G04 Created by KiCad (PCBNEW (5.1.9)-1) date 2021-01-22 20:27:00*
%MOMM*%
%LPD*%
G01*
G04 APERTURE LIST*
%ADD10C,0.100000*%
%ADD11C,0.150000*%
%ADD12C,0.075000*%
%ADD13C,0.120000*%
%ADD14C,0.080000*%
G04 APERTURE END LIST*
D10*
X105767000Y-71250000D02*
X102767000Y-71250000D01*
X102767000Y-71250000D02*
X102767000Y-68750000D01*
X102767000Y-68750000D02*
X105767000Y-68750000D01*
X105767000Y-68750000D02*
X105767000Y-71250000D01*
X105017000Y-70000000D02*
G75*
G03*
X105017000Y-70000000I-750000J0D01*
G01*
X125575000Y-76385000D02*
X125575000Y-50880000D01*
X107575000Y-76385000D02*
X125575000Y-76385000D01*
X107575000Y-50880000D02*
X107575000Y-56605000D01*
X107575000Y-50880000D02*
X125575000Y-50880000D01*
X107575000Y-57605000D02*
X107575000Y-76385000D01*
X108075000Y-57105000D02*
X107575000Y-56605000D01*
X107575000Y-57605000D02*
X108075000Y-57105000D01*
X127685800Y-76149200D02*
X129590800Y-76149200D01*
X129590800Y-76149200D02*
X129590800Y-91389200D01*
X129590800Y-91389200D02*
X127050800Y-91389200D01*
X127050800Y-91389200D02*
X127050800Y-76784200D01*
X127050800Y-76784200D02*
X127685800Y-76149200D01*
X127050800Y-94284800D02*
X127685800Y-93649800D01*
X127050800Y-108889800D02*
X127050800Y-94284800D01*
X129590800Y-108889800D02*
X127050800Y-108889800D01*
X129590800Y-93649800D02*
X129590800Y-108889800D01*
X127685800Y-93649800D02*
X129590800Y-93649800D01*
X116658660Y-81195980D02*
X116658660Y-79795980D01*
X113618660Y-79795980D02*
X116658660Y-79795980D01*
X114188660Y-81195980D02*
X113618660Y-80645980D01*
X113618660Y-80645980D02*
X113618660Y-79795980D01*
X114188660Y-81195980D02*
X116638660Y-81195980D01*
X118276300Y-81172740D02*
X120726300Y-81172740D01*
X117706300Y-80622740D02*
X117706300Y-79772740D01*
X118276300Y-81172740D02*
X117706300Y-80622740D01*
X117706300Y-79772740D02*
X120746300Y-79772740D01*
X120746300Y-81172740D02*
X120746300Y-79772740D01*
X100904900Y-95825000D02*
X105904900Y-95825000D01*
X101603196Y-89075000D02*
X101603196Y-95075000D01*
X100903196Y-88325000D02*
X100903196Y-95825000D01*
X105904900Y-88325000D02*
X105904900Y-95825000D01*
X100904900Y-88325000D02*
X105904900Y-88325000D01*
X106004900Y-90775000D02*
X106204900Y-90575000D01*
X106204900Y-90975000D02*
X106004900Y-90775000D01*
X106414900Y-90575000D02*
X106414900Y-90975000D01*
X106414900Y-90575000D02*
X106204900Y-90575000D01*
X106414900Y-90975000D02*
X106204900Y-90975000D01*
X105360000Y-78750000D02*
X106360000Y-77750000D01*
X105360000Y-78750000D02*
X105360000Y-84450000D01*
X106360000Y-77750000D02*
X109060000Y-77750000D01*
X105360000Y-84450000D02*
X109060000Y-84450000D01*
X109060000Y-77750000D02*
X109060000Y-84450000D01*
X111300000Y-90075000D02*
X111300000Y-88825000D01*
X111300000Y-88825000D02*
X113300000Y-88825000D01*
X113300000Y-88825000D02*
X113300000Y-90075000D01*
X113300000Y-90075000D02*
X111300000Y-90075000D01*
X113250000Y-87125000D02*
X111250000Y-87125000D01*
X113250000Y-85875000D02*
X113250000Y-87125000D01*
X111250000Y-85875000D02*
X113250000Y-85875000D01*
X111250000Y-87125000D02*
X111250000Y-85875000D01*
X105500000Y-63475000D02*
X105500000Y-64725000D01*
X105500000Y-64725000D02*
X103500000Y-64725000D01*
X103500000Y-64725000D02*
X103500000Y-63475000D01*
X103500000Y-63475000D02*
X105500000Y-63475000D01*
X103500000Y-66075000D02*
X105500000Y-66075000D01*
X103500000Y-67325000D02*
X103500000Y-66075000D01*
X105500000Y-67325000D02*
X103500000Y-67325000D01*
X105500000Y-66075000D02*
X105500000Y-67325000D01*
X105500000Y-62175000D02*
X103500000Y-62175000D01*
X105500000Y-60925000D02*
X105500000Y-62175000D01*
X103500000Y-60925000D02*
X105500000Y-60925000D01*
X103500000Y-62175000D02*
X103500000Y-60925000D01*
X103500000Y-73925000D02*
X103500000Y-72675000D01*
X103500000Y-72675000D02*
X105500000Y-72675000D01*
X105500000Y-72675000D02*
X105500000Y-73925000D01*
X105500000Y-73925000D02*
X103500000Y-73925000D01*
X103500000Y-59625000D02*
X103500000Y-58375000D01*
X103500000Y-58375000D02*
X105500000Y-58375000D01*
X105500000Y-58375000D02*
X105500000Y-59625000D01*
X105500000Y-59625000D02*
X103500000Y-59625000D01*
X129800000Y-61125000D02*
X129800000Y-62375000D01*
X129800000Y-62375000D02*
X127800000Y-62375000D01*
X127800000Y-62375000D02*
X127800000Y-61125000D01*
X127800000Y-61125000D02*
X129800000Y-61125000D01*
X117250000Y-87125000D02*
X115250000Y-87125000D01*
X117250000Y-85875000D02*
X117250000Y-87125000D01*
X115250000Y-85875000D02*
X117250000Y-85875000D01*
X115250000Y-87125000D02*
X115250000Y-85875000D01*
X115300000Y-88825000D02*
X117300000Y-88825000D01*
X115300000Y-90075000D02*
X115300000Y-88825000D01*
X117300000Y-90075000D02*
X115300000Y-90075000D01*
X117300000Y-88825000D02*
X117300000Y-90075000D01*
X121250000Y-87125000D02*
X119250000Y-87125000D01*
X121250000Y-85875000D02*
X121250000Y-87125000D01*
X119250000Y-85875000D02*
X121250000Y-85875000D01*
X119250000Y-87125000D02*
X119250000Y-85875000D01*
X119300000Y-90075000D02*
X119300000Y-88825000D01*
X119300000Y-88825000D02*
X121300000Y-88825000D01*
X121300000Y-88825000D02*
X121300000Y-90075000D01*
X121300000Y-90075000D02*
X119300000Y-90075000D01*
X129800000Y-59750000D02*
X129800000Y-58550000D01*
X127800000Y-59750000D02*
X129800000Y-59750000D01*
X127800000Y-58850000D02*
X127800000Y-59750000D01*
X128100000Y-58550000D02*
X127800000Y-58850000D01*
X129800000Y-58550000D02*
X128100000Y-58550000D01*
D11*
X119308095Y-116422380D02*
X119308095Y-115422380D01*
X119641428Y-116136666D01*
X119974761Y-115422380D01*
X119974761Y-116422380D01*
X120593809Y-116422380D02*
X120498571Y-116374761D01*
X120450952Y-116327142D01*
X120403333Y-116231904D01*
X120403333Y-115946190D01*
X120450952Y-115850952D01*
X120498571Y-115803333D01*
X120593809Y-115755714D01*
X120736666Y-115755714D01*
X120831904Y-115803333D01*
X120879523Y-115850952D01*
X120927142Y-115946190D01*
X120927142Y-116231904D01*
X120879523Y-116327142D01*
X120831904Y-116374761D01*
X120736666Y-116422380D01*
X120593809Y-116422380D01*
X121784285Y-115755714D02*
X121784285Y-116422380D01*
X121355714Y-115755714D02*
X121355714Y-116279523D01*
X121403333Y-116374761D01*
X121498571Y-116422380D01*
X121641428Y-116422380D01*
X121736666Y-116374761D01*
X121784285Y-116327142D01*
X122260476Y-115755714D02*
X122260476Y-116422380D01*
X122260476Y-115850952D02*
X122308095Y-115803333D01*
X122403333Y-115755714D01*
X122546190Y-115755714D01*
X122641428Y-115803333D01*
X122689047Y-115898571D01*
X122689047Y-116422380D01*
X123022380Y-115755714D02*
X123403333Y-115755714D01*
X123165238Y-115422380D02*
X123165238Y-116279523D01*
X123212857Y-116374761D01*
X123308095Y-116422380D01*
X123403333Y-116422380D01*
X123736666Y-116422380D02*
X123736666Y-115755714D01*
X123736666Y-115422380D02*
X123689047Y-115470000D01*
X123736666Y-115517619D01*
X123784285Y-115470000D01*
X123736666Y-115422380D01*
X123736666Y-115517619D01*
X124212857Y-115755714D02*
X124212857Y-116422380D01*
X124212857Y-115850952D02*
X124260476Y-115803333D01*
X124355714Y-115755714D01*
X124498571Y-115755714D01*
X124593809Y-115803333D01*
X124641428Y-115898571D01*
X124641428Y-116422380D01*
X125546190Y-115755714D02*
X125546190Y-116565238D01*
X125498571Y-116660476D01*
X125450952Y-116708095D01*
X125355714Y-116755714D01*
X125212857Y-116755714D01*
X125117619Y-116708095D01*
X125546190Y-116374761D02*
X125450952Y-116422380D01*
X125260476Y-116422380D01*
X125165238Y-116374761D01*
X125117619Y-116327142D01*
X125070000Y-116231904D01*
X125070000Y-115946190D01*
X125117619Y-115850952D01*
X125165238Y-115803333D01*
X125260476Y-115755714D01*
X125450952Y-115755714D01*
X125546190Y-115803333D01*
X126022380Y-116422380D02*
X126022380Y-115422380D01*
X126022380Y-115898571D02*
X126593809Y-115898571D01*
X126593809Y-116422380D02*
X126593809Y-115422380D01*
X127212857Y-116422380D02*
X127117619Y-116374761D01*
X127070000Y-116327142D01*
X127022380Y-116231904D01*
X127022380Y-115946190D01*
X127070000Y-115850952D01*
X127117619Y-115803333D01*
X127212857Y-115755714D01*
X127355714Y-115755714D01*
X127450952Y-115803333D01*
X127498571Y-115850952D01*
X127546190Y-115946190D01*
X127546190Y-116231904D01*
X127498571Y-116327142D01*
X127450952Y-116374761D01*
X127355714Y-116422380D01*
X127212857Y-116422380D01*
X128117619Y-116422380D02*
X128022380Y-116374761D01*
X127974761Y-116279523D01*
X127974761Y-115422380D01*
X128879523Y-116374761D02*
X128784285Y-116422380D01*
X128593809Y-116422380D01*
X128498571Y-116374761D01*
X128450952Y-116279523D01*
X128450952Y-115898571D01*
X128498571Y-115803333D01*
X128593809Y-115755714D01*
X128784285Y-115755714D01*
X128879523Y-115803333D01*
X128927142Y-115898571D01*
X128927142Y-115993809D01*
X128450952Y-116089047D01*
X129117619Y-116517619D02*
X129879523Y-116517619D01*
X130022380Y-115422380D02*
X130641428Y-115422380D01*
X130308095Y-115803333D01*
X130450952Y-115803333D01*
X130546190Y-115850952D01*
X130593809Y-115898571D01*
X130641428Y-115993809D01*
X130641428Y-116231904D01*
X130593809Y-116327142D01*
X130546190Y-116374761D01*
X130450952Y-116422380D01*
X130165238Y-116422380D01*
X130070000Y-116374761D01*
X130022380Y-116327142D01*
X131070000Y-116422380D02*
X131070000Y-115755714D01*
X131070000Y-115850952D02*
X131117619Y-115803333D01*
X131212857Y-115755714D01*
X131355714Y-115755714D01*
X131450952Y-115803333D01*
X131498571Y-115898571D01*
X131498571Y-116422380D01*
X131498571Y-115898571D02*
X131546190Y-115803333D01*
X131641428Y-115755714D01*
X131784285Y-115755714D01*
X131879523Y-115803333D01*
X131927142Y-115898571D01*
X131927142Y-116422380D01*
X132403333Y-116422380D02*
X132403333Y-115755714D01*
X132403333Y-115850952D02*
X132450952Y-115803333D01*
X132546190Y-115755714D01*
X132689047Y-115755714D01*
X132784285Y-115803333D01*
X132831904Y-115898571D01*
X132831904Y-116422380D01*
X132831904Y-115898571D02*
X132879523Y-115803333D01*
X132974761Y-115755714D01*
X133117619Y-115755714D01*
X133212857Y-115803333D01*
X133260476Y-115898571D01*
X133260476Y-116422380D01*
X133498571Y-116517619D02*
X134260476Y-116517619D01*
X134498571Y-116422380D02*
X134498571Y-115422380D01*
X134879523Y-115422380D01*
X134974761Y-115470000D01*
X135022380Y-115517619D01*
X135070000Y-115612857D01*
X135070000Y-115755714D01*
X135022380Y-115850952D01*
X134974761Y-115898571D01*
X134879523Y-115946190D01*
X134498571Y-115946190D01*
X135927142Y-116422380D02*
X135927142Y-115898571D01*
X135879523Y-115803333D01*
X135784285Y-115755714D01*
X135593809Y-115755714D01*
X135498571Y-115803333D01*
X135927142Y-116374761D02*
X135831904Y-116422380D01*
X135593809Y-116422380D01*
X135498571Y-116374761D01*
X135450952Y-116279523D01*
X135450952Y-116184285D01*
X135498571Y-116089047D01*
X135593809Y-116041428D01*
X135831904Y-116041428D01*
X135927142Y-115993809D01*
X136831904Y-116422380D02*
X136831904Y-115422380D01*
X136831904Y-116374761D02*
X136736666Y-116422380D01*
X136546190Y-116422380D01*
X136450952Y-116374761D01*
X136403333Y-116327142D01*
X136355714Y-116231904D01*
X136355714Y-115946190D01*
X136403333Y-115850952D01*
X136450952Y-115803333D01*
X136546190Y-115755714D01*
X136736666Y-115755714D01*
X136831904Y-115803333D01*
X127036666Y-112422380D02*
X126703333Y-111946190D01*
X126465238Y-112422380D02*
X126465238Y-111422380D01*
X126846190Y-111422380D01*
X126941428Y-111470000D01*
X126989047Y-111517619D01*
X127036666Y-111612857D01*
X127036666Y-111755714D01*
X126989047Y-111850952D01*
X126941428Y-111898571D01*
X126846190Y-111946190D01*
X126465238Y-111946190D01*
X127465238Y-111898571D02*
X127798571Y-111898571D01*
X127941428Y-112422380D02*
X127465238Y-112422380D01*
X127465238Y-111422380D01*
X127941428Y-111422380D01*
X128703333Y-111898571D02*
X128370000Y-111898571D01*
X128370000Y-112422380D02*
X128370000Y-111422380D01*
X128846190Y-111422380D01*
X129370000Y-111422380D02*
X129370000Y-111660476D01*
X129131904Y-111565238D02*
X129370000Y-111660476D01*
X129608095Y-111565238D01*
X129227142Y-111850952D02*
X129370000Y-111660476D01*
X129512857Y-111850952D01*
X130131904Y-111422380D02*
X130131904Y-111660476D01*
X129893809Y-111565238D02*
X130131904Y-111660476D01*
X130370000Y-111565238D01*
X129989047Y-111850952D02*
X130131904Y-111660476D01*
X130274761Y-111850952D01*
X96208095Y-116422380D02*
X96208095Y-115422380D01*
X96541428Y-116136666D01*
X96874761Y-115422380D01*
X96874761Y-116422380D01*
X97493809Y-116422380D02*
X97398571Y-116374761D01*
X97350952Y-116327142D01*
X97303333Y-116231904D01*
X97303333Y-115946190D01*
X97350952Y-115850952D01*
X97398571Y-115803333D01*
X97493809Y-115755714D01*
X97636666Y-115755714D01*
X97731904Y-115803333D01*
X97779523Y-115850952D01*
X97827142Y-115946190D01*
X97827142Y-116231904D01*
X97779523Y-116327142D01*
X97731904Y-116374761D01*
X97636666Y-116422380D01*
X97493809Y-116422380D01*
X98684285Y-115755714D02*
X98684285Y-116422380D01*
X98255714Y-115755714D02*
X98255714Y-116279523D01*
X98303333Y-116374761D01*
X98398571Y-116422380D01*
X98541428Y-116422380D01*
X98636666Y-116374761D01*
X98684285Y-116327142D01*
X99160476Y-115755714D02*
X99160476Y-116422380D01*
X99160476Y-115850952D02*
X99208095Y-115803333D01*
X99303333Y-115755714D01*
X99446190Y-115755714D01*
X99541428Y-115803333D01*
X99589047Y-115898571D01*
X99589047Y-116422380D01*
X99922380Y-115755714D02*
X100303333Y-115755714D01*
X100065238Y-115422380D02*
X100065238Y-116279523D01*
X100112857Y-116374761D01*
X100208095Y-116422380D01*
X100303333Y-116422380D01*
X100636666Y-116422380D02*
X100636666Y-115755714D01*
X100636666Y-115422380D02*
X100589047Y-115470000D01*
X100636666Y-115517619D01*
X100684285Y-115470000D01*
X100636666Y-115422380D01*
X100636666Y-115517619D01*
X101112857Y-115755714D02*
X101112857Y-116422380D01*
X101112857Y-115850952D02*
X101160476Y-115803333D01*
X101255714Y-115755714D01*
X101398571Y-115755714D01*
X101493809Y-115803333D01*
X101541428Y-115898571D01*
X101541428Y-116422380D01*
X102446190Y-115755714D02*
X102446190Y-116565238D01*
X102398571Y-116660476D01*
X102350952Y-116708095D01*
X102255714Y-116755714D01*
X102112857Y-116755714D01*
X102017619Y-116708095D01*
X102446190Y-116374761D02*
X102350952Y-116422380D01*
X102160476Y-116422380D01*
X102065238Y-116374761D01*
X102017619Y-116327142D01*
X101970000Y-116231904D01*
X101970000Y-115946190D01*
X102017619Y-115850952D01*
X102065238Y-115803333D01*
X102160476Y-115755714D01*
X102350952Y-115755714D01*
X102446190Y-115803333D01*
X102922380Y-116422380D02*
X102922380Y-115422380D01*
X102922380Y-115898571D02*
X103493809Y-115898571D01*
X103493809Y-116422380D02*
X103493809Y-115422380D01*
X104112857Y-116422380D02*
X104017619Y-116374761D01*
X103970000Y-116327142D01*
X103922380Y-116231904D01*
X103922380Y-115946190D01*
X103970000Y-115850952D01*
X104017619Y-115803333D01*
X104112857Y-115755714D01*
X104255714Y-115755714D01*
X104350952Y-115803333D01*
X104398571Y-115850952D01*
X104446190Y-115946190D01*
X104446190Y-116231904D01*
X104398571Y-116327142D01*
X104350952Y-116374761D01*
X104255714Y-116422380D01*
X104112857Y-116422380D01*
X105017619Y-116422380D02*
X104922380Y-116374761D01*
X104874761Y-116279523D01*
X104874761Y-115422380D01*
X105779523Y-116374761D02*
X105684285Y-116422380D01*
X105493809Y-116422380D01*
X105398571Y-116374761D01*
X105350952Y-116279523D01*
X105350952Y-115898571D01*
X105398571Y-115803333D01*
X105493809Y-115755714D01*
X105684285Y-115755714D01*
X105779523Y-115803333D01*
X105827142Y-115898571D01*
X105827142Y-115993809D01*
X105350952Y-116089047D01*
X106017619Y-116517619D02*
X106779523Y-116517619D01*
X106922380Y-115422380D02*
X107541428Y-115422380D01*
X107208095Y-115803333D01*
X107350952Y-115803333D01*
X107446190Y-115850952D01*
X107493809Y-115898571D01*
X107541428Y-115993809D01*
X107541428Y-116231904D01*
X107493809Y-116327142D01*
X107446190Y-116374761D01*
X107350952Y-116422380D01*
X107065238Y-116422380D01*
X106970000Y-116374761D01*
X106922380Y-116327142D01*
X107970000Y-116422380D02*
X107970000Y-115755714D01*
X107970000Y-115850952D02*
X108017619Y-115803333D01*
X108112857Y-115755714D01*
X108255714Y-115755714D01*
X108350952Y-115803333D01*
X108398571Y-115898571D01*
X108398571Y-116422380D01*
X108398571Y-115898571D02*
X108446190Y-115803333D01*
X108541428Y-115755714D01*
X108684285Y-115755714D01*
X108779523Y-115803333D01*
X108827142Y-115898571D01*
X108827142Y-116422380D01*
X109303333Y-116422380D02*
X109303333Y-115755714D01*
X109303333Y-115850952D02*
X109350952Y-115803333D01*
X109446190Y-115755714D01*
X109589047Y-115755714D01*
X109684285Y-115803333D01*
X109731904Y-115898571D01*
X109731904Y-116422380D01*
X109731904Y-115898571D02*
X109779523Y-115803333D01*
X109874761Y-115755714D01*
X110017619Y-115755714D01*
X110112857Y-115803333D01*
X110160476Y-115898571D01*
X110160476Y-116422380D01*
X110398571Y-116517619D02*
X111160476Y-116517619D01*
X111398571Y-116422380D02*
X111398571Y-115422380D01*
X111779523Y-115422380D01*
X111874761Y-115470000D01*
X111922380Y-115517619D01*
X111970000Y-115612857D01*
X111970000Y-115755714D01*
X111922380Y-115850952D01*
X111874761Y-115898571D01*
X111779523Y-115946190D01*
X111398571Y-115946190D01*
X112827142Y-116422380D02*
X112827142Y-115898571D01*
X112779523Y-115803333D01*
X112684285Y-115755714D01*
X112493809Y-115755714D01*
X112398571Y-115803333D01*
X112827142Y-116374761D02*
X112731904Y-116422380D01*
X112493809Y-116422380D01*
X112398571Y-116374761D01*
X112350952Y-116279523D01*
X112350952Y-116184285D01*
X112398571Y-116089047D01*
X112493809Y-116041428D01*
X112731904Y-116041428D01*
X112827142Y-115993809D01*
X113731904Y-116422380D02*
X113731904Y-115422380D01*
X113731904Y-116374761D02*
X113636666Y-116422380D01*
X113446190Y-116422380D01*
X113350952Y-116374761D01*
X113303333Y-116327142D01*
X113255714Y-116231904D01*
X113255714Y-115946190D01*
X113303333Y-115850952D01*
X113350952Y-115803333D01*
X113446190Y-115755714D01*
X113636666Y-115755714D01*
X113731904Y-115803333D01*
X103936666Y-112422380D02*
X103603333Y-111946190D01*
X103365238Y-112422380D02*
X103365238Y-111422380D01*
X103746190Y-111422380D01*
X103841428Y-111470000D01*
X103889047Y-111517619D01*
X103936666Y-111612857D01*
X103936666Y-111755714D01*
X103889047Y-111850952D01*
X103841428Y-111898571D01*
X103746190Y-111946190D01*
X103365238Y-111946190D01*
X104365238Y-111898571D02*
X104698571Y-111898571D01*
X104841428Y-112422380D02*
X104365238Y-112422380D01*
X104365238Y-111422380D01*
X104841428Y-111422380D01*
X105603333Y-111898571D02*
X105270000Y-111898571D01*
X105270000Y-112422380D02*
X105270000Y-111422380D01*
X105746190Y-111422380D01*
X106270000Y-111422380D02*
X106270000Y-111660476D01*
X106031904Y-111565238D02*
X106270000Y-111660476D01*
X106508095Y-111565238D01*
X106127142Y-111850952D02*
X106270000Y-111660476D01*
X106412857Y-111850952D01*
X107031904Y-111422380D02*
X107031904Y-111660476D01*
X106793809Y-111565238D02*
X107031904Y-111660476D01*
X107270000Y-111565238D01*
X106889047Y-111850952D02*
X107031904Y-111660476D01*
X107174761Y-111850952D01*
X119958095Y-58522380D02*
X119958095Y-57522380D01*
X120291428Y-58236666D01*
X120624761Y-57522380D01*
X120624761Y-58522380D01*
X121243809Y-58522380D02*
X121148571Y-58474761D01*
X121100952Y-58427142D01*
X121053333Y-58331904D01*
X121053333Y-58046190D01*
X121100952Y-57950952D01*
X121148571Y-57903333D01*
X121243809Y-57855714D01*
X121386666Y-57855714D01*
X121481904Y-57903333D01*
X121529523Y-57950952D01*
X121577142Y-58046190D01*
X121577142Y-58331904D01*
X121529523Y-58427142D01*
X121481904Y-58474761D01*
X121386666Y-58522380D01*
X121243809Y-58522380D01*
X122434285Y-57855714D02*
X122434285Y-58522380D01*
X122005714Y-57855714D02*
X122005714Y-58379523D01*
X122053333Y-58474761D01*
X122148571Y-58522380D01*
X122291428Y-58522380D01*
X122386666Y-58474761D01*
X122434285Y-58427142D01*
X122910476Y-57855714D02*
X122910476Y-58522380D01*
X122910476Y-57950952D02*
X122958095Y-57903333D01*
X123053333Y-57855714D01*
X123196190Y-57855714D01*
X123291428Y-57903333D01*
X123339047Y-57998571D01*
X123339047Y-58522380D01*
X123672380Y-57855714D02*
X124053333Y-57855714D01*
X123815238Y-57522380D02*
X123815238Y-58379523D01*
X123862857Y-58474761D01*
X123958095Y-58522380D01*
X124053333Y-58522380D01*
X124386666Y-58522380D02*
X124386666Y-57855714D01*
X124386666Y-57522380D02*
X124339047Y-57570000D01*
X124386666Y-57617619D01*
X124434285Y-57570000D01*
X124386666Y-57522380D01*
X124386666Y-57617619D01*
X124862857Y-57855714D02*
X124862857Y-58522380D01*
X124862857Y-57950952D02*
X124910476Y-57903333D01*
X125005714Y-57855714D01*
X125148571Y-57855714D01*
X125243809Y-57903333D01*
X125291428Y-57998571D01*
X125291428Y-58522380D01*
X126196190Y-57855714D02*
X126196190Y-58665238D01*
X126148571Y-58760476D01*
X126100952Y-58808095D01*
X126005714Y-58855714D01*
X125862857Y-58855714D01*
X125767619Y-58808095D01*
X126196190Y-58474761D02*
X126100952Y-58522380D01*
X125910476Y-58522380D01*
X125815238Y-58474761D01*
X125767619Y-58427142D01*
X125720000Y-58331904D01*
X125720000Y-58046190D01*
X125767619Y-57950952D01*
X125815238Y-57903333D01*
X125910476Y-57855714D01*
X126100952Y-57855714D01*
X126196190Y-57903333D01*
X126672380Y-58522380D02*
X126672380Y-57522380D01*
X126672380Y-57998571D02*
X127243809Y-57998571D01*
X127243809Y-58522380D02*
X127243809Y-57522380D01*
X127862857Y-58522380D02*
X127767619Y-58474761D01*
X127720000Y-58427142D01*
X127672380Y-58331904D01*
X127672380Y-58046190D01*
X127720000Y-57950952D01*
X127767619Y-57903333D01*
X127862857Y-57855714D01*
X128005714Y-57855714D01*
X128100952Y-57903333D01*
X128148571Y-57950952D01*
X128196190Y-58046190D01*
X128196190Y-58331904D01*
X128148571Y-58427142D01*
X128100952Y-58474761D01*
X128005714Y-58522380D01*
X127862857Y-58522380D01*
X128767619Y-58522380D02*
X128672380Y-58474761D01*
X128624761Y-58379523D01*
X128624761Y-57522380D01*
X129529523Y-58474761D02*
X129434285Y-58522380D01*
X129243809Y-58522380D01*
X129148571Y-58474761D01*
X129100952Y-58379523D01*
X129100952Y-57998571D01*
X129148571Y-57903333D01*
X129243809Y-57855714D01*
X129434285Y-57855714D01*
X129529523Y-57903333D01*
X129577142Y-57998571D01*
X129577142Y-58093809D01*
X129100952Y-58189047D01*
X129767619Y-58617619D02*
X130529523Y-58617619D01*
X130672380Y-57522380D02*
X131291428Y-57522380D01*
X130958095Y-57903333D01*
X131100952Y-57903333D01*
X131196190Y-57950952D01*
X131243809Y-57998571D01*
X131291428Y-58093809D01*
X131291428Y-58331904D01*
X131243809Y-58427142D01*
X131196190Y-58474761D01*
X131100952Y-58522380D01*
X130815238Y-58522380D01*
X130720000Y-58474761D01*
X130672380Y-58427142D01*
X131720000Y-58522380D02*
X131720000Y-57855714D01*
X131720000Y-57950952D02*
X131767619Y-57903333D01*
X131862857Y-57855714D01*
X132005714Y-57855714D01*
X132100952Y-57903333D01*
X132148571Y-57998571D01*
X132148571Y-58522380D01*
X132148571Y-57998571D02*
X132196190Y-57903333D01*
X132291428Y-57855714D01*
X132434285Y-57855714D01*
X132529523Y-57903333D01*
X132577142Y-57998571D01*
X132577142Y-58522380D01*
X133053333Y-58522380D02*
X133053333Y-57855714D01*
X133053333Y-57950952D02*
X133100952Y-57903333D01*
X133196190Y-57855714D01*
X133339047Y-57855714D01*
X133434285Y-57903333D01*
X133481904Y-57998571D01*
X133481904Y-58522380D01*
X133481904Y-57998571D02*
X133529523Y-57903333D01*
X133624761Y-57855714D01*
X133767619Y-57855714D01*
X133862857Y-57903333D01*
X133910476Y-57998571D01*
X133910476Y-58522380D01*
X134148571Y-58617619D02*
X134910476Y-58617619D01*
X135148571Y-58522380D02*
X135148571Y-57522380D01*
X135529523Y-57522380D01*
X135624761Y-57570000D01*
X135672380Y-57617619D01*
X135720000Y-57712857D01*
X135720000Y-57855714D01*
X135672380Y-57950952D01*
X135624761Y-57998571D01*
X135529523Y-58046190D01*
X135148571Y-58046190D01*
X136577142Y-58522380D02*
X136577142Y-57998571D01*
X136529523Y-57903333D01*
X136434285Y-57855714D01*
X136243809Y-57855714D01*
X136148571Y-57903333D01*
X136577142Y-58474761D02*
X136481904Y-58522380D01*
X136243809Y-58522380D01*
X136148571Y-58474761D01*
X136100952Y-58379523D01*
X136100952Y-58284285D01*
X136148571Y-58189047D01*
X136243809Y-58141428D01*
X136481904Y-58141428D01*
X136577142Y-58093809D01*
X137481904Y-58522380D02*
X137481904Y-57522380D01*
X137481904Y-58474761D02*
X137386666Y-58522380D01*
X137196190Y-58522380D01*
X137100952Y-58474761D01*
X137053333Y-58427142D01*
X137005714Y-58331904D01*
X137005714Y-58046190D01*
X137053333Y-57950952D01*
X137100952Y-57903333D01*
X137196190Y-57855714D01*
X137386666Y-57855714D01*
X137481904Y-57903333D01*
X127686666Y-54522380D02*
X127353333Y-54046190D01*
X127115238Y-54522380D02*
X127115238Y-53522380D01*
X127496190Y-53522380D01*
X127591428Y-53570000D01*
X127639047Y-53617619D01*
X127686666Y-53712857D01*
X127686666Y-53855714D01*
X127639047Y-53950952D01*
X127591428Y-53998571D01*
X127496190Y-54046190D01*
X127115238Y-54046190D01*
X128115238Y-53998571D02*
X128448571Y-53998571D01*
X128591428Y-54522380D02*
X128115238Y-54522380D01*
X128115238Y-53522380D01*
X128591428Y-53522380D01*
X129353333Y-53998571D02*
X129020000Y-53998571D01*
X129020000Y-54522380D02*
X129020000Y-53522380D01*
X129496190Y-53522380D01*
X130020000Y-53522380D02*
X130020000Y-53760476D01*
X129781904Y-53665238D02*
X130020000Y-53760476D01*
X130258095Y-53665238D01*
X129877142Y-53950952D02*
X130020000Y-53760476D01*
X130162857Y-53950952D01*
X130781904Y-53522380D02*
X130781904Y-53760476D01*
X130543809Y-53665238D02*
X130781904Y-53760476D01*
X131020000Y-53665238D01*
X130639047Y-53950952D02*
X130781904Y-53760476D01*
X130924761Y-53950952D01*
X96058095Y-58622380D02*
X96058095Y-57622380D01*
X96391428Y-58336666D01*
X96724761Y-57622380D01*
X96724761Y-58622380D01*
X97343809Y-58622380D02*
X97248571Y-58574761D01*
X97200952Y-58527142D01*
X97153333Y-58431904D01*
X97153333Y-58146190D01*
X97200952Y-58050952D01*
X97248571Y-58003333D01*
X97343809Y-57955714D01*
X97486666Y-57955714D01*
X97581904Y-58003333D01*
X97629523Y-58050952D01*
X97677142Y-58146190D01*
X97677142Y-58431904D01*
X97629523Y-58527142D01*
X97581904Y-58574761D01*
X97486666Y-58622380D01*
X97343809Y-58622380D01*
X98534285Y-57955714D02*
X98534285Y-58622380D01*
X98105714Y-57955714D02*
X98105714Y-58479523D01*
X98153333Y-58574761D01*
X98248571Y-58622380D01*
X98391428Y-58622380D01*
X98486666Y-58574761D01*
X98534285Y-58527142D01*
X99010476Y-57955714D02*
X99010476Y-58622380D01*
X99010476Y-58050952D02*
X99058095Y-58003333D01*
X99153333Y-57955714D01*
X99296190Y-57955714D01*
X99391428Y-58003333D01*
X99439047Y-58098571D01*
X99439047Y-58622380D01*
X99772380Y-57955714D02*
X100153333Y-57955714D01*
X99915238Y-57622380D02*
X99915238Y-58479523D01*
X99962857Y-58574761D01*
X100058095Y-58622380D01*
X100153333Y-58622380D01*
X100486666Y-58622380D02*
X100486666Y-57955714D01*
X100486666Y-57622380D02*
X100439047Y-57670000D01*
X100486666Y-57717619D01*
X100534285Y-57670000D01*
X100486666Y-57622380D01*
X100486666Y-57717619D01*
X100962857Y-57955714D02*
X100962857Y-58622380D01*
X100962857Y-58050952D02*
X101010476Y-58003333D01*
X101105714Y-57955714D01*
X101248571Y-57955714D01*
X101343809Y-58003333D01*
X101391428Y-58098571D01*
X101391428Y-58622380D01*
X102296190Y-57955714D02*
X102296190Y-58765238D01*
X102248571Y-58860476D01*
X102200952Y-58908095D01*
X102105714Y-58955714D01*
X101962857Y-58955714D01*
X101867619Y-58908095D01*
X102296190Y-58574761D02*
X102200952Y-58622380D01*
X102010476Y-58622380D01*
X101915238Y-58574761D01*
X101867619Y-58527142D01*
X101820000Y-58431904D01*
X101820000Y-58146190D01*
X101867619Y-58050952D01*
X101915238Y-58003333D01*
X102010476Y-57955714D01*
X102200952Y-57955714D01*
X102296190Y-58003333D01*
X102772380Y-58622380D02*
X102772380Y-57622380D01*
X102772380Y-58098571D02*
X103343809Y-58098571D01*
X103343809Y-58622380D02*
X103343809Y-57622380D01*
X103962857Y-58622380D02*
X103867619Y-58574761D01*
X103820000Y-58527142D01*
X103772380Y-58431904D01*
X103772380Y-58146190D01*
X103820000Y-58050952D01*
X103867619Y-58003333D01*
X103962857Y-57955714D01*
X104105714Y-57955714D01*
X104200952Y-58003333D01*
X104248571Y-58050952D01*
X104296190Y-58146190D01*
X104296190Y-58431904D01*
X104248571Y-58527142D01*
X104200952Y-58574761D01*
X104105714Y-58622380D01*
X103962857Y-58622380D01*
X104867619Y-58622380D02*
X104772380Y-58574761D01*
X104724761Y-58479523D01*
X104724761Y-57622380D01*
X105629523Y-58574761D02*
X105534285Y-58622380D01*
X105343809Y-58622380D01*
X105248571Y-58574761D01*
X105200952Y-58479523D01*
X105200952Y-58098571D01*
X105248571Y-58003333D01*
X105343809Y-57955714D01*
X105534285Y-57955714D01*
X105629523Y-58003333D01*
X105677142Y-58098571D01*
X105677142Y-58193809D01*
X105200952Y-58289047D01*
X105867619Y-58717619D02*
X106629523Y-58717619D01*
X106772380Y-57622380D02*
X107391428Y-57622380D01*
X107058095Y-58003333D01*
X107200952Y-58003333D01*
X107296190Y-58050952D01*
X107343809Y-58098571D01*
X107391428Y-58193809D01*
X107391428Y-58431904D01*
X107343809Y-58527142D01*
X107296190Y-58574761D01*
X107200952Y-58622380D01*
X106915238Y-58622380D01*
X106820000Y-58574761D01*
X106772380Y-58527142D01*
X107820000Y-58622380D02*
X107820000Y-57955714D01*
X107820000Y-58050952D02*
X107867619Y-58003333D01*
X107962857Y-57955714D01*
X108105714Y-57955714D01*
X108200952Y-58003333D01*
X108248571Y-58098571D01*
X108248571Y-58622380D01*
X108248571Y-58098571D02*
X108296190Y-58003333D01*
X108391428Y-57955714D01*
X108534285Y-57955714D01*
X108629523Y-58003333D01*
X108677142Y-58098571D01*
X108677142Y-58622380D01*
X109153333Y-58622380D02*
X109153333Y-57955714D01*
X109153333Y-58050952D02*
X109200952Y-58003333D01*
X109296190Y-57955714D01*
X109439047Y-57955714D01*
X109534285Y-58003333D01*
X109581904Y-58098571D01*
X109581904Y-58622380D01*
X109581904Y-58098571D02*
X109629523Y-58003333D01*
X109724761Y-57955714D01*
X109867619Y-57955714D01*
X109962857Y-58003333D01*
X110010476Y-58098571D01*
X110010476Y-58622380D01*
X110248571Y-58717619D02*
X111010476Y-58717619D01*
X111248571Y-58622380D02*
X111248571Y-57622380D01*
X111629523Y-57622380D01*
X111724761Y-57670000D01*
X111772380Y-57717619D01*
X111820000Y-57812857D01*
X111820000Y-57955714D01*
X111772380Y-58050952D01*
X111724761Y-58098571D01*
X111629523Y-58146190D01*
X111248571Y-58146190D01*
X112677142Y-58622380D02*
X112677142Y-58098571D01*
X112629523Y-58003333D01*
X112534285Y-57955714D01*
X112343809Y-57955714D01*
X112248571Y-58003333D01*
X112677142Y-58574761D02*
X112581904Y-58622380D01*
X112343809Y-58622380D01*
X112248571Y-58574761D01*
X112200952Y-58479523D01*
X112200952Y-58384285D01*
X112248571Y-58289047D01*
X112343809Y-58241428D01*
X112581904Y-58241428D01*
X112677142Y-58193809D01*
X113581904Y-58622380D02*
X113581904Y-57622380D01*
X113581904Y-58574761D02*
X113486666Y-58622380D01*
X113296190Y-58622380D01*
X113200952Y-58574761D01*
X113153333Y-58527142D01*
X113105714Y-58431904D01*
X113105714Y-58146190D01*
X113153333Y-58050952D01*
X113200952Y-58003333D01*
X113296190Y-57955714D01*
X113486666Y-57955714D01*
X113581904Y-58003333D01*
X103786666Y-54622380D02*
X103453333Y-54146190D01*
X103215238Y-54622380D02*
X103215238Y-53622380D01*
X103596190Y-53622380D01*
X103691428Y-53670000D01*
X103739047Y-53717619D01*
X103786666Y-53812857D01*
X103786666Y-53955714D01*
X103739047Y-54050952D01*
X103691428Y-54098571D01*
X103596190Y-54146190D01*
X103215238Y-54146190D01*
X104215238Y-54098571D02*
X104548571Y-54098571D01*
X104691428Y-54622380D02*
X104215238Y-54622380D01*
X104215238Y-53622380D01*
X104691428Y-53622380D01*
X105453333Y-54098571D02*
X105120000Y-54098571D01*
X105120000Y-54622380D02*
X105120000Y-53622380D01*
X105596190Y-53622380D01*
X106120000Y-53622380D02*
X106120000Y-53860476D01*
X105881904Y-53765238D02*
X106120000Y-53860476D01*
X106358095Y-53765238D01*
X105977142Y-54050952D02*
X106120000Y-53860476D01*
X106262857Y-54050952D01*
X106881904Y-53622380D02*
X106881904Y-53860476D01*
X106643809Y-53765238D02*
X106881904Y-53860476D01*
X107120000Y-53765238D01*
X106739047Y-54050952D02*
X106881904Y-53860476D01*
X107024761Y-54050952D01*
X101219380Y-67904761D02*
X101362238Y-67952380D01*
X101600333Y-67952380D01*
X101695571Y-67904761D01*
X101743190Y-67857142D01*
X101790809Y-67761904D01*
X101790809Y-67666666D01*
X101743190Y-67571428D01*
X101695571Y-67523809D01*
X101600333Y-67476190D01*
X101409857Y-67428571D01*
X101314619Y-67380952D01*
X101267000Y-67333333D01*
X101219380Y-67238095D01*
X101219380Y-67142857D01*
X101267000Y-67047619D01*
X101314619Y-67000000D01*
X101409857Y-66952380D01*
X101647952Y-66952380D01*
X101790809Y-67000000D01*
X102124142Y-66952380D02*
X102362238Y-67952380D01*
X102552714Y-67238095D01*
X102743190Y-67952380D01*
X102981285Y-66952380D01*
X103124142Y-68047619D02*
X103886047Y-68047619D01*
X104124142Y-67952380D02*
X104124142Y-66952380D01*
X104505095Y-66952380D01*
X104600333Y-67000000D01*
X104647952Y-67047619D01*
X104695571Y-67142857D01*
X104695571Y-67285714D01*
X104647952Y-67380952D01*
X104600333Y-67428571D01*
X104505095Y-67476190D01*
X104124142Y-67476190D01*
X105552714Y-67285714D02*
X105552714Y-67952380D01*
X105124142Y-67285714D02*
X105124142Y-67809523D01*
X105171761Y-67904761D01*
X105267000Y-67952380D01*
X105409857Y-67952380D01*
X105505095Y-67904761D01*
X105552714Y-67857142D01*
X105981285Y-67904761D02*
X106076523Y-67952380D01*
X106267000Y-67952380D01*
X106362238Y-67904761D01*
X106409857Y-67809523D01*
X106409857Y-67761904D01*
X106362238Y-67666666D01*
X106267000Y-67619047D01*
X106124142Y-67619047D01*
X106028904Y-67571428D01*
X105981285Y-67476190D01*
X105981285Y-67428571D01*
X106028904Y-67333333D01*
X106124142Y-67285714D01*
X106267000Y-67285714D01*
X106362238Y-67333333D01*
X106838428Y-67952380D02*
X106838428Y-66952380D01*
X107267000Y-67952380D02*
X107267000Y-67428571D01*
X107219380Y-67333333D01*
X107124142Y-67285714D01*
X106981285Y-67285714D01*
X106886047Y-67333333D01*
X106838428Y-67380952D01*
X102933666Y-72904761D02*
X103076523Y-72952380D01*
X103314619Y-72952380D01*
X103409857Y-72904761D01*
X103457476Y-72857142D01*
X103505095Y-72761904D01*
X103505095Y-72666666D01*
X103457476Y-72571428D01*
X103409857Y-72523809D01*
X103314619Y-72476190D01*
X103124142Y-72428571D01*
X103028904Y-72380952D01*
X102981285Y-72333333D01*
X102933666Y-72238095D01*
X102933666Y-72142857D01*
X102981285Y-72047619D01*
X103028904Y-72000000D01*
X103124142Y-71952380D01*
X103362238Y-71952380D01*
X103505095Y-72000000D01*
X103838428Y-71952380D02*
X104076523Y-72952380D01*
X104267000Y-72238095D01*
X104457476Y-72952380D01*
X104695571Y-71952380D01*
X105600333Y-72952380D02*
X105028904Y-72952380D01*
X105314619Y-72952380D02*
X105314619Y-71952380D01*
X105219380Y-72095238D01*
X105124142Y-72190476D01*
X105028904Y-72238095D01*
X109051190Y-78053571D02*
X109384523Y-78053571D01*
X109527380Y-78577380D02*
X109051190Y-78577380D01*
X109051190Y-77577380D01*
X109527380Y-77577380D01*
X109908333Y-78529761D02*
X110051190Y-78577380D01*
X110289285Y-78577380D01*
X110384523Y-78529761D01*
X110432142Y-78482142D01*
X110479761Y-78386904D01*
X110479761Y-78291666D01*
X110432142Y-78196428D01*
X110384523Y-78148809D01*
X110289285Y-78101190D01*
X110098809Y-78053571D01*
X110003571Y-78005952D01*
X109955952Y-77958333D01*
X109908333Y-77863095D01*
X109908333Y-77767857D01*
X109955952Y-77672619D01*
X110003571Y-77625000D01*
X110098809Y-77577380D01*
X110336904Y-77577380D01*
X110479761Y-77625000D01*
X110908333Y-78577380D02*
X110908333Y-77577380D01*
X111289285Y-77577380D01*
X111384523Y-77625000D01*
X111432142Y-77672619D01*
X111479761Y-77767857D01*
X111479761Y-77910714D01*
X111432142Y-78005952D01*
X111384523Y-78053571D01*
X111289285Y-78101190D01*
X110908333Y-78101190D01*
X111813095Y-77577380D02*
X112432142Y-77577380D01*
X112098809Y-77958333D01*
X112241666Y-77958333D01*
X112336904Y-78005952D01*
X112384523Y-78053571D01*
X112432142Y-78148809D01*
X112432142Y-78386904D01*
X112384523Y-78482142D01*
X112336904Y-78529761D01*
X112241666Y-78577380D01*
X111955952Y-78577380D01*
X111860714Y-78529761D01*
X111813095Y-78482142D01*
X112813095Y-77672619D02*
X112860714Y-77625000D01*
X112955952Y-77577380D01*
X113194047Y-77577380D01*
X113289285Y-77625000D01*
X113336904Y-77672619D01*
X113384523Y-77767857D01*
X113384523Y-77863095D01*
X113336904Y-78005952D01*
X112765476Y-78577380D01*
X113384523Y-78577380D01*
X113813095Y-78196428D02*
X114575000Y-78196428D01*
X114955952Y-77577380D02*
X115194047Y-78577380D01*
X115384523Y-77863095D01*
X115575000Y-78577380D01*
X115813095Y-77577380D01*
X116765476Y-78577380D02*
X116432142Y-78101190D01*
X116194047Y-78577380D02*
X116194047Y-77577380D01*
X116575000Y-77577380D01*
X116670238Y-77625000D01*
X116717857Y-77672619D01*
X116765476Y-77767857D01*
X116765476Y-77910714D01*
X116717857Y-78005952D01*
X116670238Y-78053571D01*
X116575000Y-78101190D01*
X116194047Y-78101190D01*
X117384523Y-77577380D02*
X117575000Y-77577380D01*
X117670238Y-77625000D01*
X117765476Y-77720238D01*
X117813095Y-77910714D01*
X117813095Y-78244047D01*
X117765476Y-78434523D01*
X117670238Y-78529761D01*
X117575000Y-78577380D01*
X117384523Y-78577380D01*
X117289285Y-78529761D01*
X117194047Y-78434523D01*
X117146428Y-78244047D01*
X117146428Y-77910714D01*
X117194047Y-77720238D01*
X117289285Y-77625000D01*
X117384523Y-77577380D01*
X118432142Y-77577380D02*
X118622619Y-77577380D01*
X118717857Y-77625000D01*
X118813095Y-77720238D01*
X118860714Y-77910714D01*
X118860714Y-78244047D01*
X118813095Y-78434523D01*
X118717857Y-78529761D01*
X118622619Y-78577380D01*
X118432142Y-78577380D01*
X118336904Y-78529761D01*
X118241666Y-78434523D01*
X118194047Y-78244047D01*
X118194047Y-77910714D01*
X118241666Y-77720238D01*
X118336904Y-77625000D01*
X118432142Y-77577380D01*
X119289285Y-78577380D02*
X119289285Y-77577380D01*
X119622619Y-78291666D01*
X119955952Y-77577380D01*
X119955952Y-78577380D01*
X120432142Y-78196428D02*
X121194047Y-78196428D01*
X121575000Y-77577380D02*
X122194047Y-77577380D01*
X121860714Y-77958333D01*
X122003571Y-77958333D01*
X122098809Y-78005952D01*
X122146428Y-78053571D01*
X122194047Y-78148809D01*
X122194047Y-78386904D01*
X122146428Y-78482142D01*
X122098809Y-78529761D01*
X122003571Y-78577380D01*
X121717857Y-78577380D01*
X121622619Y-78529761D01*
X121575000Y-78482142D01*
X122575000Y-77672619D02*
X122622619Y-77625000D01*
X122717857Y-77577380D01*
X122955952Y-77577380D01*
X123051190Y-77625000D01*
X123098809Y-77672619D01*
X123146428Y-77767857D01*
X123146428Y-77863095D01*
X123098809Y-78005952D01*
X122527380Y-78577380D01*
X123146428Y-78577380D01*
X123575000Y-78577380D02*
X123575000Y-77577380D01*
X123813095Y-77577380D01*
X123955952Y-77625000D01*
X124051190Y-77720238D01*
X124098809Y-77815476D01*
X124146428Y-78005952D01*
X124146428Y-78148809D01*
X124098809Y-78339285D01*
X124051190Y-78434523D01*
X123955952Y-78529761D01*
X123813095Y-78577380D01*
X123575000Y-78577380D01*
X115813095Y-66077380D02*
X115813095Y-66886904D01*
X115860714Y-66982142D01*
X115908333Y-67029761D01*
X116003571Y-67077380D01*
X116194047Y-67077380D01*
X116289285Y-67029761D01*
X116336904Y-66982142D01*
X116384523Y-66886904D01*
X116384523Y-66077380D01*
X117384523Y-67077380D02*
X116813095Y-67077380D01*
X117098809Y-67077380D02*
X117098809Y-66077380D01*
X117003571Y-66220238D01*
X116908333Y-66315476D01*
X116813095Y-66363095D01*
X108983782Y-100104482D02*
X108936163Y-100152101D01*
X108793306Y-100199720D01*
X108698068Y-100199720D01*
X108555211Y-100152101D01*
X108459973Y-100056863D01*
X108412354Y-99961625D01*
X108364735Y-99771149D01*
X108364735Y-99628292D01*
X108412354Y-99437816D01*
X108459973Y-99342578D01*
X108555211Y-99247340D01*
X108698068Y-99199720D01*
X108793306Y-99199720D01*
X108936163Y-99247340D01*
X108983782Y-99294959D01*
X109555211Y-100199720D02*
X109459973Y-100152101D01*
X109412354Y-100104482D01*
X109364735Y-100009244D01*
X109364735Y-99723530D01*
X109412354Y-99628292D01*
X109459973Y-99580673D01*
X109555211Y-99533054D01*
X109698068Y-99533054D01*
X109793306Y-99580673D01*
X109840925Y-99628292D01*
X109888544Y-99723530D01*
X109888544Y-100009244D01*
X109840925Y-100104482D01*
X109793306Y-100152101D01*
X109698068Y-100199720D01*
X109555211Y-100199720D01*
X110317116Y-99533054D02*
X110317116Y-100199720D01*
X110317116Y-99628292D02*
X110364735Y-99580673D01*
X110459973Y-99533054D01*
X110602830Y-99533054D01*
X110698068Y-99580673D01*
X110745687Y-99675911D01*
X110745687Y-100199720D01*
X111221878Y-99533054D02*
X111221878Y-100199720D01*
X111221878Y-99628292D02*
X111269497Y-99580673D01*
X111364735Y-99533054D01*
X111507592Y-99533054D01*
X111602830Y-99580673D01*
X111650449Y-99675911D01*
X111650449Y-100199720D01*
X111888544Y-100294959D02*
X112650449Y-100294959D01*
X113079020Y-99199720D02*
X113174259Y-99199720D01*
X113269497Y-99247340D01*
X113317116Y-99294959D01*
X113364735Y-99390197D01*
X113412354Y-99580673D01*
X113412354Y-99818768D01*
X113364735Y-100009244D01*
X113317116Y-100104482D01*
X113269497Y-100152101D01*
X113174259Y-100199720D01*
X113079020Y-100199720D01*
X112983782Y-100152101D01*
X112936163Y-100104482D01*
X112888544Y-100009244D01*
X112840925Y-99818768D01*
X112840925Y-99580673D01*
X112888544Y-99390197D01*
X112936163Y-99294959D01*
X112983782Y-99247340D01*
X113079020Y-99199720D01*
X113793306Y-99294959D02*
X113840925Y-99247340D01*
X113936163Y-99199720D01*
X114174259Y-99199720D01*
X114269497Y-99247340D01*
X114317116Y-99294959D01*
X114364735Y-99390197D01*
X114364735Y-99485435D01*
X114317116Y-99628292D01*
X113745687Y-100199720D01*
X114364735Y-100199720D01*
X114698068Y-100199720D02*
X115221878Y-99533054D01*
X114698068Y-99533054D02*
X115221878Y-100199720D01*
X115793306Y-99199720D02*
X115888544Y-99199720D01*
X115983782Y-99247340D01*
X116031401Y-99294959D01*
X116079020Y-99390197D01*
X116126640Y-99580673D01*
X116126640Y-99818768D01*
X116079020Y-100009244D01*
X116031401Y-100104482D01*
X115983782Y-100152101D01*
X115888544Y-100199720D01*
X115793306Y-100199720D01*
X115698068Y-100152101D01*
X115650449Y-100104482D01*
X115602830Y-100009244D01*
X115555211Y-99818768D01*
X115555211Y-99580673D01*
X115602830Y-99390197D01*
X115650449Y-99294959D01*
X115698068Y-99247340D01*
X115793306Y-99199720D01*
X116459973Y-99199720D02*
X117079020Y-99199720D01*
X116745687Y-99580673D01*
X116888544Y-99580673D01*
X116983782Y-99628292D01*
X117031401Y-99675911D01*
X117079020Y-99771149D01*
X117079020Y-100009244D01*
X117031401Y-100104482D01*
X116983782Y-100152101D01*
X116888544Y-100199720D01*
X116602830Y-100199720D01*
X116507592Y-100152101D01*
X116459973Y-100104482D01*
X117269497Y-100294959D02*
X118031401Y-100294959D01*
X118459973Y-99199720D02*
X118650449Y-99199720D01*
X118745687Y-99247340D01*
X118840925Y-99342578D01*
X118888544Y-99533054D01*
X118888544Y-99866387D01*
X118840925Y-100056863D01*
X118745687Y-100152101D01*
X118650449Y-100199720D01*
X118459973Y-100199720D01*
X118364735Y-100152101D01*
X118269497Y-100056863D01*
X118221878Y-99866387D01*
X118221878Y-99533054D01*
X118269497Y-99342578D01*
X118364735Y-99247340D01*
X118459973Y-99199720D01*
X119745687Y-100199720D02*
X119745687Y-99199720D01*
X119745687Y-100152101D02*
X119650449Y-100199720D01*
X119459973Y-100199720D01*
X119364735Y-100152101D01*
X119317116Y-100104482D01*
X119269497Y-100009244D01*
X119269497Y-99723530D01*
X119317116Y-99628292D01*
X119364735Y-99580673D01*
X119459973Y-99533054D01*
X119650449Y-99533054D01*
X119745687Y-99580673D01*
X120650449Y-100199720D02*
X120650449Y-99199720D01*
X120650449Y-100152101D02*
X120555211Y-100199720D01*
X120364735Y-100199720D01*
X120269497Y-100152101D01*
X120221878Y-100104482D01*
X120174259Y-100009244D01*
X120174259Y-99723530D01*
X120221878Y-99628292D01*
X120269497Y-99580673D01*
X120364735Y-99533054D01*
X120555211Y-99533054D01*
X120650449Y-99580673D01*
X120888544Y-100294959D02*
X121650449Y-100294959D01*
X121888544Y-99675911D02*
X122221878Y-99675911D01*
X122364735Y-100199720D02*
X121888544Y-100199720D01*
X121888544Y-99199720D01*
X122364735Y-99199720D01*
X122698068Y-99533054D02*
X122936163Y-100199720D01*
X123174259Y-99533054D01*
X123936163Y-100152101D02*
X123840925Y-100199720D01*
X123650449Y-100199720D01*
X123555211Y-100152101D01*
X123507592Y-100056863D01*
X123507592Y-99675911D01*
X123555211Y-99580673D01*
X123650449Y-99533054D01*
X123840925Y-99533054D01*
X123936163Y-99580673D01*
X123983782Y-99675911D01*
X123983782Y-99771149D01*
X123507592Y-99866387D01*
X124412354Y-99533054D02*
X124412354Y-100199720D01*
X124412354Y-99628292D02*
X124459973Y-99580673D01*
X124555211Y-99533054D01*
X124698068Y-99533054D01*
X124793306Y-99580673D01*
X124840925Y-99675911D01*
X124840925Y-100199720D01*
X116293306Y-103899720D02*
X116293306Y-104614006D01*
X116245687Y-104756863D01*
X116150449Y-104852101D01*
X116007592Y-104899720D01*
X115912354Y-104899720D01*
X117293306Y-104899720D02*
X116721878Y-104899720D01*
X117007592Y-104899720D02*
X117007592Y-103899720D01*
X116912354Y-104042578D01*
X116817116Y-104137816D01*
X116721878Y-104185435D01*
X124582704Y-92806342D02*
X124535085Y-92853961D01*
X124392228Y-92901580D01*
X124296990Y-92901580D01*
X124154133Y-92853961D01*
X124058895Y-92758723D01*
X124011276Y-92663485D01*
X123963657Y-92473009D01*
X123963657Y-92330152D01*
X124011276Y-92139676D01*
X124058895Y-92044438D01*
X124154133Y-91949200D01*
X124296990Y-91901580D01*
X124392228Y-91901580D01*
X124535085Y-91949200D01*
X124582704Y-91996819D01*
X125154133Y-92901580D02*
X125058895Y-92853961D01*
X125011276Y-92806342D01*
X124963657Y-92711104D01*
X124963657Y-92425390D01*
X125011276Y-92330152D01*
X125058895Y-92282533D01*
X125154133Y-92234914D01*
X125296990Y-92234914D01*
X125392228Y-92282533D01*
X125439847Y-92330152D01*
X125487466Y-92425390D01*
X125487466Y-92711104D01*
X125439847Y-92806342D01*
X125392228Y-92853961D01*
X125296990Y-92901580D01*
X125154133Y-92901580D01*
X125916038Y-92234914D02*
X125916038Y-92901580D01*
X125916038Y-92330152D02*
X125963657Y-92282533D01*
X126058895Y-92234914D01*
X126201752Y-92234914D01*
X126296990Y-92282533D01*
X126344609Y-92377771D01*
X126344609Y-92901580D01*
X126820800Y-92234914D02*
X126820800Y-92901580D01*
X126820800Y-92330152D02*
X126868419Y-92282533D01*
X126963657Y-92234914D01*
X127106514Y-92234914D01*
X127201752Y-92282533D01*
X127249371Y-92377771D01*
X127249371Y-92901580D01*
X127487466Y-92996819D02*
X128249371Y-92996819D01*
X128677942Y-91901580D02*
X128773180Y-91901580D01*
X128868419Y-91949200D01*
X128916038Y-91996819D01*
X128963657Y-92092057D01*
X129011276Y-92282533D01*
X129011276Y-92520628D01*
X128963657Y-92711104D01*
X128916038Y-92806342D01*
X128868419Y-92853961D01*
X128773180Y-92901580D01*
X128677942Y-92901580D01*
X128582704Y-92853961D01*
X128535085Y-92806342D01*
X128487466Y-92711104D01*
X128439847Y-92520628D01*
X128439847Y-92282533D01*
X128487466Y-92092057D01*
X128535085Y-91996819D01*
X128582704Y-91949200D01*
X128677942Y-91901580D01*
X129963657Y-92901580D02*
X129392228Y-92901580D01*
X129677942Y-92901580D02*
X129677942Y-91901580D01*
X129582704Y-92044438D01*
X129487466Y-92139676D01*
X129392228Y-92187295D01*
X130296990Y-92901580D02*
X130820800Y-92234914D01*
X130296990Y-92234914D02*
X130820800Y-92901580D01*
X131392228Y-91901580D02*
X131487466Y-91901580D01*
X131582704Y-91949200D01*
X131630323Y-91996819D01*
X131677942Y-92092057D01*
X131725561Y-92282533D01*
X131725561Y-92520628D01*
X131677942Y-92711104D01*
X131630323Y-92806342D01*
X131582704Y-92853961D01*
X131487466Y-92901580D01*
X131392228Y-92901580D01*
X131296990Y-92853961D01*
X131249371Y-92806342D01*
X131201752Y-92711104D01*
X131154133Y-92520628D01*
X131154133Y-92282533D01*
X131201752Y-92092057D01*
X131249371Y-91996819D01*
X131296990Y-91949200D01*
X131392228Y-91901580D01*
X132582704Y-91901580D02*
X132392228Y-91901580D01*
X132296990Y-91949200D01*
X132249371Y-91996819D01*
X132154133Y-92139676D01*
X132106514Y-92330152D01*
X132106514Y-92711104D01*
X132154133Y-92806342D01*
X132201752Y-92853961D01*
X132296990Y-92901580D01*
X132487466Y-92901580D01*
X132582704Y-92853961D01*
X132630323Y-92806342D01*
X132677942Y-92711104D01*
X132677942Y-92473009D01*
X132630323Y-92377771D01*
X132582704Y-92330152D01*
X132487466Y-92282533D01*
X132296990Y-92282533D01*
X132201752Y-92330152D01*
X132154133Y-92377771D01*
X132106514Y-92473009D01*
X128773180Y-84769200D02*
X127773180Y-84769200D01*
X128773180Y-84293009D02*
X127773180Y-84293009D01*
X128773180Y-83721580D01*
X127773180Y-83721580D01*
X128773180Y-82721580D02*
X128773180Y-83293009D01*
X128773180Y-83007295D02*
X127773180Y-83007295D01*
X127916038Y-83102533D01*
X128011276Y-83197771D01*
X128058895Y-83293009D01*
X124582704Y-110306942D02*
X124535085Y-110354561D01*
X124392228Y-110402180D01*
X124296990Y-110402180D01*
X124154133Y-110354561D01*
X124058895Y-110259323D01*
X124011276Y-110164085D01*
X123963657Y-109973609D01*
X123963657Y-109830752D01*
X124011276Y-109640276D01*
X124058895Y-109545038D01*
X124154133Y-109449800D01*
X124296990Y-109402180D01*
X124392228Y-109402180D01*
X124535085Y-109449800D01*
X124582704Y-109497419D01*
X125154133Y-110402180D02*
X125058895Y-110354561D01*
X125011276Y-110306942D01*
X124963657Y-110211704D01*
X124963657Y-109925990D01*
X125011276Y-109830752D01*
X125058895Y-109783133D01*
X125154133Y-109735514D01*
X125296990Y-109735514D01*
X125392228Y-109783133D01*
X125439847Y-109830752D01*
X125487466Y-109925990D01*
X125487466Y-110211704D01*
X125439847Y-110306942D01*
X125392228Y-110354561D01*
X125296990Y-110402180D01*
X125154133Y-110402180D01*
X125916038Y-109735514D02*
X125916038Y-110402180D01*
X125916038Y-109830752D02*
X125963657Y-109783133D01*
X126058895Y-109735514D01*
X126201752Y-109735514D01*
X126296990Y-109783133D01*
X126344609Y-109878371D01*
X126344609Y-110402180D01*
X126820800Y-109735514D02*
X126820800Y-110402180D01*
X126820800Y-109830752D02*
X126868419Y-109783133D01*
X126963657Y-109735514D01*
X127106514Y-109735514D01*
X127201752Y-109783133D01*
X127249371Y-109878371D01*
X127249371Y-110402180D01*
X127487466Y-110497419D02*
X128249371Y-110497419D01*
X128677942Y-109402180D02*
X128773180Y-109402180D01*
X128868419Y-109449800D01*
X128916038Y-109497419D01*
X128963657Y-109592657D01*
X129011276Y-109783133D01*
X129011276Y-110021228D01*
X128963657Y-110211704D01*
X128916038Y-110306942D01*
X128868419Y-110354561D01*
X128773180Y-110402180D01*
X128677942Y-110402180D01*
X128582704Y-110354561D01*
X128535085Y-110306942D01*
X128487466Y-110211704D01*
X128439847Y-110021228D01*
X128439847Y-109783133D01*
X128487466Y-109592657D01*
X128535085Y-109497419D01*
X128582704Y-109449800D01*
X128677942Y-109402180D01*
X129963657Y-110402180D02*
X129392228Y-110402180D01*
X129677942Y-110402180D02*
X129677942Y-109402180D01*
X129582704Y-109545038D01*
X129487466Y-109640276D01*
X129392228Y-109687895D01*
X130296990Y-110402180D02*
X130820800Y-109735514D01*
X130296990Y-109735514D02*
X130820800Y-110402180D01*
X131392228Y-109402180D02*
X131487466Y-109402180D01*
X131582704Y-109449800D01*
X131630323Y-109497419D01*
X131677942Y-109592657D01*
X131725561Y-109783133D01*
X131725561Y-110021228D01*
X131677942Y-110211704D01*
X131630323Y-110306942D01*
X131582704Y-110354561D01*
X131487466Y-110402180D01*
X131392228Y-110402180D01*
X131296990Y-110354561D01*
X131249371Y-110306942D01*
X131201752Y-110211704D01*
X131154133Y-110021228D01*
X131154133Y-109783133D01*
X131201752Y-109592657D01*
X131249371Y-109497419D01*
X131296990Y-109449800D01*
X131392228Y-109402180D01*
X132582704Y-109402180D02*
X132392228Y-109402180D01*
X132296990Y-109449800D01*
X132249371Y-109497419D01*
X132154133Y-109640276D01*
X132106514Y-109830752D01*
X132106514Y-110211704D01*
X132154133Y-110306942D01*
X132201752Y-110354561D01*
X132296990Y-110402180D01*
X132487466Y-110402180D01*
X132582704Y-110354561D01*
X132630323Y-110306942D01*
X132677942Y-110211704D01*
X132677942Y-109973609D01*
X132630323Y-109878371D01*
X132582704Y-109830752D01*
X132487466Y-109783133D01*
X132296990Y-109783133D01*
X132201752Y-109830752D01*
X132154133Y-109878371D01*
X132106514Y-109973609D01*
X127773180Y-102745990D02*
X127773180Y-102555514D01*
X127820800Y-102460276D01*
X127916038Y-102365038D01*
X128106514Y-102317419D01*
X128439847Y-102317419D01*
X128630323Y-102365038D01*
X128725561Y-102460276D01*
X128773180Y-102555514D01*
X128773180Y-102745990D01*
X128725561Y-102841228D01*
X128630323Y-102936466D01*
X128439847Y-102984085D01*
X128106514Y-102984085D01*
X127916038Y-102936466D01*
X127820800Y-102841228D01*
X127773180Y-102745990D01*
X127773180Y-101888847D02*
X128582704Y-101888847D01*
X128677942Y-101841228D01*
X128725561Y-101793609D01*
X128773180Y-101698371D01*
X128773180Y-101507895D01*
X128725561Y-101412657D01*
X128677942Y-101365038D01*
X128582704Y-101317419D01*
X127773180Y-101317419D01*
X127773180Y-100984085D02*
X127773180Y-100412657D01*
X128773180Y-100698371D02*
X127773180Y-100698371D01*
X128773180Y-99555514D02*
X128773180Y-100126942D01*
X128773180Y-99841228D02*
X127773180Y-99841228D01*
X127916038Y-99936466D01*
X128011276Y-100031704D01*
X128058895Y-100126942D01*
X117567231Y-82805503D02*
X117614850Y-82662646D01*
X117662469Y-82615027D01*
X117757707Y-82567408D01*
X117900564Y-82567408D01*
X117995802Y-82615027D01*
X118043421Y-82662646D01*
X118091040Y-82757884D01*
X118091040Y-83138837D01*
X117091040Y-83138837D01*
X117091040Y-82805503D01*
X117138660Y-82710265D01*
X117186279Y-82662646D01*
X117281517Y-82615027D01*
X117376755Y-82615027D01*
X117471993Y-82662646D01*
X117519612Y-82710265D01*
X117567231Y-82805503D01*
X117567231Y-83138837D01*
X118043421Y-82186456D02*
X118091040Y-82043599D01*
X118091040Y-81805503D01*
X118043421Y-81710265D01*
X117995802Y-81662646D01*
X117900564Y-81615027D01*
X117805326Y-81615027D01*
X117710088Y-81662646D01*
X117662469Y-81710265D01*
X117614850Y-81805503D01*
X117567231Y-81995980D01*
X117519612Y-82091218D01*
X117471993Y-82138837D01*
X117376755Y-82186456D01*
X117281517Y-82186456D01*
X117186279Y-82138837D01*
X117138660Y-82091218D01*
X117091040Y-81995980D01*
X117091040Y-81757884D01*
X117138660Y-81615027D01*
X118043421Y-81234075D02*
X118091040Y-81091218D01*
X118091040Y-80853122D01*
X118043421Y-80757884D01*
X117995802Y-80710265D01*
X117900564Y-80662646D01*
X117805326Y-80662646D01*
X117710088Y-80710265D01*
X117662469Y-80757884D01*
X117614850Y-80853122D01*
X117567231Y-81043599D01*
X117519612Y-81138837D01*
X117471993Y-81186456D01*
X117376755Y-81234075D01*
X117281517Y-81234075D01*
X117186279Y-81186456D01*
X117138660Y-81138837D01*
X117091040Y-81043599D01*
X117091040Y-80805503D01*
X117138660Y-80662646D01*
X118091040Y-79710265D02*
X118091040Y-80281694D01*
X118091040Y-79995980D02*
X117091040Y-79995980D01*
X117233898Y-80091218D01*
X117329136Y-80186456D01*
X117376755Y-80281694D01*
X117091040Y-79376932D02*
X117091040Y-78757884D01*
X117471993Y-79091218D01*
X117471993Y-78948360D01*
X117519612Y-78853122D01*
X117567231Y-78805503D01*
X117662469Y-78757884D01*
X117900564Y-78757884D01*
X117995802Y-78805503D01*
X118043421Y-78853122D01*
X118091040Y-78948360D01*
X118091040Y-79234075D01*
X118043421Y-79329313D01*
X117995802Y-79376932D01*
X117519612Y-78186456D02*
X117471993Y-78281694D01*
X117424374Y-78329313D01*
X117329136Y-78376932D01*
X117281517Y-78376932D01*
X117186279Y-78329313D01*
X117138660Y-78281694D01*
X117091040Y-78186456D01*
X117091040Y-77995980D01*
X117138660Y-77900741D01*
X117186279Y-77853122D01*
X117281517Y-77805503D01*
X117329136Y-77805503D01*
X117424374Y-77853122D01*
X117471993Y-77900741D01*
X117519612Y-77995980D01*
X117519612Y-78186456D01*
X117567231Y-78281694D01*
X117614850Y-78329313D01*
X117710088Y-78376932D01*
X117900564Y-78376932D01*
X117995802Y-78329313D01*
X118043421Y-78281694D01*
X118091040Y-78186456D01*
X118091040Y-77995980D01*
X118043421Y-77900741D01*
X117995802Y-77853122D01*
X117900564Y-77805503D01*
X117710088Y-77805503D01*
X117614850Y-77853122D01*
X117567231Y-77900741D01*
X117519612Y-77995980D01*
D12*
X115091040Y-80769789D02*
X115043421Y-80745980D01*
X114995802Y-80698360D01*
X114924374Y-80626932D01*
X114876755Y-80603122D01*
X114829136Y-80603122D01*
X114852945Y-80722170D02*
X114805326Y-80698360D01*
X114757707Y-80650741D01*
X114733898Y-80555503D01*
X114733898Y-80388837D01*
X114757707Y-80293599D01*
X114805326Y-80245980D01*
X114852945Y-80222170D01*
X114948183Y-80222170D01*
X114995802Y-80245980D01*
X115043421Y-80293599D01*
X115067231Y-80388837D01*
X115067231Y-80555503D01*
X115043421Y-80650741D01*
X114995802Y-80698360D01*
X114948183Y-80722170D01*
X114852945Y-80722170D01*
X115543421Y-80722170D02*
X115257707Y-80722170D01*
X115400564Y-80722170D02*
X115400564Y-80222170D01*
X115352945Y-80293599D01*
X115305326Y-80341218D01*
X115257707Y-80365027D01*
D11*
X121654871Y-82782263D02*
X121702490Y-82639406D01*
X121750109Y-82591787D01*
X121845347Y-82544168D01*
X121988204Y-82544168D01*
X122083442Y-82591787D01*
X122131061Y-82639406D01*
X122178680Y-82734644D01*
X122178680Y-83115597D01*
X121178680Y-83115597D01*
X121178680Y-82782263D01*
X121226300Y-82687025D01*
X121273919Y-82639406D01*
X121369157Y-82591787D01*
X121464395Y-82591787D01*
X121559633Y-82639406D01*
X121607252Y-82687025D01*
X121654871Y-82782263D01*
X121654871Y-83115597D01*
X122131061Y-82163216D02*
X122178680Y-82020359D01*
X122178680Y-81782263D01*
X122131061Y-81687025D01*
X122083442Y-81639406D01*
X121988204Y-81591787D01*
X121892966Y-81591787D01*
X121797728Y-81639406D01*
X121750109Y-81687025D01*
X121702490Y-81782263D01*
X121654871Y-81972740D01*
X121607252Y-82067978D01*
X121559633Y-82115597D01*
X121464395Y-82163216D01*
X121369157Y-82163216D01*
X121273919Y-82115597D01*
X121226300Y-82067978D01*
X121178680Y-81972740D01*
X121178680Y-81734644D01*
X121226300Y-81591787D01*
X122131061Y-81210835D02*
X122178680Y-81067978D01*
X122178680Y-80829882D01*
X122131061Y-80734644D01*
X122083442Y-80687025D01*
X121988204Y-80639406D01*
X121892966Y-80639406D01*
X121797728Y-80687025D01*
X121750109Y-80734644D01*
X121702490Y-80829882D01*
X121654871Y-81020359D01*
X121607252Y-81115597D01*
X121559633Y-81163216D01*
X121464395Y-81210835D01*
X121369157Y-81210835D01*
X121273919Y-81163216D01*
X121226300Y-81115597D01*
X121178680Y-81020359D01*
X121178680Y-80782263D01*
X121226300Y-80639406D01*
X122178680Y-79687025D02*
X122178680Y-80258454D01*
X122178680Y-79972740D02*
X121178680Y-79972740D01*
X121321538Y-80067978D01*
X121416776Y-80163216D01*
X121464395Y-80258454D01*
X121178680Y-79353692D02*
X121178680Y-78734644D01*
X121559633Y-79067978D01*
X121559633Y-78925120D01*
X121607252Y-78829882D01*
X121654871Y-78782263D01*
X121750109Y-78734644D01*
X121988204Y-78734644D01*
X122083442Y-78782263D01*
X122131061Y-78829882D01*
X122178680Y-78925120D01*
X122178680Y-79210835D01*
X122131061Y-79306073D01*
X122083442Y-79353692D01*
X121607252Y-78163216D02*
X121559633Y-78258454D01*
X121512014Y-78306073D01*
X121416776Y-78353692D01*
X121369157Y-78353692D01*
X121273919Y-78306073D01*
X121226300Y-78258454D01*
X121178680Y-78163216D01*
X121178680Y-77972740D01*
X121226300Y-77877501D01*
X121273919Y-77829882D01*
X121369157Y-77782263D01*
X121416776Y-77782263D01*
X121512014Y-77829882D01*
X121559633Y-77877501D01*
X121607252Y-77972740D01*
X121607252Y-78163216D01*
X121654871Y-78258454D01*
X121702490Y-78306073D01*
X121797728Y-78353692D01*
X121988204Y-78353692D01*
X122083442Y-78306073D01*
X122131061Y-78258454D01*
X122178680Y-78163216D01*
X122178680Y-77972740D01*
X122131061Y-77877501D01*
X122083442Y-77829882D01*
X121988204Y-77782263D01*
X121797728Y-77782263D01*
X121702490Y-77829882D01*
X121654871Y-77877501D01*
X121607252Y-77972740D01*
D12*
X119178680Y-80746549D02*
X119131061Y-80722740D01*
X119083442Y-80675120D01*
X119012014Y-80603692D01*
X118964395Y-80579882D01*
X118916776Y-80579882D01*
X118940585Y-80698930D02*
X118892966Y-80675120D01*
X118845347Y-80627501D01*
X118821538Y-80532263D01*
X118821538Y-80365597D01*
X118845347Y-80270359D01*
X118892966Y-80222740D01*
X118940585Y-80198930D01*
X119035823Y-80198930D01*
X119083442Y-80222740D01*
X119131061Y-80270359D01*
X119154871Y-80365597D01*
X119154871Y-80532263D01*
X119131061Y-80627501D01*
X119083442Y-80675120D01*
X119035823Y-80698930D01*
X118940585Y-80698930D01*
X119345347Y-80246549D02*
X119369157Y-80222740D01*
X119416776Y-80198930D01*
X119535823Y-80198930D01*
X119583442Y-80222740D01*
X119607252Y-80246549D01*
X119631061Y-80294168D01*
X119631061Y-80341787D01*
X119607252Y-80413216D01*
X119321538Y-80698930D01*
X119631061Y-80698930D01*
D11*
X99407280Y-96898809D02*
X100216804Y-96898809D01*
X100312042Y-96851190D01*
X100359661Y-96803571D01*
X100407280Y-96708333D01*
X100407280Y-96517857D01*
X100359661Y-96422619D01*
X100312042Y-96375000D01*
X100216804Y-96327380D01*
X99407280Y-96327380D01*
X100359661Y-95898809D02*
X100407280Y-95755952D01*
X100407280Y-95517857D01*
X100359661Y-95422619D01*
X100312042Y-95375000D01*
X100216804Y-95327380D01*
X100121566Y-95327380D01*
X100026328Y-95375000D01*
X99978709Y-95422619D01*
X99931090Y-95517857D01*
X99883471Y-95708333D01*
X99835852Y-95803571D01*
X99788233Y-95851190D01*
X99692995Y-95898809D01*
X99597757Y-95898809D01*
X99502519Y-95851190D01*
X99454900Y-95803571D01*
X99407280Y-95708333D01*
X99407280Y-95470238D01*
X99454900Y-95327380D01*
X99883471Y-94565476D02*
X99931090Y-94422619D01*
X99978709Y-94375000D01*
X100073947Y-94327380D01*
X100216804Y-94327380D01*
X100312042Y-94375000D01*
X100359661Y-94422619D01*
X100407280Y-94517857D01*
X100407280Y-94898809D01*
X99407280Y-94898809D01*
X99407280Y-94565476D01*
X99454900Y-94470238D01*
X99502519Y-94422619D01*
X99597757Y-94375000D01*
X99692995Y-94375000D01*
X99788233Y-94422619D01*
X99835852Y-94470238D01*
X99883471Y-94565476D01*
X99883471Y-94898809D01*
X100502519Y-94136904D02*
X100502519Y-93375000D01*
X99883471Y-92803571D02*
X99931090Y-92660714D01*
X99978709Y-92613095D01*
X100073947Y-92565476D01*
X100216804Y-92565476D01*
X100312042Y-92613095D01*
X100359661Y-92660714D01*
X100407280Y-92755952D01*
X100407280Y-93136904D01*
X99407280Y-93136904D01*
X99407280Y-92803571D01*
X99454900Y-92708333D01*
X99502519Y-92660714D01*
X99597757Y-92613095D01*
X99692995Y-92613095D01*
X99788233Y-92660714D01*
X99835852Y-92708333D01*
X99883471Y-92803571D01*
X99883471Y-93136904D01*
X100502519Y-92375000D02*
X100502519Y-91613095D01*
X100407280Y-91375000D02*
X99407280Y-91375000D01*
X100121566Y-91041666D01*
X99407280Y-90708333D01*
X100407280Y-90708333D01*
X100407280Y-90232142D02*
X99740614Y-90232142D01*
X99407280Y-90232142D02*
X99454900Y-90279761D01*
X99502519Y-90232142D01*
X99454900Y-90184523D01*
X99407280Y-90232142D01*
X99502519Y-90232142D01*
X100359661Y-89327380D02*
X100407280Y-89422619D01*
X100407280Y-89613095D01*
X100359661Y-89708333D01*
X100312042Y-89755952D01*
X100216804Y-89803571D01*
X99931090Y-89803571D01*
X99835852Y-89755952D01*
X99788233Y-89708333D01*
X99740614Y-89613095D01*
X99740614Y-89422619D01*
X99788233Y-89327380D01*
X100407280Y-88898809D02*
X99740614Y-88898809D01*
X99931090Y-88898809D02*
X99835852Y-88851190D01*
X99788233Y-88803571D01*
X99740614Y-88708333D01*
X99740614Y-88613095D01*
X100407280Y-88136904D02*
X100359661Y-88232142D01*
X100312042Y-88279761D01*
X100216804Y-88327380D01*
X99931090Y-88327380D01*
X99835852Y-88279761D01*
X99788233Y-88232142D01*
X99740614Y-88136904D01*
X99740614Y-87994047D01*
X99788233Y-87898809D01*
X99835852Y-87851190D01*
X99931090Y-87803571D01*
X100216804Y-87803571D01*
X100312042Y-87851190D01*
X100359661Y-87898809D01*
X100407280Y-87994047D01*
X100407280Y-88136904D01*
X103857280Y-93884523D02*
X102857280Y-93884523D01*
X102857280Y-93503571D01*
X102904900Y-93408333D01*
X102952519Y-93360714D01*
X103047757Y-93313095D01*
X103190614Y-93313095D01*
X103285852Y-93360714D01*
X103333471Y-93408333D01*
X103381090Y-93503571D01*
X103381090Y-93884523D01*
X102857280Y-92979761D02*
X103857280Y-92741666D01*
X103142995Y-92551190D01*
X103857280Y-92360714D01*
X102857280Y-92122619D01*
X103857280Y-91170238D02*
X103381090Y-91503571D01*
X103857280Y-91741666D02*
X102857280Y-91741666D01*
X102857280Y-91360714D01*
X102904900Y-91265476D01*
X102952519Y-91217857D01*
X103047757Y-91170238D01*
X103190614Y-91170238D01*
X103285852Y-91217857D01*
X103333471Y-91265476D01*
X103381090Y-91360714D01*
X103381090Y-91741666D01*
X102952519Y-90789285D02*
X102904900Y-90741666D01*
X102857280Y-90646428D01*
X102857280Y-90408333D01*
X102904900Y-90313095D01*
X102952519Y-90265476D01*
X103047757Y-90217857D01*
X103142995Y-90217857D01*
X103285852Y-90265476D01*
X103857280Y-90836904D01*
X103857280Y-90217857D01*
X99614761Y-86052380D02*
X99138571Y-86052380D01*
X99138571Y-85052380D01*
X99948095Y-86052380D02*
X99948095Y-85052380D01*
X100186190Y-85052380D01*
X100329047Y-85100000D01*
X100424285Y-85195238D01*
X100471904Y-85290476D01*
X100519523Y-85480952D01*
X100519523Y-85623809D01*
X100471904Y-85814285D01*
X100424285Y-85909523D01*
X100329047Y-86004761D01*
X100186190Y-86052380D01*
X99948095Y-86052380D01*
X101471904Y-86052380D02*
X100900476Y-86052380D01*
X101186190Y-86052380D02*
X101186190Y-85052380D01*
X101090952Y-85195238D01*
X100995714Y-85290476D01*
X100900476Y-85338095D01*
X102424285Y-86052380D02*
X101852857Y-86052380D01*
X102138571Y-86052380D02*
X102138571Y-85052380D01*
X102043333Y-85195238D01*
X101948095Y-85290476D01*
X101852857Y-85338095D01*
X103376666Y-86052380D02*
X102805238Y-86052380D01*
X103090952Y-86052380D02*
X103090952Y-85052380D01*
X102995714Y-85195238D01*
X102900476Y-85290476D01*
X102805238Y-85338095D01*
X103710000Y-85052380D02*
X104376666Y-85052380D01*
X103948095Y-86052380D01*
X104710000Y-86004761D02*
X104852857Y-86052380D01*
X105090952Y-86052380D01*
X105186190Y-86004761D01*
X105233809Y-85957142D01*
X105281428Y-85861904D01*
X105281428Y-85766666D01*
X105233809Y-85671428D01*
X105186190Y-85623809D01*
X105090952Y-85576190D01*
X104900476Y-85528571D01*
X104805238Y-85480952D01*
X104757619Y-85433333D01*
X104710000Y-85338095D01*
X104710000Y-85242857D01*
X104757619Y-85147619D01*
X104805238Y-85100000D01*
X104900476Y-85052380D01*
X105138571Y-85052380D01*
X105281428Y-85100000D01*
X105614761Y-85052380D02*
X106233809Y-85052380D01*
X105900476Y-85433333D01*
X106043333Y-85433333D01*
X106138571Y-85480952D01*
X106186190Y-85528571D01*
X106233809Y-85623809D01*
X106233809Y-85861904D01*
X106186190Y-85957142D01*
X106138571Y-86004761D01*
X106043333Y-86052380D01*
X105757619Y-86052380D01*
X105662380Y-86004761D01*
X105614761Y-85957142D01*
X106567142Y-85052380D02*
X107186190Y-85052380D01*
X106852857Y-85433333D01*
X106995714Y-85433333D01*
X107090952Y-85480952D01*
X107138571Y-85528571D01*
X107186190Y-85623809D01*
X107186190Y-85861904D01*
X107138571Y-85957142D01*
X107090952Y-86004761D01*
X106995714Y-86052380D01*
X106710000Y-86052380D01*
X106614761Y-86004761D01*
X106567142Y-85957142D01*
X107471904Y-85052380D02*
X108043333Y-85052380D01*
X107757619Y-86052380D02*
X107757619Y-85052380D01*
X108948095Y-86052380D02*
X108614761Y-85576190D01*
X108376666Y-86052380D02*
X108376666Y-85052380D01*
X108757619Y-85052380D01*
X108852857Y-85100000D01*
X108900476Y-85147619D01*
X108948095Y-85242857D01*
X108948095Y-85385714D01*
X108900476Y-85480952D01*
X108852857Y-85528571D01*
X108757619Y-85576190D01*
X108376666Y-85576190D01*
X109138571Y-86147619D02*
X109900476Y-86147619D01*
X110090952Y-86004761D02*
X110233809Y-86052380D01*
X110471904Y-86052380D01*
X110567142Y-86004761D01*
X110614761Y-85957142D01*
X110662380Y-85861904D01*
X110662380Y-85766666D01*
X110614761Y-85671428D01*
X110567142Y-85623809D01*
X110471904Y-85576190D01*
X110281428Y-85528571D01*
X110186190Y-85480952D01*
X110138571Y-85433333D01*
X110090952Y-85338095D01*
X110090952Y-85242857D01*
X110138571Y-85147619D01*
X110186190Y-85100000D01*
X110281428Y-85052380D01*
X110519523Y-85052380D01*
X110662380Y-85100000D01*
X111281428Y-85052380D02*
X111471904Y-85052380D01*
X111567142Y-85100000D01*
X111662380Y-85195238D01*
X111710000Y-85385714D01*
X111710000Y-85719047D01*
X111662380Y-85909523D01*
X111567142Y-86004761D01*
X111471904Y-86052380D01*
X111281428Y-86052380D01*
X111186190Y-86004761D01*
X111090952Y-85909523D01*
X111043333Y-85719047D01*
X111043333Y-85385714D01*
X111090952Y-85195238D01*
X111186190Y-85100000D01*
X111281428Y-85052380D01*
X111995714Y-85052380D02*
X112567142Y-85052380D01*
X112281428Y-86052380D02*
X112281428Y-85052380D01*
X112852857Y-85147619D02*
X112900476Y-85100000D01*
X112995714Y-85052380D01*
X113233809Y-85052380D01*
X113329047Y-85100000D01*
X113376666Y-85147619D01*
X113424285Y-85242857D01*
X113424285Y-85338095D01*
X113376666Y-85480952D01*
X112805238Y-86052380D01*
X113424285Y-86052380D01*
X113805238Y-85147619D02*
X113852857Y-85100000D01*
X113948095Y-85052380D01*
X114186190Y-85052380D01*
X114281428Y-85100000D01*
X114329047Y-85147619D01*
X114376666Y-85242857D01*
X114376666Y-85338095D01*
X114329047Y-85480952D01*
X113757619Y-86052380D01*
X114376666Y-86052380D01*
X114710000Y-85052380D02*
X115329047Y-85052380D01*
X114995714Y-85433333D01*
X115138571Y-85433333D01*
X115233809Y-85480952D01*
X115281428Y-85528571D01*
X115329047Y-85623809D01*
X115329047Y-85861904D01*
X115281428Y-85957142D01*
X115233809Y-86004761D01*
X115138571Y-86052380D01*
X114852857Y-86052380D01*
X114757619Y-86004761D01*
X114710000Y-85957142D01*
D13*
X106771904Y-81709523D02*
X107419523Y-81709523D01*
X107495714Y-81671428D01*
X107533809Y-81633333D01*
X107571904Y-81557142D01*
X107571904Y-81404761D01*
X107533809Y-81328571D01*
X107495714Y-81290476D01*
X107419523Y-81252380D01*
X106771904Y-81252380D01*
X106848095Y-80909523D02*
X106810000Y-80871428D01*
X106771904Y-80795238D01*
X106771904Y-80604761D01*
X106810000Y-80528571D01*
X106848095Y-80490476D01*
X106924285Y-80452380D01*
X107000476Y-80452380D01*
X107114761Y-80490476D01*
X107571904Y-80947619D01*
X107571904Y-80452380D01*
D11*
X110800000Y-90677619D02*
X110847619Y-90630000D01*
X110942857Y-90582380D01*
X111180952Y-90582380D01*
X111276190Y-90630000D01*
X111323809Y-90677619D01*
X111371428Y-90772857D01*
X111371428Y-90868095D01*
X111323809Y-91010952D01*
X110752380Y-91582380D01*
X111371428Y-91582380D01*
X111752380Y-90677619D02*
X111800000Y-90630000D01*
X111895238Y-90582380D01*
X112133333Y-90582380D01*
X112228571Y-90630000D01*
X112276190Y-90677619D01*
X112323809Y-90772857D01*
X112323809Y-90868095D01*
X112276190Y-91010952D01*
X111704761Y-91582380D01*
X112323809Y-91582380D01*
X113180952Y-90915714D02*
X113180952Y-91582380D01*
X112752380Y-90915714D02*
X112752380Y-91439523D01*
X112800000Y-91534761D01*
X112895238Y-91582380D01*
X113038095Y-91582380D01*
X113133333Y-91534761D01*
X113180952Y-91487142D01*
X113514285Y-90915714D02*
X113895238Y-90915714D01*
X113657142Y-91582380D02*
X113657142Y-90725238D01*
X113704761Y-90630000D01*
X113800000Y-90582380D01*
X113895238Y-90582380D01*
D14*
X112216666Y-89628571D02*
X112192857Y-89652380D01*
X112121428Y-89676190D01*
X112073809Y-89676190D01*
X112002380Y-89652380D01*
X111954761Y-89604761D01*
X111930952Y-89557142D01*
X111907142Y-89461904D01*
X111907142Y-89390476D01*
X111930952Y-89295238D01*
X111954761Y-89247619D01*
X112002380Y-89200000D01*
X112073809Y-89176190D01*
X112121428Y-89176190D01*
X112192857Y-89200000D01*
X112216666Y-89223809D01*
X112692857Y-89676190D02*
X112407142Y-89676190D01*
X112550000Y-89676190D02*
X112550000Y-89176190D01*
X112502380Y-89247619D01*
X112454761Y-89295238D01*
X112407142Y-89319047D01*
D11*
X110750000Y-87632380D02*
X110845238Y-87632380D01*
X110940476Y-87680000D01*
X110988095Y-87727619D01*
X111035714Y-87822857D01*
X111083333Y-88013333D01*
X111083333Y-88251428D01*
X111035714Y-88441904D01*
X110988095Y-88537142D01*
X110940476Y-88584761D01*
X110845238Y-88632380D01*
X110750000Y-88632380D01*
X110654761Y-88584761D01*
X110607142Y-88537142D01*
X110559523Y-88441904D01*
X110511904Y-88251428D01*
X110511904Y-88013333D01*
X110559523Y-87822857D01*
X110607142Y-87727619D01*
X110654761Y-87680000D01*
X110750000Y-87632380D01*
X111511904Y-88537142D02*
X111559523Y-88584761D01*
X111511904Y-88632380D01*
X111464285Y-88584761D01*
X111511904Y-88537142D01*
X111511904Y-88632380D01*
X112511904Y-88632380D02*
X111940476Y-88632380D01*
X112226190Y-88632380D02*
X112226190Y-87632380D01*
X112130952Y-87775238D01*
X112035714Y-87870476D01*
X111940476Y-87918095D01*
X113369047Y-87965714D02*
X113369047Y-88632380D01*
X112940476Y-87965714D02*
X112940476Y-88489523D01*
X112988095Y-88584761D01*
X113083333Y-88632380D01*
X113226190Y-88632380D01*
X113321428Y-88584761D01*
X113369047Y-88537142D01*
X113702380Y-87965714D02*
X114083333Y-87965714D01*
X113845238Y-88632380D02*
X113845238Y-87775238D01*
X113892857Y-87680000D01*
X113988095Y-87632380D01*
X114083333Y-87632380D01*
D14*
X112166666Y-86678571D02*
X112142857Y-86702380D01*
X112071428Y-86726190D01*
X112023809Y-86726190D01*
X111952380Y-86702380D01*
X111904761Y-86654761D01*
X111880952Y-86607142D01*
X111857142Y-86511904D01*
X111857142Y-86440476D01*
X111880952Y-86345238D01*
X111904761Y-86297619D01*
X111952380Y-86250000D01*
X112023809Y-86226190D01*
X112071428Y-86226190D01*
X112142857Y-86250000D01*
X112166666Y-86273809D01*
X112357142Y-86273809D02*
X112380952Y-86250000D01*
X112428571Y-86226190D01*
X112547619Y-86226190D01*
X112595238Y-86250000D01*
X112619047Y-86273809D01*
X112642857Y-86321428D01*
X112642857Y-86369047D01*
X112619047Y-86440476D01*
X112333333Y-86726190D01*
X112642857Y-86726190D01*
D11*
X103000000Y-61872380D02*
X103095238Y-61872380D01*
X103190476Y-61920000D01*
X103238095Y-61967619D01*
X103285714Y-62062857D01*
X103333333Y-62253333D01*
X103333333Y-62491428D01*
X103285714Y-62681904D01*
X103238095Y-62777142D01*
X103190476Y-62824761D01*
X103095238Y-62872380D01*
X103000000Y-62872380D01*
X102904761Y-62824761D01*
X102857142Y-62777142D01*
X102809523Y-62681904D01*
X102761904Y-62491428D01*
X102761904Y-62253333D01*
X102809523Y-62062857D01*
X102857142Y-61967619D01*
X102904761Y-61920000D01*
X103000000Y-61872380D01*
X103761904Y-62777142D02*
X103809523Y-62824761D01*
X103761904Y-62872380D01*
X103714285Y-62824761D01*
X103761904Y-62777142D01*
X103761904Y-62872380D01*
X104761904Y-62872380D02*
X104190476Y-62872380D01*
X104476190Y-62872380D02*
X104476190Y-61872380D01*
X104380952Y-62015238D01*
X104285714Y-62110476D01*
X104190476Y-62158095D01*
X105619047Y-62205714D02*
X105619047Y-62872380D01*
X105190476Y-62205714D02*
X105190476Y-62729523D01*
X105238095Y-62824761D01*
X105333333Y-62872380D01*
X105476190Y-62872380D01*
X105571428Y-62824761D01*
X105619047Y-62777142D01*
X105952380Y-62205714D02*
X106333333Y-62205714D01*
X106095238Y-62872380D02*
X106095238Y-62015238D01*
X106142857Y-61920000D01*
X106238095Y-61872380D01*
X106333333Y-61872380D01*
D14*
X104416666Y-64278571D02*
X104392857Y-64302380D01*
X104321428Y-64326190D01*
X104273809Y-64326190D01*
X104202380Y-64302380D01*
X104154761Y-64254761D01*
X104130952Y-64207142D01*
X104107142Y-64111904D01*
X104107142Y-64040476D01*
X104130952Y-63945238D01*
X104154761Y-63897619D01*
X104202380Y-63850000D01*
X104273809Y-63826190D01*
X104321428Y-63826190D01*
X104392857Y-63850000D01*
X104416666Y-63873809D01*
X104583333Y-63826190D02*
X104892857Y-63826190D01*
X104726190Y-64016666D01*
X104797619Y-64016666D01*
X104845238Y-64040476D01*
X104869047Y-64064285D01*
X104892857Y-64111904D01*
X104892857Y-64230952D01*
X104869047Y-64278571D01*
X104845238Y-64302380D01*
X104797619Y-64326190D01*
X104654761Y-64326190D01*
X104607142Y-64302380D01*
X104583333Y-64278571D01*
D11*
X103000000Y-64567619D02*
X103047619Y-64520000D01*
X103142857Y-64472380D01*
X103380952Y-64472380D01*
X103476190Y-64520000D01*
X103523809Y-64567619D01*
X103571428Y-64662857D01*
X103571428Y-64758095D01*
X103523809Y-64900952D01*
X102952380Y-65472380D01*
X103571428Y-65472380D01*
X103952380Y-64567619D02*
X104000000Y-64520000D01*
X104095238Y-64472380D01*
X104333333Y-64472380D01*
X104428571Y-64520000D01*
X104476190Y-64567619D01*
X104523809Y-64662857D01*
X104523809Y-64758095D01*
X104476190Y-64900952D01*
X103904761Y-65472380D01*
X104523809Y-65472380D01*
X105380952Y-64805714D02*
X105380952Y-65472380D01*
X104952380Y-64805714D02*
X104952380Y-65329523D01*
X105000000Y-65424761D01*
X105095238Y-65472380D01*
X105238095Y-65472380D01*
X105333333Y-65424761D01*
X105380952Y-65377142D01*
X105714285Y-64805714D02*
X106095238Y-64805714D01*
X105857142Y-65472380D02*
X105857142Y-64615238D01*
X105904761Y-64520000D01*
X106000000Y-64472380D01*
X106095238Y-64472380D01*
D14*
X104416666Y-66878571D02*
X104392857Y-66902380D01*
X104321428Y-66926190D01*
X104273809Y-66926190D01*
X104202380Y-66902380D01*
X104154761Y-66854761D01*
X104130952Y-66807142D01*
X104107142Y-66711904D01*
X104107142Y-66640476D01*
X104130952Y-66545238D01*
X104154761Y-66497619D01*
X104202380Y-66450000D01*
X104273809Y-66426190D01*
X104321428Y-66426190D01*
X104392857Y-66450000D01*
X104416666Y-66473809D01*
X104845238Y-66592857D02*
X104845238Y-66926190D01*
X104726190Y-66402380D02*
X104607142Y-66759523D01*
X104916666Y-66759523D01*
D11*
X103000000Y-62682380D02*
X103095238Y-62682380D01*
X103190476Y-62730000D01*
X103238095Y-62777619D01*
X103285714Y-62872857D01*
X103333333Y-63063333D01*
X103333333Y-63301428D01*
X103285714Y-63491904D01*
X103238095Y-63587142D01*
X103190476Y-63634761D01*
X103095238Y-63682380D01*
X103000000Y-63682380D01*
X102904761Y-63634761D01*
X102857142Y-63587142D01*
X102809523Y-63491904D01*
X102761904Y-63301428D01*
X102761904Y-63063333D01*
X102809523Y-62872857D01*
X102857142Y-62777619D01*
X102904761Y-62730000D01*
X103000000Y-62682380D01*
X103761904Y-63587142D02*
X103809523Y-63634761D01*
X103761904Y-63682380D01*
X103714285Y-63634761D01*
X103761904Y-63587142D01*
X103761904Y-63682380D01*
X104761904Y-63682380D02*
X104190476Y-63682380D01*
X104476190Y-63682380D02*
X104476190Y-62682380D01*
X104380952Y-62825238D01*
X104285714Y-62920476D01*
X104190476Y-62968095D01*
X105619047Y-63015714D02*
X105619047Y-63682380D01*
X105190476Y-63015714D02*
X105190476Y-63539523D01*
X105238095Y-63634761D01*
X105333333Y-63682380D01*
X105476190Y-63682380D01*
X105571428Y-63634761D01*
X105619047Y-63587142D01*
X105952380Y-63015714D02*
X106333333Y-63015714D01*
X106095238Y-63682380D02*
X106095238Y-62825238D01*
X106142857Y-62730000D01*
X106238095Y-62682380D01*
X106333333Y-62682380D01*
D14*
X104416666Y-61728571D02*
X104392857Y-61752380D01*
X104321428Y-61776190D01*
X104273809Y-61776190D01*
X104202380Y-61752380D01*
X104154761Y-61704761D01*
X104130952Y-61657142D01*
X104107142Y-61561904D01*
X104107142Y-61490476D01*
X104130952Y-61395238D01*
X104154761Y-61347619D01*
X104202380Y-61300000D01*
X104273809Y-61276190D01*
X104321428Y-61276190D01*
X104392857Y-61300000D01*
X104416666Y-61323809D01*
X104869047Y-61276190D02*
X104630952Y-61276190D01*
X104607142Y-61514285D01*
X104630952Y-61490476D01*
X104678571Y-61466666D01*
X104797619Y-61466666D01*
X104845238Y-61490476D01*
X104869047Y-61514285D01*
X104892857Y-61561904D01*
X104892857Y-61680952D01*
X104869047Y-61728571D01*
X104845238Y-61752380D01*
X104797619Y-61776190D01*
X104678571Y-61776190D01*
X104630952Y-61752380D01*
X104607142Y-61728571D01*
D11*
X103000000Y-74432380D02*
X103095238Y-74432380D01*
X103190476Y-74480000D01*
X103238095Y-74527619D01*
X103285714Y-74622857D01*
X103333333Y-74813333D01*
X103333333Y-75051428D01*
X103285714Y-75241904D01*
X103238095Y-75337142D01*
X103190476Y-75384761D01*
X103095238Y-75432380D01*
X103000000Y-75432380D01*
X102904761Y-75384761D01*
X102857142Y-75337142D01*
X102809523Y-75241904D01*
X102761904Y-75051428D01*
X102761904Y-74813333D01*
X102809523Y-74622857D01*
X102857142Y-74527619D01*
X102904761Y-74480000D01*
X103000000Y-74432380D01*
X103761904Y-75337142D02*
X103809523Y-75384761D01*
X103761904Y-75432380D01*
X103714285Y-75384761D01*
X103761904Y-75337142D01*
X103761904Y-75432380D01*
X104761904Y-75432380D02*
X104190476Y-75432380D01*
X104476190Y-75432380D02*
X104476190Y-74432380D01*
X104380952Y-74575238D01*
X104285714Y-74670476D01*
X104190476Y-74718095D01*
X105619047Y-74765714D02*
X105619047Y-75432380D01*
X105190476Y-74765714D02*
X105190476Y-75289523D01*
X105238095Y-75384761D01*
X105333333Y-75432380D01*
X105476190Y-75432380D01*
X105571428Y-75384761D01*
X105619047Y-75337142D01*
X105952380Y-74765714D02*
X106333333Y-74765714D01*
X106095238Y-75432380D02*
X106095238Y-74575238D01*
X106142857Y-74480000D01*
X106238095Y-74432380D01*
X106333333Y-74432380D01*
D14*
X104416666Y-73478571D02*
X104392857Y-73502380D01*
X104321428Y-73526190D01*
X104273809Y-73526190D01*
X104202380Y-73502380D01*
X104154761Y-73454761D01*
X104130952Y-73407142D01*
X104107142Y-73311904D01*
X104107142Y-73240476D01*
X104130952Y-73145238D01*
X104154761Y-73097619D01*
X104202380Y-73050000D01*
X104273809Y-73026190D01*
X104321428Y-73026190D01*
X104392857Y-73050000D01*
X104416666Y-73073809D01*
X104845238Y-73026190D02*
X104750000Y-73026190D01*
X104702380Y-73050000D01*
X104678571Y-73073809D01*
X104630952Y-73145238D01*
X104607142Y-73240476D01*
X104607142Y-73430952D01*
X104630952Y-73478571D01*
X104654761Y-73502380D01*
X104702380Y-73526190D01*
X104797619Y-73526190D01*
X104845238Y-73502380D01*
X104869047Y-73478571D01*
X104892857Y-73430952D01*
X104892857Y-73311904D01*
X104869047Y-73264285D01*
X104845238Y-73240476D01*
X104797619Y-73216666D01*
X104702380Y-73216666D01*
X104654761Y-73240476D01*
X104630952Y-73264285D01*
X104607142Y-73311904D01*
D11*
X103904761Y-61102380D02*
X103333333Y-61102380D01*
X103619047Y-61102380D02*
X103619047Y-60102380D01*
X103523809Y-60245238D01*
X103428571Y-60340476D01*
X103333333Y-60388095D01*
X104523809Y-60102380D02*
X104619047Y-60102380D01*
X104714285Y-60150000D01*
X104761904Y-60197619D01*
X104809523Y-60292857D01*
X104857142Y-60483333D01*
X104857142Y-60721428D01*
X104809523Y-60911904D01*
X104761904Y-61007142D01*
X104714285Y-61054761D01*
X104619047Y-61102380D01*
X104523809Y-61102380D01*
X104428571Y-61054761D01*
X104380952Y-61007142D01*
X104333333Y-60911904D01*
X104285714Y-60721428D01*
X104285714Y-60483333D01*
X104333333Y-60292857D01*
X104380952Y-60197619D01*
X104428571Y-60150000D01*
X104523809Y-60102380D01*
X105285714Y-61102380D02*
X105285714Y-60102380D01*
X105380952Y-60721428D02*
X105666666Y-61102380D01*
X105666666Y-60435714D02*
X105285714Y-60816666D01*
D14*
X104416666Y-59226190D02*
X104250000Y-58988095D01*
X104130952Y-59226190D02*
X104130952Y-58726190D01*
X104321428Y-58726190D01*
X104369047Y-58750000D01*
X104392857Y-58773809D01*
X104416666Y-58821428D01*
X104416666Y-58892857D01*
X104392857Y-58940476D01*
X104369047Y-58964285D01*
X104321428Y-58988095D01*
X104130952Y-58988095D01*
X104892857Y-59226190D02*
X104607142Y-59226190D01*
X104750000Y-59226190D02*
X104750000Y-58726190D01*
X104702380Y-58797619D01*
X104654761Y-58845238D01*
X104607142Y-58869047D01*
D11*
X127514285Y-59552380D02*
X128133333Y-59552380D01*
X127800000Y-59933333D01*
X127942857Y-59933333D01*
X128038095Y-59980952D01*
X128085714Y-60028571D01*
X128133333Y-60123809D01*
X128133333Y-60361904D01*
X128085714Y-60457142D01*
X128038095Y-60504761D01*
X127942857Y-60552380D01*
X127657142Y-60552380D01*
X127561904Y-60504761D01*
X127514285Y-60457142D01*
X128466666Y-59552380D02*
X129085714Y-59552380D01*
X128752380Y-59933333D01*
X128895238Y-59933333D01*
X128990476Y-59980952D01*
X129038095Y-60028571D01*
X129085714Y-60123809D01*
X129085714Y-60361904D01*
X129038095Y-60457142D01*
X128990476Y-60504761D01*
X128895238Y-60552380D01*
X128609523Y-60552380D01*
X128514285Y-60504761D01*
X128466666Y-60457142D01*
X129704761Y-59552380D02*
X129800000Y-59552380D01*
X129895238Y-59600000D01*
X129942857Y-59647619D01*
X129990476Y-59742857D01*
X130038095Y-59933333D01*
X130038095Y-60171428D01*
X129990476Y-60361904D01*
X129942857Y-60457142D01*
X129895238Y-60504761D01*
X129800000Y-60552380D01*
X129704761Y-60552380D01*
X129609523Y-60504761D01*
X129561904Y-60457142D01*
X129514285Y-60361904D01*
X129466666Y-60171428D01*
X129466666Y-59933333D01*
X129514285Y-59742857D01*
X129561904Y-59647619D01*
X129609523Y-59600000D01*
X129704761Y-59552380D01*
D14*
X128716666Y-61976190D02*
X128550000Y-61738095D01*
X128430952Y-61976190D02*
X128430952Y-61476190D01*
X128621428Y-61476190D01*
X128669047Y-61500000D01*
X128692857Y-61523809D01*
X128716666Y-61571428D01*
X128716666Y-61642857D01*
X128692857Y-61690476D01*
X128669047Y-61714285D01*
X128621428Y-61738095D01*
X128430952Y-61738095D01*
X128907142Y-61523809D02*
X128930952Y-61500000D01*
X128978571Y-61476190D01*
X129097619Y-61476190D01*
X129145238Y-61500000D01*
X129169047Y-61523809D01*
X129192857Y-61571428D01*
X129192857Y-61619047D01*
X129169047Y-61690476D01*
X128883333Y-61976190D01*
X129192857Y-61976190D01*
D11*
X115654761Y-88602380D02*
X115083333Y-88602380D01*
X115369047Y-88602380D02*
X115369047Y-87602380D01*
X115273809Y-87745238D01*
X115178571Y-87840476D01*
X115083333Y-87888095D01*
X116273809Y-87602380D02*
X116369047Y-87602380D01*
X116464285Y-87650000D01*
X116511904Y-87697619D01*
X116559523Y-87792857D01*
X116607142Y-87983333D01*
X116607142Y-88221428D01*
X116559523Y-88411904D01*
X116511904Y-88507142D01*
X116464285Y-88554761D01*
X116369047Y-88602380D01*
X116273809Y-88602380D01*
X116178571Y-88554761D01*
X116130952Y-88507142D01*
X116083333Y-88411904D01*
X116035714Y-88221428D01*
X116035714Y-87983333D01*
X116083333Y-87792857D01*
X116130952Y-87697619D01*
X116178571Y-87650000D01*
X116273809Y-87602380D01*
X117035714Y-88602380D02*
X117035714Y-87602380D01*
X117130952Y-88221428D02*
X117416666Y-88602380D01*
X117416666Y-87935714D02*
X117035714Y-88316666D01*
D14*
X116166666Y-86726190D02*
X116000000Y-86488095D01*
X115880952Y-86726190D02*
X115880952Y-86226190D01*
X116071428Y-86226190D01*
X116119047Y-86250000D01*
X116142857Y-86273809D01*
X116166666Y-86321428D01*
X116166666Y-86392857D01*
X116142857Y-86440476D01*
X116119047Y-86464285D01*
X116071428Y-86488095D01*
X115880952Y-86488095D01*
X116333333Y-86226190D02*
X116642857Y-86226190D01*
X116476190Y-86416666D01*
X116547619Y-86416666D01*
X116595238Y-86440476D01*
X116619047Y-86464285D01*
X116642857Y-86511904D01*
X116642857Y-86630952D01*
X116619047Y-86678571D01*
X116595238Y-86702380D01*
X116547619Y-86726190D01*
X116404761Y-86726190D01*
X116357142Y-86702380D01*
X116333333Y-86678571D01*
D11*
X115704761Y-88252380D02*
X115133333Y-88252380D01*
X115419047Y-88252380D02*
X115419047Y-87252380D01*
X115323809Y-87395238D01*
X115228571Y-87490476D01*
X115133333Y-87538095D01*
X116323809Y-87252380D02*
X116419047Y-87252380D01*
X116514285Y-87300000D01*
X116561904Y-87347619D01*
X116609523Y-87442857D01*
X116657142Y-87633333D01*
X116657142Y-87871428D01*
X116609523Y-88061904D01*
X116561904Y-88157142D01*
X116514285Y-88204761D01*
X116419047Y-88252380D01*
X116323809Y-88252380D01*
X116228571Y-88204761D01*
X116180952Y-88157142D01*
X116133333Y-88061904D01*
X116085714Y-87871428D01*
X116085714Y-87633333D01*
X116133333Y-87442857D01*
X116180952Y-87347619D01*
X116228571Y-87300000D01*
X116323809Y-87252380D01*
X117085714Y-88252380D02*
X117085714Y-87252380D01*
X117180952Y-87871428D02*
X117466666Y-88252380D01*
X117466666Y-87585714D02*
X117085714Y-87966666D01*
D14*
X116216666Y-89676190D02*
X116050000Y-89438095D01*
X115930952Y-89676190D02*
X115930952Y-89176190D01*
X116121428Y-89176190D01*
X116169047Y-89200000D01*
X116192857Y-89223809D01*
X116216666Y-89271428D01*
X116216666Y-89342857D01*
X116192857Y-89390476D01*
X116169047Y-89414285D01*
X116121428Y-89438095D01*
X115930952Y-89438095D01*
X116645238Y-89342857D02*
X116645238Y-89676190D01*
X116526190Y-89152380D02*
X116407142Y-89509523D01*
X116716666Y-89509523D01*
D11*
X119654761Y-88602380D02*
X119083333Y-88602380D01*
X119369047Y-88602380D02*
X119369047Y-87602380D01*
X119273809Y-87745238D01*
X119178571Y-87840476D01*
X119083333Y-87888095D01*
X120273809Y-87602380D02*
X120369047Y-87602380D01*
X120464285Y-87650000D01*
X120511904Y-87697619D01*
X120559523Y-87792857D01*
X120607142Y-87983333D01*
X120607142Y-88221428D01*
X120559523Y-88411904D01*
X120511904Y-88507142D01*
X120464285Y-88554761D01*
X120369047Y-88602380D01*
X120273809Y-88602380D01*
X120178571Y-88554761D01*
X120130952Y-88507142D01*
X120083333Y-88411904D01*
X120035714Y-88221428D01*
X120035714Y-87983333D01*
X120083333Y-87792857D01*
X120130952Y-87697619D01*
X120178571Y-87650000D01*
X120273809Y-87602380D01*
X121035714Y-88602380D02*
X121035714Y-87602380D01*
X121130952Y-88221428D02*
X121416666Y-88602380D01*
X121416666Y-87935714D02*
X121035714Y-88316666D01*
D14*
X120166666Y-86726190D02*
X120000000Y-86488095D01*
X119880952Y-86726190D02*
X119880952Y-86226190D01*
X120071428Y-86226190D01*
X120119047Y-86250000D01*
X120142857Y-86273809D01*
X120166666Y-86321428D01*
X120166666Y-86392857D01*
X120142857Y-86440476D01*
X120119047Y-86464285D01*
X120071428Y-86488095D01*
X119880952Y-86488095D01*
X120619047Y-86226190D02*
X120380952Y-86226190D01*
X120357142Y-86464285D01*
X120380952Y-86440476D01*
X120428571Y-86416666D01*
X120547619Y-86416666D01*
X120595238Y-86440476D01*
X120619047Y-86464285D01*
X120642857Y-86511904D01*
X120642857Y-86630952D01*
X120619047Y-86678571D01*
X120595238Y-86702380D01*
X120547619Y-86726190D01*
X120428571Y-86726190D01*
X120380952Y-86702380D01*
X120357142Y-86678571D01*
D11*
X119704761Y-91552380D02*
X119133333Y-91552380D01*
X119419047Y-91552380D02*
X119419047Y-90552380D01*
X119323809Y-90695238D01*
X119228571Y-90790476D01*
X119133333Y-90838095D01*
X120323809Y-90552380D02*
X120419047Y-90552380D01*
X120514285Y-90600000D01*
X120561904Y-90647619D01*
X120609523Y-90742857D01*
X120657142Y-90933333D01*
X120657142Y-91171428D01*
X120609523Y-91361904D01*
X120561904Y-91457142D01*
X120514285Y-91504761D01*
X120419047Y-91552380D01*
X120323809Y-91552380D01*
X120228571Y-91504761D01*
X120180952Y-91457142D01*
X120133333Y-91361904D01*
X120085714Y-91171428D01*
X120085714Y-90933333D01*
X120133333Y-90742857D01*
X120180952Y-90647619D01*
X120228571Y-90600000D01*
X120323809Y-90552380D01*
X121085714Y-91552380D02*
X121085714Y-90552380D01*
X121180952Y-91171428D02*
X121466666Y-91552380D01*
X121466666Y-90885714D02*
X121085714Y-91266666D01*
D14*
X120216666Y-89676190D02*
X120050000Y-89438095D01*
X119930952Y-89676190D02*
X119930952Y-89176190D01*
X120121428Y-89176190D01*
X120169047Y-89200000D01*
X120192857Y-89223809D01*
X120216666Y-89271428D01*
X120216666Y-89342857D01*
X120192857Y-89390476D01*
X120169047Y-89414285D01*
X120121428Y-89438095D01*
X119930952Y-89438095D01*
X120645238Y-89176190D02*
X120550000Y-89176190D01*
X120502380Y-89200000D01*
X120478571Y-89223809D01*
X120430952Y-89295238D01*
X120407142Y-89390476D01*
X120407142Y-89580952D01*
X120430952Y-89628571D01*
X120454761Y-89652380D01*
X120502380Y-89676190D01*
X120597619Y-89676190D01*
X120645238Y-89652380D01*
X120669047Y-89628571D01*
X120692857Y-89580952D01*
X120692857Y-89461904D01*
X120669047Y-89414285D01*
X120645238Y-89390476D01*
X120597619Y-89366666D01*
X120502380Y-89366666D01*
X120454761Y-89390476D01*
X120430952Y-89414285D01*
X120407142Y-89461904D01*
D11*
X128157142Y-61252380D02*
X127680952Y-61252380D01*
X127680952Y-60252380D01*
X128490476Y-60728571D02*
X128823809Y-60728571D01*
X128966666Y-61252380D02*
X128490476Y-61252380D01*
X128490476Y-60252380D01*
X128966666Y-60252380D01*
X129395238Y-61252380D02*
X129395238Y-60252380D01*
X129633333Y-60252380D01*
X129776190Y-60300000D01*
X129871428Y-60395238D01*
X129919047Y-60490476D01*
X129966666Y-60680952D01*
X129966666Y-60823809D01*
X129919047Y-61014285D01*
X129871428Y-61109523D01*
X129776190Y-61204761D01*
X129633333Y-61252380D01*
X129395238Y-61252380D01*
D14*
X128430952Y-59376190D02*
X128430952Y-58876190D01*
X128550000Y-58876190D01*
X128621428Y-58900000D01*
X128669047Y-58947619D01*
X128692857Y-58995238D01*
X128716666Y-59090476D01*
X128716666Y-59161904D01*
X128692857Y-59257142D01*
X128669047Y-59304761D01*
X128621428Y-59352380D01*
X128550000Y-59376190D01*
X128430952Y-59376190D01*
X129192857Y-59376190D02*
X128907142Y-59376190D01*
X129050000Y-59376190D02*
X129050000Y-58876190D01*
X129002380Y-58947619D01*
X128954761Y-58995238D01*
X128907142Y-59019047D01*
M02*
