G04 #@! TF.GenerationSoftware,KiCad,Pcbnew,(5.1.9)-1*
G04 #@! TF.CreationDate,2021-01-22T20:27:00+08:00*
G04 #@! TF.ProjectId,esp-break,6573702d-6272-4656-916b-2e6b69636164,rev?*
G04 #@! TF.SameCoordinates,Original*
G04 #@! TF.FileFunction,Other,User*
%FSLAX46Y46*%
G04 Gerber Fmt 4.6, Leading zero omitted, Abs format (unit mm)*
G04 Created by KiCad (PCBNEW (5.1.9)-1) date 2021-01-22 20:27:00*
%MOMM*%
%LPD*%
G01*
G04 APERTURE LIST*
%ADD10C,0.050000*%
G04 APERTURE END LIST*
D10*
X131320000Y-111970000D02*
G75*
G03*
X131320000Y-111970000I-3250000J0D01*
G01*
X108220000Y-111970000D02*
G75*
G03*
X108220000Y-111970000I-3250000J0D01*
G01*
X131970000Y-54070000D02*
G75*
G03*
X131970000Y-54070000I-3250000J0D01*
G01*
X108070000Y-54170000D02*
G75*
G03*
X108070000Y-54170000I-3250000J0D01*
G01*
X106667000Y-68350000D02*
X101867000Y-68350000D01*
X101867000Y-68350000D02*
X101867000Y-71650000D01*
X101867000Y-71650000D02*
X106667000Y-71650000D01*
X106667000Y-71650000D02*
X106667000Y-68350000D01*
X106825000Y-77125000D02*
X106825000Y-56905000D01*
X106825000Y-77125000D02*
X126325000Y-77125000D01*
X126325000Y-56905000D02*
X126325000Y-77125000D01*
X102325000Y-45625000D02*
X130825000Y-45625000D01*
X102325000Y-45625000D02*
X102325000Y-56905000D01*
X130825000Y-45625000D02*
X130825000Y-56905000D01*
X102325000Y-56905000D02*
X106825000Y-56905000D01*
X126325000Y-56905000D02*
X130825000Y-56905000D01*
X112376640Y-108697340D02*
X112376640Y-100197340D01*
X120376640Y-108697340D02*
X112376640Y-108697340D01*
X120376640Y-100197340D02*
X120376640Y-108697340D01*
X112376640Y-100197340D02*
X120376640Y-100197340D01*
X126520800Y-75619200D02*
X126520800Y-91919200D01*
X126520800Y-91919200D02*
X130120800Y-91919200D01*
X130120800Y-91919200D02*
X130120800Y-75619200D01*
X130120800Y-75619200D02*
X126520800Y-75619200D01*
X130120800Y-93119800D02*
X126520800Y-93119800D01*
X130120800Y-109419800D02*
X130120800Y-93119800D01*
X126520800Y-109419800D02*
X130120800Y-109419800D01*
X126520800Y-93119800D02*
X126520800Y-109419800D01*
X116888660Y-82195980D02*
X113388660Y-82195980D01*
X116888660Y-78795980D02*
X116888660Y-82195980D01*
X113388660Y-78795980D02*
X116888660Y-78795980D01*
X113388660Y-82195980D02*
X113388660Y-78795980D01*
X117476300Y-82172740D02*
X117476300Y-78772740D01*
X117476300Y-78772740D02*
X120976300Y-78772740D01*
X120976300Y-78772740D02*
X120976300Y-82172740D01*
X120976300Y-82172740D02*
X117476300Y-82172740D01*
X100652400Y-87675000D02*
X100652400Y-96475000D01*
X106752400Y-96475000D02*
X100652400Y-96475000D01*
X106752400Y-87675000D02*
X106752400Y-96475000D01*
X100652400Y-87675000D02*
X106752400Y-87675000D01*
X111610000Y-77500000D02*
X102810000Y-77500000D01*
X111610000Y-84700000D02*
X111610000Y-77500000D01*
X102810000Y-84700000D02*
X111610000Y-84700000D01*
X102810000Y-77500000D02*
X102810000Y-84700000D01*
X110420000Y-90430000D02*
X110420000Y-88470000D01*
X110420000Y-88470000D02*
X114180000Y-88470000D01*
X114180000Y-88470000D02*
X114180000Y-90430000D01*
X114180000Y-90430000D02*
X110420000Y-90430000D01*
X114130000Y-87480000D02*
X110370000Y-87480000D01*
X114130000Y-85520000D02*
X114130000Y-87480000D01*
X110370000Y-85520000D02*
X114130000Y-85520000D01*
X110370000Y-87480000D02*
X110370000Y-85520000D01*
X106380000Y-63120000D02*
X106380000Y-65080000D01*
X106380000Y-65080000D02*
X102620000Y-65080000D01*
X102620000Y-65080000D02*
X102620000Y-63120000D01*
X102620000Y-63120000D02*
X106380000Y-63120000D01*
X102620000Y-65720000D02*
X106380000Y-65720000D01*
X102620000Y-67680000D02*
X102620000Y-65720000D01*
X106380000Y-67680000D02*
X102620000Y-67680000D01*
X106380000Y-65720000D02*
X106380000Y-67680000D01*
X106380000Y-62530000D02*
X102620000Y-62530000D01*
X106380000Y-60570000D02*
X106380000Y-62530000D01*
X102620000Y-60570000D02*
X106380000Y-60570000D01*
X102620000Y-62530000D02*
X102620000Y-60570000D01*
X102620000Y-74280000D02*
X102620000Y-72320000D01*
X102620000Y-72320000D02*
X106380000Y-72320000D01*
X106380000Y-72320000D02*
X106380000Y-74280000D01*
X106380000Y-74280000D02*
X102620000Y-74280000D01*
X102650000Y-59950000D02*
X102650000Y-58050000D01*
X102650000Y-58050000D02*
X106350000Y-58050000D01*
X106350000Y-58050000D02*
X106350000Y-59950000D01*
X106350000Y-59950000D02*
X102650000Y-59950000D01*
X130650000Y-60800000D02*
X130650000Y-62700000D01*
X130650000Y-62700000D02*
X126950000Y-62700000D01*
X126950000Y-62700000D02*
X126950000Y-60800000D01*
X126950000Y-60800000D02*
X130650000Y-60800000D01*
X118100000Y-87450000D02*
X114400000Y-87450000D01*
X118100000Y-85550000D02*
X118100000Y-87450000D01*
X114400000Y-85550000D02*
X118100000Y-85550000D01*
X114400000Y-87450000D02*
X114400000Y-85550000D01*
X114450000Y-88500000D02*
X118150000Y-88500000D01*
X114450000Y-90400000D02*
X114450000Y-88500000D01*
X118150000Y-90400000D02*
X114450000Y-90400000D01*
X118150000Y-88500000D02*
X118150000Y-90400000D01*
X122100000Y-87450000D02*
X118400000Y-87450000D01*
X122100000Y-85550000D02*
X122100000Y-87450000D01*
X118400000Y-85550000D02*
X122100000Y-85550000D01*
X118400000Y-87450000D02*
X118400000Y-85550000D01*
X118450000Y-90400000D02*
X118450000Y-88500000D01*
X118450000Y-88500000D02*
X122150000Y-88500000D01*
X122150000Y-88500000D02*
X122150000Y-90400000D01*
X122150000Y-90400000D02*
X118450000Y-90400000D01*
X130650000Y-60100000D02*
X126950000Y-60100000D01*
X130650000Y-58200000D02*
X130650000Y-60100000D01*
X126950000Y-58200000D02*
X130650000Y-58200000D01*
X126950000Y-60100000D02*
X126950000Y-58200000D01*
M02*
