G04 #@! TF.GenerationSoftware,KiCad,Pcbnew,(5.1.4)-1*
G04 #@! TF.CreationDate,2020-07-01T21:20:44+08:00*
G04 #@! TF.ProjectId,esp-break,6573702d-6272-4656-916b-2e6b69636164,rev?*
G04 #@! TF.SameCoordinates,Original*
G04 #@! TF.FileFunction,Other,User*
%FSLAX46Y46*%
G04 Gerber Fmt 4.6, Leading zero omitted, Abs format (unit mm)*
G04 Created by KiCad (PCBNEW (5.1.4)-1) date 2020-07-01 21:20:44*
%MOMM*%
%LPD*%
G04 APERTURE LIST*
%ADD10C,0.050000*%
G04 APERTURE END LIST*
D10*
X108500000Y-90580000D02*
X108500000Y-79280000D01*
X111550000Y-90580000D02*
X108500000Y-90580000D01*
X111550000Y-79280000D02*
X111550000Y-90580000D01*
X108500000Y-79280000D02*
X111550000Y-79280000D01*
X129730000Y-59093200D02*
X127870000Y-59093200D01*
X129730000Y-58153200D02*
X129730000Y-59093200D01*
X127870000Y-58153200D02*
X129730000Y-58153200D01*
X127870000Y-59093200D02*
X127870000Y-58153200D01*
X106725000Y-59775000D02*
X101925000Y-59775000D01*
X101925000Y-59775000D02*
X101925000Y-63075000D01*
X101925000Y-63075000D02*
X106725000Y-63075000D01*
X106725000Y-63075000D02*
X106725000Y-59775000D01*
X112400000Y-100275000D02*
X120900000Y-100275000D01*
X112400000Y-108275000D02*
X112400000Y-100275000D01*
X120900000Y-108275000D02*
X112400000Y-108275000D01*
X120900000Y-100275000D02*
X120900000Y-108275000D01*
X102500000Y-70875000D02*
X102500000Y-77025000D01*
X102500000Y-77025000D02*
X106100000Y-77025000D01*
X106100000Y-77025000D02*
X106100000Y-70875000D01*
X106100000Y-70875000D02*
X102500000Y-70875000D01*
X103200000Y-99700000D02*
X103200000Y-108500000D01*
X110400000Y-99700000D02*
X103200000Y-99700000D01*
X110400000Y-108500000D02*
X110400000Y-99700000D01*
X103200000Y-108500000D02*
X110400000Y-108500000D01*
X129730000Y-63555000D02*
X129730000Y-64495000D01*
X129730000Y-64495000D02*
X127870000Y-64495000D01*
X127870000Y-64495000D02*
X127870000Y-63555000D01*
X127870000Y-63555000D02*
X129730000Y-63555000D01*
X127870000Y-61780000D02*
X129730000Y-61780000D01*
X127870000Y-62720000D02*
X127870000Y-61780000D01*
X129730000Y-62720000D02*
X127870000Y-62720000D01*
X129730000Y-61780000D02*
X129730000Y-62720000D01*
X103495000Y-70295000D02*
X103495000Y-69355000D01*
X103495000Y-69355000D02*
X105355000Y-69355000D01*
X105355000Y-69355000D02*
X105355000Y-70295000D01*
X105355000Y-70295000D02*
X103495000Y-70295000D01*
X103445000Y-58180000D02*
X105305000Y-58180000D01*
X103445000Y-59120000D02*
X103445000Y-58180000D01*
X105305000Y-59120000D02*
X103445000Y-59120000D01*
X105305000Y-58180000D02*
X105305000Y-59120000D01*
X105305000Y-65045000D02*
X103445000Y-65045000D01*
X105305000Y-64105000D02*
X105305000Y-65045000D01*
X103445000Y-64105000D02*
X105305000Y-64105000D01*
X103445000Y-65045000D02*
X103445000Y-64105000D01*
X103445000Y-66820000D02*
X103445000Y-65880000D01*
X103445000Y-65880000D02*
X105305000Y-65880000D01*
X105305000Y-65880000D02*
X105305000Y-66820000D01*
X105305000Y-66820000D02*
X103445000Y-66820000D01*
X127820000Y-70655000D02*
X129680000Y-70655000D01*
X127820000Y-71595000D02*
X127820000Y-70655000D01*
X129680000Y-71595000D02*
X127820000Y-71595000D01*
X129680000Y-70655000D02*
X129680000Y-71595000D01*
X129705000Y-68880000D02*
X129705000Y-69820000D01*
X129705000Y-69820000D02*
X127845000Y-69820000D01*
X127845000Y-69820000D02*
X127845000Y-68880000D01*
X127845000Y-68880000D02*
X129705000Y-68880000D01*
X127870000Y-67155000D02*
X129730000Y-67155000D01*
X127870000Y-68095000D02*
X127870000Y-67155000D01*
X129730000Y-68095000D02*
X127870000Y-68095000D01*
X129730000Y-67155000D02*
X129730000Y-68095000D01*
X129730000Y-65355000D02*
X129730000Y-66295000D01*
X129730000Y-66295000D02*
X127870000Y-66295000D01*
X127870000Y-66295000D02*
X127870000Y-65355000D01*
X127870000Y-65355000D02*
X129730000Y-65355000D01*
X129480000Y-77805000D02*
X128020000Y-77805000D01*
X128020000Y-77805000D02*
X128020000Y-74845000D01*
X128020000Y-74845000D02*
X129480000Y-74845000D01*
X129480000Y-74845000D02*
X129480000Y-77805000D01*
X129505000Y-81780000D02*
X128045000Y-81780000D01*
X128045000Y-81780000D02*
X128045000Y-78820000D01*
X128045000Y-78820000D02*
X129505000Y-78820000D01*
X129505000Y-78820000D02*
X129505000Y-81780000D01*
X105355000Y-67630000D02*
X105355000Y-68570000D01*
X105355000Y-68570000D02*
X103495000Y-68570000D01*
X103495000Y-68570000D02*
X103495000Y-67630000D01*
X103495000Y-67630000D02*
X105355000Y-67630000D01*
X127870000Y-59955000D02*
X129730000Y-59955000D01*
X127870000Y-60895000D02*
X127870000Y-59955000D01*
X129730000Y-60895000D02*
X127870000Y-60895000D01*
X129730000Y-59955000D02*
X129730000Y-60895000D01*
X106836000Y-77048000D02*
X106836000Y-56828000D01*
X106836000Y-77048000D02*
X126336000Y-77048000D01*
X126336000Y-56828000D02*
X126336000Y-77048000D01*
X102336000Y-45548000D02*
X130836000Y-45548000D01*
X102336000Y-45548000D02*
X102336000Y-56828000D01*
X130836000Y-45548000D02*
X130836000Y-56828000D01*
X102336000Y-56828000D02*
X106836000Y-56828000D01*
X126336000Y-56828000D02*
X130836000Y-56828000D01*
X122900000Y-99675000D02*
X122900000Y-108475000D01*
X130100000Y-99675000D02*
X122900000Y-99675000D01*
X130100000Y-108475000D02*
X130100000Y-99675000D01*
X122900000Y-108475000D02*
X130100000Y-108475000D01*
X100735000Y-87650000D02*
X100735000Y-96450000D01*
X106835000Y-96450000D02*
X100735000Y-96450000D01*
X106835000Y-87650000D02*
X106835000Y-96450000D01*
X100735000Y-87650000D02*
X106835000Y-87650000D01*
X124775000Y-91150000D02*
X108475000Y-91150000D01*
X108475000Y-91150000D02*
X108475000Y-94750000D01*
X108475000Y-94750000D02*
X124775000Y-94750000D01*
X124775000Y-94750000D02*
X124775000Y-91150000D01*
X127820000Y-73470000D02*
X127820000Y-72530000D01*
X127820000Y-72530000D02*
X129680000Y-72530000D01*
X129680000Y-72530000D02*
X129680000Y-73470000D01*
X129680000Y-73470000D02*
X127820000Y-73470000D01*
M02*
