M48
; DRILL file {KiCad (5.1.4)-1} date 29-Jun-20 9:22:27 PM
; FORMAT={2:4/ absolute / inch / suppress leading zeros}
; #@! TF.CreationDate,2020-06-29T21:22:27+08:00
; #@! TF.GenerationSoftware,Kicad,Pcbnew,(5.1.4)-1
; #@! TF.FileFunction,Plated,1,2,PTH
FMAT,2
INCH,TZ
T1C0.0157
T2C0.0236
T3C0.0335
T4C0.0394
T5C0.1083
T6C0.1102
%
G90
G05
T1
X40404Y-26673
X40463Y-24705
X40472Y-25246
X40949Y-32047
X41033Y-41063
X41449Y-27925
X41718Y-23450
X41980Y-31622
X42539Y-30551
X42913Y-41053
X43381Y-35265
X43764Y-35870
X44055Y-40114
X44134Y-33996
X44193Y-38567
X44675Y-33593
X44872Y-25894
X44872Y-26579
X44874Y-25213
X45374Y-34272
X45502Y-25217
X45502Y-26575
X45506Y-25903
X45555Y-39555
X45953Y-42409
X46132Y-25217
X46142Y-25896
X46142Y-26575
X46175Y-41152
X46201Y-23453
X46270Y-34990
X46787Y-28996
X47431Y-35886
X47884Y-28770
X48081Y-37451
X48189Y-27470
X48356Y-42215
X49476Y-31803
X49644Y-31023
X50030Y-29409
X50055Y-22941
X50075Y-24524
T3
X41668Y-35256
X41668Y-37224
T4
X41063Y-28612
X41063Y-29612
X43415Y-36594
X44415Y-36594
X45415Y-36594
X46415Y-36594
X47415Y-36594
X48415Y-36594
X43209Y-31921
X43209Y-32921
X43209Y-33921
X43209Y-34921
T5
X50440Y-21350
X50440Y-44160
X41398Y-21339
X41400Y-44160
T6
X48248Y-32146
X48248Y-34705
T2
G00X40468Y-34862
M15
G01X40743Y-34862
M16
G05
G00X40743Y-37618
M15
G01X40468Y-37618
M16
G05
T0
M30
