G04 #@! TF.GenerationSoftware,KiCad,Pcbnew,(5.1.4)-1*
G04 #@! TF.CreationDate,2020-06-29T21:22:15+08:00*
G04 #@! TF.ProjectId,esp-break,6573702d-6272-4656-916b-2e6b69636164,rev?*
G04 #@! TF.SameCoordinates,Original*
G04 #@! TF.FileFunction,Legend,Top*
G04 #@! TF.FilePolarity,Positive*
%FSLAX46Y46*%
G04 Gerber Fmt 4.6, Leading zero omitted, Abs format (unit mm)*
G04 Created by KiCad (PCBNEW (5.1.4)-1) date 2020-06-29 21:22:15*
%MOMM*%
%LPD*%
G04 APERTURE LIST*
%ADD10C,0.125000*%
%ADD11C,0.120000*%
%ADD12C,0.100000*%
%ADD13C,0.150000*%
G04 APERTURE END LIST*
D10*
X130823809Y-83030952D02*
X130323809Y-83197619D01*
X130823809Y-83364285D01*
X130323809Y-84173809D02*
X130323809Y-83888095D01*
X130323809Y-84030952D02*
X130823809Y-84030952D01*
X130752380Y-83983333D01*
X130704761Y-83935714D01*
X130680952Y-83888095D01*
X130371428Y-84388095D02*
X130347619Y-84411904D01*
X130323809Y-84388095D01*
X130347619Y-84364285D01*
X130371428Y-84388095D01*
X130323809Y-84388095D01*
X130823809Y-84721428D02*
X130823809Y-84769047D01*
X130800000Y-84816666D01*
X130776190Y-84840476D01*
X130728571Y-84864285D01*
X130633333Y-84888095D01*
X130514285Y-84888095D01*
X130419047Y-84864285D01*
X130371428Y-84840476D01*
X130347619Y-84816666D01*
X130323809Y-84769047D01*
X130323809Y-84721428D01*
X130347619Y-84673809D01*
X130371428Y-84650000D01*
X130419047Y-84626190D01*
X130514285Y-84602380D01*
X130633333Y-84602380D01*
X130728571Y-84626190D01*
X130776190Y-84650000D01*
X130800000Y-84673809D01*
X130823809Y-84721428D01*
X130371428Y-85102380D02*
X130347619Y-85126190D01*
X130323809Y-85102380D01*
X130347619Y-85078571D01*
X130371428Y-85102380D01*
X130323809Y-85102380D01*
X130823809Y-85435714D02*
X130823809Y-85483333D01*
X130800000Y-85530952D01*
X130776190Y-85554761D01*
X130728571Y-85578571D01*
X130633333Y-85602380D01*
X130514285Y-85602380D01*
X130419047Y-85578571D01*
X130371428Y-85554761D01*
X130347619Y-85530952D01*
X130323809Y-85483333D01*
X130323809Y-85435714D01*
X130347619Y-85388095D01*
X130371428Y-85364285D01*
X130419047Y-85340476D01*
X130514285Y-85316666D01*
X130633333Y-85316666D01*
X130728571Y-85340476D01*
X130776190Y-85364285D01*
X130800000Y-85388095D01*
X130823809Y-85435714D01*
X130323809Y-86197619D02*
X130823809Y-86197619D01*
X130823809Y-86316666D01*
X130800000Y-86388095D01*
X130752380Y-86435714D01*
X130704761Y-86459523D01*
X130609523Y-86483333D01*
X130538095Y-86483333D01*
X130442857Y-86459523D01*
X130395238Y-86435714D01*
X130347619Y-86388095D01*
X130323809Y-86316666D01*
X130323809Y-86197619D01*
X130371428Y-86983333D02*
X130347619Y-86959523D01*
X130323809Y-86888095D01*
X130323809Y-86840476D01*
X130347619Y-86769047D01*
X130395238Y-86721428D01*
X130442857Y-86697619D01*
X130538095Y-86673809D01*
X130609523Y-86673809D01*
X130704761Y-86697619D01*
X130752380Y-86721428D01*
X130800000Y-86769047D01*
X130823809Y-86840476D01*
X130823809Y-86888095D01*
X130800000Y-86959523D01*
X130776190Y-86983333D01*
X130323809Y-87197619D02*
X130823809Y-87197619D01*
X108077380Y-89407142D02*
X108101190Y-89335714D01*
X108101190Y-89216666D01*
X108077380Y-89169047D01*
X108053571Y-89145238D01*
X108005952Y-89121428D01*
X107958333Y-89121428D01*
X107910714Y-89145238D01*
X107886904Y-89169047D01*
X107863095Y-89216666D01*
X107839285Y-89311904D01*
X107815476Y-89359523D01*
X107791666Y-89383333D01*
X107744047Y-89407142D01*
X107696428Y-89407142D01*
X107648809Y-89383333D01*
X107625000Y-89359523D01*
X107601190Y-89311904D01*
X107601190Y-89192857D01*
X107625000Y-89121428D01*
X108101190Y-88907142D02*
X107601190Y-88907142D01*
X107601190Y-88788095D01*
X107625000Y-88716666D01*
X107672619Y-88669047D01*
X107720238Y-88645238D01*
X107815476Y-88621428D01*
X107886904Y-88621428D01*
X107982142Y-88645238D01*
X108029761Y-88669047D01*
X108077380Y-88716666D01*
X108101190Y-88788095D01*
X108101190Y-88907142D01*
X107958333Y-88430952D02*
X107958333Y-88192857D01*
X108101190Y-88478571D02*
X107601190Y-88311904D01*
X108101190Y-88145238D01*
X108052380Y-86670238D02*
X108076190Y-86598809D01*
X108076190Y-86479761D01*
X108052380Y-86432142D01*
X108028571Y-86408333D01*
X107980952Y-86384523D01*
X107933333Y-86384523D01*
X107885714Y-86408333D01*
X107861904Y-86432142D01*
X107838095Y-86479761D01*
X107814285Y-86575000D01*
X107790476Y-86622619D01*
X107766666Y-86646428D01*
X107719047Y-86670238D01*
X107671428Y-86670238D01*
X107623809Y-86646428D01*
X107600000Y-86622619D01*
X107576190Y-86575000D01*
X107576190Y-86455952D01*
X107600000Y-86384523D01*
X108028571Y-85884523D02*
X108052380Y-85908333D01*
X108076190Y-85979761D01*
X108076190Y-86027380D01*
X108052380Y-86098809D01*
X108004761Y-86146428D01*
X107957142Y-86170238D01*
X107861904Y-86194047D01*
X107790476Y-86194047D01*
X107695238Y-86170238D01*
X107647619Y-86146428D01*
X107600000Y-86098809D01*
X107576190Y-86027380D01*
X107576190Y-85979761D01*
X107600000Y-85908333D01*
X107623809Y-85884523D01*
X108076190Y-85432142D02*
X108076190Y-85670238D01*
X107576190Y-85670238D01*
X107575000Y-83855952D02*
X107551190Y-83903571D01*
X107551190Y-83975000D01*
X107575000Y-84046428D01*
X107622619Y-84094047D01*
X107670238Y-84117857D01*
X107765476Y-84141666D01*
X107836904Y-84141666D01*
X107932142Y-84117857D01*
X107979761Y-84094047D01*
X108027380Y-84046428D01*
X108051190Y-83975000D01*
X108051190Y-83927380D01*
X108027380Y-83855952D01*
X108003571Y-83832142D01*
X107836904Y-83832142D01*
X107836904Y-83927380D01*
X108051190Y-83617857D02*
X107551190Y-83617857D01*
X108051190Y-83332142D01*
X107551190Y-83332142D01*
X108051190Y-83094047D02*
X107551190Y-83094047D01*
X107551190Y-82975000D01*
X107575000Y-82903571D01*
X107622619Y-82855952D01*
X107670238Y-82832142D01*
X107765476Y-82808333D01*
X107836904Y-82808333D01*
X107932142Y-82832142D01*
X107979761Y-82855952D01*
X108027380Y-82903571D01*
X108051190Y-82975000D01*
X108051190Y-83094047D01*
X107476190Y-81591666D02*
X107976190Y-81425000D01*
X107476190Y-81258333D01*
X107928571Y-80805952D02*
X107952380Y-80829761D01*
X107976190Y-80901190D01*
X107976190Y-80948809D01*
X107952380Y-81020238D01*
X107904761Y-81067857D01*
X107857142Y-81091666D01*
X107761904Y-81115476D01*
X107690476Y-81115476D01*
X107595238Y-81091666D01*
X107547619Y-81067857D01*
X107500000Y-81020238D01*
X107476190Y-80948809D01*
X107476190Y-80901190D01*
X107500000Y-80829761D01*
X107523809Y-80805952D01*
X107928571Y-80305952D02*
X107952380Y-80329761D01*
X107976190Y-80401190D01*
X107976190Y-80448809D01*
X107952380Y-80520238D01*
X107904761Y-80567857D01*
X107857142Y-80591666D01*
X107761904Y-80615476D01*
X107690476Y-80615476D01*
X107595238Y-80591666D01*
X107547619Y-80567857D01*
X107500000Y-80520238D01*
X107476190Y-80448809D01*
X107476190Y-80401190D01*
X107500000Y-80329761D01*
X107523809Y-80305952D01*
D11*
X108550000Y-90650000D02*
X108550000Y-79150000D01*
X125050000Y-90650000D02*
X108550000Y-90650000D01*
X125050000Y-79150000D02*
X125050000Y-90650000D01*
X108550000Y-79150000D02*
X125050000Y-79150000D01*
X109750000Y-79750000D02*
X111080000Y-79750000D01*
X111080000Y-79750000D02*
X111080000Y-81080000D01*
X111080000Y-82350000D02*
X111080000Y-90030000D01*
X108550000Y-90030000D02*
X111080000Y-90030000D01*
X108550000Y-82350000D02*
X108550000Y-90100000D01*
X108550000Y-82350000D02*
X111080000Y-82350000D01*
D12*
X127760000Y-58623200D02*
G75*
G03X127760000Y-58623200I-50000J0D01*
G01*
D11*
X105975000Y-60325000D02*
X105975000Y-60025000D01*
X105975000Y-60025000D02*
X102675000Y-60025000D01*
X102675000Y-60025000D02*
X102675000Y-60325000D01*
X105975000Y-62525000D02*
X105975000Y-62825000D01*
X105975000Y-62825000D02*
X102675000Y-62825000D01*
X102675000Y-62825000D02*
X102675000Y-62525000D01*
X115380000Y-102620000D02*
X116015000Y-102620000D01*
X115380000Y-103255000D02*
X115380000Y-102620000D01*
X102970000Y-76545000D02*
X105630000Y-76545000D01*
X102970000Y-73945000D02*
X102970000Y-76545000D01*
X105630000Y-73945000D02*
X105630000Y-76545000D01*
X102970000Y-73945000D02*
X105630000Y-73945000D01*
X102970000Y-72675000D02*
X102970000Y-71345000D01*
X102970000Y-71345000D02*
X104300000Y-71345000D01*
X110210000Y-102190000D02*
X108950000Y-102190000D01*
X103390000Y-102190000D02*
X104650000Y-102190000D01*
X110210000Y-105950000D02*
X110210000Y-102190000D01*
X103390000Y-108200000D02*
X103390000Y-102190000D01*
X128015000Y-75525000D02*
X128015000Y-77810000D01*
X128015000Y-77810000D02*
X129485000Y-77810000D01*
X129485000Y-77810000D02*
X129485000Y-75525000D01*
X128265000Y-80462779D02*
X128265000Y-80137221D01*
X129285000Y-80462779D02*
X129285000Y-80137221D01*
X107466000Y-75648000D02*
X107466000Y-76428000D01*
X107466000Y-76428000D02*
X108466000Y-76428000D01*
X125706000Y-75648000D02*
X125706000Y-76428000D01*
X125706000Y-76428000D02*
X124706000Y-76428000D01*
X107466000Y-50683000D02*
X125706000Y-50683000D01*
X125706000Y-50683000D02*
X125706000Y-57103000D01*
X107466000Y-50683000D02*
X107466000Y-57103000D01*
X107466000Y-57103000D02*
X107086000Y-57103000D01*
X129910000Y-102165000D02*
X128650000Y-102165000D01*
X123090000Y-102165000D02*
X124350000Y-102165000D01*
X129910000Y-105925000D02*
X129910000Y-102165000D01*
X123090000Y-108175000D02*
X123090000Y-102165000D01*
X106137500Y-88150000D02*
X106137500Y-88600000D01*
X104287500Y-88150000D02*
X106137500Y-88150000D01*
X101737500Y-95950000D02*
X101987500Y-95950000D01*
X101737500Y-88150000D02*
X101987500Y-88150000D01*
X104287500Y-95950000D02*
X106137500Y-95950000D01*
X106137500Y-95950000D02*
X106137500Y-95500000D01*
X106687500Y-90350000D02*
X106687500Y-90800000D01*
X106687500Y-90350000D02*
X106237500Y-90350000D01*
X108945000Y-91620000D02*
X108945000Y-94280000D01*
X121705000Y-91620000D02*
X108945000Y-91620000D01*
X121705000Y-94280000D02*
X108945000Y-94280000D01*
X121705000Y-91620000D02*
X121705000Y-94280000D01*
X122975000Y-91620000D02*
X124305000Y-91620000D01*
X124305000Y-91620000D02*
X124305000Y-92950000D01*
D13*
X115541666Y-80502380D02*
X115541666Y-81216666D01*
X115494047Y-81359523D01*
X115398809Y-81454761D01*
X115255952Y-81502380D01*
X115160714Y-81502380D01*
X115970238Y-80597619D02*
X116017857Y-80550000D01*
X116113095Y-80502380D01*
X116351190Y-80502380D01*
X116446428Y-80550000D01*
X116494047Y-80597619D01*
X116541666Y-80692857D01*
X116541666Y-80788095D01*
X116494047Y-80930952D01*
X115922619Y-81502380D01*
X116541666Y-81502380D01*
D10*
X104577313Y-54370310D02*
X104410646Y-54132215D01*
X104291599Y-54370310D02*
X104291599Y-53870310D01*
X104482075Y-53870310D01*
X104529694Y-53894120D01*
X104553503Y-53917929D01*
X104577313Y-53965548D01*
X104577313Y-54036977D01*
X104553503Y-54084596D01*
X104529694Y-54108405D01*
X104482075Y-54132215D01*
X104291599Y-54132215D01*
X104791599Y-54108405D02*
X104958265Y-54108405D01*
X105029694Y-54370310D02*
X104791599Y-54370310D01*
X104791599Y-53870310D01*
X105029694Y-53870310D01*
X105410646Y-54108405D02*
X105243980Y-54108405D01*
X105243980Y-54370310D02*
X105243980Y-53870310D01*
X105482075Y-53870310D01*
X105743980Y-53870310D02*
X105743980Y-53989358D01*
X105624932Y-53941739D02*
X105743980Y-53989358D01*
X105863027Y-53941739D01*
X105672551Y-54084596D02*
X105743980Y-53989358D01*
X105815408Y-54084596D01*
X106124932Y-53870310D02*
X106124932Y-53989358D01*
X106005884Y-53941739D02*
X106124932Y-53989358D01*
X106243980Y-53941739D01*
X106053503Y-54084596D02*
X106124932Y-53989358D01*
X106196360Y-54084596D01*
X128430952Y-58026190D02*
X128430952Y-57526190D01*
X128550000Y-57526190D01*
X128621428Y-57550000D01*
X128669047Y-57597619D01*
X128692857Y-57645238D01*
X128716666Y-57740476D01*
X128716666Y-57811904D01*
X128692857Y-57907142D01*
X128669047Y-57954761D01*
X128621428Y-58002380D01*
X128550000Y-58026190D01*
X128430952Y-58026190D01*
X129192857Y-58026190D02*
X128907142Y-58026190D01*
X129050000Y-58026190D02*
X129050000Y-57526190D01*
X129002380Y-57597619D01*
X128954761Y-57645238D01*
X128907142Y-57669047D01*
X103658333Y-59849380D02*
X103729761Y-59873190D01*
X103848809Y-59873190D01*
X103896428Y-59849380D01*
X103920238Y-59825571D01*
X103944047Y-59777952D01*
X103944047Y-59730333D01*
X103920238Y-59682714D01*
X103896428Y-59658904D01*
X103848809Y-59635095D01*
X103753571Y-59611285D01*
X103705952Y-59587476D01*
X103682142Y-59563666D01*
X103658333Y-59516047D01*
X103658333Y-59468428D01*
X103682142Y-59420809D01*
X103705952Y-59397000D01*
X103753571Y-59373190D01*
X103872619Y-59373190D01*
X103944047Y-59397000D01*
X104110714Y-59373190D02*
X104229761Y-59873190D01*
X104325000Y-59516047D01*
X104420238Y-59873190D01*
X104539285Y-59373190D01*
X104991666Y-59873190D02*
X104705952Y-59873190D01*
X104848809Y-59873190D02*
X104848809Y-59373190D01*
X104801190Y-59444619D01*
X104753571Y-59492238D01*
X104705952Y-59516047D01*
X127522053Y-54409470D02*
X127355386Y-54171375D01*
X127236339Y-54409470D02*
X127236339Y-53909470D01*
X127426815Y-53909470D01*
X127474434Y-53933280D01*
X127498243Y-53957089D01*
X127522053Y-54004708D01*
X127522053Y-54076137D01*
X127498243Y-54123756D01*
X127474434Y-54147565D01*
X127426815Y-54171375D01*
X127236339Y-54171375D01*
X127736339Y-54147565D02*
X127903005Y-54147565D01*
X127974434Y-54409470D02*
X127736339Y-54409470D01*
X127736339Y-53909470D01*
X127974434Y-53909470D01*
X128355386Y-54147565D02*
X128188720Y-54147565D01*
X128188720Y-54409470D02*
X128188720Y-53909470D01*
X128426815Y-53909470D01*
X128688720Y-53909470D02*
X128688720Y-54028518D01*
X128569672Y-53980899D02*
X128688720Y-54028518D01*
X128807767Y-53980899D01*
X128617291Y-54123756D02*
X128688720Y-54028518D01*
X128760148Y-54123756D01*
X129069672Y-53909470D02*
X129069672Y-54028518D01*
X128950624Y-53980899D02*
X129069672Y-54028518D01*
X129188720Y-53980899D01*
X128998243Y-54123756D02*
X129069672Y-54028518D01*
X129141100Y-54123756D01*
X104583313Y-112336710D02*
X104416646Y-112098615D01*
X104297599Y-112336710D02*
X104297599Y-111836710D01*
X104488075Y-111836710D01*
X104535694Y-111860520D01*
X104559503Y-111884329D01*
X104583313Y-111931948D01*
X104583313Y-112003377D01*
X104559503Y-112050996D01*
X104535694Y-112074805D01*
X104488075Y-112098615D01*
X104297599Y-112098615D01*
X104797599Y-112074805D02*
X104964265Y-112074805D01*
X105035694Y-112336710D02*
X104797599Y-112336710D01*
X104797599Y-111836710D01*
X105035694Y-111836710D01*
X105416646Y-112074805D02*
X105249980Y-112074805D01*
X105249980Y-112336710D02*
X105249980Y-111836710D01*
X105488075Y-111836710D01*
X105749980Y-111836710D02*
X105749980Y-111955758D01*
X105630932Y-111908139D02*
X105749980Y-111955758D01*
X105869027Y-111908139D01*
X105678551Y-112050996D02*
X105749980Y-111955758D01*
X105821408Y-112050996D01*
X106130932Y-111836710D02*
X106130932Y-111955758D01*
X106011884Y-111908139D02*
X106130932Y-111955758D01*
X106249980Y-111908139D01*
X106059503Y-112050996D02*
X106130932Y-111955758D01*
X106202360Y-112050996D01*
X127461093Y-112334170D02*
X127294426Y-112096075D01*
X127175379Y-112334170D02*
X127175379Y-111834170D01*
X127365855Y-111834170D01*
X127413474Y-111857980D01*
X127437283Y-111881789D01*
X127461093Y-111929408D01*
X127461093Y-112000837D01*
X127437283Y-112048456D01*
X127413474Y-112072265D01*
X127365855Y-112096075D01*
X127175379Y-112096075D01*
X127675379Y-112072265D02*
X127842045Y-112072265D01*
X127913474Y-112334170D02*
X127675379Y-112334170D01*
X127675379Y-111834170D01*
X127913474Y-111834170D01*
X128294426Y-112072265D02*
X128127760Y-112072265D01*
X128127760Y-112334170D02*
X128127760Y-111834170D01*
X128365855Y-111834170D01*
X128627760Y-111834170D02*
X128627760Y-111953218D01*
X128508712Y-111905599D02*
X128627760Y-111953218D01*
X128746807Y-111905599D01*
X128556331Y-112048456D02*
X128627760Y-111953218D01*
X128699188Y-112048456D01*
X129008712Y-111834170D02*
X129008712Y-111953218D01*
X128889664Y-111905599D02*
X129008712Y-111953218D01*
X129127760Y-111905599D01*
X128937283Y-112048456D02*
X129008712Y-111953218D01*
X129080140Y-112048456D01*
X116483333Y-99551190D02*
X116483333Y-99908333D01*
X116459523Y-99979761D01*
X116411904Y-100027380D01*
X116340476Y-100051190D01*
X116292857Y-100051190D01*
X116983333Y-100051190D02*
X116697619Y-100051190D01*
X116840476Y-100051190D02*
X116840476Y-99551190D01*
X116792857Y-99622619D01*
X116745238Y-99670238D01*
X116697619Y-99694047D01*
X103437558Y-78340090D02*
X103437558Y-77840090D01*
X103628034Y-77840090D01*
X103675653Y-77863900D01*
X103699462Y-77887709D01*
X103723272Y-77935328D01*
X103723272Y-78006757D01*
X103699462Y-78054376D01*
X103675653Y-78078185D01*
X103628034Y-78101995D01*
X103437558Y-78101995D01*
X103889939Y-77840090D02*
X104008986Y-78340090D01*
X104104224Y-77982947D01*
X104199462Y-78340090D01*
X104318510Y-77840090D01*
X104794700Y-78340090D02*
X104628034Y-78101995D01*
X104508986Y-78340090D02*
X104508986Y-77840090D01*
X104699462Y-77840090D01*
X104747081Y-77863900D01*
X104770891Y-77887709D01*
X104794700Y-77935328D01*
X104794700Y-78006757D01*
X104770891Y-78054376D01*
X104747081Y-78078185D01*
X104699462Y-78101995D01*
X104508986Y-78101995D01*
X105270891Y-78340090D02*
X104985177Y-78340090D01*
X105128034Y-78340090D02*
X105128034Y-77840090D01*
X105080415Y-77911519D01*
X105032796Y-77959138D01*
X104985177Y-77982947D01*
X106419047Y-108676190D02*
X106419047Y-109080952D01*
X106442857Y-109128571D01*
X106466666Y-109152380D01*
X106514285Y-109176190D01*
X106609523Y-109176190D01*
X106657142Y-109152380D01*
X106680952Y-109128571D01*
X106704761Y-109080952D01*
X106704761Y-108676190D01*
X106919047Y-108723809D02*
X106942857Y-108700000D01*
X106990476Y-108676190D01*
X107109523Y-108676190D01*
X107157142Y-108700000D01*
X107180952Y-108723809D01*
X107204761Y-108771428D01*
X107204761Y-108819047D01*
X107180952Y-108890476D01*
X106895238Y-109176190D01*
X107204761Y-109176190D01*
X128716666Y-63378571D02*
X128692857Y-63402380D01*
X128621428Y-63426190D01*
X128573809Y-63426190D01*
X128502380Y-63402380D01*
X128454761Y-63354761D01*
X128430952Y-63307142D01*
X128407142Y-63211904D01*
X128407142Y-63140476D01*
X128430952Y-63045238D01*
X128454761Y-62997619D01*
X128502380Y-62950000D01*
X128573809Y-62926190D01*
X128621428Y-62926190D01*
X128692857Y-62950000D01*
X128716666Y-62973809D01*
X129192857Y-63426190D02*
X128907142Y-63426190D01*
X129050000Y-63426190D02*
X129050000Y-62926190D01*
X129002380Y-62997619D01*
X128954761Y-63045238D01*
X128907142Y-63069047D01*
X128716666Y-61578571D02*
X128692857Y-61602380D01*
X128621428Y-61626190D01*
X128573809Y-61626190D01*
X128502380Y-61602380D01*
X128454761Y-61554761D01*
X128430952Y-61507142D01*
X128407142Y-61411904D01*
X128407142Y-61340476D01*
X128430952Y-61245238D01*
X128454761Y-61197619D01*
X128502380Y-61150000D01*
X128573809Y-61126190D01*
X128621428Y-61126190D01*
X128692857Y-61150000D01*
X128716666Y-61173809D01*
X128907142Y-61173809D02*
X128930952Y-61150000D01*
X128978571Y-61126190D01*
X129097619Y-61126190D01*
X129145238Y-61150000D01*
X129169047Y-61173809D01*
X129192857Y-61221428D01*
X129192857Y-61269047D01*
X129169047Y-61340476D01*
X128883333Y-61626190D01*
X129192857Y-61626190D01*
X104341666Y-69178571D02*
X104317857Y-69202380D01*
X104246428Y-69226190D01*
X104198809Y-69226190D01*
X104127380Y-69202380D01*
X104079761Y-69154761D01*
X104055952Y-69107142D01*
X104032142Y-69011904D01*
X104032142Y-68940476D01*
X104055952Y-68845238D01*
X104079761Y-68797619D01*
X104127380Y-68750000D01*
X104198809Y-68726190D01*
X104246428Y-68726190D01*
X104317857Y-68750000D01*
X104341666Y-68773809D01*
X104508333Y-68726190D02*
X104817857Y-68726190D01*
X104651190Y-68916666D01*
X104722619Y-68916666D01*
X104770238Y-68940476D01*
X104794047Y-68964285D01*
X104817857Y-69011904D01*
X104817857Y-69130952D01*
X104794047Y-69178571D01*
X104770238Y-69202380D01*
X104722619Y-69226190D01*
X104579761Y-69226190D01*
X104532142Y-69202380D01*
X104508333Y-69178571D01*
X104291666Y-58003571D02*
X104267857Y-58027380D01*
X104196428Y-58051190D01*
X104148809Y-58051190D01*
X104077380Y-58027380D01*
X104029761Y-57979761D01*
X104005952Y-57932142D01*
X103982142Y-57836904D01*
X103982142Y-57765476D01*
X104005952Y-57670238D01*
X104029761Y-57622619D01*
X104077380Y-57575000D01*
X104148809Y-57551190D01*
X104196428Y-57551190D01*
X104267857Y-57575000D01*
X104291666Y-57598809D01*
X104720238Y-57717857D02*
X104720238Y-58051190D01*
X104601190Y-57527380D02*
X104482142Y-57884523D01*
X104791666Y-57884523D01*
X104291666Y-63928571D02*
X104267857Y-63952380D01*
X104196428Y-63976190D01*
X104148809Y-63976190D01*
X104077380Y-63952380D01*
X104029761Y-63904761D01*
X104005952Y-63857142D01*
X103982142Y-63761904D01*
X103982142Y-63690476D01*
X104005952Y-63595238D01*
X104029761Y-63547619D01*
X104077380Y-63500000D01*
X104148809Y-63476190D01*
X104196428Y-63476190D01*
X104267857Y-63500000D01*
X104291666Y-63523809D01*
X104744047Y-63476190D02*
X104505952Y-63476190D01*
X104482142Y-63714285D01*
X104505952Y-63690476D01*
X104553571Y-63666666D01*
X104672619Y-63666666D01*
X104720238Y-63690476D01*
X104744047Y-63714285D01*
X104767857Y-63761904D01*
X104767857Y-63880952D01*
X104744047Y-63928571D01*
X104720238Y-63952380D01*
X104672619Y-63976190D01*
X104553571Y-63976190D01*
X104505952Y-63952380D01*
X104482142Y-63928571D01*
X104291666Y-65703571D02*
X104267857Y-65727380D01*
X104196428Y-65751190D01*
X104148809Y-65751190D01*
X104077380Y-65727380D01*
X104029761Y-65679761D01*
X104005952Y-65632142D01*
X103982142Y-65536904D01*
X103982142Y-65465476D01*
X104005952Y-65370238D01*
X104029761Y-65322619D01*
X104077380Y-65275000D01*
X104148809Y-65251190D01*
X104196428Y-65251190D01*
X104267857Y-65275000D01*
X104291666Y-65298809D01*
X104720238Y-65251190D02*
X104625000Y-65251190D01*
X104577380Y-65275000D01*
X104553571Y-65298809D01*
X104505952Y-65370238D01*
X104482142Y-65465476D01*
X104482142Y-65655952D01*
X104505952Y-65703571D01*
X104529761Y-65727380D01*
X104577380Y-65751190D01*
X104672619Y-65751190D01*
X104720238Y-65727380D01*
X104744047Y-65703571D01*
X104767857Y-65655952D01*
X104767857Y-65536904D01*
X104744047Y-65489285D01*
X104720238Y-65465476D01*
X104672619Y-65441666D01*
X104577380Y-65441666D01*
X104529761Y-65465476D01*
X104505952Y-65489285D01*
X104482142Y-65536904D01*
X128666666Y-70453571D02*
X128642857Y-70477380D01*
X128571428Y-70501190D01*
X128523809Y-70501190D01*
X128452380Y-70477380D01*
X128404761Y-70429761D01*
X128380952Y-70382142D01*
X128357142Y-70286904D01*
X128357142Y-70215476D01*
X128380952Y-70120238D01*
X128404761Y-70072619D01*
X128452380Y-70025000D01*
X128523809Y-70001190D01*
X128571428Y-70001190D01*
X128642857Y-70025000D01*
X128666666Y-70048809D01*
X128833333Y-70001190D02*
X129166666Y-70001190D01*
X128952380Y-70501190D01*
X128691666Y-68703571D02*
X128667857Y-68727380D01*
X128596428Y-68751190D01*
X128548809Y-68751190D01*
X128477380Y-68727380D01*
X128429761Y-68679761D01*
X128405952Y-68632142D01*
X128382142Y-68536904D01*
X128382142Y-68465476D01*
X128405952Y-68370238D01*
X128429761Y-68322619D01*
X128477380Y-68275000D01*
X128548809Y-68251190D01*
X128596428Y-68251190D01*
X128667857Y-68275000D01*
X128691666Y-68298809D01*
X128977380Y-68465476D02*
X128929761Y-68441666D01*
X128905952Y-68417857D01*
X128882142Y-68370238D01*
X128882142Y-68346428D01*
X128905952Y-68298809D01*
X128929761Y-68275000D01*
X128977380Y-68251190D01*
X129072619Y-68251190D01*
X129120238Y-68275000D01*
X129144047Y-68298809D01*
X129167857Y-68346428D01*
X129167857Y-68370238D01*
X129144047Y-68417857D01*
X129120238Y-68441666D01*
X129072619Y-68465476D01*
X128977380Y-68465476D01*
X128929761Y-68489285D01*
X128905952Y-68513095D01*
X128882142Y-68560714D01*
X128882142Y-68655952D01*
X128905952Y-68703571D01*
X128929761Y-68727380D01*
X128977380Y-68751190D01*
X129072619Y-68751190D01*
X129120238Y-68727380D01*
X129144047Y-68703571D01*
X129167857Y-68655952D01*
X129167857Y-68560714D01*
X129144047Y-68513095D01*
X129120238Y-68489285D01*
X129072619Y-68465476D01*
X128716666Y-66953571D02*
X128692857Y-66977380D01*
X128621428Y-67001190D01*
X128573809Y-67001190D01*
X128502380Y-66977380D01*
X128454761Y-66929761D01*
X128430952Y-66882142D01*
X128407142Y-66786904D01*
X128407142Y-66715476D01*
X128430952Y-66620238D01*
X128454761Y-66572619D01*
X128502380Y-66525000D01*
X128573809Y-66501190D01*
X128621428Y-66501190D01*
X128692857Y-66525000D01*
X128716666Y-66548809D01*
X128954761Y-67001190D02*
X129050000Y-67001190D01*
X129097619Y-66977380D01*
X129121428Y-66953571D01*
X129169047Y-66882142D01*
X129192857Y-66786904D01*
X129192857Y-66596428D01*
X129169047Y-66548809D01*
X129145238Y-66525000D01*
X129097619Y-66501190D01*
X129002380Y-66501190D01*
X128954761Y-66525000D01*
X128930952Y-66548809D01*
X128907142Y-66596428D01*
X128907142Y-66715476D01*
X128930952Y-66763095D01*
X128954761Y-66786904D01*
X129002380Y-66810714D01*
X129097619Y-66810714D01*
X129145238Y-66786904D01*
X129169047Y-66763095D01*
X129192857Y-66715476D01*
X128478571Y-65153571D02*
X128454761Y-65177380D01*
X128383333Y-65201190D01*
X128335714Y-65201190D01*
X128264285Y-65177380D01*
X128216666Y-65129761D01*
X128192857Y-65082142D01*
X128169047Y-64986904D01*
X128169047Y-64915476D01*
X128192857Y-64820238D01*
X128216666Y-64772619D01*
X128264285Y-64725000D01*
X128335714Y-64701190D01*
X128383333Y-64701190D01*
X128454761Y-64725000D01*
X128478571Y-64748809D01*
X128954761Y-65201190D02*
X128669047Y-65201190D01*
X128811904Y-65201190D02*
X128811904Y-64701190D01*
X128764285Y-64772619D01*
X128716666Y-64820238D01*
X128669047Y-64844047D01*
X129264285Y-64701190D02*
X129311904Y-64701190D01*
X129359523Y-64725000D01*
X129383333Y-64748809D01*
X129407142Y-64796428D01*
X129430952Y-64891666D01*
X129430952Y-65010714D01*
X129407142Y-65105952D01*
X129383333Y-65153571D01*
X129359523Y-65177380D01*
X129311904Y-65201190D01*
X129264285Y-65201190D01*
X129216666Y-65177380D01*
X129192857Y-65153571D01*
X129169047Y-65105952D01*
X129145238Y-65010714D01*
X129145238Y-64891666D01*
X129169047Y-64796428D01*
X129192857Y-64748809D01*
X129216666Y-64725000D01*
X129264285Y-64701190D01*
X128380952Y-74701190D02*
X128380952Y-74201190D01*
X128500000Y-74201190D01*
X128571428Y-74225000D01*
X128619047Y-74272619D01*
X128642857Y-74320238D01*
X128666666Y-74415476D01*
X128666666Y-74486904D01*
X128642857Y-74582142D01*
X128619047Y-74629761D01*
X128571428Y-74677380D01*
X128500000Y-74701190D01*
X128380952Y-74701190D01*
X128857142Y-74248809D02*
X128880952Y-74225000D01*
X128928571Y-74201190D01*
X129047619Y-74201190D01*
X129095238Y-74225000D01*
X129119047Y-74248809D01*
X129142857Y-74296428D01*
X129142857Y-74344047D01*
X129119047Y-74415476D01*
X128833333Y-74701190D01*
X129142857Y-74701190D01*
X128691666Y-78638690D02*
X128453571Y-78638690D01*
X128453571Y-78138690D01*
X129120238Y-78638690D02*
X128834523Y-78638690D01*
X128977380Y-78638690D02*
X128977380Y-78138690D01*
X128929761Y-78210119D01*
X128882142Y-78257738D01*
X128834523Y-78281547D01*
X104341666Y-67501190D02*
X104175000Y-67263095D01*
X104055952Y-67501190D02*
X104055952Y-67001190D01*
X104246428Y-67001190D01*
X104294047Y-67025000D01*
X104317857Y-67048809D01*
X104341666Y-67096428D01*
X104341666Y-67167857D01*
X104317857Y-67215476D01*
X104294047Y-67239285D01*
X104246428Y-67263095D01*
X104055952Y-67263095D01*
X104817857Y-67501190D02*
X104532142Y-67501190D01*
X104675000Y-67501190D02*
X104675000Y-67001190D01*
X104627380Y-67072619D01*
X104579761Y-67120238D01*
X104532142Y-67144047D01*
X128716666Y-59826190D02*
X128550000Y-59588095D01*
X128430952Y-59826190D02*
X128430952Y-59326190D01*
X128621428Y-59326190D01*
X128669047Y-59350000D01*
X128692857Y-59373809D01*
X128716666Y-59421428D01*
X128716666Y-59492857D01*
X128692857Y-59540476D01*
X128669047Y-59564285D01*
X128621428Y-59588095D01*
X128430952Y-59588095D01*
X128907142Y-59373809D02*
X128930952Y-59350000D01*
X128978571Y-59326190D01*
X129097619Y-59326190D01*
X129145238Y-59350000D01*
X129169047Y-59373809D01*
X129192857Y-59421428D01*
X129192857Y-59469047D01*
X129169047Y-59540476D01*
X128883333Y-59826190D01*
X129192857Y-59826190D01*
D13*
X115813095Y-60702380D02*
X115813095Y-61511904D01*
X115860714Y-61607142D01*
X115908333Y-61654761D01*
X116003571Y-61702380D01*
X116194047Y-61702380D01*
X116289285Y-61654761D01*
X116336904Y-61607142D01*
X116384523Y-61511904D01*
X116384523Y-60702380D01*
X117384523Y-61702380D02*
X116813095Y-61702380D01*
X117098809Y-61702380D02*
X117098809Y-60702380D01*
X117003571Y-60845238D01*
X116908333Y-60940476D01*
X116813095Y-60988095D01*
D10*
X126119047Y-108676190D02*
X126119047Y-109080952D01*
X126142857Y-109128571D01*
X126166666Y-109152380D01*
X126214285Y-109176190D01*
X126309523Y-109176190D01*
X126357142Y-109152380D01*
X126380952Y-109128571D01*
X126404761Y-109080952D01*
X126404761Y-108676190D01*
X126595238Y-108676190D02*
X126904761Y-108676190D01*
X126738095Y-108866666D01*
X126809523Y-108866666D01*
X126857142Y-108890476D01*
X126880952Y-108914285D01*
X126904761Y-108961904D01*
X126904761Y-109080952D01*
X126880952Y-109128571D01*
X126857142Y-109152380D01*
X126809523Y-109176190D01*
X126666666Y-109176190D01*
X126619047Y-109152380D01*
X126595238Y-109128571D01*
X103470238Y-87351190D02*
X103470238Y-86851190D01*
X103660714Y-86851190D01*
X103708333Y-86875000D01*
X103732142Y-86898809D01*
X103755952Y-86946428D01*
X103755952Y-87017857D01*
X103732142Y-87065476D01*
X103708333Y-87089285D01*
X103660714Y-87113095D01*
X103470238Y-87113095D01*
X103922619Y-86851190D02*
X104041666Y-87351190D01*
X104136904Y-86994047D01*
X104232142Y-87351190D01*
X104351190Y-86851190D01*
X104827380Y-87351190D02*
X104660714Y-87113095D01*
X104541666Y-87351190D02*
X104541666Y-86851190D01*
X104732142Y-86851190D01*
X104779761Y-86875000D01*
X104803571Y-86898809D01*
X104827380Y-86946428D01*
X104827380Y-87017857D01*
X104803571Y-87065476D01*
X104779761Y-87089285D01*
X104732142Y-87113095D01*
X104541666Y-87113095D01*
X104994047Y-86851190D02*
X105303571Y-86851190D01*
X105136904Y-87041666D01*
X105208333Y-87041666D01*
X105255952Y-87065476D01*
X105279761Y-87089285D01*
X105303571Y-87136904D01*
X105303571Y-87255952D01*
X105279761Y-87303571D01*
X105255952Y-87327380D01*
X105208333Y-87351190D01*
X105065476Y-87351190D01*
X105017857Y-87327380D01*
X104994047Y-87303571D01*
X116808333Y-90851190D02*
X116808333Y-91208333D01*
X116784523Y-91279761D01*
X116736904Y-91327380D01*
X116665476Y-91351190D01*
X116617857Y-91351190D01*
X116998809Y-90851190D02*
X117308333Y-90851190D01*
X117141666Y-91041666D01*
X117213095Y-91041666D01*
X117260714Y-91065476D01*
X117284523Y-91089285D01*
X117308333Y-91136904D01*
X117308333Y-91255952D01*
X117284523Y-91303571D01*
X117260714Y-91327380D01*
X117213095Y-91351190D01*
X117070238Y-91351190D01*
X117022619Y-91327380D01*
X116998809Y-91303571D01*
X128666666Y-72326190D02*
X128500000Y-72088095D01*
X128380952Y-72326190D02*
X128380952Y-71826190D01*
X128571428Y-71826190D01*
X128619047Y-71850000D01*
X128642857Y-71873809D01*
X128666666Y-71921428D01*
X128666666Y-71992857D01*
X128642857Y-72040476D01*
X128619047Y-72064285D01*
X128571428Y-72088095D01*
X128380952Y-72088095D01*
X128833333Y-71826190D02*
X129142857Y-71826190D01*
X128976190Y-72016666D01*
X129047619Y-72016666D01*
X129095238Y-72040476D01*
X129119047Y-72064285D01*
X129142857Y-72111904D01*
X129142857Y-72230952D01*
X129119047Y-72278571D01*
X129095238Y-72302380D01*
X129047619Y-72326190D01*
X128904761Y-72326190D01*
X128857142Y-72302380D01*
X128833333Y-72278571D01*
M02*
