G04 #@! TF.GenerationSoftware,KiCad,Pcbnew,(5.1.4)-1*
G04 #@! TF.CreationDate,2020-06-22T02:05:19+08:00*
G04 #@! TF.ProjectId,esp-break,6573702d-6272-4656-916b-2e6b69636164,rev?*
G04 #@! TF.SameCoordinates,Original*
G04 #@! TF.FileFunction,Other,Fab,Top*
%FSLAX46Y46*%
G04 Gerber Fmt 4.6, Leading zero omitted, Abs format (unit mm)*
G04 Created by KiCad (PCBNEW (5.1.4)-1) date 2020-06-22 02:05:19*
%MOMM*%
%LPD*%
G04 APERTURE LIST*
%ADD10C,0.100000*%
%ADD11C,0.150000*%
%ADD12C,0.120000*%
%ADD13C,0.040000*%
%ADD14C,0.060000*%
G04 APERTURE END LIST*
D10*
X128500000Y-58873200D02*
X128500000Y-58373200D01*
X128400000Y-58873200D02*
X128400000Y-58373200D01*
X129300000Y-58873200D02*
X128300000Y-58873200D01*
X129300000Y-58373200D02*
X129300000Y-58873200D01*
X128300000Y-58373200D02*
X129300000Y-58373200D01*
X128300000Y-58873200D02*
X128300000Y-58373200D01*
X105825000Y-62675000D02*
X102825000Y-62675000D01*
X102825000Y-62675000D02*
X102825000Y-60175000D01*
X102825000Y-60175000D02*
X105825000Y-60175000D01*
X105825000Y-60175000D02*
X105825000Y-62675000D01*
X105075000Y-61425000D02*
G75*
G03X105075000Y-61425000I-750000J0D01*
G01*
X103665000Y-71405000D02*
X105570000Y-71405000D01*
X105570000Y-71405000D02*
X105570000Y-76485000D01*
X105570000Y-76485000D02*
X103030000Y-76485000D01*
X103030000Y-76485000D02*
X103030000Y-72040000D01*
X103030000Y-72040000D02*
X103665000Y-71405000D01*
X104450000Y-105950000D02*
X103450000Y-104950000D01*
X104450000Y-105950000D02*
X110150000Y-105950000D01*
X103450000Y-104950000D02*
X103450000Y-102250000D01*
X110150000Y-105950000D02*
X110150000Y-102250000D01*
X103450000Y-102250000D02*
X110150000Y-102250000D01*
X129300000Y-63775000D02*
X129300000Y-64275000D01*
X129300000Y-64275000D02*
X128300000Y-64275000D01*
X128300000Y-64275000D02*
X128300000Y-63775000D01*
X128300000Y-63775000D02*
X129300000Y-63775000D01*
X128300000Y-62000000D02*
X129300000Y-62000000D01*
X128300000Y-62500000D02*
X128300000Y-62000000D01*
X129300000Y-62500000D02*
X128300000Y-62500000D01*
X129300000Y-62000000D02*
X129300000Y-62500000D01*
X103925000Y-70075000D02*
X103925000Y-69575000D01*
X103925000Y-69575000D02*
X104925000Y-69575000D01*
X104925000Y-69575000D02*
X104925000Y-70075000D01*
X104925000Y-70075000D02*
X103925000Y-70075000D01*
X103875000Y-58400000D02*
X104875000Y-58400000D01*
X103875000Y-58900000D02*
X103875000Y-58400000D01*
X104875000Y-58900000D02*
X103875000Y-58900000D01*
X104875000Y-58400000D02*
X104875000Y-58900000D01*
X104875000Y-64825000D02*
X103875000Y-64825000D01*
X104875000Y-64325000D02*
X104875000Y-64825000D01*
X103875000Y-64325000D02*
X104875000Y-64325000D01*
X103875000Y-64825000D02*
X103875000Y-64325000D01*
X103875000Y-66600000D02*
X103875000Y-66100000D01*
X103875000Y-66100000D02*
X104875000Y-66100000D01*
X104875000Y-66100000D02*
X104875000Y-66600000D01*
X104875000Y-66600000D02*
X103875000Y-66600000D01*
X128250000Y-70875000D02*
X129250000Y-70875000D01*
X128250000Y-71375000D02*
X128250000Y-70875000D01*
X129250000Y-71375000D02*
X128250000Y-71375000D01*
X129250000Y-70875000D02*
X129250000Y-71375000D01*
X129275000Y-69100000D02*
X129275000Y-69600000D01*
X129275000Y-69600000D02*
X128275000Y-69600000D01*
X128275000Y-69600000D02*
X128275000Y-69100000D01*
X128275000Y-69100000D02*
X129275000Y-69100000D01*
X128300000Y-67375000D02*
X129300000Y-67375000D01*
X128300000Y-67875000D02*
X128300000Y-67375000D01*
X129300000Y-67875000D02*
X128300000Y-67875000D01*
X129300000Y-67375000D02*
X129300000Y-67875000D01*
X129300000Y-65575000D02*
X129300000Y-66075000D01*
X129300000Y-66075000D02*
X128300000Y-66075000D01*
X128300000Y-66075000D02*
X128300000Y-65575000D01*
X128300000Y-65575000D02*
X129300000Y-65575000D01*
X128350000Y-73175000D02*
X128350000Y-74475000D01*
X128350000Y-74475000D02*
X128650000Y-74775000D01*
X128650000Y-74775000D02*
X129150000Y-74775000D01*
X129150000Y-74775000D02*
X129150000Y-73175000D01*
X129150000Y-73175000D02*
X128350000Y-73175000D01*
X108455000Y-79855000D02*
X110360000Y-79855000D01*
X110360000Y-79855000D02*
X110995000Y-80490000D01*
X110995000Y-80490000D02*
X110995000Y-90015000D01*
X110995000Y-90015000D02*
X108455000Y-90015000D01*
X108455000Y-90015000D02*
X108455000Y-79855000D01*
X129175000Y-78750000D02*
X128375000Y-78750000D01*
X128375000Y-78750000D02*
X128375000Y-77150000D01*
X128375000Y-77150000D02*
X129175000Y-77150000D01*
X129175000Y-77150000D02*
X129175000Y-78750000D01*
X104925000Y-67850000D02*
X104925000Y-68350000D01*
X104925000Y-68350000D02*
X103925000Y-68350000D01*
X103925000Y-68350000D02*
X103925000Y-67850000D01*
X103925000Y-67850000D02*
X104925000Y-67850000D01*
X128300000Y-60175000D02*
X129300000Y-60175000D01*
X128300000Y-60675000D02*
X128300000Y-60175000D01*
X129300000Y-60675000D02*
X128300000Y-60675000D01*
X129300000Y-60175000D02*
X129300000Y-60675000D01*
X125586000Y-76308000D02*
X125586000Y-50803000D01*
X107586000Y-76308000D02*
X125586000Y-76308000D01*
X107586000Y-50803000D02*
X107586000Y-56528000D01*
X107586000Y-50803000D02*
X125586000Y-50803000D01*
X107586000Y-57528000D02*
X107586000Y-76308000D01*
X108086000Y-57028000D02*
X107586000Y-56528000D01*
X107586000Y-57528000D02*
X108086000Y-57028000D01*
X124150000Y-105925000D02*
X123150000Y-104925000D01*
X124150000Y-105925000D02*
X129850000Y-105925000D01*
X123150000Y-104925000D02*
X123150000Y-102225000D01*
X129850000Y-105925000D02*
X129850000Y-102225000D01*
X123150000Y-102225000D02*
X129850000Y-102225000D01*
X100987500Y-95800000D02*
X105987500Y-95800000D01*
X101685796Y-89050000D02*
X101685796Y-95050000D01*
X100985796Y-88300000D02*
X100985796Y-95800000D01*
X105987500Y-88300000D02*
X105987500Y-95800000D01*
X100987500Y-88300000D02*
X105987500Y-88300000D01*
X106087500Y-90750000D02*
X106287500Y-90550000D01*
X106287500Y-90950000D02*
X106087500Y-90750000D01*
X106497500Y-90550000D02*
X106497500Y-90950000D01*
X106497500Y-90550000D02*
X106287500Y-90550000D01*
X106497500Y-90950000D02*
X106287500Y-90950000D01*
D11*
X128157142Y-60895580D02*
X127680952Y-60895580D01*
X127680952Y-59895580D01*
X128490476Y-60371771D02*
X128823809Y-60371771D01*
X128966666Y-60895580D02*
X128490476Y-60895580D01*
X128490476Y-59895580D01*
X128966666Y-59895580D01*
X129395238Y-60895580D02*
X129395238Y-59895580D01*
X129633333Y-59895580D01*
X129776190Y-59943200D01*
X129871428Y-60038438D01*
X129919047Y-60133676D01*
X129966666Y-60324152D01*
X129966666Y-60467009D01*
X129919047Y-60657485D01*
X129871428Y-60752723D01*
X129776190Y-60847961D01*
X129633333Y-60895580D01*
X129395238Y-60895580D01*
D12*
X128209523Y-58985104D02*
X128209523Y-58185104D01*
X128400000Y-58185104D01*
X128514285Y-58223200D01*
X128590476Y-58299390D01*
X128628571Y-58375580D01*
X128666666Y-58527961D01*
X128666666Y-58642247D01*
X128628571Y-58794628D01*
X128590476Y-58870819D01*
X128514285Y-58947009D01*
X128400000Y-58985104D01*
X128209523Y-58985104D01*
X129428571Y-58985104D02*
X128971428Y-58985104D01*
X129200000Y-58985104D02*
X129200000Y-58185104D01*
X129123809Y-58299390D01*
X129047619Y-58375580D01*
X128971428Y-58413676D01*
D11*
X101277380Y-59329761D02*
X101420238Y-59377380D01*
X101658333Y-59377380D01*
X101753571Y-59329761D01*
X101801190Y-59282142D01*
X101848809Y-59186904D01*
X101848809Y-59091666D01*
X101801190Y-58996428D01*
X101753571Y-58948809D01*
X101658333Y-58901190D01*
X101467857Y-58853571D01*
X101372619Y-58805952D01*
X101325000Y-58758333D01*
X101277380Y-58663095D01*
X101277380Y-58567857D01*
X101325000Y-58472619D01*
X101372619Y-58425000D01*
X101467857Y-58377380D01*
X101705952Y-58377380D01*
X101848809Y-58425000D01*
X102182142Y-58377380D02*
X102420238Y-59377380D01*
X102610714Y-58663095D01*
X102801190Y-59377380D01*
X103039285Y-58377380D01*
X103182142Y-59472619D02*
X103944047Y-59472619D01*
X104182142Y-59377380D02*
X104182142Y-58377380D01*
X104563095Y-58377380D01*
X104658333Y-58425000D01*
X104705952Y-58472619D01*
X104753571Y-58567857D01*
X104753571Y-58710714D01*
X104705952Y-58805952D01*
X104658333Y-58853571D01*
X104563095Y-58901190D01*
X104182142Y-58901190D01*
X105610714Y-58710714D02*
X105610714Y-59377380D01*
X105182142Y-58710714D02*
X105182142Y-59234523D01*
X105229761Y-59329761D01*
X105325000Y-59377380D01*
X105467857Y-59377380D01*
X105563095Y-59329761D01*
X105610714Y-59282142D01*
X106039285Y-59329761D02*
X106134523Y-59377380D01*
X106325000Y-59377380D01*
X106420238Y-59329761D01*
X106467857Y-59234523D01*
X106467857Y-59186904D01*
X106420238Y-59091666D01*
X106325000Y-59044047D01*
X106182142Y-59044047D01*
X106086904Y-58996428D01*
X106039285Y-58901190D01*
X106039285Y-58853571D01*
X106086904Y-58758333D01*
X106182142Y-58710714D01*
X106325000Y-58710714D01*
X106420238Y-58758333D01*
X106896428Y-59377380D02*
X106896428Y-58377380D01*
X107325000Y-59377380D02*
X107325000Y-58853571D01*
X107277380Y-58758333D01*
X107182142Y-58710714D01*
X107039285Y-58710714D01*
X106944047Y-58758333D01*
X106896428Y-58805952D01*
X102991666Y-64329761D02*
X103134523Y-64377380D01*
X103372619Y-64377380D01*
X103467857Y-64329761D01*
X103515476Y-64282142D01*
X103563095Y-64186904D01*
X103563095Y-64091666D01*
X103515476Y-63996428D01*
X103467857Y-63948809D01*
X103372619Y-63901190D01*
X103182142Y-63853571D01*
X103086904Y-63805952D01*
X103039285Y-63758333D01*
X102991666Y-63663095D01*
X102991666Y-63567857D01*
X103039285Y-63472619D01*
X103086904Y-63425000D01*
X103182142Y-63377380D01*
X103420238Y-63377380D01*
X103563095Y-63425000D01*
X103896428Y-63377380D02*
X104134523Y-64377380D01*
X104325000Y-63663095D01*
X104515476Y-64377380D01*
X104753571Y-63377380D01*
X105658333Y-64377380D02*
X105086904Y-64377380D01*
X105372619Y-64377380D02*
X105372619Y-63377380D01*
X105277380Y-63520238D01*
X105182142Y-63615476D01*
X105086904Y-63663095D01*
X104122666Y-112618780D02*
X103789333Y-112142590D01*
X103551238Y-112618780D02*
X103551238Y-111618780D01*
X103932190Y-111618780D01*
X104027428Y-111666400D01*
X104075047Y-111714019D01*
X104122666Y-111809257D01*
X104122666Y-111952114D01*
X104075047Y-112047352D01*
X104027428Y-112094971D01*
X103932190Y-112142590D01*
X103551238Y-112142590D01*
X104551238Y-112094971D02*
X104884571Y-112094971D01*
X105027428Y-112618780D02*
X104551238Y-112618780D01*
X104551238Y-111618780D01*
X105027428Y-111618780D01*
X105789333Y-112094971D02*
X105456000Y-112094971D01*
X105456000Y-112618780D02*
X105456000Y-111618780D01*
X105932190Y-111618780D01*
X106456000Y-111618780D02*
X106456000Y-111856876D01*
X106217904Y-111761638D02*
X106456000Y-111856876D01*
X106694095Y-111761638D01*
X106313142Y-112047352D02*
X106456000Y-111856876D01*
X106598857Y-112047352D01*
X107217904Y-111618780D02*
X107217904Y-111856876D01*
X106979809Y-111761638D02*
X107217904Y-111856876D01*
X107456000Y-111761638D01*
X107075047Y-112047352D02*
X107217904Y-111856876D01*
X107360761Y-112047352D01*
X127084266Y-112618780D02*
X126750933Y-112142590D01*
X126512838Y-112618780D02*
X126512838Y-111618780D01*
X126893790Y-111618780D01*
X126989028Y-111666400D01*
X127036647Y-111714019D01*
X127084266Y-111809257D01*
X127084266Y-111952114D01*
X127036647Y-112047352D01*
X126989028Y-112094971D01*
X126893790Y-112142590D01*
X126512838Y-112142590D01*
X127512838Y-112094971D02*
X127846171Y-112094971D01*
X127989028Y-112618780D02*
X127512838Y-112618780D01*
X127512838Y-111618780D01*
X127989028Y-111618780D01*
X128750933Y-112094971D02*
X128417600Y-112094971D01*
X128417600Y-112618780D02*
X128417600Y-111618780D01*
X128893790Y-111618780D01*
X129417600Y-111618780D02*
X129417600Y-111856876D01*
X129179504Y-111761638D02*
X129417600Y-111856876D01*
X129655695Y-111761638D01*
X129274742Y-112047352D02*
X129417600Y-111856876D01*
X129560457Y-112047352D01*
X130179504Y-111618780D02*
X130179504Y-111856876D01*
X129941409Y-111761638D02*
X130179504Y-111856876D01*
X130417600Y-111761638D01*
X130036647Y-112047352D02*
X130179504Y-111856876D01*
X130322361Y-112047352D01*
X121707142Y-112167857D02*
X121754761Y-112215476D01*
X121802380Y-112358333D01*
X121802380Y-112453571D01*
X121754761Y-112596428D01*
X121659523Y-112691666D01*
X121564285Y-112739285D01*
X121373809Y-112786904D01*
X121230952Y-112786904D01*
X121040476Y-112739285D01*
X120945238Y-112691666D01*
X120850000Y-112596428D01*
X120802380Y-112453571D01*
X120802380Y-112358333D01*
X120850000Y-112215476D01*
X120897619Y-112167857D01*
X121802380Y-111596428D02*
X121754761Y-111691666D01*
X121707142Y-111739285D01*
X121611904Y-111786904D01*
X121326190Y-111786904D01*
X121230952Y-111739285D01*
X121183333Y-111691666D01*
X121135714Y-111596428D01*
X121135714Y-111453571D01*
X121183333Y-111358333D01*
X121230952Y-111310714D01*
X121326190Y-111263095D01*
X121611904Y-111263095D01*
X121707142Y-111310714D01*
X121754761Y-111358333D01*
X121802380Y-111453571D01*
X121802380Y-111596428D01*
X121135714Y-110834523D02*
X121802380Y-110834523D01*
X121230952Y-110834523D02*
X121183333Y-110786904D01*
X121135714Y-110691666D01*
X121135714Y-110548809D01*
X121183333Y-110453571D01*
X121278571Y-110405952D01*
X121802380Y-110405952D01*
X121135714Y-109929761D02*
X121802380Y-109929761D01*
X121230952Y-109929761D02*
X121183333Y-109882142D01*
X121135714Y-109786904D01*
X121135714Y-109644047D01*
X121183333Y-109548809D01*
X121278571Y-109501190D01*
X121802380Y-109501190D01*
X121897619Y-109263095D02*
X121897619Y-108501190D01*
X120802380Y-108072619D02*
X120802380Y-107977380D01*
X120850000Y-107882142D01*
X120897619Y-107834523D01*
X120992857Y-107786904D01*
X121183333Y-107739285D01*
X121421428Y-107739285D01*
X121611904Y-107786904D01*
X121707142Y-107834523D01*
X121754761Y-107882142D01*
X121802380Y-107977380D01*
X121802380Y-108072619D01*
X121754761Y-108167857D01*
X121707142Y-108215476D01*
X121611904Y-108263095D01*
X121421428Y-108310714D01*
X121183333Y-108310714D01*
X120992857Y-108263095D01*
X120897619Y-108215476D01*
X120850000Y-108167857D01*
X120802380Y-108072619D01*
X120897619Y-107358333D02*
X120850000Y-107310714D01*
X120802380Y-107215476D01*
X120802380Y-106977380D01*
X120850000Y-106882142D01*
X120897619Y-106834523D01*
X120992857Y-106786904D01*
X121088095Y-106786904D01*
X121230952Y-106834523D01*
X121802380Y-107405952D01*
X121802380Y-106786904D01*
X121802380Y-106453571D02*
X121135714Y-105929761D01*
X121135714Y-106453571D02*
X121802380Y-105929761D01*
X120802380Y-105358333D02*
X120802380Y-105263095D01*
X120850000Y-105167857D01*
X120897619Y-105120238D01*
X120992857Y-105072619D01*
X121183333Y-105025000D01*
X121421428Y-105025000D01*
X121611904Y-105072619D01*
X121707142Y-105120238D01*
X121754761Y-105167857D01*
X121802380Y-105263095D01*
X121802380Y-105358333D01*
X121754761Y-105453571D01*
X121707142Y-105501190D01*
X121611904Y-105548809D01*
X121421428Y-105596428D01*
X121183333Y-105596428D01*
X120992857Y-105548809D01*
X120897619Y-105501190D01*
X120850000Y-105453571D01*
X120802380Y-105358333D01*
X120802380Y-104691666D02*
X120802380Y-104072619D01*
X121183333Y-104405952D01*
X121183333Y-104263095D01*
X121230952Y-104167857D01*
X121278571Y-104120238D01*
X121373809Y-104072619D01*
X121611904Y-104072619D01*
X121707142Y-104120238D01*
X121754761Y-104167857D01*
X121802380Y-104263095D01*
X121802380Y-104548809D01*
X121754761Y-104644047D01*
X121707142Y-104691666D01*
X121897619Y-103882142D02*
X121897619Y-103120238D01*
X120802380Y-102691666D02*
X120802380Y-102501190D01*
X120850000Y-102405952D01*
X120945238Y-102310714D01*
X121135714Y-102263095D01*
X121469047Y-102263095D01*
X121659523Y-102310714D01*
X121754761Y-102405952D01*
X121802380Y-102501190D01*
X121802380Y-102691666D01*
X121754761Y-102786904D01*
X121659523Y-102882142D01*
X121469047Y-102929761D01*
X121135714Y-102929761D01*
X120945238Y-102882142D01*
X120850000Y-102786904D01*
X120802380Y-102691666D01*
X121802380Y-101405952D02*
X120802380Y-101405952D01*
X121754761Y-101405952D02*
X121802380Y-101501190D01*
X121802380Y-101691666D01*
X121754761Y-101786904D01*
X121707142Y-101834523D01*
X121611904Y-101882142D01*
X121326190Y-101882142D01*
X121230952Y-101834523D01*
X121183333Y-101786904D01*
X121135714Y-101691666D01*
X121135714Y-101501190D01*
X121183333Y-101405952D01*
X121802380Y-100501190D02*
X120802380Y-100501190D01*
X121754761Y-100501190D02*
X121802380Y-100596428D01*
X121802380Y-100786904D01*
X121754761Y-100882142D01*
X121707142Y-100929761D01*
X121611904Y-100977380D01*
X121326190Y-100977380D01*
X121230952Y-100929761D01*
X121183333Y-100882142D01*
X121135714Y-100786904D01*
X121135714Y-100596428D01*
X121183333Y-100501190D01*
X121897619Y-100263095D02*
X121897619Y-99501190D01*
X121278571Y-99263095D02*
X121278571Y-98929761D01*
X121802380Y-98786904D02*
X121802380Y-99263095D01*
X120802380Y-99263095D01*
X120802380Y-98786904D01*
X121135714Y-98453571D02*
X121802380Y-98215476D01*
X121135714Y-97977380D01*
X121754761Y-97215476D02*
X121802380Y-97310714D01*
X121802380Y-97501190D01*
X121754761Y-97596428D01*
X121659523Y-97644047D01*
X121278571Y-97644047D01*
X121183333Y-97596428D01*
X121135714Y-97501190D01*
X121135714Y-97310714D01*
X121183333Y-97215476D01*
X121278571Y-97167857D01*
X121373809Y-97167857D01*
X121469047Y-97644047D01*
X121135714Y-96739285D02*
X121802380Y-96739285D01*
X121230952Y-96739285D02*
X121183333Y-96691666D01*
X121135714Y-96596428D01*
X121135714Y-96453571D01*
X121183333Y-96358333D01*
X121278571Y-96310714D01*
X121802380Y-96310714D01*
X116102380Y-104858333D02*
X116816666Y-104858333D01*
X116959523Y-104905952D01*
X117054761Y-105001190D01*
X117102380Y-105144047D01*
X117102380Y-105239285D01*
X117102380Y-103858333D02*
X117102380Y-104429761D01*
X117102380Y-104144047D02*
X116102380Y-104144047D01*
X116245238Y-104239285D01*
X116340476Y-104334523D01*
X116388095Y-104429761D01*
X98466666Y-77902142D02*
X98419047Y-77949761D01*
X98276190Y-77997380D01*
X98180952Y-77997380D01*
X98038095Y-77949761D01*
X97942857Y-77854523D01*
X97895238Y-77759285D01*
X97847619Y-77568809D01*
X97847619Y-77425952D01*
X97895238Y-77235476D01*
X97942857Y-77140238D01*
X98038095Y-77045000D01*
X98180952Y-76997380D01*
X98276190Y-76997380D01*
X98419047Y-77045000D01*
X98466666Y-77092619D01*
X99038095Y-77997380D02*
X98942857Y-77949761D01*
X98895238Y-77902142D01*
X98847619Y-77806904D01*
X98847619Y-77521190D01*
X98895238Y-77425952D01*
X98942857Y-77378333D01*
X99038095Y-77330714D01*
X99180952Y-77330714D01*
X99276190Y-77378333D01*
X99323809Y-77425952D01*
X99371428Y-77521190D01*
X99371428Y-77806904D01*
X99323809Y-77902142D01*
X99276190Y-77949761D01*
X99180952Y-77997380D01*
X99038095Y-77997380D01*
X99800000Y-77330714D02*
X99800000Y-77997380D01*
X99800000Y-77425952D02*
X99847619Y-77378333D01*
X99942857Y-77330714D01*
X100085714Y-77330714D01*
X100180952Y-77378333D01*
X100228571Y-77473571D01*
X100228571Y-77997380D01*
X100704761Y-77330714D02*
X100704761Y-77997380D01*
X100704761Y-77425952D02*
X100752380Y-77378333D01*
X100847619Y-77330714D01*
X100990476Y-77330714D01*
X101085714Y-77378333D01*
X101133333Y-77473571D01*
X101133333Y-77997380D01*
X101371428Y-78092619D02*
X102133333Y-78092619D01*
X102561904Y-76997380D02*
X102657142Y-76997380D01*
X102752380Y-77045000D01*
X102800000Y-77092619D01*
X102847619Y-77187857D01*
X102895238Y-77378333D01*
X102895238Y-77616428D01*
X102847619Y-77806904D01*
X102800000Y-77902142D01*
X102752380Y-77949761D01*
X102657142Y-77997380D01*
X102561904Y-77997380D01*
X102466666Y-77949761D01*
X102419047Y-77902142D01*
X102371428Y-77806904D01*
X102323809Y-77616428D01*
X102323809Y-77378333D01*
X102371428Y-77187857D01*
X102419047Y-77092619D01*
X102466666Y-77045000D01*
X102561904Y-76997380D01*
X103847619Y-77997380D02*
X103276190Y-77997380D01*
X103561904Y-77997380D02*
X103561904Y-76997380D01*
X103466666Y-77140238D01*
X103371428Y-77235476D01*
X103276190Y-77283095D01*
X104180952Y-77997380D02*
X104704761Y-77330714D01*
X104180952Y-77330714D02*
X104704761Y-77997380D01*
X105276190Y-76997380D02*
X105371428Y-76997380D01*
X105466666Y-77045000D01*
X105514285Y-77092619D01*
X105561904Y-77187857D01*
X105609523Y-77378333D01*
X105609523Y-77616428D01*
X105561904Y-77806904D01*
X105514285Y-77902142D01*
X105466666Y-77949761D01*
X105371428Y-77997380D01*
X105276190Y-77997380D01*
X105180952Y-77949761D01*
X105133333Y-77902142D01*
X105085714Y-77806904D01*
X105038095Y-77616428D01*
X105038095Y-77378333D01*
X105085714Y-77187857D01*
X105133333Y-77092619D01*
X105180952Y-77045000D01*
X105276190Y-76997380D01*
X105990476Y-77092619D02*
X106038095Y-77045000D01*
X106133333Y-76997380D01*
X106371428Y-76997380D01*
X106466666Y-77045000D01*
X106514285Y-77092619D01*
X106561904Y-77187857D01*
X106561904Y-77283095D01*
X106514285Y-77425952D01*
X105942857Y-77997380D01*
X106561904Y-77997380D01*
X106752380Y-78092619D02*
X107514285Y-78092619D01*
X107752380Y-77997380D02*
X107752380Y-76997380D01*
X108085714Y-77711666D01*
X108419047Y-76997380D01*
X108419047Y-77997380D01*
X109323809Y-77997380D02*
X109323809Y-77473571D01*
X109276190Y-77378333D01*
X109180952Y-77330714D01*
X108990476Y-77330714D01*
X108895238Y-77378333D01*
X109323809Y-77949761D02*
X109228571Y-77997380D01*
X108990476Y-77997380D01*
X108895238Y-77949761D01*
X108847619Y-77854523D01*
X108847619Y-77759285D01*
X108895238Y-77664047D01*
X108990476Y-77616428D01*
X109228571Y-77616428D01*
X109323809Y-77568809D01*
X109942857Y-77997380D02*
X109847619Y-77949761D01*
X109800000Y-77854523D01*
X109800000Y-76997380D01*
X110704761Y-77949761D02*
X110609523Y-77997380D01*
X110419047Y-77997380D01*
X110323809Y-77949761D01*
X110276190Y-77854523D01*
X110276190Y-77473571D01*
X110323809Y-77378333D01*
X110419047Y-77330714D01*
X110609523Y-77330714D01*
X110704761Y-77378333D01*
X110752380Y-77473571D01*
X110752380Y-77568809D01*
X110276190Y-77664047D01*
X104752380Y-75754523D02*
X103752380Y-75754523D01*
X103752380Y-75373571D01*
X103800000Y-75278333D01*
X103847619Y-75230714D01*
X103942857Y-75183095D01*
X104085714Y-75183095D01*
X104180952Y-75230714D01*
X104228571Y-75278333D01*
X104276190Y-75373571D01*
X104276190Y-75754523D01*
X103752380Y-74849761D02*
X104752380Y-74611666D01*
X104038095Y-74421190D01*
X104752380Y-74230714D01*
X103752380Y-73992619D01*
X104752380Y-73040238D02*
X104276190Y-73373571D01*
X104752380Y-73611666D02*
X103752380Y-73611666D01*
X103752380Y-73230714D01*
X103800000Y-73135476D01*
X103847619Y-73087857D01*
X103942857Y-73040238D01*
X104085714Y-73040238D01*
X104180952Y-73087857D01*
X104228571Y-73135476D01*
X104276190Y-73230714D01*
X104276190Y-73611666D01*
X104752380Y-72087857D02*
X104752380Y-72659285D01*
X104752380Y-72373571D02*
X103752380Y-72373571D01*
X103895238Y-72468809D01*
X103990476Y-72564047D01*
X104038095Y-72659285D01*
X111466666Y-108314285D02*
X111466666Y-107838095D01*
X111752380Y-108409523D02*
X110752380Y-108076190D01*
X111752380Y-107742857D01*
X111752380Y-107409523D02*
X110752380Y-107409523D01*
X110752380Y-107028571D01*
X110800000Y-106933333D01*
X110847619Y-106885714D01*
X110942857Y-106838095D01*
X111085714Y-106838095D01*
X111180952Y-106885714D01*
X111228571Y-106933333D01*
X111276190Y-107028571D01*
X111276190Y-107409523D01*
X111752380Y-105885714D02*
X111752380Y-106457142D01*
X111752380Y-106171428D02*
X110752380Y-106171428D01*
X110895238Y-106266666D01*
X110990476Y-106361904D01*
X111038095Y-106457142D01*
X111752380Y-104933333D02*
X111752380Y-105504761D01*
X111752380Y-105219047D02*
X110752380Y-105219047D01*
X110895238Y-105314285D01*
X110990476Y-105409523D01*
X111038095Y-105504761D01*
X111752380Y-103980952D02*
X111752380Y-104552380D01*
X111752380Y-104266666D02*
X110752380Y-104266666D01*
X110895238Y-104361904D01*
X110990476Y-104457142D01*
X111038095Y-104552380D01*
X110752380Y-103647619D02*
X110752380Y-102980952D01*
X111752380Y-103409523D01*
X111371428Y-102600000D02*
X111371428Y-101838095D01*
X110752380Y-101457142D02*
X110752380Y-100838095D01*
X111133333Y-101171428D01*
X111133333Y-101028571D01*
X111180952Y-100933333D01*
X111228571Y-100885714D01*
X111323809Y-100838095D01*
X111561904Y-100838095D01*
X111657142Y-100885714D01*
X111704761Y-100933333D01*
X111752380Y-101028571D01*
X111752380Y-101314285D01*
X111704761Y-101409523D01*
X111657142Y-101457142D01*
X110752380Y-100504761D02*
X110752380Y-99885714D01*
X111133333Y-100219047D01*
X111133333Y-100076190D01*
X111180952Y-99980952D01*
X111228571Y-99933333D01*
X111323809Y-99885714D01*
X111561904Y-99885714D01*
X111657142Y-99933333D01*
X111704761Y-99980952D01*
X111752380Y-100076190D01*
X111752380Y-100361904D01*
X111704761Y-100457142D01*
X111657142Y-100504761D01*
D12*
X106190476Y-103661904D02*
X106190476Y-104309523D01*
X106228571Y-104385714D01*
X106266666Y-104423809D01*
X106342857Y-104461904D01*
X106495238Y-104461904D01*
X106571428Y-104423809D01*
X106609523Y-104385714D01*
X106647619Y-104309523D01*
X106647619Y-103661904D01*
X106990476Y-103738095D02*
X107028571Y-103700000D01*
X107104761Y-103661904D01*
X107295238Y-103661904D01*
X107371428Y-103700000D01*
X107409523Y-103738095D01*
X107447619Y-103814285D01*
X107447619Y-103890476D01*
X107409523Y-104004761D01*
X106952380Y-104461904D01*
X107447619Y-104461904D01*
D11*
X127871428Y-63307380D02*
X127300000Y-63307380D01*
X127585714Y-63307380D02*
X127585714Y-62307380D01*
X127490476Y-62450238D01*
X127395238Y-62545476D01*
X127300000Y-62593095D01*
X128490476Y-62307380D02*
X128585714Y-62307380D01*
X128680952Y-62355000D01*
X128728571Y-62402619D01*
X128776190Y-62497857D01*
X128823809Y-62688333D01*
X128823809Y-62926428D01*
X128776190Y-63116904D01*
X128728571Y-63212142D01*
X128680952Y-63259761D01*
X128585714Y-63307380D01*
X128490476Y-63307380D01*
X128395238Y-63259761D01*
X128347619Y-63212142D01*
X128300000Y-63116904D01*
X128252380Y-62926428D01*
X128252380Y-62688333D01*
X128300000Y-62497857D01*
X128347619Y-62402619D01*
X128395238Y-62355000D01*
X128490476Y-62307380D01*
X129680952Y-62640714D02*
X129680952Y-63307380D01*
X129252380Y-62640714D02*
X129252380Y-63164523D01*
X129300000Y-63259761D01*
X129395238Y-63307380D01*
X129538095Y-63307380D01*
X129633333Y-63259761D01*
X129680952Y-63212142D01*
X130014285Y-62640714D02*
X130395238Y-62640714D01*
X130157142Y-63307380D02*
X130157142Y-62450238D01*
X130204761Y-62355000D01*
X130300000Y-62307380D01*
X130395238Y-62307380D01*
D13*
X128758333Y-64114285D02*
X128746428Y-64126190D01*
X128710714Y-64138095D01*
X128686904Y-64138095D01*
X128651190Y-64126190D01*
X128627380Y-64102380D01*
X128615476Y-64078571D01*
X128603571Y-64030952D01*
X128603571Y-63995238D01*
X128615476Y-63947619D01*
X128627380Y-63923809D01*
X128651190Y-63900000D01*
X128686904Y-63888095D01*
X128710714Y-63888095D01*
X128746428Y-63900000D01*
X128758333Y-63911904D01*
X128996428Y-64138095D02*
X128853571Y-64138095D01*
X128925000Y-64138095D02*
X128925000Y-63888095D01*
X128901190Y-63923809D01*
X128877380Y-63947619D01*
X128853571Y-63959523D01*
D11*
X127300000Y-60532380D02*
X127395238Y-60532380D01*
X127490476Y-60580000D01*
X127538095Y-60627619D01*
X127585714Y-60722857D01*
X127633333Y-60913333D01*
X127633333Y-61151428D01*
X127585714Y-61341904D01*
X127538095Y-61437142D01*
X127490476Y-61484761D01*
X127395238Y-61532380D01*
X127300000Y-61532380D01*
X127204761Y-61484761D01*
X127157142Y-61437142D01*
X127109523Y-61341904D01*
X127061904Y-61151428D01*
X127061904Y-60913333D01*
X127109523Y-60722857D01*
X127157142Y-60627619D01*
X127204761Y-60580000D01*
X127300000Y-60532380D01*
X128061904Y-61437142D02*
X128109523Y-61484761D01*
X128061904Y-61532380D01*
X128014285Y-61484761D01*
X128061904Y-61437142D01*
X128061904Y-61532380D01*
X129061904Y-61532380D02*
X128490476Y-61532380D01*
X128776190Y-61532380D02*
X128776190Y-60532380D01*
X128680952Y-60675238D01*
X128585714Y-60770476D01*
X128490476Y-60818095D01*
X129919047Y-60865714D02*
X129919047Y-61532380D01*
X129490476Y-60865714D02*
X129490476Y-61389523D01*
X129538095Y-61484761D01*
X129633333Y-61532380D01*
X129776190Y-61532380D01*
X129871428Y-61484761D01*
X129919047Y-61437142D01*
X130252380Y-60865714D02*
X130633333Y-60865714D01*
X130395238Y-61532380D02*
X130395238Y-60675238D01*
X130442857Y-60580000D01*
X130538095Y-60532380D01*
X130633333Y-60532380D01*
D13*
X128758333Y-62339285D02*
X128746428Y-62351190D01*
X128710714Y-62363095D01*
X128686904Y-62363095D01*
X128651190Y-62351190D01*
X128627380Y-62327380D01*
X128615476Y-62303571D01*
X128603571Y-62255952D01*
X128603571Y-62220238D01*
X128615476Y-62172619D01*
X128627380Y-62148809D01*
X128651190Y-62125000D01*
X128686904Y-62113095D01*
X128710714Y-62113095D01*
X128746428Y-62125000D01*
X128758333Y-62136904D01*
X128853571Y-62136904D02*
X128865476Y-62125000D01*
X128889285Y-62113095D01*
X128948809Y-62113095D01*
X128972619Y-62125000D01*
X128984523Y-62136904D01*
X128996428Y-62160714D01*
X128996428Y-62184523D01*
X128984523Y-62220238D01*
X128841666Y-62363095D01*
X128996428Y-62363095D01*
D11*
X102925000Y-70447380D02*
X103020238Y-70447380D01*
X103115476Y-70495000D01*
X103163095Y-70542619D01*
X103210714Y-70637857D01*
X103258333Y-70828333D01*
X103258333Y-71066428D01*
X103210714Y-71256904D01*
X103163095Y-71352142D01*
X103115476Y-71399761D01*
X103020238Y-71447380D01*
X102925000Y-71447380D01*
X102829761Y-71399761D01*
X102782142Y-71352142D01*
X102734523Y-71256904D01*
X102686904Y-71066428D01*
X102686904Y-70828333D01*
X102734523Y-70637857D01*
X102782142Y-70542619D01*
X102829761Y-70495000D01*
X102925000Y-70447380D01*
X103686904Y-71352142D02*
X103734523Y-71399761D01*
X103686904Y-71447380D01*
X103639285Y-71399761D01*
X103686904Y-71352142D01*
X103686904Y-71447380D01*
X104686904Y-71447380D02*
X104115476Y-71447380D01*
X104401190Y-71447380D02*
X104401190Y-70447380D01*
X104305952Y-70590238D01*
X104210714Y-70685476D01*
X104115476Y-70733095D01*
X105544047Y-70780714D02*
X105544047Y-71447380D01*
X105115476Y-70780714D02*
X105115476Y-71304523D01*
X105163095Y-71399761D01*
X105258333Y-71447380D01*
X105401190Y-71447380D01*
X105496428Y-71399761D01*
X105544047Y-71352142D01*
X105877380Y-70780714D02*
X106258333Y-70780714D01*
X106020238Y-71447380D02*
X106020238Y-70590238D01*
X106067857Y-70495000D01*
X106163095Y-70447380D01*
X106258333Y-70447380D01*
D13*
X104383333Y-69914285D02*
X104371428Y-69926190D01*
X104335714Y-69938095D01*
X104311904Y-69938095D01*
X104276190Y-69926190D01*
X104252380Y-69902380D01*
X104240476Y-69878571D01*
X104228571Y-69830952D01*
X104228571Y-69795238D01*
X104240476Y-69747619D01*
X104252380Y-69723809D01*
X104276190Y-69700000D01*
X104311904Y-69688095D01*
X104335714Y-69688095D01*
X104371428Y-69700000D01*
X104383333Y-69711904D01*
X104466666Y-69688095D02*
X104621428Y-69688095D01*
X104538095Y-69783333D01*
X104573809Y-69783333D01*
X104597619Y-69795238D01*
X104609523Y-69807142D01*
X104621428Y-69830952D01*
X104621428Y-69890476D01*
X104609523Y-69914285D01*
X104597619Y-69926190D01*
X104573809Y-69938095D01*
X104502380Y-69938095D01*
X104478571Y-69926190D01*
X104466666Y-69914285D01*
D11*
X103446428Y-57932380D02*
X102875000Y-57932380D01*
X103160714Y-57932380D02*
X103160714Y-56932380D01*
X103065476Y-57075238D01*
X102970238Y-57170476D01*
X102875000Y-57218095D01*
X104065476Y-56932380D02*
X104160714Y-56932380D01*
X104255952Y-56980000D01*
X104303571Y-57027619D01*
X104351190Y-57122857D01*
X104398809Y-57313333D01*
X104398809Y-57551428D01*
X104351190Y-57741904D01*
X104303571Y-57837142D01*
X104255952Y-57884761D01*
X104160714Y-57932380D01*
X104065476Y-57932380D01*
X103970238Y-57884761D01*
X103922619Y-57837142D01*
X103875000Y-57741904D01*
X103827380Y-57551428D01*
X103827380Y-57313333D01*
X103875000Y-57122857D01*
X103922619Y-57027619D01*
X103970238Y-56980000D01*
X104065476Y-56932380D01*
X105255952Y-57265714D02*
X105255952Y-57932380D01*
X104827380Y-57265714D02*
X104827380Y-57789523D01*
X104875000Y-57884761D01*
X104970238Y-57932380D01*
X105113095Y-57932380D01*
X105208333Y-57884761D01*
X105255952Y-57837142D01*
X105589285Y-57265714D02*
X105970238Y-57265714D01*
X105732142Y-57932380D02*
X105732142Y-57075238D01*
X105779761Y-56980000D01*
X105875000Y-56932380D01*
X105970238Y-56932380D01*
D13*
X104333333Y-58739285D02*
X104321428Y-58751190D01*
X104285714Y-58763095D01*
X104261904Y-58763095D01*
X104226190Y-58751190D01*
X104202380Y-58727380D01*
X104190476Y-58703571D01*
X104178571Y-58655952D01*
X104178571Y-58620238D01*
X104190476Y-58572619D01*
X104202380Y-58548809D01*
X104226190Y-58525000D01*
X104261904Y-58513095D01*
X104285714Y-58513095D01*
X104321428Y-58525000D01*
X104333333Y-58536904D01*
X104547619Y-58596428D02*
X104547619Y-58763095D01*
X104488095Y-58501190D02*
X104428571Y-58679761D01*
X104583333Y-58679761D01*
D11*
X102875000Y-65197380D02*
X102970238Y-65197380D01*
X103065476Y-65245000D01*
X103113095Y-65292619D01*
X103160714Y-65387857D01*
X103208333Y-65578333D01*
X103208333Y-65816428D01*
X103160714Y-66006904D01*
X103113095Y-66102142D01*
X103065476Y-66149761D01*
X102970238Y-66197380D01*
X102875000Y-66197380D01*
X102779761Y-66149761D01*
X102732142Y-66102142D01*
X102684523Y-66006904D01*
X102636904Y-65816428D01*
X102636904Y-65578333D01*
X102684523Y-65387857D01*
X102732142Y-65292619D01*
X102779761Y-65245000D01*
X102875000Y-65197380D01*
X103636904Y-66102142D02*
X103684523Y-66149761D01*
X103636904Y-66197380D01*
X103589285Y-66149761D01*
X103636904Y-66102142D01*
X103636904Y-66197380D01*
X104636904Y-66197380D02*
X104065476Y-66197380D01*
X104351190Y-66197380D02*
X104351190Y-65197380D01*
X104255952Y-65340238D01*
X104160714Y-65435476D01*
X104065476Y-65483095D01*
X105494047Y-65530714D02*
X105494047Y-66197380D01*
X105065476Y-65530714D02*
X105065476Y-66054523D01*
X105113095Y-66149761D01*
X105208333Y-66197380D01*
X105351190Y-66197380D01*
X105446428Y-66149761D01*
X105494047Y-66102142D01*
X105827380Y-65530714D02*
X106208333Y-65530714D01*
X105970238Y-66197380D02*
X105970238Y-65340238D01*
X106017857Y-65245000D01*
X106113095Y-65197380D01*
X106208333Y-65197380D01*
D13*
X104333333Y-64664285D02*
X104321428Y-64676190D01*
X104285714Y-64688095D01*
X104261904Y-64688095D01*
X104226190Y-64676190D01*
X104202380Y-64652380D01*
X104190476Y-64628571D01*
X104178571Y-64580952D01*
X104178571Y-64545238D01*
X104190476Y-64497619D01*
X104202380Y-64473809D01*
X104226190Y-64450000D01*
X104261904Y-64438095D01*
X104285714Y-64438095D01*
X104321428Y-64450000D01*
X104333333Y-64461904D01*
X104559523Y-64438095D02*
X104440476Y-64438095D01*
X104428571Y-64557142D01*
X104440476Y-64545238D01*
X104464285Y-64533333D01*
X104523809Y-64533333D01*
X104547619Y-64545238D01*
X104559523Y-64557142D01*
X104571428Y-64580952D01*
X104571428Y-64640476D01*
X104559523Y-64664285D01*
X104547619Y-64676190D01*
X104523809Y-64688095D01*
X104464285Y-64688095D01*
X104440476Y-64676190D01*
X104428571Y-64664285D01*
D11*
X102875000Y-66972380D02*
X102970238Y-66972380D01*
X103065476Y-67020000D01*
X103113095Y-67067619D01*
X103160714Y-67162857D01*
X103208333Y-67353333D01*
X103208333Y-67591428D01*
X103160714Y-67781904D01*
X103113095Y-67877142D01*
X103065476Y-67924761D01*
X102970238Y-67972380D01*
X102875000Y-67972380D01*
X102779761Y-67924761D01*
X102732142Y-67877142D01*
X102684523Y-67781904D01*
X102636904Y-67591428D01*
X102636904Y-67353333D01*
X102684523Y-67162857D01*
X102732142Y-67067619D01*
X102779761Y-67020000D01*
X102875000Y-66972380D01*
X103636904Y-67877142D02*
X103684523Y-67924761D01*
X103636904Y-67972380D01*
X103589285Y-67924761D01*
X103636904Y-67877142D01*
X103636904Y-67972380D01*
X104636904Y-67972380D02*
X104065476Y-67972380D01*
X104351190Y-67972380D02*
X104351190Y-66972380D01*
X104255952Y-67115238D01*
X104160714Y-67210476D01*
X104065476Y-67258095D01*
X105494047Y-67305714D02*
X105494047Y-67972380D01*
X105065476Y-67305714D02*
X105065476Y-67829523D01*
X105113095Y-67924761D01*
X105208333Y-67972380D01*
X105351190Y-67972380D01*
X105446428Y-67924761D01*
X105494047Y-67877142D01*
X105827380Y-67305714D02*
X106208333Y-67305714D01*
X105970238Y-67972380D02*
X105970238Y-67115238D01*
X106017857Y-67020000D01*
X106113095Y-66972380D01*
X106208333Y-66972380D01*
D13*
X104333333Y-66439285D02*
X104321428Y-66451190D01*
X104285714Y-66463095D01*
X104261904Y-66463095D01*
X104226190Y-66451190D01*
X104202380Y-66427380D01*
X104190476Y-66403571D01*
X104178571Y-66355952D01*
X104178571Y-66320238D01*
X104190476Y-66272619D01*
X104202380Y-66248809D01*
X104226190Y-66225000D01*
X104261904Y-66213095D01*
X104285714Y-66213095D01*
X104321428Y-66225000D01*
X104333333Y-66236904D01*
X104547619Y-66213095D02*
X104500000Y-66213095D01*
X104476190Y-66225000D01*
X104464285Y-66236904D01*
X104440476Y-66272619D01*
X104428571Y-66320238D01*
X104428571Y-66415476D01*
X104440476Y-66439285D01*
X104452380Y-66451190D01*
X104476190Y-66463095D01*
X104523809Y-66463095D01*
X104547619Y-66451190D01*
X104559523Y-66439285D01*
X104571428Y-66415476D01*
X104571428Y-66355952D01*
X104559523Y-66332142D01*
X104547619Y-66320238D01*
X104523809Y-66308333D01*
X104476190Y-66308333D01*
X104452380Y-66320238D01*
X104440476Y-66332142D01*
X104428571Y-66355952D01*
D11*
X127250000Y-69407380D02*
X127345238Y-69407380D01*
X127440476Y-69455000D01*
X127488095Y-69502619D01*
X127535714Y-69597857D01*
X127583333Y-69788333D01*
X127583333Y-70026428D01*
X127535714Y-70216904D01*
X127488095Y-70312142D01*
X127440476Y-70359761D01*
X127345238Y-70407380D01*
X127250000Y-70407380D01*
X127154761Y-70359761D01*
X127107142Y-70312142D01*
X127059523Y-70216904D01*
X127011904Y-70026428D01*
X127011904Y-69788333D01*
X127059523Y-69597857D01*
X127107142Y-69502619D01*
X127154761Y-69455000D01*
X127250000Y-69407380D01*
X128011904Y-70312142D02*
X128059523Y-70359761D01*
X128011904Y-70407380D01*
X127964285Y-70359761D01*
X128011904Y-70312142D01*
X128011904Y-70407380D01*
X129011904Y-70407380D02*
X128440476Y-70407380D01*
X128726190Y-70407380D02*
X128726190Y-69407380D01*
X128630952Y-69550238D01*
X128535714Y-69645476D01*
X128440476Y-69693095D01*
X129869047Y-69740714D02*
X129869047Y-70407380D01*
X129440476Y-69740714D02*
X129440476Y-70264523D01*
X129488095Y-70359761D01*
X129583333Y-70407380D01*
X129726190Y-70407380D01*
X129821428Y-70359761D01*
X129869047Y-70312142D01*
X130202380Y-69740714D02*
X130583333Y-69740714D01*
X130345238Y-70407380D02*
X130345238Y-69550238D01*
X130392857Y-69455000D01*
X130488095Y-69407380D01*
X130583333Y-69407380D01*
D13*
X128708333Y-71214285D02*
X128696428Y-71226190D01*
X128660714Y-71238095D01*
X128636904Y-71238095D01*
X128601190Y-71226190D01*
X128577380Y-71202380D01*
X128565476Y-71178571D01*
X128553571Y-71130952D01*
X128553571Y-71095238D01*
X128565476Y-71047619D01*
X128577380Y-71023809D01*
X128601190Y-71000000D01*
X128636904Y-70988095D01*
X128660714Y-70988095D01*
X128696428Y-71000000D01*
X128708333Y-71011904D01*
X128791666Y-70988095D02*
X128958333Y-70988095D01*
X128851190Y-71238095D01*
D11*
X127846428Y-68632380D02*
X127275000Y-68632380D01*
X127560714Y-68632380D02*
X127560714Y-67632380D01*
X127465476Y-67775238D01*
X127370238Y-67870476D01*
X127275000Y-67918095D01*
X128465476Y-67632380D02*
X128560714Y-67632380D01*
X128655952Y-67680000D01*
X128703571Y-67727619D01*
X128751190Y-67822857D01*
X128798809Y-68013333D01*
X128798809Y-68251428D01*
X128751190Y-68441904D01*
X128703571Y-68537142D01*
X128655952Y-68584761D01*
X128560714Y-68632380D01*
X128465476Y-68632380D01*
X128370238Y-68584761D01*
X128322619Y-68537142D01*
X128275000Y-68441904D01*
X128227380Y-68251428D01*
X128227380Y-68013333D01*
X128275000Y-67822857D01*
X128322619Y-67727619D01*
X128370238Y-67680000D01*
X128465476Y-67632380D01*
X129655952Y-67965714D02*
X129655952Y-68632380D01*
X129227380Y-67965714D02*
X129227380Y-68489523D01*
X129275000Y-68584761D01*
X129370238Y-68632380D01*
X129513095Y-68632380D01*
X129608333Y-68584761D01*
X129655952Y-68537142D01*
X129989285Y-67965714D02*
X130370238Y-67965714D01*
X130132142Y-68632380D02*
X130132142Y-67775238D01*
X130179761Y-67680000D01*
X130275000Y-67632380D01*
X130370238Y-67632380D01*
D13*
X128733333Y-69439285D02*
X128721428Y-69451190D01*
X128685714Y-69463095D01*
X128661904Y-69463095D01*
X128626190Y-69451190D01*
X128602380Y-69427380D01*
X128590476Y-69403571D01*
X128578571Y-69355952D01*
X128578571Y-69320238D01*
X128590476Y-69272619D01*
X128602380Y-69248809D01*
X128626190Y-69225000D01*
X128661904Y-69213095D01*
X128685714Y-69213095D01*
X128721428Y-69225000D01*
X128733333Y-69236904D01*
X128876190Y-69320238D02*
X128852380Y-69308333D01*
X128840476Y-69296428D01*
X128828571Y-69272619D01*
X128828571Y-69260714D01*
X128840476Y-69236904D01*
X128852380Y-69225000D01*
X128876190Y-69213095D01*
X128923809Y-69213095D01*
X128947619Y-69225000D01*
X128959523Y-69236904D01*
X128971428Y-69260714D01*
X128971428Y-69272619D01*
X128959523Y-69296428D01*
X128947619Y-69308333D01*
X128923809Y-69320238D01*
X128876190Y-69320238D01*
X128852380Y-69332142D01*
X128840476Y-69344047D01*
X128828571Y-69367857D01*
X128828571Y-69415476D01*
X128840476Y-69439285D01*
X128852380Y-69451190D01*
X128876190Y-69463095D01*
X128923809Y-69463095D01*
X128947619Y-69451190D01*
X128959523Y-69439285D01*
X128971428Y-69415476D01*
X128971428Y-69367857D01*
X128959523Y-69344047D01*
X128947619Y-69332142D01*
X128923809Y-69320238D01*
D11*
X127871428Y-66907380D02*
X127300000Y-66907380D01*
X127585714Y-66907380D02*
X127585714Y-65907380D01*
X127490476Y-66050238D01*
X127395238Y-66145476D01*
X127300000Y-66193095D01*
X128490476Y-65907380D02*
X128585714Y-65907380D01*
X128680952Y-65955000D01*
X128728571Y-66002619D01*
X128776190Y-66097857D01*
X128823809Y-66288333D01*
X128823809Y-66526428D01*
X128776190Y-66716904D01*
X128728571Y-66812142D01*
X128680952Y-66859761D01*
X128585714Y-66907380D01*
X128490476Y-66907380D01*
X128395238Y-66859761D01*
X128347619Y-66812142D01*
X128300000Y-66716904D01*
X128252380Y-66526428D01*
X128252380Y-66288333D01*
X128300000Y-66097857D01*
X128347619Y-66002619D01*
X128395238Y-65955000D01*
X128490476Y-65907380D01*
X129680952Y-66240714D02*
X129680952Y-66907380D01*
X129252380Y-66240714D02*
X129252380Y-66764523D01*
X129300000Y-66859761D01*
X129395238Y-66907380D01*
X129538095Y-66907380D01*
X129633333Y-66859761D01*
X129680952Y-66812142D01*
X130014285Y-66240714D02*
X130395238Y-66240714D01*
X130157142Y-66907380D02*
X130157142Y-66050238D01*
X130204761Y-65955000D01*
X130300000Y-65907380D01*
X130395238Y-65907380D01*
D13*
X128758333Y-67714285D02*
X128746428Y-67726190D01*
X128710714Y-67738095D01*
X128686904Y-67738095D01*
X128651190Y-67726190D01*
X128627380Y-67702380D01*
X128615476Y-67678571D01*
X128603571Y-67630952D01*
X128603571Y-67595238D01*
X128615476Y-67547619D01*
X128627380Y-67523809D01*
X128651190Y-67500000D01*
X128686904Y-67488095D01*
X128710714Y-67488095D01*
X128746428Y-67500000D01*
X128758333Y-67511904D01*
X128877380Y-67738095D02*
X128925000Y-67738095D01*
X128948809Y-67726190D01*
X128960714Y-67714285D01*
X128984523Y-67678571D01*
X128996428Y-67630952D01*
X128996428Y-67535714D01*
X128984523Y-67511904D01*
X128972619Y-67500000D01*
X128948809Y-67488095D01*
X128901190Y-67488095D01*
X128877380Y-67500000D01*
X128865476Y-67511904D01*
X128853571Y-67535714D01*
X128853571Y-67595238D01*
X128865476Y-67619047D01*
X128877380Y-67630952D01*
X128901190Y-67642857D01*
X128948809Y-67642857D01*
X128972619Y-67630952D01*
X128984523Y-67619047D01*
X128996428Y-67595238D01*
D11*
X127871428Y-65107380D02*
X127300000Y-65107380D01*
X127585714Y-65107380D02*
X127585714Y-64107380D01*
X127490476Y-64250238D01*
X127395238Y-64345476D01*
X127300000Y-64393095D01*
X128490476Y-64107380D02*
X128585714Y-64107380D01*
X128680952Y-64155000D01*
X128728571Y-64202619D01*
X128776190Y-64297857D01*
X128823809Y-64488333D01*
X128823809Y-64726428D01*
X128776190Y-64916904D01*
X128728571Y-65012142D01*
X128680952Y-65059761D01*
X128585714Y-65107380D01*
X128490476Y-65107380D01*
X128395238Y-65059761D01*
X128347619Y-65012142D01*
X128300000Y-64916904D01*
X128252380Y-64726428D01*
X128252380Y-64488333D01*
X128300000Y-64297857D01*
X128347619Y-64202619D01*
X128395238Y-64155000D01*
X128490476Y-64107380D01*
X129680952Y-64440714D02*
X129680952Y-65107380D01*
X129252380Y-64440714D02*
X129252380Y-64964523D01*
X129300000Y-65059761D01*
X129395238Y-65107380D01*
X129538095Y-65107380D01*
X129633333Y-65059761D01*
X129680952Y-65012142D01*
X130014285Y-64440714D02*
X130395238Y-64440714D01*
X130157142Y-65107380D02*
X130157142Y-64250238D01*
X130204761Y-64155000D01*
X130300000Y-64107380D01*
X130395238Y-64107380D01*
D13*
X128639285Y-65914285D02*
X128627380Y-65926190D01*
X128591666Y-65938095D01*
X128567857Y-65938095D01*
X128532142Y-65926190D01*
X128508333Y-65902380D01*
X128496428Y-65878571D01*
X128484523Y-65830952D01*
X128484523Y-65795238D01*
X128496428Y-65747619D01*
X128508333Y-65723809D01*
X128532142Y-65700000D01*
X128567857Y-65688095D01*
X128591666Y-65688095D01*
X128627380Y-65700000D01*
X128639285Y-65711904D01*
X128877380Y-65938095D02*
X128734523Y-65938095D01*
X128805952Y-65938095D02*
X128805952Y-65688095D01*
X128782142Y-65723809D01*
X128758333Y-65747619D01*
X128734523Y-65759523D01*
X129032142Y-65688095D02*
X129055952Y-65688095D01*
X129079761Y-65700000D01*
X129091666Y-65711904D01*
X129103571Y-65735714D01*
X129115476Y-65783333D01*
X129115476Y-65842857D01*
X129103571Y-65890476D01*
X129091666Y-65914285D01*
X129079761Y-65926190D01*
X129055952Y-65938095D01*
X129032142Y-65938095D01*
X129008333Y-65926190D01*
X128996428Y-65914285D01*
X128984523Y-65890476D01*
X128972619Y-65842857D01*
X128972619Y-65783333D01*
X128984523Y-65735714D01*
X128996428Y-65711904D01*
X129008333Y-65700000D01*
X129032142Y-65688095D01*
D11*
X130632380Y-74236904D02*
X129632380Y-74236904D01*
X129632380Y-73998809D01*
X129680000Y-73855952D01*
X129775238Y-73760714D01*
X129870476Y-73713095D01*
X130060952Y-73665476D01*
X130203809Y-73665476D01*
X130394285Y-73713095D01*
X130489523Y-73760714D01*
X130584761Y-73855952D01*
X130632380Y-73998809D01*
X130632380Y-74236904D01*
D14*
X128930952Y-74270238D02*
X128530952Y-74270238D01*
X128530952Y-74175000D01*
X128550000Y-74117857D01*
X128588095Y-74079761D01*
X128626190Y-74060714D01*
X128702380Y-74041666D01*
X128759523Y-74041666D01*
X128835714Y-74060714D01*
X128873809Y-74079761D01*
X128911904Y-74117857D01*
X128930952Y-74175000D01*
X128930952Y-74270238D01*
X128569047Y-73889285D02*
X128550000Y-73870238D01*
X128530952Y-73832142D01*
X128530952Y-73736904D01*
X128550000Y-73698809D01*
X128569047Y-73679761D01*
X128607142Y-73660714D01*
X128645238Y-73660714D01*
X128702380Y-73679761D01*
X128930952Y-73908333D01*
X128930952Y-73660714D01*
D11*
X98216904Y-91932142D02*
X98169285Y-91979761D01*
X98026428Y-92027380D01*
X97931190Y-92027380D01*
X97788333Y-91979761D01*
X97693095Y-91884523D01*
X97645476Y-91789285D01*
X97597857Y-91598809D01*
X97597857Y-91455952D01*
X97645476Y-91265476D01*
X97693095Y-91170238D01*
X97788333Y-91075000D01*
X97931190Y-91027380D01*
X98026428Y-91027380D01*
X98169285Y-91075000D01*
X98216904Y-91122619D01*
X98788333Y-92027380D02*
X98693095Y-91979761D01*
X98645476Y-91932142D01*
X98597857Y-91836904D01*
X98597857Y-91551190D01*
X98645476Y-91455952D01*
X98693095Y-91408333D01*
X98788333Y-91360714D01*
X98931190Y-91360714D01*
X99026428Y-91408333D01*
X99074047Y-91455952D01*
X99121666Y-91551190D01*
X99121666Y-91836904D01*
X99074047Y-91932142D01*
X99026428Y-91979761D01*
X98931190Y-92027380D01*
X98788333Y-92027380D01*
X99550238Y-91360714D02*
X99550238Y-92027380D01*
X99550238Y-91455952D02*
X99597857Y-91408333D01*
X99693095Y-91360714D01*
X99835952Y-91360714D01*
X99931190Y-91408333D01*
X99978809Y-91503571D01*
X99978809Y-92027380D01*
X100455000Y-91360714D02*
X100455000Y-92027380D01*
X100455000Y-91455952D02*
X100502619Y-91408333D01*
X100597857Y-91360714D01*
X100740714Y-91360714D01*
X100835952Y-91408333D01*
X100883571Y-91503571D01*
X100883571Y-92027380D01*
X101121666Y-92122619D02*
X101883571Y-92122619D01*
X102312142Y-91027380D02*
X102407380Y-91027380D01*
X102502619Y-91075000D01*
X102550238Y-91122619D01*
X102597857Y-91217857D01*
X102645476Y-91408333D01*
X102645476Y-91646428D01*
X102597857Y-91836904D01*
X102550238Y-91932142D01*
X102502619Y-91979761D01*
X102407380Y-92027380D01*
X102312142Y-92027380D01*
X102216904Y-91979761D01*
X102169285Y-91932142D01*
X102121666Y-91836904D01*
X102074047Y-91646428D01*
X102074047Y-91408333D01*
X102121666Y-91217857D01*
X102169285Y-91122619D01*
X102216904Y-91075000D01*
X102312142Y-91027380D01*
X103597857Y-92027380D02*
X103026428Y-92027380D01*
X103312142Y-92027380D02*
X103312142Y-91027380D01*
X103216904Y-91170238D01*
X103121666Y-91265476D01*
X103026428Y-91313095D01*
X103931190Y-92027380D02*
X104455000Y-91360714D01*
X103931190Y-91360714D02*
X104455000Y-92027380D01*
X105026428Y-91027380D02*
X105121666Y-91027380D01*
X105216904Y-91075000D01*
X105264523Y-91122619D01*
X105312142Y-91217857D01*
X105359761Y-91408333D01*
X105359761Y-91646428D01*
X105312142Y-91836904D01*
X105264523Y-91932142D01*
X105216904Y-91979761D01*
X105121666Y-92027380D01*
X105026428Y-92027380D01*
X104931190Y-91979761D01*
X104883571Y-91932142D01*
X104835952Y-91836904D01*
X104788333Y-91646428D01*
X104788333Y-91408333D01*
X104835952Y-91217857D01*
X104883571Y-91122619D01*
X104931190Y-91075000D01*
X105026428Y-91027380D01*
X106216904Y-91360714D02*
X106216904Y-92027380D01*
X105978809Y-90979761D02*
X105740714Y-91694047D01*
X106359761Y-91694047D01*
X109177380Y-85268333D02*
X109891666Y-85268333D01*
X110034523Y-85315952D01*
X110129761Y-85411190D01*
X110177380Y-85554047D01*
X110177380Y-85649285D01*
X109272619Y-84839761D02*
X109225000Y-84792142D01*
X109177380Y-84696904D01*
X109177380Y-84458809D01*
X109225000Y-84363571D01*
X109272619Y-84315952D01*
X109367857Y-84268333D01*
X109463095Y-84268333D01*
X109605952Y-84315952D01*
X110177380Y-84887380D01*
X110177380Y-84268333D01*
X130657380Y-77640476D02*
X130657380Y-78116666D01*
X129657380Y-78116666D01*
D14*
X128955952Y-78016666D02*
X128955952Y-78207142D01*
X128555952Y-78207142D01*
X128955952Y-77673809D02*
X128955952Y-77902380D01*
X128955952Y-77788095D02*
X128555952Y-77788095D01*
X128613095Y-77826190D01*
X128651190Y-77864285D01*
X128670238Y-77902380D01*
D11*
X103829761Y-67382380D02*
X103258333Y-67382380D01*
X103544047Y-67382380D02*
X103544047Y-66382380D01*
X103448809Y-66525238D01*
X103353571Y-66620476D01*
X103258333Y-66668095D01*
X104448809Y-66382380D02*
X104544047Y-66382380D01*
X104639285Y-66430000D01*
X104686904Y-66477619D01*
X104734523Y-66572857D01*
X104782142Y-66763333D01*
X104782142Y-67001428D01*
X104734523Y-67191904D01*
X104686904Y-67287142D01*
X104639285Y-67334761D01*
X104544047Y-67382380D01*
X104448809Y-67382380D01*
X104353571Y-67334761D01*
X104305952Y-67287142D01*
X104258333Y-67191904D01*
X104210714Y-67001428D01*
X104210714Y-66763333D01*
X104258333Y-66572857D01*
X104305952Y-66477619D01*
X104353571Y-66430000D01*
X104448809Y-66382380D01*
X105210714Y-67382380D02*
X105210714Y-66382380D01*
X105305952Y-67001428D02*
X105591666Y-67382380D01*
X105591666Y-66715714D02*
X105210714Y-67096666D01*
D13*
X104383333Y-68213095D02*
X104300000Y-68094047D01*
X104240476Y-68213095D02*
X104240476Y-67963095D01*
X104335714Y-67963095D01*
X104359523Y-67975000D01*
X104371428Y-67986904D01*
X104383333Y-68010714D01*
X104383333Y-68046428D01*
X104371428Y-68070238D01*
X104359523Y-68082142D01*
X104335714Y-68094047D01*
X104240476Y-68094047D01*
X104621428Y-68213095D02*
X104478571Y-68213095D01*
X104550000Y-68213095D02*
X104550000Y-67963095D01*
X104526190Y-67998809D01*
X104502380Y-68022619D01*
X104478571Y-68034523D01*
D11*
X127514285Y-58707380D02*
X128133333Y-58707380D01*
X127800000Y-59088333D01*
X127942857Y-59088333D01*
X128038095Y-59135952D01*
X128085714Y-59183571D01*
X128133333Y-59278809D01*
X128133333Y-59516904D01*
X128085714Y-59612142D01*
X128038095Y-59659761D01*
X127942857Y-59707380D01*
X127657142Y-59707380D01*
X127561904Y-59659761D01*
X127514285Y-59612142D01*
X128466666Y-58707380D02*
X129085714Y-58707380D01*
X128752380Y-59088333D01*
X128895238Y-59088333D01*
X128990476Y-59135952D01*
X129038095Y-59183571D01*
X129085714Y-59278809D01*
X129085714Y-59516904D01*
X129038095Y-59612142D01*
X128990476Y-59659761D01*
X128895238Y-59707380D01*
X128609523Y-59707380D01*
X128514285Y-59659761D01*
X128466666Y-59612142D01*
X129704761Y-58707380D02*
X129800000Y-58707380D01*
X129895238Y-58755000D01*
X129942857Y-58802619D01*
X129990476Y-58897857D01*
X130038095Y-59088333D01*
X130038095Y-59326428D01*
X129990476Y-59516904D01*
X129942857Y-59612142D01*
X129895238Y-59659761D01*
X129800000Y-59707380D01*
X129704761Y-59707380D01*
X129609523Y-59659761D01*
X129561904Y-59612142D01*
X129514285Y-59516904D01*
X129466666Y-59326428D01*
X129466666Y-59088333D01*
X129514285Y-58897857D01*
X129561904Y-58802619D01*
X129609523Y-58755000D01*
X129704761Y-58707380D01*
D13*
X128758333Y-60538095D02*
X128675000Y-60419047D01*
X128615476Y-60538095D02*
X128615476Y-60288095D01*
X128710714Y-60288095D01*
X128734523Y-60300000D01*
X128746428Y-60311904D01*
X128758333Y-60335714D01*
X128758333Y-60371428D01*
X128746428Y-60395238D01*
X128734523Y-60407142D01*
X128710714Y-60419047D01*
X128615476Y-60419047D01*
X128853571Y-60311904D02*
X128865476Y-60300000D01*
X128889285Y-60288095D01*
X128948809Y-60288095D01*
X128972619Y-60300000D01*
X128984523Y-60311904D01*
X128996428Y-60335714D01*
X128996428Y-60359523D01*
X128984523Y-60395238D01*
X128841666Y-60538095D01*
X128996428Y-60538095D01*
D11*
X109062190Y-77976571D02*
X109395523Y-77976571D01*
X109538380Y-78500380D02*
X109062190Y-78500380D01*
X109062190Y-77500380D01*
X109538380Y-77500380D01*
X109919333Y-78452761D02*
X110062190Y-78500380D01*
X110300285Y-78500380D01*
X110395523Y-78452761D01*
X110443142Y-78405142D01*
X110490761Y-78309904D01*
X110490761Y-78214666D01*
X110443142Y-78119428D01*
X110395523Y-78071809D01*
X110300285Y-78024190D01*
X110109809Y-77976571D01*
X110014571Y-77928952D01*
X109966952Y-77881333D01*
X109919333Y-77786095D01*
X109919333Y-77690857D01*
X109966952Y-77595619D01*
X110014571Y-77548000D01*
X110109809Y-77500380D01*
X110347904Y-77500380D01*
X110490761Y-77548000D01*
X110919333Y-78500380D02*
X110919333Y-77500380D01*
X111300285Y-77500380D01*
X111395523Y-77548000D01*
X111443142Y-77595619D01*
X111490761Y-77690857D01*
X111490761Y-77833714D01*
X111443142Y-77928952D01*
X111395523Y-77976571D01*
X111300285Y-78024190D01*
X110919333Y-78024190D01*
X111824095Y-77500380D02*
X112443142Y-77500380D01*
X112109809Y-77881333D01*
X112252666Y-77881333D01*
X112347904Y-77928952D01*
X112395523Y-77976571D01*
X112443142Y-78071809D01*
X112443142Y-78309904D01*
X112395523Y-78405142D01*
X112347904Y-78452761D01*
X112252666Y-78500380D01*
X111966952Y-78500380D01*
X111871714Y-78452761D01*
X111824095Y-78405142D01*
X112824095Y-77595619D02*
X112871714Y-77548000D01*
X112966952Y-77500380D01*
X113205047Y-77500380D01*
X113300285Y-77548000D01*
X113347904Y-77595619D01*
X113395523Y-77690857D01*
X113395523Y-77786095D01*
X113347904Y-77928952D01*
X112776476Y-78500380D01*
X113395523Y-78500380D01*
X113824095Y-78119428D02*
X114586000Y-78119428D01*
X114966952Y-77500380D02*
X115205047Y-78500380D01*
X115395523Y-77786095D01*
X115586000Y-78500380D01*
X115824095Y-77500380D01*
X116776476Y-78500380D02*
X116443142Y-78024190D01*
X116205047Y-78500380D02*
X116205047Y-77500380D01*
X116586000Y-77500380D01*
X116681238Y-77548000D01*
X116728857Y-77595619D01*
X116776476Y-77690857D01*
X116776476Y-77833714D01*
X116728857Y-77928952D01*
X116681238Y-77976571D01*
X116586000Y-78024190D01*
X116205047Y-78024190D01*
X117395523Y-77500380D02*
X117586000Y-77500380D01*
X117681238Y-77548000D01*
X117776476Y-77643238D01*
X117824095Y-77833714D01*
X117824095Y-78167047D01*
X117776476Y-78357523D01*
X117681238Y-78452761D01*
X117586000Y-78500380D01*
X117395523Y-78500380D01*
X117300285Y-78452761D01*
X117205047Y-78357523D01*
X117157428Y-78167047D01*
X117157428Y-77833714D01*
X117205047Y-77643238D01*
X117300285Y-77548000D01*
X117395523Y-77500380D01*
X118443142Y-77500380D02*
X118633619Y-77500380D01*
X118728857Y-77548000D01*
X118824095Y-77643238D01*
X118871714Y-77833714D01*
X118871714Y-78167047D01*
X118824095Y-78357523D01*
X118728857Y-78452761D01*
X118633619Y-78500380D01*
X118443142Y-78500380D01*
X118347904Y-78452761D01*
X118252666Y-78357523D01*
X118205047Y-78167047D01*
X118205047Y-77833714D01*
X118252666Y-77643238D01*
X118347904Y-77548000D01*
X118443142Y-77500380D01*
X119300285Y-78500380D02*
X119300285Y-77500380D01*
X119633619Y-78214666D01*
X119966952Y-77500380D01*
X119966952Y-78500380D01*
X120443142Y-78119428D02*
X121205047Y-78119428D01*
X121586000Y-77500380D02*
X122205047Y-77500380D01*
X121871714Y-77881333D01*
X122014571Y-77881333D01*
X122109809Y-77928952D01*
X122157428Y-77976571D01*
X122205047Y-78071809D01*
X122205047Y-78309904D01*
X122157428Y-78405142D01*
X122109809Y-78452761D01*
X122014571Y-78500380D01*
X121728857Y-78500380D01*
X121633619Y-78452761D01*
X121586000Y-78405142D01*
X122586000Y-77595619D02*
X122633619Y-77548000D01*
X122728857Y-77500380D01*
X122966952Y-77500380D01*
X123062190Y-77548000D01*
X123109809Y-77595619D01*
X123157428Y-77690857D01*
X123157428Y-77786095D01*
X123109809Y-77928952D01*
X122538380Y-78500380D01*
X123157428Y-78500380D01*
X123586000Y-78500380D02*
X123586000Y-77500380D01*
X123824095Y-77500380D01*
X123966952Y-77548000D01*
X124062190Y-77643238D01*
X124109809Y-77738476D01*
X124157428Y-77928952D01*
X124157428Y-78071809D01*
X124109809Y-78262285D01*
X124062190Y-78357523D01*
X123966952Y-78452761D01*
X123824095Y-78500380D01*
X123586000Y-78500380D01*
X115824095Y-66000380D02*
X115824095Y-66809904D01*
X115871714Y-66905142D01*
X115919333Y-66952761D01*
X116014571Y-67000380D01*
X116205047Y-67000380D01*
X116300285Y-66952761D01*
X116347904Y-66905142D01*
X116395523Y-66809904D01*
X116395523Y-66000380D01*
X117395523Y-67000380D02*
X116824095Y-67000380D01*
X117109809Y-67000380D02*
X117109809Y-66000380D01*
X117014571Y-66143238D01*
X116919333Y-66238476D01*
X116824095Y-66286095D01*
X131166666Y-108289285D02*
X131166666Y-107813095D01*
X131452380Y-108384523D02*
X130452380Y-108051190D01*
X131452380Y-107717857D01*
X131452380Y-107384523D02*
X130452380Y-107384523D01*
X130452380Y-107003571D01*
X130500000Y-106908333D01*
X130547619Y-106860714D01*
X130642857Y-106813095D01*
X130785714Y-106813095D01*
X130880952Y-106860714D01*
X130928571Y-106908333D01*
X130976190Y-107003571D01*
X130976190Y-107384523D01*
X131452380Y-105860714D02*
X131452380Y-106432142D01*
X131452380Y-106146428D02*
X130452380Y-106146428D01*
X130595238Y-106241666D01*
X130690476Y-106336904D01*
X130738095Y-106432142D01*
X131452380Y-104908333D02*
X131452380Y-105479761D01*
X131452380Y-105194047D02*
X130452380Y-105194047D01*
X130595238Y-105289285D01*
X130690476Y-105384523D01*
X130738095Y-105479761D01*
X131452380Y-103955952D02*
X131452380Y-104527380D01*
X131452380Y-104241666D02*
X130452380Y-104241666D01*
X130595238Y-104336904D01*
X130690476Y-104432142D01*
X130738095Y-104527380D01*
X130452380Y-103622619D02*
X130452380Y-102955952D01*
X131452380Y-103384523D01*
X131071428Y-102575000D02*
X131071428Y-101813095D01*
X130452380Y-101432142D02*
X130452380Y-100813095D01*
X130833333Y-101146428D01*
X130833333Y-101003571D01*
X130880952Y-100908333D01*
X130928571Y-100860714D01*
X131023809Y-100813095D01*
X131261904Y-100813095D01*
X131357142Y-100860714D01*
X131404761Y-100908333D01*
X131452380Y-101003571D01*
X131452380Y-101289285D01*
X131404761Y-101384523D01*
X131357142Y-101432142D01*
X130452380Y-100479761D02*
X130452380Y-99860714D01*
X130833333Y-100194047D01*
X130833333Y-100051190D01*
X130880952Y-99955952D01*
X130928571Y-99908333D01*
X131023809Y-99860714D01*
X131261904Y-99860714D01*
X131357142Y-99908333D01*
X131404761Y-99955952D01*
X131452380Y-100051190D01*
X131452380Y-100336904D01*
X131404761Y-100432142D01*
X131357142Y-100479761D01*
D12*
X125890476Y-103636904D02*
X125890476Y-104284523D01*
X125928571Y-104360714D01*
X125966666Y-104398809D01*
X126042857Y-104436904D01*
X126195238Y-104436904D01*
X126271428Y-104398809D01*
X126309523Y-104360714D01*
X126347619Y-104284523D01*
X126347619Y-103636904D01*
X126652380Y-103636904D02*
X127147619Y-103636904D01*
X126880952Y-103941666D01*
X126995238Y-103941666D01*
X127071428Y-103979761D01*
X127109523Y-104017857D01*
X127147619Y-104094047D01*
X127147619Y-104284523D01*
X127109523Y-104360714D01*
X127071428Y-104398809D01*
X126995238Y-104436904D01*
X126766666Y-104436904D01*
X126690476Y-104398809D01*
X126652380Y-104360714D01*
D11*
X99489880Y-96873809D02*
X100299404Y-96873809D01*
X100394642Y-96826190D01*
X100442261Y-96778571D01*
X100489880Y-96683333D01*
X100489880Y-96492857D01*
X100442261Y-96397619D01*
X100394642Y-96350000D01*
X100299404Y-96302380D01*
X99489880Y-96302380D01*
X100442261Y-95873809D02*
X100489880Y-95730952D01*
X100489880Y-95492857D01*
X100442261Y-95397619D01*
X100394642Y-95350000D01*
X100299404Y-95302380D01*
X100204166Y-95302380D01*
X100108928Y-95350000D01*
X100061309Y-95397619D01*
X100013690Y-95492857D01*
X99966071Y-95683333D01*
X99918452Y-95778571D01*
X99870833Y-95826190D01*
X99775595Y-95873809D01*
X99680357Y-95873809D01*
X99585119Y-95826190D01*
X99537500Y-95778571D01*
X99489880Y-95683333D01*
X99489880Y-95445238D01*
X99537500Y-95302380D01*
X99966071Y-94540476D02*
X100013690Y-94397619D01*
X100061309Y-94350000D01*
X100156547Y-94302380D01*
X100299404Y-94302380D01*
X100394642Y-94350000D01*
X100442261Y-94397619D01*
X100489880Y-94492857D01*
X100489880Y-94873809D01*
X99489880Y-94873809D01*
X99489880Y-94540476D01*
X99537500Y-94445238D01*
X99585119Y-94397619D01*
X99680357Y-94350000D01*
X99775595Y-94350000D01*
X99870833Y-94397619D01*
X99918452Y-94445238D01*
X99966071Y-94540476D01*
X99966071Y-94873809D01*
X100585119Y-94111904D02*
X100585119Y-93350000D01*
X99966071Y-92778571D02*
X100013690Y-92635714D01*
X100061309Y-92588095D01*
X100156547Y-92540476D01*
X100299404Y-92540476D01*
X100394642Y-92588095D01*
X100442261Y-92635714D01*
X100489880Y-92730952D01*
X100489880Y-93111904D01*
X99489880Y-93111904D01*
X99489880Y-92778571D01*
X99537500Y-92683333D01*
X99585119Y-92635714D01*
X99680357Y-92588095D01*
X99775595Y-92588095D01*
X99870833Y-92635714D01*
X99918452Y-92683333D01*
X99966071Y-92778571D01*
X99966071Y-93111904D01*
X100585119Y-92350000D02*
X100585119Y-91588095D01*
X100489880Y-91350000D02*
X99489880Y-91350000D01*
X100204166Y-91016666D01*
X99489880Y-90683333D01*
X100489880Y-90683333D01*
X100489880Y-90207142D02*
X99823214Y-90207142D01*
X99489880Y-90207142D02*
X99537500Y-90254761D01*
X99585119Y-90207142D01*
X99537500Y-90159523D01*
X99489880Y-90207142D01*
X99585119Y-90207142D01*
X100442261Y-89302380D02*
X100489880Y-89397619D01*
X100489880Y-89588095D01*
X100442261Y-89683333D01*
X100394642Y-89730952D01*
X100299404Y-89778571D01*
X100013690Y-89778571D01*
X99918452Y-89730952D01*
X99870833Y-89683333D01*
X99823214Y-89588095D01*
X99823214Y-89397619D01*
X99870833Y-89302380D01*
X100489880Y-88873809D02*
X99823214Y-88873809D01*
X100013690Y-88873809D02*
X99918452Y-88826190D01*
X99870833Y-88778571D01*
X99823214Y-88683333D01*
X99823214Y-88588095D01*
X100489880Y-88111904D02*
X100442261Y-88207142D01*
X100394642Y-88254761D01*
X100299404Y-88302380D01*
X100013690Y-88302380D01*
X99918452Y-88254761D01*
X99870833Y-88207142D01*
X99823214Y-88111904D01*
X99823214Y-87969047D01*
X99870833Y-87873809D01*
X99918452Y-87826190D01*
X100013690Y-87778571D01*
X100299404Y-87778571D01*
X100394642Y-87826190D01*
X100442261Y-87873809D01*
X100489880Y-87969047D01*
X100489880Y-88111904D01*
X103939880Y-93859523D02*
X102939880Y-93859523D01*
X102939880Y-93478571D01*
X102987500Y-93383333D01*
X103035119Y-93335714D01*
X103130357Y-93288095D01*
X103273214Y-93288095D01*
X103368452Y-93335714D01*
X103416071Y-93383333D01*
X103463690Y-93478571D01*
X103463690Y-93859523D01*
X102939880Y-92954761D02*
X103939880Y-92716666D01*
X103225595Y-92526190D01*
X103939880Y-92335714D01*
X102939880Y-92097619D01*
X103939880Y-91145238D02*
X103463690Y-91478571D01*
X103939880Y-91716666D02*
X102939880Y-91716666D01*
X102939880Y-91335714D01*
X102987500Y-91240476D01*
X103035119Y-91192857D01*
X103130357Y-91145238D01*
X103273214Y-91145238D01*
X103368452Y-91192857D01*
X103416071Y-91240476D01*
X103463690Y-91335714D01*
X103463690Y-91716666D01*
X102939880Y-90811904D02*
X102939880Y-90192857D01*
X103320833Y-90526190D01*
X103320833Y-90383333D01*
X103368452Y-90288095D01*
X103416071Y-90240476D01*
X103511309Y-90192857D01*
X103749404Y-90192857D01*
X103844642Y-90240476D01*
X103892261Y-90288095D01*
X103939880Y-90383333D01*
X103939880Y-90669047D01*
X103892261Y-90764285D01*
X103844642Y-90811904D01*
M02*
