G04 #@! TF.GenerationSoftware,KiCad,Pcbnew,(5.1.4)-1*
G04 #@! TF.CreationDate,2020-06-29T21:22:15+08:00*
G04 #@! TF.ProjectId,esp-break,6573702d-6272-4656-916b-2e6b69636164,rev?*
G04 #@! TF.SameCoordinates,Original*
G04 #@! TF.FileFunction,Soldermask,Bot*
G04 #@! TF.FilePolarity,Negative*
%FSLAX46Y46*%
G04 Gerber Fmt 4.6, Leading zero omitted, Abs format (unit mm)*
G04 Created by KiCad (PCBNEW (5.1.4)-1) date 2020-06-29 21:22:15*
%MOMM*%
%LPD*%
G04 APERTURE LIST*
%ADD10C,0.010000*%
%ADD11C,0.100000*%
G04 APERTURE END LIST*
D10*
G36*
X113418872Y-113950682D02*
G01*
X113357825Y-113971234D01*
X113311948Y-114010702D01*
X113282965Y-114063189D01*
X113272599Y-114122798D01*
X113282574Y-114183631D01*
X113314613Y-114239792D01*
X113329717Y-114255730D01*
X113376603Y-114282950D01*
X113435628Y-114294715D01*
X113494460Y-114289626D01*
X113524683Y-114277819D01*
X113569303Y-114237487D01*
X113597730Y-114179668D01*
X113606000Y-114122722D01*
X113521333Y-114122722D01*
X113510641Y-114166625D01*
X113483447Y-114197831D01*
X113447078Y-114212511D01*
X113408858Y-114206836D01*
X113388285Y-114192270D01*
X113366547Y-114154200D01*
X113364692Y-114110795D01*
X113379811Y-114070310D01*
X113408996Y-114041000D01*
X113445109Y-114031000D01*
X113478926Y-114043478D01*
X113506838Y-114074529D01*
X113520887Y-114114578D01*
X113521333Y-114122722D01*
X113606000Y-114122722D01*
X113594179Y-114053654D01*
X113561388Y-113999229D01*
X113511632Y-113963131D01*
X113448918Y-113949043D01*
X113418872Y-113950682D01*
X113418872Y-113950682D01*
G37*
X113418872Y-113950682D02*
X113357825Y-113971234D01*
X113311948Y-114010702D01*
X113282965Y-114063189D01*
X113272599Y-114122798D01*
X113282574Y-114183631D01*
X113314613Y-114239792D01*
X113329717Y-114255730D01*
X113376603Y-114282950D01*
X113435628Y-114294715D01*
X113494460Y-114289626D01*
X113524683Y-114277819D01*
X113569303Y-114237487D01*
X113597730Y-114179668D01*
X113606000Y-114122722D01*
X113521333Y-114122722D01*
X113510641Y-114166625D01*
X113483447Y-114197831D01*
X113447078Y-114212511D01*
X113408858Y-114206836D01*
X113388285Y-114192270D01*
X113366547Y-114154200D01*
X113364692Y-114110795D01*
X113379811Y-114070310D01*
X113408996Y-114041000D01*
X113445109Y-114031000D01*
X113478926Y-114043478D01*
X113506838Y-114074529D01*
X113520887Y-114114578D01*
X113521333Y-114122722D01*
X113606000Y-114122722D01*
X113594179Y-114053654D01*
X113561388Y-113999229D01*
X113511632Y-113963131D01*
X113448918Y-113949043D01*
X113418872Y-113950682D01*
G36*
X113679985Y-113830096D02*
G01*
X113670259Y-113851767D01*
X113669500Y-113868722D01*
X113674808Y-113901090D01*
X113693958Y-113914356D01*
X113698957Y-113915264D01*
X113730961Y-113909479D01*
X113745984Y-113898303D01*
X113758691Y-113866430D01*
X113749378Y-113838031D01*
X113722811Y-113822451D01*
X113707094Y-113822041D01*
X113679985Y-113830096D01*
X113679985Y-113830096D01*
G37*
X113679985Y-113830096D02*
X113670259Y-113851767D01*
X113669500Y-113868722D01*
X113674808Y-113901090D01*
X113693958Y-113914356D01*
X113698957Y-113915264D01*
X113730961Y-113909479D01*
X113745984Y-113898303D01*
X113758691Y-113866430D01*
X113749378Y-113838031D01*
X113722811Y-113822451D01*
X113707094Y-113822041D01*
X113679985Y-113830096D01*
G36*
X113662444Y-114285000D02*
G01*
X113747111Y-114285000D01*
X113747111Y-113946334D01*
X113662444Y-113946334D01*
X113662444Y-114285000D01*
X113662444Y-114285000D01*
G37*
X113662444Y-114285000D02*
X113747111Y-114285000D01*
X113747111Y-113946334D01*
X113662444Y-113946334D01*
X113662444Y-114285000D01*
G36*
X113825702Y-114208425D02*
G01*
X113806145Y-114241744D01*
X113809764Y-114271721D01*
X113831711Y-114291675D01*
X113867140Y-114294920D01*
X113884694Y-114289766D01*
X113899922Y-114270886D01*
X113900665Y-114240955D01*
X113888253Y-114212294D01*
X113875091Y-114200858D01*
X113846669Y-114194701D01*
X113825702Y-114208425D01*
X113825702Y-114208425D01*
G37*
X113825702Y-114208425D02*
X113806145Y-114241744D01*
X113809764Y-114271721D01*
X113831711Y-114291675D01*
X113867140Y-114294920D01*
X113884694Y-114289766D01*
X113899922Y-114270886D01*
X113900665Y-114240955D01*
X113888253Y-114212294D01*
X113875091Y-114200858D01*
X113846669Y-114194701D01*
X113825702Y-114208425D01*
G36*
X114045639Y-113876148D02*
G01*
X114043445Y-113908635D01*
X114043444Y-113910118D01*
X114041195Y-113943711D01*
X114029686Y-113957655D01*
X114001770Y-113960444D01*
X114001111Y-113960445D01*
X113970856Y-113964241D01*
X113959788Y-113980381D01*
X113958777Y-113995722D01*
X113963236Y-114020793D01*
X113982305Y-114030081D01*
X114001784Y-114031000D01*
X114044791Y-114031000D01*
X114040590Y-114119195D01*
X114037663Y-114167228D01*
X114032653Y-114193369D01*
X114022486Y-114203930D01*
X114004088Y-114205224D01*
X113998851Y-114204906D01*
X113968566Y-114209406D01*
X113953686Y-114233218D01*
X113952303Y-114238321D01*
X113947343Y-114266852D01*
X113948536Y-114279463D01*
X113971281Y-114288257D01*
X114008509Y-114292129D01*
X114046802Y-114290403D01*
X114067216Y-114285436D01*
X114097907Y-114264578D01*
X114116986Y-114229864D01*
X114126339Y-114176282D01*
X114128111Y-114123650D01*
X114128973Y-114073708D01*
X114132821Y-114045759D01*
X114141547Y-114033593D01*
X114156333Y-114031000D01*
X114178464Y-114022732D01*
X114184555Y-113995722D01*
X114177774Y-113967883D01*
X114157227Y-113960445D01*
X114136527Y-113952529D01*
X114126676Y-113924627D01*
X114125477Y-113914584D01*
X114118108Y-113881666D01*
X114099391Y-113867421D01*
X114082250Y-113864257D01*
X114056413Y-113863909D01*
X114045639Y-113876148D01*
X114045639Y-113876148D01*
G37*
X114045639Y-113876148D02*
X114043445Y-113908635D01*
X114043444Y-113910118D01*
X114041195Y-113943711D01*
X114029686Y-113957655D01*
X114001770Y-113960444D01*
X114001111Y-113960445D01*
X113970856Y-113964241D01*
X113959788Y-113980381D01*
X113958777Y-113995722D01*
X113963236Y-114020793D01*
X113982305Y-114030081D01*
X114001784Y-114031000D01*
X114044791Y-114031000D01*
X114040590Y-114119195D01*
X114037663Y-114167228D01*
X114032653Y-114193369D01*
X114022486Y-114203930D01*
X114004088Y-114205224D01*
X113998851Y-114204906D01*
X113968566Y-114209406D01*
X113953686Y-114233218D01*
X113952303Y-114238321D01*
X113947343Y-114266852D01*
X113948536Y-114279463D01*
X113971281Y-114288257D01*
X114008509Y-114292129D01*
X114046802Y-114290403D01*
X114067216Y-114285436D01*
X114097907Y-114264578D01*
X114116986Y-114229864D01*
X114126339Y-114176282D01*
X114128111Y-114123650D01*
X114128973Y-114073708D01*
X114132821Y-114045759D01*
X114141547Y-114033593D01*
X114156333Y-114031000D01*
X114178464Y-114022732D01*
X114184555Y-113995722D01*
X114177774Y-113967883D01*
X114157227Y-113960445D01*
X114136527Y-113952529D01*
X114126676Y-113924627D01*
X114125477Y-113914584D01*
X114118108Y-113881666D01*
X114099391Y-113867421D01*
X114082250Y-113864257D01*
X114056413Y-113863909D01*
X114045639Y-113876148D01*
G36*
X114318376Y-113947992D02*
G01*
X114277868Y-113956512D01*
X114246705Y-113971469D01*
X114230111Y-113991408D01*
X114233312Y-114014876D01*
X114247153Y-114030252D01*
X114271063Y-114039943D01*
X114297856Y-114030780D01*
X114331952Y-114021502D01*
X114366403Y-114024757D01*
X114390757Y-114038310D01*
X114396222Y-114051796D01*
X114383040Y-114068325D01*
X114347076Y-114080000D01*
X114343305Y-114080648D01*
X114280326Y-114094840D01*
X114239811Y-114114783D01*
X114216124Y-114143594D01*
X114211857Y-114153366D01*
X114206323Y-114203144D01*
X114223933Y-114249179D01*
X114260795Y-114281742D01*
X114263784Y-114283170D01*
X114311717Y-114295248D01*
X114370035Y-114297258D01*
X114422670Y-114288958D01*
X114431990Y-114285684D01*
X114471024Y-114261964D01*
X114485358Y-114234067D01*
X114477122Y-114210000D01*
X114463460Y-114196444D01*
X114445090Y-114194276D01*
X114412561Y-114203173D01*
X114400262Y-114207383D01*
X114348982Y-114219824D01*
X114314467Y-114216815D01*
X114299968Y-114198980D01*
X114300431Y-114188189D01*
X114317326Y-114169503D01*
X114355542Y-114157240D01*
X114356354Y-114157106D01*
X114422844Y-114137817D01*
X114464279Y-114105661D01*
X114480608Y-114060682D01*
X114480889Y-114052866D01*
X114471776Y-114007647D01*
X114443708Y-113975580D01*
X114406521Y-113956072D01*
X114363002Y-113947360D01*
X114318376Y-113947992D01*
X114318376Y-113947992D01*
G37*
X114318376Y-113947992D02*
X114277868Y-113956512D01*
X114246705Y-113971469D01*
X114230111Y-113991408D01*
X114233312Y-114014876D01*
X114247153Y-114030252D01*
X114271063Y-114039943D01*
X114297856Y-114030780D01*
X114331952Y-114021502D01*
X114366403Y-114024757D01*
X114390757Y-114038310D01*
X114396222Y-114051796D01*
X114383040Y-114068325D01*
X114347076Y-114080000D01*
X114343305Y-114080648D01*
X114280326Y-114094840D01*
X114239811Y-114114783D01*
X114216124Y-114143594D01*
X114211857Y-114153366D01*
X114206323Y-114203144D01*
X114223933Y-114249179D01*
X114260795Y-114281742D01*
X114263784Y-114283170D01*
X114311717Y-114295248D01*
X114370035Y-114297258D01*
X114422670Y-114288958D01*
X114431990Y-114285684D01*
X114471024Y-114261964D01*
X114485358Y-114234067D01*
X114477122Y-114210000D01*
X114463460Y-114196444D01*
X114445090Y-114194276D01*
X114412561Y-114203173D01*
X114400262Y-114207383D01*
X114348982Y-114219824D01*
X114314467Y-114216815D01*
X114299968Y-114198980D01*
X114300431Y-114188189D01*
X114317326Y-114169503D01*
X114355542Y-114157240D01*
X114356354Y-114157106D01*
X114422844Y-114137817D01*
X114464279Y-114105661D01*
X114480608Y-114060682D01*
X114480889Y-114052866D01*
X114471776Y-114007647D01*
X114443708Y-113975580D01*
X114406521Y-113956072D01*
X114363002Y-113947360D01*
X114318376Y-113947992D01*
G36*
X114646936Y-113951785D02*
G01*
X114592007Y-113973792D01*
X114554003Y-114017973D01*
X114531394Y-114085507D01*
X114529187Y-114098028D01*
X114519615Y-114158000D01*
X114650605Y-114158000D01*
X114711629Y-114158213D01*
X114748726Y-114159617D01*
X114766193Y-114163363D01*
X114768327Y-114170601D01*
X114759423Y-114182480D01*
X114756055Y-114186222D01*
X114720585Y-114207415D01*
X114673948Y-114214199D01*
X114630085Y-114205051D01*
X114622322Y-114200831D01*
X114595578Y-114197787D01*
X114576461Y-114210290D01*
X114555325Y-114235090D01*
X114557869Y-114254108D01*
X114585811Y-114272250D01*
X114600380Y-114278665D01*
X114672601Y-114296710D01*
X114742126Y-114291799D01*
X114780572Y-114277022D01*
X114825606Y-114237082D01*
X114853349Y-114177532D01*
X114861889Y-114109535D01*
X114852414Y-114056464D01*
X114759840Y-114056464D01*
X114752405Y-114067440D01*
X114719683Y-114072708D01*
X114693731Y-114073334D01*
X114652661Y-114070745D01*
X114626827Y-114064074D01*
X114622000Y-114058768D01*
X114633904Y-114040511D01*
X114663116Y-114030439D01*
X114699886Y-114028713D01*
X114734463Y-114035498D01*
X114757098Y-114050956D01*
X114759840Y-114056464D01*
X114852414Y-114056464D01*
X114849927Y-114042534D01*
X114815670Y-113991694D01*
X114761560Y-113959754D01*
X114720320Y-113950773D01*
X114646936Y-113951785D01*
X114646936Y-113951785D01*
G37*
X114646936Y-113951785D02*
X114592007Y-113973792D01*
X114554003Y-114017973D01*
X114531394Y-114085507D01*
X114529187Y-114098028D01*
X114519615Y-114158000D01*
X114650605Y-114158000D01*
X114711629Y-114158213D01*
X114748726Y-114159617D01*
X114766193Y-114163363D01*
X114768327Y-114170601D01*
X114759423Y-114182480D01*
X114756055Y-114186222D01*
X114720585Y-114207415D01*
X114673948Y-114214199D01*
X114630085Y-114205051D01*
X114622322Y-114200831D01*
X114595578Y-114197787D01*
X114576461Y-114210290D01*
X114555325Y-114235090D01*
X114557869Y-114254108D01*
X114585811Y-114272250D01*
X114600380Y-114278665D01*
X114672601Y-114296710D01*
X114742126Y-114291799D01*
X114780572Y-114277022D01*
X114825606Y-114237082D01*
X114853349Y-114177532D01*
X114861889Y-114109535D01*
X114852414Y-114056464D01*
X114759840Y-114056464D01*
X114752405Y-114067440D01*
X114719683Y-114072708D01*
X114693731Y-114073334D01*
X114652661Y-114070745D01*
X114626827Y-114064074D01*
X114622000Y-114058768D01*
X114633904Y-114040511D01*
X114663116Y-114030439D01*
X114699886Y-114028713D01*
X114734463Y-114035498D01*
X114757098Y-114050956D01*
X114759840Y-114056464D01*
X114852414Y-114056464D01*
X114849927Y-114042534D01*
X114815670Y-113991694D01*
X114761560Y-113959754D01*
X114720320Y-113950773D01*
X114646936Y-113951785D01*
G36*
X114925742Y-113952707D02*
G01*
X114899651Y-113963623D01*
X114882742Y-113981687D01*
X114884449Y-114004484D01*
X114890829Y-114019885D01*
X114906086Y-114045150D01*
X114924615Y-114048213D01*
X114940683Y-114042004D01*
X114972690Y-114034834D01*
X115005470Y-114047924D01*
X115009477Y-114050490D01*
X115027947Y-114064906D01*
X115038696Y-114082936D01*
X115043786Y-114111998D01*
X115045278Y-114159512D01*
X115045333Y-114179492D01*
X115045333Y-114285000D01*
X115130000Y-114285000D01*
X115130000Y-113959301D01*
X115077083Y-113959950D01*
X115025336Y-113958051D01*
X114974973Y-113952575D01*
X114974777Y-113952543D01*
X114925742Y-113952707D01*
X114925742Y-113952707D01*
G37*
X114925742Y-113952707D02*
X114899651Y-113963623D01*
X114882742Y-113981687D01*
X114884449Y-114004484D01*
X114890829Y-114019885D01*
X114906086Y-114045150D01*
X114924615Y-114048213D01*
X114940683Y-114042004D01*
X114972690Y-114034834D01*
X115005470Y-114047924D01*
X115009477Y-114050490D01*
X115027947Y-114064906D01*
X115038696Y-114082936D01*
X115043786Y-114111998D01*
X115045278Y-114159512D01*
X115045333Y-114179492D01*
X115045333Y-114285000D01*
X115130000Y-114285000D01*
X115130000Y-113959301D01*
X115077083Y-113959950D01*
X115025336Y-113958051D01*
X114974973Y-113952575D01*
X114974777Y-113952543D01*
X114925742Y-113952707D01*
G36*
X115323872Y-113950682D02*
G01*
X115262825Y-113971234D01*
X115216948Y-114010702D01*
X115187965Y-114063189D01*
X115177599Y-114122798D01*
X115187574Y-114183631D01*
X115219613Y-114239792D01*
X115234717Y-114255730D01*
X115281603Y-114282950D01*
X115340628Y-114294715D01*
X115399460Y-114289626D01*
X115429683Y-114277819D01*
X115474303Y-114237487D01*
X115502730Y-114179668D01*
X115511000Y-114122722D01*
X115426333Y-114122722D01*
X115415641Y-114166625D01*
X115388447Y-114197831D01*
X115352078Y-114212511D01*
X115313858Y-114206836D01*
X115293285Y-114192270D01*
X115271547Y-114154200D01*
X115269692Y-114110795D01*
X115284811Y-114070310D01*
X115313996Y-114041000D01*
X115350109Y-114031000D01*
X115383926Y-114043478D01*
X115411838Y-114074529D01*
X115425887Y-114114578D01*
X115426333Y-114122722D01*
X115511000Y-114122722D01*
X115499179Y-114053654D01*
X115466388Y-113999229D01*
X115416632Y-113963131D01*
X115353918Y-113949043D01*
X115323872Y-113950682D01*
X115323872Y-113950682D01*
G37*
X115323872Y-113950682D02*
X115262825Y-113971234D01*
X115216948Y-114010702D01*
X115187965Y-114063189D01*
X115177599Y-114122798D01*
X115187574Y-114183631D01*
X115219613Y-114239792D01*
X115234717Y-114255730D01*
X115281603Y-114282950D01*
X115340628Y-114294715D01*
X115399460Y-114289626D01*
X115429683Y-114277819D01*
X115474303Y-114237487D01*
X115502730Y-114179668D01*
X115511000Y-114122722D01*
X115426333Y-114122722D01*
X115415641Y-114166625D01*
X115388447Y-114197831D01*
X115352078Y-114212511D01*
X115313858Y-114206836D01*
X115293285Y-114192270D01*
X115271547Y-114154200D01*
X115269692Y-114110795D01*
X115284811Y-114070310D01*
X115313996Y-114041000D01*
X115350109Y-114031000D01*
X115383926Y-114043478D01*
X115411838Y-114074529D01*
X115425887Y-114114578D01*
X115426333Y-114122722D01*
X115511000Y-114122722D01*
X115499179Y-114053654D01*
X115466388Y-113999229D01*
X115416632Y-113963131D01*
X115353918Y-113949043D01*
X115323872Y-113950682D01*
G36*
X115530352Y-113818747D02*
G01*
X115505067Y-113835988D01*
X115505398Y-113864278D01*
X115509193Y-113872402D01*
X115530242Y-113892831D01*
X115561390Y-113893151D01*
X115596496Y-113894558D01*
X115611062Y-113905596D01*
X115623541Y-113936901D01*
X115611693Y-113954755D01*
X115574663Y-113960445D01*
X115574500Y-113960445D01*
X115541053Y-113963128D01*
X115527370Y-113975004D01*
X115525111Y-113994828D01*
X115530148Y-114019494D01*
X115550708Y-114030731D01*
X115570972Y-114033634D01*
X115616833Y-114038056D01*
X115624987Y-114285000D01*
X115708555Y-114285000D01*
X115708555Y-114158000D01*
X115709027Y-114097661D01*
X115711237Y-114060167D01*
X115716380Y-114040147D01*
X115725650Y-114032230D01*
X115736777Y-114031000D01*
X115758908Y-114022732D01*
X115765000Y-113995722D01*
X115758075Y-113967731D01*
X115738348Y-113960445D01*
X115716665Y-113950557D01*
X115703768Y-113917886D01*
X115702794Y-113912993D01*
X115680843Y-113858361D01*
X115640134Y-113824654D01*
X115581949Y-113812923D01*
X115580813Y-113812919D01*
X115530352Y-113818747D01*
X115530352Y-113818747D01*
G37*
X115530352Y-113818747D02*
X115505067Y-113835988D01*
X115505398Y-113864278D01*
X115509193Y-113872402D01*
X115530242Y-113892831D01*
X115561390Y-113893151D01*
X115596496Y-113894558D01*
X115611062Y-113905596D01*
X115623541Y-113936901D01*
X115611693Y-113954755D01*
X115574663Y-113960445D01*
X115574500Y-113960445D01*
X115541053Y-113963128D01*
X115527370Y-113975004D01*
X115525111Y-113994828D01*
X115530148Y-114019494D01*
X115550708Y-114030731D01*
X115570972Y-114033634D01*
X115616833Y-114038056D01*
X115624987Y-114285000D01*
X115708555Y-114285000D01*
X115708555Y-114158000D01*
X115709027Y-114097661D01*
X115711237Y-114060167D01*
X115716380Y-114040147D01*
X115725650Y-114032230D01*
X115736777Y-114031000D01*
X115758908Y-114022732D01*
X115765000Y-113995722D01*
X115758075Y-113967731D01*
X115738348Y-113960445D01*
X115716665Y-113950557D01*
X115703768Y-113917886D01*
X115702794Y-113912993D01*
X115680843Y-113858361D01*
X115640134Y-113824654D01*
X115581949Y-113812923D01*
X115580813Y-113812919D01*
X115530352Y-113818747D01*
G36*
X115793222Y-114285000D02*
G01*
X115877889Y-114285000D01*
X115877889Y-113819334D01*
X115793222Y-113819334D01*
X115793222Y-114285000D01*
X115793222Y-114285000D01*
G37*
X115793222Y-114285000D02*
X115877889Y-114285000D01*
X115877889Y-113819334D01*
X115793222Y-113819334D01*
X115793222Y-114285000D01*
G36*
X116068348Y-113958131D02*
G01*
X116050362Y-113968300D01*
X116027677Y-113979668D01*
X116019000Y-113975356D01*
X116006741Y-113964887D01*
X115977204Y-113960446D01*
X115976666Y-113960445D01*
X115934333Y-113960445D01*
X115934333Y-114285000D01*
X115976666Y-114285000D01*
X116006386Y-114280682D01*
X116018996Y-114270278D01*
X116019000Y-114270089D01*
X116028508Y-114265963D01*
X116050362Y-114277144D01*
X116096793Y-114294881D01*
X116153976Y-114295996D01*
X116198827Y-114284593D01*
X116239721Y-114254130D01*
X116268705Y-114205131D01*
X116283694Y-114145521D01*
X116283032Y-114107735D01*
X116199163Y-114107735D01*
X116195581Y-114150679D01*
X116174595Y-114186094D01*
X116141066Y-114208876D01*
X116099856Y-114213923D01*
X116055827Y-114196134D01*
X116054152Y-114194931D01*
X116034790Y-114165701D01*
X116027465Y-114123106D01*
X116032887Y-114079629D01*
X116046128Y-114053485D01*
X116078184Y-114034334D01*
X116120328Y-114031561D01*
X116160262Y-114044353D01*
X116180477Y-114062362D01*
X116199163Y-114107735D01*
X116283032Y-114107735D01*
X116282602Y-114083221D01*
X116265705Y-114030538D01*
X116229061Y-113985926D01*
X116178343Y-113957365D01*
X116121966Y-113947289D01*
X116068348Y-113958131D01*
X116068348Y-113958131D01*
G37*
X116068348Y-113958131D02*
X116050362Y-113968300D01*
X116027677Y-113979668D01*
X116019000Y-113975356D01*
X116006741Y-113964887D01*
X115977204Y-113960446D01*
X115976666Y-113960445D01*
X115934333Y-113960445D01*
X115934333Y-114285000D01*
X115976666Y-114285000D01*
X116006386Y-114280682D01*
X116018996Y-114270278D01*
X116019000Y-114270089D01*
X116028508Y-114265963D01*
X116050362Y-114277144D01*
X116096793Y-114294881D01*
X116153976Y-114295996D01*
X116198827Y-114284593D01*
X116239721Y-114254130D01*
X116268705Y-114205131D01*
X116283694Y-114145521D01*
X116283032Y-114107735D01*
X116199163Y-114107735D01*
X116195581Y-114150679D01*
X116174595Y-114186094D01*
X116141066Y-114208876D01*
X116099856Y-114213923D01*
X116055827Y-114196134D01*
X116054152Y-114194931D01*
X116034790Y-114165701D01*
X116027465Y-114123106D01*
X116032887Y-114079629D01*
X116046128Y-114053485D01*
X116078184Y-114034334D01*
X116120328Y-114031561D01*
X116160262Y-114044353D01*
X116180477Y-114062362D01*
X116199163Y-114107735D01*
X116283032Y-114107735D01*
X116282602Y-114083221D01*
X116265705Y-114030538D01*
X116229061Y-113985926D01*
X116178343Y-113957365D01*
X116121966Y-113947289D01*
X116068348Y-113958131D01*
G36*
X116420040Y-113874400D02*
G01*
X116411501Y-113907286D01*
X116411477Y-113907528D01*
X116404636Y-113939855D01*
X116386239Y-113953780D01*
X116361194Y-113957811D01*
X116328943Y-113964697D01*
X116316599Y-113981302D01*
X116315333Y-113996616D01*
X116319187Y-114019901D01*
X116336247Y-114029428D01*
X116364722Y-114031000D01*
X116414111Y-114031000D01*
X116414111Y-114106883D01*
X116408543Y-114166144D01*
X116392128Y-114200605D01*
X116365294Y-114209567D01*
X116352990Y-114206350D01*
X116333482Y-114208618D01*
X116321285Y-114234985D01*
X116316438Y-114264440D01*
X116318195Y-114278455D01*
X116342615Y-114288338D01*
X116380991Y-114291876D01*
X116419672Y-114288580D01*
X116438061Y-114282767D01*
X116470577Y-114250902D01*
X116490951Y-114194707D01*
X116498713Y-114115548D01*
X116498777Y-114106506D01*
X116500072Y-114062399D01*
X116505641Y-114039701D01*
X116518011Y-114031648D01*
X116527000Y-114031000D01*
X116549131Y-114022732D01*
X116555222Y-113995722D01*
X116548607Y-113968059D01*
X116527000Y-113960445D01*
X116506049Y-113953491D01*
X116498959Y-113927953D01*
X116498777Y-113919621D01*
X116488836Y-113882246D01*
X116458388Y-113863937D01*
X116435017Y-113861667D01*
X116420040Y-113874400D01*
X116420040Y-113874400D01*
G37*
X116420040Y-113874400D02*
X116411501Y-113907286D01*
X116411477Y-113907528D01*
X116404636Y-113939855D01*
X116386239Y-113953780D01*
X116361194Y-113957811D01*
X116328943Y-113964697D01*
X116316599Y-113981302D01*
X116315333Y-113996616D01*
X116319187Y-114019901D01*
X116336247Y-114029428D01*
X116364722Y-114031000D01*
X116414111Y-114031000D01*
X116414111Y-114106883D01*
X116408543Y-114166144D01*
X116392128Y-114200605D01*
X116365294Y-114209567D01*
X116352990Y-114206350D01*
X116333482Y-114208618D01*
X116321285Y-114234985D01*
X116316438Y-114264440D01*
X116318195Y-114278455D01*
X116342615Y-114288338D01*
X116380991Y-114291876D01*
X116419672Y-114288580D01*
X116438061Y-114282767D01*
X116470577Y-114250902D01*
X116490951Y-114194707D01*
X116498713Y-114115548D01*
X116498777Y-114106506D01*
X116500072Y-114062399D01*
X116505641Y-114039701D01*
X116518011Y-114031648D01*
X116527000Y-114031000D01*
X116549131Y-114022732D01*
X116555222Y-113995722D01*
X116548607Y-113968059D01*
X116527000Y-113960445D01*
X116506049Y-113953491D01*
X116498959Y-113927953D01*
X116498777Y-113919621D01*
X116488836Y-113882246D01*
X116458388Y-113863937D01*
X116435017Y-113861667D01*
X116420040Y-113874400D01*
G36*
X116598432Y-113833221D02*
G01*
X116586000Y-113851761D01*
X116590672Y-113883827D01*
X116610879Y-113909852D01*
X116632833Y-113918111D01*
X116656160Y-113908237D01*
X116667548Y-113897622D01*
X116681933Y-113864992D01*
X116671469Y-113839026D01*
X116639528Y-113826647D01*
X116632833Y-113826389D01*
X116598432Y-113833221D01*
X116598432Y-113833221D01*
G37*
X116598432Y-113833221D02*
X116586000Y-113851761D01*
X116590672Y-113883827D01*
X116610879Y-113909852D01*
X116632833Y-113918111D01*
X116656160Y-113908237D01*
X116667548Y-113897622D01*
X116681933Y-113864992D01*
X116671469Y-113839026D01*
X116639528Y-113826647D01*
X116632833Y-113826389D01*
X116598432Y-113833221D01*
G36*
X116586524Y-114119195D02*
G01*
X116582549Y-114285000D01*
X116683118Y-114285000D01*
X116679142Y-114119195D01*
X116675166Y-113953389D01*
X116590500Y-113953389D01*
X116586524Y-114119195D01*
X116586524Y-114119195D01*
G37*
X116586524Y-114119195D02*
X116582549Y-114285000D01*
X116683118Y-114285000D01*
X116679142Y-114119195D01*
X116675166Y-113953389D01*
X116590500Y-113953389D01*
X116586524Y-114119195D01*
G36*
X116749112Y-113946346D02*
G01*
X116736072Y-113992536D01*
X116728669Y-114065003D01*
X116728358Y-114071257D01*
X116726799Y-114129719D01*
X116729540Y-114167505D01*
X116737707Y-114191982D01*
X116749171Y-114207212D01*
X116766578Y-114228662D01*
X116763914Y-114244353D01*
X116749811Y-114259744D01*
X116731180Y-114295271D01*
X116724905Y-114344573D01*
X116731200Y-114395952D01*
X116746653Y-114432607D01*
X116787617Y-114471040D01*
X116843857Y-114491046D01*
X116908077Y-114491142D01*
X116960003Y-114476013D01*
X116996108Y-114450436D01*
X117027790Y-114412007D01*
X117046843Y-114371756D01*
X117049111Y-114356256D01*
X117038474Y-114342850D01*
X117012364Y-114342301D01*
X116979484Y-114352908D01*
X116948536Y-114372966D01*
X116944560Y-114376722D01*
X116905543Y-114402661D01*
X116865640Y-114409084D01*
X116832046Y-114397426D01*
X116811956Y-114369122D01*
X116809222Y-114349732D01*
X116816509Y-114316811D01*
X116841533Y-114295510D01*
X116889039Y-114282168D01*
X116898909Y-114280548D01*
X116964872Y-114261532D01*
X117009521Y-114226505D01*
X117036526Y-114172579D01*
X117036650Y-114172168D01*
X117044963Y-114107217D01*
X116962511Y-114107217D01*
X116955148Y-114147559D01*
X116936222Y-114172111D01*
X116896581Y-114196756D01*
X116856616Y-114195067D01*
X116831397Y-114178159D01*
X116815092Y-114146620D01*
X116809774Y-114104359D01*
X116815995Y-114065068D01*
X116826155Y-114047934D01*
X116859594Y-114032057D01*
X116900203Y-114034559D01*
X116935203Y-114053854D01*
X116942477Y-114062362D01*
X116962511Y-114107217D01*
X117044963Y-114107217D01*
X117045661Y-114101771D01*
X117030971Y-114039873D01*
X116995795Y-113990798D01*
X116943349Y-113958868D01*
X116876848Y-113948408D01*
X116870441Y-113948659D01*
X116828436Y-113946786D01*
X116796499Y-113938170D01*
X116791174Y-113934811D01*
X116767557Y-113926937D01*
X116749112Y-113946346D01*
X116749112Y-113946346D01*
G37*
X116749112Y-113946346D02*
X116736072Y-113992536D01*
X116728669Y-114065003D01*
X116728358Y-114071257D01*
X116726799Y-114129719D01*
X116729540Y-114167505D01*
X116737707Y-114191982D01*
X116749171Y-114207212D01*
X116766578Y-114228662D01*
X116763914Y-114244353D01*
X116749811Y-114259744D01*
X116731180Y-114295271D01*
X116724905Y-114344573D01*
X116731200Y-114395952D01*
X116746653Y-114432607D01*
X116787617Y-114471040D01*
X116843857Y-114491046D01*
X116908077Y-114491142D01*
X116960003Y-114476013D01*
X116996108Y-114450436D01*
X117027790Y-114412007D01*
X117046843Y-114371756D01*
X117049111Y-114356256D01*
X117038474Y-114342850D01*
X117012364Y-114342301D01*
X116979484Y-114352908D01*
X116948536Y-114372966D01*
X116944560Y-114376722D01*
X116905543Y-114402661D01*
X116865640Y-114409084D01*
X116832046Y-114397426D01*
X116811956Y-114369122D01*
X116809222Y-114349732D01*
X116816509Y-114316811D01*
X116841533Y-114295510D01*
X116889039Y-114282168D01*
X116898909Y-114280548D01*
X116964872Y-114261532D01*
X117009521Y-114226505D01*
X117036526Y-114172579D01*
X117036650Y-114172168D01*
X117044963Y-114107217D01*
X116962511Y-114107217D01*
X116955148Y-114147559D01*
X116936222Y-114172111D01*
X116896581Y-114196756D01*
X116856616Y-114195067D01*
X116831397Y-114178159D01*
X116815092Y-114146620D01*
X116809774Y-114104359D01*
X116815995Y-114065068D01*
X116826155Y-114047934D01*
X116859594Y-114032057D01*
X116900203Y-114034559D01*
X116935203Y-114053854D01*
X116942477Y-114062362D01*
X116962511Y-114107217D01*
X117044963Y-114107217D01*
X117045661Y-114101771D01*
X117030971Y-114039873D01*
X116995795Y-113990798D01*
X116943349Y-113958868D01*
X116876848Y-113948408D01*
X116870441Y-113948659D01*
X116828436Y-113946786D01*
X116796499Y-113938170D01*
X116791174Y-113934811D01*
X116767557Y-113926937D01*
X116749112Y-113946346D01*
G36*
X117108985Y-113830096D02*
G01*
X117099259Y-113851767D01*
X117098500Y-113868722D01*
X117103808Y-113901090D01*
X117122958Y-113914356D01*
X117127957Y-113915264D01*
X117159961Y-113909479D01*
X117174984Y-113898303D01*
X117187691Y-113866430D01*
X117178378Y-113838031D01*
X117151811Y-113822451D01*
X117136094Y-113822041D01*
X117108985Y-113830096D01*
X117108985Y-113830096D01*
G37*
X117108985Y-113830096D02*
X117099259Y-113851767D01*
X117098500Y-113868722D01*
X117103808Y-113901090D01*
X117122958Y-113914356D01*
X117127957Y-113915264D01*
X117159961Y-113909479D01*
X117174984Y-113898303D01*
X117187691Y-113866430D01*
X117178378Y-113838031D01*
X117151811Y-113822451D01*
X117136094Y-113822041D01*
X117108985Y-113830096D01*
G36*
X117091444Y-114285000D02*
G01*
X117176111Y-114285000D01*
X117176111Y-113946334D01*
X117091444Y-113946334D01*
X117091444Y-114285000D01*
X117091444Y-114285000D01*
G37*
X117091444Y-114285000D02*
X117176111Y-114285000D01*
X117176111Y-113946334D01*
X117091444Y-113946334D01*
X117091444Y-114285000D01*
G36*
X117246666Y-114285000D02*
G01*
X117281944Y-114285000D01*
X117308461Y-114280047D01*
X117317222Y-114270527D01*
X117327895Y-114266132D01*
X117354985Y-114275637D01*
X117358855Y-114277582D01*
X117416631Y-114296987D01*
X117471080Y-114290696D01*
X117510349Y-114271591D01*
X117551267Y-114240005D01*
X117574599Y-114201950D01*
X117584327Y-114149123D01*
X117584765Y-114134342D01*
X117500120Y-114134342D01*
X117486162Y-114174742D01*
X117469304Y-114192478D01*
X117424450Y-114212511D01*
X117384108Y-114205148D01*
X117359555Y-114186222D01*
X117336024Y-114147819D01*
X117334196Y-114107947D01*
X117349477Y-114071862D01*
X117377268Y-114044821D01*
X117412975Y-114032082D01*
X117451999Y-114038900D01*
X117474861Y-114054354D01*
X117496511Y-114090272D01*
X117500120Y-114134342D01*
X117584765Y-114134342D01*
X117585333Y-114115183D01*
X117582803Y-114067887D01*
X117571664Y-114035207D01*
X117546592Y-114003732D01*
X117537355Y-113994311D01*
X117485879Y-113956816D01*
X117430422Y-113945933D01*
X117367529Y-113960095D01*
X117346806Y-113966786D01*
X117336039Y-113962673D01*
X117331969Y-113942038D01*
X117331333Y-113899160D01*
X117331333Y-113896595D01*
X117330613Y-113852353D01*
X117325910Y-113829369D01*
X117313410Y-113820684D01*
X117289297Y-113819334D01*
X117246666Y-113819334D01*
X117246666Y-114285000D01*
X117246666Y-114285000D01*
G37*
X117246666Y-114285000D02*
X117281944Y-114285000D01*
X117308461Y-114280047D01*
X117317222Y-114270527D01*
X117327895Y-114266132D01*
X117354985Y-114275637D01*
X117358855Y-114277582D01*
X117416631Y-114296987D01*
X117471080Y-114290696D01*
X117510349Y-114271591D01*
X117551267Y-114240005D01*
X117574599Y-114201950D01*
X117584327Y-114149123D01*
X117584765Y-114134342D01*
X117500120Y-114134342D01*
X117486162Y-114174742D01*
X117469304Y-114192478D01*
X117424450Y-114212511D01*
X117384108Y-114205148D01*
X117359555Y-114186222D01*
X117336024Y-114147819D01*
X117334196Y-114107947D01*
X117349477Y-114071862D01*
X117377268Y-114044821D01*
X117412975Y-114032082D01*
X117451999Y-114038900D01*
X117474861Y-114054354D01*
X117496511Y-114090272D01*
X117500120Y-114134342D01*
X117584765Y-114134342D01*
X117585333Y-114115183D01*
X117582803Y-114067887D01*
X117571664Y-114035207D01*
X117546592Y-114003732D01*
X117537355Y-113994311D01*
X117485879Y-113956816D01*
X117430422Y-113945933D01*
X117367529Y-113960095D01*
X117346806Y-113966786D01*
X117336039Y-113962673D01*
X117331969Y-113942038D01*
X117331333Y-113899160D01*
X117331333Y-113896595D01*
X117330613Y-113852353D01*
X117325910Y-113829369D01*
X117313410Y-113820684D01*
X117289297Y-113819334D01*
X117246666Y-113819334D01*
X117246666Y-114285000D01*
G36*
X117668198Y-114203879D02*
G01*
X117657140Y-114220263D01*
X117655889Y-114241157D01*
X117663296Y-114275527D01*
X117678209Y-114290546D01*
X117700860Y-114297843D01*
X117715715Y-114292801D01*
X117733303Y-114276125D01*
X117748402Y-114250007D01*
X117748422Y-114232638D01*
X117741382Y-114211014D01*
X117740555Y-114206235D01*
X117728268Y-114202088D01*
X117698671Y-114200334D01*
X117698222Y-114200334D01*
X117668198Y-114203879D01*
X117668198Y-114203879D01*
G37*
X117668198Y-114203879D02*
X117657140Y-114220263D01*
X117655889Y-114241157D01*
X117663296Y-114275527D01*
X117678209Y-114290546D01*
X117700860Y-114297843D01*
X117715715Y-114292801D01*
X117733303Y-114276125D01*
X117748402Y-114250007D01*
X117748422Y-114232638D01*
X117741382Y-114211014D01*
X117740555Y-114206235D01*
X117728268Y-114202088D01*
X117698671Y-114200334D01*
X117698222Y-114200334D01*
X117668198Y-114203879D01*
G36*
X117826251Y-113963239D02*
G01*
X117811296Y-113970060D01*
X117811111Y-113971001D01*
X117815333Y-113987883D01*
X117826790Y-114025682D01*
X117843672Y-114078583D01*
X117861666Y-114133279D01*
X117912222Y-114285000D01*
X118019643Y-114285000D01*
X118044896Y-114191711D01*
X118070148Y-114098422D01*
X118097954Y-114191711D01*
X118113146Y-114240714D01*
X118125400Y-114268602D01*
X118139768Y-114281326D01*
X118161301Y-114284838D01*
X118177128Y-114285000D01*
X118228496Y-114285000D01*
X118281084Y-114133306D01*
X118302005Y-114072022D01*
X118318938Y-114020641D01*
X118330019Y-113984940D01*
X118333447Y-113971028D01*
X118320928Y-113963829D01*
X118290732Y-113960476D01*
X118287185Y-113960445D01*
X118262727Y-113961825D01*
X118246692Y-113969934D01*
X118234539Y-113990721D01*
X118221725Y-114030139D01*
X118214489Y-114055695D01*
X118200168Y-114105099D01*
X118188005Y-114143921D01*
X118180581Y-114163935D01*
X118180479Y-114164123D01*
X118173574Y-114158051D01*
X118161785Y-114130204D01*
X118147351Y-114086115D01*
X118143363Y-114072401D01*
X118127693Y-114019487D01*
X118115354Y-113988206D01*
X118102506Y-113972899D01*
X118085305Y-113967904D01*
X118072166Y-113967500D01*
X118050867Y-113969165D01*
X118035990Y-113977911D01*
X118023708Y-113999360D01*
X118010192Y-114039138D01*
X118000132Y-114073334D01*
X117984838Y-114123561D01*
X117972956Y-114151239D01*
X117962437Y-114155332D01*
X117951230Y-114134806D01*
X117937285Y-114088624D01*
X117923291Y-114034528D01*
X117911317Y-113991765D01*
X117899394Y-113969723D01*
X117881482Y-113961567D01*
X117857832Y-113960445D01*
X117826251Y-113963239D01*
X117826251Y-113963239D01*
G37*
X117826251Y-113963239D02*
X117811296Y-113970060D01*
X117811111Y-113971001D01*
X117815333Y-113987883D01*
X117826790Y-114025682D01*
X117843672Y-114078583D01*
X117861666Y-114133279D01*
X117912222Y-114285000D01*
X118019643Y-114285000D01*
X118044896Y-114191711D01*
X118070148Y-114098422D01*
X118097954Y-114191711D01*
X118113146Y-114240714D01*
X118125400Y-114268602D01*
X118139768Y-114281326D01*
X118161301Y-114284838D01*
X118177128Y-114285000D01*
X118228496Y-114285000D01*
X118281084Y-114133306D01*
X118302005Y-114072022D01*
X118318938Y-114020641D01*
X118330019Y-113984940D01*
X118333447Y-113971028D01*
X118320928Y-113963829D01*
X118290732Y-113960476D01*
X118287185Y-113960445D01*
X118262727Y-113961825D01*
X118246692Y-113969934D01*
X118234539Y-113990721D01*
X118221725Y-114030139D01*
X118214489Y-114055695D01*
X118200168Y-114105099D01*
X118188005Y-114143921D01*
X118180581Y-114163935D01*
X118180479Y-114164123D01*
X118173574Y-114158051D01*
X118161785Y-114130204D01*
X118147351Y-114086115D01*
X118143363Y-114072401D01*
X118127693Y-114019487D01*
X118115354Y-113988206D01*
X118102506Y-113972899D01*
X118085305Y-113967904D01*
X118072166Y-113967500D01*
X118050867Y-113969165D01*
X118035990Y-113977911D01*
X118023708Y-113999360D01*
X118010192Y-114039138D01*
X118000132Y-114073334D01*
X117984838Y-114123561D01*
X117972956Y-114151239D01*
X117962437Y-114155332D01*
X117951230Y-114134806D01*
X117937285Y-114088624D01*
X117923291Y-114034528D01*
X117911317Y-113991765D01*
X117899394Y-113969723D01*
X117881482Y-113961567D01*
X117857832Y-113960445D01*
X117826251Y-113963239D01*
G36*
X118851547Y-113961565D02*
G01*
X118835208Y-113968732D01*
X118822822Y-113987655D01*
X118810063Y-114024039D01*
X118798654Y-114062750D01*
X118783922Y-114113700D01*
X118772287Y-114154164D01*
X118765973Y-114176407D01*
X118765625Y-114177684D01*
X118760061Y-114173829D01*
X118748707Y-114142462D01*
X118731595Y-114083685D01*
X118714674Y-114020417D01*
X118702582Y-113982635D01*
X118687875Y-113965176D01*
X118663408Y-113960508D01*
X118657777Y-113960445D01*
X118630946Y-113963690D01*
X118615087Y-113978449D01*
X118603055Y-114012254D01*
X118600881Y-114020417D01*
X118579395Y-114100054D01*
X118563642Y-114152358D01*
X118553654Y-114177228D01*
X118549930Y-114177684D01*
X118544595Y-114158804D01*
X118533610Y-114120555D01*
X118519197Y-114070673D01*
X118516901Y-114062750D01*
X118501324Y-114010821D01*
X118489131Y-113980333D01*
X118476003Y-113965578D01*
X118457620Y-113960848D01*
X118439482Y-113960445D01*
X118391715Y-113960445D01*
X118444862Y-114119195D01*
X118498008Y-114277945D01*
X118553073Y-114277945D01*
X118585053Y-114276674D01*
X118603648Y-114268350D01*
X118615700Y-114246201D01*
X118627944Y-114203861D01*
X118640340Y-114162956D01*
X118651294Y-114136050D01*
X118656474Y-114129778D01*
X118664788Y-114142134D01*
X118676985Y-114173963D01*
X118686211Y-114203861D01*
X118699563Y-114246645D01*
X118712795Y-114269264D01*
X118732697Y-114278918D01*
X118760225Y-114282331D01*
X118801812Y-114280687D01*
X118820116Y-114268220D01*
X118827246Y-114247800D01*
X118841144Y-114207033D01*
X118859630Y-114152337D01*
X118875514Y-114105084D01*
X118924021Y-113960445D01*
X118876164Y-113960445D01*
X118851547Y-113961565D01*
X118851547Y-113961565D01*
G37*
X118851547Y-113961565D02*
X118835208Y-113968732D01*
X118822822Y-113987655D01*
X118810063Y-114024039D01*
X118798654Y-114062750D01*
X118783922Y-114113700D01*
X118772287Y-114154164D01*
X118765973Y-114176407D01*
X118765625Y-114177684D01*
X118760061Y-114173829D01*
X118748707Y-114142462D01*
X118731595Y-114083685D01*
X118714674Y-114020417D01*
X118702582Y-113982635D01*
X118687875Y-113965176D01*
X118663408Y-113960508D01*
X118657777Y-113960445D01*
X118630946Y-113963690D01*
X118615087Y-113978449D01*
X118603055Y-114012254D01*
X118600881Y-114020417D01*
X118579395Y-114100054D01*
X118563642Y-114152358D01*
X118553654Y-114177228D01*
X118549930Y-114177684D01*
X118544595Y-114158804D01*
X118533610Y-114120555D01*
X118519197Y-114070673D01*
X118516901Y-114062750D01*
X118501324Y-114010821D01*
X118489131Y-113980333D01*
X118476003Y-113965578D01*
X118457620Y-113960848D01*
X118439482Y-113960445D01*
X118391715Y-113960445D01*
X118444862Y-114119195D01*
X118498008Y-114277945D01*
X118553073Y-114277945D01*
X118585053Y-114276674D01*
X118603648Y-114268350D01*
X118615700Y-114246201D01*
X118627944Y-114203861D01*
X118640340Y-114162956D01*
X118651294Y-114136050D01*
X118656474Y-114129778D01*
X118664788Y-114142134D01*
X118676985Y-114173963D01*
X118686211Y-114203861D01*
X118699563Y-114246645D01*
X118712795Y-114269264D01*
X118732697Y-114278918D01*
X118760225Y-114282331D01*
X118801812Y-114280687D01*
X118820116Y-114268220D01*
X118827246Y-114247800D01*
X118841144Y-114207033D01*
X118859630Y-114152337D01*
X118875514Y-114105084D01*
X118924021Y-113960445D01*
X118876164Y-113960445D01*
X118851547Y-113961565D01*
G36*
X118997473Y-113963239D02*
G01*
X118982518Y-113970060D01*
X118982333Y-113971001D01*
X118986555Y-113987883D01*
X118998013Y-114025682D01*
X119014895Y-114078583D01*
X119032889Y-114133279D01*
X119083444Y-114285000D01*
X119190500Y-114285000D01*
X119242678Y-114102808D01*
X119296982Y-114285000D01*
X119403333Y-114285000D01*
X119453889Y-114133279D01*
X119474057Y-114071870D01*
X119490404Y-114020420D01*
X119501116Y-113984746D01*
X119504444Y-113971001D01*
X119492091Y-113963824D01*
X119461992Y-113960477D01*
X119458407Y-113960445D01*
X119433949Y-113961825D01*
X119417915Y-113969934D01*
X119405761Y-113990721D01*
X119392947Y-114030139D01*
X119385711Y-114055695D01*
X119371390Y-114105099D01*
X119359228Y-114143921D01*
X119351804Y-114163935D01*
X119351701Y-114164123D01*
X119344796Y-114158051D01*
X119333008Y-114130204D01*
X119318573Y-114086115D01*
X119314585Y-114072401D01*
X119298915Y-114019487D01*
X119286576Y-113988206D01*
X119273728Y-113972899D01*
X119256527Y-113967904D01*
X119243389Y-113967500D01*
X119222089Y-113969165D01*
X119207212Y-113977911D01*
X119194930Y-113999360D01*
X119181414Y-114039138D01*
X119171354Y-114073334D01*
X119156060Y-114123561D01*
X119144179Y-114151239D01*
X119133659Y-114155332D01*
X119122452Y-114134806D01*
X119108507Y-114088624D01*
X119094513Y-114034528D01*
X119082539Y-113991765D01*
X119070616Y-113969723D01*
X119052704Y-113961567D01*
X119029054Y-113960445D01*
X118997473Y-113963239D01*
X118997473Y-113963239D01*
G37*
X118997473Y-113963239D02*
X118982518Y-113970060D01*
X118982333Y-113971001D01*
X118986555Y-113987883D01*
X118998013Y-114025682D01*
X119014895Y-114078583D01*
X119032889Y-114133279D01*
X119083444Y-114285000D01*
X119190500Y-114285000D01*
X119242678Y-114102808D01*
X119296982Y-114285000D01*
X119403333Y-114285000D01*
X119453889Y-114133279D01*
X119474057Y-114071870D01*
X119490404Y-114020420D01*
X119501116Y-113984746D01*
X119504444Y-113971001D01*
X119492091Y-113963824D01*
X119461992Y-113960477D01*
X119458407Y-113960445D01*
X119433949Y-113961825D01*
X119417915Y-113969934D01*
X119405761Y-113990721D01*
X119392947Y-114030139D01*
X119385711Y-114055695D01*
X119371390Y-114105099D01*
X119359228Y-114143921D01*
X119351804Y-114163935D01*
X119351701Y-114164123D01*
X119344796Y-114158051D01*
X119333008Y-114130204D01*
X119318573Y-114086115D01*
X119314585Y-114072401D01*
X119298915Y-114019487D01*
X119286576Y-113988206D01*
X119273728Y-113972899D01*
X119256527Y-113967904D01*
X119243389Y-113967500D01*
X119222089Y-113969165D01*
X119207212Y-113977911D01*
X119194930Y-113999360D01*
X119181414Y-114039138D01*
X119171354Y-114073334D01*
X119156060Y-114123561D01*
X119144179Y-114151239D01*
X119133659Y-114155332D01*
X119122452Y-114134806D01*
X119108507Y-114088624D01*
X119094513Y-114034528D01*
X119082539Y-113991765D01*
X119070616Y-113969723D01*
X119052704Y-113961567D01*
X119029054Y-113960445D01*
X118997473Y-113963239D01*
G36*
X111239497Y-112879303D02*
G01*
X111179577Y-112904223D01*
X111129995Y-112949125D01*
X111112840Y-112975571D01*
X111095688Y-113026899D01*
X111087761Y-113092901D01*
X111089002Y-113162704D01*
X111099354Y-113225433D01*
X111114359Y-113263560D01*
X111161359Y-113317182D01*
X111222974Y-113349922D01*
X111292514Y-113359409D01*
X111351883Y-113347772D01*
X111391324Y-113331314D01*
X111420998Y-113315049D01*
X111424667Y-113312301D01*
X111457841Y-113268486D01*
X111479464Y-113206545D01*
X111488678Y-113134467D01*
X111487657Y-113115755D01*
X111390555Y-113115755D01*
X111388402Y-113169977D01*
X111380361Y-113205517D01*
X111364061Y-113231697D01*
X111359873Y-113236341D01*
X111317105Y-113263941D01*
X111269147Y-113266050D01*
X111222732Y-113242759D01*
X111213525Y-113234364D01*
X111193093Y-113208970D01*
X111182586Y-113178801D01*
X111179039Y-113133722D01*
X111178889Y-113115983D01*
X111185046Y-113047643D01*
X111205018Y-113001426D01*
X111241054Y-112973707D01*
X111273203Y-112964077D01*
X111310061Y-112962543D01*
X111340293Y-112978601D01*
X111354342Y-112991615D01*
X111375035Y-113016457D01*
X111386012Y-113044539D01*
X111390151Y-113085720D01*
X111390555Y-113115755D01*
X111487657Y-113115755D01*
X111484627Y-113060246D01*
X111466453Y-112991871D01*
X111460487Y-112978434D01*
X111420250Y-112923930D01*
X111365937Y-112889207D01*
X111303652Y-112874314D01*
X111239497Y-112879303D01*
X111239497Y-112879303D01*
G37*
X111239497Y-112879303D02*
X111179577Y-112904223D01*
X111129995Y-112949125D01*
X111112840Y-112975571D01*
X111095688Y-113026899D01*
X111087761Y-113092901D01*
X111089002Y-113162704D01*
X111099354Y-113225433D01*
X111114359Y-113263560D01*
X111161359Y-113317182D01*
X111222974Y-113349922D01*
X111292514Y-113359409D01*
X111351883Y-113347772D01*
X111391324Y-113331314D01*
X111420998Y-113315049D01*
X111424667Y-113312301D01*
X111457841Y-113268486D01*
X111479464Y-113206545D01*
X111488678Y-113134467D01*
X111487657Y-113115755D01*
X111390555Y-113115755D01*
X111388402Y-113169977D01*
X111380361Y-113205517D01*
X111364061Y-113231697D01*
X111359873Y-113236341D01*
X111317105Y-113263941D01*
X111269147Y-113266050D01*
X111222732Y-113242759D01*
X111213525Y-113234364D01*
X111193093Y-113208970D01*
X111182586Y-113178801D01*
X111179039Y-113133722D01*
X111178889Y-113115983D01*
X111185046Y-113047643D01*
X111205018Y-113001426D01*
X111241054Y-112973707D01*
X111273203Y-112964077D01*
X111310061Y-112962543D01*
X111340293Y-112978601D01*
X111354342Y-112991615D01*
X111375035Y-113016457D01*
X111386012Y-113044539D01*
X111390151Y-113085720D01*
X111390555Y-113115755D01*
X111487657Y-113115755D01*
X111484627Y-113060246D01*
X111466453Y-112991871D01*
X111460487Y-112978434D01*
X111420250Y-112923930D01*
X111365937Y-112889207D01*
X111303652Y-112874314D01*
X111239497Y-112879303D01*
G36*
X111632413Y-112890897D02*
G01*
X111579580Y-112924172D01*
X111545826Y-112972869D01*
X111540049Y-112990478D01*
X111535859Y-113053822D01*
X111556081Y-113106071D01*
X111598166Y-113144469D01*
X111659565Y-113166260D01*
X111706347Y-113170222D01*
X111763852Y-113178399D01*
X111800391Y-113201997D01*
X111813859Y-113239615D01*
X111813889Y-113241786D01*
X111811717Y-113254188D01*
X111801810Y-113262130D01*
X111779080Y-113266591D01*
X111738441Y-113268554D01*
X111674806Y-113269000D01*
X111531666Y-113269000D01*
X111531666Y-113353667D01*
X111899792Y-113353667D01*
X111895646Y-113251862D01*
X111892753Y-113198531D01*
X111887356Y-113165300D01*
X111876301Y-113144054D01*
X111856434Y-113126678D01*
X111843552Y-113117806D01*
X111783589Y-113091342D01*
X111740319Y-113085556D01*
X111679331Y-113078485D01*
X111642680Y-113057305D01*
X111630444Y-113022059D01*
X111630444Y-113022056D01*
X111642183Y-112988236D01*
X111672066Y-112966398D01*
X111712093Y-112957896D01*
X111754264Y-112964084D01*
X111790578Y-112986315D01*
X111797256Y-112993834D01*
X111832794Y-113022229D01*
X111861781Y-113029111D01*
X111890460Y-113021056D01*
X111900051Y-113000199D01*
X111893394Y-112971506D01*
X111873329Y-112939943D01*
X111842697Y-112910474D01*
X111804337Y-112888066D01*
X111776241Y-112879569D01*
X111699556Y-112875283D01*
X111632413Y-112890897D01*
X111632413Y-112890897D01*
G37*
X111632413Y-112890897D02*
X111579580Y-112924172D01*
X111545826Y-112972869D01*
X111540049Y-112990478D01*
X111535859Y-113053822D01*
X111556081Y-113106071D01*
X111598166Y-113144469D01*
X111659565Y-113166260D01*
X111706347Y-113170222D01*
X111763852Y-113178399D01*
X111800391Y-113201997D01*
X111813859Y-113239615D01*
X111813889Y-113241786D01*
X111811717Y-113254188D01*
X111801810Y-113262130D01*
X111779080Y-113266591D01*
X111738441Y-113268554D01*
X111674806Y-113269000D01*
X111531666Y-113269000D01*
X111531666Y-113353667D01*
X111899792Y-113353667D01*
X111895646Y-113251862D01*
X111892753Y-113198531D01*
X111887356Y-113165300D01*
X111876301Y-113144054D01*
X111856434Y-113126678D01*
X111843552Y-113117806D01*
X111783589Y-113091342D01*
X111740319Y-113085556D01*
X111679331Y-113078485D01*
X111642680Y-113057305D01*
X111630444Y-113022059D01*
X111630444Y-113022056D01*
X111642183Y-112988236D01*
X111672066Y-112966398D01*
X111712093Y-112957896D01*
X111754264Y-112964084D01*
X111790578Y-112986315D01*
X111797256Y-112993834D01*
X111832794Y-113022229D01*
X111861781Y-113029111D01*
X111890460Y-113021056D01*
X111900051Y-113000199D01*
X111893394Y-112971506D01*
X111873329Y-112939943D01*
X111842697Y-112910474D01*
X111804337Y-112888066D01*
X111776241Y-112879569D01*
X111699556Y-112875283D01*
X111632413Y-112890897D01*
G36*
X112091865Y-112878350D02*
G01*
X112031249Y-112901436D01*
X111981417Y-112944366D01*
X111968540Y-112962769D01*
X111953392Y-112995273D01*
X111944752Y-113036318D01*
X111941229Y-113094019D01*
X111940941Y-113123870D01*
X111941628Y-113182301D01*
X111945223Y-113220921D01*
X111953933Y-113248132D01*
X111969963Y-113272336D01*
X111984383Y-113289333D01*
X112024661Y-113324820D01*
X112069663Y-113349899D01*
X112079633Y-113353245D01*
X112114859Y-113362827D01*
X112137329Y-113365652D01*
X112160005Y-113361106D01*
X112195850Y-113348574D01*
X112198550Y-113347609D01*
X112254516Y-113322490D01*
X112290959Y-113291085D01*
X112316555Y-113245865D01*
X112317019Y-113244759D01*
X112330539Y-113191061D01*
X112335431Y-113123606D01*
X112335393Y-113122867D01*
X112246320Y-113122867D01*
X112238235Y-113177283D01*
X112222144Y-113223642D01*
X112200426Y-113252425D01*
X112197998Y-113253993D01*
X112147690Y-113268299D01*
X112095803Y-113258491D01*
X112060192Y-113234364D01*
X112037543Y-113204599D01*
X112027360Y-113167770D01*
X112025555Y-113129194D01*
X112028694Y-113080076D01*
X112036629Y-113037468D01*
X112041222Y-113024276D01*
X112069730Y-112989532D01*
X112112276Y-112964927D01*
X112144261Y-112958556D01*
X112179553Y-112971015D01*
X112213071Y-113002907D01*
X112237441Y-113046002D01*
X112244018Y-113069911D01*
X112246320Y-113122867D01*
X112335393Y-113122867D01*
X112331863Y-113054462D01*
X112320001Y-112995697D01*
X112313331Y-112978550D01*
X112273998Y-112925208D01*
X112219681Y-112890531D01*
X112156823Y-112874814D01*
X112091865Y-112878350D01*
X112091865Y-112878350D01*
G37*
X112091865Y-112878350D02*
X112031249Y-112901436D01*
X111981417Y-112944366D01*
X111968540Y-112962769D01*
X111953392Y-112995273D01*
X111944752Y-113036318D01*
X111941229Y-113094019D01*
X111940941Y-113123870D01*
X111941628Y-113182301D01*
X111945223Y-113220921D01*
X111953933Y-113248132D01*
X111969963Y-113272336D01*
X111984383Y-113289333D01*
X112024661Y-113324820D01*
X112069663Y-113349899D01*
X112079633Y-113353245D01*
X112114859Y-113362827D01*
X112137329Y-113365652D01*
X112160005Y-113361106D01*
X112195850Y-113348574D01*
X112198550Y-113347609D01*
X112254516Y-113322490D01*
X112290959Y-113291085D01*
X112316555Y-113245865D01*
X112317019Y-113244759D01*
X112330539Y-113191061D01*
X112335431Y-113123606D01*
X112335393Y-113122867D01*
X112246320Y-113122867D01*
X112238235Y-113177283D01*
X112222144Y-113223642D01*
X112200426Y-113252425D01*
X112197998Y-113253993D01*
X112147690Y-113268299D01*
X112095803Y-113258491D01*
X112060192Y-113234364D01*
X112037543Y-113204599D01*
X112027360Y-113167770D01*
X112025555Y-113129194D01*
X112028694Y-113080076D01*
X112036629Y-113037468D01*
X112041222Y-113024276D01*
X112069730Y-112989532D01*
X112112276Y-112964927D01*
X112144261Y-112958556D01*
X112179553Y-112971015D01*
X112213071Y-113002907D01*
X112237441Y-113046002D01*
X112244018Y-113069911D01*
X112246320Y-113122867D01*
X112335393Y-113122867D01*
X112331863Y-113054462D01*
X112320001Y-112995697D01*
X112313331Y-112978550D01*
X112273998Y-112925208D01*
X112219681Y-112890531D01*
X112156823Y-112874814D01*
X112091865Y-112878350D01*
G36*
X112521068Y-112879067D02*
G01*
X112461025Y-112900166D01*
X112415238Y-112935191D01*
X112400437Y-112956743D01*
X112380643Y-113019130D01*
X112386426Y-113074893D01*
X112415334Y-113120707D01*
X112464916Y-113153243D01*
X112532719Y-113169175D01*
X112557755Y-113170222D01*
X112614883Y-113177859D01*
X112649570Y-113200229D01*
X112660555Y-113234219D01*
X112659642Y-113250003D01*
X112653469Y-113260101D01*
X112636882Y-113265783D01*
X112604729Y-113268318D01*
X112551858Y-113268977D01*
X112519444Y-113269000D01*
X112378333Y-113269000D01*
X112378333Y-113353667D01*
X112746458Y-113353667D01*
X112742312Y-113251862D01*
X112739420Y-113198531D01*
X112734023Y-113165300D01*
X112722967Y-113144054D01*
X112703101Y-113126678D01*
X112690218Y-113117806D01*
X112630256Y-113091342D01*
X112586985Y-113085556D01*
X112525998Y-113078485D01*
X112489347Y-113057305D01*
X112477111Y-113022059D01*
X112477111Y-113022056D01*
X112488850Y-112988236D01*
X112518732Y-112966398D01*
X112558759Y-112957896D01*
X112600930Y-112964084D01*
X112637245Y-112986315D01*
X112643923Y-112993834D01*
X112679461Y-113022229D01*
X112708447Y-113029111D01*
X112737149Y-113020522D01*
X112747182Y-112998417D01*
X112740733Y-112968293D01*
X112719991Y-112935645D01*
X112687147Y-112905968D01*
X112652018Y-112887437D01*
X112587391Y-112874091D01*
X112521068Y-112879067D01*
X112521068Y-112879067D01*
G37*
X112521068Y-112879067D02*
X112461025Y-112900166D01*
X112415238Y-112935191D01*
X112400437Y-112956743D01*
X112380643Y-113019130D01*
X112386426Y-113074893D01*
X112415334Y-113120707D01*
X112464916Y-113153243D01*
X112532719Y-113169175D01*
X112557755Y-113170222D01*
X112614883Y-113177859D01*
X112649570Y-113200229D01*
X112660555Y-113234219D01*
X112659642Y-113250003D01*
X112653469Y-113260101D01*
X112636882Y-113265783D01*
X112604729Y-113268318D01*
X112551858Y-113268977D01*
X112519444Y-113269000D01*
X112378333Y-113269000D01*
X112378333Y-113353667D01*
X112746458Y-113353667D01*
X112742312Y-113251862D01*
X112739420Y-113198531D01*
X112734023Y-113165300D01*
X112722967Y-113144054D01*
X112703101Y-113126678D01*
X112690218Y-113117806D01*
X112630256Y-113091342D01*
X112586985Y-113085556D01*
X112525998Y-113078485D01*
X112489347Y-113057305D01*
X112477111Y-113022059D01*
X112477111Y-113022056D01*
X112488850Y-112988236D01*
X112518732Y-112966398D01*
X112558759Y-112957896D01*
X112600930Y-112964084D01*
X112637245Y-112986315D01*
X112643923Y-112993834D01*
X112679461Y-113022229D01*
X112708447Y-113029111D01*
X112737149Y-113020522D01*
X112747182Y-112998417D01*
X112740733Y-112968293D01*
X112719991Y-112935645D01*
X112687147Y-112905968D01*
X112652018Y-112887437D01*
X112587391Y-112874091D01*
X112521068Y-112879067D01*
G36*
X113203254Y-112881933D02*
G01*
X113120121Y-112885883D01*
X113058777Y-112897968D01*
X113013341Y-112920772D01*
X112977933Y-112956876D01*
X112956650Y-112990219D01*
X112938200Y-113030251D01*
X112930304Y-113071617D01*
X112930723Y-113126865D01*
X112931108Y-113133201D01*
X112943797Y-113212800D01*
X112971936Y-113272760D01*
X113017833Y-113314858D01*
X113083791Y-113340874D01*
X113172115Y-113352586D01*
X113216890Y-113353667D01*
X113338571Y-113353667D01*
X113332335Y-112972667D01*
X113239111Y-112972667D01*
X113239111Y-113254889D01*
X113163959Y-113254889D01*
X113115155Y-113252337D01*
X113083151Y-113242206D01*
X113056790Y-113220779D01*
X113054598Y-113218474D01*
X113031890Y-113186428D01*
X113021897Y-113146841D01*
X113020389Y-113111419D01*
X113029866Y-113047847D01*
X113058919Y-113004130D01*
X113108475Y-112979404D01*
X113169342Y-112972667D01*
X113239111Y-112972667D01*
X113332335Y-112972667D01*
X113330833Y-112880945D01*
X113203254Y-112881933D01*
X113203254Y-112881933D01*
G37*
X113203254Y-112881933D02*
X113120121Y-112885883D01*
X113058777Y-112897968D01*
X113013341Y-112920772D01*
X112977933Y-112956876D01*
X112956650Y-112990219D01*
X112938200Y-113030251D01*
X112930304Y-113071617D01*
X112930723Y-113126865D01*
X112931108Y-113133201D01*
X112943797Y-113212800D01*
X112971936Y-113272760D01*
X113017833Y-113314858D01*
X113083791Y-113340874D01*
X113172115Y-113352586D01*
X113216890Y-113353667D01*
X113338571Y-113353667D01*
X113332335Y-112972667D01*
X113239111Y-112972667D01*
X113239111Y-113254889D01*
X113163959Y-113254889D01*
X113115155Y-113252337D01*
X113083151Y-113242206D01*
X113056790Y-113220779D01*
X113054598Y-113218474D01*
X113031890Y-113186428D01*
X113021897Y-113146841D01*
X113020389Y-113111419D01*
X113029866Y-113047847D01*
X113058919Y-113004130D01*
X113108475Y-112979404D01*
X113169342Y-112972667D01*
X113239111Y-112972667D01*
X113332335Y-112972667D01*
X113330833Y-112880945D01*
X113203254Y-112881933D01*
G36*
X113704777Y-113071445D02*
G01*
X113493111Y-113071445D01*
X113493111Y-112888000D01*
X113394333Y-112888000D01*
X113394333Y-113353667D01*
X113493111Y-113353667D01*
X113493111Y-113170222D01*
X113704777Y-113170222D01*
X113704777Y-113353667D01*
X113789444Y-113353667D01*
X113789444Y-112888000D01*
X113704777Y-112888000D01*
X113704777Y-113071445D01*
X113704777Y-113071445D01*
G37*
X113704777Y-113071445D02*
X113493111Y-113071445D01*
X113493111Y-112888000D01*
X113394333Y-112888000D01*
X113394333Y-113353667D01*
X113493111Y-113353667D01*
X113493111Y-113170222D01*
X113704777Y-113170222D01*
X113704777Y-113353667D01*
X113789444Y-113353667D01*
X113789444Y-112888000D01*
X113704777Y-112888000D01*
X113704777Y-113071445D01*
G36*
X114016989Y-112883405D02*
G01*
X113957802Y-112890559D01*
X113927194Y-112900134D01*
X113887911Y-112934758D01*
X113865292Y-112982358D01*
X113861830Y-113033638D01*
X113879365Y-113078424D01*
X113890406Y-113100123D01*
X113886123Y-113123160D01*
X113872363Y-113148148D01*
X113850088Y-113196500D01*
X113849809Y-113239927D01*
X113866627Y-113282282D01*
X113889734Y-113312533D01*
X113925365Y-113333523D01*
X113977740Y-113346495D01*
X114051077Y-113352687D01*
X114109391Y-113353667D01*
X114241682Y-113353667D01*
X114238449Y-113156111D01*
X114142222Y-113156111D01*
X114142222Y-113269000D01*
X114079641Y-113269000D01*
X114031606Y-113265848D01*
X113989419Y-113258005D01*
X113980863Y-113255238D01*
X113951708Y-113232628D01*
X113945819Y-113201158D01*
X113961600Y-113173045D01*
X113984221Y-113163797D01*
X114024889Y-113157646D01*
X114060378Y-113156111D01*
X114142222Y-113156111D01*
X114238449Y-113156111D01*
X114237063Y-113071445D01*
X114142222Y-113071445D01*
X114074363Y-113071445D01*
X114028425Y-113067688D01*
X113991258Y-113058202D01*
X113981107Y-113052873D01*
X113962816Y-113026863D01*
X113960913Y-113007012D01*
X113968209Y-112991513D01*
X113987061Y-112982352D01*
X114024011Y-112977319D01*
X114054169Y-112975521D01*
X114142222Y-112971320D01*
X114142222Y-113071445D01*
X114237063Y-113071445D01*
X114233944Y-112880945D01*
X114098497Y-112880945D01*
X114016989Y-112883405D01*
X114016989Y-112883405D01*
G37*
X114016989Y-112883405D02*
X113957802Y-112890559D01*
X113927194Y-112900134D01*
X113887911Y-112934758D01*
X113865292Y-112982358D01*
X113861830Y-113033638D01*
X113879365Y-113078424D01*
X113890406Y-113100123D01*
X113886123Y-113123160D01*
X113872363Y-113148148D01*
X113850088Y-113196500D01*
X113849809Y-113239927D01*
X113866627Y-113282282D01*
X113889734Y-113312533D01*
X113925365Y-113333523D01*
X113977740Y-113346495D01*
X114051077Y-113352687D01*
X114109391Y-113353667D01*
X114241682Y-113353667D01*
X114238449Y-113156111D01*
X114142222Y-113156111D01*
X114142222Y-113269000D01*
X114079641Y-113269000D01*
X114031606Y-113265848D01*
X113989419Y-113258005D01*
X113980863Y-113255238D01*
X113951708Y-113232628D01*
X113945819Y-113201158D01*
X113961600Y-113173045D01*
X113984221Y-113163797D01*
X114024889Y-113157646D01*
X114060378Y-113156111D01*
X114142222Y-113156111D01*
X114238449Y-113156111D01*
X114237063Y-113071445D01*
X114142222Y-113071445D01*
X114074363Y-113071445D01*
X114028425Y-113067688D01*
X113991258Y-113058202D01*
X113981107Y-113052873D01*
X113962816Y-113026863D01*
X113960913Y-113007012D01*
X113968209Y-112991513D01*
X113987061Y-112982352D01*
X114024011Y-112977319D01*
X114054169Y-112975521D01*
X114142222Y-112971320D01*
X114142222Y-113071445D01*
X114237063Y-113071445D01*
X114233944Y-112880945D01*
X114098497Y-112880945D01*
X114016989Y-112883405D01*
G36*
X114438555Y-113113778D02*
G01*
X114438709Y-113201198D01*
X114439475Y-113264335D01*
X114441311Y-113307128D01*
X114444677Y-113333518D01*
X114450031Y-113347442D01*
X114457830Y-113352840D01*
X114466469Y-113353667D01*
X114488052Y-113342732D01*
X114522093Y-113309433D01*
X114569287Y-113253030D01*
X114607580Y-113203316D01*
X114720777Y-113052965D01*
X114720777Y-113353667D01*
X114820238Y-113353667D01*
X114812500Y-112880945D01*
X114777775Y-112880945D01*
X114758462Y-112885936D01*
X114734827Y-112903064D01*
X114703546Y-112935558D01*
X114661294Y-112986648D01*
X114636663Y-113018051D01*
X114530277Y-113155157D01*
X114522235Y-112873889D01*
X114438555Y-112873889D01*
X114438555Y-113113778D01*
X114438555Y-113113778D01*
G37*
X114438555Y-113113778D02*
X114438709Y-113201198D01*
X114439475Y-113264335D01*
X114441311Y-113307128D01*
X114444677Y-113333518D01*
X114450031Y-113347442D01*
X114457830Y-113352840D01*
X114466469Y-113353667D01*
X114488052Y-113342732D01*
X114522093Y-113309433D01*
X114569287Y-113253030D01*
X114607580Y-113203316D01*
X114720777Y-113052965D01*
X114720777Y-113353667D01*
X114820238Y-113353667D01*
X114812500Y-112880945D01*
X114777775Y-112880945D01*
X114758462Y-112885936D01*
X114734827Y-112903064D01*
X114703546Y-112935558D01*
X114661294Y-112986648D01*
X114636663Y-113018051D01*
X114530277Y-113155157D01*
X114522235Y-112873889D01*
X114438555Y-112873889D01*
X114438555Y-113113778D01*
G36*
X115147165Y-112882071D02*
G01*
X115070932Y-112885029D01*
X115015560Y-112894475D01*
X114973885Y-112913565D01*
X114938743Y-112945456D01*
X114906529Y-112988075D01*
X114888019Y-113019949D01*
X114878989Y-113052814D01*
X114877302Y-113097392D01*
X114878586Y-113128205D01*
X114890372Y-113209092D01*
X114917310Y-113270075D01*
X114961761Y-113313016D01*
X115026084Y-113339779D01*
X115112642Y-113352228D01*
X115164224Y-113353667D01*
X115285904Y-113353667D01*
X115279668Y-112972667D01*
X115186444Y-112972667D01*
X115186444Y-113254889D01*
X115111293Y-113254889D01*
X115061590Y-113252122D01*
X115029166Y-113241612D01*
X115004901Y-113221635D01*
X114973628Y-113169221D01*
X114964526Y-113108092D01*
X114979048Y-113048693D01*
X114980487Y-113045825D01*
X115009351Y-113004599D01*
X115047562Y-112981645D01*
X115102712Y-112973039D01*
X115122016Y-112972667D01*
X115186444Y-112972667D01*
X115279668Y-112972667D01*
X115278166Y-112880945D01*
X115147165Y-112882071D01*
X115147165Y-112882071D01*
G37*
X115147165Y-112882071D02*
X115070932Y-112885029D01*
X115015560Y-112894475D01*
X114973885Y-112913565D01*
X114938743Y-112945456D01*
X114906529Y-112988075D01*
X114888019Y-113019949D01*
X114878989Y-113052814D01*
X114877302Y-113097392D01*
X114878586Y-113128205D01*
X114890372Y-113209092D01*
X114917310Y-113270075D01*
X114961761Y-113313016D01*
X115026084Y-113339779D01*
X115112642Y-113352228D01*
X115164224Y-113353667D01*
X115285904Y-113353667D01*
X115279668Y-112972667D01*
X115186444Y-112972667D01*
X115186444Y-113254889D01*
X115111293Y-113254889D01*
X115061590Y-113252122D01*
X115029166Y-113241612D01*
X115004901Y-113221635D01*
X114973628Y-113169221D01*
X114964526Y-113108092D01*
X114979048Y-113048693D01*
X114980487Y-113045825D01*
X115009351Y-113004599D01*
X115047562Y-112981645D01*
X115102712Y-112973039D01*
X115122016Y-112972667D01*
X115186444Y-112972667D01*
X115279668Y-112972667D01*
X115278166Y-112880945D01*
X115147165Y-112882071D01*
G36*
X115467356Y-112871819D02*
G01*
X115414959Y-112888899D01*
X115402358Y-112896786D01*
X115367775Y-112930713D01*
X115360038Y-112960208D01*
X115379383Y-112984092D01*
X115384322Y-112986951D01*
X115413174Y-112995556D01*
X115438020Y-112982010D01*
X115438090Y-112981947D01*
X115476360Y-112959424D01*
X115520427Y-112950372D01*
X115562507Y-112953969D01*
X115594811Y-112969395D01*
X115609556Y-112995830D01*
X115609777Y-113000043D01*
X115601613Y-113025896D01*
X115574552Y-113044930D01*
X115524740Y-113059343D01*
X115496889Y-113064419D01*
X115425877Y-113081635D01*
X115377966Y-113107740D01*
X115348690Y-113145569D01*
X115341747Y-113162921D01*
X115333066Y-113225563D01*
X115348742Y-113279328D01*
X115385691Y-113321941D01*
X115440832Y-113351125D01*
X115511080Y-113364603D01*
X115593354Y-113360097D01*
X115605736Y-113357887D01*
X115634961Y-113344910D01*
X115669462Y-113320142D01*
X115700685Y-113291039D01*
X115720074Y-113265056D01*
X115722666Y-113255981D01*
X115711191Y-113239129D01*
X115687249Y-113224036D01*
X115659621Y-113215829D01*
X115636251Y-113224367D01*
X115615898Y-113241656D01*
X115575602Y-113266364D01*
X115529272Y-113275872D01*
X115484316Y-113271365D01*
X115448138Y-113254028D01*
X115428146Y-113225046D01*
X115426333Y-113211324D01*
X115436377Y-113184930D01*
X115468432Y-113165032D01*
X115525388Y-113149923D01*
X115532426Y-113148635D01*
X115608218Y-113128973D01*
X115659785Y-113100313D01*
X115690219Y-113060746D01*
X115695144Y-113048157D01*
X115701771Y-112987835D01*
X115681865Y-112933822D01*
X115640100Y-112892721D01*
X115591579Y-112873531D01*
X115530113Y-112866630D01*
X115467356Y-112871819D01*
X115467356Y-112871819D01*
G37*
X115467356Y-112871819D02*
X115414959Y-112888899D01*
X115402358Y-112896786D01*
X115367775Y-112930713D01*
X115360038Y-112960208D01*
X115379383Y-112984092D01*
X115384322Y-112986951D01*
X115413174Y-112995556D01*
X115438020Y-112982010D01*
X115438090Y-112981947D01*
X115476360Y-112959424D01*
X115520427Y-112950372D01*
X115562507Y-112953969D01*
X115594811Y-112969395D01*
X115609556Y-112995830D01*
X115609777Y-113000043D01*
X115601613Y-113025896D01*
X115574552Y-113044930D01*
X115524740Y-113059343D01*
X115496889Y-113064419D01*
X115425877Y-113081635D01*
X115377966Y-113107740D01*
X115348690Y-113145569D01*
X115341747Y-113162921D01*
X115333066Y-113225563D01*
X115348742Y-113279328D01*
X115385691Y-113321941D01*
X115440832Y-113351125D01*
X115511080Y-113364603D01*
X115593354Y-113360097D01*
X115605736Y-113357887D01*
X115634961Y-113344910D01*
X115669462Y-113320142D01*
X115700685Y-113291039D01*
X115720074Y-113265056D01*
X115722666Y-113255981D01*
X115711191Y-113239129D01*
X115687249Y-113224036D01*
X115659621Y-113215829D01*
X115636251Y-113224367D01*
X115615898Y-113241656D01*
X115575602Y-113266364D01*
X115529272Y-113275872D01*
X115484316Y-113271365D01*
X115448138Y-113254028D01*
X115428146Y-113225046D01*
X115426333Y-113211324D01*
X115436377Y-113184930D01*
X115468432Y-113165032D01*
X115525388Y-113149923D01*
X115532426Y-113148635D01*
X115608218Y-113128973D01*
X115659785Y-113100313D01*
X115690219Y-113060746D01*
X115695144Y-113048157D01*
X115701771Y-112987835D01*
X115681865Y-112933822D01*
X115640100Y-112892721D01*
X115591579Y-112873531D01*
X115530113Y-112866630D01*
X115467356Y-112871819D01*
G36*
X115877889Y-112972667D02*
G01*
X116019000Y-112972667D01*
X116019000Y-113353667D01*
X116103666Y-113353667D01*
X116103666Y-112972667D01*
X116244777Y-112972667D01*
X116244777Y-112873889D01*
X115877889Y-112873889D01*
X115877889Y-112972667D01*
X115877889Y-112972667D01*
G37*
X115877889Y-112972667D02*
X116019000Y-112972667D01*
X116019000Y-113353667D01*
X116103666Y-113353667D01*
X116103666Y-112972667D01*
X116244777Y-112972667D01*
X116244777Y-112873889D01*
X115877889Y-112873889D01*
X115877889Y-112972667D01*
G36*
X116435286Y-112866003D02*
G01*
X116371837Y-112885724D01*
X116340504Y-112904284D01*
X116308709Y-112934208D01*
X116304585Y-112959298D01*
X116328083Y-112980038D01*
X116332972Y-112982354D01*
X116363729Y-112988452D01*
X116398161Y-112975820D01*
X116407055Y-112970582D01*
X116461684Y-112947617D01*
X116508629Y-112951289D01*
X116543378Y-112974934D01*
X116573868Y-113005424D01*
X116543465Y-113030043D01*
X116511524Y-113046541D01*
X116465309Y-113060227D01*
X116441833Y-113064458D01*
X116375829Y-113082055D01*
X116328857Y-113109382D01*
X116302167Y-113136630D01*
X116289974Y-113166775D01*
X116287111Y-113211350D01*
X116291309Y-113260928D01*
X116306298Y-113294143D01*
X116318861Y-113307934D01*
X116382637Y-113349036D01*
X116458760Y-113365709D01*
X116544676Y-113357494D01*
X116564918Y-113352221D01*
X116600417Y-113334412D01*
X116635170Y-113305655D01*
X116660487Y-113274332D01*
X116668111Y-113252684D01*
X116656737Y-113238153D01*
X116634389Y-113224808D01*
X116605162Y-113217254D01*
X116580619Y-113229944D01*
X116572326Y-113237785D01*
X116531535Y-113264678D01*
X116483957Y-113276169D01*
X116437204Y-113273062D01*
X116398885Y-113256160D01*
X116376611Y-113226266D01*
X116374449Y-113216906D01*
X116376454Y-113193818D01*
X116392853Y-113175937D01*
X116427860Y-113160838D01*
X116485688Y-113146098D01*
X116504377Y-113142150D01*
X116578361Y-113118995D01*
X116626922Y-113084820D01*
X116650930Y-113038856D01*
X116654000Y-113010489D01*
X116641608Y-112955350D01*
X116608077Y-112911481D01*
X116558870Y-112880733D01*
X116499451Y-112864956D01*
X116435286Y-112866003D01*
X116435286Y-112866003D01*
G37*
X116435286Y-112866003D02*
X116371837Y-112885724D01*
X116340504Y-112904284D01*
X116308709Y-112934208D01*
X116304585Y-112959298D01*
X116328083Y-112980038D01*
X116332972Y-112982354D01*
X116363729Y-112988452D01*
X116398161Y-112975820D01*
X116407055Y-112970582D01*
X116461684Y-112947617D01*
X116508629Y-112951289D01*
X116543378Y-112974934D01*
X116573868Y-113005424D01*
X116543465Y-113030043D01*
X116511524Y-113046541D01*
X116465309Y-113060227D01*
X116441833Y-113064458D01*
X116375829Y-113082055D01*
X116328857Y-113109382D01*
X116302167Y-113136630D01*
X116289974Y-113166775D01*
X116287111Y-113211350D01*
X116291309Y-113260928D01*
X116306298Y-113294143D01*
X116318861Y-113307934D01*
X116382637Y-113349036D01*
X116458760Y-113365709D01*
X116544676Y-113357494D01*
X116564918Y-113352221D01*
X116600417Y-113334412D01*
X116635170Y-113305655D01*
X116660487Y-113274332D01*
X116668111Y-113252684D01*
X116656737Y-113238153D01*
X116634389Y-113224808D01*
X116605162Y-113217254D01*
X116580619Y-113229944D01*
X116572326Y-113237785D01*
X116531535Y-113264678D01*
X116483957Y-113276169D01*
X116437204Y-113273062D01*
X116398885Y-113256160D01*
X116376611Y-113226266D01*
X116374449Y-113216906D01*
X116376454Y-113193818D01*
X116392853Y-113175937D01*
X116427860Y-113160838D01*
X116485688Y-113146098D01*
X116504377Y-113142150D01*
X116578361Y-113118995D01*
X116626922Y-113084820D01*
X116650930Y-113038856D01*
X116654000Y-113010489D01*
X116641608Y-112955350D01*
X116608077Y-112911481D01*
X116558870Y-112880733D01*
X116499451Y-112864956D01*
X116435286Y-112866003D01*
G36*
X116724555Y-112972667D02*
G01*
X116978555Y-112972667D01*
X116978555Y-113071445D01*
X116724555Y-113071445D01*
X116724555Y-113155013D01*
X116848027Y-113159090D01*
X116971500Y-113163167D01*
X116975922Y-113209028D01*
X116980343Y-113254889D01*
X116724555Y-113254889D01*
X116724555Y-113353667D01*
X117063222Y-113353667D01*
X117063222Y-112873889D01*
X116724555Y-112873889D01*
X116724555Y-112972667D01*
X116724555Y-112972667D01*
G37*
X116724555Y-112972667D02*
X116978555Y-112972667D01*
X116978555Y-113071445D01*
X116724555Y-113071445D01*
X116724555Y-113155013D01*
X116848027Y-113159090D01*
X116971500Y-113163167D01*
X116975922Y-113209028D01*
X116980343Y-113254889D01*
X116724555Y-113254889D01*
X116724555Y-113353667D01*
X117063222Y-113353667D01*
X117063222Y-112873889D01*
X116724555Y-112873889D01*
X116724555Y-112972667D01*
G36*
X117276517Y-112883772D02*
G01*
X117216769Y-112893720D01*
X117174569Y-112912988D01*
X117144794Y-112943775D01*
X117125138Y-112981336D01*
X117113073Y-113039660D01*
X117121841Y-113097269D01*
X117149027Y-113145311D01*
X117175943Y-113167513D01*
X117216404Y-113190734D01*
X117153924Y-113263868D01*
X117122558Y-113301716D01*
X117100130Y-113330942D01*
X117091445Y-113345281D01*
X117091444Y-113345334D01*
X117103921Y-113350671D01*
X117134856Y-113353453D01*
X117144361Y-113353571D01*
X117174671Y-113351032D01*
X117199484Y-113340250D01*
X117226222Y-113316283D01*
X117260777Y-113276056D01*
X117299953Y-113231888D01*
X117330176Y-113207569D01*
X117357112Y-113198807D01*
X117363083Y-113198540D01*
X117385278Y-113200092D01*
X117396832Y-113209506D01*
X117401212Y-113233710D01*
X117401889Y-113276056D01*
X117401889Y-113353667D01*
X117501349Y-113353667D01*
X117497423Y-113113778D01*
X117401889Y-113113778D01*
X117326465Y-113113778D01*
X117275098Y-113110659D01*
X117242362Y-113099592D01*
X117225113Y-113085128D01*
X117207533Y-113056163D01*
X117210994Y-113022962D01*
X117212627Y-113018101D01*
X117222385Y-112996852D01*
X117237884Y-112984780D01*
X117266717Y-112978694D01*
X117313978Y-112975521D01*
X117401889Y-112971320D01*
X117401889Y-113113778D01*
X117497423Y-113113778D01*
X117493611Y-112880945D01*
X117358932Y-112880945D01*
X117276517Y-112883772D01*
X117276517Y-112883772D01*
G37*
X117276517Y-112883772D02*
X117216769Y-112893720D01*
X117174569Y-112912988D01*
X117144794Y-112943775D01*
X117125138Y-112981336D01*
X117113073Y-113039660D01*
X117121841Y-113097269D01*
X117149027Y-113145311D01*
X117175943Y-113167513D01*
X117216404Y-113190734D01*
X117153924Y-113263868D01*
X117122558Y-113301716D01*
X117100130Y-113330942D01*
X117091445Y-113345281D01*
X117091444Y-113345334D01*
X117103921Y-113350671D01*
X117134856Y-113353453D01*
X117144361Y-113353571D01*
X117174671Y-113351032D01*
X117199484Y-113340250D01*
X117226222Y-113316283D01*
X117260777Y-113276056D01*
X117299953Y-113231888D01*
X117330176Y-113207569D01*
X117357112Y-113198807D01*
X117363083Y-113198540D01*
X117385278Y-113200092D01*
X117396832Y-113209506D01*
X117401212Y-113233710D01*
X117401889Y-113276056D01*
X117401889Y-113353667D01*
X117501349Y-113353667D01*
X117497423Y-113113778D01*
X117401889Y-113113778D01*
X117326465Y-113113778D01*
X117275098Y-113110659D01*
X117242362Y-113099592D01*
X117225113Y-113085128D01*
X117207533Y-113056163D01*
X117210994Y-113022962D01*
X117212627Y-113018101D01*
X117222385Y-112996852D01*
X117237884Y-112984780D01*
X117266717Y-112978694D01*
X117313978Y-112975521D01*
X117401889Y-112971320D01*
X117401889Y-113113778D01*
X117497423Y-113113778D01*
X117493611Y-112880945D01*
X117358932Y-112880945D01*
X117276517Y-112883772D01*
G36*
X117767855Y-112877354D02*
G01*
X117686909Y-112893312D01*
X117625503Y-112929616D01*
X117583614Y-112986293D01*
X117561221Y-113063368D01*
X117557111Y-113124407D01*
X117567634Y-113206808D01*
X117600473Y-113273632D01*
X117655889Y-113327594D01*
X117708219Y-113351558D01*
X117774120Y-113361476D01*
X117842119Y-113356314D01*
X117874611Y-113347287D01*
X117936661Y-113310983D01*
X117981572Y-113257606D01*
X118009087Y-113192696D01*
X118014801Y-113151608D01*
X117922616Y-113151608D01*
X117915886Y-113183940D01*
X117897314Y-113213594D01*
X117888976Y-113223791D01*
X117858535Y-113253838D01*
X117826317Y-113266697D01*
X117789477Y-113269000D01*
X117732102Y-113260966D01*
X117690565Y-113236785D01*
X117661133Y-113199531D01*
X117646716Y-113147183D01*
X117645873Y-113140345D01*
X117648935Y-113070898D01*
X117672926Y-113015678D01*
X117714549Y-112978099D01*
X117770507Y-112961573D01*
X117815994Y-112964273D01*
X117866984Y-112983419D01*
X117900089Y-113020277D01*
X117917807Y-113078175D01*
X117920838Y-113104065D01*
X117922616Y-113151608D01*
X118014801Y-113151608D01*
X118018948Y-113121797D01*
X118010897Y-113050451D01*
X117984678Y-112984200D01*
X117940031Y-112928587D01*
X117895496Y-112897809D01*
X117843576Y-112880117D01*
X117778695Y-112876771D01*
X117767855Y-112877354D01*
X117767855Y-112877354D01*
G37*
X117767855Y-112877354D02*
X117686909Y-112893312D01*
X117625503Y-112929616D01*
X117583614Y-112986293D01*
X117561221Y-113063368D01*
X117557111Y-113124407D01*
X117567634Y-113206808D01*
X117600473Y-113273632D01*
X117655889Y-113327594D01*
X117708219Y-113351558D01*
X117774120Y-113361476D01*
X117842119Y-113356314D01*
X117874611Y-113347287D01*
X117936661Y-113310983D01*
X117981572Y-113257606D01*
X118009087Y-113192696D01*
X118014801Y-113151608D01*
X117922616Y-113151608D01*
X117915886Y-113183940D01*
X117897314Y-113213594D01*
X117888976Y-113223791D01*
X117858535Y-113253838D01*
X117826317Y-113266697D01*
X117789477Y-113269000D01*
X117732102Y-113260966D01*
X117690565Y-113236785D01*
X117661133Y-113199531D01*
X117646716Y-113147183D01*
X117645873Y-113140345D01*
X117648935Y-113070898D01*
X117672926Y-113015678D01*
X117714549Y-112978099D01*
X117770507Y-112961573D01*
X117815994Y-112964273D01*
X117866984Y-112983419D01*
X117900089Y-113020277D01*
X117917807Y-113078175D01*
X117920838Y-113104065D01*
X117922616Y-113151608D01*
X118014801Y-113151608D01*
X118018948Y-113121797D01*
X118010897Y-113050451D01*
X117984678Y-112984200D01*
X117940031Y-112928587D01*
X117895496Y-112897809D01*
X117843576Y-112880117D01*
X117778695Y-112876771D01*
X117767855Y-112877354D01*
G36*
X118065111Y-112972667D02*
G01*
X118305000Y-112972667D01*
X118305000Y-113085556D01*
X118079222Y-113085556D01*
X118079222Y-113184334D01*
X118305000Y-113184334D01*
X118305000Y-113353667D01*
X118389666Y-113353667D01*
X118389666Y-112888000D01*
X118065111Y-112888000D01*
X118065111Y-112972667D01*
X118065111Y-112972667D01*
G37*
X118065111Y-112972667D02*
X118305000Y-112972667D01*
X118305000Y-113085556D01*
X118079222Y-113085556D01*
X118079222Y-113184334D01*
X118305000Y-113184334D01*
X118305000Y-113353667D01*
X118389666Y-113353667D01*
X118389666Y-112888000D01*
X118065111Y-112888000D01*
X118065111Y-112972667D01*
G36*
X118805944Y-113261945D02*
G01*
X118689527Y-113266043D01*
X118573111Y-113270142D01*
X118573111Y-113353667D01*
X118897666Y-113353667D01*
X118897666Y-112873889D01*
X118813796Y-112873889D01*
X118805944Y-113261945D01*
X118805944Y-113261945D01*
G37*
X118805944Y-113261945D02*
X118689527Y-113266043D01*
X118573111Y-113270142D01*
X118573111Y-113353667D01*
X118897666Y-113353667D01*
X118897666Y-112873889D01*
X118813796Y-112873889D01*
X118805944Y-113261945D01*
G36*
X119049252Y-113088382D02*
G01*
X119017412Y-113162180D01*
X118989063Y-113228197D01*
X118966303Y-113281517D01*
X118951235Y-113317224D01*
X118946439Y-113328972D01*
X118944551Y-113345363D01*
X118959926Y-113352404D01*
X118988613Y-113353667D01*
X119024853Y-113350263D01*
X119044348Y-113335324D01*
X119055003Y-113311334D01*
X119069761Y-113269000D01*
X119308357Y-113269000D01*
X119323114Y-113311334D01*
X119338208Y-113340994D01*
X119362362Y-113352363D01*
X119385880Y-113353667D01*
X119417982Y-113350787D01*
X119433599Y-113343730D01*
X119433889Y-113342505D01*
X119428569Y-113326480D01*
X119413820Y-113289003D01*
X119391457Y-113234505D01*
X119364468Y-113170222D01*
X119263115Y-113170222D01*
X119193280Y-113170222D01*
X119153264Y-113167988D01*
X119127998Y-113162280D01*
X119123444Y-113157921D01*
X119128823Y-113139250D01*
X119142744Y-113103617D01*
X119157342Y-113069726D01*
X119176437Y-113028291D01*
X119188124Y-113009558D01*
X119196176Y-113010317D01*
X119204365Y-113027357D01*
X119205054Y-113029111D01*
X119219840Y-113065963D01*
X119238165Y-113110528D01*
X119240991Y-113117306D01*
X119263115Y-113170222D01*
X119364468Y-113170222D01*
X119363292Y-113167422D01*
X119337148Y-113106144D01*
X119240408Y-112880945D01*
X119191506Y-112876716D01*
X119142605Y-112872486D01*
X119049252Y-113088382D01*
X119049252Y-113088382D01*
G37*
X119049252Y-113088382D02*
X119017412Y-113162180D01*
X118989063Y-113228197D01*
X118966303Y-113281517D01*
X118951235Y-113317224D01*
X118946439Y-113328972D01*
X118944551Y-113345363D01*
X118959926Y-113352404D01*
X118988613Y-113353667D01*
X119024853Y-113350263D01*
X119044348Y-113335324D01*
X119055003Y-113311334D01*
X119069761Y-113269000D01*
X119308357Y-113269000D01*
X119323114Y-113311334D01*
X119338208Y-113340994D01*
X119362362Y-113352363D01*
X119385880Y-113353667D01*
X119417982Y-113350787D01*
X119433599Y-113343730D01*
X119433889Y-113342505D01*
X119428569Y-113326480D01*
X119413820Y-113289003D01*
X119391457Y-113234505D01*
X119364468Y-113170222D01*
X119263115Y-113170222D01*
X119193280Y-113170222D01*
X119153264Y-113167988D01*
X119127998Y-113162280D01*
X119123444Y-113157921D01*
X119128823Y-113139250D01*
X119142744Y-113103617D01*
X119157342Y-113069726D01*
X119176437Y-113028291D01*
X119188124Y-113009558D01*
X119196176Y-113010317D01*
X119204365Y-113027357D01*
X119205054Y-113029111D01*
X119219840Y-113065963D01*
X119238165Y-113110528D01*
X119240991Y-113117306D01*
X119263115Y-113170222D01*
X119364468Y-113170222D01*
X119363292Y-113167422D01*
X119337148Y-113106144D01*
X119240408Y-112880945D01*
X119191506Y-112876716D01*
X119142605Y-112872486D01*
X119049252Y-113088382D01*
G36*
X119627916Y-112877007D02*
G01*
X119440944Y-112880945D01*
X119440944Y-112923278D01*
X119442857Y-112948945D01*
X119453559Y-112962065D01*
X119480494Y-112967816D01*
X119507972Y-112969912D01*
X119575000Y-112974213D01*
X119575000Y-113353667D01*
X119673777Y-113353667D01*
X119673777Y-112972667D01*
X119814889Y-112972667D01*
X119814889Y-112873070D01*
X119627916Y-112877007D01*
X119627916Y-112877007D01*
G37*
X119627916Y-112877007D02*
X119440944Y-112880945D01*
X119440944Y-112923278D01*
X119442857Y-112948945D01*
X119453559Y-112962065D01*
X119480494Y-112967816D01*
X119507972Y-112969912D01*
X119575000Y-112974213D01*
X119575000Y-113353667D01*
X119673777Y-113353667D01*
X119673777Y-112972667D01*
X119814889Y-112972667D01*
X119814889Y-112873070D01*
X119627916Y-112877007D01*
G36*
X119885444Y-113353667D02*
G01*
X119970111Y-113353667D01*
X119970111Y-112873889D01*
X119885444Y-112873889D01*
X119885444Y-113353667D01*
X119885444Y-113353667D01*
G37*
X119885444Y-113353667D02*
X119970111Y-113353667D01*
X119970111Y-112873889D01*
X119885444Y-112873889D01*
X119885444Y-113353667D01*
G36*
X120151202Y-112881892D02*
G01*
X120100639Y-112901957D01*
X120066636Y-112926055D01*
X120056870Y-112945598D01*
X120069544Y-112966920D01*
X120079472Y-112976449D01*
X120101279Y-112990720D01*
X120124219Y-112986929D01*
X120139444Y-112979136D01*
X120188568Y-112962976D01*
X120244400Y-112960215D01*
X120292153Y-112971426D01*
X120295448Y-112973085D01*
X120329500Y-113005514D01*
X120354004Y-113056764D01*
X120364986Y-113117992D01*
X120365222Y-113128274D01*
X120352979Y-113189683D01*
X120318751Y-113235850D01*
X120266287Y-113263117D01*
X120220963Y-113269000D01*
X120168264Y-113263436D01*
X120137922Y-113244701D01*
X120125943Y-113209731D01*
X120125333Y-113195622D01*
X120127848Y-113170255D01*
X120140757Y-113158977D01*
X120172105Y-113156156D01*
X120181777Y-113156111D01*
X120217970Y-113154440D01*
X120234059Y-113145380D01*
X120238133Y-113122868D01*
X120238222Y-113113778D01*
X120238222Y-113071445D01*
X120040666Y-113071445D01*
X120040666Y-113183183D01*
X120041081Y-113239074D01*
X120043970Y-113274059D01*
X120051798Y-113295452D01*
X120067029Y-113310570D01*
X120088224Y-113324313D01*
X120160002Y-113353539D01*
X120239889Y-113361573D01*
X120315833Y-113347314D01*
X120382140Y-113309642D01*
X120428498Y-113252244D01*
X120450629Y-113195695D01*
X120460256Y-113114080D01*
X120447135Y-113035172D01*
X120413541Y-112965460D01*
X120361748Y-112911432D01*
X120347712Y-112902035D01*
X120289667Y-112880209D01*
X120220078Y-112873494D01*
X120151202Y-112881892D01*
X120151202Y-112881892D01*
G37*
X120151202Y-112881892D02*
X120100639Y-112901957D01*
X120066636Y-112926055D01*
X120056870Y-112945598D01*
X120069544Y-112966920D01*
X120079472Y-112976449D01*
X120101279Y-112990720D01*
X120124219Y-112986929D01*
X120139444Y-112979136D01*
X120188568Y-112962976D01*
X120244400Y-112960215D01*
X120292153Y-112971426D01*
X120295448Y-112973085D01*
X120329500Y-113005514D01*
X120354004Y-113056764D01*
X120364986Y-113117992D01*
X120365222Y-113128274D01*
X120352979Y-113189683D01*
X120318751Y-113235850D01*
X120266287Y-113263117D01*
X120220963Y-113269000D01*
X120168264Y-113263436D01*
X120137922Y-113244701D01*
X120125943Y-113209731D01*
X120125333Y-113195622D01*
X120127848Y-113170255D01*
X120140757Y-113158977D01*
X120172105Y-113156156D01*
X120181777Y-113156111D01*
X120217970Y-113154440D01*
X120234059Y-113145380D01*
X120238133Y-113122868D01*
X120238222Y-113113778D01*
X120238222Y-113071445D01*
X120040666Y-113071445D01*
X120040666Y-113183183D01*
X120041081Y-113239074D01*
X120043970Y-113274059D01*
X120051798Y-113295452D01*
X120067029Y-113310570D01*
X120088224Y-113324313D01*
X120160002Y-113353539D01*
X120239889Y-113361573D01*
X120315833Y-113347314D01*
X120382140Y-113309642D01*
X120428498Y-113252244D01*
X120450629Y-113195695D01*
X120460256Y-113114080D01*
X120447135Y-113035172D01*
X120413541Y-112965460D01*
X120361748Y-112911432D01*
X120347712Y-112902035D01*
X120289667Y-112880209D01*
X120220078Y-112873494D01*
X120151202Y-112881892D01*
G36*
X120520444Y-113353667D02*
G01*
X120605111Y-113353667D01*
X120605111Y-112873889D01*
X120520444Y-112873889D01*
X120520444Y-113353667D01*
X120520444Y-113353667D01*
G37*
X120520444Y-113353667D02*
X120605111Y-113353667D01*
X120605111Y-112873889D01*
X120520444Y-112873889D01*
X120520444Y-113353667D01*
G36*
X120944674Y-112877165D02*
G01*
X120858797Y-112885669D01*
X120795155Y-112901738D01*
X120748176Y-112928109D01*
X120712287Y-112967524D01*
X120692383Y-113001212D01*
X120669752Y-113067788D01*
X120664502Y-113139473D01*
X120676375Y-113206396D01*
X120698914Y-113251075D01*
X120734618Y-113293346D01*
X120771409Y-113321576D01*
X120816472Y-113338785D01*
X120876988Y-113347995D01*
X120937723Y-113351501D01*
X121070777Y-113356391D01*
X121070777Y-112972667D01*
X120986111Y-112972667D01*
X120986111Y-113254889D01*
X120907858Y-113254889D01*
X120857369Y-113252376D01*
X120824040Y-113242629D01*
X120797083Y-113222339D01*
X120794969Y-113220253D01*
X120768213Y-113180727D01*
X120760333Y-113129349D01*
X120760333Y-113129194D01*
X120768435Y-113060430D01*
X120794073Y-113012756D01*
X120839241Y-112984257D01*
X120905936Y-112973015D01*
X120923275Y-112972667D01*
X120986111Y-112972667D01*
X121070777Y-112972667D01*
X121070777Y-112869974D01*
X120944674Y-112877165D01*
X120944674Y-112877165D01*
G37*
X120944674Y-112877165D02*
X120858797Y-112885669D01*
X120795155Y-112901738D01*
X120748176Y-112928109D01*
X120712287Y-112967524D01*
X120692383Y-113001212D01*
X120669752Y-113067788D01*
X120664502Y-113139473D01*
X120676375Y-113206396D01*
X120698914Y-113251075D01*
X120734618Y-113293346D01*
X120771409Y-113321576D01*
X120816472Y-113338785D01*
X120876988Y-113347995D01*
X120937723Y-113351501D01*
X121070777Y-113356391D01*
X121070777Y-112972667D01*
X120986111Y-112972667D01*
X120986111Y-113254889D01*
X120907858Y-113254889D01*
X120857369Y-113252376D01*
X120824040Y-113242629D01*
X120797083Y-113222339D01*
X120794969Y-113220253D01*
X120768213Y-113180727D01*
X120760333Y-113129349D01*
X120760333Y-113129194D01*
X120768435Y-113060430D01*
X120794073Y-113012756D01*
X120839241Y-112984257D01*
X120905936Y-112973015D01*
X120923275Y-112972667D01*
X120986111Y-112972667D01*
X121070777Y-112972667D01*
X121070777Y-112869974D01*
X120944674Y-112877165D01*
G36*
X121373785Y-112893276D02*
G01*
X121307459Y-112932998D01*
X121297648Y-112941837D01*
X121249158Y-113003778D01*
X121224756Y-113070182D01*
X121221828Y-113137331D01*
X121237760Y-113201508D01*
X121269939Y-113258995D01*
X121315751Y-113306075D01*
X121372583Y-113339030D01*
X121437822Y-113354142D01*
X121508855Y-113347695D01*
X121567058Y-113325067D01*
X121626782Y-113283029D01*
X121664280Y-113229519D01*
X121682174Y-113159799D01*
X121684164Y-113121309D01*
X121627063Y-113121309D01*
X121620843Y-113157045D01*
X121591966Y-113219395D01*
X121546419Y-113259830D01*
X121482380Y-113279662D01*
X121446839Y-113282217D01*
X121405504Y-113277813D01*
X121370860Y-113259075D01*
X121345365Y-113235965D01*
X121300652Y-113177367D01*
X121284134Y-113118853D01*
X121295790Y-113059897D01*
X121335599Y-112999971D01*
X121336115Y-112999393D01*
X121385712Y-112961609D01*
X121441190Y-112946965D01*
X121497415Y-112952616D01*
X121549250Y-112975720D01*
X121591560Y-113013432D01*
X121619210Y-113062909D01*
X121627063Y-113121309D01*
X121684164Y-113121309D01*
X121684611Y-113112680D01*
X121682780Y-113057588D01*
X121675316Y-113019605D01*
X121659266Y-112987747D01*
X121646048Y-112969300D01*
X121589148Y-112916019D01*
X121520734Y-112885267D01*
X121446912Y-112877526D01*
X121373785Y-112893276D01*
X121373785Y-112893276D01*
G37*
X121373785Y-112893276D02*
X121307459Y-112932998D01*
X121297648Y-112941837D01*
X121249158Y-113003778D01*
X121224756Y-113070182D01*
X121221828Y-113137331D01*
X121237760Y-113201508D01*
X121269939Y-113258995D01*
X121315751Y-113306075D01*
X121372583Y-113339030D01*
X121437822Y-113354142D01*
X121508855Y-113347695D01*
X121567058Y-113325067D01*
X121626782Y-113283029D01*
X121664280Y-113229519D01*
X121682174Y-113159799D01*
X121684164Y-113121309D01*
X121627063Y-113121309D01*
X121620843Y-113157045D01*
X121591966Y-113219395D01*
X121546419Y-113259830D01*
X121482380Y-113279662D01*
X121446839Y-113282217D01*
X121405504Y-113277813D01*
X121370860Y-113259075D01*
X121345365Y-113235965D01*
X121300652Y-113177367D01*
X121284134Y-113118853D01*
X121295790Y-113059897D01*
X121335599Y-112999971D01*
X121336115Y-112999393D01*
X121385712Y-112961609D01*
X121441190Y-112946965D01*
X121497415Y-112952616D01*
X121549250Y-112975720D01*
X121591560Y-113013432D01*
X121619210Y-113062909D01*
X121627063Y-113121309D01*
X121684164Y-113121309D01*
X121684611Y-113112680D01*
X121682780Y-113057588D01*
X121675316Y-113019605D01*
X121659266Y-112987747D01*
X121646048Y-112969300D01*
X121589148Y-112916019D01*
X121520734Y-112885267D01*
X121446912Y-112877526D01*
X121373785Y-112893276D01*
G36*
X121401350Y-112986613D02*
G01*
X121371765Y-113004298D01*
X121355993Y-113023763D01*
X121359841Y-113040348D01*
X121373048Y-113056098D01*
X121395906Y-113074706D01*
X121417847Y-113071393D01*
X121425071Y-113067224D01*
X121457323Y-113059584D01*
X121484948Y-113072448D01*
X121502535Y-113098110D01*
X121504673Y-113128861D01*
X121487318Y-113155893D01*
X121463764Y-113167103D01*
X121433595Y-113159966D01*
X121428363Y-113157655D01*
X121397365Y-113148430D01*
X121373186Y-113158215D01*
X121364164Y-113165834D01*
X121345804Y-113184805D01*
X121348004Y-113198482D01*
X121367557Y-113215754D01*
X121414801Y-113237599D01*
X121470061Y-113239809D01*
X121521713Y-113223017D01*
X121544141Y-113206142D01*
X121572625Y-113159717D01*
X121580676Y-113104582D01*
X121568368Y-113050767D01*
X121542704Y-113014253D01*
X121500286Y-112989291D01*
X121449533Y-112979866D01*
X121401350Y-112986613D01*
X121401350Y-112986613D01*
G37*
X121401350Y-112986613D02*
X121371765Y-113004298D01*
X121355993Y-113023763D01*
X121359841Y-113040348D01*
X121373048Y-113056098D01*
X121395906Y-113074706D01*
X121417847Y-113071393D01*
X121425071Y-113067224D01*
X121457323Y-113059584D01*
X121484948Y-113072448D01*
X121502535Y-113098110D01*
X121504673Y-113128861D01*
X121487318Y-113155893D01*
X121463764Y-113167103D01*
X121433595Y-113159966D01*
X121428363Y-113157655D01*
X121397365Y-113148430D01*
X121373186Y-113158215D01*
X121364164Y-113165834D01*
X121345804Y-113184805D01*
X121348004Y-113198482D01*
X121367557Y-113215754D01*
X121414801Y-113237599D01*
X121470061Y-113239809D01*
X121521713Y-113223017D01*
X121544141Y-113206142D01*
X121572625Y-113159717D01*
X121580676Y-113104582D01*
X121568368Y-113050767D01*
X121542704Y-113014253D01*
X121500286Y-112989291D01*
X121449533Y-112979866D01*
X121401350Y-112986613D01*
G36*
X113557111Y-111867667D02*
G01*
X113500666Y-111867667D01*
X113464527Y-111869162D01*
X113448466Y-111878394D01*
X113444348Y-111902482D01*
X113444222Y-111917055D01*
X113445898Y-111948567D01*
X113456326Y-111962651D01*
X113483601Y-111966321D01*
X113501237Y-111966444D01*
X113558252Y-111966444D01*
X113554154Y-112082861D01*
X113550055Y-112199278D01*
X113500790Y-112203953D01*
X113464767Y-112211460D01*
X113442204Y-112223586D01*
X113441033Y-112225120D01*
X113430747Y-112257941D01*
X113435056Y-112290726D01*
X113452241Y-112310583D01*
X113452432Y-112310657D01*
X113503695Y-112319698D01*
X113560628Y-112314438D01*
X113609058Y-112296610D01*
X113618222Y-112290358D01*
X113651349Y-112250623D01*
X113672613Y-112191420D01*
X113682821Y-112109938D01*
X113684032Y-112061694D01*
X113684641Y-112011228D01*
X113687911Y-111982722D01*
X113696166Y-111969916D01*
X113711730Y-111966550D01*
X113719388Y-111966444D01*
X113743245Y-111962754D01*
X113753012Y-111946149D01*
X113754666Y-111917055D01*
X113751988Y-111883613D01*
X113740113Y-111869931D01*
X113720200Y-111867667D01*
X113698119Y-111864254D01*
X113686994Y-111848915D01*
X113681872Y-111813994D01*
X113681394Y-111807694D01*
X113677294Y-111770026D01*
X113666641Y-111752064D01*
X113640987Y-111745359D01*
X113617083Y-111743383D01*
X113557111Y-111739044D01*
X113557111Y-111867667D01*
X113557111Y-111867667D01*
G37*
X113557111Y-111867667D02*
X113500666Y-111867667D01*
X113464527Y-111869162D01*
X113448466Y-111878394D01*
X113444348Y-111902482D01*
X113444222Y-111917055D01*
X113445898Y-111948567D01*
X113456326Y-111962651D01*
X113483601Y-111966321D01*
X113501237Y-111966444D01*
X113558252Y-111966444D01*
X113554154Y-112082861D01*
X113550055Y-112199278D01*
X113500790Y-112203953D01*
X113464767Y-112211460D01*
X113442204Y-112223586D01*
X113441033Y-112225120D01*
X113430747Y-112257941D01*
X113435056Y-112290726D01*
X113452241Y-112310583D01*
X113452432Y-112310657D01*
X113503695Y-112319698D01*
X113560628Y-112314438D01*
X113609058Y-112296610D01*
X113618222Y-112290358D01*
X113651349Y-112250623D01*
X113672613Y-112191420D01*
X113682821Y-112109938D01*
X113684032Y-112061694D01*
X113684641Y-112011228D01*
X113687911Y-111982722D01*
X113696166Y-111969916D01*
X113711730Y-111966550D01*
X113719388Y-111966444D01*
X113743245Y-111962754D01*
X113753012Y-111946149D01*
X113754666Y-111917055D01*
X113751988Y-111883613D01*
X113740113Y-111869931D01*
X113720200Y-111867667D01*
X113698119Y-111864254D01*
X113686994Y-111848915D01*
X113681872Y-111813994D01*
X113681394Y-111807694D01*
X113677294Y-111770026D01*
X113666641Y-111752064D01*
X113640987Y-111745359D01*
X113617083Y-111743383D01*
X113557111Y-111739044D01*
X113557111Y-111867667D01*
G36*
X113886831Y-111865088D02*
G01*
X113862324Y-111874802D01*
X113826700Y-111893362D01*
X113814296Y-111908988D01*
X113822487Y-111930088D01*
X113838338Y-111951667D01*
X113860168Y-111974800D01*
X113881412Y-111977317D01*
X113902188Y-111969306D01*
X113947543Y-111955513D01*
X113991829Y-111953045D01*
X114028848Y-111960369D01*
X114052401Y-111975951D01*
X114056289Y-111998257D01*
X114052420Y-112006480D01*
X114033537Y-112017603D01*
X113995237Y-112028892D01*
X113950921Y-112037090D01*
X113896402Y-112046957D01*
X113859895Y-112060776D01*
X113831195Y-112083044D01*
X113820162Y-112094714D01*
X113793843Y-112129527D01*
X113785434Y-112160976D01*
X113787853Y-112189127D01*
X113810402Y-112248503D01*
X113853532Y-112293236D01*
X113912630Y-112321394D01*
X113983080Y-112331048D01*
X114060269Y-112320266D01*
X114083684Y-112312889D01*
X114125905Y-112294145D01*
X114160297Y-112272809D01*
X114164460Y-112269316D01*
X114181714Y-112251397D01*
X114182586Y-112235762D01*
X114166944Y-112210633D01*
X114163747Y-112206135D01*
X114136110Y-112167321D01*
X114080567Y-112194802D01*
X114018354Y-112215033D01*
X113970984Y-112217835D01*
X113935391Y-112212420D01*
X113920039Y-112200250D01*
X113916944Y-112178305D01*
X113919834Y-112157433D01*
X113933097Y-112145033D01*
X113963624Y-112136877D01*
X113991687Y-112132465D01*
X114072667Y-112113113D01*
X114131885Y-112082765D01*
X114167984Y-112043518D01*
X114179602Y-111997469D01*
X114165381Y-111946717D01*
X114137527Y-111907482D01*
X114111914Y-111882167D01*
X114085622Y-111867604D01*
X114048809Y-111859987D01*
X114005296Y-111856343D01*
X113937777Y-111855784D01*
X113886831Y-111865088D01*
X113886831Y-111865088D01*
G37*
X113886831Y-111865088D02*
X113862324Y-111874802D01*
X113826700Y-111893362D01*
X113814296Y-111908988D01*
X113822487Y-111930088D01*
X113838338Y-111951667D01*
X113860168Y-111974800D01*
X113881412Y-111977317D01*
X113902188Y-111969306D01*
X113947543Y-111955513D01*
X113991829Y-111953045D01*
X114028848Y-111960369D01*
X114052401Y-111975951D01*
X114056289Y-111998257D01*
X114052420Y-112006480D01*
X114033537Y-112017603D01*
X113995237Y-112028892D01*
X113950921Y-112037090D01*
X113896402Y-112046957D01*
X113859895Y-112060776D01*
X113831195Y-112083044D01*
X113820162Y-112094714D01*
X113793843Y-112129527D01*
X113785434Y-112160976D01*
X113787853Y-112189127D01*
X113810402Y-112248503D01*
X113853532Y-112293236D01*
X113912630Y-112321394D01*
X113983080Y-112331048D01*
X114060269Y-112320266D01*
X114083684Y-112312889D01*
X114125905Y-112294145D01*
X114160297Y-112272809D01*
X114164460Y-112269316D01*
X114181714Y-112251397D01*
X114182586Y-112235762D01*
X114166944Y-112210633D01*
X114163747Y-112206135D01*
X114136110Y-112167321D01*
X114080567Y-112194802D01*
X114018354Y-112215033D01*
X113970984Y-112217835D01*
X113935391Y-112212420D01*
X113920039Y-112200250D01*
X113916944Y-112178305D01*
X113919834Y-112157433D01*
X113933097Y-112145033D01*
X113963624Y-112136877D01*
X113991687Y-112132465D01*
X114072667Y-112113113D01*
X114131885Y-112082765D01*
X114167984Y-112043518D01*
X114179602Y-111997469D01*
X114165381Y-111946717D01*
X114137527Y-111907482D01*
X114111914Y-111882167D01*
X114085622Y-111867604D01*
X114048809Y-111859987D01*
X114005296Y-111856343D01*
X113937777Y-111855784D01*
X113886831Y-111865088D01*
G36*
X114402603Y-111860179D02*
G01*
X114334107Y-111885252D01*
X114285076Y-111930229D01*
X114256359Y-111994379D01*
X114248555Y-112063360D01*
X114248555Y-112135778D01*
X114417888Y-112135778D01*
X114483258Y-112136707D01*
X114536903Y-112139240D01*
X114573372Y-112142992D01*
X114587213Y-112147579D01*
X114587222Y-112147702D01*
X114577765Y-112164957D01*
X114557498Y-112186507D01*
X114521879Y-112204062D01*
X114472069Y-112212179D01*
X114420167Y-112210485D01*
X114378268Y-112198606D01*
X114368642Y-112192341D01*
X114350311Y-112182430D01*
X114331356Y-112189661D01*
X114309507Y-112209523D01*
X114286031Y-112240211D01*
X114286918Y-112264510D01*
X114313565Y-112286343D01*
X114341547Y-112299495D01*
X114406382Y-112315896D01*
X114480705Y-112318593D01*
X114552468Y-112308121D01*
X114604977Y-112287836D01*
X114659868Y-112240743D01*
X114695972Y-112177585D01*
X114711652Y-112104709D01*
X114705272Y-112028463D01*
X114703632Y-112023913D01*
X114587222Y-112023913D01*
X114574228Y-112029990D01*
X114539697Y-112034567D01*
X114490306Y-112036868D01*
X114474333Y-112037000D01*
X114418428Y-112035349D01*
X114379142Y-112030844D01*
X114361820Y-112024151D01*
X114361444Y-112022889D01*
X114373822Y-111995485D01*
X114404580Y-111970633D01*
X114444152Y-111954824D01*
X114465374Y-111952333D01*
X114503138Y-111959488D01*
X114542303Y-111977262D01*
X114573449Y-112000125D01*
X114587159Y-112022541D01*
X114587222Y-112023913D01*
X114703632Y-112023913D01*
X114685795Y-111974427D01*
X114649967Y-111918221D01*
X114605112Y-111882117D01*
X114544727Y-111862183D01*
X114489715Y-111855740D01*
X114402603Y-111860179D01*
X114402603Y-111860179D01*
G37*
X114402603Y-111860179D02*
X114334107Y-111885252D01*
X114285076Y-111930229D01*
X114256359Y-111994379D01*
X114248555Y-112063360D01*
X114248555Y-112135778D01*
X114417888Y-112135778D01*
X114483258Y-112136707D01*
X114536903Y-112139240D01*
X114573372Y-112142992D01*
X114587213Y-112147579D01*
X114587222Y-112147702D01*
X114577765Y-112164957D01*
X114557498Y-112186507D01*
X114521879Y-112204062D01*
X114472069Y-112212179D01*
X114420167Y-112210485D01*
X114378268Y-112198606D01*
X114368642Y-112192341D01*
X114350311Y-112182430D01*
X114331356Y-112189661D01*
X114309507Y-112209523D01*
X114286031Y-112240211D01*
X114286918Y-112264510D01*
X114313565Y-112286343D01*
X114341547Y-112299495D01*
X114406382Y-112315896D01*
X114480705Y-112318593D01*
X114552468Y-112308121D01*
X114604977Y-112287836D01*
X114659868Y-112240743D01*
X114695972Y-112177585D01*
X114711652Y-112104709D01*
X114705272Y-112028463D01*
X114703632Y-112023913D01*
X114587222Y-112023913D01*
X114574228Y-112029990D01*
X114539697Y-112034567D01*
X114490306Y-112036868D01*
X114474333Y-112037000D01*
X114418428Y-112035349D01*
X114379142Y-112030844D01*
X114361820Y-112024151D01*
X114361444Y-112022889D01*
X114373822Y-111995485D01*
X114404580Y-111970633D01*
X114444152Y-111954824D01*
X114465374Y-111952333D01*
X114503138Y-111959488D01*
X114542303Y-111977262D01*
X114573449Y-112000125D01*
X114587159Y-112022541D01*
X114587222Y-112023913D01*
X114703632Y-112023913D01*
X114685795Y-111974427D01*
X114649967Y-111918221D01*
X114605112Y-111882117D01*
X114544727Y-111862183D01*
X114489715Y-111855740D01*
X114402603Y-111860179D01*
G36*
X114781784Y-111863353D02*
G01*
X114764275Y-111869932D01*
X114739480Y-111882635D01*
X114731282Y-111896054D01*
X114738498Y-111918928D01*
X114753692Y-111948246D01*
X114773318Y-111977750D01*
X114790543Y-111983980D01*
X114798961Y-111980212D01*
X114844258Y-111966802D01*
X114893789Y-111975302D01*
X114933585Y-112001081D01*
X114949457Y-112019019D01*
X114959575Y-112038833D01*
X114965220Y-112067053D01*
X114967675Y-112110209D01*
X114968221Y-112174830D01*
X114968222Y-112177470D01*
X114968222Y-112319222D01*
X115081111Y-112319222D01*
X115081111Y-111867667D01*
X115024666Y-111867667D01*
X114989323Y-111870973D01*
X114969663Y-111879233D01*
X114968222Y-111882578D01*
X114958713Y-111886703D01*
X114936860Y-111875522D01*
X114893300Y-111858613D01*
X114837290Y-111854417D01*
X114781784Y-111863353D01*
X114781784Y-111863353D01*
G37*
X114781784Y-111863353D02*
X114764275Y-111869932D01*
X114739480Y-111882635D01*
X114731282Y-111896054D01*
X114738498Y-111918928D01*
X114753692Y-111948246D01*
X114773318Y-111977750D01*
X114790543Y-111983980D01*
X114798961Y-111980212D01*
X114844258Y-111966802D01*
X114893789Y-111975302D01*
X114933585Y-112001081D01*
X114949457Y-112019019D01*
X114959575Y-112038833D01*
X114965220Y-112067053D01*
X114967675Y-112110209D01*
X114968221Y-112174830D01*
X114968222Y-112177470D01*
X114968222Y-112319222D01*
X115081111Y-112319222D01*
X115081111Y-111867667D01*
X115024666Y-111867667D01*
X114989323Y-111870973D01*
X114969663Y-111879233D01*
X114968222Y-111882578D01*
X114958713Y-111886703D01*
X114936860Y-111875522D01*
X114893300Y-111858613D01*
X114837290Y-111854417D01*
X114781784Y-111863353D01*
G36*
X115329738Y-111860798D02*
G01*
X115259920Y-111889146D01*
X115202381Y-111942350D01*
X115199388Y-111946210D01*
X115175767Y-111981660D01*
X115163461Y-112016196D01*
X115159047Y-112061734D01*
X115158722Y-112087783D01*
X115165281Y-112160328D01*
X115188020Y-112215844D01*
X115231534Y-112263012D01*
X115264412Y-112287472D01*
X115321376Y-112311719D01*
X115390333Y-112320204D01*
X115459755Y-112312759D01*
X115515156Y-112291076D01*
X115572323Y-112241205D01*
X115606324Y-112175325D01*
X115616877Y-112098504D01*
X115503647Y-112098504D01*
X115492295Y-112145581D01*
X115463386Y-112185224D01*
X115428851Y-112206452D01*
X115397247Y-112217234D01*
X115373103Y-112216320D01*
X115341555Y-112202591D01*
X115335410Y-112199432D01*
X115295321Y-112165500D01*
X115275750Y-112120818D01*
X115275042Y-112072091D01*
X115291539Y-112026026D01*
X115323583Y-111989327D01*
X115369517Y-111968702D01*
X115392991Y-111966444D01*
X115442113Y-111977963D01*
X115477580Y-112008165D01*
X115498417Y-112050522D01*
X115503647Y-112098504D01*
X115616877Y-112098504D01*
X115617280Y-112095577D01*
X115606685Y-112008715D01*
X115575372Y-111940239D01*
X115524245Y-111891214D01*
X115454211Y-111862702D01*
X115413598Y-111856569D01*
X115329738Y-111860798D01*
X115329738Y-111860798D01*
G37*
X115329738Y-111860798D02*
X115259920Y-111889146D01*
X115202381Y-111942350D01*
X115199388Y-111946210D01*
X115175767Y-111981660D01*
X115163461Y-112016196D01*
X115159047Y-112061734D01*
X115158722Y-112087783D01*
X115165281Y-112160328D01*
X115188020Y-112215844D01*
X115231534Y-112263012D01*
X115264412Y-112287472D01*
X115321376Y-112311719D01*
X115390333Y-112320204D01*
X115459755Y-112312759D01*
X115515156Y-112291076D01*
X115572323Y-112241205D01*
X115606324Y-112175325D01*
X115616877Y-112098504D01*
X115503647Y-112098504D01*
X115492295Y-112145581D01*
X115463386Y-112185224D01*
X115428851Y-112206452D01*
X115397247Y-112217234D01*
X115373103Y-112216320D01*
X115341555Y-112202591D01*
X115335410Y-112199432D01*
X115295321Y-112165500D01*
X115275750Y-112120818D01*
X115275042Y-112072091D01*
X115291539Y-112026026D01*
X115323583Y-111989327D01*
X115369517Y-111968702D01*
X115392991Y-111966444D01*
X115442113Y-111977963D01*
X115477580Y-112008165D01*
X115498417Y-112050522D01*
X115503647Y-112098504D01*
X115616877Y-112098504D01*
X115617280Y-112095577D01*
X115606685Y-112008715D01*
X115575372Y-111940239D01*
X115524245Y-111891214D01*
X115454211Y-111862702D01*
X115413598Y-111856569D01*
X115329738Y-111860798D01*
G36*
X115673777Y-111797111D02*
G01*
X115998333Y-111797111D01*
X115998333Y-111966444D01*
X115687888Y-111966444D01*
X115687888Y-112079333D01*
X115997192Y-112079333D01*
X116005388Y-112312167D01*
X116065361Y-112316506D01*
X116125333Y-112320845D01*
X116125333Y-111670111D01*
X115673777Y-111670111D01*
X115673777Y-111797111D01*
X115673777Y-111797111D01*
G37*
X115673777Y-111797111D02*
X115998333Y-111797111D01*
X115998333Y-111966444D01*
X115687888Y-111966444D01*
X115687888Y-112079333D01*
X115997192Y-112079333D01*
X116005388Y-112312167D01*
X116065361Y-112316506D01*
X116125333Y-112320845D01*
X116125333Y-111670111D01*
X115673777Y-111670111D01*
X115673777Y-111797111D01*
G36*
X116407555Y-112319222D02*
G01*
X116520444Y-112319222D01*
X116520444Y-111670111D01*
X116407555Y-111670111D01*
X116407555Y-112319222D01*
X116407555Y-112319222D01*
G37*
X116407555Y-112319222D02*
X116520444Y-112319222D01*
X116520444Y-111670111D01*
X116407555Y-111670111D01*
X116407555Y-112319222D01*
G36*
X116823370Y-111858873D02*
G01*
X116776752Y-111873528D01*
X116747498Y-111885172D01*
X116732646Y-111884144D01*
X116732111Y-111882140D01*
X116719495Y-111873529D01*
X116687556Y-111868346D01*
X116668252Y-111867667D01*
X116604394Y-111867667D01*
X116612166Y-112312167D01*
X116660395Y-112316765D01*
X116702245Y-112314049D01*
X116721068Y-112299126D01*
X116733376Y-112285103D01*
X116752359Y-112287331D01*
X116771617Y-112296356D01*
X116849425Y-112322253D01*
X116926476Y-112321113D01*
X116943777Y-112316943D01*
X117006688Y-112285661D01*
X117054293Y-112235853D01*
X117085689Y-112173267D01*
X117099975Y-112103647D01*
X117097623Y-112058904D01*
X116980124Y-112058904D01*
X116978496Y-112118195D01*
X116953688Y-112168742D01*
X116910542Y-112204656D01*
X116853903Y-112220050D01*
X116847442Y-112220236D01*
X116816765Y-112210730D01*
X116781616Y-112186875D01*
X116773359Y-112179196D01*
X116741015Y-112130729D01*
X116731809Y-112078865D01*
X116743385Y-112029817D01*
X116773386Y-111989798D01*
X116819456Y-111965020D01*
X116856486Y-111960030D01*
X116915878Y-111971061D01*
X116957295Y-112003624D01*
X116979742Y-112056925D01*
X116980124Y-112058904D01*
X117097623Y-112058904D01*
X117096247Y-112032739D01*
X117073604Y-111966289D01*
X117031142Y-111910041D01*
X117010359Y-111893059D01*
X116955760Y-111867728D01*
X116889371Y-111855994D01*
X116823370Y-111858873D01*
X116823370Y-111858873D01*
G37*
X116823370Y-111858873D02*
X116776752Y-111873528D01*
X116747498Y-111885172D01*
X116732646Y-111884144D01*
X116732111Y-111882140D01*
X116719495Y-111873529D01*
X116687556Y-111868346D01*
X116668252Y-111867667D01*
X116604394Y-111867667D01*
X116612166Y-112312167D01*
X116660395Y-112316765D01*
X116702245Y-112314049D01*
X116721068Y-112299126D01*
X116733376Y-112285103D01*
X116752359Y-112287331D01*
X116771617Y-112296356D01*
X116849425Y-112322253D01*
X116926476Y-112321113D01*
X116943777Y-112316943D01*
X117006688Y-112285661D01*
X117054293Y-112235853D01*
X117085689Y-112173267D01*
X117099975Y-112103647D01*
X117097623Y-112058904D01*
X116980124Y-112058904D01*
X116978496Y-112118195D01*
X116953688Y-112168742D01*
X116910542Y-112204656D01*
X116853903Y-112220050D01*
X116847442Y-112220236D01*
X116816765Y-112210730D01*
X116781616Y-112186875D01*
X116773359Y-112179196D01*
X116741015Y-112130729D01*
X116731809Y-112078865D01*
X116743385Y-112029817D01*
X116773386Y-111989798D01*
X116819456Y-111965020D01*
X116856486Y-111960030D01*
X116915878Y-111971061D01*
X116957295Y-112003624D01*
X116979742Y-112056925D01*
X116980124Y-112058904D01*
X117097623Y-112058904D01*
X117096247Y-112032739D01*
X117073604Y-111966289D01*
X117031142Y-111910041D01*
X117010359Y-111893059D01*
X116955760Y-111867728D01*
X116889371Y-111855994D01*
X116823370Y-111858873D01*
G36*
X118255959Y-111685189D02*
G01*
X118232486Y-111712064D01*
X118227888Y-111732300D01*
X118238215Y-111774924D01*
X118264150Y-111801181D01*
X118298129Y-111808458D01*
X118332585Y-111794140D01*
X118350064Y-111774519D01*
X118364462Y-111735926D01*
X118351952Y-111702659D01*
X118323291Y-111678873D01*
X118289830Y-111672108D01*
X118255959Y-111685189D01*
X118255959Y-111685189D01*
G37*
X118255959Y-111685189D02*
X118232486Y-111712064D01*
X118227888Y-111732300D01*
X118238215Y-111774924D01*
X118264150Y-111801181D01*
X118298129Y-111808458D01*
X118332585Y-111794140D01*
X118350064Y-111774519D01*
X118364462Y-111735926D01*
X118351952Y-111702659D01*
X118323291Y-111678873D01*
X118289830Y-111672108D01*
X118255959Y-111685189D01*
G36*
X117539266Y-111687044D02*
G01*
X117524033Y-111718313D01*
X117524402Y-111756421D01*
X117539124Y-111788168D01*
X117549627Y-111796614D01*
X117584942Y-111809831D01*
X117613080Y-111802029D01*
X117635222Y-111783000D01*
X117657996Y-111756154D01*
X117660270Y-111733911D01*
X117643012Y-111703672D01*
X117641477Y-111701473D01*
X117610210Y-111676524D01*
X117572154Y-111671266D01*
X117539266Y-111687044D01*
X117539266Y-111687044D01*
G37*
X117539266Y-111687044D02*
X117524033Y-111718313D01*
X117524402Y-111756421D01*
X117539124Y-111788168D01*
X117549627Y-111796614D01*
X117584942Y-111809831D01*
X117613080Y-111802029D01*
X117635222Y-111783000D01*
X117657996Y-111756154D01*
X117660270Y-111733911D01*
X117643012Y-111703672D01*
X117641477Y-111701473D01*
X117610210Y-111676524D01*
X117572154Y-111671266D01*
X117539266Y-111687044D01*
G36*
X117268333Y-111867667D02*
G01*
X117211888Y-111867667D01*
X117175749Y-111869162D01*
X117159689Y-111878394D01*
X117155570Y-111902482D01*
X117155444Y-111917055D01*
X117156800Y-111947402D01*
X117165987Y-111961772D01*
X117190686Y-111966140D01*
X117218944Y-111966444D01*
X117282444Y-111966444D01*
X117282444Y-112059094D01*
X117279736Y-112126717D01*
X117270113Y-112170807D01*
X117251327Y-112195662D01*
X117221130Y-112205583D01*
X117205458Y-112206333D01*
X117171758Y-112209797D01*
X117155342Y-112225624D01*
X117148001Y-112250429D01*
X117145564Y-112285878D01*
X117160013Y-112307071D01*
X117195270Y-112317052D01*
X117236360Y-112319006D01*
X117286298Y-112312964D01*
X117327718Y-112290223D01*
X117342194Y-112278063D01*
X117363572Y-112257807D01*
X117377295Y-112238636D01*
X117385366Y-112213624D01*
X117389785Y-112175844D01*
X117392555Y-112118369D01*
X117393167Y-112101675D01*
X117398057Y-111966444D01*
X117439028Y-111966444D01*
X117466578Y-111963548D01*
X117477876Y-111949174D01*
X117480000Y-111917055D01*
X117477640Y-111883873D01*
X117465670Y-111870263D01*
X117437666Y-111867667D01*
X117411635Y-111865826D01*
X117399306Y-111855197D01*
X117395572Y-111828123D01*
X117395333Y-111804167D01*
X117395333Y-111740667D01*
X117268333Y-111740667D01*
X117268333Y-111867667D01*
X117268333Y-111867667D01*
G37*
X117268333Y-111867667D02*
X117211888Y-111867667D01*
X117175749Y-111869162D01*
X117159689Y-111878394D01*
X117155570Y-111902482D01*
X117155444Y-111917055D01*
X117156800Y-111947402D01*
X117165987Y-111961772D01*
X117190686Y-111966140D01*
X117218944Y-111966444D01*
X117282444Y-111966444D01*
X117282444Y-112059094D01*
X117279736Y-112126717D01*
X117270113Y-112170807D01*
X117251327Y-112195662D01*
X117221130Y-112205583D01*
X117205458Y-112206333D01*
X117171758Y-112209797D01*
X117155342Y-112225624D01*
X117148001Y-112250429D01*
X117145564Y-112285878D01*
X117160013Y-112307071D01*
X117195270Y-112317052D01*
X117236360Y-112319006D01*
X117286298Y-112312964D01*
X117327718Y-112290223D01*
X117342194Y-112278063D01*
X117363572Y-112257807D01*
X117377295Y-112238636D01*
X117385366Y-112213624D01*
X117389785Y-112175844D01*
X117392555Y-112118369D01*
X117393167Y-112101675D01*
X117398057Y-111966444D01*
X117439028Y-111966444D01*
X117466578Y-111963548D01*
X117477876Y-111949174D01*
X117480000Y-111917055D01*
X117477640Y-111883873D01*
X117465670Y-111870263D01*
X117437666Y-111867667D01*
X117411635Y-111865826D01*
X117399306Y-111855197D01*
X117395572Y-111828123D01*
X117395333Y-111804167D01*
X117395333Y-111740667D01*
X117268333Y-111740667D01*
X117268333Y-111867667D01*
G36*
X117536444Y-112319222D02*
G01*
X117649333Y-112319222D01*
X117649333Y-111853555D01*
X117536444Y-111853555D01*
X117536444Y-112319222D01*
X117536444Y-112319222D01*
G37*
X117536444Y-112319222D02*
X117649333Y-112319222D01*
X117649333Y-111853555D01*
X117536444Y-111853555D01*
X117536444Y-112319222D01*
G36*
X117765345Y-111833136D02*
G01*
X117735604Y-111854316D01*
X117713290Y-111875078D01*
X117711444Y-111890212D01*
X117727922Y-111911081D01*
X117745032Y-111937274D01*
X117740583Y-111960874D01*
X117737866Y-111965496D01*
X117715434Y-112023518D01*
X117711194Y-112089107D01*
X117724166Y-112152576D01*
X117753370Y-112204240D01*
X117763045Y-112214134D01*
X117780057Y-112231518D01*
X117781125Y-112245842D01*
X117764719Y-112266812D01*
X117752744Y-112279417D01*
X117727558Y-112312357D01*
X117716421Y-112349567D01*
X117714461Y-112388190D01*
X117724896Y-112461028D01*
X117757668Y-112518089D01*
X117808850Y-112559732D01*
X117863451Y-112580064D01*
X117931285Y-112587255D01*
X118000535Y-112581168D01*
X118057552Y-112562617D01*
X118117276Y-112517636D01*
X118156425Y-112456318D01*
X118165281Y-112428583D01*
X118169354Y-112404958D01*
X118162387Y-112393618D01*
X118137899Y-112390056D01*
X118109474Y-112389778D01*
X118065058Y-112393085D01*
X118045729Y-112403475D01*
X118044444Y-112408757D01*
X118032043Y-112438455D01*
X118000373Y-112460352D01*
X117957732Y-112472691D01*
X117912417Y-112473715D01*
X117872728Y-112461665D01*
X117856131Y-112448639D01*
X117833688Y-112407698D01*
X117835844Y-112367605D01*
X117859332Y-112333678D01*
X117900883Y-112311231D01*
X117944351Y-112305111D01*
X118006735Y-112294452D01*
X118068331Y-112266316D01*
X118118309Y-112226467D01*
X118136064Y-112203105D01*
X118158368Y-112142386D01*
X118163595Y-112078692D01*
X118044444Y-112078692D01*
X118033359Y-112133081D01*
X118004196Y-112171780D01*
X117963094Y-112191947D01*
X117916192Y-112190742D01*
X117869627Y-112165324D01*
X117865437Y-112161540D01*
X117838255Y-112118374D01*
X117832078Y-112066280D01*
X117846794Y-112015058D01*
X117867414Y-111986970D01*
X117911012Y-111959162D01*
X117956094Y-111955725D01*
X117996998Y-111973726D01*
X118028065Y-112010231D01*
X118043632Y-112062308D01*
X118044444Y-112078692D01*
X118163595Y-112078692D01*
X118164242Y-112070819D01*
X118153813Y-112000411D01*
X118133378Y-111952271D01*
X118090828Y-111899547D01*
X118038947Y-111868196D01*
X117971957Y-111855550D01*
X117924321Y-111855712D01*
X117862260Y-111855627D01*
X117824368Y-111848002D01*
X117816424Y-111842846D01*
X117792239Y-111827559D01*
X117765345Y-111833136D01*
X117765345Y-111833136D01*
G37*
X117765345Y-111833136D02*
X117735604Y-111854316D01*
X117713290Y-111875078D01*
X117711444Y-111890212D01*
X117727922Y-111911081D01*
X117745032Y-111937274D01*
X117740583Y-111960874D01*
X117737866Y-111965496D01*
X117715434Y-112023518D01*
X117711194Y-112089107D01*
X117724166Y-112152576D01*
X117753370Y-112204240D01*
X117763045Y-112214134D01*
X117780057Y-112231518D01*
X117781125Y-112245842D01*
X117764719Y-112266812D01*
X117752744Y-112279417D01*
X117727558Y-112312357D01*
X117716421Y-112349567D01*
X117714461Y-112388190D01*
X117724896Y-112461028D01*
X117757668Y-112518089D01*
X117808850Y-112559732D01*
X117863451Y-112580064D01*
X117931285Y-112587255D01*
X118000535Y-112581168D01*
X118057552Y-112562617D01*
X118117276Y-112517636D01*
X118156425Y-112456318D01*
X118165281Y-112428583D01*
X118169354Y-112404958D01*
X118162387Y-112393618D01*
X118137899Y-112390056D01*
X118109474Y-112389778D01*
X118065058Y-112393085D01*
X118045729Y-112403475D01*
X118044444Y-112408757D01*
X118032043Y-112438455D01*
X118000373Y-112460352D01*
X117957732Y-112472691D01*
X117912417Y-112473715D01*
X117872728Y-112461665D01*
X117856131Y-112448639D01*
X117833688Y-112407698D01*
X117835844Y-112367605D01*
X117859332Y-112333678D01*
X117900883Y-112311231D01*
X117944351Y-112305111D01*
X118006735Y-112294452D01*
X118068331Y-112266316D01*
X118118309Y-112226467D01*
X118136064Y-112203105D01*
X118158368Y-112142386D01*
X118163595Y-112078692D01*
X118044444Y-112078692D01*
X118033359Y-112133081D01*
X118004196Y-112171780D01*
X117963094Y-112191947D01*
X117916192Y-112190742D01*
X117869627Y-112165324D01*
X117865437Y-112161540D01*
X117838255Y-112118374D01*
X117832078Y-112066280D01*
X117846794Y-112015058D01*
X117867414Y-111986970D01*
X117911012Y-111959162D01*
X117956094Y-111955725D01*
X117996998Y-111973726D01*
X118028065Y-112010231D01*
X118043632Y-112062308D01*
X118044444Y-112078692D01*
X118163595Y-112078692D01*
X118164242Y-112070819D01*
X118153813Y-112000411D01*
X118133378Y-111952271D01*
X118090828Y-111899547D01*
X118038947Y-111868196D01*
X117971957Y-111855550D01*
X117924321Y-111855712D01*
X117862260Y-111855627D01*
X117824368Y-111848002D01*
X117816424Y-111842846D01*
X117792239Y-111827559D01*
X117765345Y-111833136D01*
G36*
X118242000Y-112319222D02*
G01*
X118354888Y-112319222D01*
X118354888Y-111853555D01*
X118242000Y-111853555D01*
X118242000Y-112319222D01*
X118242000Y-112319222D01*
G37*
X118242000Y-112319222D02*
X118354888Y-112319222D01*
X118354888Y-111853555D01*
X118242000Y-111853555D01*
X118242000Y-112319222D01*
G36*
X118730830Y-111674770D02*
G01*
X118640274Y-111689957D01*
X118568669Y-111717489D01*
X118512069Y-111759181D01*
X118466528Y-111816849D01*
X118446115Y-111853340D01*
X118425937Y-111917917D01*
X118420149Y-111995073D01*
X118428403Y-112073320D01*
X118450349Y-112141168D01*
X118455119Y-112150310D01*
X118496475Y-112210831D01*
X118546506Y-112256177D01*
X118609206Y-112287992D01*
X118688571Y-112307926D01*
X118788595Y-112317625D01*
X118864815Y-112319222D01*
X118989888Y-112319222D01*
X118989888Y-111797111D01*
X118862888Y-111797111D01*
X118862888Y-112195307D01*
X118757731Y-112189997D01*
X118701018Y-112185934D01*
X118663562Y-112178867D01*
X118636395Y-112165971D01*
X118610553Y-112144424D01*
X118609339Y-112143265D01*
X118570097Y-112090384D01*
X118547443Y-112027770D01*
X118545015Y-111966321D01*
X118546967Y-111956390D01*
X118571062Y-111887233D01*
X118607145Y-111839711D01*
X118659158Y-111811015D01*
X118731040Y-111798338D01*
X118770466Y-111797111D01*
X118862888Y-111797111D01*
X118989888Y-111797111D01*
X118989888Y-111670111D01*
X118844283Y-111670111D01*
X118730830Y-111674770D01*
X118730830Y-111674770D01*
G37*
X118730830Y-111674770D02*
X118640274Y-111689957D01*
X118568669Y-111717489D01*
X118512069Y-111759181D01*
X118466528Y-111816849D01*
X118446115Y-111853340D01*
X118425937Y-111917917D01*
X118420149Y-111995073D01*
X118428403Y-112073320D01*
X118450349Y-112141168D01*
X118455119Y-112150310D01*
X118496475Y-112210831D01*
X118546506Y-112256177D01*
X118609206Y-112287992D01*
X118688571Y-112307926D01*
X118788595Y-112317625D01*
X118864815Y-112319222D01*
X118989888Y-112319222D01*
X118989888Y-111797111D01*
X118862888Y-111797111D01*
X118862888Y-112195307D01*
X118757731Y-112189997D01*
X118701018Y-112185934D01*
X118663562Y-112178867D01*
X118636395Y-112165971D01*
X118610553Y-112144424D01*
X118609339Y-112143265D01*
X118570097Y-112090384D01*
X118547443Y-112027770D01*
X118545015Y-111966321D01*
X118546967Y-111956390D01*
X118571062Y-111887233D01*
X118607145Y-111839711D01*
X118659158Y-111811015D01*
X118731040Y-111798338D01*
X118770466Y-111797111D01*
X118862888Y-111797111D01*
X118989888Y-111797111D01*
X118989888Y-111670111D01*
X118844283Y-111670111D01*
X118730830Y-111674770D01*
G36*
X116349387Y-109963123D02*
G01*
X116243666Y-109964875D01*
X116158253Y-109968497D01*
X116089195Y-109974562D01*
X116032539Y-109983644D01*
X115984333Y-109996316D01*
X115940624Y-110013153D01*
X115897460Y-110034728D01*
X115868113Y-110051395D01*
X115797477Y-110103427D01*
X115726711Y-110174051D01*
X115663370Y-110254703D01*
X115615008Y-110336821D01*
X115613491Y-110340018D01*
X115591888Y-110389394D01*
X115577960Y-110432819D01*
X115569648Y-110480081D01*
X115564891Y-110540969D01*
X115563231Y-110578811D01*
X115561635Y-110652675D01*
X115564132Y-110708510D01*
X115571817Y-110756350D01*
X115585782Y-110806228D01*
X115589128Y-110816440D01*
X115641693Y-110931122D01*
X115717827Y-111035133D01*
X115813684Y-111124522D01*
X115925423Y-111195335D01*
X115982759Y-111221245D01*
X116008031Y-111230634D01*
X116033567Y-111238031D01*
X116063166Y-111243735D01*
X116100626Y-111248042D01*
X116149745Y-111251252D01*
X116214322Y-111253662D01*
X116298156Y-111255569D01*
X116405044Y-111257273D01*
X116449934Y-111257895D01*
X116551944Y-111258902D01*
X116644683Y-111259102D01*
X116724418Y-111258545D01*
X116787418Y-111257281D01*
X116829948Y-111255358D01*
X116848277Y-111252826D01*
X116848573Y-111252611D01*
X116850740Y-111236752D01*
X116852757Y-111195538D01*
X116854115Y-111148000D01*
X116746222Y-111148000D01*
X116562777Y-111148000D01*
X116562777Y-110868206D01*
X116333472Y-110863464D01*
X116246576Y-110861369D01*
X116182850Y-110858783D01*
X116137239Y-110855046D01*
X116104690Y-110849493D01*
X116080151Y-110841462D01*
X116058568Y-110830291D01*
X116052554Y-110826627D01*
X116010406Y-110790144D01*
X115975315Y-110742284D01*
X115971430Y-110734905D01*
X115941919Y-110675278D01*
X116562777Y-110667682D01*
X116562777Y-110555333D01*
X116449888Y-110555333D01*
X115939774Y-110555333D01*
X115972621Y-110495787D01*
X116013109Y-110442704D01*
X116061873Y-110404297D01*
X116089822Y-110390261D01*
X116118998Y-110380994D01*
X116156081Y-110375527D01*
X116207751Y-110372893D01*
X116280687Y-110372126D01*
X116284083Y-110372121D01*
X116449888Y-110371889D01*
X116449888Y-110555333D01*
X116562777Y-110555333D01*
X116562777Y-110257141D01*
X116326416Y-110261598D01*
X116234766Y-110263795D01*
X116166422Y-110266778D01*
X116116470Y-110271078D01*
X116079995Y-110277222D01*
X116052082Y-110285740D01*
X116036144Y-110292829D01*
X115957185Y-110346255D01*
X115897514Y-110415649D01*
X115858020Y-110496257D01*
X115839593Y-110583323D01*
X115843123Y-110672090D01*
X115869499Y-110757805D01*
X115919612Y-110835712D01*
X115932020Y-110849375D01*
X115975556Y-110890530D01*
X116018923Y-110920078D01*
X116068255Y-110940062D01*
X116129688Y-110952528D01*
X116209357Y-110959519D01*
X116269972Y-110961983D01*
X116449888Y-110967390D01*
X116449888Y-111150706D01*
X116255861Y-111145825D01*
X116176739Y-111143481D01*
X116119037Y-111140299D01*
X116075954Y-111135107D01*
X116040689Y-111126732D01*
X116006441Y-111114001D01*
X115966939Y-111095991D01*
X115862997Y-111032560D01*
X115779370Y-110952601D01*
X115716590Y-110859718D01*
X115675190Y-110757512D01*
X115655705Y-110649586D01*
X115658668Y-110539542D01*
X115684611Y-110430984D01*
X115734068Y-110327513D01*
X115807573Y-110232731D01*
X115835152Y-110205836D01*
X115879665Y-110166935D01*
X115921184Y-110136172D01*
X115963842Y-110112532D01*
X116011767Y-110095002D01*
X116069091Y-110082566D01*
X116139943Y-110074210D01*
X116228455Y-110068920D01*
X116338757Y-110065682D01*
X116411083Y-110064394D01*
X116746222Y-110059206D01*
X116746222Y-111148000D01*
X116854115Y-111148000D01*
X116854577Y-111131838D01*
X116856154Y-111048519D01*
X116857442Y-110948449D01*
X116858393Y-110834497D01*
X116858962Y-110709529D01*
X116859111Y-110602370D01*
X116859111Y-109962667D01*
X116479368Y-109962667D01*
X116349387Y-109963123D01*
X116349387Y-109963123D01*
G37*
X116349387Y-109963123D02*
X116243666Y-109964875D01*
X116158253Y-109968497D01*
X116089195Y-109974562D01*
X116032539Y-109983644D01*
X115984333Y-109996316D01*
X115940624Y-110013153D01*
X115897460Y-110034728D01*
X115868113Y-110051395D01*
X115797477Y-110103427D01*
X115726711Y-110174051D01*
X115663370Y-110254703D01*
X115615008Y-110336821D01*
X115613491Y-110340018D01*
X115591888Y-110389394D01*
X115577960Y-110432819D01*
X115569648Y-110480081D01*
X115564891Y-110540969D01*
X115563231Y-110578811D01*
X115561635Y-110652675D01*
X115564132Y-110708510D01*
X115571817Y-110756350D01*
X115585782Y-110806228D01*
X115589128Y-110816440D01*
X115641693Y-110931122D01*
X115717827Y-111035133D01*
X115813684Y-111124522D01*
X115925423Y-111195335D01*
X115982759Y-111221245D01*
X116008031Y-111230634D01*
X116033567Y-111238031D01*
X116063166Y-111243735D01*
X116100626Y-111248042D01*
X116149745Y-111251252D01*
X116214322Y-111253662D01*
X116298156Y-111255569D01*
X116405044Y-111257273D01*
X116449934Y-111257895D01*
X116551944Y-111258902D01*
X116644683Y-111259102D01*
X116724418Y-111258545D01*
X116787418Y-111257281D01*
X116829948Y-111255358D01*
X116848277Y-111252826D01*
X116848573Y-111252611D01*
X116850740Y-111236752D01*
X116852757Y-111195538D01*
X116854115Y-111148000D01*
X116746222Y-111148000D01*
X116562777Y-111148000D01*
X116562777Y-110868206D01*
X116333472Y-110863464D01*
X116246576Y-110861369D01*
X116182850Y-110858783D01*
X116137239Y-110855046D01*
X116104690Y-110849493D01*
X116080151Y-110841462D01*
X116058568Y-110830291D01*
X116052554Y-110826627D01*
X116010406Y-110790144D01*
X115975315Y-110742284D01*
X115971430Y-110734905D01*
X115941919Y-110675278D01*
X116562777Y-110667682D01*
X116562777Y-110555333D01*
X116449888Y-110555333D01*
X115939774Y-110555333D01*
X115972621Y-110495787D01*
X116013109Y-110442704D01*
X116061873Y-110404297D01*
X116089822Y-110390261D01*
X116118998Y-110380994D01*
X116156081Y-110375527D01*
X116207751Y-110372893D01*
X116280687Y-110372126D01*
X116284083Y-110372121D01*
X116449888Y-110371889D01*
X116449888Y-110555333D01*
X116562777Y-110555333D01*
X116562777Y-110257141D01*
X116326416Y-110261598D01*
X116234766Y-110263795D01*
X116166422Y-110266778D01*
X116116470Y-110271078D01*
X116079995Y-110277222D01*
X116052082Y-110285740D01*
X116036144Y-110292829D01*
X115957185Y-110346255D01*
X115897514Y-110415649D01*
X115858020Y-110496257D01*
X115839593Y-110583323D01*
X115843123Y-110672090D01*
X115869499Y-110757805D01*
X115919612Y-110835712D01*
X115932020Y-110849375D01*
X115975556Y-110890530D01*
X116018923Y-110920078D01*
X116068255Y-110940062D01*
X116129688Y-110952528D01*
X116209357Y-110959519D01*
X116269972Y-110961983D01*
X116449888Y-110967390D01*
X116449888Y-111150706D01*
X116255861Y-111145825D01*
X116176739Y-111143481D01*
X116119037Y-111140299D01*
X116075954Y-111135107D01*
X116040689Y-111126732D01*
X116006441Y-111114001D01*
X115966939Y-111095991D01*
X115862997Y-111032560D01*
X115779370Y-110952601D01*
X115716590Y-110859718D01*
X115675190Y-110757512D01*
X115655705Y-110649586D01*
X115658668Y-110539542D01*
X115684611Y-110430984D01*
X115734068Y-110327513D01*
X115807573Y-110232731D01*
X115835152Y-110205836D01*
X115879665Y-110166935D01*
X115921184Y-110136172D01*
X115963842Y-110112532D01*
X116011767Y-110095002D01*
X116069091Y-110082566D01*
X116139943Y-110074210D01*
X116228455Y-110068920D01*
X116338757Y-110065682D01*
X116411083Y-110064394D01*
X116746222Y-110059206D01*
X116746222Y-111148000D01*
X116854115Y-111148000D01*
X116854577Y-111131838D01*
X116856154Y-111048519D01*
X116857442Y-110948449D01*
X116858393Y-110834497D01*
X116858962Y-110709529D01*
X116859111Y-110602370D01*
X116859111Y-109962667D01*
X116479368Y-109962667D01*
X116349387Y-109963123D01*
G36*
X116349387Y-109963123D02*
G01*
X116243666Y-109964875D01*
X116158253Y-109968497D01*
X116089195Y-109974562D01*
X116032539Y-109983644D01*
X115984333Y-109996316D01*
X115940624Y-110013153D01*
X115897460Y-110034728D01*
X115868113Y-110051395D01*
X115797477Y-110103427D01*
X115726711Y-110174051D01*
X115663370Y-110254703D01*
X115615008Y-110336821D01*
X115613491Y-110340018D01*
X115591888Y-110389394D01*
X115577960Y-110432819D01*
X115569648Y-110480081D01*
X115564891Y-110540969D01*
X115563231Y-110578811D01*
X115561635Y-110652675D01*
X115564132Y-110708510D01*
X115571817Y-110756350D01*
X115585782Y-110806228D01*
X115589128Y-110816440D01*
X115641693Y-110931122D01*
X115717827Y-111035133D01*
X115813684Y-111124522D01*
X115925423Y-111195335D01*
X115982759Y-111221245D01*
X116008031Y-111230634D01*
X116033567Y-111238031D01*
X116063166Y-111243735D01*
X116100626Y-111248042D01*
X116149745Y-111251252D01*
X116214322Y-111253662D01*
X116298156Y-111255569D01*
X116405044Y-111257273D01*
X116449934Y-111257895D01*
X116551944Y-111258902D01*
X116644683Y-111259102D01*
X116724418Y-111258545D01*
X116787418Y-111257281D01*
X116829948Y-111255358D01*
X116848277Y-111252826D01*
X116848573Y-111252611D01*
X116850740Y-111236752D01*
X116852757Y-111195538D01*
X116854115Y-111148000D01*
X116746222Y-111148000D01*
X116562777Y-111148000D01*
X116562777Y-110868206D01*
X116333472Y-110863464D01*
X116246576Y-110861369D01*
X116182850Y-110858783D01*
X116137239Y-110855046D01*
X116104690Y-110849493D01*
X116080151Y-110841462D01*
X116058568Y-110830291D01*
X116052554Y-110826627D01*
X116010406Y-110790144D01*
X115975315Y-110742284D01*
X115971430Y-110734905D01*
X115941919Y-110675278D01*
X116562777Y-110667682D01*
X116562777Y-110555333D01*
X116449888Y-110555333D01*
X115939774Y-110555333D01*
X115972621Y-110495787D01*
X116013109Y-110442704D01*
X116061873Y-110404297D01*
X116089822Y-110390261D01*
X116118998Y-110380994D01*
X116156081Y-110375527D01*
X116207751Y-110372893D01*
X116280687Y-110372126D01*
X116284083Y-110372121D01*
X116449888Y-110371889D01*
X116449888Y-110555333D01*
X116562777Y-110555333D01*
X116562777Y-110257141D01*
X116326416Y-110261598D01*
X116234766Y-110263795D01*
X116166422Y-110266778D01*
X116116470Y-110271078D01*
X116079995Y-110277222D01*
X116052082Y-110285740D01*
X116036144Y-110292829D01*
X115957185Y-110346255D01*
X115897514Y-110415649D01*
X115858020Y-110496257D01*
X115839593Y-110583323D01*
X115843123Y-110672090D01*
X115869499Y-110757805D01*
X115919612Y-110835712D01*
X115932020Y-110849375D01*
X115975556Y-110890530D01*
X116018923Y-110920078D01*
X116068255Y-110940062D01*
X116129688Y-110952528D01*
X116209357Y-110959519D01*
X116269972Y-110961983D01*
X116449888Y-110967390D01*
X116449888Y-111150706D01*
X116255861Y-111145825D01*
X116176739Y-111143481D01*
X116119037Y-111140299D01*
X116075954Y-111135107D01*
X116040689Y-111126732D01*
X116006441Y-111114001D01*
X115966939Y-111095991D01*
X115862997Y-111032560D01*
X115779370Y-110952601D01*
X115716590Y-110859718D01*
X115675190Y-110757512D01*
X115655705Y-110649586D01*
X115658668Y-110539542D01*
X115684611Y-110430984D01*
X115734068Y-110327513D01*
X115807573Y-110232731D01*
X115835152Y-110205836D01*
X115879665Y-110166935D01*
X115921184Y-110136172D01*
X115963842Y-110112532D01*
X116011767Y-110095002D01*
X116069091Y-110082566D01*
X116139943Y-110074210D01*
X116228455Y-110068920D01*
X116338757Y-110065682D01*
X116411083Y-110064394D01*
X116746222Y-110059206D01*
X116746222Y-111148000D01*
X116854115Y-111148000D01*
X116854577Y-111131838D01*
X116856154Y-111048519D01*
X116857442Y-110948449D01*
X116858393Y-110834497D01*
X116858962Y-110709529D01*
X116859111Y-110602370D01*
X116859111Y-109962667D01*
X116479368Y-109962667D01*
X116349387Y-109963123D01*
X116349387Y-109963123D01*
G37*
X116349387Y-109963123D02*
X116243666Y-109964875D01*
X116158253Y-109968497D01*
X116089195Y-109974562D01*
X116032539Y-109983644D01*
X115984333Y-109996316D01*
X115940624Y-110013153D01*
X115897460Y-110034728D01*
X115868113Y-110051395D01*
X115797477Y-110103427D01*
X115726711Y-110174051D01*
X115663370Y-110254703D01*
X115615008Y-110336821D01*
X115613491Y-110340018D01*
X115591888Y-110389394D01*
X115577960Y-110432819D01*
X115569648Y-110480081D01*
X115564891Y-110540969D01*
X115563231Y-110578811D01*
X115561635Y-110652675D01*
X115564132Y-110708510D01*
X115571817Y-110756350D01*
X115585782Y-110806228D01*
X115589128Y-110816440D01*
X115641693Y-110931122D01*
X115717827Y-111035133D01*
X115813684Y-111124522D01*
X115925423Y-111195335D01*
X115982759Y-111221245D01*
X116008031Y-111230634D01*
X116033567Y-111238031D01*
X116063166Y-111243735D01*
X116100626Y-111248042D01*
X116149745Y-111251252D01*
X116214322Y-111253662D01*
X116298156Y-111255569D01*
X116405044Y-111257273D01*
X116449934Y-111257895D01*
X116551944Y-111258902D01*
X116644683Y-111259102D01*
X116724418Y-111258545D01*
X116787418Y-111257281D01*
X116829948Y-111255358D01*
X116848277Y-111252826D01*
X116848573Y-111252611D01*
X116850740Y-111236752D01*
X116852757Y-111195538D01*
X116854115Y-111148000D01*
X116746222Y-111148000D01*
X116562777Y-111148000D01*
X116562777Y-110868206D01*
X116333472Y-110863464D01*
X116246576Y-110861369D01*
X116182850Y-110858783D01*
X116137239Y-110855046D01*
X116104690Y-110849493D01*
X116080151Y-110841462D01*
X116058568Y-110830291D01*
X116052554Y-110826627D01*
X116010406Y-110790144D01*
X115975315Y-110742284D01*
X115971430Y-110734905D01*
X115941919Y-110675278D01*
X116562777Y-110667682D01*
X116562777Y-110555333D01*
X116449888Y-110555333D01*
X115939774Y-110555333D01*
X115972621Y-110495787D01*
X116013109Y-110442704D01*
X116061873Y-110404297D01*
X116089822Y-110390261D01*
X116118998Y-110380994D01*
X116156081Y-110375527D01*
X116207751Y-110372893D01*
X116280687Y-110372126D01*
X116284083Y-110372121D01*
X116449888Y-110371889D01*
X116449888Y-110555333D01*
X116562777Y-110555333D01*
X116562777Y-110257141D01*
X116326416Y-110261598D01*
X116234766Y-110263795D01*
X116166422Y-110266778D01*
X116116470Y-110271078D01*
X116079995Y-110277222D01*
X116052082Y-110285740D01*
X116036144Y-110292829D01*
X115957185Y-110346255D01*
X115897514Y-110415649D01*
X115858020Y-110496257D01*
X115839593Y-110583323D01*
X115843123Y-110672090D01*
X115869499Y-110757805D01*
X115919612Y-110835712D01*
X115932020Y-110849375D01*
X115975556Y-110890530D01*
X116018923Y-110920078D01*
X116068255Y-110940062D01*
X116129688Y-110952528D01*
X116209357Y-110959519D01*
X116269972Y-110961983D01*
X116449888Y-110967390D01*
X116449888Y-111150706D01*
X116255861Y-111145825D01*
X116176739Y-111143481D01*
X116119037Y-111140299D01*
X116075954Y-111135107D01*
X116040689Y-111126732D01*
X116006441Y-111114001D01*
X115966939Y-111095991D01*
X115862997Y-111032560D01*
X115779370Y-110952601D01*
X115716590Y-110859718D01*
X115675190Y-110757512D01*
X115655705Y-110649586D01*
X115658668Y-110539542D01*
X115684611Y-110430984D01*
X115734068Y-110327513D01*
X115807573Y-110232731D01*
X115835152Y-110205836D01*
X115879665Y-110166935D01*
X115921184Y-110136172D01*
X115963842Y-110112532D01*
X116011767Y-110095002D01*
X116069091Y-110082566D01*
X116139943Y-110074210D01*
X116228455Y-110068920D01*
X116338757Y-110065682D01*
X116411083Y-110064394D01*
X116746222Y-110059206D01*
X116746222Y-111148000D01*
X116854115Y-111148000D01*
X116854577Y-111131838D01*
X116856154Y-111048519D01*
X116857442Y-110948449D01*
X116858393Y-110834497D01*
X116858962Y-110709529D01*
X116859111Y-110602370D01*
X116859111Y-109962667D01*
X116479368Y-109962667D01*
X116349387Y-109963123D01*
D11*
G36*
X128420185Y-110645202D02*
G01*
X128570010Y-110675004D01*
X128852274Y-110791921D01*
X129106305Y-110961659D01*
X129322341Y-111177695D01*
X129492079Y-111431726D01*
X129608996Y-111713990D01*
X129668600Y-112013640D01*
X129668600Y-112319160D01*
X129608996Y-112618810D01*
X129492079Y-112901074D01*
X129322341Y-113155105D01*
X129106305Y-113371141D01*
X128852274Y-113540879D01*
X128570010Y-113657796D01*
X128420185Y-113687598D01*
X128270361Y-113717400D01*
X127964839Y-113717400D01*
X127815015Y-113687598D01*
X127665190Y-113657796D01*
X127382926Y-113540879D01*
X127128895Y-113371141D01*
X126912859Y-113155105D01*
X126743121Y-112901074D01*
X126626204Y-112618810D01*
X126566600Y-112319160D01*
X126566600Y-112013640D01*
X126626204Y-111713990D01*
X126743121Y-111431726D01*
X126912859Y-111177695D01*
X127128895Y-110961659D01*
X127382926Y-110791921D01*
X127665190Y-110675004D01*
X127815015Y-110645202D01*
X127964839Y-110615400D01*
X128270361Y-110615400D01*
X128420185Y-110645202D01*
X128420185Y-110645202D01*
G37*
G36*
X105458585Y-110645202D02*
G01*
X105608410Y-110675004D01*
X105890674Y-110791921D01*
X106144705Y-110961659D01*
X106360741Y-111177695D01*
X106530479Y-111431726D01*
X106647396Y-111713990D01*
X106707000Y-112013640D01*
X106707000Y-112319160D01*
X106647396Y-112618810D01*
X106530479Y-112901074D01*
X106360741Y-113155105D01*
X106144705Y-113371141D01*
X105890674Y-113540879D01*
X105608410Y-113657796D01*
X105458585Y-113687598D01*
X105308761Y-113717400D01*
X105003239Y-113717400D01*
X104853415Y-113687598D01*
X104703590Y-113657796D01*
X104421326Y-113540879D01*
X104167295Y-113371141D01*
X103951259Y-113155105D01*
X103781521Y-112901074D01*
X103664604Y-112618810D01*
X103605000Y-112319160D01*
X103605000Y-112013640D01*
X103664604Y-111713990D01*
X103781521Y-111431726D01*
X103951259Y-111177695D01*
X104167295Y-110961659D01*
X104421326Y-110791921D01*
X104703590Y-110675004D01*
X104853415Y-110645202D01*
X105003239Y-110615400D01*
X105308761Y-110615400D01*
X105458585Y-110645202D01*
X105458585Y-110645202D01*
G37*
G36*
X117772578Y-106529197D02*
G01*
X117825350Y-106539694D01*
X117924770Y-106580875D01*
X118014246Y-106640661D01*
X118090339Y-106716754D01*
X118150125Y-106806230D01*
X118191306Y-106905650D01*
X118212300Y-107011194D01*
X118212300Y-107118806D01*
X118191306Y-107224350D01*
X118150125Y-107323770D01*
X118090339Y-107413246D01*
X118014246Y-107489339D01*
X117924770Y-107549125D01*
X117825350Y-107590306D01*
X117772578Y-107600803D01*
X117719807Y-107611300D01*
X117612193Y-107611300D01*
X117559422Y-107600803D01*
X117506650Y-107590306D01*
X117407230Y-107549125D01*
X117317754Y-107489339D01*
X117241661Y-107413246D01*
X117181875Y-107323770D01*
X117140694Y-107224350D01*
X117119700Y-107118806D01*
X117119700Y-107011194D01*
X117140694Y-106905650D01*
X117181875Y-106806230D01*
X117241661Y-106716754D01*
X117317754Y-106640661D01*
X117407230Y-106580875D01*
X117506650Y-106539694D01*
X117559422Y-106529197D01*
X117612193Y-106518700D01*
X117719807Y-106518700D01*
X117772578Y-106529197D01*
X117772578Y-106529197D01*
G37*
G36*
X115740578Y-106529197D02*
G01*
X115793350Y-106539694D01*
X115892770Y-106580875D01*
X115982246Y-106640661D01*
X116058339Y-106716754D01*
X116118125Y-106806230D01*
X116159306Y-106905650D01*
X116180300Y-107011194D01*
X116180300Y-107118806D01*
X116159306Y-107224350D01*
X116118125Y-107323770D01*
X116058339Y-107413246D01*
X115982246Y-107489339D01*
X115892770Y-107549125D01*
X115793350Y-107590306D01*
X115740578Y-107600803D01*
X115687807Y-107611300D01*
X115580193Y-107611300D01*
X115527422Y-107600803D01*
X115474650Y-107590306D01*
X115375230Y-107549125D01*
X115285754Y-107489339D01*
X115209661Y-107413246D01*
X115149875Y-107323770D01*
X115108694Y-107224350D01*
X115087700Y-107118806D01*
X115087700Y-107011194D01*
X115108694Y-106905650D01*
X115149875Y-106806230D01*
X115209661Y-106716754D01*
X115285754Y-106640661D01*
X115375230Y-106580875D01*
X115474650Y-106539694D01*
X115527422Y-106529197D01*
X115580193Y-106518700D01*
X115687807Y-106518700D01*
X115740578Y-106529197D01*
X115740578Y-106529197D01*
G37*
G36*
X114351609Y-103945346D02*
G01*
X114471242Y-103969143D01*
X114696626Y-104062500D01*
X114899466Y-104198033D01*
X115071967Y-104370534D01*
X115207500Y-104573374D01*
X115300857Y-104798758D01*
X115348450Y-105038023D01*
X115348450Y-105281977D01*
X115300857Y-105521242D01*
X115207500Y-105746626D01*
X115071967Y-105949466D01*
X114899466Y-106121967D01*
X114696626Y-106257500D01*
X114471242Y-106350857D01*
X114351610Y-106374653D01*
X114231978Y-106398450D01*
X113988022Y-106398450D01*
X113868390Y-106374653D01*
X113748758Y-106350857D01*
X113523374Y-106257500D01*
X113320534Y-106121967D01*
X113148033Y-105949466D01*
X113012500Y-105746626D01*
X112919143Y-105521242D01*
X112871550Y-105281977D01*
X112871550Y-105038023D01*
X112919143Y-104798758D01*
X113012500Y-104573374D01*
X113148033Y-104370534D01*
X113320534Y-104198033D01*
X113523374Y-104062500D01*
X113748758Y-103969143D01*
X113868390Y-103945347D01*
X113988022Y-103921550D01*
X114231978Y-103921550D01*
X114351609Y-103945346D01*
X114351609Y-103945346D01*
G37*
G36*
X119431609Y-103945346D02*
G01*
X119551242Y-103969143D01*
X119776626Y-104062500D01*
X119979466Y-104198033D01*
X120151967Y-104370534D01*
X120287500Y-104573374D01*
X120380857Y-104798758D01*
X120428450Y-105038023D01*
X120428450Y-105281977D01*
X120380857Y-105521242D01*
X120287500Y-105746626D01*
X120151967Y-105949466D01*
X119979466Y-106121967D01*
X119776626Y-106257500D01*
X119551242Y-106350857D01*
X119431610Y-106374653D01*
X119311978Y-106398450D01*
X119068022Y-106398450D01*
X118948390Y-106374653D01*
X118828758Y-106350857D01*
X118603374Y-106257500D01*
X118400534Y-106121967D01*
X118228033Y-105949466D01*
X118092500Y-105746626D01*
X117999143Y-105521242D01*
X117951550Y-105281977D01*
X117951550Y-105038023D01*
X117999143Y-104798758D01*
X118092500Y-104573374D01*
X118228033Y-104370534D01*
X118400534Y-104198033D01*
X118603374Y-104062500D01*
X118828758Y-103969143D01*
X118948390Y-103945347D01*
X119068022Y-103921550D01*
X119311978Y-103921550D01*
X119431609Y-103945346D01*
X119431609Y-103945346D01*
G37*
G36*
X114351609Y-100770346D02*
G01*
X114471242Y-100794143D01*
X114696626Y-100887500D01*
X114899466Y-101023033D01*
X115071967Y-101195534D01*
X115207500Y-101398374D01*
X115300857Y-101623758D01*
X115348450Y-101863023D01*
X115348450Y-102106977D01*
X115300857Y-102346242D01*
X115207500Y-102571626D01*
X115071967Y-102774466D01*
X114899466Y-102946967D01*
X114696626Y-103082500D01*
X114471242Y-103175857D01*
X114351610Y-103199653D01*
X114231978Y-103223450D01*
X113988022Y-103223450D01*
X113868390Y-103199653D01*
X113748758Y-103175857D01*
X113523374Y-103082500D01*
X113320534Y-102946967D01*
X113148033Y-102774466D01*
X113012500Y-102571626D01*
X112919143Y-102346242D01*
X112871550Y-102106977D01*
X112871550Y-101863023D01*
X112919143Y-101623758D01*
X113012500Y-101398374D01*
X113148033Y-101195534D01*
X113320534Y-101023033D01*
X113523374Y-100887500D01*
X113748758Y-100794143D01*
X113868390Y-100770347D01*
X113988022Y-100746550D01*
X114231978Y-100746550D01*
X114351609Y-100770346D01*
X114351609Y-100770346D01*
G37*
G36*
X119431609Y-100770346D02*
G01*
X119551242Y-100794143D01*
X119776626Y-100887500D01*
X119979466Y-101023033D01*
X120151967Y-101195534D01*
X120287500Y-101398374D01*
X120380857Y-101623758D01*
X120428450Y-101863023D01*
X120428450Y-102106977D01*
X120380857Y-102346242D01*
X120287500Y-102571626D01*
X120151967Y-102774466D01*
X119979466Y-102946967D01*
X119776626Y-103082500D01*
X119551242Y-103175857D01*
X119431610Y-103199653D01*
X119311978Y-103223450D01*
X119068022Y-103223450D01*
X118948390Y-103199653D01*
X118828758Y-103175857D01*
X118603374Y-103082500D01*
X118400534Y-102946967D01*
X118228033Y-102774466D01*
X118092500Y-102571626D01*
X117999143Y-102346242D01*
X117951550Y-102106977D01*
X117951550Y-101863023D01*
X117999143Y-101623758D01*
X118092500Y-101398374D01*
X118228033Y-101195534D01*
X118400534Y-101023033D01*
X118603374Y-100887500D01*
X118828758Y-100794143D01*
X118948390Y-100770347D01*
X119068022Y-100746550D01*
X119311978Y-100746550D01*
X119431609Y-100770346D01*
X119431609Y-100770346D01*
G37*
G36*
X116756578Y-101449197D02*
G01*
X116809350Y-101459694D01*
X116908770Y-101500875D01*
X116998246Y-101560661D01*
X117074339Y-101636754D01*
X117134125Y-101726230D01*
X117175306Y-101825650D01*
X117196300Y-101931194D01*
X117196300Y-102038806D01*
X117175306Y-102144350D01*
X117134125Y-102243770D01*
X117074339Y-102333246D01*
X116998246Y-102409339D01*
X116908770Y-102469125D01*
X116809350Y-102510306D01*
X116756578Y-102520803D01*
X116703807Y-102531300D01*
X116596193Y-102531300D01*
X116543422Y-102520803D01*
X116490650Y-102510306D01*
X116391230Y-102469125D01*
X116301754Y-102409339D01*
X116225661Y-102333246D01*
X116165875Y-102243770D01*
X116124694Y-102144350D01*
X116103700Y-102038806D01*
X116103700Y-101931194D01*
X116124694Y-101825650D01*
X116165875Y-101726230D01*
X116225661Y-101636754D01*
X116301754Y-101560661D01*
X116391230Y-101500875D01*
X116490650Y-101459694D01*
X116543422Y-101449197D01*
X116596193Y-101438700D01*
X116703807Y-101438700D01*
X116756578Y-101449197D01*
X116756578Y-101449197D01*
G37*
G36*
X103551355Y-94902140D02*
G01*
X103615118Y-94908420D01*
X103705904Y-94935960D01*
X103737836Y-94945646D01*
X103850925Y-95006094D01*
X103950054Y-95087446D01*
X104031406Y-95186575D01*
X104091854Y-95299664D01*
X104091855Y-95299668D01*
X104129080Y-95422382D01*
X104141649Y-95550000D01*
X104129080Y-95677618D01*
X104101540Y-95768404D01*
X104091854Y-95800336D01*
X104031406Y-95913425D01*
X103950054Y-96012554D01*
X103850925Y-96093906D01*
X103737836Y-96154354D01*
X103705904Y-96164040D01*
X103615118Y-96191580D01*
X103551355Y-96197860D01*
X103519474Y-96201000D01*
X102755526Y-96201000D01*
X102723645Y-96197860D01*
X102659882Y-96191580D01*
X102569096Y-96164040D01*
X102537164Y-96154354D01*
X102424075Y-96093906D01*
X102324946Y-96012554D01*
X102243594Y-95913425D01*
X102183146Y-95800336D01*
X102173460Y-95768404D01*
X102145920Y-95677618D01*
X102133351Y-95550000D01*
X102145920Y-95422382D01*
X102183145Y-95299668D01*
X102183146Y-95299664D01*
X102243594Y-95186575D01*
X102324946Y-95087446D01*
X102424075Y-95006094D01*
X102537164Y-94945646D01*
X102569096Y-94935960D01*
X102659882Y-94908420D01*
X102723645Y-94902140D01*
X102755526Y-94899000D01*
X103519474Y-94899000D01*
X103551355Y-94902140D01*
X103551355Y-94902140D01*
G37*
G36*
X106063848Y-93803820D02*
G01*
X106063850Y-93803821D01*
X106063851Y-93803821D01*
X106205074Y-93862317D01*
X106205077Y-93862319D01*
X106332169Y-93947239D01*
X106440261Y-94055331D01*
X106525181Y-94182423D01*
X106525183Y-94182426D01*
X106583679Y-94323649D01*
X106613500Y-94473571D01*
X106613500Y-94626429D01*
X106583679Y-94776351D01*
X106525183Y-94917574D01*
X106525181Y-94917577D01*
X106440261Y-95044669D01*
X106332169Y-95152761D01*
X106205077Y-95237681D01*
X106205074Y-95237683D01*
X106063851Y-95296179D01*
X106063850Y-95296179D01*
X106063848Y-95296180D01*
X105913931Y-95326000D01*
X105761069Y-95326000D01*
X105611152Y-95296180D01*
X105611150Y-95296179D01*
X105611149Y-95296179D01*
X105469926Y-95237683D01*
X105469923Y-95237681D01*
X105342831Y-95152761D01*
X105234739Y-95044669D01*
X105149819Y-94917577D01*
X105149817Y-94917574D01*
X105091321Y-94776351D01*
X105061500Y-94626429D01*
X105061500Y-94473571D01*
X105091321Y-94323649D01*
X105149817Y-94182426D01*
X105149819Y-94182423D01*
X105234739Y-94055331D01*
X105342831Y-93947239D01*
X105469923Y-93862319D01*
X105469926Y-93862317D01*
X105611149Y-93803821D01*
X105611150Y-93803821D01*
X105611152Y-93803820D01*
X105761069Y-93774000D01*
X105913931Y-93774000D01*
X106063848Y-93803820D01*
X106063848Y-93803820D01*
G37*
G36*
X118005442Y-92055518D02*
G01*
X118071627Y-92062037D01*
X118241466Y-92113557D01*
X118397991Y-92197222D01*
X118433729Y-92226552D01*
X118535186Y-92309814D01*
X118618448Y-92411271D01*
X118647778Y-92447009D01*
X118731443Y-92603534D01*
X118782963Y-92773373D01*
X118800359Y-92950000D01*
X118782963Y-93126627D01*
X118731443Y-93296466D01*
X118647778Y-93452991D01*
X118618448Y-93488729D01*
X118535186Y-93590186D01*
X118433729Y-93673448D01*
X118397991Y-93702778D01*
X118241466Y-93786443D01*
X118071627Y-93837963D01*
X118005443Y-93844481D01*
X117939260Y-93851000D01*
X117850740Y-93851000D01*
X117784557Y-93844481D01*
X117718373Y-93837963D01*
X117548534Y-93786443D01*
X117392009Y-93702778D01*
X117356271Y-93673448D01*
X117254814Y-93590186D01*
X117171552Y-93488729D01*
X117142222Y-93452991D01*
X117058557Y-93296466D01*
X117007037Y-93126627D01*
X116989641Y-92950000D01*
X117007037Y-92773373D01*
X117058557Y-92603534D01*
X117142222Y-92447009D01*
X117171552Y-92411271D01*
X117254814Y-92309814D01*
X117356271Y-92226552D01*
X117392009Y-92197222D01*
X117548534Y-92113557D01*
X117718373Y-92062037D01*
X117784558Y-92055518D01*
X117850740Y-92049000D01*
X117939260Y-92049000D01*
X118005442Y-92055518D01*
X118005442Y-92055518D01*
G37*
G36*
X112925442Y-92055518D02*
G01*
X112991627Y-92062037D01*
X113161466Y-92113557D01*
X113317991Y-92197222D01*
X113353729Y-92226552D01*
X113455186Y-92309814D01*
X113538448Y-92411271D01*
X113567778Y-92447009D01*
X113651443Y-92603534D01*
X113702963Y-92773373D01*
X113720359Y-92950000D01*
X113702963Y-93126627D01*
X113651443Y-93296466D01*
X113567778Y-93452991D01*
X113538448Y-93488729D01*
X113455186Y-93590186D01*
X113353729Y-93673448D01*
X113317991Y-93702778D01*
X113161466Y-93786443D01*
X112991627Y-93837963D01*
X112925443Y-93844481D01*
X112859260Y-93851000D01*
X112770740Y-93851000D01*
X112704557Y-93844481D01*
X112638373Y-93837963D01*
X112468534Y-93786443D01*
X112312009Y-93702778D01*
X112276271Y-93673448D01*
X112174814Y-93590186D01*
X112091552Y-93488729D01*
X112062222Y-93452991D01*
X111978557Y-93296466D01*
X111927037Y-93126627D01*
X111909641Y-92950000D01*
X111927037Y-92773373D01*
X111978557Y-92603534D01*
X112062222Y-92447009D01*
X112091552Y-92411271D01*
X112174814Y-92309814D01*
X112276271Y-92226552D01*
X112312009Y-92197222D01*
X112468534Y-92113557D01*
X112638373Y-92062037D01*
X112704558Y-92055518D01*
X112770740Y-92049000D01*
X112859260Y-92049000D01*
X112925442Y-92055518D01*
X112925442Y-92055518D01*
G37*
G36*
X115465442Y-92055518D02*
G01*
X115531627Y-92062037D01*
X115701466Y-92113557D01*
X115857991Y-92197222D01*
X115893729Y-92226552D01*
X115995186Y-92309814D01*
X116078448Y-92411271D01*
X116107778Y-92447009D01*
X116191443Y-92603534D01*
X116242963Y-92773373D01*
X116260359Y-92950000D01*
X116242963Y-93126627D01*
X116191443Y-93296466D01*
X116107778Y-93452991D01*
X116078448Y-93488729D01*
X115995186Y-93590186D01*
X115893729Y-93673448D01*
X115857991Y-93702778D01*
X115701466Y-93786443D01*
X115531627Y-93837963D01*
X115465443Y-93844481D01*
X115399260Y-93851000D01*
X115310740Y-93851000D01*
X115244557Y-93844481D01*
X115178373Y-93837963D01*
X115008534Y-93786443D01*
X114852009Y-93702778D01*
X114816271Y-93673448D01*
X114714814Y-93590186D01*
X114631552Y-93488729D01*
X114602222Y-93452991D01*
X114518557Y-93296466D01*
X114467037Y-93126627D01*
X114449641Y-92950000D01*
X114467037Y-92773373D01*
X114518557Y-92603534D01*
X114602222Y-92447009D01*
X114631552Y-92411271D01*
X114714814Y-92309814D01*
X114816271Y-92226552D01*
X114852009Y-92197222D01*
X115008534Y-92113557D01*
X115178373Y-92062037D01*
X115244558Y-92055518D01*
X115310740Y-92049000D01*
X115399260Y-92049000D01*
X115465442Y-92055518D01*
X115465442Y-92055518D01*
G37*
G36*
X120545442Y-92055518D02*
G01*
X120611627Y-92062037D01*
X120781466Y-92113557D01*
X120937991Y-92197222D01*
X120973729Y-92226552D01*
X121075186Y-92309814D01*
X121158448Y-92411271D01*
X121187778Y-92447009D01*
X121271443Y-92603534D01*
X121322963Y-92773373D01*
X121340359Y-92950000D01*
X121322963Y-93126627D01*
X121271443Y-93296466D01*
X121187778Y-93452991D01*
X121158448Y-93488729D01*
X121075186Y-93590186D01*
X120973729Y-93673448D01*
X120937991Y-93702778D01*
X120781466Y-93786443D01*
X120611627Y-93837963D01*
X120545443Y-93844481D01*
X120479260Y-93851000D01*
X120390740Y-93851000D01*
X120324557Y-93844481D01*
X120258373Y-93837963D01*
X120088534Y-93786443D01*
X119932009Y-93702778D01*
X119896271Y-93673448D01*
X119794814Y-93590186D01*
X119711552Y-93488729D01*
X119682222Y-93452991D01*
X119598557Y-93296466D01*
X119547037Y-93126627D01*
X119529641Y-92950000D01*
X119547037Y-92773373D01*
X119598557Y-92603534D01*
X119682222Y-92447009D01*
X119711552Y-92411271D01*
X119794814Y-92309814D01*
X119896271Y-92226552D01*
X119932009Y-92197222D01*
X120088534Y-92113557D01*
X120258373Y-92062037D01*
X120324558Y-92055518D01*
X120390740Y-92049000D01*
X120479260Y-92049000D01*
X120545442Y-92055518D01*
X120545442Y-92055518D01*
G37*
G36*
X123876000Y-93851000D02*
G01*
X122074000Y-93851000D01*
X122074000Y-92049000D01*
X123876000Y-92049000D01*
X123876000Y-93851000D01*
X123876000Y-93851000D01*
G37*
G36*
X110385442Y-92055518D02*
G01*
X110451627Y-92062037D01*
X110621466Y-92113557D01*
X110777991Y-92197222D01*
X110813729Y-92226552D01*
X110915186Y-92309814D01*
X110998448Y-92411271D01*
X111027778Y-92447009D01*
X111111443Y-92603534D01*
X111162963Y-92773373D01*
X111180359Y-92950000D01*
X111162963Y-93126627D01*
X111111443Y-93296466D01*
X111027778Y-93452991D01*
X110998448Y-93488729D01*
X110915186Y-93590186D01*
X110813729Y-93673448D01*
X110777991Y-93702778D01*
X110621466Y-93786443D01*
X110451627Y-93837963D01*
X110385443Y-93844481D01*
X110319260Y-93851000D01*
X110230740Y-93851000D01*
X110164557Y-93844481D01*
X110098373Y-93837963D01*
X109928534Y-93786443D01*
X109772009Y-93702778D01*
X109736271Y-93673448D01*
X109634814Y-93590186D01*
X109551552Y-93488729D01*
X109522222Y-93452991D01*
X109438557Y-93296466D01*
X109387037Y-93126627D01*
X109369641Y-92950000D01*
X109387037Y-92773373D01*
X109438557Y-92603534D01*
X109522222Y-92447009D01*
X109551552Y-92411271D01*
X109634814Y-92309814D01*
X109736271Y-92226552D01*
X109772009Y-92197222D01*
X109928534Y-92113557D01*
X110098373Y-92062037D01*
X110164558Y-92055518D01*
X110230740Y-92049000D01*
X110319260Y-92049000D01*
X110385442Y-92055518D01*
X110385442Y-92055518D01*
G37*
G36*
X106063848Y-88803820D02*
G01*
X106063850Y-88803821D01*
X106063851Y-88803821D01*
X106205074Y-88862317D01*
X106205077Y-88862319D01*
X106332169Y-88947239D01*
X106440261Y-89055331D01*
X106525181Y-89182423D01*
X106525183Y-89182426D01*
X106533700Y-89202989D01*
X106583680Y-89323652D01*
X106613500Y-89473569D01*
X106613500Y-89626429D01*
X106583679Y-89776351D01*
X106525183Y-89917574D01*
X106525181Y-89917577D01*
X106440261Y-90044669D01*
X106332169Y-90152761D01*
X106205077Y-90237681D01*
X106205074Y-90237683D01*
X106063851Y-90296179D01*
X106063850Y-90296179D01*
X106063848Y-90296180D01*
X105913931Y-90326000D01*
X105761069Y-90326000D01*
X105611152Y-90296180D01*
X105611150Y-90296179D01*
X105611149Y-90296179D01*
X105469926Y-90237683D01*
X105469923Y-90237681D01*
X105342831Y-90152761D01*
X105234739Y-90044669D01*
X105149819Y-89917577D01*
X105149817Y-89917574D01*
X105091321Y-89776351D01*
X105061500Y-89626429D01*
X105061500Y-89473569D01*
X105091320Y-89323652D01*
X105141300Y-89202989D01*
X105149817Y-89182426D01*
X105149819Y-89182423D01*
X105234739Y-89055331D01*
X105342831Y-88947239D01*
X105469923Y-88862319D01*
X105469926Y-88862317D01*
X105611149Y-88803821D01*
X105611150Y-88803821D01*
X105611152Y-88803820D01*
X105761069Y-88774000D01*
X105913931Y-88774000D01*
X106063848Y-88803820D01*
X106063848Y-88803820D01*
G37*
G36*
X122852585Y-86628802D02*
G01*
X123002410Y-86658604D01*
X123284674Y-86775521D01*
X123538705Y-86945259D01*
X123754741Y-87161295D01*
X123924479Y-87415326D01*
X124041396Y-87697590D01*
X124041396Y-87697591D01*
X124101000Y-87997239D01*
X124101000Y-88302761D01*
X124077206Y-88422382D01*
X124041396Y-88602410D01*
X123924479Y-88884674D01*
X123754741Y-89138705D01*
X123538705Y-89354741D01*
X123284674Y-89524479D01*
X123002410Y-89641396D01*
X122852585Y-89671198D01*
X122702761Y-89701000D01*
X122397239Y-89701000D01*
X122247415Y-89671198D01*
X122097590Y-89641396D01*
X121815326Y-89524479D01*
X121561295Y-89354741D01*
X121345259Y-89138705D01*
X121175521Y-88884674D01*
X121058604Y-88602410D01*
X121022794Y-88422382D01*
X120999000Y-88302761D01*
X120999000Y-87997239D01*
X121058604Y-87697591D01*
X121058604Y-87697590D01*
X121175521Y-87415326D01*
X121345259Y-87161295D01*
X121561295Y-86945259D01*
X121815326Y-86775521D01*
X122097590Y-86658604D01*
X122247415Y-86628802D01*
X122397239Y-86599000D01*
X122702761Y-86599000D01*
X122852585Y-86628802D01*
X122852585Y-86628802D01*
G37*
G36*
X109860443Y-87805519D02*
G01*
X109926627Y-87812037D01*
X110096466Y-87863557D01*
X110252991Y-87947222D01*
X110288729Y-87976552D01*
X110390186Y-88059814D01*
X110473448Y-88161271D01*
X110502778Y-88197009D01*
X110586443Y-88353534D01*
X110637963Y-88523373D01*
X110655359Y-88700000D01*
X110637963Y-88876627D01*
X110586443Y-89046466D01*
X110502778Y-89202991D01*
X110473448Y-89238729D01*
X110390186Y-89340186D01*
X110288729Y-89423448D01*
X110252991Y-89452778D01*
X110096466Y-89536443D01*
X109926627Y-89587963D01*
X109860443Y-89594481D01*
X109794260Y-89601000D01*
X109705740Y-89601000D01*
X109639557Y-89594481D01*
X109573373Y-89587963D01*
X109403534Y-89536443D01*
X109247009Y-89452778D01*
X109211271Y-89423448D01*
X109109814Y-89340186D01*
X109026552Y-89238729D01*
X108997222Y-89202991D01*
X108913557Y-89046466D01*
X108862037Y-88876627D01*
X108844641Y-88700000D01*
X108862037Y-88523373D01*
X108913557Y-88353534D01*
X108997222Y-88197009D01*
X109026552Y-88161271D01*
X109109814Y-88059814D01*
X109211271Y-87976552D01*
X109247009Y-87947222D01*
X109403534Y-87863557D01*
X109573373Y-87812037D01*
X109639557Y-87805519D01*
X109705740Y-87799000D01*
X109794260Y-87799000D01*
X109860443Y-87805519D01*
X109860443Y-87805519D01*
G37*
G36*
X103551355Y-87902140D02*
G01*
X103615118Y-87908420D01*
X103705904Y-87935960D01*
X103737836Y-87945646D01*
X103850925Y-88006094D01*
X103950054Y-88087446D01*
X104031406Y-88186575D01*
X104091854Y-88299664D01*
X104091855Y-88299668D01*
X104129080Y-88422382D01*
X104141649Y-88550000D01*
X104129080Y-88677618D01*
X104122290Y-88700000D01*
X104091854Y-88800336D01*
X104031406Y-88913425D01*
X103950054Y-89012554D01*
X103850925Y-89093906D01*
X103737836Y-89154354D01*
X103705904Y-89164040D01*
X103615118Y-89191580D01*
X103551355Y-89197860D01*
X103519474Y-89201000D01*
X102755526Y-89201000D01*
X102723645Y-89197860D01*
X102659882Y-89191580D01*
X102569096Y-89164040D01*
X102537164Y-89154354D01*
X102424075Y-89093906D01*
X102324946Y-89012554D01*
X102243594Y-88913425D01*
X102183146Y-88800336D01*
X102152710Y-88700000D01*
X102145920Y-88677618D01*
X102133351Y-88550000D01*
X102145920Y-88422382D01*
X102183145Y-88299668D01*
X102183146Y-88299664D01*
X102243594Y-88186575D01*
X102324946Y-88087446D01*
X102424075Y-88006094D01*
X102537164Y-87945646D01*
X102569096Y-87935960D01*
X102659882Y-87908420D01*
X102723645Y-87902140D01*
X102755526Y-87899000D01*
X103519474Y-87899000D01*
X103551355Y-87902140D01*
X103551355Y-87902140D01*
G37*
G36*
X109860442Y-85265518D02*
G01*
X109926627Y-85272037D01*
X110096466Y-85323557D01*
X110252991Y-85407222D01*
X110288729Y-85436552D01*
X110390186Y-85519814D01*
X110473448Y-85621271D01*
X110502778Y-85657009D01*
X110586443Y-85813534D01*
X110637963Y-85983373D01*
X110655359Y-86160000D01*
X110637963Y-86336627D01*
X110586443Y-86506466D01*
X110502778Y-86662991D01*
X110473448Y-86698729D01*
X110390186Y-86800186D01*
X110288729Y-86883448D01*
X110252991Y-86912778D01*
X110096466Y-86996443D01*
X109926627Y-87047963D01*
X109860443Y-87054481D01*
X109794260Y-87061000D01*
X109705740Y-87061000D01*
X109639557Y-87054481D01*
X109573373Y-87047963D01*
X109403534Y-86996443D01*
X109247009Y-86912778D01*
X109211271Y-86883448D01*
X109109814Y-86800186D01*
X109026552Y-86698729D01*
X108997222Y-86662991D01*
X108913557Y-86506466D01*
X108862037Y-86336627D01*
X108844641Y-86160000D01*
X108862037Y-85983373D01*
X108913557Y-85813534D01*
X108997222Y-85657009D01*
X109026552Y-85621271D01*
X109109814Y-85519814D01*
X109211271Y-85436552D01*
X109247009Y-85407222D01*
X109403534Y-85323557D01*
X109573373Y-85272037D01*
X109639558Y-85265518D01*
X109705740Y-85259000D01*
X109794260Y-85259000D01*
X109860442Y-85265518D01*
X109860442Y-85265518D01*
G37*
G36*
X109860443Y-82725519D02*
G01*
X109926627Y-82732037D01*
X110096466Y-82783557D01*
X110252991Y-82867222D01*
X110288729Y-82896552D01*
X110390186Y-82979814D01*
X110473448Y-83081271D01*
X110502778Y-83117009D01*
X110586443Y-83273534D01*
X110637963Y-83443373D01*
X110655359Y-83620000D01*
X110637963Y-83796627D01*
X110586443Y-83966466D01*
X110502778Y-84122991D01*
X110473448Y-84158729D01*
X110390186Y-84260186D01*
X110288729Y-84343448D01*
X110252991Y-84372778D01*
X110096466Y-84456443D01*
X109926627Y-84507963D01*
X109860443Y-84514481D01*
X109794260Y-84521000D01*
X109705740Y-84521000D01*
X109639557Y-84514481D01*
X109573373Y-84507963D01*
X109403534Y-84456443D01*
X109247009Y-84372778D01*
X109211271Y-84343448D01*
X109109814Y-84260186D01*
X109026552Y-84158729D01*
X108997222Y-84122991D01*
X108913557Y-83966466D01*
X108862037Y-83796627D01*
X108844641Y-83620000D01*
X108862037Y-83443373D01*
X108913557Y-83273534D01*
X108997222Y-83117009D01*
X109026552Y-83081271D01*
X109109814Y-82979814D01*
X109211271Y-82896552D01*
X109247009Y-82867222D01*
X109403534Y-82783557D01*
X109573373Y-82732037D01*
X109639557Y-82725519D01*
X109705740Y-82719000D01*
X109794260Y-82719000D01*
X109860443Y-82725519D01*
X109860443Y-82725519D01*
G37*
G36*
X122852585Y-80128802D02*
G01*
X123002410Y-80158604D01*
X123284674Y-80275521D01*
X123538705Y-80445259D01*
X123754741Y-80661295D01*
X123924479Y-80915326D01*
X124041396Y-81197590D01*
X124101000Y-81497240D01*
X124101000Y-81802760D01*
X124041396Y-82102410D01*
X123924479Y-82384674D01*
X123754741Y-82638705D01*
X123538705Y-82854741D01*
X123284674Y-83024479D01*
X123002410Y-83141396D01*
X122852585Y-83171198D01*
X122702761Y-83201000D01*
X122397239Y-83201000D01*
X122247415Y-83171198D01*
X122097590Y-83141396D01*
X121815326Y-83024479D01*
X121561295Y-82854741D01*
X121345259Y-82638705D01*
X121175521Y-82384674D01*
X121058604Y-82102410D01*
X120999000Y-81802760D01*
X120999000Y-81497240D01*
X121058604Y-81197590D01*
X121175521Y-80915326D01*
X121345259Y-80661295D01*
X121561295Y-80445259D01*
X121815326Y-80275521D01*
X122097590Y-80158604D01*
X122247415Y-80128802D01*
X122397239Y-80099000D01*
X122702761Y-80099000D01*
X122852585Y-80128802D01*
X122852585Y-80128802D01*
G37*
G36*
X110651000Y-81981000D02*
G01*
X108849000Y-81981000D01*
X108849000Y-80179000D01*
X110651000Y-80179000D01*
X110651000Y-81981000D01*
X110651000Y-81981000D01*
G37*
G36*
X104410442Y-74320518D02*
G01*
X104476627Y-74327037D01*
X104646466Y-74378557D01*
X104802991Y-74462222D01*
X104838729Y-74491552D01*
X104940186Y-74574814D01*
X105023448Y-74676271D01*
X105052778Y-74712009D01*
X105136443Y-74868534D01*
X105187963Y-75038373D01*
X105205359Y-75215000D01*
X105187963Y-75391627D01*
X105136443Y-75561466D01*
X105052778Y-75717991D01*
X105023448Y-75753729D01*
X104940186Y-75855186D01*
X104838729Y-75938448D01*
X104802991Y-75967778D01*
X104646466Y-76051443D01*
X104476627Y-76102963D01*
X104410442Y-76109482D01*
X104344260Y-76116000D01*
X104255740Y-76116000D01*
X104189558Y-76109482D01*
X104123373Y-76102963D01*
X103953534Y-76051443D01*
X103797009Y-75967778D01*
X103761271Y-75938448D01*
X103659814Y-75855186D01*
X103576552Y-75753729D01*
X103547222Y-75717991D01*
X103463557Y-75561466D01*
X103412037Y-75391627D01*
X103394641Y-75215000D01*
X103412037Y-75038373D01*
X103463557Y-74868534D01*
X103547222Y-74712009D01*
X103576552Y-74676271D01*
X103659814Y-74574814D01*
X103761271Y-74491552D01*
X103797009Y-74462222D01*
X103953534Y-74378557D01*
X104123373Y-74327037D01*
X104189558Y-74320518D01*
X104255740Y-74314000D01*
X104344260Y-74314000D01*
X104410442Y-74320518D01*
X104410442Y-74320518D01*
G37*
G36*
X105201000Y-73576000D02*
G01*
X103399000Y-73576000D01*
X103399000Y-71774000D01*
X105201000Y-71774000D01*
X105201000Y-73576000D01*
X105201000Y-73576000D01*
G37*
G36*
X128420185Y-52707802D02*
G01*
X128570010Y-52737604D01*
X128852274Y-52854521D01*
X129106305Y-53024259D01*
X129322341Y-53240295D01*
X129492079Y-53494326D01*
X129596984Y-53747591D01*
X129608996Y-53776591D01*
X129662832Y-54047239D01*
X129668600Y-54076240D01*
X129668600Y-54381760D01*
X129608996Y-54681410D01*
X129492079Y-54963674D01*
X129322341Y-55217705D01*
X129106305Y-55433741D01*
X128852274Y-55603479D01*
X128570010Y-55720396D01*
X128420185Y-55750198D01*
X128270361Y-55780000D01*
X127964839Y-55780000D01*
X127815015Y-55750198D01*
X127665190Y-55720396D01*
X127382926Y-55603479D01*
X127128895Y-55433741D01*
X126912859Y-55217705D01*
X126743121Y-54963674D01*
X126626204Y-54681410D01*
X126566600Y-54381760D01*
X126566600Y-54076240D01*
X126572369Y-54047239D01*
X126626204Y-53776591D01*
X126638216Y-53747591D01*
X126743121Y-53494326D01*
X126912859Y-53240295D01*
X127128895Y-53024259D01*
X127382926Y-52854521D01*
X127665190Y-52737604D01*
X127815015Y-52707802D01*
X127964839Y-52678000D01*
X128270361Y-52678000D01*
X128420185Y-52707802D01*
X128420185Y-52707802D01*
G37*
G36*
X105448553Y-52678000D02*
G01*
X105602410Y-52708604D01*
X105884674Y-52825521D01*
X106138705Y-52995259D01*
X106354741Y-53211295D01*
X106524479Y-53465326D01*
X106641396Y-53747590D01*
X106671198Y-53897415D01*
X106701000Y-54047239D01*
X106701000Y-54352761D01*
X106671198Y-54502585D01*
X106641396Y-54652410D01*
X106524479Y-54934674D01*
X106354741Y-55188705D01*
X106138705Y-55404741D01*
X105884674Y-55574479D01*
X105602410Y-55691396D01*
X105456617Y-55720396D01*
X105302761Y-55751000D01*
X104997239Y-55751000D01*
X104843383Y-55720396D01*
X104697590Y-55691396D01*
X104415326Y-55574479D01*
X104161295Y-55404741D01*
X103945259Y-55188705D01*
X103775521Y-54934674D01*
X103658604Y-54652410D01*
X103628802Y-54502585D01*
X103599000Y-54352761D01*
X103599000Y-54047239D01*
X103628802Y-53897415D01*
X103658604Y-53747590D01*
X103775521Y-53465326D01*
X103945259Y-53211295D01*
X104161295Y-52995259D01*
X104415326Y-52825521D01*
X104697590Y-52708604D01*
X104851447Y-52678000D01*
X104997239Y-52649000D01*
X105302761Y-52649000D01*
X105448553Y-52678000D01*
X105448553Y-52678000D01*
G37*
M02*
