G04 #@! TF.GenerationSoftware,KiCad,Pcbnew,(5.1.9)-1*
G04 #@! TF.CreationDate,2021-01-17T23:25:33+08:00*
G04 #@! TF.ProjectId,esp-break,6573702d-6272-4656-916b-2e6b69636164,rev?*
G04 #@! TF.SameCoordinates,Original*
G04 #@! TF.FileFunction,Paste,Top*
G04 #@! TF.FilePolarity,Positive*
%FSLAX46Y46*%
G04 Gerber Fmt 4.6, Leading zero omitted, Abs format (unit mm)*
G04 Created by KiCad (PCBNEW (5.1.9)-1) date 2021-01-17 23:25:33*
%MOMM*%
%LPD*%
G01*
G04 APERTURE LIST*
%ADD10R,0.900000X1.700000*%
%ADD11C,0.800000*%
%ADD12R,5.000000X5.000000*%
%ADD13R,2.000000X0.900000*%
%ADD14R,0.900000X2.000000*%
%ADD15R,0.800000X0.900000*%
%ADD16R,1.900000X1.500000*%
%ADD17R,1.350000X0.400000*%
%ADD18R,3.400000X0.980000*%
%ADD19R,2.000000X3.800000*%
%ADD20R,2.000000X1.500000*%
G04 APERTURE END LIST*
G36*
G01*
X114310000Y-89456250D02*
X114310000Y-88943750D01*
G75*
G02*
X114528750Y-88725000I218750J0D01*
G01*
X114966250Y-88725000D01*
G75*
G02*
X115185000Y-88943750I0J-218750D01*
G01*
X115185000Y-89456250D01*
G75*
G02*
X114966250Y-89675000I-218750J0D01*
G01*
X114528750Y-89675000D01*
G75*
G02*
X114310000Y-89456250I0J218750D01*
G01*
G37*
G36*
G01*
X112735000Y-89456250D02*
X112735000Y-88943750D01*
G75*
G02*
X112953750Y-88725000I218750J0D01*
G01*
X113391250Y-88725000D01*
G75*
G02*
X113610000Y-88943750I0J-218750D01*
G01*
X113610000Y-89456250D01*
G75*
G02*
X113391250Y-89675000I-218750J0D01*
G01*
X112953750Y-89675000D01*
G75*
G02*
X112735000Y-89456250I0J218750D01*
G01*
G37*
D10*
X105967000Y-62175000D03*
X102567000Y-62175000D03*
D11*
X104267000Y-62175000D03*
D12*
X115575000Y-65870000D03*
D13*
X108075000Y-58370000D03*
X108075000Y-59640000D03*
X108075000Y-60910000D03*
X108075000Y-62180000D03*
X108075000Y-63450000D03*
X108075000Y-64720000D03*
X108075000Y-65990000D03*
X108075000Y-67260000D03*
X108075000Y-68530000D03*
X108075000Y-69800000D03*
X108075000Y-71070000D03*
X108075000Y-72340000D03*
X108075000Y-73610000D03*
X108075000Y-74880000D03*
D14*
X110860000Y-75880000D03*
X112130000Y-75880000D03*
X113400000Y-75880000D03*
X114670000Y-75880000D03*
X115940000Y-75880000D03*
X117210000Y-75880000D03*
X118480000Y-75880000D03*
X119750000Y-75880000D03*
X121020000Y-75880000D03*
X122290000Y-75880000D03*
D13*
X125075000Y-74880000D03*
X125075000Y-73610000D03*
X125075000Y-72340000D03*
X125075000Y-71070000D03*
X125075000Y-69800000D03*
X125075000Y-68530000D03*
X125075000Y-67260000D03*
X125075000Y-65990000D03*
X125075000Y-64720000D03*
X125075000Y-63450000D03*
X125075000Y-62180000D03*
X125075000Y-60910000D03*
X125075000Y-59640000D03*
X125075000Y-58370000D03*
D15*
X115138660Y-79495980D03*
X116088660Y-81495980D03*
X114188660Y-81495980D03*
X118276300Y-81472740D03*
X120176300Y-81472740D03*
X119226300Y-79472740D03*
G36*
G01*
X103904000Y-85199500D02*
X103904000Y-85400500D01*
G75*
G02*
X103824500Y-85480000I-79500J0D01*
G01*
X103665500Y-85480000D01*
G75*
G02*
X103586000Y-85400500I0J79500D01*
G01*
X103586000Y-85199500D01*
G75*
G02*
X103665500Y-85120000I79500J0D01*
G01*
X103824500Y-85120000D01*
G75*
G02*
X103904000Y-85199500I0J-79500D01*
G01*
G37*
G36*
G01*
X103214000Y-85199500D02*
X103214000Y-85400500D01*
G75*
G02*
X103134500Y-85480000I-79500J0D01*
G01*
X102975500Y-85480000D01*
G75*
G02*
X102896000Y-85400500I0J79500D01*
G01*
X102896000Y-85199500D01*
G75*
G02*
X102975500Y-85120000I79500J0D01*
G01*
X103134500Y-85120000D01*
G75*
G02*
X103214000Y-85199500I0J-79500D01*
G01*
G37*
G36*
G01*
X103214000Y-86449500D02*
X103214000Y-86650500D01*
G75*
G02*
X103134500Y-86730000I-79500J0D01*
G01*
X102975500Y-86730000D01*
G75*
G02*
X102896000Y-86650500I0J79500D01*
G01*
X102896000Y-86449500D01*
G75*
G02*
X102975500Y-86370000I79500J0D01*
G01*
X103134500Y-86370000D01*
G75*
G02*
X103214000Y-86449500I0J-79500D01*
G01*
G37*
G36*
G01*
X103904000Y-86449500D02*
X103904000Y-86650500D01*
G75*
G02*
X103824500Y-86730000I-79500J0D01*
G01*
X103665500Y-86730000D01*
G75*
G02*
X103586000Y-86650500I0J79500D01*
G01*
X103586000Y-86449500D01*
G75*
G02*
X103665500Y-86370000I79500J0D01*
G01*
X103824500Y-86370000D01*
G75*
G02*
X103904000Y-86449500I0J-79500D01*
G01*
G37*
G36*
G01*
X103829000Y-58399500D02*
X103829000Y-58600500D01*
G75*
G02*
X103749500Y-58680000I-79500J0D01*
G01*
X103590500Y-58680000D01*
G75*
G02*
X103511000Y-58600500I0J79500D01*
G01*
X103511000Y-58399500D01*
G75*
G02*
X103590500Y-58320000I79500J0D01*
G01*
X103749500Y-58320000D01*
G75*
G02*
X103829000Y-58399500I0J-79500D01*
G01*
G37*
G36*
G01*
X103139000Y-58399500D02*
X103139000Y-58600500D01*
G75*
G02*
X103059500Y-58680000I-79500J0D01*
G01*
X102900500Y-58680000D01*
G75*
G02*
X102821000Y-58600500I0J79500D01*
G01*
X102821000Y-58399500D01*
G75*
G02*
X102900500Y-58320000I79500J0D01*
G01*
X103059500Y-58320000D01*
G75*
G02*
X103139000Y-58399500I0J-79500D01*
G01*
G37*
G36*
G01*
X103139000Y-59424500D02*
X103139000Y-59625500D01*
G75*
G02*
X103059500Y-59705000I-79500J0D01*
G01*
X102900500Y-59705000D01*
G75*
G02*
X102821000Y-59625500I0J79500D01*
G01*
X102821000Y-59424500D01*
G75*
G02*
X102900500Y-59345000I79500J0D01*
G01*
X103059500Y-59345000D01*
G75*
G02*
X103139000Y-59424500I0J-79500D01*
G01*
G37*
G36*
G01*
X103829000Y-59424500D02*
X103829000Y-59625500D01*
G75*
G02*
X103749500Y-59705000I-79500J0D01*
G01*
X103590500Y-59705000D01*
G75*
G02*
X103511000Y-59625500I0J79500D01*
G01*
X103511000Y-59424500D01*
G75*
G02*
X103590500Y-59345000I79500J0D01*
G01*
X103749500Y-59345000D01*
G75*
G02*
X103829000Y-59424500I0J-79500D01*
G01*
G37*
G36*
G01*
X105311000Y-58600500D02*
X105311000Y-58399500D01*
G75*
G02*
X105390500Y-58320000I79500J0D01*
G01*
X105549500Y-58320000D01*
G75*
G02*
X105629000Y-58399500I0J-79500D01*
G01*
X105629000Y-58600500D01*
G75*
G02*
X105549500Y-58680000I-79500J0D01*
G01*
X105390500Y-58680000D01*
G75*
G02*
X105311000Y-58600500I0J79500D01*
G01*
G37*
G36*
G01*
X104621000Y-58600500D02*
X104621000Y-58399500D01*
G75*
G02*
X104700500Y-58320000I79500J0D01*
G01*
X104859500Y-58320000D01*
G75*
G02*
X104939000Y-58399500I0J-79500D01*
G01*
X104939000Y-58600500D01*
G75*
G02*
X104859500Y-58680000I-79500J0D01*
G01*
X104700500Y-58680000D01*
G75*
G02*
X104621000Y-58600500I0J79500D01*
G01*
G37*
G36*
G01*
X103746000Y-64825500D02*
X103746000Y-64624500D01*
G75*
G02*
X103825500Y-64545000I79500J0D01*
G01*
X103984500Y-64545000D01*
G75*
G02*
X104064000Y-64624500I0J-79500D01*
G01*
X104064000Y-64825500D01*
G75*
G02*
X103984500Y-64905000I-79500J0D01*
G01*
X103825500Y-64905000D01*
G75*
G02*
X103746000Y-64825500I0J79500D01*
G01*
G37*
G36*
G01*
X104436000Y-64825500D02*
X104436000Y-64624500D01*
G75*
G02*
X104515500Y-64545000I79500J0D01*
G01*
X104674500Y-64545000D01*
G75*
G02*
X104754000Y-64624500I0J-79500D01*
G01*
X104754000Y-64825500D01*
G75*
G02*
X104674500Y-64905000I-79500J0D01*
G01*
X104515500Y-64905000D01*
G75*
G02*
X104436000Y-64825500I0J79500D01*
G01*
G37*
G36*
G01*
X130104000Y-60824500D02*
X130104000Y-61025500D01*
G75*
G02*
X130024500Y-61105000I-79500J0D01*
G01*
X129865500Y-61105000D01*
G75*
G02*
X129786000Y-61025500I0J79500D01*
G01*
X129786000Y-60824500D01*
G75*
G02*
X129865500Y-60745000I79500J0D01*
G01*
X130024500Y-60745000D01*
G75*
G02*
X130104000Y-60824500I0J-79500D01*
G01*
G37*
G36*
G01*
X129414000Y-60824500D02*
X129414000Y-61025500D01*
G75*
G02*
X129334500Y-61105000I-79500J0D01*
G01*
X129175500Y-61105000D01*
G75*
G02*
X129096000Y-61025500I0J79500D01*
G01*
X129096000Y-60824500D01*
G75*
G02*
X129175500Y-60745000I79500J0D01*
G01*
X129334500Y-60745000D01*
G75*
G02*
X129414000Y-60824500I0J-79500D01*
G01*
G37*
D16*
X103054900Y-93075000D03*
D17*
X105754900Y-91425000D03*
X105754900Y-90775000D03*
X105754900Y-93375000D03*
X105754900Y-92725000D03*
X105754900Y-92075000D03*
D16*
X103054900Y-91075000D03*
G36*
G01*
X105634000Y-59424500D02*
X105634000Y-59625500D01*
G75*
G02*
X105554500Y-59705000I-79500J0D01*
G01*
X105395500Y-59705000D01*
G75*
G02*
X105316000Y-59625500I0J79500D01*
G01*
X105316000Y-59424500D01*
G75*
G02*
X105395500Y-59345000I79500J0D01*
G01*
X105554500Y-59345000D01*
G75*
G02*
X105634000Y-59424500I0J-79500D01*
G01*
G37*
G36*
G01*
X104944000Y-59424500D02*
X104944000Y-59625500D01*
G75*
G02*
X104864500Y-59705000I-79500J0D01*
G01*
X104705500Y-59705000D01*
G75*
G02*
X104626000Y-59625500I0J79500D01*
G01*
X104626000Y-59424500D01*
G75*
G02*
X104705500Y-59345000I79500J0D01*
G01*
X104864500Y-59345000D01*
G75*
G02*
X104944000Y-59424500I0J-79500D01*
G01*
G37*
G36*
G01*
X127689000Y-60824500D02*
X127689000Y-61025500D01*
G75*
G02*
X127609500Y-61105000I-79500J0D01*
G01*
X127450500Y-61105000D01*
G75*
G02*
X127371000Y-61025500I0J79500D01*
G01*
X127371000Y-60824500D01*
G75*
G02*
X127450500Y-60745000I79500J0D01*
G01*
X127609500Y-60745000D01*
G75*
G02*
X127689000Y-60824500I0J-79500D01*
G01*
G37*
G36*
G01*
X128379000Y-60824500D02*
X128379000Y-61025500D01*
G75*
G02*
X128299500Y-61105000I-79500J0D01*
G01*
X128140500Y-61105000D01*
G75*
G02*
X128061000Y-61025500I0J79500D01*
G01*
X128061000Y-60824500D01*
G75*
G02*
X128140500Y-60745000I79500J0D01*
G01*
X128299500Y-60745000D01*
G75*
G02*
X128379000Y-60824500I0J-79500D01*
G01*
G37*
G36*
G01*
X115324660Y-82921480D02*
X115324660Y-82720480D01*
G75*
G02*
X115404160Y-82640980I79500J0D01*
G01*
X115563160Y-82640980D01*
G75*
G02*
X115642660Y-82720480I0J-79500D01*
G01*
X115642660Y-82921480D01*
G75*
G02*
X115563160Y-83000980I-79500J0D01*
G01*
X115404160Y-83000980D01*
G75*
G02*
X115324660Y-82921480I0J79500D01*
G01*
G37*
G36*
G01*
X114634660Y-82921480D02*
X114634660Y-82720480D01*
G75*
G02*
X114714160Y-82640980I79500J0D01*
G01*
X114873160Y-82640980D01*
G75*
G02*
X114952660Y-82720480I0J-79500D01*
G01*
X114952660Y-82921480D01*
G75*
G02*
X114873160Y-83000980I-79500J0D01*
G01*
X114714160Y-83000980D01*
G75*
G02*
X114634660Y-82921480I0J79500D01*
G01*
G37*
G36*
G01*
X115642660Y-78045480D02*
X115642660Y-78246480D01*
G75*
G02*
X115563160Y-78325980I-79500J0D01*
G01*
X115404160Y-78325980D01*
G75*
G02*
X115324660Y-78246480I0J79500D01*
G01*
X115324660Y-78045480D01*
G75*
G02*
X115404160Y-77965980I79500J0D01*
G01*
X115563160Y-77965980D01*
G75*
G02*
X115642660Y-78045480I0J-79500D01*
G01*
G37*
G36*
G01*
X114952660Y-78045480D02*
X114952660Y-78246480D01*
G75*
G02*
X114873160Y-78325980I-79500J0D01*
G01*
X114714160Y-78325980D01*
G75*
G02*
X114634660Y-78246480I0J79500D01*
G01*
X114634660Y-78045480D01*
G75*
G02*
X114714160Y-77965980I79500J0D01*
G01*
X114873160Y-77965980D01*
G75*
G02*
X114952660Y-78045480I0J-79500D01*
G01*
G37*
G36*
G01*
X119418100Y-82923240D02*
X119418100Y-82722240D01*
G75*
G02*
X119497600Y-82642740I79500J0D01*
G01*
X119656600Y-82642740D01*
G75*
G02*
X119736100Y-82722240I0J-79500D01*
G01*
X119736100Y-82923240D01*
G75*
G02*
X119656600Y-83002740I-79500J0D01*
G01*
X119497600Y-83002740D01*
G75*
G02*
X119418100Y-82923240I0J79500D01*
G01*
G37*
G36*
G01*
X118728100Y-82923240D02*
X118728100Y-82722240D01*
G75*
G02*
X118807600Y-82642740I79500J0D01*
G01*
X118966600Y-82642740D01*
G75*
G02*
X119046100Y-82722240I0J-79500D01*
G01*
X119046100Y-82923240D01*
G75*
G02*
X118966600Y-83002740I-79500J0D01*
G01*
X118807600Y-83002740D01*
G75*
G02*
X118728100Y-82923240I0J79500D01*
G01*
G37*
G36*
G01*
X118728100Y-78248240D02*
X118728100Y-78047240D01*
G75*
G02*
X118807600Y-77967740I79500J0D01*
G01*
X118966600Y-77967740D01*
G75*
G02*
X119046100Y-78047240I0J-79500D01*
G01*
X119046100Y-78248240D01*
G75*
G02*
X118966600Y-78327740I-79500J0D01*
G01*
X118807600Y-78327740D01*
G75*
G02*
X118728100Y-78248240I0J79500D01*
G01*
G37*
G36*
G01*
X119418100Y-78248240D02*
X119418100Y-78047240D01*
G75*
G02*
X119497600Y-77967740I79500J0D01*
G01*
X119656600Y-77967740D01*
G75*
G02*
X119736100Y-78047240I0J-79500D01*
G01*
X119736100Y-78248240D01*
G75*
G02*
X119656600Y-78327740I-79500J0D01*
G01*
X119497600Y-78327740D01*
G75*
G02*
X119418100Y-78248240I0J79500D01*
G01*
G37*
G36*
G01*
X109625000Y-92375000D02*
X111775000Y-92375000D01*
G75*
G02*
X112025000Y-92625000I0J-250000D01*
G01*
X112025000Y-93375000D01*
G75*
G02*
X111775000Y-93625000I-250000J0D01*
G01*
X109625000Y-93625000D01*
G75*
G02*
X109375000Y-93375000I0J250000D01*
G01*
X109375000Y-92625000D01*
G75*
G02*
X109625000Y-92375000I250000J0D01*
G01*
G37*
G36*
G01*
X109625000Y-95175000D02*
X111775000Y-95175000D01*
G75*
G02*
X112025000Y-95425000I0J-250000D01*
G01*
X112025000Y-96175000D01*
G75*
G02*
X111775000Y-96425000I-250000J0D01*
G01*
X109625000Y-96425000D01*
G75*
G02*
X109375000Y-96175000I0J250000D01*
G01*
X109375000Y-95425000D01*
G75*
G02*
X109625000Y-95175000I250000J0D01*
G01*
G37*
G36*
G01*
X116425000Y-95293750D02*
X116425000Y-96206250D01*
G75*
G02*
X116181250Y-96450000I-243750J0D01*
G01*
X115693750Y-96450000D01*
G75*
G02*
X115450000Y-96206250I0J243750D01*
G01*
X115450000Y-95293750D01*
G75*
G02*
X115693750Y-95050000I243750J0D01*
G01*
X116181250Y-95050000D01*
G75*
G02*
X116425000Y-95293750I0J-243750D01*
G01*
G37*
G36*
G01*
X114550000Y-95293750D02*
X114550000Y-96206250D01*
G75*
G02*
X114306250Y-96450000I-243750J0D01*
G01*
X113818750Y-96450000D01*
G75*
G02*
X113575000Y-96206250I0J243750D01*
G01*
X113575000Y-95293750D01*
G75*
G02*
X113818750Y-95050000I243750J0D01*
G01*
X114306250Y-95050000D01*
G75*
G02*
X114550000Y-95293750I0J-243750D01*
G01*
G37*
D18*
X119300000Y-91215000D03*
X119300000Y-93585000D03*
G36*
G01*
X117525000Y-96206250D02*
X117525000Y-95693750D01*
G75*
G02*
X117743750Y-95475000I218750J0D01*
G01*
X118181250Y-95475000D01*
G75*
G02*
X118400000Y-95693750I0J-218750D01*
G01*
X118400000Y-96206250D01*
G75*
G02*
X118181250Y-96425000I-218750J0D01*
G01*
X117743750Y-96425000D01*
G75*
G02*
X117525000Y-96206250I0J218750D01*
G01*
G37*
G36*
G01*
X119100000Y-96206250D02*
X119100000Y-95693750D01*
G75*
G02*
X119318750Y-95475000I218750J0D01*
G01*
X119756250Y-95475000D01*
G75*
G02*
X119975000Y-95693750I0J-218750D01*
G01*
X119975000Y-96206250D01*
G75*
G02*
X119756250Y-96425000I-218750J0D01*
G01*
X119318750Y-96425000D01*
G75*
G02*
X119100000Y-96206250I0J218750D01*
G01*
G37*
G36*
G01*
X115385000Y-92487500D02*
X115385000Y-92852500D01*
G75*
G02*
X115202500Y-93035000I-182500J0D01*
G01*
X114837500Y-93035000D01*
G75*
G02*
X114655000Y-92852500I0J182500D01*
G01*
X114655000Y-92487500D01*
G75*
G02*
X114837500Y-92305000I182500J0D01*
G01*
X115202500Y-92305000D01*
G75*
G02*
X115385000Y-92487500I0J-182500D01*
G01*
G37*
G36*
G01*
X115385000Y-91647500D02*
X115385000Y-92012500D01*
G75*
G02*
X115202500Y-92195000I-182500J0D01*
G01*
X114837500Y-92195000D01*
G75*
G02*
X114655000Y-92012500I0J182500D01*
G01*
X114655000Y-91647500D01*
G75*
G02*
X114837500Y-91465000I182500J0D01*
G01*
X115202500Y-91465000D01*
G75*
G02*
X115385000Y-91647500I0J-182500D01*
G01*
G37*
G36*
G01*
X114545000Y-92487500D02*
X114545000Y-92852500D01*
G75*
G02*
X114362500Y-93035000I-182500J0D01*
G01*
X113997500Y-93035000D01*
G75*
G02*
X113815000Y-92852500I0J182500D01*
G01*
X113815000Y-92487500D01*
G75*
G02*
X113997500Y-92305000I182500J0D01*
G01*
X114362500Y-92305000D01*
G75*
G02*
X114545000Y-92487500I0J-182500D01*
G01*
G37*
G36*
G01*
X114545000Y-91647500D02*
X114545000Y-92012500D01*
G75*
G02*
X114362500Y-92195000I-182500J0D01*
G01*
X113997500Y-92195000D01*
G75*
G02*
X113815000Y-92012500I0J182500D01*
G01*
X113815000Y-91647500D01*
G75*
G02*
X113997500Y-91465000I182500J0D01*
G01*
X114362500Y-91465000D01*
G75*
G02*
X114545000Y-91647500I0J-182500D01*
G01*
G37*
G36*
G01*
X116475000Y-92937500D02*
X116475000Y-93062500D01*
G75*
G02*
X116412500Y-93125000I-62500J0D01*
G01*
X115712500Y-93125000D01*
G75*
G02*
X115650000Y-93062500I0J62500D01*
G01*
X115650000Y-92937500D01*
G75*
G02*
X115712500Y-92875000I62500J0D01*
G01*
X116412500Y-92875000D01*
G75*
G02*
X116475000Y-92937500I0J-62500D01*
G01*
G37*
G36*
G01*
X116475000Y-92437500D02*
X116475000Y-92562500D01*
G75*
G02*
X116412500Y-92625000I-62500J0D01*
G01*
X115712500Y-92625000D01*
G75*
G02*
X115650000Y-92562500I0J62500D01*
G01*
X115650000Y-92437500D01*
G75*
G02*
X115712500Y-92375000I62500J0D01*
G01*
X116412500Y-92375000D01*
G75*
G02*
X116475000Y-92437500I0J-62500D01*
G01*
G37*
G36*
G01*
X116475000Y-91937500D02*
X116475000Y-92062500D01*
G75*
G02*
X116412500Y-92125000I-62500J0D01*
G01*
X115712500Y-92125000D01*
G75*
G02*
X115650000Y-92062500I0J62500D01*
G01*
X115650000Y-91937500D01*
G75*
G02*
X115712500Y-91875000I62500J0D01*
G01*
X116412500Y-91875000D01*
G75*
G02*
X116475000Y-91937500I0J-62500D01*
G01*
G37*
G36*
G01*
X116475000Y-91437500D02*
X116475000Y-91562500D01*
G75*
G02*
X116412500Y-91625000I-62500J0D01*
G01*
X115712500Y-91625000D01*
G75*
G02*
X115650000Y-91562500I0J62500D01*
G01*
X115650000Y-91437500D01*
G75*
G02*
X115712500Y-91375000I62500J0D01*
G01*
X116412500Y-91375000D01*
G75*
G02*
X116475000Y-91437500I0J-62500D01*
G01*
G37*
G36*
G01*
X115475000Y-90437500D02*
X115475000Y-91137500D01*
G75*
G02*
X115412500Y-91200000I-62500J0D01*
G01*
X115287500Y-91200000D01*
G75*
G02*
X115225000Y-91137500I0J62500D01*
G01*
X115225000Y-90437500D01*
G75*
G02*
X115287500Y-90375000I62500J0D01*
G01*
X115412500Y-90375000D01*
G75*
G02*
X115475000Y-90437500I0J-62500D01*
G01*
G37*
G36*
G01*
X114975000Y-90437500D02*
X114975000Y-91137500D01*
G75*
G02*
X114912500Y-91200000I-62500J0D01*
G01*
X114787500Y-91200000D01*
G75*
G02*
X114725000Y-91137500I0J62500D01*
G01*
X114725000Y-90437500D01*
G75*
G02*
X114787500Y-90375000I62500J0D01*
G01*
X114912500Y-90375000D01*
G75*
G02*
X114975000Y-90437500I0J-62500D01*
G01*
G37*
G36*
G01*
X114475000Y-90437500D02*
X114475000Y-91137500D01*
G75*
G02*
X114412500Y-91200000I-62500J0D01*
G01*
X114287500Y-91200000D01*
G75*
G02*
X114225000Y-91137500I0J62500D01*
G01*
X114225000Y-90437500D01*
G75*
G02*
X114287500Y-90375000I62500J0D01*
G01*
X114412500Y-90375000D01*
G75*
G02*
X114475000Y-90437500I0J-62500D01*
G01*
G37*
G36*
G01*
X113975000Y-90437500D02*
X113975000Y-91137500D01*
G75*
G02*
X113912500Y-91200000I-62500J0D01*
G01*
X113787500Y-91200000D01*
G75*
G02*
X113725000Y-91137500I0J62500D01*
G01*
X113725000Y-90437500D01*
G75*
G02*
X113787500Y-90375000I62500J0D01*
G01*
X113912500Y-90375000D01*
G75*
G02*
X113975000Y-90437500I0J-62500D01*
G01*
G37*
G36*
G01*
X113550000Y-91437500D02*
X113550000Y-91562500D01*
G75*
G02*
X113487500Y-91625000I-62500J0D01*
G01*
X112787500Y-91625000D01*
G75*
G02*
X112725000Y-91562500I0J62500D01*
G01*
X112725000Y-91437500D01*
G75*
G02*
X112787500Y-91375000I62500J0D01*
G01*
X113487500Y-91375000D01*
G75*
G02*
X113550000Y-91437500I0J-62500D01*
G01*
G37*
G36*
G01*
X113550000Y-91937500D02*
X113550000Y-92062500D01*
G75*
G02*
X113487500Y-92125000I-62500J0D01*
G01*
X112787500Y-92125000D01*
G75*
G02*
X112725000Y-92062500I0J62500D01*
G01*
X112725000Y-91937500D01*
G75*
G02*
X112787500Y-91875000I62500J0D01*
G01*
X113487500Y-91875000D01*
G75*
G02*
X113550000Y-91937500I0J-62500D01*
G01*
G37*
G36*
G01*
X113550000Y-92437500D02*
X113550000Y-92562500D01*
G75*
G02*
X113487500Y-92625000I-62500J0D01*
G01*
X112787500Y-92625000D01*
G75*
G02*
X112725000Y-92562500I0J62500D01*
G01*
X112725000Y-92437500D01*
G75*
G02*
X112787500Y-92375000I62500J0D01*
G01*
X113487500Y-92375000D01*
G75*
G02*
X113550000Y-92437500I0J-62500D01*
G01*
G37*
G36*
G01*
X113550000Y-92937500D02*
X113550000Y-93062500D01*
G75*
G02*
X113487500Y-93125000I-62500J0D01*
G01*
X112787500Y-93125000D01*
G75*
G02*
X112725000Y-93062500I0J62500D01*
G01*
X112725000Y-92937500D01*
G75*
G02*
X112787500Y-92875000I62500J0D01*
G01*
X113487500Y-92875000D01*
G75*
G02*
X113550000Y-92937500I0J-62500D01*
G01*
G37*
G36*
G01*
X113975000Y-93362500D02*
X113975000Y-94062500D01*
G75*
G02*
X113912500Y-94125000I-62500J0D01*
G01*
X113787500Y-94125000D01*
G75*
G02*
X113725000Y-94062500I0J62500D01*
G01*
X113725000Y-93362500D01*
G75*
G02*
X113787500Y-93300000I62500J0D01*
G01*
X113912500Y-93300000D01*
G75*
G02*
X113975000Y-93362500I0J-62500D01*
G01*
G37*
G36*
G01*
X114475000Y-93362500D02*
X114475000Y-94062500D01*
G75*
G02*
X114412500Y-94125000I-62500J0D01*
G01*
X114287500Y-94125000D01*
G75*
G02*
X114225000Y-94062500I0J62500D01*
G01*
X114225000Y-93362500D01*
G75*
G02*
X114287500Y-93300000I62500J0D01*
G01*
X114412500Y-93300000D01*
G75*
G02*
X114475000Y-93362500I0J-62500D01*
G01*
G37*
G36*
G01*
X114975000Y-93362500D02*
X114975000Y-94062500D01*
G75*
G02*
X114912500Y-94125000I-62500J0D01*
G01*
X114787500Y-94125000D01*
G75*
G02*
X114725000Y-94062500I0J62500D01*
G01*
X114725000Y-93362500D01*
G75*
G02*
X114787500Y-93300000I62500J0D01*
G01*
X114912500Y-93300000D01*
G75*
G02*
X114975000Y-93362500I0J-62500D01*
G01*
G37*
G36*
G01*
X115475000Y-93362500D02*
X115475000Y-94062500D01*
G75*
G02*
X115412500Y-94125000I-62500J0D01*
G01*
X115287500Y-94125000D01*
G75*
G02*
X115225000Y-94062500I0J62500D01*
G01*
X115225000Y-93362500D01*
G75*
G02*
X115287500Y-93300000I62500J0D01*
G01*
X115412500Y-93300000D01*
G75*
G02*
X115475000Y-93362500I0J-62500D01*
G01*
G37*
D19*
X110360000Y-81100000D03*
D20*
X104060000Y-81100000D03*
X104060000Y-83400000D03*
X104060000Y-78800000D03*
M02*
