G04 #@! TF.GenerationSoftware,KiCad,Pcbnew,(5.1.9)-1*
G04 #@! TF.CreationDate,2021-01-17T23:25:34+08:00*
G04 #@! TF.ProjectId,esp-break,6573702d-6272-4656-916b-2e6b69636164,rev?*
G04 #@! TF.SameCoordinates,Original*
G04 #@! TF.FileFunction,Other,User*
%FSLAX46Y46*%
G04 Gerber Fmt 4.6, Leading zero omitted, Abs format (unit mm)*
G04 Created by KiCad (PCBNEW (5.1.9)-1) date 2021-01-17 23:25:34*
%MOMM*%
%LPD*%
G01*
G04 APERTURE LIST*
%ADD10C,0.050000*%
G04 APERTURE END LIST*
D10*
X129667600Y-54229000D02*
G75*
G03*
X129667600Y-54229000I-1550000J0D01*
G01*
X106706000Y-54203600D02*
G75*
G03*
X106706000Y-54203600I-1550000J0D01*
G01*
X112480000Y-89930000D02*
X112480000Y-88470000D01*
X112480000Y-88470000D02*
X115440000Y-88470000D01*
X115440000Y-88470000D02*
X115440000Y-89930000D01*
X115440000Y-89930000D02*
X112480000Y-89930000D01*
X106667000Y-63825000D02*
X106667000Y-60525000D01*
X101867000Y-63825000D02*
X106667000Y-63825000D01*
X101867000Y-60525000D02*
X101867000Y-63825000D01*
X106667000Y-60525000D02*
X101867000Y-60525000D01*
X126325000Y-56905000D02*
X130825000Y-56905000D01*
X102325000Y-56905000D02*
X106825000Y-56905000D01*
X130825000Y-45625000D02*
X130825000Y-56905000D01*
X102325000Y-45625000D02*
X102325000Y-56905000D01*
X102325000Y-45625000D02*
X130825000Y-45625000D01*
X126325000Y-56905000D02*
X126325000Y-77125000D01*
X106825000Y-77125000D02*
X126325000Y-77125000D01*
X106825000Y-77125000D02*
X106825000Y-56905000D01*
X112376640Y-100197340D02*
X120376640Y-100197340D01*
X120376640Y-100197340D02*
X120376640Y-108697340D01*
X120376640Y-108697340D02*
X112376640Y-108697340D01*
X112376640Y-108697340D02*
X112376640Y-100197340D01*
X130120800Y-75619200D02*
X126520800Y-75619200D01*
X130120800Y-91919200D02*
X130120800Y-75619200D01*
X126520800Y-91919200D02*
X130120800Y-91919200D01*
X126520800Y-75619200D02*
X126520800Y-91919200D01*
X126520800Y-93119800D02*
X126520800Y-109419800D01*
X126520800Y-109419800D02*
X130120800Y-109419800D01*
X130120800Y-109419800D02*
X130120800Y-93119800D01*
X130120800Y-93119800D02*
X126520800Y-93119800D01*
X113388660Y-82195980D02*
X113388660Y-78795980D01*
X113388660Y-78795980D02*
X116888660Y-78795980D01*
X116888660Y-78795980D02*
X116888660Y-82195980D01*
X116888660Y-82195980D02*
X113388660Y-82195980D01*
X120976300Y-82172740D02*
X117476300Y-82172740D01*
X120976300Y-78772740D02*
X120976300Y-82172740D01*
X117476300Y-78772740D02*
X120976300Y-78772740D01*
X117476300Y-82172740D02*
X117476300Y-78772740D01*
X102700000Y-84950000D02*
X104100000Y-84950000D01*
X102700000Y-85650000D02*
X102700000Y-84950000D01*
X104100000Y-85650000D02*
X102700000Y-85650000D01*
X104100000Y-84950000D02*
X104100000Y-85650000D01*
X104100000Y-86200000D02*
X104100000Y-86900000D01*
X104100000Y-86900000D02*
X102700000Y-86900000D01*
X102700000Y-86900000D02*
X102700000Y-86200000D01*
X102700000Y-86200000D02*
X104100000Y-86200000D01*
X102625000Y-58150000D02*
X104025000Y-58150000D01*
X102625000Y-58850000D02*
X102625000Y-58150000D01*
X104025000Y-58850000D02*
X102625000Y-58850000D01*
X104025000Y-58150000D02*
X104025000Y-58850000D01*
X104025000Y-59175000D02*
X104025000Y-59875000D01*
X104025000Y-59875000D02*
X102625000Y-59875000D01*
X102625000Y-59875000D02*
X102625000Y-59175000D01*
X102625000Y-59175000D02*
X104025000Y-59175000D01*
X104425000Y-58850000D02*
X104425000Y-58150000D01*
X104425000Y-58150000D02*
X105825000Y-58150000D01*
X105825000Y-58150000D02*
X105825000Y-58850000D01*
X105825000Y-58850000D02*
X104425000Y-58850000D01*
X104950000Y-65075000D02*
X103550000Y-65075000D01*
X104950000Y-64375000D02*
X104950000Y-65075000D01*
X103550000Y-64375000D02*
X104950000Y-64375000D01*
X103550000Y-65075000D02*
X103550000Y-64375000D01*
X128900000Y-60575000D02*
X130300000Y-60575000D01*
X128900000Y-61275000D02*
X128900000Y-60575000D01*
X130300000Y-61275000D02*
X128900000Y-61275000D01*
X130300000Y-60575000D02*
X130300000Y-61275000D01*
X100652400Y-87675000D02*
X106752400Y-87675000D01*
X106752400Y-87675000D02*
X106752400Y-96475000D01*
X106752400Y-96475000D02*
X100652400Y-96475000D01*
X100652400Y-87675000D02*
X100652400Y-96475000D01*
X104430000Y-59175000D02*
X105830000Y-59175000D01*
X104430000Y-59875000D02*
X104430000Y-59175000D01*
X105830000Y-59875000D02*
X104430000Y-59875000D01*
X105830000Y-59175000D02*
X105830000Y-59875000D01*
X128575000Y-60575000D02*
X128575000Y-61275000D01*
X128575000Y-61275000D02*
X127175000Y-61275000D01*
X127175000Y-61275000D02*
X127175000Y-60575000D01*
X127175000Y-60575000D02*
X128575000Y-60575000D01*
X114438660Y-83170980D02*
X114438660Y-82470980D01*
X114438660Y-82470980D02*
X115838660Y-82470980D01*
X115838660Y-82470980D02*
X115838660Y-83170980D01*
X115838660Y-83170980D02*
X114438660Y-83170980D01*
X114438660Y-77795980D02*
X115838660Y-77795980D01*
X114438660Y-78495980D02*
X114438660Y-77795980D01*
X115838660Y-78495980D02*
X114438660Y-78495980D01*
X115838660Y-77795980D02*
X115838660Y-78495980D01*
X118532100Y-83172740D02*
X118532100Y-82472740D01*
X118532100Y-82472740D02*
X119932100Y-82472740D01*
X119932100Y-82472740D02*
X119932100Y-83172740D01*
X119932100Y-83172740D02*
X118532100Y-83172740D01*
X119932100Y-78497740D02*
X118532100Y-78497740D01*
X119932100Y-77797740D02*
X119932100Y-78497740D01*
X118532100Y-77797740D02*
X119932100Y-77797740D01*
X118532100Y-78497740D02*
X118532100Y-77797740D01*
X109120000Y-96680000D02*
X109120000Y-92120000D01*
X112280000Y-96680000D02*
X109120000Y-96680000D01*
X112280000Y-92120000D02*
X112280000Y-96680000D01*
X109120000Y-92120000D02*
X112280000Y-92120000D01*
X113320000Y-94800000D02*
X116680000Y-94800000D01*
X113320000Y-96700000D02*
X113320000Y-94800000D01*
X116680000Y-96700000D02*
X113320000Y-96700000D01*
X116680000Y-94800000D02*
X116680000Y-96700000D01*
X121560000Y-90140000D02*
X121560000Y-94660000D01*
X121560000Y-94660000D02*
X117040000Y-94660000D01*
X117040000Y-94660000D02*
X117040000Y-90140000D01*
X117040000Y-90140000D02*
X121560000Y-90140000D01*
X120230000Y-96680000D02*
X117270000Y-96680000D01*
X120230000Y-95220000D02*
X120230000Y-96680000D01*
X117270000Y-95220000D02*
X120230000Y-95220000D01*
X117270000Y-96680000D02*
X117270000Y-95220000D01*
X112480000Y-94370000D02*
X116720000Y-94370000D01*
X112480000Y-90130000D02*
X112480000Y-94370000D01*
X116720000Y-90130000D02*
X112480000Y-90130000D01*
X116720000Y-94370000D02*
X116720000Y-90130000D01*
X102810000Y-77500000D02*
X102810000Y-84700000D01*
X102810000Y-84700000D02*
X111610000Y-84700000D01*
X111610000Y-84700000D02*
X111610000Y-77500000D01*
X111610000Y-77500000D02*
X102810000Y-77500000D01*
M02*
