M48
; DRILL file {KiCad (5.1.9)-1} date 01/17/21 23:26:05
; FORMAT={-:-/ absolute / inch / decimal}
; #@! TF.CreationDate,2021-01-17T23:26:05+08:00
; #@! TF.GenerationSoftware,Kicad,Pcbnew,(5.1.9)-1
; #@! TF.FileFunction,Plated,1,2,PTH
FMAT,2
INCH
T1C0.0079
T2C0.0157
T3C0.0236
T4C0.0335
T5C0.0394
T6C0.1083
T7C0.1181
%
G90
G05
T1
X4.4886Y-3.6087
X4.4886Y-3.6551
X4.535Y-3.6087
X4.535Y-3.6551
T2
X4.0381Y-2.4478
X4.1167Y-2.3073
X4.1299Y-3.7933
X4.1719Y-2.4478
X4.1882Y-3.1035
X4.2402Y-3.5305
X4.248Y-3.752
X4.2795Y-3.5827
X4.2894Y-4.0157
X4.29Y-3.48
X4.3041Y-3.6073
X4.32Y-3.45
X4.3287Y-3.6319
X4.3326Y-3.582
X4.35Y-3.42
X4.3583Y-3.6079
X4.3583Y-3.6614
X4.36Y-2.28
X4.36Y-2.75
X4.3646Y-2.9874
X4.3725Y-3.5678
X4.38Y-3.39
X4.3983Y-3.542
X4.4Y-2.28
X4.4Y-2.75
X4.41Y-3.36
X4.44Y-2.28
X4.44Y-2.75
X4.44Y-3.33
X4.4488Y-3.7362
X4.4665Y-3.065
X4.4705Y-2.5138
X4.4705Y-2.5531
X4.4705Y-2.5925
X4.4705Y-2.6319
X4.4705Y-2.6732
X4.48Y-2.28
X4.48Y-2.75
X4.5098Y-2.5138
X4.5098Y-2.5531
X4.5098Y-2.5925
X4.5098Y-2.6319
X4.5098Y-2.6732
X4.5118Y-3.6319
X4.52Y-2.28
X4.52Y-2.75
X4.5416Y-4.1371
X4.5512Y-2.5138
X4.5512Y-2.5531
X4.5512Y-2.5925
X4.5512Y-2.6319
X4.5512Y-2.6732
X4.56Y-2.28
X4.56Y-2.75
X4.5645Y-3.7697
X4.5906Y-3.6898
X4.5906Y-2.5138
X4.5906Y-2.5531
X4.5906Y-2.5925
X4.5906Y-2.6319
X4.5906Y-2.6732
X4.5916Y-4.1371
X4.6Y-2.28
X4.6Y-2.75
X4.6184Y-3.0857
X4.628Y-3.5236
X4.6299Y-2.5138
X4.6299Y-2.5531
X4.6299Y-2.5925
X4.6299Y-2.6319
X4.6299Y-2.6732
X4.64Y-2.28
X4.64Y-2.75
X4.6535Y-3.1181
X4.6563Y-3.4248
X4.68Y-2.28
X4.68Y-2.75
X4.7062Y-3.7776
X4.72Y-2.28
X4.72Y-2.75
X4.76Y-2.28
X4.76Y-2.75
X4.8Y-2.28
X4.8Y-2.75
X4.84Y-3.35
X4.84Y-3.39
X4.84Y-3.43
X4.84Y-3.47
X4.84Y-3.51
X4.84Y-3.84
X4.84Y-3.88
X4.84Y-3.92
X4.84Y-3.96
X4.84Y-4.0
X4.84Y-4.16
X4.84Y-4.2
X4.84Y-4.24
X4.88Y-4.16
X4.88Y-4.2
X4.88Y-4.24
X4.92Y-4.16
X4.92Y-4.2
X4.92Y-4.24
X4.9227Y-3.1761
X4.9242Y-2.798
X4.9242Y-2.848
X4.9242Y-2.948
X4.9331Y-3.1122
X4.96Y-3.41
X4.9614Y-3.4508
X4.9722Y-3.2278
T4
X4.1636Y-3.5266
X4.1636Y-3.7234
T5
X5.052Y-3.048
X5.052Y-3.148
X5.052Y-3.248
X5.052Y-3.348
X5.052Y-3.448
X5.052Y-3.548
X5.052Y-3.737
X5.052Y-3.837
X5.052Y-3.937
X5.052Y-4.037
X5.052Y-4.137
X5.052Y-4.237
T6
X4.14Y-4.416
X5.044Y-4.416
T7
X4.14Y-2.134
X5.044Y-2.135
T3
G00X4.0435Y-3.4872
M15
G01X4.0711Y-3.4872
M16
G05
G00X4.0711Y-3.7628
M15
G01X4.0435Y-3.7628
M16
G05
T0
M30
