G04 #@! TF.GenerationSoftware,KiCad,Pcbnew,(5.0.2)-1*
G04 #@! TF.CreationDate,2019-03-03T23:17:22+08:00*
G04 #@! TF.ProjectId,pcbtest-nrf24_breakout,70636274-6573-4742-9d6e-726632345f62,rev?*
G04 #@! TF.SameCoordinates,Original*
G04 #@! TF.FileFunction,Legend,Bot*
G04 #@! TF.FilePolarity,Positive*
%FSLAX46Y46*%
G04 Gerber Fmt 4.6, Leading zero omitted, Abs format (unit mm)*
G04 Created by KiCad (PCBNEW (5.0.2)-1) date 03-Mar-19 11:17:22 PM*
%MOMM*%
%LPD*%
G01*
G04 APERTURE LIST*
%ADD10C,0.010000*%
G04 APERTURE END LIST*
D10*
G04 #@! TO.C,G\002A\002A\002A*
G36*
X123698672Y-96115554D02*
X123658950Y-96037123D01*
X123568071Y-95984725D01*
X123438959Y-95970089D01*
X123308738Y-95992378D01*
X123217728Y-96047084D01*
X123155903Y-96173355D01*
X123163160Y-96320270D01*
X123213567Y-96425914D01*
X123310116Y-96497637D01*
X123443866Y-96520686D01*
X123580814Y-96492192D01*
X123634875Y-96461460D01*
X123692963Y-96373769D01*
X123714937Y-96245983D01*
X123698672Y-96115554D01*
X123698672Y-96115554D01*
G37*
X123698672Y-96115554D02*
X123658950Y-96037123D01*
X123568071Y-95984725D01*
X123438959Y-95970089D01*
X123308738Y-95992378D01*
X123217728Y-96047084D01*
X123155903Y-96173355D01*
X123163160Y-96320270D01*
X123213567Y-96425914D01*
X123310116Y-96497637D01*
X123443866Y-96520686D01*
X123580814Y-96492192D01*
X123634875Y-96461460D01*
X123692963Y-96373769D01*
X123714937Y-96245983D01*
X123698672Y-96115554D01*
G36*
X123684178Y-99350560D02*
X123594980Y-99251016D01*
X123451938Y-99215257D01*
X123446562Y-99215222D01*
X123302279Y-99249179D01*
X123200647Y-99336832D01*
X123151189Y-99456855D01*
X123163428Y-99587921D01*
X123232333Y-99695000D01*
X123357963Y-99772680D01*
X123490751Y-99781778D01*
X123608876Y-99730711D01*
X123690515Y-99627898D01*
X123714933Y-99508856D01*
X123684178Y-99350560D01*
X123684178Y-99350560D01*
G37*
X123684178Y-99350560D02*
X123594980Y-99251016D01*
X123451938Y-99215257D01*
X123446562Y-99215222D01*
X123302279Y-99249179D01*
X123200647Y-99336832D01*
X123151189Y-99456855D01*
X123163428Y-99587921D01*
X123232333Y-99695000D01*
X123357963Y-99772680D01*
X123490751Y-99781778D01*
X123608876Y-99730711D01*
X123690515Y-99627898D01*
X123714933Y-99508856D01*
X123684178Y-99350560D01*
G36*
X122862041Y-83324635D02*
X122786964Y-83166962D01*
X122747977Y-83122342D01*
X122705506Y-83109344D01*
X122635334Y-83129597D01*
X122513244Y-83184730D01*
X122511647Y-83185478D01*
X122384280Y-83253207D01*
X122327085Y-83307390D01*
X122325889Y-83351682D01*
X122388044Y-83504581D01*
X122419251Y-83607602D01*
X122422897Y-83688259D01*
X122402368Y-83774067D01*
X122384363Y-83826744D01*
X122333467Y-83949720D01*
X122271492Y-84040784D01*
X122185486Y-84105029D01*
X122062503Y-84147542D01*
X121889591Y-84173415D01*
X121653803Y-84187738D01*
X121451396Y-84193467D01*
X120819333Y-84207100D01*
X120819333Y-84666667D01*
X122851333Y-84666667D01*
X122851333Y-84433833D01*
X122848838Y-84300631D01*
X122834582Y-84231287D01*
X122798406Y-84205011D01*
X122737580Y-84201000D01*
X122623826Y-84201000D01*
X122743604Y-84075979D01*
X122833716Y-83928864D01*
X122884418Y-83735200D01*
X122894322Y-83524090D01*
X122862041Y-83324635D01*
X122862041Y-83324635D01*
G37*
X122862041Y-83324635D02*
X122786964Y-83166962D01*
X122747977Y-83122342D01*
X122705506Y-83109344D01*
X122635334Y-83129597D01*
X122513244Y-83184730D01*
X122511647Y-83185478D01*
X122384280Y-83253207D01*
X122327085Y-83307390D01*
X122325889Y-83351682D01*
X122388044Y-83504581D01*
X122419251Y-83607602D01*
X122422897Y-83688259D01*
X122402368Y-83774067D01*
X122384363Y-83826744D01*
X122333467Y-83949720D01*
X122271492Y-84040784D01*
X122185486Y-84105029D01*
X122062503Y-84147542D01*
X121889591Y-84173415D01*
X121653803Y-84187738D01*
X121451396Y-84193467D01*
X120819333Y-84207100D01*
X120819333Y-84666667D01*
X122851333Y-84666667D01*
X122851333Y-84433833D01*
X122848838Y-84300631D01*
X122834582Y-84231287D01*
X122798406Y-84205011D01*
X122737580Y-84201000D01*
X122623826Y-84201000D01*
X122743604Y-84075979D01*
X122833716Y-83928864D01*
X122884418Y-83735200D01*
X122894322Y-83524090D01*
X122862041Y-83324635D01*
G36*
X123191910Y-87418333D02*
X123180371Y-88190917D01*
X123168833Y-88963500D01*
X122406833Y-88963500D01*
X122383667Y-87503000D01*
X121877666Y-87503000D01*
X121877666Y-88984667D01*
X120819333Y-88984667D01*
X120819333Y-89492667D01*
X123698000Y-89492667D01*
X123698000Y-87418333D01*
X123191910Y-87418333D01*
X123191910Y-87418333D01*
G37*
X123191910Y-87418333D02*
X123180371Y-88190917D01*
X123168833Y-88963500D01*
X122406833Y-88963500D01*
X122383667Y-87503000D01*
X121877666Y-87503000D01*
X121877666Y-88984667D01*
X120819333Y-88984667D01*
X120819333Y-89492667D01*
X123698000Y-89492667D01*
X123698000Y-87418333D01*
X123191910Y-87418333D01*
G36*
X120819333Y-90847333D02*
X120819333Y-91313000D01*
X123698000Y-91313000D01*
X123698000Y-90847333D01*
X120819333Y-90847333D01*
X120819333Y-90847333D01*
G37*
X120819333Y-90847333D02*
X120819333Y-91313000D01*
X123698000Y-91313000D01*
X123698000Y-90847333D01*
X120819333Y-90847333D01*
G36*
X120819333Y-96012000D02*
X120819333Y-96477667D01*
X122851333Y-96477667D01*
X122851333Y-96012000D01*
X120819333Y-96012000D01*
X120819333Y-96012000D01*
G37*
X120819333Y-96012000D02*
X120819333Y-96477667D01*
X122851333Y-96477667D01*
X122851333Y-96012000D01*
X120819333Y-96012000D01*
G36*
X120819333Y-99271667D02*
X120819333Y-99737333D01*
X122851333Y-99737333D01*
X122851333Y-99271667D01*
X120819333Y-99271667D01*
X120819333Y-99271667D01*
G37*
X120819333Y-99271667D02*
X120819333Y-99737333D01*
X122851333Y-99737333D01*
X122851333Y-99271667D01*
X120819333Y-99271667D01*
G36*
X123696799Y-101639292D02*
X123692249Y-101428154D01*
X123682932Y-101269687D01*
X123667427Y-101147906D01*
X123644314Y-101046824D01*
X123612174Y-100950454D01*
X123611921Y-100949778D01*
X123459671Y-100660098D01*
X123241366Y-100420359D01*
X122964475Y-100238519D01*
X122927881Y-100221066D01*
X122788543Y-100161636D01*
X122667080Y-100125067D01*
X122534091Y-100106029D01*
X122360172Y-100099194D01*
X122252589Y-100098683D01*
X122055774Y-100101030D01*
X121914737Y-100111768D01*
X121800617Y-100137010D01*
X121684556Y-100182866D01*
X121555682Y-100246255D01*
X121336564Y-100377546D01*
X121172118Y-100525660D01*
X121110502Y-100600831D01*
X121010107Y-100749867D01*
X120934696Y-100905059D01*
X120881104Y-101081333D01*
X120846163Y-101293614D01*
X120826706Y-101556830D01*
X120819566Y-101885906D01*
X120819333Y-101973194D01*
X120819333Y-102658333D01*
X121813359Y-102658333D01*
X121813359Y-102143155D01*
X121612233Y-102141165D01*
X121464974Y-102137218D01*
X121385071Y-102131474D01*
X121376561Y-102129548D01*
X121344077Y-102075727D01*
X121326954Y-101958475D01*
X121323905Y-101797373D01*
X121333642Y-101612002D01*
X121354877Y-101421945D01*
X121386323Y-101246782D01*
X121426691Y-101106097D01*
X121446878Y-101060297D01*
X121594757Y-100858186D01*
X121795124Y-100720688D01*
X122050583Y-100646278D01*
X122176039Y-100633408D01*
X122482288Y-100645108D01*
X122733871Y-100719606D01*
X122935350Y-100859192D01*
X123091282Y-101066159D01*
X123111150Y-101103402D01*
X123154887Y-101208859D01*
X123182735Y-101333108D01*
X123198236Y-101498826D01*
X123204543Y-101701326D01*
X123211166Y-102129167D01*
X122323260Y-102140638D01*
X122054864Y-102143032D01*
X121813359Y-102143155D01*
X121813359Y-102658333D01*
X123698000Y-102658333D01*
X123698000Y-101919088D01*
X123696799Y-101639292D01*
X123696799Y-101639292D01*
G37*
X123696799Y-101639292D02*
X123692249Y-101428154D01*
X123682932Y-101269687D01*
X123667427Y-101147906D01*
X123644314Y-101046824D01*
X123612174Y-100950454D01*
X123611921Y-100949778D01*
X123459671Y-100660098D01*
X123241366Y-100420359D01*
X122964475Y-100238519D01*
X122927881Y-100221066D01*
X122788543Y-100161636D01*
X122667080Y-100125067D01*
X122534091Y-100106029D01*
X122360172Y-100099194D01*
X122252589Y-100098683D01*
X122055774Y-100101030D01*
X121914737Y-100111768D01*
X121800617Y-100137010D01*
X121684556Y-100182866D01*
X121555682Y-100246255D01*
X121336564Y-100377546D01*
X121172118Y-100525660D01*
X121110502Y-100600831D01*
X121010107Y-100749867D01*
X120934696Y-100905059D01*
X120881104Y-101081333D01*
X120846163Y-101293614D01*
X120826706Y-101556830D01*
X120819566Y-101885906D01*
X120819333Y-101973194D01*
X120819333Y-102658333D01*
X121813359Y-102658333D01*
X121813359Y-102143155D01*
X121612233Y-102141165D01*
X121464974Y-102137218D01*
X121385071Y-102131474D01*
X121376561Y-102129548D01*
X121344077Y-102075727D01*
X121326954Y-101958475D01*
X121323905Y-101797373D01*
X121333642Y-101612002D01*
X121354877Y-101421945D01*
X121386323Y-101246782D01*
X121426691Y-101106097D01*
X121446878Y-101060297D01*
X121594757Y-100858186D01*
X121795124Y-100720688D01*
X122050583Y-100646278D01*
X122176039Y-100633408D01*
X122482288Y-100645108D01*
X122733871Y-100719606D01*
X122935350Y-100859192D01*
X123091282Y-101066159D01*
X123111150Y-101103402D01*
X123154887Y-101208859D01*
X123182735Y-101333108D01*
X123198236Y-101498826D01*
X123204543Y-101701326D01*
X123211166Y-102129167D01*
X122323260Y-102140638D01*
X122054864Y-102143032D01*
X121813359Y-102143155D01*
X121813359Y-102658333D01*
X123698000Y-102658333D01*
X123698000Y-101919088D01*
X123696799Y-101639292D01*
G36*
X122851333Y-77724000D02*
X122851333Y-77131333D01*
X122428000Y-77131333D01*
X122428000Y-77730905D01*
X121895332Y-77716869D01*
X121641352Y-77706864D01*
X121460935Y-77688244D01*
X121343015Y-77654822D01*
X121276524Y-77600414D01*
X121250393Y-77518835D01*
X121253557Y-77403899D01*
X121258683Y-77361076D01*
X121281326Y-77188653D01*
X121073840Y-77122301D01*
X120866355Y-77055950D01*
X120844292Y-77167725D01*
X120805936Y-77408357D01*
X120799266Y-77591124D01*
X120816812Y-77712356D01*
X120869745Y-77874341D01*
X120945261Y-77996370D01*
X121054576Y-78083614D01*
X121208903Y-78141241D01*
X121419456Y-78174421D01*
X121697450Y-78188323D01*
X121852314Y-78189667D01*
X122428000Y-78189667D01*
X122428000Y-78570667D01*
X122851333Y-78570667D01*
X122851333Y-78193707D01*
X123115916Y-78181104D01*
X123380500Y-78168500D01*
X123425184Y-77724000D01*
X122851333Y-77724000D01*
X122851333Y-77724000D01*
G37*
X122851333Y-77724000D02*
X122851333Y-77131333D01*
X122428000Y-77131333D01*
X122428000Y-77730905D01*
X121895332Y-77716869D01*
X121641352Y-77706864D01*
X121460935Y-77688244D01*
X121343015Y-77654822D01*
X121276524Y-77600414D01*
X121250393Y-77518835D01*
X121253557Y-77403899D01*
X121258683Y-77361076D01*
X121281326Y-77188653D01*
X121073840Y-77122301D01*
X120866355Y-77055950D01*
X120844292Y-77167725D01*
X120805936Y-77408357D01*
X120799266Y-77591124D01*
X120816812Y-77712356D01*
X120869745Y-77874341D01*
X120945261Y-77996370D01*
X121054576Y-78083614D01*
X121208903Y-78141241D01*
X121419456Y-78174421D01*
X121697450Y-78188323D01*
X121852314Y-78189667D01*
X122428000Y-78189667D01*
X122428000Y-78570667D01*
X122851333Y-78570667D01*
X122851333Y-78193707D01*
X123115916Y-78181104D01*
X123380500Y-78168500D01*
X123425184Y-77724000D01*
X122851333Y-77724000D01*
G36*
X122860128Y-81555826D02*
X122765717Y-81296010D01*
X122610674Y-81094819D01*
X122396581Y-80953855D01*
X122125020Y-80874718D01*
X121888250Y-80856903D01*
X121666000Y-80856667D01*
X121666000Y-81661000D01*
X121664838Y-81911469D01*
X121661603Y-82130120D01*
X121656671Y-82303954D01*
X121650418Y-82419967D01*
X121643220Y-82465157D01*
X121642731Y-82465333D01*
X121592928Y-82447716D01*
X121502321Y-82404711D01*
X121490854Y-82398828D01*
X121354896Y-82283964D01*
X121263326Y-82115279D01*
X121219638Y-81913085D01*
X121227326Y-81697697D01*
X121289884Y-81489429D01*
X121323422Y-81425289D01*
X121403756Y-81289133D01*
X121246155Y-81135240D01*
X121152269Y-81047436D01*
X121095733Y-81012837D01*
X121054969Y-81023853D01*
X121022549Y-81056590D01*
X120958957Y-81144766D01*
X120889412Y-81262503D01*
X120880219Y-81280000D01*
X120832329Y-81424657D01*
X120800722Y-81623023D01*
X120786706Y-81845472D01*
X120791585Y-82062383D01*
X120816668Y-82244131D01*
X120834937Y-82306669D01*
X120969528Y-82554475D01*
X121162568Y-82749390D01*
X121402177Y-82885669D01*
X121676477Y-82957566D01*
X121973588Y-82959333D01*
X122121808Y-82933007D01*
X122121808Y-82425684D01*
X122082826Y-82401846D01*
X122061344Y-82321912D01*
X122053334Y-82177208D01*
X122054766Y-81959061D01*
X122056318Y-81883250D01*
X122061913Y-81661389D01*
X122068816Y-81510935D01*
X122079460Y-81418634D01*
X122096276Y-81371232D01*
X122121696Y-81355478D01*
X122152833Y-81357223D01*
X122289400Y-81419816D01*
X122393134Y-81549186D01*
X122453243Y-81730367D01*
X122460357Y-81783741D01*
X122452259Y-82027882D01*
X122376474Y-82221959D01*
X122268394Y-82339768D01*
X122182321Y-82402100D01*
X122121808Y-82425684D01*
X122121808Y-82933007D01*
X122127579Y-82931981D01*
X122402949Y-82828351D01*
X122618860Y-82665206D01*
X122773533Y-82445012D01*
X122865187Y-82170234D01*
X122892323Y-81872667D01*
X122860128Y-81555826D01*
X122860128Y-81555826D01*
G37*
X122860128Y-81555826D02*
X122765717Y-81296010D01*
X122610674Y-81094819D01*
X122396581Y-80953855D01*
X122125020Y-80874718D01*
X121888250Y-80856903D01*
X121666000Y-80856667D01*
X121666000Y-81661000D01*
X121664838Y-81911469D01*
X121661603Y-82130120D01*
X121656671Y-82303954D01*
X121650418Y-82419967D01*
X121643220Y-82465157D01*
X121642731Y-82465333D01*
X121592928Y-82447716D01*
X121502321Y-82404711D01*
X121490854Y-82398828D01*
X121354896Y-82283964D01*
X121263326Y-82115279D01*
X121219638Y-81913085D01*
X121227326Y-81697697D01*
X121289884Y-81489429D01*
X121323422Y-81425289D01*
X121403756Y-81289133D01*
X121246155Y-81135240D01*
X121152269Y-81047436D01*
X121095733Y-81012837D01*
X121054969Y-81023853D01*
X121022549Y-81056590D01*
X120958957Y-81144766D01*
X120889412Y-81262503D01*
X120880219Y-81280000D01*
X120832329Y-81424657D01*
X120800722Y-81623023D01*
X120786706Y-81845472D01*
X120791585Y-82062383D01*
X120816668Y-82244131D01*
X120834937Y-82306669D01*
X120969528Y-82554475D01*
X121162568Y-82749390D01*
X121402177Y-82885669D01*
X121676477Y-82957566D01*
X121973588Y-82959333D01*
X122121808Y-82933007D01*
X122121808Y-82425684D01*
X122082826Y-82401846D01*
X122061344Y-82321912D01*
X122053334Y-82177208D01*
X122054766Y-81959061D01*
X122056318Y-81883250D01*
X122061913Y-81661389D01*
X122068816Y-81510935D01*
X122079460Y-81418634D01*
X122096276Y-81371232D01*
X122121696Y-81355478D01*
X122152833Y-81357223D01*
X122289400Y-81419816D01*
X122393134Y-81549186D01*
X122453243Y-81730367D01*
X122460357Y-81783741D01*
X122452259Y-82027882D01*
X122376474Y-82221959D01*
X122268394Y-82339768D01*
X122182321Y-82402100D01*
X122121808Y-82425684D01*
X122121808Y-82933007D01*
X122127579Y-82931981D01*
X122402949Y-82828351D01*
X122618860Y-82665206D01*
X122773533Y-82445012D01*
X122865187Y-82170234D01*
X122892323Y-81872667D01*
X122860128Y-81555826D01*
G36*
X122844445Y-85770777D02*
X122832336Y-85731531D01*
X122711540Y-85489078D01*
X122536117Y-85298110D01*
X122319765Y-85160110D01*
X122076182Y-85076563D01*
X121819065Y-85048953D01*
X121562113Y-85078763D01*
X121319023Y-85167477D01*
X121103494Y-85316579D01*
X120930480Y-85525515D01*
X120857733Y-85661381D01*
X120815862Y-85797323D01*
X120794750Y-85970125D01*
X120791065Y-86032396D01*
X120792843Y-86273464D01*
X120823091Y-86461586D01*
X120834828Y-86497669D01*
X120971914Y-86753905D01*
X121167601Y-86950270D01*
X121417623Y-87083608D01*
X121717032Y-87150692D01*
X121808549Y-87148681D01*
X121808549Y-86646586D01*
X121776281Y-86644939D01*
X121626643Y-86629697D01*
X121527051Y-86597861D01*
X121442897Y-86534316D01*
X121384698Y-86473893D01*
X121294888Y-86361860D01*
X121253254Y-86257229D01*
X121242686Y-86115682D01*
X121242666Y-86106000D01*
X121252028Y-85961156D01*
X121291521Y-85855652D01*
X121378254Y-85745168D01*
X121384698Y-85738107D01*
X121476355Y-85647950D01*
X121562451Y-85598676D01*
X121677592Y-85575168D01*
X121776281Y-85567061D01*
X122015546Y-85581010D01*
X122204702Y-85659797D01*
X122352336Y-85807242D01*
X122367972Y-85830192D01*
X122425459Y-85982785D01*
X122434416Y-86163571D01*
X122394845Y-86331367D01*
X122367972Y-86381808D01*
X122224831Y-86537919D01*
X122041219Y-86624905D01*
X121808549Y-86646586D01*
X121808549Y-87148681D01*
X122000684Y-87144457D01*
X122267761Y-87072522D01*
X122501715Y-86943074D01*
X122686000Y-86764304D01*
X122769169Y-86629997D01*
X122860947Y-86353356D01*
X122886768Y-86056580D01*
X122844445Y-85770777D01*
X122844445Y-85770777D01*
G37*
X122844445Y-85770777D02*
X122832336Y-85731531D01*
X122711540Y-85489078D01*
X122536117Y-85298110D01*
X122319765Y-85160110D01*
X122076182Y-85076563D01*
X121819065Y-85048953D01*
X121562113Y-85078763D01*
X121319023Y-85167477D01*
X121103494Y-85316579D01*
X120930480Y-85525515D01*
X120857733Y-85661381D01*
X120815862Y-85797323D01*
X120794750Y-85970125D01*
X120791065Y-86032396D01*
X120792843Y-86273464D01*
X120823091Y-86461586D01*
X120834828Y-86497669D01*
X120971914Y-86753905D01*
X121167601Y-86950270D01*
X121417623Y-87083608D01*
X121717032Y-87150692D01*
X121808549Y-87148681D01*
X121808549Y-86646586D01*
X121776281Y-86644939D01*
X121626643Y-86629697D01*
X121527051Y-86597861D01*
X121442897Y-86534316D01*
X121384698Y-86473893D01*
X121294888Y-86361860D01*
X121253254Y-86257229D01*
X121242686Y-86115682D01*
X121242666Y-86106000D01*
X121252028Y-85961156D01*
X121291521Y-85855652D01*
X121378254Y-85745168D01*
X121384698Y-85738107D01*
X121476355Y-85647950D01*
X121562451Y-85598676D01*
X121677592Y-85575168D01*
X121776281Y-85567061D01*
X122015546Y-85581010D01*
X122204702Y-85659797D01*
X122352336Y-85807242D01*
X122367972Y-85830192D01*
X122425459Y-85982785D01*
X122434416Y-86163571D01*
X122394845Y-86331367D01*
X122367972Y-86381808D01*
X122224831Y-86537919D01*
X122041219Y-86624905D01*
X121808549Y-86646586D01*
X121808549Y-87148681D01*
X122000684Y-87144457D01*
X122267761Y-87072522D01*
X122501715Y-86943074D01*
X122686000Y-86764304D01*
X122769169Y-86629997D01*
X122860947Y-86353356D01*
X122886768Y-86056580D01*
X122844445Y-85770777D01*
G36*
X122872805Y-92694397D02*
X122804200Y-92508430D01*
X122692553Y-92360750D01*
X122581493Y-92244333D01*
X122851333Y-92244333D01*
X122851333Y-91778667D01*
X120819333Y-91778667D01*
X120819333Y-92244333D01*
X121088092Y-92244333D01*
X121000998Y-92339583D01*
X120859081Y-92554748D01*
X120783334Y-92806506D01*
X120775499Y-93076521D01*
X120837315Y-93346458D01*
X120893416Y-93472871D01*
X120989645Y-93626687D01*
X121106286Y-93739717D01*
X121242666Y-93826955D01*
X121367838Y-93893112D01*
X121474744Y-93932425D01*
X121593756Y-93951566D01*
X121737671Y-93956597D01*
X121737671Y-93468817D01*
X121552198Y-93412355D01*
X121389506Y-93294808D01*
X121274482Y-93132490D01*
X121212475Y-92963667D01*
X121212408Y-92805283D01*
X121274864Y-92625446D01*
X121284101Y-92606024D01*
X121404833Y-92436188D01*
X121561968Y-92327513D01*
X121740920Y-92275983D01*
X121927101Y-92277583D01*
X122105926Y-92328294D01*
X122262807Y-92424103D01*
X122383158Y-92560991D01*
X122452392Y-92734944D01*
X122457762Y-92929174D01*
X122393666Y-93137713D01*
X122273924Y-93298641D01*
X122114220Y-93409265D01*
X121930241Y-93466889D01*
X121737671Y-93468817D01*
X121737671Y-93956597D01*
X121755245Y-93957212D01*
X121835333Y-93957202D01*
X122040314Y-93950955D01*
X122188878Y-93931160D01*
X122308829Y-93892936D01*
X122370988Y-93863180D01*
X122600703Y-93697856D01*
X122765998Y-93479245D01*
X122864383Y-93211790D01*
X122893667Y-92930095D01*
X122872805Y-92694397D01*
X122872805Y-92694397D01*
G37*
X122872805Y-92694397D02*
X122804200Y-92508430D01*
X122692553Y-92360750D01*
X122581493Y-92244333D01*
X122851333Y-92244333D01*
X122851333Y-91778667D01*
X120819333Y-91778667D01*
X120819333Y-92244333D01*
X121088092Y-92244333D01*
X121000998Y-92339583D01*
X120859081Y-92554748D01*
X120783334Y-92806506D01*
X120775499Y-93076521D01*
X120837315Y-93346458D01*
X120893416Y-93472871D01*
X120989645Y-93626687D01*
X121106286Y-93739717D01*
X121242666Y-93826955D01*
X121367838Y-93893112D01*
X121474744Y-93932425D01*
X121593756Y-93951566D01*
X121737671Y-93956597D01*
X121737671Y-93468817D01*
X121552198Y-93412355D01*
X121389506Y-93294808D01*
X121274482Y-93132490D01*
X121212475Y-92963667D01*
X121212408Y-92805283D01*
X121274864Y-92625446D01*
X121284101Y-92606024D01*
X121404833Y-92436188D01*
X121561968Y-92327513D01*
X121740920Y-92275983D01*
X121927101Y-92277583D01*
X122105926Y-92328294D01*
X122262807Y-92424103D01*
X122383158Y-92560991D01*
X122452392Y-92734944D01*
X122457762Y-92929174D01*
X122393666Y-93137713D01*
X122273924Y-93298641D01*
X122114220Y-93409265D01*
X121930241Y-93466889D01*
X121737671Y-93468817D01*
X121737671Y-93956597D01*
X121755245Y-93957212D01*
X121835333Y-93957202D01*
X122040314Y-93950955D01*
X122188878Y-93931160D01*
X122308829Y-93892936D01*
X122370988Y-93863180D01*
X122600703Y-93697856D01*
X122765998Y-93479245D01*
X122864383Y-93211790D01*
X122893667Y-92930095D01*
X122872805Y-92694397D01*
G36*
X122851333Y-94826667D02*
X122851333Y-94276333D01*
X122428000Y-94276333D01*
X122428000Y-94826667D01*
X121920000Y-94826667D01*
X121701635Y-94825383D01*
X121551118Y-94819849D01*
X121451645Y-94807544D01*
X121386415Y-94785945D01*
X121338626Y-94752530D01*
X121322273Y-94736940D01*
X121264695Y-94659600D01*
X121248464Y-94565310D01*
X121257267Y-94466853D01*
X121281988Y-94286493D01*
X121089000Y-94232460D01*
X120944622Y-94205768D01*
X120860254Y-94229564D01*
X120823888Y-94309824D01*
X120819981Y-94366292D01*
X120813312Y-94458755D01*
X120800998Y-94556792D01*
X120798217Y-94691712D01*
X120814813Y-94805500D01*
X120862593Y-94962601D01*
X120923599Y-95080407D01*
X121010117Y-95165047D01*
X121134432Y-95222647D01*
X121308832Y-95259336D01*
X121545602Y-95281241D01*
X121790932Y-95292333D01*
X122406833Y-95313500D01*
X122419851Y-95493417D01*
X122432868Y-95673333D01*
X122846465Y-95673333D01*
X122859482Y-95493417D01*
X122872500Y-95313500D01*
X123133277Y-95300996D01*
X123394053Y-95288491D01*
X123422833Y-94826551D01*
X122851333Y-94826667D01*
X122851333Y-94826667D01*
G37*
X122851333Y-94826667D02*
X122851333Y-94276333D01*
X122428000Y-94276333D01*
X122428000Y-94826667D01*
X121920000Y-94826667D01*
X121701635Y-94825383D01*
X121551118Y-94819849D01*
X121451645Y-94807544D01*
X121386415Y-94785945D01*
X121338626Y-94752530D01*
X121322273Y-94736940D01*
X121264695Y-94659600D01*
X121248464Y-94565310D01*
X121257267Y-94466853D01*
X121281988Y-94286493D01*
X121089000Y-94232460D01*
X120944622Y-94205768D01*
X120860254Y-94229564D01*
X120823888Y-94309824D01*
X120819981Y-94366292D01*
X120813312Y-94458755D01*
X120800998Y-94556792D01*
X120798217Y-94691712D01*
X120814813Y-94805500D01*
X120862593Y-94962601D01*
X120923599Y-95080407D01*
X121010117Y-95165047D01*
X121134432Y-95222647D01*
X121308832Y-95259336D01*
X121545602Y-95281241D01*
X121790932Y-95292333D01*
X122406833Y-95313500D01*
X122419851Y-95493417D01*
X122432868Y-95673333D01*
X122846465Y-95673333D01*
X122859482Y-95493417D01*
X122872500Y-95313500D01*
X123133277Y-95300996D01*
X123394053Y-95288491D01*
X123422833Y-94826551D01*
X122851333Y-94826667D01*
G36*
X122884527Y-79497751D02*
X122862769Y-79283221D01*
X122822191Y-79125988D01*
X122770581Y-79021501D01*
X122705672Y-78926715D01*
X122656072Y-78872186D01*
X122645198Y-78867000D01*
X122597061Y-78891935D01*
X122512038Y-78954483D01*
X122476633Y-78983417D01*
X122337965Y-79099833D01*
X122430106Y-79307267D01*
X122488613Y-79491917D01*
X122505008Y-79671267D01*
X122482554Y-79828117D01*
X122424512Y-79945271D01*
X122334145Y-80005529D01*
X122296792Y-80010000D01*
X122206029Y-79972518D01*
X122132623Y-79858345D01*
X122075305Y-79664896D01*
X122046804Y-79500602D01*
X121993569Y-79231169D01*
X121917521Y-79032767D01*
X121812716Y-78893457D01*
X121706856Y-78817962D01*
X121500622Y-78746417D01*
X121305614Y-78750708D01*
X121128790Y-78822113D01*
X120977108Y-78951908D01*
X120857528Y-79131371D01*
X120777008Y-79351779D01*
X120742506Y-79604409D01*
X120760981Y-79880538D01*
X120780727Y-79978908D01*
X120832823Y-80143296D01*
X120906691Y-80308765D01*
X120987448Y-80445360D01*
X121046000Y-80512883D01*
X121098999Y-80537196D01*
X121169183Y-80519048D01*
X121277478Y-80454453D01*
X121445434Y-80343305D01*
X121315374Y-80091124D01*
X121226247Y-79873041D01*
X121185591Y-79669227D01*
X121191562Y-79492338D01*
X121242315Y-79355028D01*
X121336007Y-79269955D01*
X121438238Y-79248000D01*
X121509968Y-79261943D01*
X121563301Y-79312480D01*
X121604343Y-79412672D01*
X121639201Y-79575579D01*
X121662250Y-79727134D01*
X121717328Y-80010822D01*
X121796884Y-80219601D01*
X121907495Y-80361314D01*
X122055734Y-80443805D01*
X122248178Y-80474917D01*
X122289776Y-80475667D01*
X122434298Y-80469293D01*
X122531697Y-80440826D01*
X122619126Y-80376249D01*
X122661274Y-80335526D01*
X122785887Y-80166776D01*
X122860674Y-79954001D01*
X122888674Y-79685795D01*
X122884527Y-79497751D01*
X122884527Y-79497751D01*
G37*
X122884527Y-79497751D02*
X122862769Y-79283221D01*
X122822191Y-79125988D01*
X122770581Y-79021501D01*
X122705672Y-78926715D01*
X122656072Y-78872186D01*
X122645198Y-78867000D01*
X122597061Y-78891935D01*
X122512038Y-78954483D01*
X122476633Y-78983417D01*
X122337965Y-79099833D01*
X122430106Y-79307267D01*
X122488613Y-79491917D01*
X122505008Y-79671267D01*
X122482554Y-79828117D01*
X122424512Y-79945271D01*
X122334145Y-80005529D01*
X122296792Y-80010000D01*
X122206029Y-79972518D01*
X122132623Y-79858345D01*
X122075305Y-79664896D01*
X122046804Y-79500602D01*
X121993569Y-79231169D01*
X121917521Y-79032767D01*
X121812716Y-78893457D01*
X121706856Y-78817962D01*
X121500622Y-78746417D01*
X121305614Y-78750708D01*
X121128790Y-78822113D01*
X120977108Y-78951908D01*
X120857528Y-79131371D01*
X120777008Y-79351779D01*
X120742506Y-79604409D01*
X120760981Y-79880538D01*
X120780727Y-79978908D01*
X120832823Y-80143296D01*
X120906691Y-80308765D01*
X120987448Y-80445360D01*
X121046000Y-80512883D01*
X121098999Y-80537196D01*
X121169183Y-80519048D01*
X121277478Y-80454453D01*
X121445434Y-80343305D01*
X121315374Y-80091124D01*
X121226247Y-79873041D01*
X121185591Y-79669227D01*
X121191562Y-79492338D01*
X121242315Y-79355028D01*
X121336007Y-79269955D01*
X121438238Y-79248000D01*
X121509968Y-79261943D01*
X121563301Y-79312480D01*
X121604343Y-79412672D01*
X121639201Y-79575579D01*
X121662250Y-79727134D01*
X121717328Y-80010822D01*
X121796884Y-80219601D01*
X121907495Y-80361314D01*
X122055734Y-80443805D01*
X122248178Y-80474917D01*
X122289776Y-80475667D01*
X122434298Y-80469293D01*
X122531697Y-80440826D01*
X122619126Y-80376249D01*
X122661274Y-80335526D01*
X122785887Y-80166776D01*
X122860674Y-79954001D01*
X122888674Y-79685795D01*
X122884527Y-79497751D01*
G36*
X123008041Y-97097776D02*
X122931326Y-96992379D01*
X122876656Y-96925969D01*
X122773839Y-96802772D01*
X122639014Y-96916219D01*
X122504190Y-97029667D01*
X122349678Y-96933583D01*
X122168135Y-96859469D01*
X121954857Y-96831713D01*
X121731408Y-96846526D01*
X121519356Y-96900124D01*
X121340265Y-96988718D01*
X121215701Y-97108523D01*
X121199409Y-97135561D01*
X121147623Y-97232323D01*
X120994061Y-97071060D01*
X120800593Y-96925548D01*
X120573569Y-96848221D01*
X120330870Y-96840011D01*
X120090374Y-96901851D01*
X119896262Y-97013806D01*
X119734921Y-97187024D01*
X119621132Y-97413036D01*
X119558148Y-97672482D01*
X119549223Y-97946002D01*
X119597610Y-98214236D01*
X119665750Y-98385397D01*
X119818162Y-98606324D01*
X120015678Y-98768609D01*
X120243521Y-98860642D01*
X120279583Y-98867701D01*
X120438333Y-98894503D01*
X120438333Y-98638585D01*
X120434043Y-98492500D01*
X120418123Y-98413504D01*
X120386000Y-98384316D01*
X120370600Y-98382667D01*
X120302179Y-98354423D01*
X120206345Y-98282868D01*
X120158933Y-98238733D01*
X120074999Y-98145631D01*
X120031977Y-98060220D01*
X120016551Y-97946858D01*
X120015000Y-97853500D01*
X120020469Y-97707318D01*
X120045753Y-97609909D01*
X120104171Y-97525629D01*
X120158933Y-97468267D01*
X120312010Y-97354587D01*
X120462295Y-97325089D01*
X120613887Y-97379570D01*
X120695246Y-97441604D01*
X120765515Y-97513615D01*
X120810094Y-97592435D01*
X120838924Y-97703915D01*
X120861947Y-97873905D01*
X120862129Y-97875520D01*
X120892257Y-98097911D01*
X120929680Y-98260193D01*
X120982953Y-98386918D01*
X121060633Y-98502633D01*
X121095661Y-98545659D01*
X121273855Y-98710668D01*
X121485159Y-98813520D01*
X121744912Y-98860482D01*
X121877666Y-98865053D01*
X121915595Y-98860970D01*
X121915595Y-98383075D01*
X121718182Y-98360386D01*
X121607974Y-98318927D01*
X121458099Y-98204425D01*
X121361736Y-98040607D01*
X121325748Y-97848816D01*
X121356998Y-97650392D01*
X121376935Y-97600452D01*
X121482434Y-97462946D01*
X121639087Y-97371220D01*
X121825092Y-97328094D01*
X122018647Y-97336388D01*
X122197948Y-97398921D01*
X122307049Y-97480177D01*
X122423325Y-97643635D01*
X122466469Y-97814480D01*
X122445920Y-97981384D01*
X122371117Y-98133021D01*
X122251502Y-98258066D01*
X122096515Y-98345193D01*
X121915595Y-98383075D01*
X121915595Y-98860970D01*
X122188518Y-98831583D01*
X122447577Y-98731284D01*
X122654566Y-98564327D01*
X122809210Y-98330883D01*
X122833578Y-98276833D01*
X122874643Y-98130858D01*
X122898567Y-97946855D01*
X122904470Y-97754668D01*
X122891471Y-97584141D01*
X122858689Y-97465117D01*
X122857597Y-97463038D01*
X122834449Y-97395771D01*
X122862226Y-97340926D01*
X122936000Y-97282000D01*
X123007214Y-97223601D01*
X123032282Y-97168522D01*
X123008041Y-97097776D01*
X123008041Y-97097776D01*
G37*
X123008041Y-97097776D02*
X122931326Y-96992379D01*
X122876656Y-96925969D01*
X122773839Y-96802772D01*
X122639014Y-96916219D01*
X122504190Y-97029667D01*
X122349678Y-96933583D01*
X122168135Y-96859469D01*
X121954857Y-96831713D01*
X121731408Y-96846526D01*
X121519356Y-96900124D01*
X121340265Y-96988718D01*
X121215701Y-97108523D01*
X121199409Y-97135561D01*
X121147623Y-97232323D01*
X120994061Y-97071060D01*
X120800593Y-96925548D01*
X120573569Y-96848221D01*
X120330870Y-96840011D01*
X120090374Y-96901851D01*
X119896262Y-97013806D01*
X119734921Y-97187024D01*
X119621132Y-97413036D01*
X119558148Y-97672482D01*
X119549223Y-97946002D01*
X119597610Y-98214236D01*
X119665750Y-98385397D01*
X119818162Y-98606324D01*
X120015678Y-98768609D01*
X120243521Y-98860642D01*
X120279583Y-98867701D01*
X120438333Y-98894503D01*
X120438333Y-98638585D01*
X120434043Y-98492500D01*
X120418123Y-98413504D01*
X120386000Y-98384316D01*
X120370600Y-98382667D01*
X120302179Y-98354423D01*
X120206345Y-98282868D01*
X120158933Y-98238733D01*
X120074999Y-98145631D01*
X120031977Y-98060220D01*
X120016551Y-97946858D01*
X120015000Y-97853500D01*
X120020469Y-97707318D01*
X120045753Y-97609909D01*
X120104171Y-97525629D01*
X120158933Y-97468267D01*
X120312010Y-97354587D01*
X120462295Y-97325089D01*
X120613887Y-97379570D01*
X120695246Y-97441604D01*
X120765515Y-97513615D01*
X120810094Y-97592435D01*
X120838924Y-97703915D01*
X120861947Y-97873905D01*
X120862129Y-97875520D01*
X120892257Y-98097911D01*
X120929680Y-98260193D01*
X120982953Y-98386918D01*
X121060633Y-98502633D01*
X121095661Y-98545659D01*
X121273855Y-98710668D01*
X121485159Y-98813520D01*
X121744912Y-98860482D01*
X121877666Y-98865053D01*
X121915595Y-98860970D01*
X121915595Y-98383075D01*
X121718182Y-98360386D01*
X121607974Y-98318927D01*
X121458099Y-98204425D01*
X121361736Y-98040607D01*
X121325748Y-97848816D01*
X121356998Y-97650392D01*
X121376935Y-97600452D01*
X121482434Y-97462946D01*
X121639087Y-97371220D01*
X121825092Y-97328094D01*
X122018647Y-97336388D01*
X122197948Y-97398921D01*
X122307049Y-97480177D01*
X122423325Y-97643635D01*
X122466469Y-97814480D01*
X122445920Y-97981384D01*
X122371117Y-98133021D01*
X122251502Y-98258066D01*
X122096515Y-98345193D01*
X121915595Y-98383075D01*
X121915595Y-98860970D01*
X122188518Y-98831583D01*
X122447577Y-98731284D01*
X122654566Y-98564327D01*
X122809210Y-98330883D01*
X122833578Y-98276833D01*
X122874643Y-98130858D01*
X122898567Y-97946855D01*
X122904470Y-97754668D01*
X122891471Y-97584141D01*
X122858689Y-97465117D01*
X122857597Y-97463038D01*
X122834449Y-97395771D01*
X122862226Y-97340926D01*
X122936000Y-97282000D01*
X123007214Y-97223601D01*
X123032282Y-97168522D01*
X123008041Y-97097776D01*
G36*
X118173053Y-90668682D02*
X117643440Y-90656833D01*
X117760303Y-90492551D01*
X117824130Y-90391034D01*
X117859514Y-90292319D01*
X117874307Y-90164962D01*
X117876606Y-90026884D01*
X117859286Y-89787048D01*
X117802474Y-89606307D01*
X117697358Y-89464840D01*
X117587398Y-89376574D01*
X117470452Y-89310944D01*
X117330419Y-89262479D01*
X117153815Y-89229058D01*
X116927155Y-89208560D01*
X116636954Y-89198862D01*
X116448416Y-89197368D01*
X115824000Y-89196333D01*
X115824000Y-89698507D01*
X116504908Y-89712004D01*
X117185816Y-89725500D01*
X117309241Y-89863751D01*
X117414642Y-90033084D01*
X117436077Y-90208075D01*
X117373686Y-90384628D01*
X117287859Y-90498705D01*
X117143051Y-90656833D01*
X116483525Y-90670397D01*
X115824000Y-90683960D01*
X115824000Y-91186000D01*
X118702666Y-91186000D01*
X118702666Y-90680530D01*
X118173053Y-90668682D01*
X118173053Y-90668682D01*
G37*
X118173053Y-90668682D02*
X117643440Y-90656833D01*
X117760303Y-90492551D01*
X117824130Y-90391034D01*
X117859514Y-90292319D01*
X117874307Y-90164962D01*
X117876606Y-90026884D01*
X117859286Y-89787048D01*
X117802474Y-89606307D01*
X117697358Y-89464840D01*
X117587398Y-89376574D01*
X117470452Y-89310944D01*
X117330419Y-89262479D01*
X117153815Y-89229058D01*
X116927155Y-89208560D01*
X116636954Y-89198862D01*
X116448416Y-89197368D01*
X115824000Y-89196333D01*
X115824000Y-89698507D01*
X116504908Y-89712004D01*
X117185816Y-89725500D01*
X117309241Y-89863751D01*
X117414642Y-90033084D01*
X117436077Y-90208075D01*
X117373686Y-90384628D01*
X117287859Y-90498705D01*
X117143051Y-90656833D01*
X116483525Y-90670397D01*
X115824000Y-90683960D01*
X115824000Y-91186000D01*
X118702666Y-91186000D01*
X118702666Y-90680530D01*
X118173053Y-90668682D01*
G36*
X118702253Y-93165083D02*
X118701630Y-92872560D01*
X118699199Y-92650834D01*
X118693636Y-92486035D01*
X118683620Y-92364295D01*
X118667826Y-92271746D01*
X118644932Y-92194519D01*
X118613613Y-92118744D01*
X118599492Y-92088011D01*
X118509092Y-91929542D01*
X118404031Y-91827387D01*
X118335322Y-91787206D01*
X118077277Y-91692546D01*
X117839625Y-91674620D01*
X117628619Y-91732913D01*
X117457603Y-91859398D01*
X117338406Y-91983813D01*
X117184453Y-91822138D01*
X116989201Y-91671985D01*
X116770638Y-91594475D01*
X116544464Y-91587112D01*
X116326381Y-91647396D01*
X116132088Y-91772828D01*
X115977287Y-91960910D01*
X115945677Y-92019290D01*
X115912142Y-92092137D01*
X115886712Y-92164733D01*
X115868008Y-92250307D01*
X115854648Y-92362087D01*
X115845252Y-92513301D01*
X115838439Y-92717179D01*
X115832829Y-92986948D01*
X115830505Y-93122750D01*
X115815578Y-94022333D01*
X116325440Y-94022333D01*
X116325440Y-93514333D01*
X116339303Y-92945767D01*
X116346498Y-92709170D01*
X116356244Y-92540852D01*
X116370989Y-92424427D01*
X116393179Y-92343507D01*
X116425261Y-92281706D01*
X116442020Y-92257850D01*
X116562942Y-92150110D01*
X116697124Y-92119505D01*
X116830761Y-92162947D01*
X116950044Y-92277348D01*
X117012002Y-92385332D01*
X117050403Y-92490270D01*
X117074989Y-92615512D01*
X117088326Y-92781717D01*
X117092980Y-93009544D01*
X117093070Y-93038083D01*
X117094000Y-93514333D01*
X116325440Y-93514333D01*
X116325440Y-94022333D01*
X117553107Y-94022333D01*
X117553107Y-93514333D01*
X117566970Y-92938996D01*
X117573363Y-92706967D01*
X117581203Y-92544364D01*
X117593133Y-92435953D01*
X117611794Y-92366503D01*
X117639828Y-92320781D01*
X117679878Y-92283554D01*
X117680773Y-92282829D01*
X117823057Y-92211261D01*
X117968418Y-92224284D01*
X118097056Y-92304067D01*
X118145445Y-92348387D01*
X118178921Y-92394207D01*
X118200728Y-92457575D01*
X118214112Y-92554535D01*
X118222319Y-92701136D01*
X118228596Y-92913424D01*
X118229781Y-92960233D01*
X118243728Y-93514333D01*
X117553107Y-93514333D01*
X117553107Y-94022333D01*
X118702666Y-94022333D01*
X118702253Y-93165083D01*
X118702253Y-93165083D01*
G37*
X118702253Y-93165083D02*
X118701630Y-92872560D01*
X118699199Y-92650834D01*
X118693636Y-92486035D01*
X118683620Y-92364295D01*
X118667826Y-92271746D01*
X118644932Y-92194519D01*
X118613613Y-92118744D01*
X118599492Y-92088011D01*
X118509092Y-91929542D01*
X118404031Y-91827387D01*
X118335322Y-91787206D01*
X118077277Y-91692546D01*
X117839625Y-91674620D01*
X117628619Y-91732913D01*
X117457603Y-91859398D01*
X117338406Y-91983813D01*
X117184453Y-91822138D01*
X116989201Y-91671985D01*
X116770638Y-91594475D01*
X116544464Y-91587112D01*
X116326381Y-91647396D01*
X116132088Y-91772828D01*
X115977287Y-91960910D01*
X115945677Y-92019290D01*
X115912142Y-92092137D01*
X115886712Y-92164733D01*
X115868008Y-92250307D01*
X115854648Y-92362087D01*
X115845252Y-92513301D01*
X115838439Y-92717179D01*
X115832829Y-92986948D01*
X115830505Y-93122750D01*
X115815578Y-94022333D01*
X116325440Y-94022333D01*
X116325440Y-93514333D01*
X116339303Y-92945767D01*
X116346498Y-92709170D01*
X116356244Y-92540852D01*
X116370989Y-92424427D01*
X116393179Y-92343507D01*
X116425261Y-92281706D01*
X116442020Y-92257850D01*
X116562942Y-92150110D01*
X116697124Y-92119505D01*
X116830761Y-92162947D01*
X116950044Y-92277348D01*
X117012002Y-92385332D01*
X117050403Y-92490270D01*
X117074989Y-92615512D01*
X117088326Y-92781717D01*
X117092980Y-93009544D01*
X117093070Y-93038083D01*
X117094000Y-93514333D01*
X116325440Y-93514333D01*
X116325440Y-94022333D01*
X117553107Y-94022333D01*
X117553107Y-93514333D01*
X117566970Y-92938996D01*
X117573363Y-92706967D01*
X117581203Y-92544364D01*
X117593133Y-92435953D01*
X117611794Y-92366503D01*
X117639828Y-92320781D01*
X117679878Y-92283554D01*
X117680773Y-92282829D01*
X117823057Y-92211261D01*
X117968418Y-92224284D01*
X118097056Y-92304067D01*
X118145445Y-92348387D01*
X118178921Y-92394207D01*
X118200728Y-92457575D01*
X118214112Y-92554535D01*
X118222319Y-92701136D01*
X118228596Y-92913424D01*
X118229781Y-92960233D01*
X118243728Y-93514333D01*
X117553107Y-93514333D01*
X117553107Y-94022333D01*
X118702666Y-94022333D01*
X118702253Y-93165083D01*
G36*
X117858520Y-95958386D02*
X117743465Y-95731951D01*
X117559218Y-95543370D01*
X117411500Y-95449318D01*
X117337665Y-95415521D01*
X117254209Y-95390563D01*
X117146013Y-95372611D01*
X116997958Y-95359829D01*
X116794926Y-95350382D01*
X116533083Y-95342720D01*
X115824000Y-95324897D01*
X115824000Y-95842667D01*
X116452739Y-95842667D01*
X116699089Y-95843537D01*
X116876656Y-95847475D01*
X117001318Y-95856468D01*
X117088955Y-95872508D01*
X117155443Y-95897582D01*
X117216661Y-95933681D01*
X117225323Y-95939464D01*
X117361202Y-96075889D01*
X117422298Y-96197456D01*
X117451281Y-96312605D01*
X117444262Y-96409859D01*
X117397802Y-96534135D01*
X117396262Y-96537624D01*
X117336271Y-96650395D01*
X117261752Y-96733781D01*
X117159869Y-96792006D01*
X117017786Y-96829297D01*
X116822666Y-96849877D01*
X116561675Y-96857972D01*
X116420852Y-96858667D01*
X115824000Y-96858667D01*
X115824000Y-97366667D01*
X117856000Y-97366667D01*
X117856000Y-96901000D01*
X117722439Y-96901000D01*
X117634481Y-96896916D01*
X117618394Y-96875015D01*
X117656611Y-96826156D01*
X117748708Y-96688952D01*
X117829667Y-96508297D01*
X117883815Y-96324182D01*
X117897403Y-96211724D01*
X117858520Y-95958386D01*
X117858520Y-95958386D01*
G37*
X117858520Y-95958386D02*
X117743465Y-95731951D01*
X117559218Y-95543370D01*
X117411500Y-95449318D01*
X117337665Y-95415521D01*
X117254209Y-95390563D01*
X117146013Y-95372611D01*
X116997958Y-95359829D01*
X116794926Y-95350382D01*
X116533083Y-95342720D01*
X115824000Y-95324897D01*
X115824000Y-95842667D01*
X116452739Y-95842667D01*
X116699089Y-95843537D01*
X116876656Y-95847475D01*
X117001318Y-95856468D01*
X117088955Y-95872508D01*
X117155443Y-95897582D01*
X117216661Y-95933681D01*
X117225323Y-95939464D01*
X117361202Y-96075889D01*
X117422298Y-96197456D01*
X117451281Y-96312605D01*
X117444262Y-96409859D01*
X117397802Y-96534135D01*
X117396262Y-96537624D01*
X117336271Y-96650395D01*
X117261752Y-96733781D01*
X117159869Y-96792006D01*
X117017786Y-96829297D01*
X116822666Y-96849877D01*
X116561675Y-96857972D01*
X116420852Y-96858667D01*
X115824000Y-96858667D01*
X115824000Y-97366667D01*
X117856000Y-97366667D01*
X117856000Y-96901000D01*
X117722439Y-96901000D01*
X117634481Y-96896916D01*
X117618394Y-96875015D01*
X117656611Y-96826156D01*
X117748708Y-96688952D01*
X117829667Y-96508297D01*
X117883815Y-96324182D01*
X117897403Y-96211724D01*
X117858520Y-95958386D01*
G36*
X115824000Y-86656333D02*
X115824000Y-86889167D01*
X115826154Y-87022276D01*
X115840144Y-87091559D01*
X115877257Y-87117855D01*
X115948781Y-87122000D01*
X116076255Y-87122000D01*
X115946724Y-87305768D01*
X115839430Y-87527167D01*
X115794241Y-87786186D01*
X115813679Y-88060285D01*
X115847386Y-88192725D01*
X115964405Y-88427731D01*
X116143118Y-88616936D01*
X116370697Y-88754720D01*
X116634311Y-88835467D01*
X116914678Y-88853150D01*
X116914678Y-88344412D01*
X116711543Y-88340291D01*
X116548719Y-88288780D01*
X116392578Y-88163817D01*
X116290328Y-87990835D01*
X116248772Y-87792183D01*
X116274713Y-87590205D01*
X116309987Y-87504636D01*
X116442075Y-87330985D01*
X116614780Y-87221206D01*
X116810434Y-87177764D01*
X117011364Y-87203122D01*
X117199902Y-87299745D01*
X117278351Y-87369582D01*
X117402482Y-87553452D01*
X117450207Y-87754847D01*
X117421794Y-87957046D01*
X117317514Y-88143331D01*
X117264945Y-88199956D01*
X117109847Y-88296307D01*
X116914678Y-88344412D01*
X116914678Y-88853150D01*
X116921133Y-88853558D01*
X117218333Y-88803375D01*
X117232373Y-88799233D01*
X117492575Y-88682448D01*
X117690452Y-88509222D01*
X117823634Y-88282892D01*
X117889751Y-88006797D01*
X117896990Y-87862833D01*
X117880961Y-87680307D01*
X117839065Y-87499779D01*
X117779525Y-87346495D01*
X117710562Y-87245697D01*
X117691075Y-87230558D01*
X117644830Y-87188912D01*
X117663195Y-87158330D01*
X117751040Y-87137717D01*
X117913233Y-87125977D01*
X118154644Y-87122015D01*
X118173500Y-87122000D01*
X118702666Y-87122000D01*
X118702666Y-86656333D01*
X115824000Y-86656333D01*
X115824000Y-86656333D01*
G37*
X115824000Y-86656333D02*
X115824000Y-86889167D01*
X115826154Y-87022276D01*
X115840144Y-87091559D01*
X115877257Y-87117855D01*
X115948781Y-87122000D01*
X116076255Y-87122000D01*
X115946724Y-87305768D01*
X115839430Y-87527167D01*
X115794241Y-87786186D01*
X115813679Y-88060285D01*
X115847386Y-88192725D01*
X115964405Y-88427731D01*
X116143118Y-88616936D01*
X116370697Y-88754720D01*
X116634311Y-88835467D01*
X116914678Y-88853150D01*
X116914678Y-88344412D01*
X116711543Y-88340291D01*
X116548719Y-88288780D01*
X116392578Y-88163817D01*
X116290328Y-87990835D01*
X116248772Y-87792183D01*
X116274713Y-87590205D01*
X116309987Y-87504636D01*
X116442075Y-87330985D01*
X116614780Y-87221206D01*
X116810434Y-87177764D01*
X117011364Y-87203122D01*
X117199902Y-87299745D01*
X117278351Y-87369582D01*
X117402482Y-87553452D01*
X117450207Y-87754847D01*
X117421794Y-87957046D01*
X117317514Y-88143331D01*
X117264945Y-88199956D01*
X117109847Y-88296307D01*
X116914678Y-88344412D01*
X116914678Y-88853150D01*
X116921133Y-88853558D01*
X117218333Y-88803375D01*
X117232373Y-88799233D01*
X117492575Y-88682448D01*
X117690452Y-88509222D01*
X117823634Y-88282892D01*
X117889751Y-88006797D01*
X117896990Y-87862833D01*
X117880961Y-87680307D01*
X117839065Y-87499779D01*
X117779525Y-87346495D01*
X117710562Y-87245697D01*
X117691075Y-87230558D01*
X117644830Y-87188912D01*
X117663195Y-87158330D01*
X117751040Y-87137717D01*
X117913233Y-87125977D01*
X118154644Y-87122015D01*
X118173500Y-87122000D01*
X118702666Y-87122000D01*
X118702666Y-86656333D01*
X115824000Y-86656333D01*
G36*
X115824000Y-97790000D02*
X115824000Y-98019470D01*
X115826851Y-98152271D01*
X115843401Y-98224146D01*
X115885644Y-98258821D01*
X115954497Y-98277602D01*
X116084995Y-98306264D01*
X115998851Y-98397960D01*
X115876781Y-98583692D01*
X115803929Y-98813922D01*
X115786016Y-99060508D01*
X115821220Y-99271941D01*
X115941132Y-99538923D01*
X116118448Y-99754711D01*
X116342910Y-99907379D01*
X116383557Y-99925588D01*
X116555304Y-99970328D01*
X116774220Y-99990265D01*
X116815452Y-99989483D01*
X116815452Y-99517472D01*
X116614107Y-99467583D01*
X116456244Y-99368685D01*
X116361591Y-99274973D01*
X116295752Y-99184813D01*
X116288348Y-99169286D01*
X116252236Y-98985665D01*
X116271518Y-98784077D01*
X116324687Y-98639277D01*
X116451707Y-98485566D01*
X116626620Y-98385013D01*
X116827292Y-98343191D01*
X117031589Y-98365669D01*
X117170963Y-98426288D01*
X117296492Y-98540731D01*
X117394977Y-98700805D01*
X117445039Y-98833346D01*
X117455689Y-98939348D01*
X117431406Y-99064676D01*
X117430746Y-99067133D01*
X117338483Y-99266976D01*
X117194164Y-99412055D01*
X117014312Y-99497259D01*
X116815452Y-99517472D01*
X116815452Y-99989483D01*
X117007257Y-99985842D01*
X117221368Y-99957500D01*
X117369530Y-99912383D01*
X117560963Y-99788110D01*
X117727658Y-99612068D01*
X117842645Y-99413919D01*
X117856077Y-99377266D01*
X117895317Y-99167268D01*
X117893141Y-98929879D01*
X117853111Y-98698294D01*
X117778787Y-98505705D01*
X117759099Y-98473238D01*
X117643132Y-98298000D01*
X118702666Y-98298000D01*
X118702666Y-97790000D01*
X115824000Y-97790000D01*
X115824000Y-97790000D01*
G37*
X115824000Y-97790000D02*
X115824000Y-98019470D01*
X115826851Y-98152271D01*
X115843401Y-98224146D01*
X115885644Y-98258821D01*
X115954497Y-98277602D01*
X116084995Y-98306264D01*
X115998851Y-98397960D01*
X115876781Y-98583692D01*
X115803929Y-98813922D01*
X115786016Y-99060508D01*
X115821220Y-99271941D01*
X115941132Y-99538923D01*
X116118448Y-99754711D01*
X116342910Y-99907379D01*
X116383557Y-99925588D01*
X116555304Y-99970328D01*
X116774220Y-99990265D01*
X116815452Y-99989483D01*
X116815452Y-99517472D01*
X116614107Y-99467583D01*
X116456244Y-99368685D01*
X116361591Y-99274973D01*
X116295752Y-99184813D01*
X116288348Y-99169286D01*
X116252236Y-98985665D01*
X116271518Y-98784077D01*
X116324687Y-98639277D01*
X116451707Y-98485566D01*
X116626620Y-98385013D01*
X116827292Y-98343191D01*
X117031589Y-98365669D01*
X117170963Y-98426288D01*
X117296492Y-98540731D01*
X117394977Y-98700805D01*
X117445039Y-98833346D01*
X117455689Y-98939348D01*
X117431406Y-99064676D01*
X117430746Y-99067133D01*
X117338483Y-99266976D01*
X117194164Y-99412055D01*
X117014312Y-99497259D01*
X116815452Y-99517472D01*
X116815452Y-99989483D01*
X117007257Y-99985842D01*
X117221368Y-99957500D01*
X117369530Y-99912383D01*
X117560963Y-99788110D01*
X117727658Y-99612068D01*
X117842645Y-99413919D01*
X117856077Y-99377266D01*
X117895317Y-99167268D01*
X117893141Y-98929879D01*
X117853111Y-98698294D01*
X117778787Y-98505705D01*
X117759099Y-98473238D01*
X117643132Y-98298000D01*
X118702666Y-98298000D01*
X118702666Y-97790000D01*
X115824000Y-97790000D01*
G36*
X118803785Y-101312464D02*
X118791344Y-101166709D01*
X118764257Y-101048784D01*
X118717304Y-100930322D01*
X118687911Y-100868480D01*
X118617635Y-100749872D01*
X118526591Y-100628895D01*
X118429988Y-100521673D01*
X118343038Y-100444326D01*
X118280951Y-100412976D01*
X118264169Y-100419347D01*
X118238206Y-100462862D01*
X118185676Y-100556410D01*
X118145510Y-100629387D01*
X118039711Y-100822940D01*
X118155029Y-100961072D01*
X118268656Y-101143798D01*
X118335427Y-101350852D01*
X118356541Y-101564495D01*
X118333195Y-101766986D01*
X118266590Y-101940586D01*
X118157922Y-102067555D01*
X118077236Y-102112409D01*
X117945871Y-102137690D01*
X117837037Y-102100909D01*
X117747280Y-101997130D01*
X117673146Y-101821413D01*
X117611182Y-101568823D01*
X117582580Y-101405174D01*
X117509067Y-101051202D01*
X117409980Y-100774031D01*
X117281140Y-100568541D01*
X117118367Y-100429612D01*
X116917480Y-100352126D01*
X116705172Y-100330697D01*
X116547400Y-100338309D01*
X116405945Y-100358554D01*
X116345339Y-100375027D01*
X116176778Y-100474736D01*
X116018274Y-100632390D01*
X115904882Y-100804383D01*
X115863065Y-100915269D01*
X115819874Y-101075873D01*
X115781540Y-101255876D01*
X115754293Y-101424959D01*
X115744365Y-101552804D01*
X115745722Y-101578833D01*
X115753354Y-101641426D01*
X115768151Y-101758944D01*
X115781658Y-101864893D01*
X115819580Y-102045735D01*
X115880749Y-102230496D01*
X115916002Y-102309003D01*
X115992136Y-102425193D01*
X116097249Y-102546670D01*
X116213142Y-102656781D01*
X116321615Y-102738876D01*
X116404467Y-102776303D01*
X116425651Y-102775283D01*
X116467806Y-102733457D01*
X116532245Y-102640776D01*
X116576860Y-102566387D01*
X116687768Y-102370924D01*
X116546193Y-102251797D01*
X116381141Y-102060596D01*
X116282197Y-101819222D01*
X116248278Y-101525020D01*
X116248263Y-101521731D01*
X116272190Y-101258711D01*
X116344858Y-101058088D01*
X116464558Y-100924006D01*
X116504939Y-100899635D01*
X116635421Y-100847333D01*
X116739046Y-100854282D01*
X116851353Y-100924639D01*
X116873266Y-100942700D01*
X116950077Y-101025658D01*
X117011299Y-101139100D01*
X117062029Y-101297746D01*
X117107367Y-101516314D01*
X117137592Y-101705833D01*
X117213520Y-102038645D01*
X117332181Y-102301724D01*
X117492270Y-102493544D01*
X117692481Y-102612582D01*
X117931508Y-102657313D01*
X117952610Y-102657637D01*
X118197229Y-102630888D01*
X118395578Y-102543774D01*
X118558402Y-102388792D01*
X118696447Y-102158442D01*
X118710370Y-102128639D01*
X118759368Y-102004224D01*
X118788898Y-101875958D01*
X118803268Y-101716410D01*
X118806801Y-101514415D01*
X118803785Y-101312464D01*
X118803785Y-101312464D01*
G37*
X118803785Y-101312464D02*
X118791344Y-101166709D01*
X118764257Y-101048784D01*
X118717304Y-100930322D01*
X118687911Y-100868480D01*
X118617635Y-100749872D01*
X118526591Y-100628895D01*
X118429988Y-100521673D01*
X118343038Y-100444326D01*
X118280951Y-100412976D01*
X118264169Y-100419347D01*
X118238206Y-100462862D01*
X118185676Y-100556410D01*
X118145510Y-100629387D01*
X118039711Y-100822940D01*
X118155029Y-100961072D01*
X118268656Y-101143798D01*
X118335427Y-101350852D01*
X118356541Y-101564495D01*
X118333195Y-101766986D01*
X118266590Y-101940586D01*
X118157922Y-102067555D01*
X118077236Y-102112409D01*
X117945871Y-102137690D01*
X117837037Y-102100909D01*
X117747280Y-101997130D01*
X117673146Y-101821413D01*
X117611182Y-101568823D01*
X117582580Y-101405174D01*
X117509067Y-101051202D01*
X117409980Y-100774031D01*
X117281140Y-100568541D01*
X117118367Y-100429612D01*
X116917480Y-100352126D01*
X116705172Y-100330697D01*
X116547400Y-100338309D01*
X116405945Y-100358554D01*
X116345339Y-100375027D01*
X116176778Y-100474736D01*
X116018274Y-100632390D01*
X115904882Y-100804383D01*
X115863065Y-100915269D01*
X115819874Y-101075873D01*
X115781540Y-101255876D01*
X115754293Y-101424959D01*
X115744365Y-101552804D01*
X115745722Y-101578833D01*
X115753354Y-101641426D01*
X115768151Y-101758944D01*
X115781658Y-101864893D01*
X115819580Y-102045735D01*
X115880749Y-102230496D01*
X115916002Y-102309003D01*
X115992136Y-102425193D01*
X116097249Y-102546670D01*
X116213142Y-102656781D01*
X116321615Y-102738876D01*
X116404467Y-102776303D01*
X116425651Y-102775283D01*
X116467806Y-102733457D01*
X116532245Y-102640776D01*
X116576860Y-102566387D01*
X116687768Y-102370924D01*
X116546193Y-102251797D01*
X116381141Y-102060596D01*
X116282197Y-101819222D01*
X116248278Y-101525020D01*
X116248263Y-101521731D01*
X116272190Y-101258711D01*
X116344858Y-101058088D01*
X116464558Y-100924006D01*
X116504939Y-100899635D01*
X116635421Y-100847333D01*
X116739046Y-100854282D01*
X116851353Y-100924639D01*
X116873266Y-100942700D01*
X116950077Y-101025658D01*
X117011299Y-101139100D01*
X117062029Y-101297746D01*
X117107367Y-101516314D01*
X117137592Y-101705833D01*
X117213520Y-102038645D01*
X117332181Y-102301724D01*
X117492270Y-102493544D01*
X117692481Y-102612582D01*
X117931508Y-102657313D01*
X117952610Y-102657637D01*
X118197229Y-102630888D01*
X118395578Y-102543774D01*
X118558402Y-102388792D01*
X118696447Y-102158442D01*
X118710370Y-102128639D01*
X118759368Y-102004224D01*
X118788898Y-101875958D01*
X118803268Y-101716410D01*
X118806801Y-101514415D01*
X118803785Y-101312464D01*
G36*
X123729515Y-110373583D02*
X123725912Y-109869808D01*
X123722436Y-109443023D01*
X123718774Y-109085555D01*
X123714612Y-108789729D01*
X123709637Y-108547871D01*
X123703534Y-108352305D01*
X123695990Y-108195357D01*
X123686691Y-108069353D01*
X123675324Y-107966619D01*
X123661574Y-107879479D01*
X123645129Y-107800260D01*
X123625675Y-107721286D01*
X123620259Y-107700509D01*
X123431715Y-107141866D01*
X123172870Y-106627909D01*
X122847757Y-106162795D01*
X122460410Y-105750680D01*
X122014865Y-105395723D01*
X121515155Y-105102081D01*
X120965315Y-104873910D01*
X120837159Y-104832647D01*
X120689916Y-104789519D01*
X120561856Y-104758651D01*
X120433736Y-104738017D01*
X120286312Y-104725590D01*
X120100338Y-104719346D01*
X119856573Y-104717259D01*
X119739833Y-104717133D01*
X119467462Y-104718158D01*
X119260575Y-104722564D01*
X119100003Y-104732350D01*
X118966575Y-104749516D01*
X118841120Y-104776061D01*
X118704469Y-104813982D01*
X118648402Y-104830939D01*
X118087691Y-105043782D01*
X117576879Y-105321985D01*
X117119922Y-105661698D01*
X116720775Y-106059070D01*
X116383395Y-106510250D01*
X116111738Y-107011388D01*
X115936502Y-107470447D01*
X115899261Y-107591436D01*
X115866826Y-107706556D01*
X115838949Y-107822180D01*
X115815380Y-107944677D01*
X115795872Y-108080421D01*
X115780174Y-108235782D01*
X115768038Y-108417132D01*
X115759215Y-108630842D01*
X115753457Y-108883283D01*
X115750515Y-109180827D01*
X115750140Y-109529846D01*
X115752082Y-109936710D01*
X115756094Y-110407791D01*
X115761926Y-110949461D01*
X115769329Y-111568090D01*
X115771044Y-111707083D01*
X115783227Y-112691333D01*
X118284377Y-112691333D01*
X118284377Y-112091136D01*
X117850530Y-112090948D01*
X117460250Y-112090247D01*
X117120050Y-112089053D01*
X116836446Y-112087384D01*
X116615952Y-112085259D01*
X116465084Y-112082695D01*
X116390357Y-112079713D01*
X116383682Y-112078711D01*
X116360750Y-112047987D01*
X116346184Y-111969681D01*
X116339218Y-111833256D01*
X116339085Y-111628173D01*
X116341348Y-111496272D01*
X116353166Y-110934500D01*
X117250636Y-110923081D01*
X118148105Y-110911662D01*
X118160802Y-109504914D01*
X118173500Y-108098167D01*
X118291789Y-107857286D01*
X118455572Y-107602649D01*
X118674333Y-107376745D01*
X118925551Y-107199819D01*
X119121467Y-107111527D01*
X119256081Y-107070847D01*
X119356563Y-107049373D01*
X119397967Y-107050745D01*
X119402976Y-107096798D01*
X119407638Y-107218957D01*
X119411845Y-107408660D01*
X119415492Y-107657347D01*
X119418469Y-107956458D01*
X119420670Y-108297432D01*
X119421987Y-108671708D01*
X119422333Y-108994222D01*
X119422333Y-110913333D01*
X120479984Y-110913333D01*
X120479984Y-110271922D01*
X120293853Y-110271456D01*
X120153576Y-110267899D01*
X120076651Y-110261510D01*
X120070052Y-110259783D01*
X120055348Y-110238359D01*
X120043354Y-110181850D01*
X120033832Y-110083318D01*
X120026546Y-109935829D01*
X120021258Y-109732446D01*
X120017731Y-109466233D01*
X120015727Y-109130253D01*
X120015011Y-108717572D01*
X120015000Y-108649829D01*
X120015210Y-108240549D01*
X120016085Y-107908022D01*
X120017994Y-107644337D01*
X120021308Y-107441581D01*
X120026393Y-107291842D01*
X120033621Y-107187207D01*
X120043358Y-107119763D01*
X120055976Y-107081599D01*
X120071842Y-107064802D01*
X120089083Y-107061414D01*
X120211640Y-107088613D01*
X120371957Y-107160091D01*
X120545979Y-107262269D01*
X120709652Y-107381571D01*
X120799814Y-107462586D01*
X120922667Y-107607860D01*
X121045885Y-107789420D01*
X121129450Y-107941503D01*
X121263833Y-108225167D01*
X121263833Y-110257167D01*
X120694469Y-110269038D01*
X120479984Y-110271922D01*
X120479984Y-110913333D01*
X121877666Y-110913333D01*
X121877667Y-109649112D01*
X121876230Y-109317817D01*
X121872170Y-109003229D01*
X121865861Y-108718365D01*
X121857679Y-108476240D01*
X121847998Y-108289871D01*
X121837192Y-108172273D01*
X121834690Y-108156862D01*
X121731888Y-107809677D01*
X121561993Y-107468676D01*
X121339881Y-107161245D01*
X121230671Y-107044868D01*
X120904495Y-106780103D01*
X120551149Y-106589827D01*
X120179873Y-106472094D01*
X119799908Y-106424956D01*
X119420496Y-106446465D01*
X119050876Y-106534674D01*
X118700290Y-106687636D01*
X118377979Y-106903403D01*
X118093183Y-107180027D01*
X117855144Y-107515561D01*
X117721277Y-107784462D01*
X117691918Y-107858921D01*
X117668810Y-107934237D01*
X117650935Y-108022022D01*
X117637273Y-108133887D01*
X117626808Y-108281442D01*
X117618519Y-108476300D01*
X117611390Y-108730070D01*
X117604402Y-109054365D01*
X117602802Y-109135333D01*
X117580833Y-110257167D01*
X116353166Y-110257167D01*
X116357067Y-109177667D01*
X116358600Y-108844941D01*
X116361218Y-108583634D01*
X116365988Y-108380498D01*
X116373974Y-108222285D01*
X116386246Y-108095748D01*
X116403868Y-107987639D01*
X116427908Y-107884709D01*
X116459432Y-107773713D01*
X116474003Y-107725317D01*
X116672133Y-107206146D01*
X116933290Y-106739048D01*
X117252314Y-106327917D01*
X117624046Y-105976651D01*
X118043326Y-105689143D01*
X118504992Y-105469289D01*
X119003886Y-105320986D01*
X119534847Y-105248128D01*
X119764811Y-105240963D01*
X120285059Y-105281201D01*
X120782375Y-105398790D01*
X121250109Y-105587996D01*
X121681609Y-105843085D01*
X122070227Y-106158321D01*
X122409311Y-106527971D01*
X122692210Y-106946300D01*
X122912274Y-107407572D01*
X123062853Y-107906054D01*
X123102881Y-108119333D01*
X123117286Y-108259257D01*
X123128379Y-108473331D01*
X123136192Y-108763546D01*
X123140759Y-109131894D01*
X123142115Y-109580368D01*
X123140293Y-110110959D01*
X123139342Y-110257167D01*
X123126500Y-112077500D01*
X119782166Y-112088440D01*
X119256710Y-112089900D01*
X118755276Y-112090793D01*
X118284377Y-112091136D01*
X118284377Y-112691333D01*
X123745557Y-112691333D01*
X123729515Y-110373583D01*
X123729515Y-110373583D01*
G37*
X123729515Y-110373583D02*
X123725912Y-109869808D01*
X123722436Y-109443023D01*
X123718774Y-109085555D01*
X123714612Y-108789729D01*
X123709637Y-108547871D01*
X123703534Y-108352305D01*
X123695990Y-108195357D01*
X123686691Y-108069353D01*
X123675324Y-107966619D01*
X123661574Y-107879479D01*
X123645129Y-107800260D01*
X123625675Y-107721286D01*
X123620259Y-107700509D01*
X123431715Y-107141866D01*
X123172870Y-106627909D01*
X122847757Y-106162795D01*
X122460410Y-105750680D01*
X122014865Y-105395723D01*
X121515155Y-105102081D01*
X120965315Y-104873910D01*
X120837159Y-104832647D01*
X120689916Y-104789519D01*
X120561856Y-104758651D01*
X120433736Y-104738017D01*
X120286312Y-104725590D01*
X120100338Y-104719346D01*
X119856573Y-104717259D01*
X119739833Y-104717133D01*
X119467462Y-104718158D01*
X119260575Y-104722564D01*
X119100003Y-104732350D01*
X118966575Y-104749516D01*
X118841120Y-104776061D01*
X118704469Y-104813982D01*
X118648402Y-104830939D01*
X118087691Y-105043782D01*
X117576879Y-105321985D01*
X117119922Y-105661698D01*
X116720775Y-106059070D01*
X116383395Y-106510250D01*
X116111738Y-107011388D01*
X115936502Y-107470447D01*
X115899261Y-107591436D01*
X115866826Y-107706556D01*
X115838949Y-107822180D01*
X115815380Y-107944677D01*
X115795872Y-108080421D01*
X115780174Y-108235782D01*
X115768038Y-108417132D01*
X115759215Y-108630842D01*
X115753457Y-108883283D01*
X115750515Y-109180827D01*
X115750140Y-109529846D01*
X115752082Y-109936710D01*
X115756094Y-110407791D01*
X115761926Y-110949461D01*
X115769329Y-111568090D01*
X115771044Y-111707083D01*
X115783227Y-112691333D01*
X118284377Y-112691333D01*
X118284377Y-112091136D01*
X117850530Y-112090948D01*
X117460250Y-112090247D01*
X117120050Y-112089053D01*
X116836446Y-112087384D01*
X116615952Y-112085259D01*
X116465084Y-112082695D01*
X116390357Y-112079713D01*
X116383682Y-112078711D01*
X116360750Y-112047987D01*
X116346184Y-111969681D01*
X116339218Y-111833256D01*
X116339085Y-111628173D01*
X116341348Y-111496272D01*
X116353166Y-110934500D01*
X117250636Y-110923081D01*
X118148105Y-110911662D01*
X118160802Y-109504914D01*
X118173500Y-108098167D01*
X118291789Y-107857286D01*
X118455572Y-107602649D01*
X118674333Y-107376745D01*
X118925551Y-107199819D01*
X119121467Y-107111527D01*
X119256081Y-107070847D01*
X119356563Y-107049373D01*
X119397967Y-107050745D01*
X119402976Y-107096798D01*
X119407638Y-107218957D01*
X119411845Y-107408660D01*
X119415492Y-107657347D01*
X119418469Y-107956458D01*
X119420670Y-108297432D01*
X119421987Y-108671708D01*
X119422333Y-108994222D01*
X119422333Y-110913333D01*
X120479984Y-110913333D01*
X120479984Y-110271922D01*
X120293853Y-110271456D01*
X120153576Y-110267899D01*
X120076651Y-110261510D01*
X120070052Y-110259783D01*
X120055348Y-110238359D01*
X120043354Y-110181850D01*
X120033832Y-110083318D01*
X120026546Y-109935829D01*
X120021258Y-109732446D01*
X120017731Y-109466233D01*
X120015727Y-109130253D01*
X120015011Y-108717572D01*
X120015000Y-108649829D01*
X120015210Y-108240549D01*
X120016085Y-107908022D01*
X120017994Y-107644337D01*
X120021308Y-107441581D01*
X120026393Y-107291842D01*
X120033621Y-107187207D01*
X120043358Y-107119763D01*
X120055976Y-107081599D01*
X120071842Y-107064802D01*
X120089083Y-107061414D01*
X120211640Y-107088613D01*
X120371957Y-107160091D01*
X120545979Y-107262269D01*
X120709652Y-107381571D01*
X120799814Y-107462586D01*
X120922667Y-107607860D01*
X121045885Y-107789420D01*
X121129450Y-107941503D01*
X121263833Y-108225167D01*
X121263833Y-110257167D01*
X120694469Y-110269038D01*
X120479984Y-110271922D01*
X120479984Y-110913333D01*
X121877666Y-110913333D01*
X121877667Y-109649112D01*
X121876230Y-109317817D01*
X121872170Y-109003229D01*
X121865861Y-108718365D01*
X121857679Y-108476240D01*
X121847998Y-108289871D01*
X121837192Y-108172273D01*
X121834690Y-108156862D01*
X121731888Y-107809677D01*
X121561993Y-107468676D01*
X121339881Y-107161245D01*
X121230671Y-107044868D01*
X120904495Y-106780103D01*
X120551149Y-106589827D01*
X120179873Y-106472094D01*
X119799908Y-106424956D01*
X119420496Y-106446465D01*
X119050876Y-106534674D01*
X118700290Y-106687636D01*
X118377979Y-106903403D01*
X118093183Y-107180027D01*
X117855144Y-107515561D01*
X117721277Y-107784462D01*
X117691918Y-107858921D01*
X117668810Y-107934237D01*
X117650935Y-108022022D01*
X117637273Y-108133887D01*
X117626808Y-108281442D01*
X117618519Y-108476300D01*
X117611390Y-108730070D01*
X117604402Y-109054365D01*
X117602802Y-109135333D01*
X117580833Y-110257167D01*
X116353166Y-110257167D01*
X116357067Y-109177667D01*
X116358600Y-108844941D01*
X116361218Y-108583634D01*
X116365988Y-108380498D01*
X116373974Y-108222285D01*
X116386246Y-108095748D01*
X116403868Y-107987639D01*
X116427908Y-107884709D01*
X116459432Y-107773713D01*
X116474003Y-107725317D01*
X116672133Y-107206146D01*
X116933290Y-106739048D01*
X117252314Y-106327917D01*
X117624046Y-105976651D01*
X118043326Y-105689143D01*
X118504992Y-105469289D01*
X119003886Y-105320986D01*
X119534847Y-105248128D01*
X119764811Y-105240963D01*
X120285059Y-105281201D01*
X120782375Y-105398790D01*
X121250109Y-105587996D01*
X121681609Y-105843085D01*
X122070227Y-106158321D01*
X122409311Y-106527971D01*
X122692210Y-106946300D01*
X122912274Y-107407572D01*
X123062853Y-107906054D01*
X123102881Y-108119333D01*
X123117286Y-108259257D01*
X123128379Y-108473331D01*
X123136192Y-108763546D01*
X123140759Y-109131894D01*
X123142115Y-109580368D01*
X123140293Y-110110959D01*
X123139342Y-110257167D01*
X123126500Y-112077500D01*
X119782166Y-112088440D01*
X119256710Y-112089900D01*
X118755276Y-112090793D01*
X118284377Y-112091136D01*
X118284377Y-112691333D01*
X123745557Y-112691333D01*
X123729515Y-110373583D01*
G04 #@! TD*
M02*
