G04 #@! TF.GenerationSoftware,KiCad,Pcbnew,(5.0.2)-1*
G04 #@! TF.CreationDate,2019-03-03T23:17:22+08:00*
G04 #@! TF.ProjectId,pcbtest-nrf24_breakout,70636274-6573-4742-9d6e-726632345f62,rev?*
G04 #@! TF.SameCoordinates,Original*
G04 #@! TF.FileFunction,Legend,Top*
G04 #@! TF.FilePolarity,Positive*
%FSLAX46Y46*%
G04 Gerber Fmt 4.6, Leading zero omitted, Abs format (unit mm)*
G04 Created by KiCad (PCBNEW (5.0.2)-1) date 03-Mar-19 11:17:22 PM*
%MOMM*%
%LPD*%
G01*
G04 APERTURE LIST*
%ADD10C,0.125000*%
%ADD11C,0.250000*%
%ADD12C,0.120000*%
%ADD13C,0.150000*%
G04 APERTURE END LIST*
D10*
X112212476Y-117066190D02*
X111926761Y-117066190D01*
X112069619Y-117066190D02*
X112069619Y-116566190D01*
X112022000Y-116637619D01*
X111974380Y-116685238D01*
X111926761Y-116709047D01*
X112402952Y-116613809D02*
X112426761Y-116590000D01*
X112474380Y-116566190D01*
X112593428Y-116566190D01*
X112641047Y-116590000D01*
X112664857Y-116613809D01*
X112688666Y-116661428D01*
X112688666Y-116709047D01*
X112664857Y-116780476D01*
X112379142Y-117066190D01*
X112688666Y-117066190D01*
X112831523Y-116566190D02*
X112998190Y-117066190D01*
X113164857Y-116566190D01*
X107061047Y-116717000D02*
X107013428Y-116693190D01*
X106942000Y-116693190D01*
X106870571Y-116717000D01*
X106822952Y-116764619D01*
X106799142Y-116812238D01*
X106775333Y-116907476D01*
X106775333Y-116978904D01*
X106799142Y-117074142D01*
X106822952Y-117121761D01*
X106870571Y-117169380D01*
X106942000Y-117193190D01*
X106989619Y-117193190D01*
X107061047Y-117169380D01*
X107084857Y-117145571D01*
X107084857Y-116978904D01*
X106989619Y-116978904D01*
X107299142Y-117193190D02*
X107299142Y-116693190D01*
X107584857Y-117193190D01*
X107584857Y-116693190D01*
X107822952Y-117193190D02*
X107822952Y-116693190D01*
X107942000Y-116693190D01*
X108013428Y-116717000D01*
X108061047Y-116764619D01*
X108084857Y-116812238D01*
X108108666Y-116907476D01*
X108108666Y-116978904D01*
X108084857Y-117074142D01*
X108061047Y-117121761D01*
X108013428Y-117169380D01*
X107942000Y-117193190D01*
X107822952Y-117193190D01*
D11*
X106204238Y-72048619D02*
X106109000Y-72001000D01*
X106013761Y-71905761D01*
X105870904Y-71762904D01*
X105775666Y-71715285D01*
X105680428Y-71715285D01*
X105728047Y-71953380D02*
X105632809Y-71905761D01*
X105537571Y-71810523D01*
X105489952Y-71620047D01*
X105489952Y-71286714D01*
X105537571Y-71096238D01*
X105632809Y-71001000D01*
X105728047Y-70953380D01*
X105918523Y-70953380D01*
X106013761Y-71001000D01*
X106109000Y-71096238D01*
X106156619Y-71286714D01*
X106156619Y-71620047D01*
X106109000Y-71810523D01*
X106013761Y-71905761D01*
X105918523Y-71953380D01*
X105728047Y-71953380D01*
X107013761Y-71286714D02*
X107013761Y-71953380D01*
X106585190Y-71286714D02*
X106585190Y-71810523D01*
X106632809Y-71905761D01*
X106728047Y-71953380D01*
X106870904Y-71953380D01*
X106966142Y-71905761D01*
X107013761Y-71858142D01*
X107918523Y-71953380D02*
X107918523Y-71429571D01*
X107870904Y-71334333D01*
X107775666Y-71286714D01*
X107585190Y-71286714D01*
X107489952Y-71334333D01*
X107918523Y-71905761D02*
X107823285Y-71953380D01*
X107585190Y-71953380D01*
X107489952Y-71905761D01*
X107442333Y-71810523D01*
X107442333Y-71715285D01*
X107489952Y-71620047D01*
X107585190Y-71572428D01*
X107823285Y-71572428D01*
X107918523Y-71524809D01*
X108394714Y-71953380D02*
X108394714Y-71286714D01*
X108394714Y-71477190D02*
X108442333Y-71381952D01*
X108489952Y-71334333D01*
X108585190Y-71286714D01*
X108680428Y-71286714D01*
X109013761Y-71953380D02*
X109013761Y-70953380D01*
X109109000Y-71572428D02*
X109394714Y-71953380D01*
X109394714Y-71286714D02*
X109013761Y-71667666D01*
X110489952Y-71286714D02*
X110728047Y-71953380D01*
X110966142Y-71286714D01*
X111870904Y-71953380D02*
X111299476Y-71953380D01*
X111585190Y-71953380D02*
X111585190Y-70953380D01*
X111489952Y-71096238D01*
X111394714Y-71191476D01*
X111299476Y-71239095D01*
X112299476Y-71858142D02*
X112347095Y-71905761D01*
X112299476Y-71953380D01*
X112251857Y-71905761D01*
X112299476Y-71858142D01*
X112299476Y-71953380D01*
X112966142Y-70953380D02*
X113061380Y-70953380D01*
X113156619Y-71001000D01*
X113204238Y-71048619D01*
X113251857Y-71143857D01*
X113299476Y-71334333D01*
X113299476Y-71572428D01*
X113251857Y-71762904D01*
X113204238Y-71858142D01*
X113156619Y-71905761D01*
X113061380Y-71953380D01*
X112966142Y-71953380D01*
X112870904Y-71905761D01*
X112823285Y-71858142D01*
X112775666Y-71762904D01*
X112728047Y-71572428D01*
X112728047Y-71334333D01*
X112775666Y-71143857D01*
X112823285Y-71048619D01*
X112870904Y-71001000D01*
X112966142Y-70953380D01*
X113728047Y-71858142D02*
X113775666Y-71905761D01*
X113728047Y-71953380D01*
X113680428Y-71905761D01*
X113728047Y-71858142D01*
X113728047Y-71953380D01*
X114394714Y-70953380D02*
X114489952Y-70953380D01*
X114585190Y-71001000D01*
X114632809Y-71048619D01*
X114680428Y-71143857D01*
X114728047Y-71334333D01*
X114728047Y-71572428D01*
X114680428Y-71762904D01*
X114632809Y-71858142D01*
X114585190Y-71905761D01*
X114489952Y-71953380D01*
X114394714Y-71953380D01*
X114299476Y-71905761D01*
X114251857Y-71858142D01*
X114204238Y-71762904D01*
X114156619Y-71572428D01*
X114156619Y-71334333D01*
X114204238Y-71143857D01*
X114251857Y-71048619D01*
X114299476Y-71001000D01*
X114394714Y-70953380D01*
D12*
G04 #@! TO.C,J2*
X117348000Y-124587000D02*
X117348000Y-123317000D01*
X118618000Y-124587000D02*
X117348000Y-124587000D01*
X131698000Y-122274071D02*
X131698000Y-121877000D01*
X130938000Y-122274071D02*
X130938000Y-121877000D01*
X131698000Y-113217000D02*
X131698000Y-119217000D01*
X130938000Y-113217000D02*
X131698000Y-113217000D01*
X130938000Y-119217000D02*
X130938000Y-113217000D01*
X130048000Y-121877000D02*
X130048000Y-119217000D01*
X129158000Y-122274071D02*
X129158000Y-121877000D01*
X128398000Y-122274071D02*
X128398000Y-121877000D01*
X129158000Y-113217000D02*
X129158000Y-119217000D01*
X128398000Y-113217000D02*
X129158000Y-113217000D01*
X128398000Y-119217000D02*
X128398000Y-113217000D01*
X127508000Y-121877000D02*
X127508000Y-119217000D01*
X126618000Y-122274071D02*
X126618000Y-121877000D01*
X125858000Y-122274071D02*
X125858000Y-121877000D01*
X126618000Y-113217000D02*
X126618000Y-119217000D01*
X125858000Y-113217000D02*
X126618000Y-113217000D01*
X125858000Y-119217000D02*
X125858000Y-113217000D01*
X124968000Y-121877000D02*
X124968000Y-119217000D01*
X124078000Y-122274071D02*
X124078000Y-121877000D01*
X123318000Y-122274071D02*
X123318000Y-121877000D01*
X124078000Y-113217000D02*
X124078000Y-119217000D01*
X123318000Y-113217000D02*
X124078000Y-113217000D01*
X123318000Y-119217000D02*
X123318000Y-113217000D01*
X122428000Y-121877000D02*
X122428000Y-119217000D01*
X121538000Y-122274071D02*
X121538000Y-121877000D01*
X120778000Y-122274071D02*
X120778000Y-121877000D01*
X121538000Y-113217000D02*
X121538000Y-119217000D01*
X120778000Y-113217000D02*
X121538000Y-113217000D01*
X120778000Y-119217000D02*
X120778000Y-113217000D01*
X119888000Y-121877000D02*
X119888000Y-119217000D01*
X118998000Y-122207000D02*
X118998000Y-121877000D01*
X118238000Y-122207000D02*
X118238000Y-121877000D01*
X118898000Y-119217000D02*
X118898000Y-113217000D01*
X118778000Y-119217000D02*
X118778000Y-113217000D01*
X118658000Y-119217000D02*
X118658000Y-113217000D01*
X118538000Y-119217000D02*
X118538000Y-113217000D01*
X118418000Y-119217000D02*
X118418000Y-113217000D01*
X118298000Y-119217000D02*
X118298000Y-113217000D01*
X118998000Y-113217000D02*
X118998000Y-119217000D01*
X118238000Y-113217000D02*
X118998000Y-113217000D01*
X118238000Y-119217000D02*
X118238000Y-113217000D01*
X117288000Y-119217000D02*
X117288000Y-121877000D01*
X132648000Y-119217000D02*
X117288000Y-119217000D01*
X132648000Y-121877000D02*
X132648000Y-119217000D01*
X117288000Y-121877000D02*
X132648000Y-121877000D01*
D13*
G04 #@! TO.C,U1*
X133350000Y-72898000D02*
X105410000Y-72898000D01*
X105410000Y-72898000D02*
X105410000Y-114808000D01*
X105410000Y-114808000D02*
X105410000Y-116078000D01*
X105410000Y-116078000D02*
X133350000Y-116078000D01*
X133350000Y-116078000D02*
X133350000Y-72898000D01*
D12*
G04 #@! TO.C,C1*
X113747733Y-79627000D02*
X114090267Y-79627000D01*
X113747733Y-80647000D02*
X114090267Y-80647000D01*
G04 #@! TO.C,C2*
X113286000Y-85515267D02*
X113286000Y-85172733D01*
X112266000Y-85515267D02*
X112266000Y-85172733D01*
G04 #@! TO.C,J1*
X111700000Y-65870000D02*
X127060000Y-65870000D01*
X127060000Y-65870000D02*
X127060000Y-63210000D01*
X127060000Y-63210000D02*
X111700000Y-63210000D01*
X111700000Y-63210000D02*
X111700000Y-65870000D01*
X112650000Y-63210000D02*
X112650000Y-57210000D01*
X112650000Y-57210000D02*
X113410000Y-57210000D01*
X113410000Y-57210000D02*
X113410000Y-63210000D01*
X112710000Y-63210000D02*
X112710000Y-57210000D01*
X112830000Y-63210000D02*
X112830000Y-57210000D01*
X112950000Y-63210000D02*
X112950000Y-57210000D01*
X113070000Y-63210000D02*
X113070000Y-57210000D01*
X113190000Y-63210000D02*
X113190000Y-57210000D01*
X113310000Y-63210000D02*
X113310000Y-57210000D01*
X112650000Y-66200000D02*
X112650000Y-65870000D01*
X113410000Y-66200000D02*
X113410000Y-65870000D01*
X114300000Y-65870000D02*
X114300000Y-63210000D01*
X115190000Y-63210000D02*
X115190000Y-57210000D01*
X115190000Y-57210000D02*
X115950000Y-57210000D01*
X115950000Y-57210000D02*
X115950000Y-63210000D01*
X115190000Y-66267071D02*
X115190000Y-65870000D01*
X115950000Y-66267071D02*
X115950000Y-65870000D01*
X116840000Y-65870000D02*
X116840000Y-63210000D01*
X117730000Y-63210000D02*
X117730000Y-57210000D01*
X117730000Y-57210000D02*
X118490000Y-57210000D01*
X118490000Y-57210000D02*
X118490000Y-63210000D01*
X117730000Y-66267071D02*
X117730000Y-65870000D01*
X118490000Y-66267071D02*
X118490000Y-65870000D01*
X119380000Y-65870000D02*
X119380000Y-63210000D01*
X120270000Y-63210000D02*
X120270000Y-57210000D01*
X120270000Y-57210000D02*
X121030000Y-57210000D01*
X121030000Y-57210000D02*
X121030000Y-63210000D01*
X120270000Y-66267071D02*
X120270000Y-65870000D01*
X121030000Y-66267071D02*
X121030000Y-65870000D01*
X121920000Y-65870000D02*
X121920000Y-63210000D01*
X122810000Y-63210000D02*
X122810000Y-57210000D01*
X122810000Y-57210000D02*
X123570000Y-57210000D01*
X123570000Y-57210000D02*
X123570000Y-63210000D01*
X122810000Y-66267071D02*
X122810000Y-65870000D01*
X123570000Y-66267071D02*
X123570000Y-65870000D01*
X124460000Y-65870000D02*
X124460000Y-63210000D01*
X125350000Y-63210000D02*
X125350000Y-57210000D01*
X125350000Y-57210000D02*
X126110000Y-57210000D01*
X126110000Y-57210000D02*
X126110000Y-63210000D01*
X125350000Y-66267071D02*
X125350000Y-65870000D01*
X126110000Y-66267071D02*
X126110000Y-65870000D01*
X113030000Y-68580000D02*
X111760000Y-68580000D01*
X111760000Y-68580000D02*
X111760000Y-67310000D01*
G04 #@! TO.C,U2*
X117748000Y-89286000D02*
X119008000Y-89286000D01*
X124568000Y-89286000D02*
X123308000Y-89286000D01*
X117748000Y-85526000D02*
X117748000Y-89286000D01*
X124568000Y-83276000D02*
X124568000Y-89286000D01*
G04 #@! TO.C,J3*
X104919000Y-113207000D02*
X104919000Y-125807000D01*
X104919000Y-125807000D02*
X115269000Y-125807000D01*
X115269000Y-125807000D02*
X115269000Y-124857000D01*
X115269000Y-124857000D02*
X115769000Y-125107000D01*
X115769000Y-125107000D02*
X115769000Y-123207000D01*
X115769000Y-123207000D02*
X115769000Y-123157000D01*
X115769000Y-123157000D02*
X115269000Y-123407000D01*
X115269000Y-123407000D02*
X115269000Y-118007000D01*
X115269000Y-118007000D02*
X115769000Y-118307000D01*
X115769000Y-118307000D02*
X115769000Y-113207000D01*
X115769000Y-113207000D02*
X104919000Y-113207000D01*
G04 #@! TO.C,J2*
D10*
X124003714Y-125194190D02*
X124003714Y-124694190D01*
X124241809Y-125194190D02*
X124241809Y-124694190D01*
X124527523Y-125194190D01*
X124527523Y-124694190D01*
X124765619Y-125194190D02*
X124765619Y-124694190D01*
X124956095Y-124694190D01*
X125003714Y-124718000D01*
X125027523Y-124741809D01*
X125051333Y-124789428D01*
X125051333Y-124860857D01*
X125027523Y-124908476D01*
X125003714Y-124932285D01*
X124956095Y-124956095D01*
X124765619Y-124956095D01*
X125265619Y-124694190D02*
X125265619Y-125098952D01*
X125289428Y-125146571D01*
X125313238Y-125170380D01*
X125360857Y-125194190D01*
X125456095Y-125194190D01*
X125503714Y-125170380D01*
X125527523Y-125146571D01*
X125551333Y-125098952D01*
X125551333Y-124694190D01*
X125718000Y-124694190D02*
X126003714Y-124694190D01*
X125860857Y-125194190D02*
X125860857Y-124694190D01*
G04 #@! TO.C,U1*
X129170952Y-76934190D02*
X129170952Y-76434190D01*
X129290000Y-76434190D01*
X129361428Y-76458000D01*
X129409047Y-76505619D01*
X129432857Y-76553238D01*
X129456666Y-76648476D01*
X129456666Y-76719904D01*
X129432857Y-76815142D01*
X129409047Y-76862761D01*
X129361428Y-76910380D01*
X129290000Y-76934190D01*
X129170952Y-76934190D01*
X129766190Y-76434190D02*
X129813809Y-76434190D01*
X129861428Y-76458000D01*
X129885238Y-76481809D01*
X129909047Y-76529428D01*
X129932857Y-76624666D01*
X129932857Y-76743714D01*
X129909047Y-76838952D01*
X129885238Y-76886571D01*
X129861428Y-76910380D01*
X129813809Y-76934190D01*
X129766190Y-76934190D01*
X129718571Y-76910380D01*
X129694761Y-76886571D01*
X129670952Y-76838952D01*
X129647142Y-76743714D01*
X129647142Y-76624666D01*
X129670952Y-76529428D01*
X129694761Y-76481809D01*
X129718571Y-76458000D01*
X129766190Y-76434190D01*
X108672380Y-111994190D02*
X108839047Y-112494190D01*
X109005714Y-111994190D01*
X109172380Y-112494190D02*
X109172380Y-111994190D01*
X109410476Y-112494190D02*
X109410476Y-111994190D01*
X109696190Y-112494190D01*
X109696190Y-111994190D01*
X108839047Y-109478000D02*
X108791428Y-109454190D01*
X108720000Y-109454190D01*
X108648571Y-109478000D01*
X108600952Y-109525619D01*
X108577142Y-109573238D01*
X108553333Y-109668476D01*
X108553333Y-109739904D01*
X108577142Y-109835142D01*
X108600952Y-109882761D01*
X108648571Y-109930380D01*
X108720000Y-109954190D01*
X108767619Y-109954190D01*
X108839047Y-109930380D01*
X108862857Y-109906571D01*
X108862857Y-109739904D01*
X108767619Y-109739904D01*
X109077142Y-109954190D02*
X109077142Y-109454190D01*
X109362857Y-109954190D01*
X109362857Y-109454190D01*
X109600952Y-109954190D02*
X109600952Y-109454190D01*
X109720000Y-109454190D01*
X109791428Y-109478000D01*
X109839047Y-109525619D01*
X109862857Y-109573238D01*
X109886666Y-109668476D01*
X109886666Y-109739904D01*
X109862857Y-109835142D01*
X109839047Y-109882761D01*
X109791428Y-109930380D01*
X109720000Y-109954190D01*
X109600952Y-109954190D01*
X129159047Y-106914190D02*
X129444761Y-106914190D01*
X129301904Y-107414190D02*
X129301904Y-106914190D01*
X129563809Y-106914190D02*
X129897142Y-107414190D01*
X129897142Y-106914190D02*
X129563809Y-107414190D01*
X129456666Y-104874190D02*
X129290000Y-104636095D01*
X129170952Y-104874190D02*
X129170952Y-104374190D01*
X129361428Y-104374190D01*
X129409047Y-104398000D01*
X129432857Y-104421809D01*
X129456666Y-104469428D01*
X129456666Y-104540857D01*
X129432857Y-104588476D01*
X129409047Y-104612285D01*
X129361428Y-104636095D01*
X129170952Y-104636095D01*
X129623333Y-104374190D02*
X129956666Y-104874190D01*
X129956666Y-104374190D02*
X129623333Y-104874190D01*
X129159047Y-109478000D02*
X129111428Y-109454190D01*
X129040000Y-109454190D01*
X128968571Y-109478000D01*
X128920952Y-109525619D01*
X128897142Y-109573238D01*
X128873333Y-109668476D01*
X128873333Y-109739904D01*
X128897142Y-109835142D01*
X128920952Y-109882761D01*
X128968571Y-109930380D01*
X129040000Y-109954190D01*
X129087619Y-109954190D01*
X129159047Y-109930380D01*
X129182857Y-109906571D01*
X129182857Y-109739904D01*
X129087619Y-109739904D01*
X129397142Y-109954190D02*
X129397142Y-109454190D01*
X129682857Y-109954190D01*
X129682857Y-109454190D01*
X129920952Y-109954190D02*
X129920952Y-109454190D01*
X130040000Y-109454190D01*
X130111428Y-109478000D01*
X130159047Y-109525619D01*
X130182857Y-109573238D01*
X130206666Y-109668476D01*
X130206666Y-109739904D01*
X130182857Y-109835142D01*
X130159047Y-109882761D01*
X130111428Y-109930380D01*
X130040000Y-109954190D01*
X129920952Y-109954190D01*
X129159047Y-111994190D02*
X129468571Y-111994190D01*
X129301904Y-112184666D01*
X129373333Y-112184666D01*
X129420952Y-112208476D01*
X129444761Y-112232285D01*
X129468571Y-112279904D01*
X129468571Y-112398952D01*
X129444761Y-112446571D01*
X129420952Y-112470380D01*
X129373333Y-112494190D01*
X129230476Y-112494190D01*
X129182857Y-112470380D01*
X129159047Y-112446571D01*
X129611428Y-111994190D02*
X129778095Y-112494190D01*
X129944761Y-111994190D01*
X108839047Y-101834190D02*
X109148571Y-101834190D01*
X108981904Y-102024666D01*
X109053333Y-102024666D01*
X109100952Y-102048476D01*
X109124761Y-102072285D01*
X109148571Y-102119904D01*
X109148571Y-102238952D01*
X109124761Y-102286571D01*
X109100952Y-102310380D01*
X109053333Y-102334190D01*
X108910476Y-102334190D01*
X108862857Y-102310380D01*
X108839047Y-102286571D01*
X109291428Y-101834190D02*
X109458095Y-102334190D01*
X109624761Y-101834190D01*
X108839047Y-99318000D02*
X108791428Y-99294190D01*
X108720000Y-99294190D01*
X108648571Y-99318000D01*
X108600952Y-99365619D01*
X108577142Y-99413238D01*
X108553333Y-99508476D01*
X108553333Y-99579904D01*
X108577142Y-99675142D01*
X108600952Y-99722761D01*
X108648571Y-99770380D01*
X108720000Y-99794190D01*
X108767619Y-99794190D01*
X108839047Y-99770380D01*
X108862857Y-99746571D01*
X108862857Y-99579904D01*
X108767619Y-99579904D01*
X109077142Y-99794190D02*
X109077142Y-99294190D01*
X109362857Y-99794190D01*
X109362857Y-99294190D01*
X109600952Y-99794190D02*
X109600952Y-99294190D01*
X109720000Y-99294190D01*
X109791428Y-99318000D01*
X109839047Y-99365619D01*
X109862857Y-99413238D01*
X109886666Y-99508476D01*
X109886666Y-99579904D01*
X109862857Y-99675142D01*
X109839047Y-99722761D01*
X109791428Y-99770380D01*
X109720000Y-99794190D01*
X109600952Y-99794190D01*
X108839047Y-78998000D02*
X108791428Y-78974190D01*
X108720000Y-78974190D01*
X108648571Y-78998000D01*
X108600952Y-79045619D01*
X108577142Y-79093238D01*
X108553333Y-79188476D01*
X108553333Y-79259904D01*
X108577142Y-79355142D01*
X108600952Y-79402761D01*
X108648571Y-79450380D01*
X108720000Y-79474190D01*
X108767619Y-79474190D01*
X108839047Y-79450380D01*
X108862857Y-79426571D01*
X108862857Y-79259904D01*
X108767619Y-79259904D01*
X109077142Y-79474190D02*
X109077142Y-78974190D01*
X109362857Y-79474190D01*
X109362857Y-78974190D01*
X109600952Y-79474190D02*
X109600952Y-78974190D01*
X109720000Y-78974190D01*
X109791428Y-78998000D01*
X109839047Y-79045619D01*
X109862857Y-79093238D01*
X109886666Y-79188476D01*
X109886666Y-79259904D01*
X109862857Y-79355142D01*
X109839047Y-79402761D01*
X109791428Y-79450380D01*
X109720000Y-79474190D01*
X109600952Y-79474190D01*
X129170952Y-102334190D02*
X129170952Y-101834190D01*
X129290000Y-101834190D01*
X129361428Y-101858000D01*
X129409047Y-101905619D01*
X129432857Y-101953238D01*
X129456666Y-102048476D01*
X129456666Y-102119904D01*
X129432857Y-102215142D01*
X129409047Y-102262761D01*
X129361428Y-102310380D01*
X129290000Y-102334190D01*
X129170952Y-102334190D01*
X129742380Y-102048476D02*
X129694761Y-102024666D01*
X129670952Y-102000857D01*
X129647142Y-101953238D01*
X129647142Y-101929428D01*
X129670952Y-101881809D01*
X129694761Y-101858000D01*
X129742380Y-101834190D01*
X129837619Y-101834190D01*
X129885238Y-101858000D01*
X129909047Y-101881809D01*
X129932857Y-101929428D01*
X129932857Y-101953238D01*
X129909047Y-102000857D01*
X129885238Y-102024666D01*
X129837619Y-102048476D01*
X129742380Y-102048476D01*
X129694761Y-102072285D01*
X129670952Y-102096095D01*
X129647142Y-102143714D01*
X129647142Y-102238952D01*
X129670952Y-102286571D01*
X129694761Y-102310380D01*
X129742380Y-102334190D01*
X129837619Y-102334190D01*
X129885238Y-102310380D01*
X129909047Y-102286571D01*
X129932857Y-102238952D01*
X129932857Y-102143714D01*
X129909047Y-102096095D01*
X129885238Y-102072285D01*
X129837619Y-102048476D01*
X129170952Y-99794190D02*
X129170952Y-99294190D01*
X129290000Y-99294190D01*
X129361428Y-99318000D01*
X129409047Y-99365619D01*
X129432857Y-99413238D01*
X129456666Y-99508476D01*
X129456666Y-99579904D01*
X129432857Y-99675142D01*
X129409047Y-99722761D01*
X129361428Y-99770380D01*
X129290000Y-99794190D01*
X129170952Y-99794190D01*
X129623333Y-99294190D02*
X129956666Y-99294190D01*
X129742380Y-99794190D01*
X129170952Y-97254190D02*
X129170952Y-96754190D01*
X129290000Y-96754190D01*
X129361428Y-96778000D01*
X129409047Y-96825619D01*
X129432857Y-96873238D01*
X129456666Y-96968476D01*
X129456666Y-97039904D01*
X129432857Y-97135142D01*
X129409047Y-97182761D01*
X129361428Y-97230380D01*
X129290000Y-97254190D01*
X129170952Y-97254190D01*
X129885238Y-96754190D02*
X129790000Y-96754190D01*
X129742380Y-96778000D01*
X129718571Y-96801809D01*
X129670952Y-96873238D01*
X129647142Y-96968476D01*
X129647142Y-97158952D01*
X129670952Y-97206571D01*
X129694761Y-97230380D01*
X129742380Y-97254190D01*
X129837619Y-97254190D01*
X129885238Y-97230380D01*
X129909047Y-97206571D01*
X129932857Y-97158952D01*
X129932857Y-97039904D01*
X129909047Y-96992285D01*
X129885238Y-96968476D01*
X129837619Y-96944666D01*
X129742380Y-96944666D01*
X129694761Y-96968476D01*
X129670952Y-96992285D01*
X129647142Y-97039904D01*
X129170952Y-94714190D02*
X129170952Y-94214190D01*
X129290000Y-94214190D01*
X129361428Y-94238000D01*
X129409047Y-94285619D01*
X129432857Y-94333238D01*
X129456666Y-94428476D01*
X129456666Y-94499904D01*
X129432857Y-94595142D01*
X129409047Y-94642761D01*
X129361428Y-94690380D01*
X129290000Y-94714190D01*
X129170952Y-94714190D01*
X129909047Y-94214190D02*
X129670952Y-94214190D01*
X129647142Y-94452285D01*
X129670952Y-94428476D01*
X129718571Y-94404666D01*
X129837619Y-94404666D01*
X129885238Y-94428476D01*
X129909047Y-94452285D01*
X129932857Y-94499904D01*
X129932857Y-94618952D01*
X129909047Y-94666571D01*
X129885238Y-94690380D01*
X129837619Y-94714190D01*
X129718571Y-94714190D01*
X129670952Y-94690380D01*
X129647142Y-94666571D01*
X129159047Y-91698000D02*
X129111428Y-91674190D01*
X129040000Y-91674190D01*
X128968571Y-91698000D01*
X128920952Y-91745619D01*
X128897142Y-91793238D01*
X128873333Y-91888476D01*
X128873333Y-91959904D01*
X128897142Y-92055142D01*
X128920952Y-92102761D01*
X128968571Y-92150380D01*
X129040000Y-92174190D01*
X129087619Y-92174190D01*
X129159047Y-92150380D01*
X129182857Y-92126571D01*
X129182857Y-91959904D01*
X129087619Y-91959904D01*
X129397142Y-92174190D02*
X129397142Y-91674190D01*
X129682857Y-92174190D01*
X129682857Y-91674190D01*
X129920952Y-92174190D02*
X129920952Y-91674190D01*
X130040000Y-91674190D01*
X130111428Y-91698000D01*
X130159047Y-91745619D01*
X130182857Y-91793238D01*
X130206666Y-91888476D01*
X130206666Y-91959904D01*
X130182857Y-92055142D01*
X130159047Y-92102761D01*
X130111428Y-92150380D01*
X130040000Y-92174190D01*
X129920952Y-92174190D01*
X129159047Y-89134190D02*
X129468571Y-89134190D01*
X129301904Y-89324666D01*
X129373333Y-89324666D01*
X129420952Y-89348476D01*
X129444761Y-89372285D01*
X129468571Y-89419904D01*
X129468571Y-89538952D01*
X129444761Y-89586571D01*
X129420952Y-89610380D01*
X129373333Y-89634190D01*
X129230476Y-89634190D01*
X129182857Y-89610380D01*
X129159047Y-89586571D01*
X129611428Y-89134190D02*
X129778095Y-89634190D01*
X129944761Y-89134190D01*
X129170952Y-87094190D02*
X129170952Y-86594190D01*
X129290000Y-86594190D01*
X129361428Y-86618000D01*
X129409047Y-86665619D01*
X129432857Y-86713238D01*
X129456666Y-86808476D01*
X129456666Y-86879904D01*
X129432857Y-86975142D01*
X129409047Y-87022761D01*
X129361428Y-87070380D01*
X129290000Y-87094190D01*
X129170952Y-87094190D01*
X129885238Y-86760857D02*
X129885238Y-87094190D01*
X129766190Y-86570380D02*
X129647142Y-86927523D01*
X129956666Y-86927523D01*
X129170952Y-84554190D02*
X129170952Y-84054190D01*
X129290000Y-84054190D01*
X129361428Y-84078000D01*
X129409047Y-84125619D01*
X129432857Y-84173238D01*
X129456666Y-84268476D01*
X129456666Y-84339904D01*
X129432857Y-84435142D01*
X129409047Y-84482761D01*
X129361428Y-84530380D01*
X129290000Y-84554190D01*
X129170952Y-84554190D01*
X129623333Y-84054190D02*
X129932857Y-84054190D01*
X129766190Y-84244666D01*
X129837619Y-84244666D01*
X129885238Y-84268476D01*
X129909047Y-84292285D01*
X129932857Y-84339904D01*
X129932857Y-84458952D01*
X129909047Y-84506571D01*
X129885238Y-84530380D01*
X129837619Y-84554190D01*
X129694761Y-84554190D01*
X129647142Y-84530380D01*
X129623333Y-84506571D01*
X129170952Y-82014190D02*
X129170952Y-81514190D01*
X129290000Y-81514190D01*
X129361428Y-81538000D01*
X129409047Y-81585619D01*
X129432857Y-81633238D01*
X129456666Y-81728476D01*
X129456666Y-81799904D01*
X129432857Y-81895142D01*
X129409047Y-81942761D01*
X129361428Y-81990380D01*
X129290000Y-82014190D01*
X129170952Y-82014190D01*
X129647142Y-81561809D02*
X129670952Y-81538000D01*
X129718571Y-81514190D01*
X129837619Y-81514190D01*
X129885238Y-81538000D01*
X129909047Y-81561809D01*
X129932857Y-81609428D01*
X129932857Y-81657047D01*
X129909047Y-81728476D01*
X129623333Y-82014190D01*
X129932857Y-82014190D01*
X129170952Y-79474190D02*
X129170952Y-78974190D01*
X129290000Y-78974190D01*
X129361428Y-78998000D01*
X129409047Y-79045619D01*
X129432857Y-79093238D01*
X129456666Y-79188476D01*
X129456666Y-79259904D01*
X129432857Y-79355142D01*
X129409047Y-79402761D01*
X129361428Y-79450380D01*
X129290000Y-79474190D01*
X129170952Y-79474190D01*
X129932857Y-79474190D02*
X129647142Y-79474190D01*
X129790000Y-79474190D02*
X129790000Y-78974190D01*
X129742380Y-79045619D01*
X129694761Y-79093238D01*
X129647142Y-79117047D01*
X108862857Y-76791333D02*
X109100952Y-76791333D01*
X108815238Y-76934190D02*
X108981904Y-76434190D01*
X109148571Y-76934190D01*
X109410476Y-76434190D02*
X109458095Y-76434190D01*
X109505714Y-76458000D01*
X109529523Y-76481809D01*
X109553333Y-76529428D01*
X109577142Y-76624666D01*
X109577142Y-76743714D01*
X109553333Y-76838952D01*
X109529523Y-76886571D01*
X109505714Y-76910380D01*
X109458095Y-76934190D01*
X109410476Y-76934190D01*
X109362857Y-76910380D01*
X109339047Y-76886571D01*
X109315238Y-76838952D01*
X109291428Y-76743714D01*
X109291428Y-76624666D01*
X109315238Y-76529428D01*
X109339047Y-76481809D01*
X109362857Y-76458000D01*
X109410476Y-76434190D01*
X108839047Y-81514190D02*
X109005714Y-82014190D01*
X109172380Y-81514190D01*
X109267619Y-81514190D02*
X109434285Y-82014190D01*
X109600952Y-81514190D01*
X108839047Y-84530380D02*
X108910476Y-84554190D01*
X109029523Y-84554190D01*
X109077142Y-84530380D01*
X109100952Y-84506571D01*
X109124761Y-84458952D01*
X109124761Y-84411333D01*
X109100952Y-84363714D01*
X109077142Y-84339904D01*
X109029523Y-84316095D01*
X108934285Y-84292285D01*
X108886666Y-84268476D01*
X108862857Y-84244666D01*
X108839047Y-84197047D01*
X108839047Y-84149428D01*
X108862857Y-84101809D01*
X108886666Y-84078000D01*
X108934285Y-84054190D01*
X109053333Y-84054190D01*
X109124761Y-84078000D01*
X109291428Y-84054190D02*
X109600952Y-84054190D01*
X109434285Y-84244666D01*
X109505714Y-84244666D01*
X109553333Y-84268476D01*
X109577142Y-84292285D01*
X109600952Y-84339904D01*
X109600952Y-84458952D01*
X109577142Y-84506571D01*
X109553333Y-84530380D01*
X109505714Y-84554190D01*
X109362857Y-84554190D01*
X109315238Y-84530380D01*
X109291428Y-84506571D01*
X108839047Y-87070380D02*
X108910476Y-87094190D01*
X109029523Y-87094190D01*
X109077142Y-87070380D01*
X109100952Y-87046571D01*
X109124761Y-86998952D01*
X109124761Y-86951333D01*
X109100952Y-86903714D01*
X109077142Y-86879904D01*
X109029523Y-86856095D01*
X108934285Y-86832285D01*
X108886666Y-86808476D01*
X108862857Y-86784666D01*
X108839047Y-86737047D01*
X108839047Y-86689428D01*
X108862857Y-86641809D01*
X108886666Y-86618000D01*
X108934285Y-86594190D01*
X109053333Y-86594190D01*
X109124761Y-86618000D01*
X109315238Y-86641809D02*
X109339047Y-86618000D01*
X109386666Y-86594190D01*
X109505714Y-86594190D01*
X109553333Y-86618000D01*
X109577142Y-86641809D01*
X109600952Y-86689428D01*
X109600952Y-86737047D01*
X109577142Y-86808476D01*
X109291428Y-87094190D01*
X109600952Y-87094190D01*
X108839047Y-89610380D02*
X108910476Y-89634190D01*
X109029523Y-89634190D01*
X109077142Y-89610380D01*
X109100952Y-89586571D01*
X109124761Y-89538952D01*
X109124761Y-89491333D01*
X109100952Y-89443714D01*
X109077142Y-89419904D01*
X109029523Y-89396095D01*
X108934285Y-89372285D01*
X108886666Y-89348476D01*
X108862857Y-89324666D01*
X108839047Y-89277047D01*
X108839047Y-89229428D01*
X108862857Y-89181809D01*
X108886666Y-89158000D01*
X108934285Y-89134190D01*
X109053333Y-89134190D01*
X109124761Y-89158000D01*
X109600952Y-89634190D02*
X109315238Y-89634190D01*
X109458095Y-89634190D02*
X109458095Y-89134190D01*
X109410476Y-89205619D01*
X109362857Y-89253238D01*
X109315238Y-89277047D01*
X108827142Y-92150380D02*
X108898571Y-92174190D01*
X109017619Y-92174190D01*
X109065238Y-92150380D01*
X109089047Y-92126571D01*
X109112857Y-92078952D01*
X109112857Y-92031333D01*
X109089047Y-91983714D01*
X109065238Y-91959904D01*
X109017619Y-91936095D01*
X108922380Y-91912285D01*
X108874761Y-91888476D01*
X108850952Y-91864666D01*
X108827142Y-91817047D01*
X108827142Y-91769428D01*
X108850952Y-91721809D01*
X108874761Y-91698000D01*
X108922380Y-91674190D01*
X109041428Y-91674190D01*
X109112857Y-91698000D01*
X109612857Y-92126571D02*
X109589047Y-92150380D01*
X109517619Y-92174190D01*
X109470000Y-92174190D01*
X109398571Y-92150380D01*
X109350952Y-92102761D01*
X109327142Y-92055142D01*
X109303333Y-91959904D01*
X109303333Y-91888476D01*
X109327142Y-91793238D01*
X109350952Y-91745619D01*
X109398571Y-91698000D01*
X109470000Y-91674190D01*
X109517619Y-91674190D01*
X109589047Y-91698000D01*
X109612857Y-91721809D01*
X108839047Y-94690380D02*
X108910476Y-94714190D01*
X109029523Y-94714190D01*
X109077142Y-94690380D01*
X109100952Y-94666571D01*
X109124761Y-94618952D01*
X109124761Y-94571333D01*
X109100952Y-94523714D01*
X109077142Y-94499904D01*
X109029523Y-94476095D01*
X108934285Y-94452285D01*
X108886666Y-94428476D01*
X108862857Y-94404666D01*
X108839047Y-94357047D01*
X108839047Y-94309428D01*
X108862857Y-94261809D01*
X108886666Y-94238000D01*
X108934285Y-94214190D01*
X109053333Y-94214190D01*
X109124761Y-94238000D01*
X109434285Y-94214190D02*
X109481904Y-94214190D01*
X109529523Y-94238000D01*
X109553333Y-94261809D01*
X109577142Y-94309428D01*
X109600952Y-94404666D01*
X109600952Y-94523714D01*
X109577142Y-94618952D01*
X109553333Y-94666571D01*
X109529523Y-94690380D01*
X109481904Y-94714190D01*
X109434285Y-94714190D01*
X109386666Y-94690380D01*
X109362857Y-94666571D01*
X109339047Y-94618952D01*
X109315238Y-94523714D01*
X109315238Y-94404666D01*
X109339047Y-94309428D01*
X109362857Y-94261809D01*
X109386666Y-94238000D01*
X109434285Y-94214190D01*
X108827142Y-97230380D02*
X108898571Y-97254190D01*
X109017619Y-97254190D01*
X109065238Y-97230380D01*
X109089047Y-97206571D01*
X109112857Y-97158952D01*
X109112857Y-97111333D01*
X109089047Y-97063714D01*
X109065238Y-97039904D01*
X109017619Y-97016095D01*
X108922380Y-96992285D01*
X108874761Y-96968476D01*
X108850952Y-96944666D01*
X108827142Y-96897047D01*
X108827142Y-96849428D01*
X108850952Y-96801809D01*
X108874761Y-96778000D01*
X108922380Y-96754190D01*
X109041428Y-96754190D01*
X109112857Y-96778000D01*
X109327142Y-97254190D02*
X109327142Y-96754190D01*
X109612857Y-97254190D02*
X109398571Y-96968476D01*
X109612857Y-96754190D02*
X109327142Y-97039904D01*
X108850952Y-104612285D02*
X109017619Y-104612285D01*
X109089047Y-104874190D02*
X108850952Y-104874190D01*
X108850952Y-104374190D01*
X109089047Y-104374190D01*
X109303333Y-104874190D02*
X109303333Y-104374190D01*
X109589047Y-104874190D01*
X109589047Y-104374190D01*
X108946190Y-107414190D02*
X108779523Y-107176095D01*
X108660476Y-107414190D02*
X108660476Y-106914190D01*
X108850952Y-106914190D01*
X108898571Y-106938000D01*
X108922380Y-106961809D01*
X108946190Y-107009428D01*
X108946190Y-107080857D01*
X108922380Y-107128476D01*
X108898571Y-107152285D01*
X108850952Y-107176095D01*
X108660476Y-107176095D01*
X109136666Y-107390380D02*
X109208095Y-107414190D01*
X109327142Y-107414190D01*
X109374761Y-107390380D01*
X109398571Y-107366571D01*
X109422380Y-107318952D01*
X109422380Y-107271333D01*
X109398571Y-107223714D01*
X109374761Y-107199904D01*
X109327142Y-107176095D01*
X109231904Y-107152285D01*
X109184285Y-107128476D01*
X109160476Y-107104666D01*
X109136666Y-107057047D01*
X109136666Y-107009428D01*
X109160476Y-106961809D01*
X109184285Y-106938000D01*
X109231904Y-106914190D01*
X109350952Y-106914190D01*
X109422380Y-106938000D01*
X109565238Y-106914190D02*
X109850952Y-106914190D01*
X109708095Y-107414190D02*
X109708095Y-106914190D01*
G04 #@! TO.C,C1*
X113835666Y-78885571D02*
X113811857Y-78909380D01*
X113740428Y-78933190D01*
X113692809Y-78933190D01*
X113621380Y-78909380D01*
X113573761Y-78861761D01*
X113549952Y-78814142D01*
X113526142Y-78718904D01*
X113526142Y-78647476D01*
X113549952Y-78552238D01*
X113573761Y-78504619D01*
X113621380Y-78457000D01*
X113692809Y-78433190D01*
X113740428Y-78433190D01*
X113811857Y-78457000D01*
X113835666Y-78480809D01*
X114311857Y-78933190D02*
X114026142Y-78933190D01*
X114169000Y-78933190D02*
X114169000Y-78433190D01*
X114121380Y-78504619D01*
X114073761Y-78552238D01*
X114026142Y-78576047D01*
G04 #@! TO.C,C2*
X111524571Y-85427333D02*
X111548380Y-85451142D01*
X111572190Y-85522571D01*
X111572190Y-85570190D01*
X111548380Y-85641619D01*
X111500761Y-85689238D01*
X111453142Y-85713047D01*
X111357904Y-85736857D01*
X111286476Y-85736857D01*
X111191238Y-85713047D01*
X111143619Y-85689238D01*
X111096000Y-85641619D01*
X111072190Y-85570190D01*
X111072190Y-85522571D01*
X111096000Y-85451142D01*
X111119809Y-85427333D01*
X111119809Y-85236857D02*
X111096000Y-85213047D01*
X111072190Y-85165428D01*
X111072190Y-85046380D01*
X111096000Y-84998761D01*
X111119809Y-84974952D01*
X111167428Y-84951142D01*
X111215047Y-84951142D01*
X111286476Y-84974952D01*
X111572190Y-85260666D01*
X111572190Y-84951142D01*
G04 #@! TO.C,J1*
X127956619Y-65258190D02*
X128051857Y-65258190D01*
X128099476Y-65282000D01*
X128147095Y-65329619D01*
X128170904Y-65424857D01*
X128170904Y-65591523D01*
X128147095Y-65686761D01*
X128099476Y-65734380D01*
X128051857Y-65758190D01*
X127956619Y-65758190D01*
X127909000Y-65734380D01*
X127861380Y-65686761D01*
X127837571Y-65591523D01*
X127837571Y-65424857D01*
X127861380Y-65329619D01*
X127909000Y-65282000D01*
X127956619Y-65258190D01*
X128385190Y-65258190D02*
X128385190Y-65662952D01*
X128409000Y-65710571D01*
X128432809Y-65734380D01*
X128480428Y-65758190D01*
X128575666Y-65758190D01*
X128623285Y-65734380D01*
X128647095Y-65710571D01*
X128670904Y-65662952D01*
X128670904Y-65258190D01*
X128837571Y-65258190D02*
X129123285Y-65258190D01*
X128980428Y-65758190D02*
X128980428Y-65258190D01*
X129289952Y-65758190D02*
X129289952Y-65258190D01*
X129480428Y-65258190D01*
X129528047Y-65282000D01*
X129551857Y-65305809D01*
X129575666Y-65353428D01*
X129575666Y-65424857D01*
X129551857Y-65472476D01*
X129528047Y-65496285D01*
X129480428Y-65520095D01*
X129289952Y-65520095D01*
X129789952Y-65258190D02*
X129789952Y-65662952D01*
X129813761Y-65710571D01*
X129837571Y-65734380D01*
X129885190Y-65758190D01*
X129980428Y-65758190D01*
X130028047Y-65734380D01*
X130051857Y-65710571D01*
X130075666Y-65662952D01*
X130075666Y-65258190D01*
X130242333Y-65258190D02*
X130528047Y-65258190D01*
X130385190Y-65758190D02*
X130385190Y-65258190D01*
G04 #@! TO.C,U2*
X125384190Y-87756952D02*
X125788952Y-87756952D01*
X125836571Y-87733142D01*
X125860380Y-87709333D01*
X125884190Y-87661714D01*
X125884190Y-87566476D01*
X125860380Y-87518857D01*
X125836571Y-87495047D01*
X125788952Y-87471238D01*
X125384190Y-87471238D01*
X125431809Y-87256952D02*
X125408000Y-87233142D01*
X125384190Y-87185523D01*
X125384190Y-87066476D01*
X125408000Y-87018857D01*
X125431809Y-86995047D01*
X125479428Y-86971238D01*
X125527047Y-86971238D01*
X125598476Y-86995047D01*
X125884190Y-87280761D01*
X125884190Y-86971238D01*
G04 #@! TO.C,J3*
D13*
X105315666Y-111969380D02*
X105315666Y-112683666D01*
X105268047Y-112826523D01*
X105172809Y-112921761D01*
X105029952Y-112969380D01*
X104934714Y-112969380D01*
X105696619Y-111969380D02*
X106315666Y-111969380D01*
X105982333Y-112350333D01*
X106125190Y-112350333D01*
X106220428Y-112397952D01*
X106268047Y-112445571D01*
X106315666Y-112540809D01*
X106315666Y-112778904D01*
X106268047Y-112874142D01*
X106220428Y-112921761D01*
X106125190Y-112969380D01*
X105839476Y-112969380D01*
X105744238Y-112921761D01*
X105696619Y-112874142D01*
G04 #@! TD*
M02*
