G04 #@! TF.GenerationSoftware,KiCad,Pcbnew,(5.0.2)-1*
G04 #@! TF.CreationDate,2019-03-03T23:17:22+08:00*
G04 #@! TF.ProjectId,pcbtest-nrf24_breakout,70636274-6573-4742-9d6e-726632345f62,rev?*
G04 #@! TF.SameCoordinates,Original*
G04 #@! TF.FileFunction,Soldermask,Bot*
G04 #@! TF.FilePolarity,Negative*
%FSLAX46Y46*%
G04 Gerber Fmt 4.6, Leading zero omitted, Abs format (unit mm)*
G04 Created by KiCad (PCBNEW (5.0.2)-1) date 03-Mar-19 11:17:22 PM*
%MOMM*%
%LPD*%
G01*
G04 APERTURE LIST*
%ADD10C,0.100000*%
G04 APERTURE END LIST*
D10*
G36*
X119519000Y-124218000D02*
X117717000Y-124218000D01*
X117717000Y-122416000D01*
X119519000Y-122416000D01*
X119519000Y-124218000D01*
X119519000Y-124218000D01*
G37*
G36*
X128888442Y-122422518D02*
X128954627Y-122429037D01*
X129067853Y-122463384D01*
X129124467Y-122480557D01*
X129263087Y-122554652D01*
X129280991Y-122564222D01*
X129316729Y-122593552D01*
X129418186Y-122676814D01*
X129501448Y-122778271D01*
X129530778Y-122814009D01*
X129530779Y-122814011D01*
X129614443Y-122970533D01*
X129614443Y-122970534D01*
X129665963Y-123140373D01*
X129683359Y-123317000D01*
X129665963Y-123493627D01*
X129631616Y-123606853D01*
X129614443Y-123663467D01*
X129540348Y-123802087D01*
X129530778Y-123819991D01*
X129501448Y-123855729D01*
X129418186Y-123957186D01*
X129316729Y-124040448D01*
X129280991Y-124069778D01*
X129280989Y-124069779D01*
X129124467Y-124153443D01*
X129067853Y-124170616D01*
X128954627Y-124204963D01*
X128888442Y-124211482D01*
X128822260Y-124218000D01*
X128733740Y-124218000D01*
X128667558Y-124211482D01*
X128601373Y-124204963D01*
X128488147Y-124170616D01*
X128431533Y-124153443D01*
X128275011Y-124069779D01*
X128275009Y-124069778D01*
X128239271Y-124040448D01*
X128137814Y-123957186D01*
X128054552Y-123855729D01*
X128025222Y-123819991D01*
X128015652Y-123802087D01*
X127941557Y-123663467D01*
X127924384Y-123606853D01*
X127890037Y-123493627D01*
X127872641Y-123317000D01*
X127890037Y-123140373D01*
X127941557Y-122970534D01*
X127941557Y-122970533D01*
X128025221Y-122814011D01*
X128025222Y-122814009D01*
X128054552Y-122778271D01*
X128137814Y-122676814D01*
X128239271Y-122593552D01*
X128275009Y-122564222D01*
X128292913Y-122554652D01*
X128431533Y-122480557D01*
X128488147Y-122463384D01*
X128601373Y-122429037D01*
X128667558Y-122422518D01*
X128733740Y-122416000D01*
X128822260Y-122416000D01*
X128888442Y-122422518D01*
X128888442Y-122422518D01*
G37*
G36*
X131428442Y-122422518D02*
X131494627Y-122429037D01*
X131607853Y-122463384D01*
X131664467Y-122480557D01*
X131803087Y-122554652D01*
X131820991Y-122564222D01*
X131856729Y-122593552D01*
X131958186Y-122676814D01*
X132041448Y-122778271D01*
X132070778Y-122814009D01*
X132070779Y-122814011D01*
X132154443Y-122970533D01*
X132154443Y-122970534D01*
X132205963Y-123140373D01*
X132223359Y-123317000D01*
X132205963Y-123493627D01*
X132171616Y-123606853D01*
X132154443Y-123663467D01*
X132080348Y-123802087D01*
X132070778Y-123819991D01*
X132041448Y-123855729D01*
X131958186Y-123957186D01*
X131856729Y-124040448D01*
X131820991Y-124069778D01*
X131820989Y-124069779D01*
X131664467Y-124153443D01*
X131607853Y-124170616D01*
X131494627Y-124204963D01*
X131428442Y-124211482D01*
X131362260Y-124218000D01*
X131273740Y-124218000D01*
X131207558Y-124211482D01*
X131141373Y-124204963D01*
X131028147Y-124170616D01*
X130971533Y-124153443D01*
X130815011Y-124069779D01*
X130815009Y-124069778D01*
X130779271Y-124040448D01*
X130677814Y-123957186D01*
X130594552Y-123855729D01*
X130565222Y-123819991D01*
X130555652Y-123802087D01*
X130481557Y-123663467D01*
X130464384Y-123606853D01*
X130430037Y-123493627D01*
X130412641Y-123317000D01*
X130430037Y-123140373D01*
X130481557Y-122970534D01*
X130481557Y-122970533D01*
X130565221Y-122814011D01*
X130565222Y-122814009D01*
X130594552Y-122778271D01*
X130677814Y-122676814D01*
X130779271Y-122593552D01*
X130815009Y-122564222D01*
X130832913Y-122554652D01*
X130971533Y-122480557D01*
X131028147Y-122463384D01*
X131141373Y-122429037D01*
X131207558Y-122422518D01*
X131273740Y-122416000D01*
X131362260Y-122416000D01*
X131428442Y-122422518D01*
X131428442Y-122422518D01*
G37*
G36*
X126348442Y-122422518D02*
X126414627Y-122429037D01*
X126527853Y-122463384D01*
X126584467Y-122480557D01*
X126723087Y-122554652D01*
X126740991Y-122564222D01*
X126776729Y-122593552D01*
X126878186Y-122676814D01*
X126961448Y-122778271D01*
X126990778Y-122814009D01*
X126990779Y-122814011D01*
X127074443Y-122970533D01*
X127074443Y-122970534D01*
X127125963Y-123140373D01*
X127143359Y-123317000D01*
X127125963Y-123493627D01*
X127091616Y-123606853D01*
X127074443Y-123663467D01*
X127000348Y-123802087D01*
X126990778Y-123819991D01*
X126961448Y-123855729D01*
X126878186Y-123957186D01*
X126776729Y-124040448D01*
X126740991Y-124069778D01*
X126740989Y-124069779D01*
X126584467Y-124153443D01*
X126527853Y-124170616D01*
X126414627Y-124204963D01*
X126348442Y-124211482D01*
X126282260Y-124218000D01*
X126193740Y-124218000D01*
X126127558Y-124211482D01*
X126061373Y-124204963D01*
X125948147Y-124170616D01*
X125891533Y-124153443D01*
X125735011Y-124069779D01*
X125735009Y-124069778D01*
X125699271Y-124040448D01*
X125597814Y-123957186D01*
X125514552Y-123855729D01*
X125485222Y-123819991D01*
X125475652Y-123802087D01*
X125401557Y-123663467D01*
X125384384Y-123606853D01*
X125350037Y-123493627D01*
X125332641Y-123317000D01*
X125350037Y-123140373D01*
X125401557Y-122970534D01*
X125401557Y-122970533D01*
X125485221Y-122814011D01*
X125485222Y-122814009D01*
X125514552Y-122778271D01*
X125597814Y-122676814D01*
X125699271Y-122593552D01*
X125735009Y-122564222D01*
X125752913Y-122554652D01*
X125891533Y-122480557D01*
X125948147Y-122463384D01*
X126061373Y-122429037D01*
X126127558Y-122422518D01*
X126193740Y-122416000D01*
X126282260Y-122416000D01*
X126348442Y-122422518D01*
X126348442Y-122422518D01*
G37*
G36*
X121268442Y-122422518D02*
X121334627Y-122429037D01*
X121447853Y-122463384D01*
X121504467Y-122480557D01*
X121643087Y-122554652D01*
X121660991Y-122564222D01*
X121696729Y-122593552D01*
X121798186Y-122676814D01*
X121881448Y-122778271D01*
X121910778Y-122814009D01*
X121910779Y-122814011D01*
X121994443Y-122970533D01*
X121994443Y-122970534D01*
X122045963Y-123140373D01*
X122063359Y-123317000D01*
X122045963Y-123493627D01*
X122011616Y-123606853D01*
X121994443Y-123663467D01*
X121920348Y-123802087D01*
X121910778Y-123819991D01*
X121881448Y-123855729D01*
X121798186Y-123957186D01*
X121696729Y-124040448D01*
X121660991Y-124069778D01*
X121660989Y-124069779D01*
X121504467Y-124153443D01*
X121447853Y-124170616D01*
X121334627Y-124204963D01*
X121268442Y-124211482D01*
X121202260Y-124218000D01*
X121113740Y-124218000D01*
X121047558Y-124211482D01*
X120981373Y-124204963D01*
X120868147Y-124170616D01*
X120811533Y-124153443D01*
X120655011Y-124069779D01*
X120655009Y-124069778D01*
X120619271Y-124040448D01*
X120517814Y-123957186D01*
X120434552Y-123855729D01*
X120405222Y-123819991D01*
X120395652Y-123802087D01*
X120321557Y-123663467D01*
X120304384Y-123606853D01*
X120270037Y-123493627D01*
X120252641Y-123317000D01*
X120270037Y-123140373D01*
X120321557Y-122970534D01*
X120321557Y-122970533D01*
X120405221Y-122814011D01*
X120405222Y-122814009D01*
X120434552Y-122778271D01*
X120517814Y-122676814D01*
X120619271Y-122593552D01*
X120655009Y-122564222D01*
X120672913Y-122554652D01*
X120811533Y-122480557D01*
X120868147Y-122463384D01*
X120981373Y-122429037D01*
X121047558Y-122422518D01*
X121113740Y-122416000D01*
X121202260Y-122416000D01*
X121268442Y-122422518D01*
X121268442Y-122422518D01*
G37*
G36*
X123808442Y-122422518D02*
X123874627Y-122429037D01*
X123987853Y-122463384D01*
X124044467Y-122480557D01*
X124183087Y-122554652D01*
X124200991Y-122564222D01*
X124236729Y-122593552D01*
X124338186Y-122676814D01*
X124421448Y-122778271D01*
X124450778Y-122814009D01*
X124450779Y-122814011D01*
X124534443Y-122970533D01*
X124534443Y-122970534D01*
X124585963Y-123140373D01*
X124603359Y-123317000D01*
X124585963Y-123493627D01*
X124551616Y-123606853D01*
X124534443Y-123663467D01*
X124460348Y-123802087D01*
X124450778Y-123819991D01*
X124421448Y-123855729D01*
X124338186Y-123957186D01*
X124236729Y-124040448D01*
X124200991Y-124069778D01*
X124200989Y-124069779D01*
X124044467Y-124153443D01*
X123987853Y-124170616D01*
X123874627Y-124204963D01*
X123808442Y-124211482D01*
X123742260Y-124218000D01*
X123653740Y-124218000D01*
X123587558Y-124211482D01*
X123521373Y-124204963D01*
X123408147Y-124170616D01*
X123351533Y-124153443D01*
X123195011Y-124069779D01*
X123195009Y-124069778D01*
X123159271Y-124040448D01*
X123057814Y-123957186D01*
X122974552Y-123855729D01*
X122945222Y-123819991D01*
X122935652Y-123802087D01*
X122861557Y-123663467D01*
X122844384Y-123606853D01*
X122810037Y-123493627D01*
X122792641Y-123317000D01*
X122810037Y-123140373D01*
X122861557Y-122970534D01*
X122861557Y-122970533D01*
X122945221Y-122814011D01*
X122945222Y-122814009D01*
X122974552Y-122778271D01*
X123057814Y-122676814D01*
X123159271Y-122593552D01*
X123195009Y-122564222D01*
X123212913Y-122554652D01*
X123351533Y-122480557D01*
X123408147Y-122463384D01*
X123521373Y-122429037D01*
X123587558Y-122422518D01*
X123653740Y-122416000D01*
X123742260Y-122416000D01*
X123808442Y-122422518D01*
X123808442Y-122422518D01*
G37*
G36*
X112773071Y-117491063D02*
X112903890Y-117530747D01*
X112969301Y-117550589D01*
X113065965Y-117602257D01*
X113150146Y-117647253D01*
X113150148Y-117647254D01*
X113150147Y-117647254D01*
X113308659Y-117777341D01*
X113438746Y-117935852D01*
X113535411Y-118116698D01*
X113555253Y-118182109D01*
X113594937Y-118312928D01*
X113610000Y-118465868D01*
X113610000Y-120548132D01*
X113594937Y-120701072D01*
X113555253Y-120831891D01*
X113535411Y-120897302D01*
X113438746Y-121078148D01*
X113308659Y-121236659D01*
X113150148Y-121366746D01*
X112969302Y-121463411D01*
X112903891Y-121483253D01*
X112773072Y-121522937D01*
X112569000Y-121543036D01*
X112364929Y-121522937D01*
X112234110Y-121483253D01*
X112168699Y-121463411D01*
X111987853Y-121366746D01*
X111829342Y-121236659D01*
X111699255Y-121078148D01*
X111602590Y-120897302D01*
X111582748Y-120831891D01*
X111543064Y-120701072D01*
X111528001Y-120548132D01*
X111528000Y-118465869D01*
X111543063Y-118312929D01*
X111602589Y-118116700D01*
X111602589Y-118116699D01*
X111699254Y-117935853D01*
X111829341Y-117777341D01*
X111987852Y-117647254D01*
X112168698Y-117550589D01*
X112234109Y-117530747D01*
X112364928Y-117491063D01*
X112569000Y-117470964D01*
X112773071Y-117491063D01*
X112773071Y-117491063D01*
G37*
G36*
X108610000Y-121538000D02*
X106528000Y-121538000D01*
X106528000Y-117476000D01*
X108610000Y-117476000D01*
X108610000Y-121538000D01*
X108610000Y-121538000D01*
G37*
G36*
X106917142Y-111486242D02*
X107065102Y-111547530D01*
X107198258Y-111636502D01*
X107311498Y-111749742D01*
X107400470Y-111882898D01*
X107461758Y-112030858D01*
X107493000Y-112187925D01*
X107493000Y-112348075D01*
X107461758Y-112505142D01*
X107400470Y-112653102D01*
X107311498Y-112786258D01*
X107198258Y-112899498D01*
X107065102Y-112988470D01*
X106917142Y-113049758D01*
X106760075Y-113081000D01*
X106599925Y-113081000D01*
X106442858Y-113049758D01*
X106294898Y-112988470D01*
X106161742Y-112899498D01*
X106048502Y-112786258D01*
X105959530Y-112653102D01*
X105898242Y-112505142D01*
X105867000Y-112348075D01*
X105867000Y-112187925D01*
X105898242Y-112030858D01*
X105959530Y-111882898D01*
X106048502Y-111749742D01*
X106161742Y-111636502D01*
X106294898Y-111547530D01*
X106442858Y-111486242D01*
X106599925Y-111455000D01*
X106760075Y-111455000D01*
X106917142Y-111486242D01*
X106917142Y-111486242D01*
G37*
G36*
X132317142Y-111486242D02*
X132465102Y-111547530D01*
X132598258Y-111636502D01*
X132711498Y-111749742D01*
X132800470Y-111882898D01*
X132861758Y-112030858D01*
X132893000Y-112187925D01*
X132893000Y-112348075D01*
X132861758Y-112505142D01*
X132800470Y-112653102D01*
X132711498Y-112786258D01*
X132598258Y-112899498D01*
X132465102Y-112988470D01*
X132317142Y-113049758D01*
X132160075Y-113081000D01*
X131999925Y-113081000D01*
X131842858Y-113049758D01*
X131694898Y-112988470D01*
X131561742Y-112899498D01*
X131448502Y-112786258D01*
X131359530Y-112653102D01*
X131298242Y-112505142D01*
X131267000Y-112348075D01*
X131267000Y-112187925D01*
X131298242Y-112030858D01*
X131359530Y-111882898D01*
X131448502Y-111749742D01*
X131561742Y-111636502D01*
X131694898Y-111547530D01*
X131842858Y-111486242D01*
X131999925Y-111455000D01*
X132160075Y-111455000D01*
X132317142Y-111486242D01*
X132317142Y-111486242D01*
G37*
G36*
X132317142Y-108946242D02*
X132465102Y-109007530D01*
X132598258Y-109096502D01*
X132711498Y-109209742D01*
X132800470Y-109342898D01*
X132861758Y-109490858D01*
X132893000Y-109647925D01*
X132893000Y-109808075D01*
X132861758Y-109965142D01*
X132800470Y-110113102D01*
X132711498Y-110246258D01*
X132598258Y-110359498D01*
X132465102Y-110448470D01*
X132317142Y-110509758D01*
X132160075Y-110541000D01*
X131999925Y-110541000D01*
X131842858Y-110509758D01*
X131694898Y-110448470D01*
X131561742Y-110359498D01*
X131448502Y-110246258D01*
X131359530Y-110113102D01*
X131298242Y-109965142D01*
X131267000Y-109808075D01*
X131267000Y-109647925D01*
X131298242Y-109490858D01*
X131359530Y-109342898D01*
X131448502Y-109209742D01*
X131561742Y-109096502D01*
X131694898Y-109007530D01*
X131842858Y-108946242D01*
X131999925Y-108915000D01*
X132160075Y-108915000D01*
X132317142Y-108946242D01*
X132317142Y-108946242D01*
G37*
G36*
X106917142Y-108946242D02*
X107065102Y-109007530D01*
X107198258Y-109096502D01*
X107311498Y-109209742D01*
X107400470Y-109342898D01*
X107461758Y-109490858D01*
X107493000Y-109647925D01*
X107493000Y-109808075D01*
X107461758Y-109965142D01*
X107400470Y-110113102D01*
X107311498Y-110246258D01*
X107198258Y-110359498D01*
X107065102Y-110448470D01*
X106917142Y-110509758D01*
X106760075Y-110541000D01*
X106599925Y-110541000D01*
X106442858Y-110509758D01*
X106294898Y-110448470D01*
X106161742Y-110359498D01*
X106048502Y-110246258D01*
X105959530Y-110113102D01*
X105898242Y-109965142D01*
X105867000Y-109808075D01*
X105867000Y-109647925D01*
X105898242Y-109490858D01*
X105959530Y-109342898D01*
X106048502Y-109209742D01*
X106161742Y-109096502D01*
X106294898Y-109007530D01*
X106442858Y-108946242D01*
X106599925Y-108915000D01*
X106760075Y-108915000D01*
X106917142Y-108946242D01*
X106917142Y-108946242D01*
G37*
G36*
X106917142Y-106406242D02*
X107065102Y-106467530D01*
X107198258Y-106556502D01*
X107311498Y-106669742D01*
X107400470Y-106802898D01*
X107461758Y-106950858D01*
X107493000Y-107107925D01*
X107493000Y-107268075D01*
X107461758Y-107425142D01*
X107400470Y-107573102D01*
X107311498Y-107706258D01*
X107198258Y-107819498D01*
X107065102Y-107908470D01*
X106917142Y-107969758D01*
X106760075Y-108001000D01*
X106599925Y-108001000D01*
X106442858Y-107969758D01*
X106294898Y-107908470D01*
X106161742Y-107819498D01*
X106048502Y-107706258D01*
X105959530Y-107573102D01*
X105898242Y-107425142D01*
X105867000Y-107268075D01*
X105867000Y-107107925D01*
X105898242Y-106950858D01*
X105959530Y-106802898D01*
X106048502Y-106669742D01*
X106161742Y-106556502D01*
X106294898Y-106467530D01*
X106442858Y-106406242D01*
X106599925Y-106375000D01*
X106760075Y-106375000D01*
X106917142Y-106406242D01*
X106917142Y-106406242D01*
G37*
G36*
X132317142Y-106406242D02*
X132465102Y-106467530D01*
X132598258Y-106556502D01*
X132711498Y-106669742D01*
X132800470Y-106802898D01*
X132861758Y-106950858D01*
X132893000Y-107107925D01*
X132893000Y-107268075D01*
X132861758Y-107425142D01*
X132800470Y-107573102D01*
X132711498Y-107706258D01*
X132598258Y-107819498D01*
X132465102Y-107908470D01*
X132317142Y-107969758D01*
X132160075Y-108001000D01*
X131999925Y-108001000D01*
X131842858Y-107969758D01*
X131694898Y-107908470D01*
X131561742Y-107819498D01*
X131448502Y-107706258D01*
X131359530Y-107573102D01*
X131298242Y-107425142D01*
X131267000Y-107268075D01*
X131267000Y-107107925D01*
X131298242Y-106950858D01*
X131359530Y-106802898D01*
X131448502Y-106669742D01*
X131561742Y-106556502D01*
X131694898Y-106467530D01*
X131842858Y-106406242D01*
X131999925Y-106375000D01*
X132160075Y-106375000D01*
X132317142Y-106406242D01*
X132317142Y-106406242D01*
G37*
G36*
X132317142Y-103866242D02*
X132465102Y-103927530D01*
X132598258Y-104016502D01*
X132711498Y-104129742D01*
X132800470Y-104262898D01*
X132861758Y-104410858D01*
X132893000Y-104567925D01*
X132893000Y-104728075D01*
X132861758Y-104885142D01*
X132800470Y-105033102D01*
X132711498Y-105166258D01*
X132598258Y-105279498D01*
X132465102Y-105368470D01*
X132317142Y-105429758D01*
X132160075Y-105461000D01*
X131999925Y-105461000D01*
X131842858Y-105429758D01*
X131694898Y-105368470D01*
X131561742Y-105279498D01*
X131448502Y-105166258D01*
X131359530Y-105033102D01*
X131298242Y-104885142D01*
X131267000Y-104728075D01*
X131267000Y-104567925D01*
X131298242Y-104410858D01*
X131359530Y-104262898D01*
X131448502Y-104129742D01*
X131561742Y-104016502D01*
X131694898Y-103927530D01*
X131842858Y-103866242D01*
X131999925Y-103835000D01*
X132160075Y-103835000D01*
X132317142Y-103866242D01*
X132317142Y-103866242D01*
G37*
G36*
X106917142Y-103866242D02*
X107065102Y-103927530D01*
X107198258Y-104016502D01*
X107311498Y-104129742D01*
X107400470Y-104262898D01*
X107461758Y-104410858D01*
X107493000Y-104567925D01*
X107493000Y-104728075D01*
X107461758Y-104885142D01*
X107400470Y-105033102D01*
X107311498Y-105166258D01*
X107198258Y-105279498D01*
X107065102Y-105368470D01*
X106917142Y-105429758D01*
X106760075Y-105461000D01*
X106599925Y-105461000D01*
X106442858Y-105429758D01*
X106294898Y-105368470D01*
X106161742Y-105279498D01*
X106048502Y-105166258D01*
X105959530Y-105033102D01*
X105898242Y-104885142D01*
X105867000Y-104728075D01*
X105867000Y-104567925D01*
X105898242Y-104410858D01*
X105959530Y-104262898D01*
X106048502Y-104129742D01*
X106161742Y-104016502D01*
X106294898Y-103927530D01*
X106442858Y-103866242D01*
X106599925Y-103835000D01*
X106760075Y-103835000D01*
X106917142Y-103866242D01*
X106917142Y-103866242D01*
G37*
G36*
X132317142Y-101326242D02*
X132465102Y-101387530D01*
X132598258Y-101476502D01*
X132711498Y-101589742D01*
X132800470Y-101722898D01*
X132861758Y-101870858D01*
X132893000Y-102027925D01*
X132893000Y-102188075D01*
X132861758Y-102345142D01*
X132800470Y-102493102D01*
X132711498Y-102626258D01*
X132598258Y-102739498D01*
X132465102Y-102828470D01*
X132317142Y-102889758D01*
X132160075Y-102921000D01*
X131999925Y-102921000D01*
X131842858Y-102889758D01*
X131694898Y-102828470D01*
X131561742Y-102739498D01*
X131448502Y-102626258D01*
X131359530Y-102493102D01*
X131298242Y-102345142D01*
X131267000Y-102188075D01*
X131267000Y-102027925D01*
X131298242Y-101870858D01*
X131359530Y-101722898D01*
X131448502Y-101589742D01*
X131561742Y-101476502D01*
X131694898Y-101387530D01*
X131842858Y-101326242D01*
X131999925Y-101295000D01*
X132160075Y-101295000D01*
X132317142Y-101326242D01*
X132317142Y-101326242D01*
G37*
G36*
X106917142Y-101326242D02*
X107065102Y-101387530D01*
X107198258Y-101476502D01*
X107311498Y-101589742D01*
X107400470Y-101722898D01*
X107461758Y-101870858D01*
X107493000Y-102027925D01*
X107493000Y-102188075D01*
X107461758Y-102345142D01*
X107400470Y-102493102D01*
X107311498Y-102626258D01*
X107198258Y-102739498D01*
X107065102Y-102828470D01*
X106917142Y-102889758D01*
X106760075Y-102921000D01*
X106599925Y-102921000D01*
X106442858Y-102889758D01*
X106294898Y-102828470D01*
X106161742Y-102739498D01*
X106048502Y-102626258D01*
X105959530Y-102493102D01*
X105898242Y-102345142D01*
X105867000Y-102188075D01*
X105867000Y-102027925D01*
X105898242Y-101870858D01*
X105959530Y-101722898D01*
X106048502Y-101589742D01*
X106161742Y-101476502D01*
X106294898Y-101387530D01*
X106442858Y-101326242D01*
X106599925Y-101295000D01*
X106760075Y-101295000D01*
X106917142Y-101326242D01*
X106917142Y-101326242D01*
G37*
G36*
X106917142Y-98786242D02*
X107065102Y-98847530D01*
X107198258Y-98936502D01*
X107311498Y-99049742D01*
X107400470Y-99182898D01*
X107461758Y-99330858D01*
X107493000Y-99487925D01*
X107493000Y-99648075D01*
X107461758Y-99805142D01*
X107400470Y-99953102D01*
X107311498Y-100086258D01*
X107198258Y-100199498D01*
X107065102Y-100288470D01*
X106917142Y-100349758D01*
X106760075Y-100381000D01*
X106599925Y-100381000D01*
X106442858Y-100349758D01*
X106294898Y-100288470D01*
X106161742Y-100199498D01*
X106048502Y-100086258D01*
X105959530Y-99953102D01*
X105898242Y-99805142D01*
X105867000Y-99648075D01*
X105867000Y-99487925D01*
X105898242Y-99330858D01*
X105959530Y-99182898D01*
X106048502Y-99049742D01*
X106161742Y-98936502D01*
X106294898Y-98847530D01*
X106442858Y-98786242D01*
X106599925Y-98755000D01*
X106760075Y-98755000D01*
X106917142Y-98786242D01*
X106917142Y-98786242D01*
G37*
G36*
X132317142Y-98786242D02*
X132465102Y-98847530D01*
X132598258Y-98936502D01*
X132711498Y-99049742D01*
X132800470Y-99182898D01*
X132861758Y-99330858D01*
X132893000Y-99487925D01*
X132893000Y-99648075D01*
X132861758Y-99805142D01*
X132800470Y-99953102D01*
X132711498Y-100086258D01*
X132598258Y-100199498D01*
X132465102Y-100288470D01*
X132317142Y-100349758D01*
X132160075Y-100381000D01*
X131999925Y-100381000D01*
X131842858Y-100349758D01*
X131694898Y-100288470D01*
X131561742Y-100199498D01*
X131448502Y-100086258D01*
X131359530Y-99953102D01*
X131298242Y-99805142D01*
X131267000Y-99648075D01*
X131267000Y-99487925D01*
X131298242Y-99330858D01*
X131359530Y-99182898D01*
X131448502Y-99049742D01*
X131561742Y-98936502D01*
X131694898Y-98847530D01*
X131842858Y-98786242D01*
X131999925Y-98755000D01*
X132160075Y-98755000D01*
X132317142Y-98786242D01*
X132317142Y-98786242D01*
G37*
G36*
X132317142Y-96246242D02*
X132465102Y-96307530D01*
X132598258Y-96396502D01*
X132711498Y-96509742D01*
X132800470Y-96642898D01*
X132861758Y-96790858D01*
X132893000Y-96947925D01*
X132893000Y-97108075D01*
X132861758Y-97265142D01*
X132800470Y-97413102D01*
X132711498Y-97546258D01*
X132598258Y-97659498D01*
X132465102Y-97748470D01*
X132317142Y-97809758D01*
X132160075Y-97841000D01*
X131999925Y-97841000D01*
X131842858Y-97809758D01*
X131694898Y-97748470D01*
X131561742Y-97659498D01*
X131448502Y-97546258D01*
X131359530Y-97413102D01*
X131298242Y-97265142D01*
X131267000Y-97108075D01*
X131267000Y-96947925D01*
X131298242Y-96790858D01*
X131359530Y-96642898D01*
X131448502Y-96509742D01*
X131561742Y-96396502D01*
X131694898Y-96307530D01*
X131842858Y-96246242D01*
X131999925Y-96215000D01*
X132160075Y-96215000D01*
X132317142Y-96246242D01*
X132317142Y-96246242D01*
G37*
G36*
X106917142Y-96246242D02*
X107065102Y-96307530D01*
X107198258Y-96396502D01*
X107311498Y-96509742D01*
X107400470Y-96642898D01*
X107461758Y-96790858D01*
X107493000Y-96947925D01*
X107493000Y-97108075D01*
X107461758Y-97265142D01*
X107400470Y-97413102D01*
X107311498Y-97546258D01*
X107198258Y-97659498D01*
X107065102Y-97748470D01*
X106917142Y-97809758D01*
X106760075Y-97841000D01*
X106599925Y-97841000D01*
X106442858Y-97809758D01*
X106294898Y-97748470D01*
X106161742Y-97659498D01*
X106048502Y-97546258D01*
X105959530Y-97413102D01*
X105898242Y-97265142D01*
X105867000Y-97108075D01*
X105867000Y-96947925D01*
X105898242Y-96790858D01*
X105959530Y-96642898D01*
X106048502Y-96509742D01*
X106161742Y-96396502D01*
X106294898Y-96307530D01*
X106442858Y-96246242D01*
X106599925Y-96215000D01*
X106760075Y-96215000D01*
X106917142Y-96246242D01*
X106917142Y-96246242D01*
G37*
G36*
X132317142Y-93706242D02*
X132465102Y-93767530D01*
X132598258Y-93856502D01*
X132711498Y-93969742D01*
X132800470Y-94102898D01*
X132861758Y-94250858D01*
X132893000Y-94407925D01*
X132893000Y-94568075D01*
X132861758Y-94725142D01*
X132800470Y-94873102D01*
X132711498Y-95006258D01*
X132598258Y-95119498D01*
X132465102Y-95208470D01*
X132317142Y-95269758D01*
X132160075Y-95301000D01*
X131999925Y-95301000D01*
X131842858Y-95269758D01*
X131694898Y-95208470D01*
X131561742Y-95119498D01*
X131448502Y-95006258D01*
X131359530Y-94873102D01*
X131298242Y-94725142D01*
X131267000Y-94568075D01*
X131267000Y-94407925D01*
X131298242Y-94250858D01*
X131359530Y-94102898D01*
X131448502Y-93969742D01*
X131561742Y-93856502D01*
X131694898Y-93767530D01*
X131842858Y-93706242D01*
X131999925Y-93675000D01*
X132160075Y-93675000D01*
X132317142Y-93706242D01*
X132317142Y-93706242D01*
G37*
G36*
X106917142Y-93706242D02*
X107065102Y-93767530D01*
X107198258Y-93856502D01*
X107311498Y-93969742D01*
X107400470Y-94102898D01*
X107461758Y-94250858D01*
X107493000Y-94407925D01*
X107493000Y-94568075D01*
X107461758Y-94725142D01*
X107400470Y-94873102D01*
X107311498Y-95006258D01*
X107198258Y-95119498D01*
X107065102Y-95208470D01*
X106917142Y-95269758D01*
X106760075Y-95301000D01*
X106599925Y-95301000D01*
X106442858Y-95269758D01*
X106294898Y-95208470D01*
X106161742Y-95119498D01*
X106048502Y-95006258D01*
X105959530Y-94873102D01*
X105898242Y-94725142D01*
X105867000Y-94568075D01*
X105867000Y-94407925D01*
X105898242Y-94250858D01*
X105959530Y-94102898D01*
X106048502Y-93969742D01*
X106161742Y-93856502D01*
X106294898Y-93767530D01*
X106442858Y-93706242D01*
X106599925Y-93675000D01*
X106760075Y-93675000D01*
X106917142Y-93706242D01*
X106917142Y-93706242D01*
G37*
G36*
X106917142Y-91166242D02*
X107065102Y-91227530D01*
X107198258Y-91316502D01*
X107311498Y-91429742D01*
X107400470Y-91562898D01*
X107461758Y-91710858D01*
X107493000Y-91867925D01*
X107493000Y-92028075D01*
X107461758Y-92185142D01*
X107400470Y-92333102D01*
X107311498Y-92466258D01*
X107198258Y-92579498D01*
X107065102Y-92668470D01*
X106917142Y-92729758D01*
X106760075Y-92761000D01*
X106599925Y-92761000D01*
X106442858Y-92729758D01*
X106294898Y-92668470D01*
X106161742Y-92579498D01*
X106048502Y-92466258D01*
X105959530Y-92333102D01*
X105898242Y-92185142D01*
X105867000Y-92028075D01*
X105867000Y-91867925D01*
X105898242Y-91710858D01*
X105959530Y-91562898D01*
X106048502Y-91429742D01*
X106161742Y-91316502D01*
X106294898Y-91227530D01*
X106442858Y-91166242D01*
X106599925Y-91135000D01*
X106760075Y-91135000D01*
X106917142Y-91166242D01*
X106917142Y-91166242D01*
G37*
G36*
X132317142Y-91166242D02*
X132465102Y-91227530D01*
X132598258Y-91316502D01*
X132711498Y-91429742D01*
X132800470Y-91562898D01*
X132861758Y-91710858D01*
X132893000Y-91867925D01*
X132893000Y-92028075D01*
X132861758Y-92185142D01*
X132800470Y-92333102D01*
X132711498Y-92466258D01*
X132598258Y-92579498D01*
X132465102Y-92668470D01*
X132317142Y-92729758D01*
X132160075Y-92761000D01*
X131999925Y-92761000D01*
X131842858Y-92729758D01*
X131694898Y-92668470D01*
X131561742Y-92579498D01*
X131448502Y-92466258D01*
X131359530Y-92333102D01*
X131298242Y-92185142D01*
X131267000Y-92028075D01*
X131267000Y-91867925D01*
X131298242Y-91710858D01*
X131359530Y-91562898D01*
X131448502Y-91429742D01*
X131561742Y-91316502D01*
X131694898Y-91227530D01*
X131842858Y-91166242D01*
X131999925Y-91135000D01*
X132160075Y-91135000D01*
X132317142Y-91166242D01*
X132317142Y-91166242D01*
G37*
G36*
X132317142Y-88626242D02*
X132465102Y-88687530D01*
X132598258Y-88776502D01*
X132711498Y-88889742D01*
X132800470Y-89022898D01*
X132861758Y-89170858D01*
X132893000Y-89327925D01*
X132893000Y-89488075D01*
X132861758Y-89645142D01*
X132800470Y-89793102D01*
X132711498Y-89926258D01*
X132598258Y-90039498D01*
X132465102Y-90128470D01*
X132317142Y-90189758D01*
X132160075Y-90221000D01*
X131999925Y-90221000D01*
X131842858Y-90189758D01*
X131694898Y-90128470D01*
X131561742Y-90039498D01*
X131448502Y-89926258D01*
X131359530Y-89793102D01*
X131298242Y-89645142D01*
X131267000Y-89488075D01*
X131267000Y-89327925D01*
X131298242Y-89170858D01*
X131359530Y-89022898D01*
X131448502Y-88889742D01*
X131561742Y-88776502D01*
X131694898Y-88687530D01*
X131842858Y-88626242D01*
X131999925Y-88595000D01*
X132160075Y-88595000D01*
X132317142Y-88626242D01*
X132317142Y-88626242D01*
G37*
G36*
X106917142Y-88626242D02*
X107065102Y-88687530D01*
X107198258Y-88776502D01*
X107311498Y-88889742D01*
X107400470Y-89022898D01*
X107461758Y-89170858D01*
X107493000Y-89327925D01*
X107493000Y-89488075D01*
X107461758Y-89645142D01*
X107400470Y-89793102D01*
X107311498Y-89926258D01*
X107198258Y-90039498D01*
X107065102Y-90128470D01*
X106917142Y-90189758D01*
X106760075Y-90221000D01*
X106599925Y-90221000D01*
X106442858Y-90189758D01*
X106294898Y-90128470D01*
X106161742Y-90039498D01*
X106048502Y-89926258D01*
X105959530Y-89793102D01*
X105898242Y-89645142D01*
X105867000Y-89488075D01*
X105867000Y-89327925D01*
X105898242Y-89170858D01*
X105959530Y-89022898D01*
X106048502Y-88889742D01*
X106161742Y-88776502D01*
X106294898Y-88687530D01*
X106442858Y-88626242D01*
X106599925Y-88595000D01*
X106760075Y-88595000D01*
X106917142Y-88626242D01*
X106917142Y-88626242D01*
G37*
G36*
X132317142Y-86086242D02*
X132465102Y-86147530D01*
X132598258Y-86236502D01*
X132711498Y-86349742D01*
X132800470Y-86482898D01*
X132861758Y-86630858D01*
X132893000Y-86787925D01*
X132893000Y-86948075D01*
X132861758Y-87105142D01*
X132800470Y-87253102D01*
X132711498Y-87386258D01*
X132598258Y-87499498D01*
X132465102Y-87588470D01*
X132317142Y-87649758D01*
X132160075Y-87681000D01*
X131999925Y-87681000D01*
X131842858Y-87649758D01*
X131694898Y-87588470D01*
X131561742Y-87499498D01*
X131448502Y-87386258D01*
X131359530Y-87253102D01*
X131298242Y-87105142D01*
X131267000Y-86948075D01*
X131267000Y-86787925D01*
X131298242Y-86630858D01*
X131359530Y-86482898D01*
X131448502Y-86349742D01*
X131561742Y-86236502D01*
X131694898Y-86147530D01*
X131842858Y-86086242D01*
X131999925Y-86055000D01*
X132160075Y-86055000D01*
X132317142Y-86086242D01*
X132317142Y-86086242D01*
G37*
G36*
X106917142Y-86086242D02*
X107065102Y-86147530D01*
X107198258Y-86236502D01*
X107311498Y-86349742D01*
X107400470Y-86482898D01*
X107461758Y-86630858D01*
X107493000Y-86787925D01*
X107493000Y-86948075D01*
X107461758Y-87105142D01*
X107400470Y-87253102D01*
X107311498Y-87386258D01*
X107198258Y-87499498D01*
X107065102Y-87588470D01*
X106917142Y-87649758D01*
X106760075Y-87681000D01*
X106599925Y-87681000D01*
X106442858Y-87649758D01*
X106294898Y-87588470D01*
X106161742Y-87499498D01*
X106048502Y-87386258D01*
X105959530Y-87253102D01*
X105898242Y-87105142D01*
X105867000Y-86948075D01*
X105867000Y-86787925D01*
X105898242Y-86630858D01*
X105959530Y-86482898D01*
X106048502Y-86349742D01*
X106161742Y-86236502D01*
X106294898Y-86147530D01*
X106442858Y-86086242D01*
X106599925Y-86055000D01*
X106760075Y-86055000D01*
X106917142Y-86086242D01*
X106917142Y-86086242D01*
G37*
G36*
X106917142Y-83546242D02*
X107065102Y-83607530D01*
X107198258Y-83696502D01*
X107311498Y-83809742D01*
X107400470Y-83942898D01*
X107461758Y-84090858D01*
X107493000Y-84247925D01*
X107493000Y-84408075D01*
X107461758Y-84565142D01*
X107400470Y-84713102D01*
X107311498Y-84846258D01*
X107198258Y-84959498D01*
X107065102Y-85048470D01*
X106917142Y-85109758D01*
X106760075Y-85141000D01*
X106599925Y-85141000D01*
X106442858Y-85109758D01*
X106294898Y-85048470D01*
X106161742Y-84959498D01*
X106048502Y-84846258D01*
X105959530Y-84713102D01*
X105898242Y-84565142D01*
X105867000Y-84408075D01*
X105867000Y-84247925D01*
X105898242Y-84090858D01*
X105959530Y-83942898D01*
X106048502Y-83809742D01*
X106161742Y-83696502D01*
X106294898Y-83607530D01*
X106442858Y-83546242D01*
X106599925Y-83515000D01*
X106760075Y-83515000D01*
X106917142Y-83546242D01*
X106917142Y-83546242D01*
G37*
G36*
X132317142Y-83546242D02*
X132465102Y-83607530D01*
X132598258Y-83696502D01*
X132711498Y-83809742D01*
X132800470Y-83942898D01*
X132861758Y-84090858D01*
X132893000Y-84247925D01*
X132893000Y-84408075D01*
X132861758Y-84565142D01*
X132800470Y-84713102D01*
X132711498Y-84846258D01*
X132598258Y-84959498D01*
X132465102Y-85048470D01*
X132317142Y-85109758D01*
X132160075Y-85141000D01*
X131999925Y-85141000D01*
X131842858Y-85109758D01*
X131694898Y-85048470D01*
X131561742Y-84959498D01*
X131448502Y-84846258D01*
X131359530Y-84713102D01*
X131298242Y-84565142D01*
X131267000Y-84408075D01*
X131267000Y-84247925D01*
X131298242Y-84090858D01*
X131359530Y-83942898D01*
X131448502Y-83809742D01*
X131561742Y-83696502D01*
X131694898Y-83607530D01*
X131842858Y-83546242D01*
X131999925Y-83515000D01*
X132160075Y-83515000D01*
X132317142Y-83546242D01*
X132317142Y-83546242D01*
G37*
G36*
X106917142Y-81006242D02*
X107065102Y-81067530D01*
X107198258Y-81156502D01*
X107311498Y-81269742D01*
X107400470Y-81402898D01*
X107461758Y-81550858D01*
X107493000Y-81707925D01*
X107493000Y-81868075D01*
X107461758Y-82025142D01*
X107400470Y-82173102D01*
X107311498Y-82306258D01*
X107198258Y-82419498D01*
X107065102Y-82508470D01*
X106917142Y-82569758D01*
X106760075Y-82601000D01*
X106599925Y-82601000D01*
X106442858Y-82569758D01*
X106294898Y-82508470D01*
X106161742Y-82419498D01*
X106048502Y-82306258D01*
X105959530Y-82173102D01*
X105898242Y-82025142D01*
X105867000Y-81868075D01*
X105867000Y-81707925D01*
X105898242Y-81550858D01*
X105959530Y-81402898D01*
X106048502Y-81269742D01*
X106161742Y-81156502D01*
X106294898Y-81067530D01*
X106442858Y-81006242D01*
X106599925Y-80975000D01*
X106760075Y-80975000D01*
X106917142Y-81006242D01*
X106917142Y-81006242D01*
G37*
G36*
X132317142Y-81006242D02*
X132465102Y-81067530D01*
X132598258Y-81156502D01*
X132711498Y-81269742D01*
X132800470Y-81402898D01*
X132861758Y-81550858D01*
X132893000Y-81707925D01*
X132893000Y-81868075D01*
X132861758Y-82025142D01*
X132800470Y-82173102D01*
X132711498Y-82306258D01*
X132598258Y-82419498D01*
X132465102Y-82508470D01*
X132317142Y-82569758D01*
X132160075Y-82601000D01*
X131999925Y-82601000D01*
X131842858Y-82569758D01*
X131694898Y-82508470D01*
X131561742Y-82419498D01*
X131448502Y-82306258D01*
X131359530Y-82173102D01*
X131298242Y-82025142D01*
X131267000Y-81868075D01*
X131267000Y-81707925D01*
X131298242Y-81550858D01*
X131359530Y-81402898D01*
X131448502Y-81269742D01*
X131561742Y-81156502D01*
X131694898Y-81067530D01*
X131842858Y-81006242D01*
X131999925Y-80975000D01*
X132160075Y-80975000D01*
X132317142Y-81006242D01*
X132317142Y-81006242D01*
G37*
G36*
X132317142Y-78466242D02*
X132465102Y-78527530D01*
X132598258Y-78616502D01*
X132711498Y-78729742D01*
X132800470Y-78862898D01*
X132861758Y-79010858D01*
X132893000Y-79167925D01*
X132893000Y-79328075D01*
X132861758Y-79485142D01*
X132800470Y-79633102D01*
X132711498Y-79766258D01*
X132598258Y-79879498D01*
X132465102Y-79968470D01*
X132317142Y-80029758D01*
X132160075Y-80061000D01*
X131999925Y-80061000D01*
X131842858Y-80029758D01*
X131694898Y-79968470D01*
X131561742Y-79879498D01*
X131448502Y-79766258D01*
X131359530Y-79633102D01*
X131298242Y-79485142D01*
X131267000Y-79328075D01*
X131267000Y-79167925D01*
X131298242Y-79010858D01*
X131359530Y-78862898D01*
X131448502Y-78729742D01*
X131561742Y-78616502D01*
X131694898Y-78527530D01*
X131842858Y-78466242D01*
X131999925Y-78435000D01*
X132160075Y-78435000D01*
X132317142Y-78466242D01*
X132317142Y-78466242D01*
G37*
G36*
X106917142Y-78466242D02*
X107065102Y-78527530D01*
X107198258Y-78616502D01*
X107311498Y-78729742D01*
X107400470Y-78862898D01*
X107461758Y-79010858D01*
X107493000Y-79167925D01*
X107493000Y-79328075D01*
X107461758Y-79485142D01*
X107400470Y-79633102D01*
X107311498Y-79766258D01*
X107198258Y-79879498D01*
X107065102Y-79968470D01*
X106917142Y-80029758D01*
X106760075Y-80061000D01*
X106599925Y-80061000D01*
X106442858Y-80029758D01*
X106294898Y-79968470D01*
X106161742Y-79879498D01*
X106048502Y-79766258D01*
X105959530Y-79633102D01*
X105898242Y-79485142D01*
X105867000Y-79328075D01*
X105867000Y-79167925D01*
X105898242Y-79010858D01*
X105959530Y-78862898D01*
X106048502Y-78729742D01*
X106161742Y-78616502D01*
X106294898Y-78527530D01*
X106442858Y-78466242D01*
X106599925Y-78435000D01*
X106760075Y-78435000D01*
X106917142Y-78466242D01*
X106917142Y-78466242D01*
G37*
G36*
X132317142Y-75926242D02*
X132465102Y-75987530D01*
X132598258Y-76076502D01*
X132711498Y-76189742D01*
X132800470Y-76322898D01*
X132861758Y-76470858D01*
X132893000Y-76627925D01*
X132893000Y-76788075D01*
X132861758Y-76945142D01*
X132800470Y-77093102D01*
X132711498Y-77226258D01*
X132598258Y-77339498D01*
X132465102Y-77428470D01*
X132317142Y-77489758D01*
X132160075Y-77521000D01*
X131999925Y-77521000D01*
X131842858Y-77489758D01*
X131694898Y-77428470D01*
X131561742Y-77339498D01*
X131448502Y-77226258D01*
X131359530Y-77093102D01*
X131298242Y-76945142D01*
X131267000Y-76788075D01*
X131267000Y-76627925D01*
X131298242Y-76470858D01*
X131359530Y-76322898D01*
X131448502Y-76189742D01*
X131561742Y-76076502D01*
X131694898Y-75987530D01*
X131842858Y-75926242D01*
X131999925Y-75895000D01*
X132160075Y-75895000D01*
X132317142Y-75926242D01*
X132317142Y-75926242D01*
G37*
G36*
X106917142Y-75926242D02*
X107065102Y-75987530D01*
X107198258Y-76076502D01*
X107311498Y-76189742D01*
X107400470Y-76322898D01*
X107461758Y-76470858D01*
X107493000Y-76627925D01*
X107493000Y-76788075D01*
X107461758Y-76945142D01*
X107400470Y-77093102D01*
X107311498Y-77226258D01*
X107198258Y-77339498D01*
X107065102Y-77428470D01*
X106917142Y-77489758D01*
X106760075Y-77521000D01*
X106599925Y-77521000D01*
X106442858Y-77489758D01*
X106294898Y-77428470D01*
X106161742Y-77339498D01*
X106048502Y-77226258D01*
X105959530Y-77093102D01*
X105898242Y-76945142D01*
X105867000Y-76788075D01*
X105867000Y-76627925D01*
X105898242Y-76470858D01*
X105959530Y-76322898D01*
X106048502Y-76189742D01*
X106161742Y-76076502D01*
X106294898Y-75987530D01*
X106442858Y-75926242D01*
X106599925Y-75895000D01*
X106760075Y-75895000D01*
X106917142Y-75926242D01*
X106917142Y-75926242D01*
G37*
G36*
X125840443Y-66415519D02*
X125906627Y-66422037D01*
X126019853Y-66456384D01*
X126076467Y-66473557D01*
X126215087Y-66547652D01*
X126232991Y-66557222D01*
X126268729Y-66586552D01*
X126370186Y-66669814D01*
X126453448Y-66771271D01*
X126482778Y-66807009D01*
X126482779Y-66807011D01*
X126566443Y-66963533D01*
X126566443Y-66963534D01*
X126617963Y-67133373D01*
X126635359Y-67310000D01*
X126617963Y-67486627D01*
X126583616Y-67599853D01*
X126566443Y-67656467D01*
X126492348Y-67795087D01*
X126482778Y-67812991D01*
X126453448Y-67848729D01*
X126370186Y-67950186D01*
X126268729Y-68033448D01*
X126232991Y-68062778D01*
X126232989Y-68062779D01*
X126076467Y-68146443D01*
X126019853Y-68163616D01*
X125906627Y-68197963D01*
X125840443Y-68204481D01*
X125774260Y-68211000D01*
X125685740Y-68211000D01*
X125619557Y-68204481D01*
X125553373Y-68197963D01*
X125440147Y-68163616D01*
X125383533Y-68146443D01*
X125227011Y-68062779D01*
X125227009Y-68062778D01*
X125191271Y-68033448D01*
X125089814Y-67950186D01*
X125006552Y-67848729D01*
X124977222Y-67812991D01*
X124967652Y-67795087D01*
X124893557Y-67656467D01*
X124876384Y-67599853D01*
X124842037Y-67486627D01*
X124824641Y-67310000D01*
X124842037Y-67133373D01*
X124893557Y-66963534D01*
X124893557Y-66963533D01*
X124977221Y-66807011D01*
X124977222Y-66807009D01*
X125006552Y-66771271D01*
X125089814Y-66669814D01*
X125191271Y-66586552D01*
X125227009Y-66557222D01*
X125244913Y-66547652D01*
X125383533Y-66473557D01*
X125440147Y-66456384D01*
X125553373Y-66422037D01*
X125619557Y-66415519D01*
X125685740Y-66409000D01*
X125774260Y-66409000D01*
X125840443Y-66415519D01*
X125840443Y-66415519D01*
G37*
G36*
X123300443Y-66415519D02*
X123366627Y-66422037D01*
X123479853Y-66456384D01*
X123536467Y-66473557D01*
X123675087Y-66547652D01*
X123692991Y-66557222D01*
X123728729Y-66586552D01*
X123830186Y-66669814D01*
X123913448Y-66771271D01*
X123942778Y-66807009D01*
X123942779Y-66807011D01*
X124026443Y-66963533D01*
X124026443Y-66963534D01*
X124077963Y-67133373D01*
X124095359Y-67310000D01*
X124077963Y-67486627D01*
X124043616Y-67599853D01*
X124026443Y-67656467D01*
X123952348Y-67795087D01*
X123942778Y-67812991D01*
X123913448Y-67848729D01*
X123830186Y-67950186D01*
X123728729Y-68033448D01*
X123692991Y-68062778D01*
X123692989Y-68062779D01*
X123536467Y-68146443D01*
X123479853Y-68163616D01*
X123366627Y-68197963D01*
X123300443Y-68204481D01*
X123234260Y-68211000D01*
X123145740Y-68211000D01*
X123079557Y-68204481D01*
X123013373Y-68197963D01*
X122900147Y-68163616D01*
X122843533Y-68146443D01*
X122687011Y-68062779D01*
X122687009Y-68062778D01*
X122651271Y-68033448D01*
X122549814Y-67950186D01*
X122466552Y-67848729D01*
X122437222Y-67812991D01*
X122427652Y-67795087D01*
X122353557Y-67656467D01*
X122336384Y-67599853D01*
X122302037Y-67486627D01*
X122284641Y-67310000D01*
X122302037Y-67133373D01*
X122353557Y-66963534D01*
X122353557Y-66963533D01*
X122437221Y-66807011D01*
X122437222Y-66807009D01*
X122466552Y-66771271D01*
X122549814Y-66669814D01*
X122651271Y-66586552D01*
X122687009Y-66557222D01*
X122704913Y-66547652D01*
X122843533Y-66473557D01*
X122900147Y-66456384D01*
X123013373Y-66422037D01*
X123079557Y-66415519D01*
X123145740Y-66409000D01*
X123234260Y-66409000D01*
X123300443Y-66415519D01*
X123300443Y-66415519D01*
G37*
G36*
X120760443Y-66415519D02*
X120826627Y-66422037D01*
X120939853Y-66456384D01*
X120996467Y-66473557D01*
X121135087Y-66547652D01*
X121152991Y-66557222D01*
X121188729Y-66586552D01*
X121290186Y-66669814D01*
X121373448Y-66771271D01*
X121402778Y-66807009D01*
X121402779Y-66807011D01*
X121486443Y-66963533D01*
X121486443Y-66963534D01*
X121537963Y-67133373D01*
X121555359Y-67310000D01*
X121537963Y-67486627D01*
X121503616Y-67599853D01*
X121486443Y-67656467D01*
X121412348Y-67795087D01*
X121402778Y-67812991D01*
X121373448Y-67848729D01*
X121290186Y-67950186D01*
X121188729Y-68033448D01*
X121152991Y-68062778D01*
X121152989Y-68062779D01*
X120996467Y-68146443D01*
X120939853Y-68163616D01*
X120826627Y-68197963D01*
X120760443Y-68204481D01*
X120694260Y-68211000D01*
X120605740Y-68211000D01*
X120539557Y-68204481D01*
X120473373Y-68197963D01*
X120360147Y-68163616D01*
X120303533Y-68146443D01*
X120147011Y-68062779D01*
X120147009Y-68062778D01*
X120111271Y-68033448D01*
X120009814Y-67950186D01*
X119926552Y-67848729D01*
X119897222Y-67812991D01*
X119887652Y-67795087D01*
X119813557Y-67656467D01*
X119796384Y-67599853D01*
X119762037Y-67486627D01*
X119744641Y-67310000D01*
X119762037Y-67133373D01*
X119813557Y-66963534D01*
X119813557Y-66963533D01*
X119897221Y-66807011D01*
X119897222Y-66807009D01*
X119926552Y-66771271D01*
X120009814Y-66669814D01*
X120111271Y-66586552D01*
X120147009Y-66557222D01*
X120164913Y-66547652D01*
X120303533Y-66473557D01*
X120360147Y-66456384D01*
X120473373Y-66422037D01*
X120539557Y-66415519D01*
X120605740Y-66409000D01*
X120694260Y-66409000D01*
X120760443Y-66415519D01*
X120760443Y-66415519D01*
G37*
G36*
X118220443Y-66415519D02*
X118286627Y-66422037D01*
X118399853Y-66456384D01*
X118456467Y-66473557D01*
X118595087Y-66547652D01*
X118612991Y-66557222D01*
X118648729Y-66586552D01*
X118750186Y-66669814D01*
X118833448Y-66771271D01*
X118862778Y-66807009D01*
X118862779Y-66807011D01*
X118946443Y-66963533D01*
X118946443Y-66963534D01*
X118997963Y-67133373D01*
X119015359Y-67310000D01*
X118997963Y-67486627D01*
X118963616Y-67599853D01*
X118946443Y-67656467D01*
X118872348Y-67795087D01*
X118862778Y-67812991D01*
X118833448Y-67848729D01*
X118750186Y-67950186D01*
X118648729Y-68033448D01*
X118612991Y-68062778D01*
X118612989Y-68062779D01*
X118456467Y-68146443D01*
X118399853Y-68163616D01*
X118286627Y-68197963D01*
X118220443Y-68204481D01*
X118154260Y-68211000D01*
X118065740Y-68211000D01*
X117999557Y-68204481D01*
X117933373Y-68197963D01*
X117820147Y-68163616D01*
X117763533Y-68146443D01*
X117607011Y-68062779D01*
X117607009Y-68062778D01*
X117571271Y-68033448D01*
X117469814Y-67950186D01*
X117386552Y-67848729D01*
X117357222Y-67812991D01*
X117347652Y-67795087D01*
X117273557Y-67656467D01*
X117256384Y-67599853D01*
X117222037Y-67486627D01*
X117204641Y-67310000D01*
X117222037Y-67133373D01*
X117273557Y-66963534D01*
X117273557Y-66963533D01*
X117357221Y-66807011D01*
X117357222Y-66807009D01*
X117386552Y-66771271D01*
X117469814Y-66669814D01*
X117571271Y-66586552D01*
X117607009Y-66557222D01*
X117624913Y-66547652D01*
X117763533Y-66473557D01*
X117820147Y-66456384D01*
X117933373Y-66422037D01*
X117999557Y-66415519D01*
X118065740Y-66409000D01*
X118154260Y-66409000D01*
X118220443Y-66415519D01*
X118220443Y-66415519D01*
G37*
G36*
X113931000Y-68211000D02*
X112129000Y-68211000D01*
X112129000Y-66409000D01*
X113931000Y-66409000D01*
X113931000Y-68211000D01*
X113931000Y-68211000D01*
G37*
G36*
X115680443Y-66415519D02*
X115746627Y-66422037D01*
X115859853Y-66456384D01*
X115916467Y-66473557D01*
X116055087Y-66547652D01*
X116072991Y-66557222D01*
X116108729Y-66586552D01*
X116210186Y-66669814D01*
X116293448Y-66771271D01*
X116322778Y-66807009D01*
X116322779Y-66807011D01*
X116406443Y-66963533D01*
X116406443Y-66963534D01*
X116457963Y-67133373D01*
X116475359Y-67310000D01*
X116457963Y-67486627D01*
X116423616Y-67599853D01*
X116406443Y-67656467D01*
X116332348Y-67795087D01*
X116322778Y-67812991D01*
X116293448Y-67848729D01*
X116210186Y-67950186D01*
X116108729Y-68033448D01*
X116072991Y-68062778D01*
X116072989Y-68062779D01*
X115916467Y-68146443D01*
X115859853Y-68163616D01*
X115746627Y-68197963D01*
X115680443Y-68204481D01*
X115614260Y-68211000D01*
X115525740Y-68211000D01*
X115459557Y-68204481D01*
X115393373Y-68197963D01*
X115280147Y-68163616D01*
X115223533Y-68146443D01*
X115067011Y-68062779D01*
X115067009Y-68062778D01*
X115031271Y-68033448D01*
X114929814Y-67950186D01*
X114846552Y-67848729D01*
X114817222Y-67812991D01*
X114807652Y-67795087D01*
X114733557Y-67656467D01*
X114716384Y-67599853D01*
X114682037Y-67486627D01*
X114664641Y-67310000D01*
X114682037Y-67133373D01*
X114733557Y-66963534D01*
X114733557Y-66963533D01*
X114817221Y-66807011D01*
X114817222Y-66807009D01*
X114846552Y-66771271D01*
X114929814Y-66669814D01*
X115031271Y-66586552D01*
X115067009Y-66557222D01*
X115084913Y-66547652D01*
X115223533Y-66473557D01*
X115280147Y-66456384D01*
X115393373Y-66422037D01*
X115459557Y-66415519D01*
X115525740Y-66409000D01*
X115614260Y-66409000D01*
X115680443Y-66415519D01*
X115680443Y-66415519D01*
G37*
M02*
