G04 #@! TF.GenerationSoftware,KiCad,Pcbnew,(5.0.2)-1*
G04 #@! TF.CreationDate,2019-03-03T23:17:22+08:00*
G04 #@! TF.ProjectId,pcbtest-nrf24_breakout,70636274-6573-4742-9d6e-726632345f62,rev?*
G04 #@! TF.SameCoordinates,Original*
G04 #@! TF.FileFunction,Copper,L2,Bot*
G04 #@! TF.FilePolarity,Positive*
%FSLAX46Y46*%
G04 Gerber Fmt 4.6, Leading zero omitted, Abs format (unit mm)*
G04 Created by KiCad (PCBNEW (5.0.2)-1) date 03-Mar-19 11:17:22 PM*
%MOMM*%
%LPD*%
G01*
G04 APERTURE LIST*
G04 #@! TA.AperFunction,ComponentPad*
%ADD10O,1.700000X1.700000*%
G04 #@! TD*
G04 #@! TA.AperFunction,ComponentPad*
%ADD11R,1.700000X1.700000*%
G04 #@! TD*
G04 #@! TA.AperFunction,ComponentPad*
%ADD12C,1.524000*%
G04 #@! TD*
G04 #@! TA.AperFunction,ComponentPad*
%ADD13R,1.980000X3.960000*%
G04 #@! TD*
G04 #@! TA.AperFunction,ComponentPad*
%ADD14O,1.980000X3.960000*%
G04 #@! TD*
G04 APERTURE END LIST*
D10*
G04 #@! TO.P,J2,6*
G04 #@! TO.N,Net-(J1-Pad6)*
X131318000Y-123317000D03*
G04 #@! TO.P,J2,5*
G04 #@! TO.N,Net-(J1-Pad5)*
X128778000Y-123317000D03*
G04 #@! TO.P,J2,4*
G04 #@! TO.N,Net-(J2-Pad4)*
X126238000Y-123317000D03*
G04 #@! TO.P,J2,3*
G04 #@! TO.N,Net-(J1-Pad3)*
X123698000Y-123317000D03*
G04 #@! TO.P,J2,2*
G04 #@! TO.N,Net-(C1-Pad1)*
X121158000Y-123317000D03*
D11*
G04 #@! TO.P,J2,1*
G04 #@! TO.N,Net-(J1-Pad1)*
X118618000Y-123317000D03*
G04 #@! TD*
D12*
G04 #@! TO.P,U1,1*
G04 #@! TO.N,Net-(U1-Pad1)*
X132080000Y-79248000D03*
G04 #@! TO.P,U1,2*
G04 #@! TO.N,Net-(U1-Pad2)*
X132080000Y-81788000D03*
G04 #@! TO.P,U1,3*
G04 #@! TO.N,Net-(U1-Pad3)*
X132080000Y-84328000D03*
G04 #@! TO.P,U1,4*
G04 #@! TO.N,Net-(U1-Pad4)*
X132080000Y-86868000D03*
G04 #@! TO.P,U1,5*
G04 #@! TO.N,Net-(U1-Pad5)*
X132080000Y-89408000D03*
G04 #@! TO.P,U1,6*
G04 #@! TO.N,Net-(U1-Pad6)*
X132080000Y-91948000D03*
G04 #@! TO.P,U1,7*
G04 #@! TO.N,Net-(U1-Pad7)*
X132080000Y-94488000D03*
G04 #@! TO.P,U1,8*
G04 #@! TO.N,Net-(U1-Pad8)*
X132080000Y-97028000D03*
G04 #@! TO.P,U1,9*
G04 #@! TO.N,Net-(U1-Pad9)*
X132080000Y-99568000D03*
G04 #@! TO.P,U1,10*
G04 #@! TO.N,Net-(U1-Pad10)*
X132080000Y-102108000D03*
G04 #@! TO.P,U1,11*
G04 #@! TO.N,Net-(J2-Pad4)*
X132080000Y-104648000D03*
G04 #@! TO.P,U1,12*
G04 #@! TO.N,Net-(J1-Pad4)*
X132080000Y-107188000D03*
G04 #@! TO.P,U1,13*
G04 #@! TO.N,Net-(U1-Pad13)*
X132080000Y-109728000D03*
G04 #@! TO.P,U1,14*
G04 #@! TO.N,Net-(U1-Pad14)*
X132080000Y-112268000D03*
G04 #@! TO.P,U1,15*
G04 #@! TO.N,Net-(C1-Pad2)*
X106680000Y-112268000D03*
G04 #@! TO.P,U1,16*
G04 #@! TO.N,Net-(C1-Pad1)*
X106680000Y-109728000D03*
G04 #@! TO.P,U1,17*
G04 #@! TO.N,Net-(U1-Pad17)*
X106680000Y-107188000D03*
G04 #@! TO.P,U1,18*
G04 #@! TO.N,Net-(U1-Pad18)*
X106680000Y-104648000D03*
G04 #@! TO.P,U1,19*
G04 #@! TO.N,Net-(U1-Pad19)*
X106680000Y-102108000D03*
G04 #@! TO.P,U1,20*
G04 #@! TO.N,Net-(U1-Pad20)*
X106680000Y-99568000D03*
G04 #@! TO.P,U1,21*
G04 #@! TO.N,Net-(U1-Pad21)*
X106680000Y-97028000D03*
G04 #@! TO.P,U1,22*
G04 #@! TO.N,Net-(U1-Pad22)*
X106680000Y-94488000D03*
G04 #@! TO.P,U1,23*
G04 #@! TO.N,Net-(U1-Pad23)*
X106680000Y-91948000D03*
G04 #@! TO.P,U1,24*
G04 #@! TO.N,Net-(U1-Pad24)*
X106680000Y-89408000D03*
G04 #@! TO.P,U1,25*
G04 #@! TO.N,Net-(U1-Pad25)*
X106680000Y-86868000D03*
G04 #@! TO.P,U1,26*
G04 #@! TO.N,Net-(U1-Pad26)*
X106680000Y-84328000D03*
G04 #@! TO.P,U1,27*
G04 #@! TO.N,Net-(U1-Pad27)*
X106680000Y-81788000D03*
G04 #@! TO.P,U1,28*
G04 #@! TO.N,Net-(U1-Pad28)*
X106680000Y-79248000D03*
G04 #@! TO.P,U1,29*
G04 #@! TO.N,Net-(U1-Pad29)*
X106680000Y-76708000D03*
G04 #@! TO.P,U1,0*
G04 #@! TO.N,Net-(U1-Pad0)*
X132080000Y-76708000D03*
G04 #@! TD*
D11*
G04 #@! TO.P,J1,1*
G04 #@! TO.N,Net-(J1-Pad1)*
X113030000Y-67310000D03*
D10*
G04 #@! TO.P,J1,2*
G04 #@! TO.N,Net-(C1-Pad1)*
X115570000Y-67310000D03*
G04 #@! TO.P,J1,3*
G04 #@! TO.N,Net-(J1-Pad3)*
X118110000Y-67310000D03*
G04 #@! TO.P,J1,4*
G04 #@! TO.N,Net-(J1-Pad4)*
X120650000Y-67310000D03*
G04 #@! TO.P,J1,5*
G04 #@! TO.N,Net-(J1-Pad5)*
X123190000Y-67310000D03*
G04 #@! TO.P,J1,6*
G04 #@! TO.N,Net-(J1-Pad6)*
X125730000Y-67310000D03*
G04 #@! TD*
D13*
G04 #@! TO.P,J3,1*
G04 #@! TO.N,Net-(C1-Pad1)*
X107569000Y-119507000D03*
D14*
G04 #@! TO.P,J3,2*
G04 #@! TO.N,Net-(C2-Pad1)*
X112569000Y-119507000D03*
G04 #@! TD*
M02*
