G04 #@! TF.GenerationSoftware,KiCad,Pcbnew,(5.0.2)-1*
G04 #@! TF.CreationDate,2019-03-03T23:17:22+08:00*
G04 #@! TF.ProjectId,pcbtest-nrf24_breakout,70636274-6573-4742-9d6e-726632345f62,rev?*
G04 #@! TF.SameCoordinates,Original*
G04 #@! TF.FileFunction,Copper,L1,Top*
G04 #@! TF.FilePolarity,Positive*
%FSLAX46Y46*%
G04 Gerber Fmt 4.6, Leading zero omitted, Abs format (unit mm)*
G04 Created by KiCad (PCBNEW (5.0.2)-1) date 03-Mar-19 11:17:22 PM*
%MOMM*%
%LPD*%
G01*
G04 APERTURE LIST*
G04 #@! TA.AperFunction,ComponentPad*
%ADD10O,1.700000X1.700000*%
G04 #@! TD*
G04 #@! TA.AperFunction,ComponentPad*
%ADD11R,1.700000X1.700000*%
G04 #@! TD*
G04 #@! TA.AperFunction,ComponentPad*
%ADD12C,1.524000*%
G04 #@! TD*
G04 #@! TA.AperFunction,Conductor*
%ADD13C,0.100000*%
G04 #@! TD*
G04 #@! TA.AperFunction,SMDPad,CuDef*
%ADD14C,0.950000*%
G04 #@! TD*
G04 #@! TA.AperFunction,SMDPad,CuDef*
%ADD15R,3.800000X2.000000*%
G04 #@! TD*
G04 #@! TA.AperFunction,SMDPad,CuDef*
%ADD16R,1.500000X2.000000*%
G04 #@! TD*
G04 #@! TA.AperFunction,ComponentPad*
%ADD17R,1.980000X3.960000*%
G04 #@! TD*
G04 #@! TA.AperFunction,ComponentPad*
%ADD18O,1.980000X3.960000*%
G04 #@! TD*
G04 #@! TA.AperFunction,Conductor*
%ADD19C,0.250000*%
G04 #@! TD*
G04 #@! TA.AperFunction,Conductor*
%ADD20C,0.254000*%
G04 #@! TD*
G04 #@! TA.AperFunction,Conductor*
%ADD21C,0.152400*%
G04 #@! TD*
G04 #@! TA.AperFunction,Conductor*
%ADD22C,0.508000*%
G04 #@! TD*
G04 APERTURE END LIST*
D10*
G04 #@! TO.P,J2,6*
G04 #@! TO.N,Net-(J1-Pad6)*
X131318000Y-123317000D03*
G04 #@! TO.P,J2,5*
G04 #@! TO.N,Net-(J1-Pad5)*
X128778000Y-123317000D03*
G04 #@! TO.P,J2,4*
G04 #@! TO.N,Net-(J2-Pad4)*
X126238000Y-123317000D03*
G04 #@! TO.P,J2,3*
G04 #@! TO.N,Net-(J1-Pad3)*
X123698000Y-123317000D03*
G04 #@! TO.P,J2,2*
G04 #@! TO.N,Net-(C1-Pad1)*
X121158000Y-123317000D03*
D11*
G04 #@! TO.P,J2,1*
G04 #@! TO.N,Net-(J1-Pad1)*
X118618000Y-123317000D03*
G04 #@! TD*
D12*
G04 #@! TO.P,U1,1*
G04 #@! TO.N,Net-(U1-Pad1)*
X132080000Y-79248000D03*
G04 #@! TO.P,U1,2*
G04 #@! TO.N,Net-(U1-Pad2)*
X132080000Y-81788000D03*
G04 #@! TO.P,U1,3*
G04 #@! TO.N,Net-(U1-Pad3)*
X132080000Y-84328000D03*
G04 #@! TO.P,U1,4*
G04 #@! TO.N,Net-(U1-Pad4)*
X132080000Y-86868000D03*
G04 #@! TO.P,U1,5*
G04 #@! TO.N,Net-(U1-Pad5)*
X132080000Y-89408000D03*
G04 #@! TO.P,U1,6*
G04 #@! TO.N,Net-(U1-Pad6)*
X132080000Y-91948000D03*
G04 #@! TO.P,U1,7*
G04 #@! TO.N,Net-(U1-Pad7)*
X132080000Y-94488000D03*
G04 #@! TO.P,U1,8*
G04 #@! TO.N,Net-(U1-Pad8)*
X132080000Y-97028000D03*
G04 #@! TO.P,U1,9*
G04 #@! TO.N,Net-(U1-Pad9)*
X132080000Y-99568000D03*
G04 #@! TO.P,U1,10*
G04 #@! TO.N,Net-(U1-Pad10)*
X132080000Y-102108000D03*
G04 #@! TO.P,U1,11*
G04 #@! TO.N,Net-(J2-Pad4)*
X132080000Y-104648000D03*
G04 #@! TO.P,U1,12*
G04 #@! TO.N,Net-(J1-Pad4)*
X132080000Y-107188000D03*
G04 #@! TO.P,U1,13*
G04 #@! TO.N,Net-(U1-Pad13)*
X132080000Y-109728000D03*
G04 #@! TO.P,U1,14*
G04 #@! TO.N,Net-(U1-Pad14)*
X132080000Y-112268000D03*
G04 #@! TO.P,U1,15*
G04 #@! TO.N,Net-(C1-Pad2)*
X106680000Y-112268000D03*
G04 #@! TO.P,U1,16*
G04 #@! TO.N,Net-(C1-Pad1)*
X106680000Y-109728000D03*
G04 #@! TO.P,U1,17*
G04 #@! TO.N,Net-(U1-Pad17)*
X106680000Y-107188000D03*
G04 #@! TO.P,U1,18*
G04 #@! TO.N,Net-(U1-Pad18)*
X106680000Y-104648000D03*
G04 #@! TO.P,U1,19*
G04 #@! TO.N,Net-(U1-Pad19)*
X106680000Y-102108000D03*
G04 #@! TO.P,U1,20*
G04 #@! TO.N,Net-(U1-Pad20)*
X106680000Y-99568000D03*
G04 #@! TO.P,U1,21*
G04 #@! TO.N,Net-(U1-Pad21)*
X106680000Y-97028000D03*
G04 #@! TO.P,U1,22*
G04 #@! TO.N,Net-(U1-Pad22)*
X106680000Y-94488000D03*
G04 #@! TO.P,U1,23*
G04 #@! TO.N,Net-(U1-Pad23)*
X106680000Y-91948000D03*
G04 #@! TO.P,U1,24*
G04 #@! TO.N,Net-(U1-Pad24)*
X106680000Y-89408000D03*
G04 #@! TO.P,U1,25*
G04 #@! TO.N,Net-(U1-Pad25)*
X106680000Y-86868000D03*
G04 #@! TO.P,U1,26*
G04 #@! TO.N,Net-(U1-Pad26)*
X106680000Y-84328000D03*
G04 #@! TO.P,U1,27*
G04 #@! TO.N,Net-(U1-Pad27)*
X106680000Y-81788000D03*
G04 #@! TO.P,U1,28*
G04 #@! TO.N,Net-(U1-Pad28)*
X106680000Y-79248000D03*
G04 #@! TO.P,U1,29*
G04 #@! TO.N,Net-(U1-Pad29)*
X106680000Y-76708000D03*
G04 #@! TO.P,U1,0*
G04 #@! TO.N,Net-(U1-Pad0)*
X132080000Y-76708000D03*
G04 #@! TD*
D13*
G04 #@! TO.N,Net-(C1-Pad1)*
G04 #@! TO.C,C1*
G36*
X113354779Y-79663144D02*
X113377834Y-79666563D01*
X113400443Y-79672227D01*
X113422387Y-79680079D01*
X113443457Y-79690044D01*
X113463448Y-79702026D01*
X113482168Y-79715910D01*
X113499438Y-79731562D01*
X113515090Y-79748832D01*
X113528974Y-79767552D01*
X113540956Y-79787543D01*
X113550921Y-79808613D01*
X113558773Y-79830557D01*
X113564437Y-79853166D01*
X113567856Y-79876221D01*
X113569000Y-79899500D01*
X113569000Y-80374500D01*
X113567856Y-80397779D01*
X113564437Y-80420834D01*
X113558773Y-80443443D01*
X113550921Y-80465387D01*
X113540956Y-80486457D01*
X113528974Y-80506448D01*
X113515090Y-80525168D01*
X113499438Y-80542438D01*
X113482168Y-80558090D01*
X113463448Y-80571974D01*
X113443457Y-80583956D01*
X113422387Y-80593921D01*
X113400443Y-80601773D01*
X113377834Y-80607437D01*
X113354779Y-80610856D01*
X113331500Y-80612000D01*
X112756500Y-80612000D01*
X112733221Y-80610856D01*
X112710166Y-80607437D01*
X112687557Y-80601773D01*
X112665613Y-80593921D01*
X112644543Y-80583956D01*
X112624552Y-80571974D01*
X112605832Y-80558090D01*
X112588562Y-80542438D01*
X112572910Y-80525168D01*
X112559026Y-80506448D01*
X112547044Y-80486457D01*
X112537079Y-80465387D01*
X112529227Y-80443443D01*
X112523563Y-80420834D01*
X112520144Y-80397779D01*
X112519000Y-80374500D01*
X112519000Y-79899500D01*
X112520144Y-79876221D01*
X112523563Y-79853166D01*
X112529227Y-79830557D01*
X112537079Y-79808613D01*
X112547044Y-79787543D01*
X112559026Y-79767552D01*
X112572910Y-79748832D01*
X112588562Y-79731562D01*
X112605832Y-79715910D01*
X112624552Y-79702026D01*
X112644543Y-79690044D01*
X112665613Y-79680079D01*
X112687557Y-79672227D01*
X112710166Y-79666563D01*
X112733221Y-79663144D01*
X112756500Y-79662000D01*
X113331500Y-79662000D01*
X113354779Y-79663144D01*
X113354779Y-79663144D01*
G37*
D14*
G04 #@! TD*
G04 #@! TO.P,C1,1*
G04 #@! TO.N,Net-(C1-Pad1)*
X113044000Y-80137000D03*
D13*
G04 #@! TO.N,Net-(C1-Pad2)*
G04 #@! TO.C,C1*
G36*
X115104779Y-79663144D02*
X115127834Y-79666563D01*
X115150443Y-79672227D01*
X115172387Y-79680079D01*
X115193457Y-79690044D01*
X115213448Y-79702026D01*
X115232168Y-79715910D01*
X115249438Y-79731562D01*
X115265090Y-79748832D01*
X115278974Y-79767552D01*
X115290956Y-79787543D01*
X115300921Y-79808613D01*
X115308773Y-79830557D01*
X115314437Y-79853166D01*
X115317856Y-79876221D01*
X115319000Y-79899500D01*
X115319000Y-80374500D01*
X115317856Y-80397779D01*
X115314437Y-80420834D01*
X115308773Y-80443443D01*
X115300921Y-80465387D01*
X115290956Y-80486457D01*
X115278974Y-80506448D01*
X115265090Y-80525168D01*
X115249438Y-80542438D01*
X115232168Y-80558090D01*
X115213448Y-80571974D01*
X115193457Y-80583956D01*
X115172387Y-80593921D01*
X115150443Y-80601773D01*
X115127834Y-80607437D01*
X115104779Y-80610856D01*
X115081500Y-80612000D01*
X114506500Y-80612000D01*
X114483221Y-80610856D01*
X114460166Y-80607437D01*
X114437557Y-80601773D01*
X114415613Y-80593921D01*
X114394543Y-80583956D01*
X114374552Y-80571974D01*
X114355832Y-80558090D01*
X114338562Y-80542438D01*
X114322910Y-80525168D01*
X114309026Y-80506448D01*
X114297044Y-80486457D01*
X114287079Y-80465387D01*
X114279227Y-80443443D01*
X114273563Y-80420834D01*
X114270144Y-80397779D01*
X114269000Y-80374500D01*
X114269000Y-79899500D01*
X114270144Y-79876221D01*
X114273563Y-79853166D01*
X114279227Y-79830557D01*
X114287079Y-79808613D01*
X114297044Y-79787543D01*
X114309026Y-79767552D01*
X114322910Y-79748832D01*
X114338562Y-79731562D01*
X114355832Y-79715910D01*
X114374552Y-79702026D01*
X114394543Y-79690044D01*
X114415613Y-79680079D01*
X114437557Y-79672227D01*
X114460166Y-79666563D01*
X114483221Y-79663144D01*
X114506500Y-79662000D01*
X115081500Y-79662000D01*
X115104779Y-79663144D01*
X115104779Y-79663144D01*
G37*
D14*
G04 #@! TD*
G04 #@! TO.P,C1,2*
G04 #@! TO.N,Net-(C1-Pad2)*
X114794000Y-80137000D03*
D13*
G04 #@! TO.N,Net-(C1-Pad1)*
G04 #@! TO.C,C2*
G36*
X113036779Y-83945144D02*
X113059834Y-83948563D01*
X113082443Y-83954227D01*
X113104387Y-83962079D01*
X113125457Y-83972044D01*
X113145448Y-83984026D01*
X113164168Y-83997910D01*
X113181438Y-84013562D01*
X113197090Y-84030832D01*
X113210974Y-84049552D01*
X113222956Y-84069543D01*
X113232921Y-84090613D01*
X113240773Y-84112557D01*
X113246437Y-84135166D01*
X113249856Y-84158221D01*
X113251000Y-84181500D01*
X113251000Y-84756500D01*
X113249856Y-84779779D01*
X113246437Y-84802834D01*
X113240773Y-84825443D01*
X113232921Y-84847387D01*
X113222956Y-84868457D01*
X113210974Y-84888448D01*
X113197090Y-84907168D01*
X113181438Y-84924438D01*
X113164168Y-84940090D01*
X113145448Y-84953974D01*
X113125457Y-84965956D01*
X113104387Y-84975921D01*
X113082443Y-84983773D01*
X113059834Y-84989437D01*
X113036779Y-84992856D01*
X113013500Y-84994000D01*
X112538500Y-84994000D01*
X112515221Y-84992856D01*
X112492166Y-84989437D01*
X112469557Y-84983773D01*
X112447613Y-84975921D01*
X112426543Y-84965956D01*
X112406552Y-84953974D01*
X112387832Y-84940090D01*
X112370562Y-84924438D01*
X112354910Y-84907168D01*
X112341026Y-84888448D01*
X112329044Y-84868457D01*
X112319079Y-84847387D01*
X112311227Y-84825443D01*
X112305563Y-84802834D01*
X112302144Y-84779779D01*
X112301000Y-84756500D01*
X112301000Y-84181500D01*
X112302144Y-84158221D01*
X112305563Y-84135166D01*
X112311227Y-84112557D01*
X112319079Y-84090613D01*
X112329044Y-84069543D01*
X112341026Y-84049552D01*
X112354910Y-84030832D01*
X112370562Y-84013562D01*
X112387832Y-83997910D01*
X112406552Y-83984026D01*
X112426543Y-83972044D01*
X112447613Y-83962079D01*
X112469557Y-83954227D01*
X112492166Y-83948563D01*
X112515221Y-83945144D01*
X112538500Y-83944000D01*
X113013500Y-83944000D01*
X113036779Y-83945144D01*
X113036779Y-83945144D01*
G37*
D14*
G04 #@! TD*
G04 #@! TO.P,C2,2*
G04 #@! TO.N,Net-(C1-Pad1)*
X112776000Y-84469000D03*
D13*
G04 #@! TO.N,Net-(C2-Pad1)*
G04 #@! TO.C,C2*
G36*
X113036779Y-85695144D02*
X113059834Y-85698563D01*
X113082443Y-85704227D01*
X113104387Y-85712079D01*
X113125457Y-85722044D01*
X113145448Y-85734026D01*
X113164168Y-85747910D01*
X113181438Y-85763562D01*
X113197090Y-85780832D01*
X113210974Y-85799552D01*
X113222956Y-85819543D01*
X113232921Y-85840613D01*
X113240773Y-85862557D01*
X113246437Y-85885166D01*
X113249856Y-85908221D01*
X113251000Y-85931500D01*
X113251000Y-86506500D01*
X113249856Y-86529779D01*
X113246437Y-86552834D01*
X113240773Y-86575443D01*
X113232921Y-86597387D01*
X113222956Y-86618457D01*
X113210974Y-86638448D01*
X113197090Y-86657168D01*
X113181438Y-86674438D01*
X113164168Y-86690090D01*
X113145448Y-86703974D01*
X113125457Y-86715956D01*
X113104387Y-86725921D01*
X113082443Y-86733773D01*
X113059834Y-86739437D01*
X113036779Y-86742856D01*
X113013500Y-86744000D01*
X112538500Y-86744000D01*
X112515221Y-86742856D01*
X112492166Y-86739437D01*
X112469557Y-86733773D01*
X112447613Y-86725921D01*
X112426543Y-86715956D01*
X112406552Y-86703974D01*
X112387832Y-86690090D01*
X112370562Y-86674438D01*
X112354910Y-86657168D01*
X112341026Y-86638448D01*
X112329044Y-86618457D01*
X112319079Y-86597387D01*
X112311227Y-86575443D01*
X112305563Y-86552834D01*
X112302144Y-86529779D01*
X112301000Y-86506500D01*
X112301000Y-85931500D01*
X112302144Y-85908221D01*
X112305563Y-85885166D01*
X112311227Y-85862557D01*
X112319079Y-85840613D01*
X112329044Y-85819543D01*
X112341026Y-85799552D01*
X112354910Y-85780832D01*
X112370562Y-85763562D01*
X112387832Y-85747910D01*
X112406552Y-85734026D01*
X112426543Y-85722044D01*
X112447613Y-85712079D01*
X112469557Y-85704227D01*
X112492166Y-85698563D01*
X112515221Y-85695144D01*
X112538500Y-85694000D01*
X113013500Y-85694000D01*
X113036779Y-85695144D01*
X113036779Y-85695144D01*
G37*
D14*
G04 #@! TD*
G04 #@! TO.P,C2,1*
G04 #@! TO.N,Net-(C2-Pad1)*
X112776000Y-86219000D03*
D11*
G04 #@! TO.P,J1,1*
G04 #@! TO.N,Net-(J1-Pad1)*
X113030000Y-67310000D03*
D10*
G04 #@! TO.P,J1,2*
G04 #@! TO.N,Net-(C1-Pad1)*
X115570000Y-67310000D03*
G04 #@! TO.P,J1,3*
G04 #@! TO.N,Net-(J1-Pad3)*
X118110000Y-67310000D03*
G04 #@! TO.P,J1,4*
G04 #@! TO.N,Net-(J1-Pad4)*
X120650000Y-67310000D03*
G04 #@! TO.P,J1,5*
G04 #@! TO.N,Net-(J1-Pad5)*
X123190000Y-67310000D03*
G04 #@! TO.P,J1,6*
G04 #@! TO.N,Net-(J1-Pad6)*
X125730000Y-67310000D03*
G04 #@! TD*
D15*
G04 #@! TO.P,U2,2*
G04 #@! TO.N,Net-(C1-Pad2)*
X121158000Y-90526000D03*
D16*
X121158000Y-84226000D03*
G04 #@! TO.P,U2,3*
G04 #@! TO.N,Net-(C2-Pad1)*
X118858000Y-84226000D03*
G04 #@! TO.P,U2,1*
G04 #@! TO.N,Net-(C1-Pad1)*
X123458000Y-84226000D03*
G04 #@! TD*
D17*
G04 #@! TO.P,J3,1*
G04 #@! TO.N,Net-(C1-Pad1)*
X107569000Y-119507000D03*
D18*
G04 #@! TO.P,J3,2*
G04 #@! TO.N,Net-(C2-Pad1)*
X112569000Y-119507000D03*
G04 #@! TD*
D19*
G04 #@! TO.N,Net-(J1-Pad3)*
X118110000Y-67310000D02*
X118110000Y-73279000D01*
X118110000Y-73279000D02*
X121920000Y-77089000D01*
X121920000Y-77089000D02*
X127762000Y-77089000D01*
X127762000Y-77089000D02*
X128397000Y-77724000D01*
X128397000Y-77724000D02*
X128397000Y-105537000D01*
G04 #@! TO.N,Net-(J1-Pad4)*
X120650000Y-72390000D02*
X120650000Y-67310000D01*
X122428000Y-74168000D02*
X120650000Y-72390000D01*
X132842000Y-74168000D02*
X122428000Y-74168000D01*
X133731000Y-75057000D02*
X132842000Y-74168000D01*
X132080000Y-107188000D02*
X133731000Y-105537000D01*
X133731000Y-105537000D02*
X133731000Y-75057000D01*
G04 #@! TO.N,Net-(J1-Pad5)*
X123190000Y-67310000D02*
X123190000Y-66107919D01*
X119474999Y-66745999D02*
X119474999Y-72992999D01*
X123190000Y-66107919D02*
X120113079Y-66107919D01*
X120113079Y-66107919D02*
X119474999Y-66745999D01*
X119474999Y-72992999D02*
X121539000Y-75057000D01*
X121539000Y-75057000D02*
X129794000Y-75057000D01*
X132530591Y-106100999D02*
X131558239Y-106100999D01*
X133280990Y-105350600D02*
X132530591Y-106100999D01*
X132643999Y-103560999D02*
X133280990Y-104197990D01*
X133280990Y-104197990D02*
X133280990Y-105350600D01*
X131826000Y-103560999D02*
X132643999Y-103560999D01*
X129794000Y-101528999D02*
X131826000Y-103560999D01*
X129794000Y-75057000D02*
X129794000Y-101528999D01*
D20*
X131558239Y-106100999D02*
X131389001Y-106100999D01*
X128778000Y-108712000D02*
X128778000Y-122809000D01*
X131389001Y-106100999D02*
X128778000Y-108712000D01*
D19*
G04 #@! TO.N,Net-(J1-Pad6)*
X128651000Y-70231000D02*
X125730000Y-67310000D01*
X133223000Y-70231000D02*
X128651000Y-70231000D01*
X134181010Y-71189010D02*
X133223000Y-70231000D01*
X134181010Y-121088157D02*
X134181010Y-71189010D01*
D21*
X134181010Y-121148071D02*
X134181010Y-121088157D01*
D20*
X134181010Y-121148071D02*
X134181010Y-122231990D01*
X133604000Y-122809000D02*
X131318000Y-122809000D01*
X134181010Y-122231990D02*
X133604000Y-122809000D01*
D19*
G04 #@! TO.N,Net-(J2-Pad4)*
X131318001Y-105409999D02*
X132080000Y-104648000D01*
D20*
G04 #@! TO.N,Net-(C1-Pad1)*
X121158000Y-110490000D02*
X121158000Y-122809000D01*
X127508000Y-104140000D02*
X121158000Y-110490000D01*
X115570000Y-68512081D02*
X116967000Y-69909081D01*
X115570000Y-67310000D02*
X115570000Y-68512081D01*
X116967000Y-69909081D02*
X116967000Y-73914000D01*
X116967000Y-73914000D02*
X121412000Y-78359000D01*
X127508000Y-79121000D02*
X127508000Y-104140000D01*
X121412000Y-78359000D02*
X126746000Y-78359000D01*
X126746000Y-78359000D02*
X127508000Y-79121000D01*
D22*
X114720001Y-66460001D02*
X115570000Y-67310000D01*
X113559010Y-65299010D02*
X114720001Y-66460001D01*
X109960990Y-65299010D02*
X113559010Y-65299010D01*
X112776000Y-84469000D02*
X112201000Y-84469000D01*
X110236000Y-72517000D02*
X108458000Y-70739000D01*
X112201000Y-84469000D02*
X110236000Y-82504000D01*
X108458000Y-70739000D02*
X108458000Y-66802000D01*
X108458000Y-66802000D02*
X109960990Y-65299010D01*
X113044000Y-80137000D02*
X110236000Y-80137000D01*
X110236000Y-82504000D02*
X110236000Y-80137000D01*
X124716000Y-84226000D02*
X125730000Y-83212000D01*
X123458000Y-84226000D02*
X124716000Y-84226000D01*
X125730000Y-80899000D02*
X125041010Y-80210010D01*
X125730000Y-83212000D02*
X125730000Y-80899000D01*
X125041010Y-80210010D02*
X119179990Y-80210010D01*
X119179990Y-80210010D02*
X115062000Y-76092020D01*
X110343980Y-76092020D02*
X110236000Y-76200000D01*
X115062000Y-76092020D02*
X110343980Y-76092020D01*
X110236000Y-80137000D02*
X110236000Y-76200000D01*
X110236000Y-76200000D02*
X110236000Y-72517000D01*
X106071000Y-119507000D02*
X104902000Y-118338000D01*
X107569000Y-119507000D02*
X106071000Y-119507000D01*
X104902000Y-111506000D02*
X106680000Y-109728000D01*
X104902000Y-118338000D02*
X104902000Y-111506000D01*
X121158000Y-124841000D02*
X121158000Y-122809000D01*
X107569000Y-119507000D02*
X107569000Y-121995000D01*
X107569000Y-121995000D02*
X110542000Y-124968000D01*
X121031000Y-124968000D02*
X121158000Y-124841000D01*
X110542000Y-124968000D02*
X121031000Y-124968000D01*
G04 #@! TO.N,Net-(C1-Pad2)*
X121158000Y-84226000D02*
X121158000Y-85734000D01*
X121158000Y-81788000D02*
X121158000Y-84226000D01*
X114794000Y-80137000D02*
X116840000Y-80137000D01*
X116840000Y-80137000D02*
X118364000Y-81661000D01*
X121031000Y-81661000D02*
X121158000Y-81788000D01*
X118364000Y-81661000D02*
X121031000Y-81661000D01*
X121158000Y-92034000D02*
X121158000Y-90526000D01*
X111124990Y-102067010D02*
X121158000Y-92034000D01*
X113167128Y-121941010D02*
X111970872Y-121941010D01*
X114013010Y-121095128D02*
X113167128Y-121941010D01*
X114013010Y-113556267D02*
X114013010Y-121095128D01*
X125422010Y-102147267D02*
X114013010Y-113556267D01*
X125422010Y-87463733D02*
X125422010Y-102147267D01*
X111970872Y-121941010D02*
X111124990Y-121095128D01*
X123692277Y-85734000D02*
X125422010Y-87463733D01*
X121158000Y-85734000D02*
X123692277Y-85734000D01*
X110997990Y-112268000D02*
X111124990Y-112141000D01*
X106680000Y-112268000D02*
X110997990Y-112268000D01*
X111124990Y-121095128D02*
X111124990Y-112141000D01*
X111124990Y-112141000D02*
X111124990Y-102067010D01*
G04 #@! TO.N,Net-(C2-Pad1)*
X112569000Y-119507000D02*
X112569000Y-113999000D01*
X112569000Y-113999000D02*
X124714000Y-101854000D01*
X112776000Y-86219000D02*
X114173000Y-87616000D01*
X124573000Y-87616000D02*
X124714000Y-87757000D01*
X124714000Y-101854000D02*
X124714000Y-87757000D01*
X114427000Y-87399000D02*
X114427000Y-87616000D01*
X117600000Y-84226000D02*
X114427000Y-87399000D01*
X118858000Y-84226000D02*
X117600000Y-84226000D01*
X114173000Y-87616000D02*
X114427000Y-87616000D01*
X114427000Y-87616000D02*
X124573000Y-87616000D01*
D19*
G04 #@! TO.N,Net-(J1-Pad3)*
X128397000Y-105537000D02*
X124460000Y-109474000D01*
D20*
X123698000Y-110236000D02*
X124460000Y-109474000D01*
X123698000Y-122809000D02*
X123698000Y-110236000D01*
G04 #@! TO.N,Net-(J2-Pad4)*
X126238000Y-110490000D02*
X126238000Y-122809000D01*
X131318001Y-105409999D02*
X126238000Y-110490000D01*
G04 #@! TO.N,Net-(J1-Pad1)*
X118618000Y-111633000D02*
X118618000Y-122809000D01*
X126365000Y-103886000D02*
X118618000Y-111633000D01*
X113030000Y-68414000D02*
X115482000Y-70866000D01*
X113030000Y-67310000D02*
X113030000Y-68414000D01*
X115482000Y-70866000D02*
X115482000Y-75477000D01*
X115482000Y-75477000D02*
X119634000Y-79629000D01*
X119634000Y-79629000D02*
X125730000Y-79629000D01*
X126365000Y-80264000D02*
X126365000Y-103886000D01*
X125730000Y-79629000D02*
X126365000Y-80264000D01*
G04 #@! TD*
G04 #@! TO.N,Net-(C1-Pad1)*
G36*
X119628605Y-65517590D02*
X119628603Y-65517592D01*
X119565150Y-65559990D01*
X119522751Y-65623444D01*
X119016492Y-66129705D01*
X118689418Y-65911161D01*
X118256256Y-65825000D01*
X117963744Y-65825000D01*
X117530582Y-65911161D01*
X117039375Y-66239375D01*
X116826157Y-66558478D01*
X116765183Y-66428642D01*
X116336924Y-66038355D01*
X115926890Y-65868524D01*
X115697000Y-65989845D01*
X115697000Y-67183000D01*
X115717000Y-67183000D01*
X115717000Y-67437000D01*
X115697000Y-67437000D01*
X115697000Y-68630155D01*
X115926890Y-68751476D01*
X116336924Y-68581645D01*
X116765183Y-68191358D01*
X116826157Y-68061522D01*
X117039375Y-68380625D01*
X117350000Y-68588178D01*
X117350001Y-73204148D01*
X117335112Y-73279000D01*
X117350001Y-73353852D01*
X117394097Y-73575537D01*
X117562072Y-73826929D01*
X117625528Y-73869329D01*
X121329670Y-77573472D01*
X121372071Y-77636929D01*
X121435527Y-77679329D01*
X121623462Y-77804904D01*
X121671605Y-77814480D01*
X121845148Y-77849000D01*
X121845152Y-77849000D01*
X121920000Y-77863888D01*
X121994848Y-77849000D01*
X127447199Y-77849000D01*
X127637000Y-78038802D01*
X127637001Y-105222197D01*
X123982780Y-108876419D01*
X123974251Y-108882118D01*
X123212251Y-109644119D01*
X123148630Y-109686629D01*
X123106119Y-109750251D01*
X123106118Y-109750252D01*
X122980213Y-109938683D01*
X122921073Y-110236000D01*
X122936001Y-110311048D01*
X122936000Y-122040158D01*
X122627375Y-122246375D01*
X122414157Y-122565478D01*
X122353183Y-122435642D01*
X121924924Y-122045355D01*
X121514890Y-121875524D01*
X121285000Y-121996845D01*
X121285000Y-123190000D01*
X121305000Y-123190000D01*
X121305000Y-123444000D01*
X121285000Y-123444000D01*
X121285000Y-124637155D01*
X121514890Y-124758476D01*
X121924924Y-124588645D01*
X122353183Y-124198358D01*
X122414157Y-124068522D01*
X122627375Y-124387625D01*
X123118582Y-124715839D01*
X123551744Y-124802000D01*
X123844256Y-124802000D01*
X124277418Y-124715839D01*
X124768625Y-124387625D01*
X124968000Y-124089239D01*
X125167375Y-124387625D01*
X125658582Y-124715839D01*
X126091744Y-124802000D01*
X126384256Y-124802000D01*
X126817418Y-124715839D01*
X127308625Y-124387625D01*
X127508000Y-124089239D01*
X127707375Y-124387625D01*
X128198582Y-124715839D01*
X128631744Y-124802000D01*
X128924256Y-124802000D01*
X129357418Y-124715839D01*
X129848625Y-124387625D01*
X130048000Y-124089239D01*
X130247375Y-124387625D01*
X130738582Y-124715839D01*
X131171744Y-124802000D01*
X131464256Y-124802000D01*
X131897418Y-124715839D01*
X132388625Y-124387625D01*
X132716839Y-123896418D01*
X132781568Y-123571000D01*
X133528957Y-123571000D01*
X133604000Y-123585927D01*
X133679043Y-123571000D01*
X133679048Y-123571000D01*
X133901317Y-123526788D01*
X134031973Y-123439487D01*
X134035522Y-125147000D01*
X104850000Y-125147000D01*
X104850000Y-119792750D01*
X105944000Y-119792750D01*
X105944000Y-121613310D01*
X106040673Y-121846699D01*
X106219302Y-122025327D01*
X106452691Y-122122000D01*
X107283250Y-122122000D01*
X107442000Y-121963250D01*
X107442000Y-119634000D01*
X107696000Y-119634000D01*
X107696000Y-121963250D01*
X107854750Y-122122000D01*
X108685309Y-122122000D01*
X108918698Y-122025327D01*
X109097327Y-121846699D01*
X109194000Y-121613310D01*
X109194000Y-119792750D01*
X109035250Y-119634000D01*
X107696000Y-119634000D01*
X107442000Y-119634000D01*
X106102750Y-119634000D01*
X105944000Y-119792750D01*
X104850000Y-119792750D01*
X104850000Y-117400690D01*
X105944000Y-117400690D01*
X105944000Y-119221250D01*
X106102750Y-119380000D01*
X107442000Y-119380000D01*
X107442000Y-117050750D01*
X107696000Y-117050750D01*
X107696000Y-119380000D01*
X109035250Y-119380000D01*
X109194000Y-119221250D01*
X109194000Y-117400690D01*
X109097327Y-117167301D01*
X108918698Y-116988673D01*
X108685309Y-116892000D01*
X107854750Y-116892000D01*
X107696000Y-117050750D01*
X107442000Y-117050750D01*
X107283250Y-116892000D01*
X106452691Y-116892000D01*
X106219302Y-116988673D01*
X106040673Y-117167301D01*
X105944000Y-117400690D01*
X104850000Y-117400690D01*
X104850000Y-111990119D01*
X105283000Y-111990119D01*
X105283000Y-112545881D01*
X105495680Y-113059337D01*
X105888663Y-113452320D01*
X106402119Y-113665000D01*
X106957881Y-113665000D01*
X107471337Y-113452320D01*
X107766657Y-113157000D01*
X110235991Y-113157000D01*
X110235990Y-121007573D01*
X110218574Y-121095128D01*
X110235990Y-121182683D01*
X110287571Y-121441997D01*
X110484057Y-121736061D01*
X110558286Y-121785659D01*
X111280343Y-122507716D01*
X111329939Y-122581943D01*
X111624002Y-122778429D01*
X111883316Y-122830010D01*
X111883317Y-122830010D01*
X111970872Y-122847426D01*
X112058427Y-122830010D01*
X113079573Y-122830010D01*
X113167128Y-122847426D01*
X113254683Y-122830010D01*
X113254684Y-122830010D01*
X113513998Y-122778429D01*
X113808061Y-122581943D01*
X113857659Y-122507714D01*
X114579716Y-121785657D01*
X114653943Y-121736061D01*
X114850429Y-121441998D01*
X114902010Y-121182684D01*
X114902010Y-121182683D01*
X114919426Y-121095128D01*
X114902010Y-121007573D01*
X114902010Y-113924502D01*
X125603001Y-103223512D01*
X125603001Y-103570369D01*
X118132254Y-111041116D01*
X118068629Y-111083629D01*
X117900212Y-111335684D01*
X117856000Y-111557953D01*
X117856000Y-111557957D01*
X117841073Y-111633000D01*
X117856000Y-111708043D01*
X117856001Y-121819560D01*
X117768000Y-121819560D01*
X117520235Y-121868843D01*
X117310191Y-122009191D01*
X117169843Y-122219235D01*
X117120560Y-122467000D01*
X117120560Y-124167000D01*
X117169843Y-124414765D01*
X117310191Y-124624809D01*
X117520235Y-124765157D01*
X117768000Y-124814440D01*
X119468000Y-124814440D01*
X119715765Y-124765157D01*
X119925809Y-124624809D01*
X120066157Y-124414765D01*
X120086739Y-124311292D01*
X120391076Y-124588645D01*
X120801110Y-124758476D01*
X121031000Y-124637155D01*
X121031000Y-123444000D01*
X121011000Y-123444000D01*
X121011000Y-123190000D01*
X121031000Y-123190000D01*
X121031000Y-121996845D01*
X120801110Y-121875524D01*
X120391076Y-122045355D01*
X120086739Y-122322708D01*
X120066157Y-122219235D01*
X119925809Y-122009191D01*
X119715765Y-121868843D01*
X119468000Y-121819560D01*
X119380000Y-121819560D01*
X119380000Y-111948630D01*
X126850746Y-104477884D01*
X126914371Y-104435371D01*
X127046678Y-104237359D01*
X127082787Y-104183319D01*
X127082787Y-104183318D01*
X127082788Y-104183317D01*
X127127000Y-103961048D01*
X127127000Y-103961044D01*
X127141927Y-103886001D01*
X127127000Y-103810958D01*
X127127000Y-80339047D01*
X127141928Y-80264000D01*
X127112240Y-80114748D01*
X127082788Y-79966683D01*
X126914371Y-79714629D01*
X126850750Y-79672119D01*
X126321883Y-79143253D01*
X126279371Y-79079629D01*
X126027317Y-78911212D01*
X125805048Y-78867000D01*
X125805043Y-78867000D01*
X125730000Y-78852073D01*
X125654957Y-78867000D01*
X119949631Y-78867000D01*
X116244000Y-75161370D01*
X116244000Y-70941047D01*
X116258928Y-70866000D01*
X116226811Y-70704537D01*
X116199788Y-70568683D01*
X116031371Y-70316629D01*
X115967750Y-70274119D01*
X114322002Y-68628371D01*
X114337809Y-68617809D01*
X114478157Y-68407765D01*
X114498739Y-68304292D01*
X114803076Y-68581645D01*
X115213110Y-68751476D01*
X115443000Y-68630155D01*
X115443000Y-67437000D01*
X115423000Y-67437000D01*
X115423000Y-67183000D01*
X115443000Y-67183000D01*
X115443000Y-65989845D01*
X115213110Y-65868524D01*
X114803076Y-66038355D01*
X114498739Y-66315708D01*
X114478157Y-66212235D01*
X114337809Y-66002191D01*
X114127765Y-65861843D01*
X113880000Y-65812560D01*
X112180000Y-65812560D01*
X111932235Y-65861843D01*
X111722191Y-66002191D01*
X111581843Y-66212235D01*
X111532560Y-66460000D01*
X111532560Y-68160000D01*
X111581843Y-68407765D01*
X111722191Y-68617809D01*
X111932235Y-68758157D01*
X112180000Y-68807440D01*
X112376440Y-68807440D01*
X112480630Y-68963371D01*
X112544251Y-69005881D01*
X114720000Y-71181631D01*
X114720001Y-75401952D01*
X114705073Y-75477000D01*
X114764213Y-75774317D01*
X114859326Y-75916663D01*
X114932630Y-76026371D01*
X114996251Y-76068881D01*
X119042117Y-80114748D01*
X119084629Y-80178371D01*
X119336683Y-80346788D01*
X119558952Y-80391000D01*
X119558953Y-80391000D01*
X119634000Y-80405928D01*
X119709047Y-80391000D01*
X125414370Y-80391000D01*
X125603000Y-80579631D01*
X125603000Y-86387488D01*
X124762402Y-85546890D01*
X124843000Y-85352309D01*
X124843000Y-84511750D01*
X124684250Y-84353000D01*
X123585000Y-84353000D01*
X123585000Y-84373000D01*
X123331000Y-84373000D01*
X123331000Y-84353000D01*
X123311000Y-84353000D01*
X123311000Y-84099000D01*
X123331000Y-84099000D01*
X123331000Y-82749750D01*
X123585000Y-82749750D01*
X123585000Y-84099000D01*
X124684250Y-84099000D01*
X124843000Y-83940250D01*
X124843000Y-83099691D01*
X124746327Y-82866302D01*
X124567699Y-82687673D01*
X124334310Y-82591000D01*
X123743750Y-82591000D01*
X123585000Y-82749750D01*
X123331000Y-82749750D01*
X123172250Y-82591000D01*
X122581690Y-82591000D01*
X122348301Y-82687673D01*
X122307047Y-82728927D01*
X122155765Y-82627843D01*
X122047000Y-82606209D01*
X122047000Y-81875554D01*
X122064416Y-81787999D01*
X122039154Y-81660999D01*
X121995419Y-81441130D01*
X121798933Y-81147067D01*
X121724704Y-81097469D01*
X121721531Y-81094296D01*
X121671933Y-81020067D01*
X121377870Y-80823581D01*
X121118556Y-80772000D01*
X121118555Y-80772000D01*
X121031000Y-80754584D01*
X120943445Y-80772000D01*
X118732236Y-80772000D01*
X117530531Y-79570296D01*
X117480933Y-79496067D01*
X117186870Y-79299581D01*
X116927556Y-79248000D01*
X116927555Y-79248000D01*
X116840000Y-79230584D01*
X116752445Y-79248000D01*
X115668705Y-79248000D01*
X115420152Y-79081922D01*
X115081500Y-79014560D01*
X114506500Y-79014560D01*
X114167848Y-79081922D01*
X113999460Y-79194435D01*
X113928698Y-79123673D01*
X113695309Y-79027000D01*
X113329750Y-79027000D01*
X113171000Y-79185750D01*
X113171000Y-80010000D01*
X113191000Y-80010000D01*
X113191000Y-80264000D01*
X113171000Y-80264000D01*
X113171000Y-81088250D01*
X113329750Y-81247000D01*
X113695309Y-81247000D01*
X113928698Y-81150327D01*
X113999460Y-81079565D01*
X114167848Y-81192078D01*
X114506500Y-81259440D01*
X115081500Y-81259440D01*
X115420152Y-81192078D01*
X115668705Y-81026000D01*
X116471765Y-81026000D01*
X117673470Y-82227706D01*
X117723067Y-82301933D01*
X118017130Y-82498419D01*
X118276444Y-82550000D01*
X118276448Y-82550000D01*
X118363999Y-82567415D01*
X118451550Y-82550000D01*
X120269000Y-82550000D01*
X120269000Y-82606208D01*
X120160235Y-82627843D01*
X120008000Y-82729564D01*
X119855765Y-82627843D01*
X119608000Y-82578560D01*
X118108000Y-82578560D01*
X117860235Y-82627843D01*
X117650191Y-82768191D01*
X117509843Y-82978235D01*
X117460560Y-83226000D01*
X117460560Y-83347320D01*
X117253129Y-83388581D01*
X117054783Y-83521112D01*
X116959067Y-83585067D01*
X116909471Y-83659293D01*
X114191500Y-86377265D01*
X113898440Y-86084205D01*
X113898440Y-85931500D01*
X113831078Y-85592848D01*
X113718565Y-85424460D01*
X113789327Y-85353698D01*
X113886000Y-85120309D01*
X113886000Y-84754750D01*
X113727250Y-84596000D01*
X112903000Y-84596000D01*
X112903000Y-84616000D01*
X112649000Y-84616000D01*
X112649000Y-84596000D01*
X111824750Y-84596000D01*
X111666000Y-84754750D01*
X111666000Y-85120309D01*
X111762673Y-85353698D01*
X111833435Y-85424460D01*
X111720922Y-85592848D01*
X111653560Y-85931500D01*
X111653560Y-86506500D01*
X111720922Y-86845152D01*
X111912753Y-87132247D01*
X112199848Y-87324078D01*
X112538500Y-87391440D01*
X112691205Y-87391440D01*
X113482470Y-88182706D01*
X113532067Y-88256933D01*
X113826130Y-88453419D01*
X114085444Y-88505000D01*
X114085448Y-88505000D01*
X114172999Y-88522415D01*
X114260550Y-88505000D01*
X114339444Y-88505000D01*
X114427000Y-88522416D01*
X114514556Y-88505000D01*
X123825001Y-88505000D01*
X123825000Y-101485764D01*
X112013990Y-113296775D01*
X112013990Y-112228555D01*
X112031406Y-112141001D01*
X112013990Y-112053444D01*
X112013990Y-102435245D01*
X121724707Y-92724529D01*
X121798933Y-92674933D01*
X121995419Y-92380870D01*
X122036680Y-92173440D01*
X123058000Y-92173440D01*
X123305765Y-92124157D01*
X123515809Y-91983809D01*
X123656157Y-91773765D01*
X123705440Y-91526000D01*
X123705440Y-89526000D01*
X123656157Y-89278235D01*
X123515809Y-89068191D01*
X123305765Y-88927843D01*
X123058000Y-88878560D01*
X119258000Y-88878560D01*
X119010235Y-88927843D01*
X118800191Y-89068191D01*
X118659843Y-89278235D01*
X118610560Y-89526000D01*
X118610560Y-91526000D01*
X118659843Y-91773765D01*
X118800191Y-91983809D01*
X119010235Y-92124157D01*
X119258000Y-92173440D01*
X119761324Y-92173440D01*
X110558284Y-101376481D01*
X110484058Y-101426077D01*
X110434462Y-101500303D01*
X110434461Y-101500304D01*
X110287572Y-101720140D01*
X110218574Y-102067010D01*
X110235991Y-102154569D01*
X110235990Y-111379000D01*
X107766657Y-111379000D01*
X107471337Y-111083680D01*
X107280353Y-111004572D01*
X107411143Y-110950397D01*
X107480608Y-110708213D01*
X106680000Y-109907605D01*
X105879392Y-110708213D01*
X105948857Y-110950397D01*
X106089393Y-111000535D01*
X105888663Y-111083680D01*
X105495680Y-111476663D01*
X105283000Y-111990119D01*
X104850000Y-111990119D01*
X104850000Y-109520302D01*
X105270856Y-109520302D01*
X105298638Y-110075368D01*
X105457603Y-110459143D01*
X105699787Y-110528608D01*
X106500395Y-109728000D01*
X106859605Y-109728000D01*
X107660213Y-110528608D01*
X107902397Y-110459143D01*
X108089144Y-109935698D01*
X108061362Y-109380632D01*
X107902397Y-108996857D01*
X107660213Y-108927392D01*
X106859605Y-109728000D01*
X106500395Y-109728000D01*
X105699787Y-108927392D01*
X105457603Y-108996857D01*
X105270856Y-109520302D01*
X104850000Y-109520302D01*
X104850000Y-76430119D01*
X105283000Y-76430119D01*
X105283000Y-76985881D01*
X105495680Y-77499337D01*
X105888663Y-77892320D01*
X106095513Y-77978000D01*
X105888663Y-78063680D01*
X105495680Y-78456663D01*
X105283000Y-78970119D01*
X105283000Y-79525881D01*
X105495680Y-80039337D01*
X105888663Y-80432320D01*
X106095513Y-80518000D01*
X105888663Y-80603680D01*
X105495680Y-80996663D01*
X105283000Y-81510119D01*
X105283000Y-82065881D01*
X105495680Y-82579337D01*
X105888663Y-82972320D01*
X106095513Y-83058000D01*
X105888663Y-83143680D01*
X105495680Y-83536663D01*
X105283000Y-84050119D01*
X105283000Y-84605881D01*
X105495680Y-85119337D01*
X105888663Y-85512320D01*
X106095513Y-85598000D01*
X105888663Y-85683680D01*
X105495680Y-86076663D01*
X105283000Y-86590119D01*
X105283000Y-87145881D01*
X105495680Y-87659337D01*
X105888663Y-88052320D01*
X106095513Y-88138000D01*
X105888663Y-88223680D01*
X105495680Y-88616663D01*
X105283000Y-89130119D01*
X105283000Y-89685881D01*
X105495680Y-90199337D01*
X105888663Y-90592320D01*
X106095513Y-90678000D01*
X105888663Y-90763680D01*
X105495680Y-91156663D01*
X105283000Y-91670119D01*
X105283000Y-92225881D01*
X105495680Y-92739337D01*
X105888663Y-93132320D01*
X106095513Y-93218000D01*
X105888663Y-93303680D01*
X105495680Y-93696663D01*
X105283000Y-94210119D01*
X105283000Y-94765881D01*
X105495680Y-95279337D01*
X105888663Y-95672320D01*
X106095513Y-95758000D01*
X105888663Y-95843680D01*
X105495680Y-96236663D01*
X105283000Y-96750119D01*
X105283000Y-97305881D01*
X105495680Y-97819337D01*
X105888663Y-98212320D01*
X106095513Y-98298000D01*
X105888663Y-98383680D01*
X105495680Y-98776663D01*
X105283000Y-99290119D01*
X105283000Y-99845881D01*
X105495680Y-100359337D01*
X105888663Y-100752320D01*
X106095513Y-100838000D01*
X105888663Y-100923680D01*
X105495680Y-101316663D01*
X105283000Y-101830119D01*
X105283000Y-102385881D01*
X105495680Y-102899337D01*
X105888663Y-103292320D01*
X106095513Y-103378000D01*
X105888663Y-103463680D01*
X105495680Y-103856663D01*
X105283000Y-104370119D01*
X105283000Y-104925881D01*
X105495680Y-105439337D01*
X105888663Y-105832320D01*
X106095513Y-105918000D01*
X105888663Y-106003680D01*
X105495680Y-106396663D01*
X105283000Y-106910119D01*
X105283000Y-107465881D01*
X105495680Y-107979337D01*
X105888663Y-108372320D01*
X106079647Y-108451428D01*
X105948857Y-108505603D01*
X105879392Y-108747787D01*
X106680000Y-109548395D01*
X107480608Y-108747787D01*
X107411143Y-108505603D01*
X107270607Y-108455465D01*
X107471337Y-108372320D01*
X107864320Y-107979337D01*
X108077000Y-107465881D01*
X108077000Y-106910119D01*
X107864320Y-106396663D01*
X107471337Y-106003680D01*
X107264487Y-105918000D01*
X107471337Y-105832320D01*
X107864320Y-105439337D01*
X108077000Y-104925881D01*
X108077000Y-104370119D01*
X107864320Y-103856663D01*
X107471337Y-103463680D01*
X107264487Y-103378000D01*
X107471337Y-103292320D01*
X107864320Y-102899337D01*
X108077000Y-102385881D01*
X108077000Y-101830119D01*
X107864320Y-101316663D01*
X107471337Y-100923680D01*
X107264487Y-100838000D01*
X107471337Y-100752320D01*
X107864320Y-100359337D01*
X108077000Y-99845881D01*
X108077000Y-99290119D01*
X107864320Y-98776663D01*
X107471337Y-98383680D01*
X107264487Y-98298000D01*
X107471337Y-98212320D01*
X107864320Y-97819337D01*
X108077000Y-97305881D01*
X108077000Y-96750119D01*
X107864320Y-96236663D01*
X107471337Y-95843680D01*
X107264487Y-95758000D01*
X107471337Y-95672320D01*
X107864320Y-95279337D01*
X108077000Y-94765881D01*
X108077000Y-94210119D01*
X107864320Y-93696663D01*
X107471337Y-93303680D01*
X107264487Y-93218000D01*
X107471337Y-93132320D01*
X107864320Y-92739337D01*
X108077000Y-92225881D01*
X108077000Y-91670119D01*
X107864320Y-91156663D01*
X107471337Y-90763680D01*
X107264487Y-90678000D01*
X107471337Y-90592320D01*
X107864320Y-90199337D01*
X108077000Y-89685881D01*
X108077000Y-89130119D01*
X107864320Y-88616663D01*
X107471337Y-88223680D01*
X107264487Y-88138000D01*
X107471337Y-88052320D01*
X107864320Y-87659337D01*
X108077000Y-87145881D01*
X108077000Y-86590119D01*
X107864320Y-86076663D01*
X107471337Y-85683680D01*
X107264487Y-85598000D01*
X107471337Y-85512320D01*
X107864320Y-85119337D01*
X108077000Y-84605881D01*
X108077000Y-84050119D01*
X107980726Y-83817691D01*
X111666000Y-83817691D01*
X111666000Y-84183250D01*
X111824750Y-84342000D01*
X112649000Y-84342000D01*
X112649000Y-83467750D01*
X112903000Y-83467750D01*
X112903000Y-84342000D01*
X113727250Y-84342000D01*
X113886000Y-84183250D01*
X113886000Y-83817691D01*
X113789327Y-83584302D01*
X113610699Y-83405673D01*
X113377310Y-83309000D01*
X113061750Y-83309000D01*
X112903000Y-83467750D01*
X112649000Y-83467750D01*
X112490250Y-83309000D01*
X112174690Y-83309000D01*
X111941301Y-83405673D01*
X111762673Y-83584302D01*
X111666000Y-83817691D01*
X107980726Y-83817691D01*
X107864320Y-83536663D01*
X107471337Y-83143680D01*
X107264487Y-83058000D01*
X107471337Y-82972320D01*
X107864320Y-82579337D01*
X108077000Y-82065881D01*
X108077000Y-81510119D01*
X107864320Y-80996663D01*
X107471337Y-80603680D01*
X107264487Y-80518000D01*
X107471337Y-80432320D01*
X107480907Y-80422750D01*
X111884000Y-80422750D01*
X111884000Y-80738310D01*
X111980673Y-80971699D01*
X112159302Y-81150327D01*
X112392691Y-81247000D01*
X112758250Y-81247000D01*
X112917000Y-81088250D01*
X112917000Y-80264000D01*
X112042750Y-80264000D01*
X111884000Y-80422750D01*
X107480907Y-80422750D01*
X107864320Y-80039337D01*
X108072936Y-79535690D01*
X111884000Y-79535690D01*
X111884000Y-79851250D01*
X112042750Y-80010000D01*
X112917000Y-80010000D01*
X112917000Y-79185750D01*
X112758250Y-79027000D01*
X112392691Y-79027000D01*
X112159302Y-79123673D01*
X111980673Y-79302301D01*
X111884000Y-79535690D01*
X108072936Y-79535690D01*
X108077000Y-79525881D01*
X108077000Y-78970119D01*
X107864320Y-78456663D01*
X107471337Y-78063680D01*
X107264487Y-77978000D01*
X107471337Y-77892320D01*
X107864320Y-77499337D01*
X108077000Y-76985881D01*
X108077000Y-76430119D01*
X107864320Y-75916663D01*
X107471337Y-75523680D01*
X106957881Y-75311000D01*
X106402119Y-75311000D01*
X105888663Y-75523680D01*
X105495680Y-75916663D01*
X105283000Y-76430119D01*
X104850000Y-76430119D01*
X104850000Y-65480000D01*
X119684863Y-65480000D01*
X119628605Y-65517590D01*
X119628605Y-65517590D01*
G37*
X119628605Y-65517590D02*
X119628603Y-65517592D01*
X119565150Y-65559990D01*
X119522751Y-65623444D01*
X119016492Y-66129705D01*
X118689418Y-65911161D01*
X118256256Y-65825000D01*
X117963744Y-65825000D01*
X117530582Y-65911161D01*
X117039375Y-66239375D01*
X116826157Y-66558478D01*
X116765183Y-66428642D01*
X116336924Y-66038355D01*
X115926890Y-65868524D01*
X115697000Y-65989845D01*
X115697000Y-67183000D01*
X115717000Y-67183000D01*
X115717000Y-67437000D01*
X115697000Y-67437000D01*
X115697000Y-68630155D01*
X115926890Y-68751476D01*
X116336924Y-68581645D01*
X116765183Y-68191358D01*
X116826157Y-68061522D01*
X117039375Y-68380625D01*
X117350000Y-68588178D01*
X117350001Y-73204148D01*
X117335112Y-73279000D01*
X117350001Y-73353852D01*
X117394097Y-73575537D01*
X117562072Y-73826929D01*
X117625528Y-73869329D01*
X121329670Y-77573472D01*
X121372071Y-77636929D01*
X121435527Y-77679329D01*
X121623462Y-77804904D01*
X121671605Y-77814480D01*
X121845148Y-77849000D01*
X121845152Y-77849000D01*
X121920000Y-77863888D01*
X121994848Y-77849000D01*
X127447199Y-77849000D01*
X127637000Y-78038802D01*
X127637001Y-105222197D01*
X123982780Y-108876419D01*
X123974251Y-108882118D01*
X123212251Y-109644119D01*
X123148630Y-109686629D01*
X123106119Y-109750251D01*
X123106118Y-109750252D01*
X122980213Y-109938683D01*
X122921073Y-110236000D01*
X122936001Y-110311048D01*
X122936000Y-122040158D01*
X122627375Y-122246375D01*
X122414157Y-122565478D01*
X122353183Y-122435642D01*
X121924924Y-122045355D01*
X121514890Y-121875524D01*
X121285000Y-121996845D01*
X121285000Y-123190000D01*
X121305000Y-123190000D01*
X121305000Y-123444000D01*
X121285000Y-123444000D01*
X121285000Y-124637155D01*
X121514890Y-124758476D01*
X121924924Y-124588645D01*
X122353183Y-124198358D01*
X122414157Y-124068522D01*
X122627375Y-124387625D01*
X123118582Y-124715839D01*
X123551744Y-124802000D01*
X123844256Y-124802000D01*
X124277418Y-124715839D01*
X124768625Y-124387625D01*
X124968000Y-124089239D01*
X125167375Y-124387625D01*
X125658582Y-124715839D01*
X126091744Y-124802000D01*
X126384256Y-124802000D01*
X126817418Y-124715839D01*
X127308625Y-124387625D01*
X127508000Y-124089239D01*
X127707375Y-124387625D01*
X128198582Y-124715839D01*
X128631744Y-124802000D01*
X128924256Y-124802000D01*
X129357418Y-124715839D01*
X129848625Y-124387625D01*
X130048000Y-124089239D01*
X130247375Y-124387625D01*
X130738582Y-124715839D01*
X131171744Y-124802000D01*
X131464256Y-124802000D01*
X131897418Y-124715839D01*
X132388625Y-124387625D01*
X132716839Y-123896418D01*
X132781568Y-123571000D01*
X133528957Y-123571000D01*
X133604000Y-123585927D01*
X133679043Y-123571000D01*
X133679048Y-123571000D01*
X133901317Y-123526788D01*
X134031973Y-123439487D01*
X134035522Y-125147000D01*
X104850000Y-125147000D01*
X104850000Y-119792750D01*
X105944000Y-119792750D01*
X105944000Y-121613310D01*
X106040673Y-121846699D01*
X106219302Y-122025327D01*
X106452691Y-122122000D01*
X107283250Y-122122000D01*
X107442000Y-121963250D01*
X107442000Y-119634000D01*
X107696000Y-119634000D01*
X107696000Y-121963250D01*
X107854750Y-122122000D01*
X108685309Y-122122000D01*
X108918698Y-122025327D01*
X109097327Y-121846699D01*
X109194000Y-121613310D01*
X109194000Y-119792750D01*
X109035250Y-119634000D01*
X107696000Y-119634000D01*
X107442000Y-119634000D01*
X106102750Y-119634000D01*
X105944000Y-119792750D01*
X104850000Y-119792750D01*
X104850000Y-117400690D01*
X105944000Y-117400690D01*
X105944000Y-119221250D01*
X106102750Y-119380000D01*
X107442000Y-119380000D01*
X107442000Y-117050750D01*
X107696000Y-117050750D01*
X107696000Y-119380000D01*
X109035250Y-119380000D01*
X109194000Y-119221250D01*
X109194000Y-117400690D01*
X109097327Y-117167301D01*
X108918698Y-116988673D01*
X108685309Y-116892000D01*
X107854750Y-116892000D01*
X107696000Y-117050750D01*
X107442000Y-117050750D01*
X107283250Y-116892000D01*
X106452691Y-116892000D01*
X106219302Y-116988673D01*
X106040673Y-117167301D01*
X105944000Y-117400690D01*
X104850000Y-117400690D01*
X104850000Y-111990119D01*
X105283000Y-111990119D01*
X105283000Y-112545881D01*
X105495680Y-113059337D01*
X105888663Y-113452320D01*
X106402119Y-113665000D01*
X106957881Y-113665000D01*
X107471337Y-113452320D01*
X107766657Y-113157000D01*
X110235991Y-113157000D01*
X110235990Y-121007573D01*
X110218574Y-121095128D01*
X110235990Y-121182683D01*
X110287571Y-121441997D01*
X110484057Y-121736061D01*
X110558286Y-121785659D01*
X111280343Y-122507716D01*
X111329939Y-122581943D01*
X111624002Y-122778429D01*
X111883316Y-122830010D01*
X111883317Y-122830010D01*
X111970872Y-122847426D01*
X112058427Y-122830010D01*
X113079573Y-122830010D01*
X113167128Y-122847426D01*
X113254683Y-122830010D01*
X113254684Y-122830010D01*
X113513998Y-122778429D01*
X113808061Y-122581943D01*
X113857659Y-122507714D01*
X114579716Y-121785657D01*
X114653943Y-121736061D01*
X114850429Y-121441998D01*
X114902010Y-121182684D01*
X114902010Y-121182683D01*
X114919426Y-121095128D01*
X114902010Y-121007573D01*
X114902010Y-113924502D01*
X125603001Y-103223512D01*
X125603001Y-103570369D01*
X118132254Y-111041116D01*
X118068629Y-111083629D01*
X117900212Y-111335684D01*
X117856000Y-111557953D01*
X117856000Y-111557957D01*
X117841073Y-111633000D01*
X117856000Y-111708043D01*
X117856001Y-121819560D01*
X117768000Y-121819560D01*
X117520235Y-121868843D01*
X117310191Y-122009191D01*
X117169843Y-122219235D01*
X117120560Y-122467000D01*
X117120560Y-124167000D01*
X117169843Y-124414765D01*
X117310191Y-124624809D01*
X117520235Y-124765157D01*
X117768000Y-124814440D01*
X119468000Y-124814440D01*
X119715765Y-124765157D01*
X119925809Y-124624809D01*
X120066157Y-124414765D01*
X120086739Y-124311292D01*
X120391076Y-124588645D01*
X120801110Y-124758476D01*
X121031000Y-124637155D01*
X121031000Y-123444000D01*
X121011000Y-123444000D01*
X121011000Y-123190000D01*
X121031000Y-123190000D01*
X121031000Y-121996845D01*
X120801110Y-121875524D01*
X120391076Y-122045355D01*
X120086739Y-122322708D01*
X120066157Y-122219235D01*
X119925809Y-122009191D01*
X119715765Y-121868843D01*
X119468000Y-121819560D01*
X119380000Y-121819560D01*
X119380000Y-111948630D01*
X126850746Y-104477884D01*
X126914371Y-104435371D01*
X127046678Y-104237359D01*
X127082787Y-104183319D01*
X127082787Y-104183318D01*
X127082788Y-104183317D01*
X127127000Y-103961048D01*
X127127000Y-103961044D01*
X127141927Y-103886001D01*
X127127000Y-103810958D01*
X127127000Y-80339047D01*
X127141928Y-80264000D01*
X127112240Y-80114748D01*
X127082788Y-79966683D01*
X126914371Y-79714629D01*
X126850750Y-79672119D01*
X126321883Y-79143253D01*
X126279371Y-79079629D01*
X126027317Y-78911212D01*
X125805048Y-78867000D01*
X125805043Y-78867000D01*
X125730000Y-78852073D01*
X125654957Y-78867000D01*
X119949631Y-78867000D01*
X116244000Y-75161370D01*
X116244000Y-70941047D01*
X116258928Y-70866000D01*
X116226811Y-70704537D01*
X116199788Y-70568683D01*
X116031371Y-70316629D01*
X115967750Y-70274119D01*
X114322002Y-68628371D01*
X114337809Y-68617809D01*
X114478157Y-68407765D01*
X114498739Y-68304292D01*
X114803076Y-68581645D01*
X115213110Y-68751476D01*
X115443000Y-68630155D01*
X115443000Y-67437000D01*
X115423000Y-67437000D01*
X115423000Y-67183000D01*
X115443000Y-67183000D01*
X115443000Y-65989845D01*
X115213110Y-65868524D01*
X114803076Y-66038355D01*
X114498739Y-66315708D01*
X114478157Y-66212235D01*
X114337809Y-66002191D01*
X114127765Y-65861843D01*
X113880000Y-65812560D01*
X112180000Y-65812560D01*
X111932235Y-65861843D01*
X111722191Y-66002191D01*
X111581843Y-66212235D01*
X111532560Y-66460000D01*
X111532560Y-68160000D01*
X111581843Y-68407765D01*
X111722191Y-68617809D01*
X111932235Y-68758157D01*
X112180000Y-68807440D01*
X112376440Y-68807440D01*
X112480630Y-68963371D01*
X112544251Y-69005881D01*
X114720000Y-71181631D01*
X114720001Y-75401952D01*
X114705073Y-75477000D01*
X114764213Y-75774317D01*
X114859326Y-75916663D01*
X114932630Y-76026371D01*
X114996251Y-76068881D01*
X119042117Y-80114748D01*
X119084629Y-80178371D01*
X119336683Y-80346788D01*
X119558952Y-80391000D01*
X119558953Y-80391000D01*
X119634000Y-80405928D01*
X119709047Y-80391000D01*
X125414370Y-80391000D01*
X125603000Y-80579631D01*
X125603000Y-86387488D01*
X124762402Y-85546890D01*
X124843000Y-85352309D01*
X124843000Y-84511750D01*
X124684250Y-84353000D01*
X123585000Y-84353000D01*
X123585000Y-84373000D01*
X123331000Y-84373000D01*
X123331000Y-84353000D01*
X123311000Y-84353000D01*
X123311000Y-84099000D01*
X123331000Y-84099000D01*
X123331000Y-82749750D01*
X123585000Y-82749750D01*
X123585000Y-84099000D01*
X124684250Y-84099000D01*
X124843000Y-83940250D01*
X124843000Y-83099691D01*
X124746327Y-82866302D01*
X124567699Y-82687673D01*
X124334310Y-82591000D01*
X123743750Y-82591000D01*
X123585000Y-82749750D01*
X123331000Y-82749750D01*
X123172250Y-82591000D01*
X122581690Y-82591000D01*
X122348301Y-82687673D01*
X122307047Y-82728927D01*
X122155765Y-82627843D01*
X122047000Y-82606209D01*
X122047000Y-81875554D01*
X122064416Y-81787999D01*
X122039154Y-81660999D01*
X121995419Y-81441130D01*
X121798933Y-81147067D01*
X121724704Y-81097469D01*
X121721531Y-81094296D01*
X121671933Y-81020067D01*
X121377870Y-80823581D01*
X121118556Y-80772000D01*
X121118555Y-80772000D01*
X121031000Y-80754584D01*
X120943445Y-80772000D01*
X118732236Y-80772000D01*
X117530531Y-79570296D01*
X117480933Y-79496067D01*
X117186870Y-79299581D01*
X116927556Y-79248000D01*
X116927555Y-79248000D01*
X116840000Y-79230584D01*
X116752445Y-79248000D01*
X115668705Y-79248000D01*
X115420152Y-79081922D01*
X115081500Y-79014560D01*
X114506500Y-79014560D01*
X114167848Y-79081922D01*
X113999460Y-79194435D01*
X113928698Y-79123673D01*
X113695309Y-79027000D01*
X113329750Y-79027000D01*
X113171000Y-79185750D01*
X113171000Y-80010000D01*
X113191000Y-80010000D01*
X113191000Y-80264000D01*
X113171000Y-80264000D01*
X113171000Y-81088250D01*
X113329750Y-81247000D01*
X113695309Y-81247000D01*
X113928698Y-81150327D01*
X113999460Y-81079565D01*
X114167848Y-81192078D01*
X114506500Y-81259440D01*
X115081500Y-81259440D01*
X115420152Y-81192078D01*
X115668705Y-81026000D01*
X116471765Y-81026000D01*
X117673470Y-82227706D01*
X117723067Y-82301933D01*
X118017130Y-82498419D01*
X118276444Y-82550000D01*
X118276448Y-82550000D01*
X118363999Y-82567415D01*
X118451550Y-82550000D01*
X120269000Y-82550000D01*
X120269000Y-82606208D01*
X120160235Y-82627843D01*
X120008000Y-82729564D01*
X119855765Y-82627843D01*
X119608000Y-82578560D01*
X118108000Y-82578560D01*
X117860235Y-82627843D01*
X117650191Y-82768191D01*
X117509843Y-82978235D01*
X117460560Y-83226000D01*
X117460560Y-83347320D01*
X117253129Y-83388581D01*
X117054783Y-83521112D01*
X116959067Y-83585067D01*
X116909471Y-83659293D01*
X114191500Y-86377265D01*
X113898440Y-86084205D01*
X113898440Y-85931500D01*
X113831078Y-85592848D01*
X113718565Y-85424460D01*
X113789327Y-85353698D01*
X113886000Y-85120309D01*
X113886000Y-84754750D01*
X113727250Y-84596000D01*
X112903000Y-84596000D01*
X112903000Y-84616000D01*
X112649000Y-84616000D01*
X112649000Y-84596000D01*
X111824750Y-84596000D01*
X111666000Y-84754750D01*
X111666000Y-85120309D01*
X111762673Y-85353698D01*
X111833435Y-85424460D01*
X111720922Y-85592848D01*
X111653560Y-85931500D01*
X111653560Y-86506500D01*
X111720922Y-86845152D01*
X111912753Y-87132247D01*
X112199848Y-87324078D01*
X112538500Y-87391440D01*
X112691205Y-87391440D01*
X113482470Y-88182706D01*
X113532067Y-88256933D01*
X113826130Y-88453419D01*
X114085444Y-88505000D01*
X114085448Y-88505000D01*
X114172999Y-88522415D01*
X114260550Y-88505000D01*
X114339444Y-88505000D01*
X114427000Y-88522416D01*
X114514556Y-88505000D01*
X123825001Y-88505000D01*
X123825000Y-101485764D01*
X112013990Y-113296775D01*
X112013990Y-112228555D01*
X112031406Y-112141001D01*
X112013990Y-112053444D01*
X112013990Y-102435245D01*
X121724707Y-92724529D01*
X121798933Y-92674933D01*
X121995419Y-92380870D01*
X122036680Y-92173440D01*
X123058000Y-92173440D01*
X123305765Y-92124157D01*
X123515809Y-91983809D01*
X123656157Y-91773765D01*
X123705440Y-91526000D01*
X123705440Y-89526000D01*
X123656157Y-89278235D01*
X123515809Y-89068191D01*
X123305765Y-88927843D01*
X123058000Y-88878560D01*
X119258000Y-88878560D01*
X119010235Y-88927843D01*
X118800191Y-89068191D01*
X118659843Y-89278235D01*
X118610560Y-89526000D01*
X118610560Y-91526000D01*
X118659843Y-91773765D01*
X118800191Y-91983809D01*
X119010235Y-92124157D01*
X119258000Y-92173440D01*
X119761324Y-92173440D01*
X110558284Y-101376481D01*
X110484058Y-101426077D01*
X110434462Y-101500303D01*
X110434461Y-101500304D01*
X110287572Y-101720140D01*
X110218574Y-102067010D01*
X110235991Y-102154569D01*
X110235990Y-111379000D01*
X107766657Y-111379000D01*
X107471337Y-111083680D01*
X107280353Y-111004572D01*
X107411143Y-110950397D01*
X107480608Y-110708213D01*
X106680000Y-109907605D01*
X105879392Y-110708213D01*
X105948857Y-110950397D01*
X106089393Y-111000535D01*
X105888663Y-111083680D01*
X105495680Y-111476663D01*
X105283000Y-111990119D01*
X104850000Y-111990119D01*
X104850000Y-109520302D01*
X105270856Y-109520302D01*
X105298638Y-110075368D01*
X105457603Y-110459143D01*
X105699787Y-110528608D01*
X106500395Y-109728000D01*
X106859605Y-109728000D01*
X107660213Y-110528608D01*
X107902397Y-110459143D01*
X108089144Y-109935698D01*
X108061362Y-109380632D01*
X107902397Y-108996857D01*
X107660213Y-108927392D01*
X106859605Y-109728000D01*
X106500395Y-109728000D01*
X105699787Y-108927392D01*
X105457603Y-108996857D01*
X105270856Y-109520302D01*
X104850000Y-109520302D01*
X104850000Y-76430119D01*
X105283000Y-76430119D01*
X105283000Y-76985881D01*
X105495680Y-77499337D01*
X105888663Y-77892320D01*
X106095513Y-77978000D01*
X105888663Y-78063680D01*
X105495680Y-78456663D01*
X105283000Y-78970119D01*
X105283000Y-79525881D01*
X105495680Y-80039337D01*
X105888663Y-80432320D01*
X106095513Y-80518000D01*
X105888663Y-80603680D01*
X105495680Y-80996663D01*
X105283000Y-81510119D01*
X105283000Y-82065881D01*
X105495680Y-82579337D01*
X105888663Y-82972320D01*
X106095513Y-83058000D01*
X105888663Y-83143680D01*
X105495680Y-83536663D01*
X105283000Y-84050119D01*
X105283000Y-84605881D01*
X105495680Y-85119337D01*
X105888663Y-85512320D01*
X106095513Y-85598000D01*
X105888663Y-85683680D01*
X105495680Y-86076663D01*
X105283000Y-86590119D01*
X105283000Y-87145881D01*
X105495680Y-87659337D01*
X105888663Y-88052320D01*
X106095513Y-88138000D01*
X105888663Y-88223680D01*
X105495680Y-88616663D01*
X105283000Y-89130119D01*
X105283000Y-89685881D01*
X105495680Y-90199337D01*
X105888663Y-90592320D01*
X106095513Y-90678000D01*
X105888663Y-90763680D01*
X105495680Y-91156663D01*
X105283000Y-91670119D01*
X105283000Y-92225881D01*
X105495680Y-92739337D01*
X105888663Y-93132320D01*
X106095513Y-93218000D01*
X105888663Y-93303680D01*
X105495680Y-93696663D01*
X105283000Y-94210119D01*
X105283000Y-94765881D01*
X105495680Y-95279337D01*
X105888663Y-95672320D01*
X106095513Y-95758000D01*
X105888663Y-95843680D01*
X105495680Y-96236663D01*
X105283000Y-96750119D01*
X105283000Y-97305881D01*
X105495680Y-97819337D01*
X105888663Y-98212320D01*
X106095513Y-98298000D01*
X105888663Y-98383680D01*
X105495680Y-98776663D01*
X105283000Y-99290119D01*
X105283000Y-99845881D01*
X105495680Y-100359337D01*
X105888663Y-100752320D01*
X106095513Y-100838000D01*
X105888663Y-100923680D01*
X105495680Y-101316663D01*
X105283000Y-101830119D01*
X105283000Y-102385881D01*
X105495680Y-102899337D01*
X105888663Y-103292320D01*
X106095513Y-103378000D01*
X105888663Y-103463680D01*
X105495680Y-103856663D01*
X105283000Y-104370119D01*
X105283000Y-104925881D01*
X105495680Y-105439337D01*
X105888663Y-105832320D01*
X106095513Y-105918000D01*
X105888663Y-106003680D01*
X105495680Y-106396663D01*
X105283000Y-106910119D01*
X105283000Y-107465881D01*
X105495680Y-107979337D01*
X105888663Y-108372320D01*
X106079647Y-108451428D01*
X105948857Y-108505603D01*
X105879392Y-108747787D01*
X106680000Y-109548395D01*
X107480608Y-108747787D01*
X107411143Y-108505603D01*
X107270607Y-108455465D01*
X107471337Y-108372320D01*
X107864320Y-107979337D01*
X108077000Y-107465881D01*
X108077000Y-106910119D01*
X107864320Y-106396663D01*
X107471337Y-106003680D01*
X107264487Y-105918000D01*
X107471337Y-105832320D01*
X107864320Y-105439337D01*
X108077000Y-104925881D01*
X108077000Y-104370119D01*
X107864320Y-103856663D01*
X107471337Y-103463680D01*
X107264487Y-103378000D01*
X107471337Y-103292320D01*
X107864320Y-102899337D01*
X108077000Y-102385881D01*
X108077000Y-101830119D01*
X107864320Y-101316663D01*
X107471337Y-100923680D01*
X107264487Y-100838000D01*
X107471337Y-100752320D01*
X107864320Y-100359337D01*
X108077000Y-99845881D01*
X108077000Y-99290119D01*
X107864320Y-98776663D01*
X107471337Y-98383680D01*
X107264487Y-98298000D01*
X107471337Y-98212320D01*
X107864320Y-97819337D01*
X108077000Y-97305881D01*
X108077000Y-96750119D01*
X107864320Y-96236663D01*
X107471337Y-95843680D01*
X107264487Y-95758000D01*
X107471337Y-95672320D01*
X107864320Y-95279337D01*
X108077000Y-94765881D01*
X108077000Y-94210119D01*
X107864320Y-93696663D01*
X107471337Y-93303680D01*
X107264487Y-93218000D01*
X107471337Y-93132320D01*
X107864320Y-92739337D01*
X108077000Y-92225881D01*
X108077000Y-91670119D01*
X107864320Y-91156663D01*
X107471337Y-90763680D01*
X107264487Y-90678000D01*
X107471337Y-90592320D01*
X107864320Y-90199337D01*
X108077000Y-89685881D01*
X108077000Y-89130119D01*
X107864320Y-88616663D01*
X107471337Y-88223680D01*
X107264487Y-88138000D01*
X107471337Y-88052320D01*
X107864320Y-87659337D01*
X108077000Y-87145881D01*
X108077000Y-86590119D01*
X107864320Y-86076663D01*
X107471337Y-85683680D01*
X107264487Y-85598000D01*
X107471337Y-85512320D01*
X107864320Y-85119337D01*
X108077000Y-84605881D01*
X108077000Y-84050119D01*
X107980726Y-83817691D01*
X111666000Y-83817691D01*
X111666000Y-84183250D01*
X111824750Y-84342000D01*
X112649000Y-84342000D01*
X112649000Y-83467750D01*
X112903000Y-83467750D01*
X112903000Y-84342000D01*
X113727250Y-84342000D01*
X113886000Y-84183250D01*
X113886000Y-83817691D01*
X113789327Y-83584302D01*
X113610699Y-83405673D01*
X113377310Y-83309000D01*
X113061750Y-83309000D01*
X112903000Y-83467750D01*
X112649000Y-83467750D01*
X112490250Y-83309000D01*
X112174690Y-83309000D01*
X111941301Y-83405673D01*
X111762673Y-83584302D01*
X111666000Y-83817691D01*
X107980726Y-83817691D01*
X107864320Y-83536663D01*
X107471337Y-83143680D01*
X107264487Y-83058000D01*
X107471337Y-82972320D01*
X107864320Y-82579337D01*
X108077000Y-82065881D01*
X108077000Y-81510119D01*
X107864320Y-80996663D01*
X107471337Y-80603680D01*
X107264487Y-80518000D01*
X107471337Y-80432320D01*
X107480907Y-80422750D01*
X111884000Y-80422750D01*
X111884000Y-80738310D01*
X111980673Y-80971699D01*
X112159302Y-81150327D01*
X112392691Y-81247000D01*
X112758250Y-81247000D01*
X112917000Y-81088250D01*
X112917000Y-80264000D01*
X112042750Y-80264000D01*
X111884000Y-80422750D01*
X107480907Y-80422750D01*
X107864320Y-80039337D01*
X108072936Y-79535690D01*
X111884000Y-79535690D01*
X111884000Y-79851250D01*
X112042750Y-80010000D01*
X112917000Y-80010000D01*
X112917000Y-79185750D01*
X112758250Y-79027000D01*
X112392691Y-79027000D01*
X112159302Y-79123673D01*
X111980673Y-79302301D01*
X111884000Y-79535690D01*
X108072936Y-79535690D01*
X108077000Y-79525881D01*
X108077000Y-78970119D01*
X107864320Y-78456663D01*
X107471337Y-78063680D01*
X107264487Y-77978000D01*
X107471337Y-77892320D01*
X107864320Y-77499337D01*
X108077000Y-76985881D01*
X108077000Y-76430119D01*
X107864320Y-75916663D01*
X107471337Y-75523680D01*
X106957881Y-75311000D01*
X106402119Y-75311000D01*
X105888663Y-75523680D01*
X105495680Y-75916663D01*
X105283000Y-76430119D01*
X104850000Y-76430119D01*
X104850000Y-65480000D01*
X119684863Y-65480000D01*
X119628605Y-65517590D01*
G04 #@! TD*
M02*
