M48
;DRILL file {KiCad (5.0.2)-1} date 03-Mar-19 11:18:19 PM
;FORMAT={2:4/ absolute / inch / suppress leading zeros}
FMAT,2
INCH,TZ
T1C0.0300
T2C0.0394
T3C0.0520
%
G90
G05
T1
X42000Y-30200
X42000Y-31200
X42000Y-32200
X42000Y-33200
X42000Y-34200
X42000Y-35200
X42000Y-36200
X42000Y-37200
X42000Y-38200
X42000Y-39200
X42000Y-40200
X42000Y-41200
X42000Y-42200
X42000Y-43200
X42000Y-44200
X52000Y-30200
X52000Y-31200
X52000Y-32200
X52000Y-33200
X52000Y-34200
X52000Y-35200
X52000Y-36200
X52000Y-37200
X52000Y-38200
X52000Y-39200
X52000Y-40200
X52000Y-41200
X52000Y-42200
X52000Y-43200
X52000Y-44200
T2
X44500Y-26500
X45500Y-26500
X46500Y-26500
X47500Y-26500
X48500Y-26500
X49500Y-26500
X46700Y-48550
X47700Y-48550
X48700Y-48550
X49700Y-48550
X50700Y-48550
X51700Y-48550
T3
X42350Y-47050
X44319Y-47050
T0
M30
